<svg version="1.1" id="Layer_1" xmlns="http://www.w3.org/2000/svg" x="0" y="0" viewBox="0 0 200 40" xml:space="preserve"><style>.st5{fill:#535456}</style><path class="st5" d="M86.5 19.1c.7.2 1.3.4 1.9 1 .3.3.5.6.6 1 .2.6.3 1.2.3 1.9v2.7c0 .6-.1 1.2-.3 1.8-.2.7-.7 1.3-1.5 1.5-.4.2-.9.2-1.4.2-2.6.2-5.3.1-7.9.1-.4 0-.4 0-.4-.4V10.8c0-.4 0-.4.4-.4h5.6c.8 0 1.5.1 2.3.3 1.2.3 2.1 1.1 2.5 2.4.2.6.2 1.1.3 1.7 0 .4.1.7.1 1.1 0 .5-.1 1.1-.2 1.6s-.5.9-1 1.2c-.5.2-1 .2-1.3.4zm-3.8 4.3v2.1c0 .5 0 .5.5.5.6-.1.9-.3.9-.9.1-1.2.1-2.3 0-3.5 0-.4-.2-.6-.6-.7-.2 0-.4 0-.5-.1-.2 0-.3.1-.3.3v2.3zm0-7.7v1.4c0 .7 0 .7.7.7.3 0 .7-.3.7-.6.1-.8.1-1.6.1-2.4-.1-.5-.2-.8-.7-1-.2-.1-.3 0-.5 0s-.3.1-.3.3v1.6zM61.7 19.4v4.5c0 .7-.1 1.4-.2 2-.2 1-.8 1.8-1.6 2.4-.5.4-1 .6-1.5.8-1 .3-2.1.2-3.2.2-.5 0-.9-.2-1.4-.3-.7-.2-1.3-.6-1.8-1.1-.6-.7-1-1.5-1.2-2.4-.1-.5-.1-1-.1-1.5v-8.2c0-.7 0-1.3.2-2 .2-.9.4-1.7 1.1-2.4.4-.4.8-.7 1.3-.9 1.3-.6 2.6-.6 3.9-.5.9.1 1.7.4 2.5.9.6.4 1.1.9 1.5 1.6.4.7.4 1.5.5 2.3.1 1.7-.1 3.3 0 4.6zm-4.8.3v-4.4c0-.6 0-1.2-.1-1.8-.1-.4-.3-.6-.7-.6s-.7.2-.7.5c0 .2-.1.4-.1.6v10.1c0 .6 0 1.2.1 1.8 0 .2.1.4.4.4h.6c.1 0 .2-.1.3-.2.1-.3.2-.5.2-.8v-5.6zM149.1 14.5c.3-.1.5-.3.7-.4 1-.7 2.2-.7 3.3-.4 1 .3 1.8.9 2 2 .1.5.2 1.1.2 1.7.1 3.9 0 7.7 0 11.6 0 .4 0 .4-.4.4h-4c-.4 0-.4 0-.4-.4V17.8c0-.4-.1-.7-.2-1 0-.2-.2-.3-.4-.3s-.5 0-.6.2-.2.5-.2.8V29c0 .5 0 .5-.5.5h-3.9c-.4 0-.4 0-.4-.4V10.9c0-.3 0-.3.3-.3h4.1c.3 0 .3.1.3.3 0 1.2 0 2.3.1 3.6 0-.2 0-.1 0 0zM126 23.1v3.4c0 .9-.1 1.7-.1 2.6 0 .2-.1.2-.2.2h-4.3c-.2 0-.2-.1-.2-.2v-.2-18-.2c0-.2.1-.2.2-.2h4.2c.2 0 .3.1.3.3-.1 1.5.1 2.9.1 4.4V18c.2-.6.4-1.3.6-1.9.2-.7.5-1.4.7-2.1 0-.1.1-.1.2-.1h3.6c.2 0 .2.1.2.2-.3.8-.5 1.6-.8 2.4-.3.8-.5 1.6-.8 2.4-.1.3-.1.6-.3.9v.2c.3.9.5 1.8.7 2.7.2.6.3 1.2.5 1.8.3 1 .5 1.9.8 2.9.1.5.3 1.1.4 1.6.1.2 0 .3-.2.3h-4.1c-.2 0-.2 0-.3-.2-.2-.8-.4-1.6-.5-2.5-.2-.9-.4-1.8-.6-2.6.1-.3 0-.6-.1-.9zM180.1 15c.3-.4.6-.7 1-1s.8-.5 1.3-.5c.6 0 1.2-.1 1.8.1.7.2 1.3.7 1.7 1.4.2.4.3.9.3 1.4.2 4.2 0 8.3.1 12.5 0 .4 0 .4-.4.4h-4c-.4 0-.4 0-.4-.4V18.2c0-.4 0-.9-.1-1.3 0-.5-.5-.8-1-.6-.1 0-.2.1-.2.2-.1.3-.2.5-.2.8v11.4c0 .6 0 .5-.6.5h-3.9c-.4 0-.4 0-.4-.4V14.1c0-.4 0-.4.4-.4h4.2c.3 0 .4.1.3.4 0 .4.1.7.1.9zM162.5 28.1c-.2.3-.4.5-.7.8-.2.2-.5.3-.7.4-.6.2-1.1.3-1.7.2-.7-.1-1.4-.3-2-.8-.2-.2-.4-.5-.5-.8-.2-.5-.3-1.1-.3-1.6v-2.2c0-.5.1-1 .3-1.5.1-.4.4-.7.8-.9l1.8-.9c.8-.3 1.6-.6 2.4-1 .4-.2.6-.5.6-1 0-.6 0-1.3-.1-1.9-.1-.7-.5-.7-1-.6-.2 0-.2.1-.3.3-.1.5 0 .9-.1 1.4v1.5c0 .2-.1.3-.3.3h-3.9c-.2 0-.3-.1-.3-.3 0-.8-.1-1.5.1-2.3.2-1.1.6-2.1 1.5-2.7 1-.7 2.1-1 3.4-1 .8 0 1.6 0 2.4.1 1 .2 1.9.7 2.5 1.5.4.5.6 1 .6 1.6.1.7.1 1.4.1 2.1.2 3.3 0 6.7.1 10 0 .2-.1.3-.3.3h-4.1c-.2 0-.2-.1-.2-.3-.1 0-.1-.3-.1-.7 0 .1 0 .1 0 0zm-.1-3.9v-1.9c0-.1 0-.2-.1-.2s-.1 0-.2.1l-.5.5c-.2.2-.4.5-.5.8-.1.9-.1 1.8 0 2.7 0 .2.1.4.4.4.6.2.9-.1.9-.7v-.1-1.6zM97.1 21.7v-2.6c0-.5 0-1.1.1-1.6.1-.7.3-1.4.7-2 .4-.6.9-1 1.5-1.3.9-.5 1.8-.6 2.8-.6.7 0 1.3 0 2 .2.8.2 1.5.5 2.1 1 .7.6 1.2 1.4 1.4 2.3.1.6.2 1.1.2 1.7v5.1c0 .6 0 1.1-.1 1.7-.2 1.1-.6 2.1-1.4 2.8-.4.4-.9.6-1.5.8-1.1.4-2.2.4-3.4.3-.7 0-1.4-.2-2.1-.5-.9-.4-1.5-1-1.9-2-.3-.8-.4-1.7-.5-2.6.1-.8.1-1.8.1-2.7zm6-.2v-4.2-.5c-.1-.3-.2-.5-.5-.5-.4 0-.6.1-.6.5-.1.3-.1.6-.1.9v7.6c0 .3 0 .6.1.9.1.4.2.5.6.4.3 0 .4-.1.5-.5v-.4-4.2zM189.6 23.8h1.9c.2 0 .3.1.3.3v1.8c0 .2 0 .3.1.5.2.3.5.4 1 .3.3-.1.4-.2.4-.6v-1.5c0-.3-.2-.4-.4-.6-.6-.4-1.2-.7-1.8-1.1-.8-.5-1.7-.9-2.4-1.5-.4-.4-.8-.8-1-1.3s-.2-.9-.3-1.4c0-.2-.1-.4-.1-.6.1-.6.1-1.2.2-1.8.2-.8.6-1.4 1.3-1.8.9-.5 1.8-.8 2.8-.8.8 0 1.5-.1 2.3.1.8.2 1.5.4 2.1.9.5.3.8.8 1.1 1.3.2.4.2.8.2 1.1v1.6c0 .2-.1.2-.3.2h-3.7c-.2 0-.3-.1-.3-.3v-1.2c0-.3-.1-.5-.1-.7 0-.1 0-.1-.1-.2-.4-.3-1.1 0-1.2.5v1.1c0 .5.3.8.7 1 .6.4 1.3.8 2 1.1.8.4 1.6.8 2.3 1.5.4.4.7.9.9 1.4.3 1 .2 1.9.1 2.9-.1.7-.3 1.4-.7 2-.3.4-.6.7-1 .9-.6.3-1.2.5-1.9.6s-1.4.1-2.1.1c-.9-.1-1.8-.3-2.6-.7-.9-.5-1.5-1.2-1.7-2.3-.2-.8-.1-1.6-.2-2.4 0-.2.1-.3.3-.3.7-.1 1.3-.1 1.9-.1zM114 21.1v4.1c0 .3 0 .6.1.9.2.4.3.5.7.5.4 0 .5-.1.6-.5.2-.6.2-1.1.2-1.7V23c0-.2.1-.3.2-.3h3.8c.2 0 .2.1.2.2 0 .6 0 1.3-.1 1.9s-.1 1.2-.4 1.8c-.4.7-.8 1.4-1.5 1.9-.6.4-1.3.6-2.1.8-.7.1-1.4.1-2.1.1-.8-.1-1.7-.3-2.4-.7-.6-.4-1.1-.9-1.4-1.6s-.5-1.5-.5-2.3c-.1-2.3 0-4.5 0-6.8 0-.6.1-1.3.3-1.9.2-.5.5-.9.9-1.3s.9-.7 1.4-.9c.4-.2.8-.3 1.3-.4 1-.1 2-.1 3 .1s1.9.7 2.6 1.5c.4.4.6 1 .8 1.5.2.9.3 1.7.3 2.6 0 .3 0 .4-.3.4h-3.9c-.2 0-.3-.1-.3-.3V17c0-.4-.2-.6-.5-.7-.5-.1-.7.1-.7.6-.2 1.6-.1 3-.2 4.2zM137.1 21.4v3.8c0 .4 0 .9.3 1.2.2.2.5.2.7.2s.3-.2.4-.4c0-.2.1-.4.1-.6.1-.9.1-1.7.1-2.6 0-.2.1-.2.2-.2h3.8c.2 0 .2.1.2.2 0 .7-.1 1.4-.1 2.1v.4c-.1.6-.3 1.2-.6 1.7-.2.4-.5.8-.9 1.1-.3.3-.7.5-1.1.7-1.1.5-2.3.5-3.5.4-.6 0-1.3-.2-1.8-.4-.8-.4-1.5-1-1.9-1.8-.3-.7-.5-1.5-.5-2.3-.2-2.2-.1-4.4-.1-6.7 0-.8.1-1.6.4-2.3.2-.4.5-.8.9-1.1.5-.4 1-.7 1.5-.9 1.1-.4 2.2-.4 3.3-.3.5 0 1 .2 1.4.3.5.2.9.4 1.3.7.5.4.8.8 1.1 1.3.2.4.3.9.4 1.4.1.6.2 1.3.2 1.9 0 .2-.1.3-.3.3h-3.9c-.2 0-.3-.1-.3-.3v-1.5c0-.4-.1-.8-.2-1.2 0-.3-.2-.4-.6-.4-.4 0-.5.1-.5.4-.1.4-.1.7-.1 1.1.2 1.5.1 2.6.1 3.8zM70.4 19.7v8.9c0 .4 0 .4-.4.4h-3.9c-.4 0-.4 0-.4-.4V17.2c0-.3 0-.5-.1-.8-.1-.4-.5-.7-1-.8-.6-.1-1.2-.1-1.8-.1-.2 0-.3-.1-.3-.3v-1.7c0-.2 0-.3.2-.3.5-.1 1-.3 1.5-.5.7-.3 1.4-.6 2-1.1.5-.4.9-.7 1.2-1.2.1-.1.2-.2.3-.2h2.4c.3 0 .2.2.2.3v7.3c.1.8.1 1.4.1 1.9zM48.8 19.7v9c0 .4 0 .4-.4.4h-3.9c-.4 0-.4 0-.4-.4V17.3c0-.3-.1-.6-.2-.9-.1-.4-.5-.5-.9-.6-.6-.1-1.2-.1-1.8-.1-.2 0-.3-.1-.3-.3v-1.7c0-.2 0-.2.2-.3.4-.1.9-.2 1.3-.4.6-.3 1.2-.5 1.8-.9.5-.3.9-.7 1.3-1.1l.3-.3c.1-.2.3-.2.5-.2h2.2c.3 0 .3.1.3.3v8.9zM90.7 19.9v-9.1c0-.4 0-.4.4-.4h4.2c.2 0 .3.1.3.3V29c0 .2-.1.3-.3.3H91c-.3 0-.3 0-.3-.3v-9.1zM168.8 21.6v-7.4c0-.3 0-.3.3-.3h4.3c.3 0 .3 0 .3.3V29c0 .3 0 .3-.3.3h-4.3c-.3 0-.3-.1-.3-.3v-7.4zM171.2 10.4h2.2c.2 0 .3.1.3.3v1.9c0 .2-.1.3-.3.3H169c-.2 0-.3-.1-.3-.3v-2c0-.2.1-.3.3-.3.8.1 1.5.1 2.2.1z"/><g><path transform="rotate(-36.157 22.606 16.775)" fill="#871619" d="M18 12.2h9.2v9.2H18z"/><path fill="#ed1c24" d="M23.8 4.8l-7.4 5.5-.3 5.5 7.5-5.5z"/><path fill="#bb2025" d="M29 17.8l.2-5.6-5.4-7.4-.2 5.5z"/><path transform="rotate(-36.157 8.712 14.598)" fill="#556c11" d="M4.1 10h9.2v9.2H4.1z"/><path fill="#a7c045" d="M9.9 2.6L2.5 8.1l-.2 5.5 7.4-5.5z"/><path fill="#779221" d="M15.1 15.6l.3-5.5-5.5-7.5-.2 5.5z"/><g><path transform="rotate(-36.157 28.07 30.922)" fill="#fbad18" d="M23.5 26.3h9.2v9.2h-9.2z"/><path fill="#ffdeaa" d="M29.3 19l-7.4 5.4-.2 5.5 7.4-5.4z"/><path fill="#fec465" d="M34.6 32l.2-5.6-5.5-7.4-.2 5.5z"/></g><g><path transform="rotate(-36.157 14.256 28.687)" fill="#003462" d="M9.7 24.1h9.2v9.2H9.7z"/><path fill="#99b3d8" d="M15.5 16.8L8 22.2l-.2 5.5 7.5-5.4z"/><path fill="#236598" d="M20.7 29.8l.2-5.6-5.4-7.4-.2 5.5z"/></g></g></svg>