<?xml version="1.0" encoding="UTF-8"?>
<svg width="64px" height="64px" viewBox="0 0 64 64" version="1.1" xmlns="http://www.w3.org/2000/svg" xmlns:xlink="http://www.w3.org/1999/xlink">
    <title>icon-digital-transformation</title>
    <g id="icon-digital-transformation" stroke="none" stroke-width="1" fill="none" fill-rule="evenodd">
        <g id="Icon">
            <g id="Border" opacity="0.0599999987" fill="#1565D8">
                <rect id="Shape" x="0" y="0" width="64" height="64" rx="16"></rect>
            </g>
            <g id="Icon_Workflow-Copy-9" transform="translate(12.000000, 12.000000)">
                <polygon id="path" points="0 0 40 0 40 40 0 40"></polygon>
                <path d="M20.4585861,4.98199024 L23.2508257,7.77422982 C23.6597397,8.18314384 23.6597397,8.84612445 23.2508257,9.25503847 L20.4585861,12.0472781 C20.0496721,12.4561921 19.3866915,12.4561921 18.9777775,12.0472781 C18.5688635,11.638364 18.5688635,10.9753834 18.9777775,10.5664694 L19.9825229,9.56172399 L20.0442757,9.49330473 L16.6452757,9.49358521 C16.0929909,9.49358521 15.6452757,9.04586996 15.6452757,8.49358521 C15.6452757,7.98074938 16.0313159,7.55807805 16.5286545,7.50031295 L16.6452757,7.49358521 L20.0062757,7.49330473 L19.9825229,7.46754431 L18.9777775,6.4627989 C18.5688635,6.05388488 18.5688635,5.39090426 18.9777775,4.98199024 C19.3866915,4.57307622 20.0496721,4.57307622 20.4585861,4.98199024 Z" id="Combined-Shape" fill="#1565D8" opacity="0.3"></path>
                <path d="M18.7442008,27.0405268 L15.9519612,29.8327664 C15.5430472,30.2416804 15.5430472,30.904661 15.9519612,31.3135751 L18.7442008,34.1058146 C19.1531148,34.5147287 19.8160954,34.5147287 20.2250094,34.1058146 C20.6339234,33.6969006 20.6339234,33.03392 20.2250094,32.625006 L19.220264,31.6202606 L19.1585112,31.5518413 L22.5575112,31.5521218 C23.109796,31.5521218 23.5575112,31.1044065 23.5575112,30.5521218 C23.5575112,30.039286 23.171471,29.6166146 22.6741324,29.5588495 L22.5575112,29.5521218 L19.1965112,29.5518413 L20.2250094,28.5213355 C20.6339234,28.1124215 20.6339234,27.4494408 20.2250094,27.0405268 C19.8160954,26.6316128 19.1531148,26.6316128 18.7442008,27.0405268 Z" id="Path" fill="#1565D8" opacity="0.3"></path>
                <path d="M12.0472781,19.1428073 L9.25503847,16.3505677 C8.84612445,15.9416537 8.18314384,15.9416537 7.77422982,16.3505677 L4.98199024,19.1428073 C4.57307622,19.5517213 4.57307622,20.2147019 4.98199024,20.623616 C5.39090426,21.03253 6.05388488,21.03253 6.4627989,20.623616 L7.46754431,19.6188706 L7.53596356,19.5571178 L7.53568308,22.9561178 C7.53568308,23.5084025 7.98339833,23.9561178 8.53568308,23.9561178 C9.04851892,23.9561178 9.47119024,23.5700776 9.52895535,23.0727389 L9.53568308,22.9561178 L9.53596356,19.5951178 L9.56172399,19.6188706 L10.5664694,20.623616 C10.9753834,21.03253 11.638364,21.03253 12.0472781,20.623616 C12.4561921,20.2147019 12.4561921,19.5517213 12.0472781,19.1428073 Z" id="Path" fill="#1565D8" opacity="0.3"></path>
                <path d="M27.0482789,20.8571927 L29.8405185,23.6494323 C30.2494325,24.0583463 30.9124131,24.0583463 31.3213272,23.6494323 L34.1135667,20.8571927 C34.5224808,20.4482787 34.5224808,19.7852981 34.1135667,19.376384 C33.7046527,18.96747 33.0416721,18.96747 32.6327581,19.376384 L31.6280127,20.3811294 L31.5595934,20.4428822 L31.5598739,17.0438822 C31.5598739,16.4915975 31.1121587,16.0438822 30.5598739,16.0438822 C30.0470381,16.0438822 29.6243667,16.4299224 29.5666016,16.9272611 L29.5598739,17.0438822 L29.5595934,20.4048822 L29.533833,20.3811294 L28.5290876,19.376384 C28.1201736,18.96747 27.457193,18.96747 27.0482789,19.376384 C26.6393649,19.7852981 26.6393649,20.4482787 27.0482789,20.8571927 Z" id="Path" fill="#1565D8" opacity="0.3"></path>
                <path d="M5.62759125,25.5208457 L11.401677,25.5208457 C12.5975294,25.5208457 13.5669592,26.4902755 13.5669592,27.6861278 L13.5669592,33.4602136 C13.5669592,34.656066 12.5975294,35.6254958 11.401677,35.6254958 L5.62759125,35.6254958 C4.43173892,35.6254958 3.46230907,34.656066 3.46230907,33.4602136 L3.46230907,27.6861278 C3.46230907,26.4902755 4.43173892,25.5208457 5.62759125,25.5208457 Z" id="path" fill="#0376B7"></path>
                <path d="M13.1851122,9.78840089 L9.78840089,13.1851122 C9.08491894,13.8885941 7.94434935,13.8885941 7.24086741,13.1851122 L3.8441561,9.78840089 C3.14067415,9.08491894 3.14067415,7.94434935 3.8441561,7.24086741 L7.24086741,3.8441561 C7.94434935,3.14067415 9.08491894,3.14067415 9.78840089,3.8441561 L13.1851122,7.24086741 C13.8885941,7.94434935 13.8885941,9.08491894 13.1851122,9.78840089 Z" id="path" fill="#0376B7"></path>
                <circle id="Oval" fill="#0376B7" cx="30.5809228" cy="8.51463415" r="5.15955499"></circle>
            </g>
        </g>
        <path d="M47.550054,45.7686755 L43.0729515,37.7595102 C42.8318768,37.3318363 42.315288,37.3318363 42.0742133,37.7595102 L37.5971109,45.7686755 C37.3560361,46.1963494 37.6315501,46.7795411 38.0792604,46.7795411 L47.0679045,46.7795411 C47.5156147,46.7795411 47.8255679,46.1963494 47.550054,45.7686755 Z" id="Path-Copy-5" fill="#0376B7" fill-rule="nonzero"></path>
    </g>
</svg>