<?xml version="1.0" encoding="UTF-8"?>
<svg width="171px" height="53px" viewBox="0 0 171 53" version="1.1" xmlns="http://www.w3.org/2000/svg" xmlns:xlink="http://www.w3.org/1999/xlink">
    <!-- Generator: Sketch 56.3 (81716) - https://sketch.com -->
    <title>masthead-en</title>
    <desc>Created with Sketch.</desc>
    <g id="Symbols" stroke="none" stroke-width="1" fill="none" fill-rule="evenodd">
        <g id="element-/-footer" transform="translate(0.000000, -34.000000)" fill="#FFFFFF" fill-rule="nonzero">
            <g id="masthead-en" transform="translate(0.000000, 34.000000)">
                <path d="M6.36763133,14.7083689 C7.14292037,14.0846524 8.07782774,13.313512 9.13244887,12.4062881 C9.52009339,12.0717492 9.83933005,11.7825716 10.0787575,11.5444253 C10.3306381,11.2918287 10.5403972,11.0008859 10.7001289,10.6825625 C10.896814,10.2744902 11.0662993,9.85399133 11.2074872,9.42378919 L11.9029671,7.37119491 L11.8288585,7.37119491 C11.5454278,8.05872603 11.1088127,8.67330794 10.5519119,9.16863244 C10.0187375,9.61832322 9.46113376,10.0385472 8.88162006,10.4274057 C8.24042735,10.8620206 7.63258471,11.3434183 7.0631112,11.8676238 C6.38065174,12.517111 5.82412871,13.2859236 5.42132264,14.1356838 L5.42132264,14.0619718 C5.8545724,12.8145388 6.18521037,11.759891 6.40183525,10.8980282 C6.61846013,10.0361654 6.81228239,9.27636529 6.97190073,8.6299682 C7.11933675,8.03913822 7.33752138,7.46804058 7.62177536,6.92892322 C7.94536252,6.39358216 8.37847586,5.93187734 8.89302137,5.57375738 L8.89302137,5.50004543 C7.57779983,5.84519445 6.43941212,6.66610911 5.70065472,7.80212631 C4.88283169,8.98786964 4.4528194,10.3957525 4.4693133,11.8336029 L4.4693133,16.8630259 C4.96598379,16.0366091 5.60915433,15.3065882 6.36763133,14.7083689 Z M9.78802416,8.55625625 C10.4426181,7.88548957 11.0574271,7.17741479 11.6293356,6.43562017 C12.1994011,5.71551113 12.7181607,5.03509314 13.2198183,4.38869605 C13.7274044,3.74396239 14.300503,3.15302929 14.9300147,2.62527942 L14.8559062,2.55156747 C14.382663,2.95513313 13.8231094,3.24601783 13.2198183,3.40208996 C12.4974575,3.6277794 11.8061607,3.94205531 11.1618819,4.3376647 C10.3295122,4.87280809 9.6156726,5.57125146 9.06404101,6.39025897 C8.25459774,7.65764754 7.67570408,9.05683166 7.35384459,10.5237983 C8.23637597,9.96016743 9.05283347,9.30022661 9.78802416,8.55625625 L9.78802416,8.55625625 Z M1.67599249,27.3641436 C2.17027516,28.1041878 2.71101141,28.8124736 3.29497843,29.4847796 C3.96195884,30.2799952 4.55175727,31.1362272 5.05648074,32.0420173 L5.13058925,32.0420173 C5.07018971,31.6669885 5.03969122,31.2877973 5.03937877,30.9079873 L5.03937877,29.8816901 C5.09310889,29.231698 5.23106716,28.5913378 5.44982591,27.9765198 C5.72345734,27.0919764 6.01989139,26.1053703 6.30492412,25.0280418 C6.58995686,23.9507133 6.8749896,22.8563744 7.08591382,21.7563653 C7.30057538,20.7889937 7.3640277,19.7944892 7.27403543,18.8078873 L7.18282495,18.8078873 C7.02981546,19.4555637 6.77181119,20.0741416 6.41893722,20.6393458 L5.27880627,22.5104952 C4.8809934,23.1766377 4.53967367,23.8745904 4.25838908,24.5971104 C3.9638924,25.3664089 3.81693978,26.1837861 3.82513932,27.0069241 C3.83866242,27.406588 3.89406865,27.8037582 3.99045831,28.1919855 C4.06744343,28.4884117 4.12457539,28.7895908 4.16147795,29.0935393 L4.11017206,29.0935393 C3.92757586,28.0681222 3.65479682,27.0606356 3.29497843,26.0826897 C2.94153784,25.1244343 2.58809724,24.2342208 2.24035731,23.4233894 C1.89261737,22.6125579 1.59048267,21.8640981 1.35675582,21.1893503 C1.1502719,20.6599285 1.03092794,20.1008646 1.00331523,19.5336665 C1.00331523,19.0573739 1.00331523,18.6718037 1.04892047,18.3996365 C1.09452571,18.1274693 1.09452571,17.7475693 1.09452571,17.3166379 L1.0204172,17.3166379 C0.7930576,17.9284914 0.602695853,18.5533236 0.450351723,19.1877874 C0.234334547,19.9368526 0.117435839,20.7107363 0.102611785,21.4898682 C0.0660534747,22.6574064 0.208297203,23.8236817 0.524460234,24.9486597 C0.792528647,25.8035464 1.18017084,26.6166747 1.67599249,27.3641436 Z M14.8217023,46.858119 C15.0849553,46.884604 15.349525,46.8959632 15.6140933,46.8921399 C15.9762621,46.8937047 16.3381247,46.8709725 16.6972177,46.8240981 C17.0335563,46.7730668 17.4725067,46.705025 17.996967,46.6086324 C18.5214272,46.5122399 19.2169071,46.3534757 20.060604,46.13801 C20.9043009,45.9225443 22.0216292,45.6503771 23.4182896,45.3101681 C22.5004842,45.0720218 21.7080932,44.8452158 21.0354159,44.6297501 C20.276078,44.3685718 19.5847615,43.9424429 19.0116835,43.3823171 C18.1907892,42.6678782 17.3755956,41.9250886 16.5547013,41.1596184 C15.916228,40.5926034 15.2435507,40.0255884 14.5993767,39.4245525 C14.4169558,39.2601181 13.4592458,38.4266061 13.191315,38.1544389 L13.1229072,38.2281508 C13.2312196,38.3982553 14.1205217,40.1786824 14.1205217,40.1786824 C14.1205217,40.1786824 14.2630381,40.3714675 14.3200447,40.4735302 C14.5594722,40.8987915 14.7988997,41.3297229 15.0326265,41.7606542 C15.123837,41.9307587 15.2150475,42.1008632 15.3005573,42.2709677 C15.5934977,42.8252485 16.0157396,43.3016175 16.5318987,43.6601545 C17.4221618,44.3758337 18.459313,44.8887312 19.5703477,45.1627442 L19.5703477,45.2364562 L18.0140689,44.9869696 C17.5865198,44.9132576 17.1988753,44.8565561 16.873938,44.8055248 C16.5490007,44.7544934 16.1727574,44.7261427 15.8136162,44.6977919 C15.454475,44.6694412 14.941416,44.6467606 14.5138669,44.5843889 C14.0863178,44.5220173 13.8411897,44.4653158 13.4934497,44.4312949 L12.4958352,44.3178919 L11.9713749,44.2555202 C11.3595759,44.1948343 10.7534682,44.0867737 10.1585667,43.9323217 C9.58355221,43.783749 9.03268251,43.5546527 8.52247881,43.2519037 C7.89469465,42.8711882 7.30986913,42.4244608 6.77807847,41.9194184 L6.70396995,41.9931304 C6.98730844,42.478011 7.31557244,42.935501 7.68448257,43.3596365 C8.13579304,43.8815989 8.63379196,44.3617503 9.17235345,44.7941845 C9.82258681,45.309196 10.5446135,45.7274877 11.3157996,46.0359473 C12.2306535,46.3996894 13.1885408,46.6455019 14.166127,46.7673966 L14.8217023,46.858119 Z M3.5629092,24.3419537 L3.65411968,24.3419537 C3.69230502,23.9587256 3.7628623,23.5793758 3.8650439,23.2079237 C3.99945347,22.7837214 4.17909582,22.375036 4.40090545,21.9888414 C4.7386427,21.4025288 5.10781748,20.8346949 5.50683246,20.2877965 C5.98568746,19.6187188 6.62986144,18.7077147 7.43935441,17.5547842 C7.94264058,16.7763893 8.32687801,15.9279467 8.57948536,15.0372376 C8.86451809,14.0789823 9.05834035,13.387224 9.14955083,12.9562926 L9.07544232,12.9562926 C8.99186697,13.1707043 8.88277788,13.3743898 8.750505,13.5629986 C8.60630442,13.7596319 8.45218956,13.948879 8.28875197,14.1300136 C8.05125708,14.3942147 7.80008802,14.6459323 7.53626554,14.8841436 C7.22843019,15.1733212 6.81228239,15.5588914 6.28782216,16.0181736 C5.49985366,16.6641647 4.86523535,17.4754598 4.42940872,18.3939664 C4.12815569,19.1636506 3.88985464,19.9562651 3.71682688,20.7640891 L3.65411968,20.7640891 C3.65411968,20.384189 3.70542557,20.0099591 3.72252753,19.6300591 C3.7396295,19.250159 3.72252753,18.8022172 3.72252753,18.2238619 C3.72252753,17.509423 3.6769223,16.6702408 3.58001117,15.7063153 C3.48310004,14.7423898 3.44889611,13.5062971 3.44889611,11.9696865 C3.44487744,11.4991818 3.5420613,11.0332622 3.73392884,10.6031804 C3.92395067,10.172249 4.08926965,9.76399818 4.2298858,9.37842799 L4.17857991,9.37842799 C3.27518103,10.4691137 2.57094868,11.7088389 2.09784094,13.0413448 C1.73287018,14.11795 1.54049558,15.2449731 1.52777547,16.3810632 C1.54188664,17.6679182 1.79707508,18.9408785 2.28026189,20.1347024 C2.80813311,21.5049018 3.23677632,22.9109076 3.5629092,24.3419537 L3.5629092,24.3419537 Z M11.0934741,42.9740663 L14.1148211,43.6601545 L15.6882018,44.0173739 C15.106381,43.3849077 14.5906737,42.695278 14.149025,41.9591095 C13.7655769,41.3346582 13.4502538,40.6712711 13.208417,39.9802272 C12.9195838,39.1977465 12.5072365,38.1563289 11.9713749,36.8559746 C11.8407219,36.4681797 11.684567,36.0893521 11.5039212,35.7219446 C11.3329016,35.3892958 11.1428798,35.0434166 10.9338558,34.6843071 C10.7115302,34.3214175 10.4493001,33.9188369 10.1357641,33.4595547 C9.82222809,33.0002726 9.42318226,32.4389278 8.93862661,31.7585098 L8.86451809,31.8322217 C9.00703446,32.3085143 9.21225803,33.1760473 9.4801888,34.4178101 C9.74811958,35.6595729 9.99324773,36.8389641 10.2383759,37.9446433 C10.3811572,38.7658978 10.7149761,39.5425823 11.2131878,40.2127033 C11.7907244,40.9927402 12.4563552,41.7042741 13.1970157,42.3333394 L13.1229072,42.4070513 C12.4832186,42.1260749 11.8939883,41.7430178 11.3785068,41.2730214 C10.5772735,40.6173029 9.6985775,40.061298 8.76190631,39.6173376 C7.27178461,38.9057084 5.82852409,38.1008227 4.44081003,37.2075239 C3.39407139,36.5104505 2.57401161,35.5253399 2.08073897,34.3724489 L2.00663046,34.4404907 C2.27386787,35.5749719 2.72437061,36.6588185 3.34058367,37.6497955 C3.93118497,38.5876531 4.65506108,39.4356137 5.4897305,40.1673421 C6.30423225,40.8787612 7.20881188,41.4811289 8.18043953,41.9591095 C9.10201111,42.4241699 10.0815812,42.7654708 11.0934741,42.9740663 Z M4.33249759,35.5631804 L9.69111303,39.0900136 C9.45168553,38.6080509 9.25216261,38.1544389 9.08684363,37.7235075 C8.90831434,37.2585739 8.77283649,36.7783981 8.68209714,36.2889596 C8.59088667,35.7616356 8.50537685,35.1549296 8.43696899,34.5255429 C8.36856113,33.8961563 8.28305131,33.1023353 8.19184084,32.1894412 C8.00371923,30.6074693 7.83840024,29.3883871 7.69588388,28.5208542 C7.52803427,27.5628283 7.2684219,26.622972 6.92059483,25.7141299 L6.84078567,25.7141299 C6.84948469,26.4054421 6.81521542,27.0966282 6.73817388,27.7837347 C6.67200976,28.3180649 6.57493766,28.848158 6.44744049,29.3713766 C6.32772674,29.8476692 6.23081561,30.2899409 6.16240776,30.6981917 C6.08476692,31.1609334 6.04852091,31.6296101 6.05409532,32.0987188 C6.09189558,32.8043142 6.24996325,33.4983911 6.521549,34.151313 C6.77462525,34.8551424 7.07163714,35.5425679 7.41085114,36.2095775 L7.34244328,36.2832894 C6.63955624,35.1426706 5.82824492,34.071774 4.91966503,33.0853249 L2.74771558,30.783244 C2.13877422,30.1442357 1.58213925,29.4578535 1.0831244,28.7306497 C0.592983165,27.9711657 0.284822232,27.1098284 0.182420951,26.2131031 C0.123102416,26.4388811 0.0774155822,26.6679863 0.0456052378,26.8991913 C0.0154670217,27.1247619 0.000232591421,27.3520556 0,27.5796093 C0.00544336378,28.421879 0.151862524,29.2573678 0.433249759,30.0517946 C0.709359978,30.866742 1.07247442,31.6499136 1.51637416,32.3878964 C1.91894695,33.0727212 2.39074591,33.714886 2.92443587,34.3044071 C3.33872616,34.7812016 3.81181207,35.2041291 4.33249759,35.5631804 Z M48.2788448,4.37735575 C48.7805025,5.02375284 49.316364,5.70984098 49.8693275,6.42995002 C50.4441186,7.16940582 51.0587911,7.8773233 51.710639,8.5505861 C52.446845,9.30460199 53.2673754,9.97235261 54.1562199,10.5408087 C53.8343604,9.07384211 53.2554667,7.67465799 52.4460234,6.40726942 C51.8910875,5.58865971 51.173208,4.89199023 50.3367812,4.3603453 C49.6936421,3.95685331 49.0022999,3.63493743 48.2788448,3.40208996 C47.6784148,3.23720115 47.1218004,2.94296112 46.6484576,2.54022717 L46.5743491,2.61393912 C47.2030936,3.14697182 47.774338,3.74366379 48.2788448,4.3943662 L48.2788448,4.37735575 Z M53.0160889,43.263244 C52.5050811,43.5657646 51.9545175,43.7966417 51.380001,43.9493321 C50.78208,44.0987869 50.17445,44.2067793 49.5614922,44.2725307 L49.0427326,44.3292322 L48.0394173,44.4426352 C47.6973781,44.4823262 47.3667401,44.5446979 47.0247008,44.5957292 C46.6826615,44.6467606 46.1525006,44.6864516 45.7249515,44.7148024 C45.2974024,44.7431531 45.0180703,44.7715039 44.6646298,44.8225352 C44.3111892,44.8735666 43.9235446,44.9302681 43.5244988,44.9983099 C43.125453,45.0663517 42.5838908,45.1570741 41.9682201,45.2477965 L41.9682201,45.1797547 C43.0706471,44.896828 44.0978106,44.3782546 44.9781658,43.6601545 C45.4798558,43.2977529 45.88974,42.8240549 46.1753033,42.2766379 L46.443234,41.7663244 C46.6769609,41.335393 46.9163884,40.9101318 47.1558159,40.4848705 C47.2164171,40.3827588 47.2830412,40.284304 47.3553388,40.1900227 C47.3553388,40.1900227 48.2446409,38.4095956 48.3529534,38.233821 L48.2845455,38.160109 C48.0109141,38.4379464 47.0589047,39.294139 46.8764838,39.4358928 C46.2323098,40.0029078 45.5596325,40.5699228 44.9211592,41.1709587 C44.1002649,41.9307587 43.2850713,42.6735484 42.464177,43.3879873 C41.9010873,43.9453454 41.2219588,44.373094 40.4746485,44.6410904 C39.8019713,44.8565561 39.0095803,45.0833621 38.0917749,45.3215084 C39.4884353,45.6560473 40.6114642,45.9338846 41.4494605,46.1493503 C42.2874567,46.364816 42.9829366,46.51791 43.5073968,46.6143026 C44.0318571,46.7106951 44.4765081,46.7844071 44.8128468,46.8297683 C45.171504,46.8814601 45.5335778,46.906101 45.8959712,46.9034802 C46.1810039,46.9034802 46.4660366,46.9034802 46.6883622,46.8694593 L47.3781414,46.7957474 C48.3557276,46.6738527 49.3136149,46.4280402 50.2284688,46.064298 C50.9979317,45.7523445 51.7194763,45.3343321 52.3719149,44.8225352 C52.9250095,44.3864897 53.4364393,43.9005739 53.8996904,43.3709768 C54.2698949,42.9478556 54.5982496,42.4902391 54.880203,42.0044707 L54.7604893,41.9591095 C54.2262437,42.4530272 53.641607,42.8901086 53.0160889,43.263244 L53.0160889,43.263244 Z M57.0692544,37.1905134 C55.6802455,38.0816748 54.237122,38.8864842 52.7481581,39.6003271 C51.8091733,40.0401197 50.929976,40.5964418 50.1315576,41.2560109 C49.6144809,41.7239607 49.0256015,42.1067896 48.3871573,42.3900409 L48.3130488,42.3163289 C49.0510195,41.6844772 49.7163525,40.9732617 50.2968766,40.1956929 C50.7932679,39.5245357 51.1268964,38.7482943 51.2716886,37.9276329 C51.5187169,36.8276238 51.771446,35.6539028 52.0298757,34.4064698 C52.2978064,33.1590368 52.50303,32.297174 52.6455464,31.8152113 L52.5714379,31.7528396 C52.0868822,32.4275875 51.6878364,32.9889323 51.3743004,33.4538846 C51.0607644,33.9188369 50.8042349,34.3157474 50.5762087,34.6729668 C50.3481825,35.0301863 50.1657616,35.3817356 49.9947419,35.7219446 C49.8131446,36.0889264 49.6569632,36.4678184 49.5272882,36.8559746 C48.9914267,38.1544389 48.5809795,39.1920763 48.2902462,39.9858973 C48.0485606,40.6752011 47.73322,41.3367241 47.3496381,41.9591095 C46.9050975,42.6845521 46.3895305,43.3644977 45.8104614,43.9890232 L47.3838421,43.6601545 L50.4051891,43.0024171 C51.4184614,42.7848224 52.398085,42.4339688 53.3182236,41.9591095 C54.2887845,41.4792975 55.193135,40.8770824 56.0089326,40.1673421 C56.8387141,39.4382833 57.5586773,38.5942276 58.1466782,37.6611358 C58.7674653,36.6610062 59.221767,35.5677087 59.4920327,34.4234802 L59.4179242,34.3497683 C58.9281069,35.5029163 58.1121835,36.4897858 57.0692544,37.1905134 L57.0692544,37.1905134 Z M59.2868091,23.4177192 C58.9067655,24.2342208 58.545724,25.1225443 58.2036847,26.0826897 C57.8439505,27.0645397 57.5711814,28.0757842 57.3884911,29.1048796 L57.3200832,29.1048796 C57.3569858,28.8009311 57.4141178,28.499752 57.4911029,28.2033258 C57.5899943,27.815415 57.6473203,27.4181809 57.6621225,27.0182644 C57.6697849,26.1951712 57.5228499,25.3778923 57.2288728,24.6084507 C56.9464235,23.8864362 56.6051496,23.1885772 56.2084556,22.5218355 C55.820811,21.8754384 55.4445678,21.2517219 55.0683246,20.6563562 C54.7165818,20.0885417 54.4586772,19.4682882 54.3044369,18.8192276 L54.2303284,18.8192276 C54.1403361,19.8058295 54.2037884,20.800334 54.41845,21.7677056 C54.6388753,22.8714948 54.8992052,23.9620536 55.1994397,25.0393821 C55.4996742,26.1167106 55.7847069,27.0995366 56.0545379,27.9878601 C56.2728079,28.6028155 56.4107525,29.2431122 56.464985,29.8930304 L56.464985,30.9023171 C56.4648882,31.2821358 56.4343883,31.6613439 56.3737746,32.0363471 L56.4364818,32.0363471 C56.9415431,31.1311911 57.5333611,30.2766975 58.2036847,29.4847796 C58.7863048,28.811389 59.3269759,28.1031884 59.8226707,27.3641436 C60.3242559,26.6167131 60.7194485,25.8038433 60.9970055,24.9486597 C61.3191095,23.8150051 61.4652113,22.6390605 61.4302553,21.4615175 C61.4158215,20.6823529 61.2989153,19.9084189 61.0825154,19.1594366 C60.9310453,18.5247378 60.7406677,17.8998535 60.5124499,17.2882871 L60.4269401,17.2882871 C60.4269401,17.7192185 60.4269401,18.0821081 60.4725453,18.3656156 C60.5181505,18.6491231 60.5181505,19.0346933 60.5181505,19.4996456 C60.4894632,20.0667048 60.3701552,20.6256002 60.1647099,21.1553294 C59.9081805,21.858428 59.6117464,22.6068878 59.2868091,23.4177192 Z M57.092057,18.3826261 C56.6558416,17.4659672 56.0212183,16.6566021 55.2336436,16.0125034 L53.9794996,14.8784734 C53.6716642,14.5892958 53.4094341,14.3114584 53.2327138,14.1186733 C53.0692984,13.9375199 52.9151845,13.7482739 52.7709608,13.5516583 C52.6347906,13.3552557 52.525518,13.1416936 52.4460234,12.9166015 L52.3719149,12.9166015 C52.4688261,13.3475329 52.6626483,14.0506315 52.9419804,15.0032167 C53.1967746,15.8931325 53.5808716,16.741265 54.0821114,17.5207633 C54.8916043,18.6547933 55.5357783,19.5790277 56.0146333,20.2537756 C56.4136211,20.8006925 56.7827949,21.368525 57.1205603,21.9548205 C57.3416295,22.3433687 57.5212274,22.7538533 57.6564219,23.1795729 C57.7591118,23.5509091 57.8296771,23.9303022 57.8673461,24.3136029 L57.9585566,24.3136029 C58.2748759,22.8818976 58.6978928,21.4755958 59.2241019,20.1063517 C59.7076064,18.9049114 59.9608909,17.6241111 59.9708877,16.3300318 C59.9577272,15.1921295 59.765372,14.0633069 59.4008222,12.9846433 C58.9258236,11.6633415 58.221581,10.435113 57.3200832,9.35574739 L57.2459747,9.35574739 C57.3884911,9.73564743 57.5538101,10.1438982 57.7419317,10.5748296 C57.9332968,11.005072 58.0304579,11.4708826 58.0269644,11.9413358 C58.0269644,13.4798364 57.9813592,14.7272694 57.8901487,15.6836347 C57.7989382,16.64 57.753333,17.4791822 57.753333,18.2011813 C57.753333,18.7681963 57.753333,19.2444889 57.753333,19.6017083 C57.753333,19.9589278 57.7932376,20.3331577 57.8217409,20.7357383 L57.753333,20.7357383 C57.5865105,19.9344138 57.3558564,19.1475606 57.0635538,18.3826261 L57.092057,18.3826261 Z M53.8711871,6.94593367 C54.1558957,7.48484732 54.3741016,8.05600068 54.5210618,8.64697865 C54.6863808,9.29337574 54.880203,10.0475057 55.0911272,10.9150386 C55.3020515,11.7825716 55.6326894,12.8315493 56.0716399,14.0789823 L56.0716399,14.1526942 C55.6667325,13.3041669 55.1104688,12.5357125 54.4298513,11.8846343 C53.8591985,11.3635246 53.2514475,10.8840944 52.6113424,10.4500863 C52.0310072,10.0598306 51.4715797,9.63966618 50.9353499,9.19131304 C50.3825823,8.68584004 49.9502214,8.0640148 49.6698046,7.37119491 L49.5956961,7.37119491 C49.8864295,8.2330577 50.1201563,8.91347569 50.291176,9.41811904 C50.4303736,9.84903761 50.5999125,10.2696695 50.7985342,10.6768923 C50.9568618,10.9946266 51.1646448,11.2854971 51.4142049,11.5387551 C51.6593331,11.7825716 51.9842704,12.0660791 52.3662143,12.4006179 C53.4341369,13.311622 54.3557428,14.0789823 55.1310318,14.7026988 C55.8833582,15.3075491 56.5188629,16.0434027 57.0065472,16.8743662 L57.0065472,11.8392731 C57.0218655,10.4033516 56.591906,8.99762147 55.7752058,7.81346661 C55.0394557,6.67705139 53.9026201,5.85578944 52.5885398,5.51138573 L52.5885398,5.58509768 C53.1062535,5.94542936 53.5430362,6.40883786 53.8711871,6.94593367 Z M45.4969253,48.3380282 C45.095982,48.3309763 44.6967923,48.2834819 44.3054885,48.1962744 L42.9658346,47.9467878 L42.9658346,47.9467878 C42.5382855,47.8107042 42.0537299,47.6462699 41.506467,47.4534848 C40.9592042,47.2606997 40.2865269,47.0225534 39.5112379,46.7333757 L36.4271837,45.6900682 C35.7603477,45.4677303 35.0611357,45.3566083 34.357846,45.3611995 C33.6479539,45.3711518 32.9410443,45.4547669 32.2486038,45.6106861 C31.5303213,45.7694502 31.005861,45.8941935 30.6638218,45.9849159 C30.3616871,45.8941935 29.8600294,45.7694502 29.1417469,45.6106861 C28.4550249,45.4551671 27.7538267,45.3715496 27.0496067,45.3611995 C26.3483722,45.3649828 25.6527425,45.4857312 24.9916703,45.7184189 C24.2904898,45.9565652 23.2814739,46.2854339 21.9190174,46.7900772 C20.3285347,47.3570922 19.1484992,47.765343 18.3789108,48.0034893 C17.6070774,48.2399164 16.803636,48.3584494 15.9960372,48.3550386 C15.6566426,48.3551449 15.3176297,48.3324124 14.9813206,48.2869968 C14.6851716,48.2482767 14.3944483,48.1759848 14.1148211,48.0715311 C14.1148211,48.0715311 13.4364432,47.8730759 13.0602,47.7143117 L11.6806415,47.0622444 L11.6122337,47.1302862 C12.3819721,47.8693421 13.2329301,48.5198372 14.149025,49.0694775 C15.3545959,49.7926396 16.7317822,50.1840158 18.1394833,50.2035075 C18.6583088,50.2057476 19.1765877,50.169738 19.6900614,50.0957746 C20.1623935,50.0188992 20.623678,49.8856331 21.0639192,49.6988642 C21.5199716,49.5117492 22.0273298,49.2679328 22.5802934,48.9844253 C23.1332569,48.7009178 23.8002335,48.3153476 24.5698219,47.8503953 C25.3394102,47.385443 26.0747947,46.9034802 26.6277582,46.591622 C27.2152722,46.2750278 27.8750876,46.1148631 28.5431782,46.1266697 C28.8375689,46.1299237 29.1297472,46.1777222 29.4096777,46.2684234 C28.463369,46.7976374 27.3726438,47.4402544 26.1375019,48.1962744 C24.8142077,49.0137551 23.611309,50.0098526 22.5631914,51.1560927 L23.7888322,52.2334212 C24.8660648,50.9657787 26.0629746,49.8037546 27.3631427,48.7632894 C28.3535167,47.9039095 29.4779534,47.2106425 30.692325,46.7106951 C31.9027227,47.2183225 33.0259858,47.910866 34.0215074,48.7632894 C35.335226,49.7940348 36.5421544,50.9527163 37.6243212,52.2220809 L38.8556626,51.1447524 C37.7910676,49.9942539 36.566293,49.0013468 35.2186449,48.1962744 C33.9645008,47.4402544 32.8547734,46.8089777 31.8894625,46.3024443 C32.1987343,46.2208972 32.5160707,46.1733613 32.8357712,46.1606906 C33.5056705,46.1489319 34.1673146,46.3090639 34.7568918,46.6256429 C35.315556,46.9393912 36.0053352,47.3589823 36.8262295,47.8844162 L38.7131462,48.9900954 C39.1877404,49.2715445 39.6854816,49.5124444 40.2010171,49.7102045 C40.6406122,49.8705725 41.0899597,50.0031404 41.5463716,50.1071149 C42.0136468,50.2009524 42.4891309,50.2484363 42.9658346,50.2488687 L43.256568,50.2488687 C44.3914223,50.2233958 45.5104874,49.978827 46.5515465,49.5287597 C47.7965803,48.9998392 48.8996887,48.1881013 49.7724164,47.158637 L49.7724164,47.0622444 C48.9943058,47.4338925 48.1948246,47.759547 47.3781414,48.0375102 C46.7704346,48.2324356 46.1354408,48.3300459 45.4969253,48.3266879 L45.4969253,48.3380282 Z M61.4929625,27.4662063 C61.4929625,27.3924943 61.4929625,27.3187824 61.4929625,27.2450704 C61.4874991,27.1330356 61.4760819,27.0213667 61.4587586,26.9105316 C61.4245546,26.6950659 61.3789494,26.4682599 61.3219429,26.2244434 C61.2186513,27.1183346 60.912622,27.9772234 60.4269401,28.7363199 C59.9269137,29.4578989 59.3743691,30.1420409 58.7737502,30.783244 L58.6540364,30.9079873 L56.5961001,33.090995 C55.7068023,34.0619297 54.9109324,35.1136145 54.2189271,36.2322581 L54.2189271,36.2322581 C54.5548905,35.5708879 54.8388715,34.8846393 55.0683246,34.1796638 C55.3213134,33.5246291 55.4675697,32.8336296 55.5015744,32.1327397 C55.5042296,31.6618485 55.4680037,31.1915357 55.3932619,30.7265425 C55.3210536,30.3182917 55.2355438,29.87602 55.1367325,29.3997274 C55.0056174,28.9177647 54.9201076,28.3507497 54.8516997,27.7837347 C54.7673555,27.0970691 54.7254719,26.4059009 54.7262853,25.7141299 L54.6692788,25.7141299 L54.6692788,25.7594911 L54.6692788,25.7198001 L54.5951703,25.7198001 C54.2455875,26.6377976 53.9859527,27.5872295 53.8198812,28.5548751 C53.6830655,29.4167378 53.5120459,30.6414902 53.3239243,32.2177919 C53.2327138,33.1306861 53.1529046,33.9188369 53.0787961,34.5595638 C53.0046876,35.2002908 52.9248784,35.7899864 52.833668,36.3229805 C52.7471435,36.8023343 52.6174049,37.2729665 52.4460234,37.7291776 C52.3035071,38.0977374 52.1324874,38.4889777 51.9386652,38.8632076 C51.9044612,38.9312494 51.8645567,38.9936211 51.8246521,39.0616629 L51.8531554,39.0616629 L53.6488616,37.8766015 L57.2630767,35.5291595 C57.7825831,35.1686276 58.2554934,34.7458572 58.6711384,34.2703862 C59.1988063,33.6901049 59.659619,33.0529838 60.0449962,32.370886 C60.3002437,31.9157441 60.5286557,31.4462186 60.7290748,30.9646888 C60.8601898,30.6641708 60.9856042,30.3579827 61.0939167,30.0347842 C61.3761353,29.2386142 61.5225696,28.4011224 61.5271664,27.5569287 L61.5271664,27.5569287 C61.4986631,27.5399182 61.4929625,27.5002272 61.4929625,27.454866 L61.4929625,27.4662063 Z M40.4746485,6.28252612 C40.6110884,6.34065653 40.7410154,6.41287426 40.8622931,6.49799182 C40.9473291,6.58800237 41.0272619,6.68265127 41.1017206,6.78149932 C41.155905,6.86864135 41.249668,6.92375034 41.3525494,6.92892322 C41.4893651,6.92892322 41.5634736,6.87789187 41.5634736,6.78149932 C41.5634736,6.68510677 41.5634736,6.65108587 41.5292697,6.67376647 C41.4950657,6.69644707 41.4893651,6.67376647 41.4893651,6.56603362 C41.5041542,6.41163404 41.4547101,6.25794826 41.3525494,6.14077238 C41.1931984,5.965145 40.9409675,5.90638005 40.7197767,5.99334848 C40.6843376,5.9544392 40.6355193,5.93016065 40.582961,5.92530668 L40.4746485,5.92530668 C40.3378328,5.92530668 40.2637243,5.97066788 40.2637243,6.06706043 C40.2637243,6.16345298 40.3435335,6.23716493 40.4746485,6.28252612 Z M32.7958666,4.53611995 L32.9440836,4.53611995 C33.2252916,4.43690391 33.5186703,4.375872 33.8162838,4.35467515 L34.8310004,4.35467515 C34.9982071,4.36835217 35.1617405,4.30075388 35.2699508,4.17323035 C35.3527754,4.07090114 35.4253297,3.96075296 35.4865756,3.84436165 C35.2717069,3.57007742 34.9597959,3.38758213 34.6143755,3.33404816 C34.3749481,3.29360937 34.1330913,3.26898485 33.8903923,3.26033621 C33.5912308,3.31914638 33.298955,3.40844998 33.0181922,3.52683326 C32.5336365,3.69693776 32.2429031,3.81034075 32.145992,3.8613721 C31.9008638,3.81034075 31.7583475,3.8613721 31.7127422,4.01446615 C31.8349469,4.13594537 31.9664578,4.24779504 32.1060874,4.349005 C32.3098962,4.48332537 32.5517172,4.54892363 32.7958666,4.53611995 L32.7958666,4.53611995 Z M30.6125159,43.9606732 C39.4369467,43.9629659 47.3937492,38.6774669 50.7723105,30.5690401 C54.1508718,22.4606133 52.2857602,13.1262712 46.0467605,6.91903505 C39.8077608,0.711798951 30.4236887,-1.14577166 22.2707567,2.2125915 C14.1178248,5.57095466 8.80181089,13.483798 8.80181089,22.2610086 C8.81437328,34.2380093 18.5710839,43.9450472 30.6125159,43.9606732 Z M9.91343856,22.8110132 L13.2312196,22.8110132 C13.2771,24.2590996 13.5069504,25.6955983 13.9152982,27.0863062 C13.8117355,27.062729 13.7216452,26.9995959 13.6644694,26.9105316 L13.5618576,26.8084689 L13.1970157,26.2981554 L12.5927463,26.5192912 C12.5927463,26.8538301 12.4730325,26.9785734 12.233605,26.8821808 C12.1605015,26.7962359 12.0557421,26.7431149 11.9428716,26.7347569 C11.7689233,26.7239037 11.5977899,26.7823936 11.4672879,26.8973017 C11.336786,27.0122098 11.2576588,27.1740766 11.2473918,27.3471331 C11.1936726,27.6224239 11.1574964,27.9008159 11.1390793,28.1806452 L11.6464376,29.4847796 C11.7490494,29.6322035 11.8915658,29.6548841 12.085388,29.5584916 C12.2264488,29.7326237 12.3787903,29.8974086 12.5414404,30.0517946 C12.6395216,30.1492194 12.7734077,30.2024872 12.9119829,30.1992185 C12.9738451,30.2086042 13.0365507,30.1885782 13.0813563,30.1451265 C13.1261619,30.1016748 13.1478764,30.0398316 13.1400091,29.9780827 L13.2141176,29.9780827 C13.3204479,30.0824649 13.4212935,30.1922337 13.5162523,30.3069514 C13.6256207,30.4318882 13.7523046,30.5407115 13.8924956,30.6301499 L13.8924956,30.5621081 C14.0554024,30.7259739 14.2764998,30.8196411 14.5081663,30.822935 C14.5770188,31.1223775 14.7245604,31.3982714 14.9357154,31.6224262 C15.0771399,31.7941917 15.2831891,31.9007639 15.5057808,31.917274 C15.6186513,31.908916 15.7234107,31.855795 15.7965142,31.7698501 C15.8736611,32.032159 15.9951071,32.2795035 16.1556555,32.5012994 C16.2817896,32.5652639 16.4036553,32.6372345 16.5204974,32.7167651 C16.6243838,32.7809324 16.7217529,32.8549926 16.8112308,32.937901 L16.9594478,32.937901 C17.0269726,33.1550194 17.1508485,33.3505956 17.318589,33.5049159 C17.4518715,33.6406777 17.5989786,33.7622942 17.7575395,33.8678055 L17.7119342,33.8678055 L17.7518388,33.8678055 L17.8031447,33.8678055 C17.8544506,33.924507 17.9000558,33.9812085 17.9513617,34.0322399 L15.6083926,36.3626715 C12.0940726,32.699069 10.0657126,27.8724029 9.91343856,22.8110132 Z M25.8752718,16.7269423 C25.8148854,16.6854574 25.7520668,16.6475893 25.6871502,16.6135393 L25.4648246,16.3924035 C26.7397908,15.2891609 28.3399214,14.6266706 30.0253484,14.5042435 L30.0253484,16.8006542 C29.9964722,16.7764791 29.9637108,16.7573108 29.9284373,16.7439527 C29.9063354,16.7219156 29.8871759,16.6971416 29.8714307,16.6702408 L29.8714307,16.6702408 C29.8189445,16.6370016 29.7564637,16.6229686 29.6947105,16.6305498 C29.6681742,16.627897 29.6414375,16.627897 29.6149013,16.6305498 L29.6149013,16.6305498 C29.5618837,16.6242487 29.5083005,16.6242487 29.455283,16.6305498 C29.4003682,16.6505479 29.3426868,16.6620225 29.2842633,16.6645706 C29.2544614,16.673078 29.2228548,16.673078 29.1930528,16.6645706 C29.124645,16.6135393 29.090441,16.5114766 29.090441,16.335702 L29.090441,16.335702 L29.090441,16.335702 C28.8909181,16.4320945 28.7826057,16.5284871 28.7598031,16.6248796 C28.7370005,16.7212721 28.6970959,16.8857065 28.6514906,17.1295229 C28.6079702,17.3168698 28.4663716,17.4663779 28.2809481,17.5207633 C28.1186517,17.5751154 27.9692659,17.6619516 27.8419977,17.77592 L27.6196721,17.6341663 L27.2548302,17.6341663 C27.1905736,17.5626416 27.1155781,17.501436 27.0325047,17.4527215 C26.9795918,17.4244995 26.9314935,17.3881404 26.8899883,17.3449886 C26.8443831,17.2958473 26.8215805,17.2958473 26.8215805,17.3449886 C26.7746656,17.3402521 26.7277933,17.354362 26.6913922,17.384179 C26.6549911,17.4139959 26.6320806,17.4570467 26.6277582,17.5037528 L26.4111333,17.2939573 L26.4681399,17.2939573 L26.4681399,17.1238528 C26.293004,16.9715655 26.1018788,16.8384937 25.8980744,16.7269423 L25.8752718,16.7269423 Z M24.6838349,15.5929123 L22.454879,13.3758837 C24.5347125,11.4801237 27.2185445,10.3721931 30.0367497,10.2459609 L30.0367497,13.3815538 C28.0589961,13.5129631 26.1824814,14.299477 24.7066376,15.6155929 L24.6838349,15.5929123 Z M25.9607816,26.0826897 C26.0747947,25.9692867 26.0234888,25.7594911 26.069094,25.6177374 L25.8182652,25.8445434 C25.9939494,25.6813299 26.1404538,25.4895925 26.251515,25.2775284 C26.3083932,25.137499 26.3810666,25.0043433 26.4681399,24.8806179 L26.4681399,24.8806179 C26.547949,25.0337119 26.6391595,25.186806 26.73037,25.3342299 L24.6952363,27.3584734 C23.8687992,26.4250303 23.2820003,25.3063508 22.9850398,24.0981372 C23.1600705,24.121177 23.3309071,24.168908 23.4923981,24.239891 C23.6539458,24.3671039 23.8063362,24.5054161 23.9484505,24.6538119 C24.0518321,24.6536961 24.1536107,24.6283876 24.2448845,24.5801 L24.5356179,24.8012358 C24.5200913,24.9251775 24.5461426,25.0507505 24.6097264,25.1584552 C24.6097264,25.2094866 24.6838349,25.2661881 24.832052,25.3399 C24.9525062,25.3936468 25.0552582,25.4801256 25.128486,25.5893866 L25.2710024,25.5213448 C25.26584,25.4243231 25.2544151,25.3277316 25.2367985,25.2321672 C25.2367985,25.0904134 25.2367985,25.0167015 25.2710024,25.0167015 L25.4135188,25.5213448 L25.5617358,26.0883598 L25.5617358,26.0883598 C25.6877594,26.1511455 25.8366126,26.1490304 25.9607816,26.0826897 L25.9607816,26.0826897 Z M30.2989799,28.3507497 C30.4186936,28.4698228 30.4757001,28.5548751 30.4757001,28.6002363 C30.4757001,28.7476602 30.2818779,28.815702 29.9056347,28.815702 C29.7574177,28.815702 29.6605065,28.9574557 29.6092006,29.2296229 C29.5578947,29.5017901 29.5122895,29.7342662 29.4666843,29.915711 L29.3469705,29.915711 C29.3469705,29.915711 29.3469705,29.915711 29.3469705,29.9440618 C27.9167297,29.7141191 26.5787209,29.0938414 25.4819266,28.1522944 L27.4486525,26.1960927 C28.204858,26.9056855 29.17825,27.3428651 30.21347,27.4378555 C30.2048805,27.5444326 30.2287154,27.6511158 30.2818779,27.7440436 C30.1866328,27.8383126 30.1350179,27.9676862 30.1393615,28.1012631 C30.1165589,28.1522944 30.1735654,28.2373467 30.2989799,28.3507497 Z M20.6078668,28.4868333 C20.5833273,28.0741059 20.5338321,27.663222 20.4596498,27.2564107 C20.3983114,27.0349523 20.3240776,26.817229 20.2373243,26.6043435 C20.2100917,26.2698478 20.1332509,25.9412006 20.0092981,25.6290777 C19.8220018,25.2985346 19.5899019,24.9951758 19.3195189,24.7275239 L19.3195189,24.3079328 C19.289253,24.1628498 19.2413978,24.0219561 19.1770025,23.8883417 L19.1770025,23.8146297 C19.1642868,23.7329963 19.2123743,23.6540766 19.2910156,23.6275148 L20.0549033,23.3666879 C20.0376109,23.142887 20.0627498,22.917847 20.1290118,22.7032803 L20.6591727,22.7940027 C20.8073897,22.7940027 20.8814982,22.6976102 20.8814982,22.4934848 C20.8486011,22.3399557 20.8008741,22.1899454 20.7389819,22.0455429 C20.659553,21.8815169 20.6094005,21.7050039 20.5907649,21.5238891 C20.5907649,21.4218264 20.6648734,21.3367742 20.8073897,21.2630622 C20.9408409,21.1919242 21.0892702,21.1530728 21.2406395,21.1496592 C21.4422524,21.1375488 21.6352562,21.2324558 21.7479978,21.3991458 C21.8444958,21.5725188 21.8936333,21.7680168 21.8905141,21.9661608 C21.8914702,22.0973525 21.8800185,22.2283428 21.8563102,22.3574012 C21.8307058,22.4613525 21.8173147,22.5679079 21.8164056,22.6749296 L21.9646226,22.7486415 C21.8658113,23.2249341 21.6757895,23.4630804 21.3945572,23.4630804 C21.2609365,23.4539986 21.1439556,23.3705743 21.0924225,23.2476147 C21.0487827,23.1458069 20.9524156,23.0760967 20.8415937,23.0661699 C20.7959884,23.0661699 20.7731858,23.0661699 20.7731858,23.1398819 C20.774736,23.2418743 20.7980533,23.3423754 20.8415937,23.4347297 C20.8957832,23.5478373 20.9212306,23.6724464 20.9157022,23.7976193 C20.9157022,24.1378283 20.7617845,24.2569014 20.4596498,24.1605089 C20.357038,24.3419537 20.4596498,24.4326761 20.7560838,24.4326761 C20.8586956,24.7275239 20.9613074,24.846597 21.0639192,24.8012358 C21.1468158,24.6486523 21.1972672,24.4807376 21.2121362,24.3079328 C21.2407988,24.1141562 21.2904948,23.9240408 21.3603532,23.7409178 L21.4401624,23.8146297 L21.7422971,23.7409178 C21.7390548,23.7767563 21.7390548,23.8128121 21.7422971,23.8486506 L21.8278069,23.8486506 C22.1212671,25.4443768 22.8533031,26.9280906 23.9427498,28.135284 L20.852995,31.1858246 C20.7183998,31.0664355 20.6558012,30.8860854 20.687676,30.709532 C20.7503832,30.4146842 21.0468172,30.2332394 21.0867218,29.9270513 C21.0867218,29.9270513 21.1608303,29.3600363 21.1608303,29.3600363 C20.9354717,29.1031864 20.7561441,28.8097422 20.6306694,28.4925034 L20.6078668,28.4868333 Z M18.8463645,23.9507133 C18.895607,24.037128 18.9211627,24.1348932 18.920473,24.2342208 C18.920473,24.3816447 18.8748678,24.4440164 18.772256,24.4156656 L18.7209501,24.4156656 C18.6185875,23.876424 18.5538257,23.3307889 18.5271278,22.7826624 L19.1541999,22.7826624 C19.1525596,22.884042 19.1312681,22.9841545 19.0914927,23.0775102 C19.0368818,23.1776351 18.9759529,23.2742208 18.9090717,23.3666879 C18.8408166,23.4461842 18.8007525,23.5458084 18.7950586,23.6501954 C18.7937287,23.7622403 18.8191261,23.8730024 18.8691671,23.9733939 L18.8463645,23.9507133 Z M18.5271278,21.6826533 C18.6710829,18.8891399 19.7922681,16.2335538 21.6966919,14.1753748 L23.9427498,16.3867333 L23.8800426,16.4604453 C23.7463914,16.4921731 23.6164629,16.5377849 23.4923981,16.5965289 C23.395487,16.715602 23.2928752,16.8516856 23.1731614,17.0217901 C22.9296843,17.1153445 22.6981569,17.23715 22.4833822,17.3846797 C22.2750639,17.5545651 22.0841161,17.7444911 21.9133168,17.9516947 C21.6225834,18.0991186 21.4401624,18.1785007 21.3432513,18.2068514 C21.2449912,18.2444816 21.1570841,18.3047158 21.0867218,18.3826261 C21.1836329,18.6264425 21.1836329,18.756856 21.0867218,18.7795366 L20.357038,18.9609814 C20.3022691,18.9680333 20.2517799,18.9941472 20.2145216,19.0346933 L19.9978968,19.250159 C19.9532334,19.3281762 19.9278339,19.4156273 19.9237883,19.5053158 C19.9201822,19.5932898 19.894721,19.6790051 19.8496797,19.7548024 C19.7079877,19.8521067 19.586123,19.9752433 19.4905385,20.117692 C19.4046827,20.3266599 19.4046827,20.5607913 19.4905385,20.7697592 L19.581749,21.4898682 L19.547545,21.4898682 C19.5763129,21.5611461 19.5973348,21.6352795 19.6102522,21.7110041 L18.5271278,21.6826533 Z M24.7066376,28.9177647 C25.8129409,29.8861665 27.1425443,30.5678616 28.5773821,30.9023171 L28.2581455,31.01005 C28.0280386,31.0615036 27.8535464,31.2485861 27.819195,31.4806724 C27.7735898,31.7698501 27.6652774,31.956965 27.4942577,32.0476874 C27.3232381,32.1384098 27.2662315,32.2291322 27.3118368,32.3765561 C27.5527139,32.6200843 27.7273136,32.9205839 27.819195,33.2497592 C27.9129479,33.590555 28.1982027,33.8454672 28.5488789,33.9018264 L28.9821286,34.0492503 C29.1383236,34.0622227 29.2880562,34.1170922 29.4153784,34.2080145 C29.5407928,34.2080145 29.6662072,34.2420354 29.7916216,34.2703862 C27.065352,34.081394 24.4853858,32.9733247 22.4776816,31.1291231 L24.7066376,28.9177647 Z M21.6966919,12.6217537 L19.4962392,10.4274057 C22.369068,7.74767662 26.1232806,6.1980053 30.0595524,6.06706043 L30.0595524,9.16863244 C26.948763,9.29829375 23.9852204,10.5219746 21.6966919,12.6217537 L21.6966919,12.6217537 Z M20.9214028,13.3985643 C18.8077777,15.6732231 17.5771071,18.6218815 17.4497041,21.7166742 L14.331446,21.7166742 C14.4617256,17.7994924 16.0198292,14.0631254 18.7152495,11.2042163 L20.9214028,13.3985643 Z M17.4497041,22.8110132 C17.4744613,23.3469332 17.5315708,23.8808894 17.6207237,24.4099955 C17.5772136,24.3402147 17.5372585,24.268302 17.50101,24.1945298 C17.3299904,23.9620536 17.1817733,23.8429805 17.0734609,23.8429805 C16.9451448,23.8314499 16.824503,23.9052938 16.7770268,24.0244253 C16.7265191,24.1464704 16.6507714,24.2565861 16.5547013,24.3476238 C16.3173702,24.5267603 16.0427187,24.6507578 15.750909,24.7105134 C15.5268394,24.953813 15.3749053,25.2540926 15.3119586,25.5780463 C15.2597612,25.6717466 15.2735272,25.7881314 15.3461625,25.867224 C15.420271,25.9636165 15.3803664,26.0600091 15.2378501,26.1564016 C15.3347612,26.3491867 15.3575638,26.4682599 15.3119586,26.5192912 C15.3575638,26.6156838 15.3461625,26.6497047 15.272054,26.6270241 C15.2098108,26.6017048 15.1384268,26.6150177 15.0896331,26.661045 C15.0437911,26.7077644 15.0087699,26.7638855 14.9870213,26.8254793 C14.5969812,25.5206731 14.3766617,24.1715293 14.331446,22.8110132 L17.4497041,22.8110132 Z M30.0595524,42.849323 C24.9504421,42.7096888 20.0752022,40.6892088 16.377981,37.1791731 L18.7209501,34.8430713 C21.8001041,37.7303782 25.8355322,39.3964219 30.065253,39.5266152 L30.0595524,42.849323 Z M30.0595524,38.4549568 C26.1442922,38.3245005 22.4085968,36.789884 19.5418444,34.1343026 C19.7188459,34.2257082 19.9129233,34.2797591 20.1119099,34.2930668 C20.3099425,34.2782767 20.50337,34.2263307 20.6819753,34.1399727 C20.9060717,34.0501537 21.124939,33.9479312 21.3375506,33.8337846 C21.5651695,33.8493319 21.7925396,33.8001681 21.9931259,33.6920309 C22.1797757,33.7423867 22.3765416,33.7423867 22.5631914,33.6920309 C22.7271349,33.6507766 22.83616,33.4965485 22.8197209,33.3291413 C22.8064788,33.162441 22.7101649,33.013421 22.5631914,32.9322308 C22.3864711,32.8131577 22.3009613,32.7054248 22.3009613,32.6090323 C22.3009613,32.5126397 22.255356,32.5012994 22.1527443,32.4275875 C21.9823035,32.2672336 21.8259192,32.0927169 21.6852906,31.9059337 L21.6852906,31.9059337 C23.974374,34.0040696 26.9379887,35.2257708 30.048151,35.3533848 L30.0595524,38.4549568 Z M30.6296178,30.4033439 L30.6296178,30.4033439 C30.3845546,30.4222836 30.1384568,30.3834294 29.9113353,30.2899409 C29.9113353,30.2275693 29.8600294,30.1651976 29.8372268,30.0971558 C29.9460809,30.015835 30.0603564,29.9419534 30.1792661,29.87602 C30.3112508,29.7771032 30.46611,29.7127613 30.6296178,29.688905 L30.6296178,29.4847796 L31.1654794,29.082199 C31.224119,29.0496454 31.2876353,29.0266721 31.353601,29.0141572 C31.4941591,28.9760092 31.6314149,28.9267098 31.7640481,28.8667333 C31.9637768,28.9284584 32.1552071,29.014141 32.3341136,29.12189 C32.5119668,29.2302186 32.7037243,29.3141404 32.9041791,29.3713766 L32.9782876,29.082199 C33.0751987,29.082199 33.2177151,29.1785915 33.4115373,29.3713766 C33.5440763,29.3589511 33.6704655,29.3098445 33.7763792,29.2296229 C33.8221699,29.112947 33.8221699,28.9834092 33.7763792,28.8667333 C33.852493,28.8779981 33.9259027,28.9029776 33.9930041,28.9404453 C34.0332268,28.9371377 34.0728655,28.9516633 34.1013166,28.9801363 C34.1317396,29.0047968 34.1704845,29.0169666 34.209629,29.0141572 L34.2837375,29.0141572 C34.4310963,28.9916549 34.5692595,28.9288326 34.6827833,28.8327124 C34.8099711,28.7389645 34.9432799,28.6537246 35.0818292,28.5775557 C35.0991374,28.5560092 35.1253596,28.5434638 35.1530873,28.5434638 C35.1808151,28.5434638 35.2070373,28.5560092 35.2243455,28.5775557 C35.2843393,28.6614295 35.3107608,28.7645285 35.298454,28.8667333 C35.2973957,29.2560195 35.0512125,29.6029129 34.6827833,29.7342662 C34.3400127,29.8982883 33.9878681,30.042179 33.6281622,30.1651976 C33.5524262,30.2659463 33.4910395,30.3766143 33.4457413,30.4940663 C33.3773334,30.6641708 33.2918236,30.7435529 33.1949124,30.7435529 C32.892963,30.7337957 32.5929258,30.6919772 32.2999097,30.6188096 C32.2020437,30.4865019 32.1269159,30.3389665 32.0775841,30.1822081 C31.9005692,30.1875029 31.7246833,30.2122234 31.5531239,30.25592 L30.9545551,30.4033439 C30.8531893,30.4258371 30.7480856,30.4258371 30.6467198,30.4033439 L30.6296178,30.4033439 Z M33.7763792,28.021881 C33.7989809,27.809104 33.9400762,27.6271003 34.1412211,27.5512585 C34.3231349,27.4813728 34.5162803,27.4448716 34.7112866,27.4435257 C34.7112866,27.5852794 34.5744709,27.7327033 34.3122408,27.8744571 C34.165573,27.9681962 34.0062643,28.0407424 33.8390864,28.0899228 L33.7763792,28.021881 Z M36.0281378,26.2527942 C36.2326215,26.3647689 36.3478125,26.5894248 36.3188712,26.8198092 C36.3305054,26.8994938 36.3036413,26.9799653 36.2463985,27.0369019 C36.1891556,27.0938384 36.1082512,27.1205587 36.0281378,27.1089868 C35.8799208,27.1089868 35.7602071,26.9388823 35.6632959,26.6043435 C35.3212567,26.5079509 35.1331351,26.3491867 35.0932305,26.133721 C35.0533259,25.9182553 35.0932305,25.7878419 35.167339,25.7368105 C35.2613096,25.6934904 35.3585112,25.6574718 35.4580724,25.6290777 C35.5549835,25.6290777 35.5777861,25.7141299 35.5321809,25.9522762 L36.0281378,26.2527942 Z M43.0399432,14.1300136 C43.0975693,14.13277 43.1513675,14.1595252 43.1881602,14.2037256 C43.3678389,14.1985462 43.5448323,14.2479973 43.6955184,14.3454793 C44.0330585,14.6680641 44.3280513,15.031974 44.5734193,15.428478 C44.6247252,15.428478 44.6817317,15.5021899 44.7558402,15.6496138 C44.8299487,15.7970377 44.9154586,15.8650795 45.0123697,15.8650795 C45.1442021,15.8493013 45.2718532,15.8089024 45.3886129,15.7460064 C45.3886129,15.6779646 45.3886129,15.6155929 45.4342181,15.5475511 C46.3251399,17.4880086 46.8211256,19.584668 46.8935857,21.7166742 L43.8152322,21.7166742 C43.8120429,21.6979068 43.8120429,21.6787401 43.8152322,21.6599727 C43.8325951,21.3811327 43.7734842,21.1028382 43.6442126,20.8548114 C43.4855204,20.5224088 43.4492043,20.1451376 43.5416008,19.7888233 C43.6101757,19.5939707 43.6239731,19.3841954 43.5815054,19.1821172 C43.4876744,19.185361 43.3975257,19.2192349 43.3249759,19.2785098 C43.2456462,19.3757838 43.1821658,19.484845 43.1368543,19.6017083 C43.0684464,19.7718128 43.0057392,19.9022263 42.960134,19.9986188 L42.960134,20.0383099 C42.9352588,20.0810102 42.9160947,20.126758 42.9031274,20.1743935 C42.8891924,20.2386927 42.8641156,20.3000899 42.8290189,20.3558383 C42.777713,20.5486234 42.7321078,20.7414085 42.6808019,20.9228532 C42.6442019,21.1101053 42.6442019,21.3026162 42.6808019,21.4898682 L42.6808019,21.7110041 L41.1074212,21.7110041 C41.201035,21.6126529 41.3161048,21.5369968 41.4437598,21.4898682 L41.3924539,21.4898682 L41.8143024,21.2800727 C41.7274253,21.2434489 41.6712095,21.1584582 41.671786,21.064607 C41.671786,20.9228532 41.671786,20.837801 41.7458945,20.8151204 C41.820003,20.7924398 41.9283155,20.7300682 42.167743,20.6393458 C42.325561,20.4319257 42.4558487,20.2051422 42.5553875,19.9645979 C42.8293945,19.5238039 43.0224205,19.0380613 43.125453,18.53005 C43.125453,18.416647 42.977236,18.2748932 42.960134,18.1558201 C42.9636732,18.0511624 42.9751066,17.9469168 42.9943379,17.8439618 C42.9943379,17.3393185 43.2280648,16.4604453 42.5724895,16.3016811 C42.5211836,16.3016811 42.498381,16.2279691 42.498381,16.0862154 C42.665885,15.9489905 42.7256912,15.7201974 42.646598,15.5192004 L42.1848449,15.5192004 C42.2019902,15.4273632 42.2389425,15.3403129 42.2931574,15.2640436 C42.3602048,15.1687304 42.3996437,15.0569309 42.4071705,14.9408451 C42.409505,14.8834237 42.3859627,14.8279602 42.3429623,14.7895766 C42.2999619,14.751193 42.2419872,14.7338917 42.1848449,14.7423898 C42.0571617,14.7368787 41.9300328,14.7621685 41.8143024,14.8161018 C41.7444068,14.8564733 41.6666791,14.8815996 41.5862762,14.8898137 C41.5485395,14.8961583 41.5099998,14.8961583 41.4722631,14.8898137 L41.375352,14.7423898 C41.3570314,14.4686475 41.239562,14.210792 41.044714,14.0166106 C40.8920811,13.8351709 40.6960571,13.6947889 40.4746485,13.6083598 L40.4746485,13.6083598 C40.5089614,13.5091503 40.5089614,13.4013813 40.4746485,13.3021717 L41.044714,12.6444343 L41.9283155,12.9619627 C41.9110581,13.1581502 41.9973822,13.3491934 42.1563417,13.4666061 C42.2536436,13.5456544 42.3565192,13.617661 42.464177,13.6820718 C42.5858443,13.7611529 42.7020203,13.8482922 42.811917,13.9428987 L42.811917,13.9825897 C42.9202294,14.0846524 42.9943379,14.1300136 43.0399432,14.1300136 Z M40.0470994,35.1549296 C39.9989353,35.1066548 39.9330448,35.08003 39.8646785,35.0812176 C39.79057,35.0812176 39.756366,35.0358564 39.756366,34.9394639 C39.756366,34.8430713 39.8304745,34.7466788 39.9786916,34.6502862 C40.1470265,34.5209118 40.2738088,34.3455486 40.3435335,34.1456429 C40.4202918,34.001819 40.4650105,33.8432402 40.4746485,33.6806906 C40.4838411,33.6025084 40.4360392,33.5288119 40.3606354,33.5049159 C40.2634704,33.4626602 40.176134,33.4008866 40.104106,33.3234711 C39.9987839,33.2697093 39.890271,33.2223706 39.7791687,33.1817174 C39.6394179,33.1207312 39.5058032,33.0466871 39.3801228,32.9605816 C39.2453555,32.8886499 39.1602877,32.7497986 39.1577973,32.597692 C39.1816961,32.47529 39.217985,32.3556073 39.2661097,32.2404725 C39.2661097,32.1781009 39.3174156,32.1100591 39.3459189,32.0476874 L39.5112379,31.9059337 L41.1872304,33.5729577 C41.1872304,33.7657428 41.3069441,33.8734757 41.5292697,33.9131667 L41.7116906,34.0946115 C41.1252498,34.6397813 40.4982993,35.1401741 39.8361752,35.5915311 C39.8664559,35.5222352 39.9089264,35.4588703 39.9615896,35.4044162 C39.9868271,35.3810464 40.0157045,35.3618978 40.0470994,35.3477147 C40.0657878,35.2847972 40.0657878,35.2178471 40.0470994,35.1549296 Z M39.0380835,27.2167197 C38.8864277,27.1708528 38.7219349,27.1981216 38.5934325,27.2904316 C38.3843606,27.3494591 38.2193075,27.5093649 38.1544821,27.7156929 C38.1544821,27.7610541 38.1259788,27.7837347 38.0803735,27.7837347 C37.9791725,27.7866038 37.8798733,27.8117799 37.7896402,27.8574466 C37.6645267,27.8975421 37.5425777,27.9468188 37.4247983,28.0048705 C37.2822819,28.0048705 37.2081734,27.9538392 37.2081734,27.8574466 C37.2081734,27.7610541 37.4247983,27.6193003 37.8637487,27.568269 C38.0499701,27.3339028 38.1696838,27.192149 38.2228899,27.1430077 C38.3229718,27.0713996 38.4378904,27.0229659 38.5592285,27.001254 C38.7908042,26.8759505 38.9868712,26.6945839 39.129294,26.47393 C39.2435565,26.3356378 39.335838,26.1807461 39.4029254,26.0146479 L39.4713333,26.0146479 C39.4713333,26.247124 39.5739451,26.3661972 39.773468,26.3661972 C39.9729909,26.3661972 40.0528001,26.2017628 40.1554119,25.867224 C40.3520509,25.9405331 40.5568476,25.9900305 40.7653819,26.0146479 C40.9807349,26.0293422 41.1859608,25.921791 41.2955428,25.7368105 L42.1848449,25.7368105 C42.1823948,25.7594257 42.1823948,25.7822372 42.1848449,25.8048523 L42.1848449,25.8615538 L42.1848449,25.8615538 C41.6823999,27.45363 40.8535651,28.9248067 39.7506654,30.1822081 C39.7506654,30.1084961 39.7506654,30.0347842 39.7506654,29.9610722 C39.7506654,29.9610722 39.5340405,29.3033348 39.4884353,29.3033348 C39.44283,29.3033348 39.277511,29.4734393 39.1406953,29.8079782 C39.0038796,30.142517 38.9126691,30.3749932 38.8670639,30.4543753 L38.1373801,30.6017992 C37.9244049,30.6515989 37.706285,30.6763391 37.4875055,30.6755312 C37.2682996,30.6286916 37.0596103,30.542203 36.8718347,30.4203544 C36.6806355,30.3023494 36.4704438,30.2179554 36.2504634,30.1708678 C36.0490077,30.1072904 35.8432665,30.0580251 35.6347927,30.0234439 C35.3668619,29.9780827 35.2357468,29.9043707 35.2357468,29.8079782 C35.2357468,29.7115856 35.332658,29.5925125 35.5264802,29.5925125 C35.7196281,29.6094999 35.9105934,29.6455892 36.0965457,29.7002453 L36.9687459,29.915711 L37.7668375,30.1311767 C37.9075059,30.180628 38.0525718,30.2167004 38.2000873,30.2389096 L38.6390377,30.0971558 C38.6534741,29.9553133 38.7023859,29.8190931 38.7815541,29.7002453 C38.8642553,29.5827174 38.9152852,29.4460644 38.9297711,29.3033348 C39.0534318,29.0514527 39.1435032,28.7845907 39.1977019,28.5095139 C39.2707448,28.2258248 39.3109107,27.9347538 39.3174156,27.6419809 C39.2604091,27.3754839 39.1805999,27.2167197 39.0380835,27.2167197 Z M40.9649048,22.8393639 L42.6751013,22.8393639 C42.6416895,23.5493467 42.54632,24.2550993 42.3900685,24.9486597 C42.301283,24.7152537 42.1762502,24.4971389 42.019526,24.3022626 L41.4494605,23.7352476 C41.3981546,23.4971013 41.3639507,23.3269968 41.3354474,23.2306043 C41.312602,23.1690644 41.2798734,23.1116171 41.2385363,23.0604998 C41.1346642,22.9922168 41.0423114,22.9080131 40.9649048,22.8110132 L40.9649048,22.8393639 Z M41.671786,31.6451068 C41.523569,31.6451068 41.4551611,31.6847978 41.4551611,31.7528396 C41.4410393,31.903338 41.4181987,32.0529005 41.3867533,32.2007815 L40.3036289,31.1291231 C41.778053,29.539837 42.8319946,27.6108057 43.3705811,25.5156747 L43.421887,25.4703135 C43.665115,25.5610359 43.8247333,25.5610359 43.900742,25.4703135 C43.9567053,25.4101935 43.9942777,25.3354508 44.0090545,25.2548478 C43.9599753,25.0297679 43.8328373,24.8290415 43.6499132,24.6878328 L43.5587027,24.6878328 C43.6746437,24.0679892 43.7470272,23.4408644 43.7753276,22.8110132 L46.8935857,22.8110132 C46.7619364,26.7262215 45.203928,30.460345 42.5097823,33.317801 L42.3729666,33.1873876 L42.3729666,33.1590368 C42.3273613,32.824498 42.2760554,32.5012994 42.2133482,32.183771 C42.150641,31.8662426 41.9625194,31.6451068 41.671786,31.6451068 Z M40.9021976,15.9898228 C40.8976514,16.1140077 40.8726148,16.2366049 40.8280891,16.3527124 C40.7868928,16.476034 40.739324,16.5971584 40.6855728,16.715602 C40.8447639,16.9153978 41.0376561,17.0861533 41.2556382,17.2202453 C41.486093,17.3725418 41.7051881,17.541195 41.9112135,17.7248887 C42.0549737,17.9877351 42.1641804,18.2678664 42.2361508,18.5584007 C42.3230755,18.8066928 42.3842015,19.0631882 42.4185718,19.323871 C42.3743998,19.5044477 42.3012534,19.6767622 42.2019469,19.8341845 C42.0542266,20.0958652 41.7795429,20.2615145 41.4779638,20.270786 L41.4038553,20.1970741 C41.4196417,20.0466852 41.468282,19.9015451 41.5463716,19.7718128 C41.6245677,19.6396167 41.6749902,19.4930168 41.6945886,19.3408814 C41.854273,19.2535037 41.9623278,19.0954498 41.985322,18.9156202 L41.7629965,18.8078873 C41.6331267,18.7118747 41.5128575,18.603642 41.4038553,18.4846888 C41.4038553,18.342935 41.2556382,18.2748932 40.9706055,18.2748932 C40.8401747,18.2681737 40.7113793,18.3062053 40.6057636,18.3826261 C40.488504,18.4719187 40.3667311,18.5551896 40.2409217,18.6321127 L40.0984053,18.342935 C40.1450587,18.2494138 40.1703645,18.146796 40.1725138,18.0424171 L39.6024484,17.0728214 C39.3541628,16.9414162 39.0835793,16.8568307 38.8043567,16.8233348 C38.6166143,16.7819339 38.4220337,16.7819339 38.2342912,16.8233348 C38.0444079,16.8543723 37.8500494,16.8447064 37.6642258,16.7949841 C37.4386471,16.7717099 37.2145466,16.8508712 37.0542557,17.0104498 C36.8741018,17.1452096 36.7130333,17.3035091 36.5754007,17.4810722 C36.5012922,17.5661245 36.5754007,17.6851976 36.3872791,17.6398364 C36.3183592,17.5836778 36.2570421,17.5188771 36.2048581,17.4470513 L39.5226392,14.1753748 C39.54598,14.2135672 39.5726882,14.24962 39.6024484,14.2831077 L39.8931817,14.6063062 C39.9957935,14.7253794 40.0984053,14.8557928 40.2010171,14.9918764 C40.4513163,15.312696 40.6853352,15.6457605 40.9021976,15.9898228 L40.9021976,15.9898228 Z M32.9896889,37.6497955 C33.2641486,37.8689782 33.5801619,38.0309602 33.9188956,38.1260881 C33.0122045,38.3136467 32.0910371,38.4236712 31.1654794,38.4549568 L31.1654794,35.3533848 L31.1654794,35.3533848 C31.288051,35.5427026 31.4445701,35.7079942 31.6272324,35.8410177 C31.8328629,35.9107852 32.048447,35.9471618 32.2657057,35.9487506 C32.590643,35.9771013 32.755962,36.0338028 32.755962,36.1301954 C32.7479964,36.2453208 32.710724,36.3565398 32.6476496,36.4533939 C32.5811575,36.5511006 32.5418237,36.6645584 32.5336365,36.7822626 C32.5398883,37.126721 32.7088553,37.4481411 32.9896889,37.6497955 L32.9896889,37.6497955 Z M31.1654794,42.849323 L31.1654794,39.5492958 C32.3823749,39.5111042 33.5918612,39.345761 34.7739938,39.0559927 C34.7762421,39.0786182 34.7762421,39.1014091 34.7739938,39.1240345 C34.7794423,39.1540325 34.7794423,39.1847589 34.7739938,39.2147569 C35.0586035,39.393529 35.30469,39.6267348 35.497977,39.9008451 C35.5948881,40.0936302 35.8628189,40.1900227 36.2960686,40.1900227 C36.5411968,40.1900227 36.6951144,40.1446615 36.769223,40.048269 C36.8465534,39.9449924 36.932357,39.8482688 37.0257524,39.7590913 C37.1265533,39.6586096 37.2495232,39.5828927 37.3848937,39.5379555 C37.5081796,39.5104787 37.6138928,39.4321334 37.6756271,39.3224898 C37.8944,39.2470016 38.0772229,39.093444 38.188686,38.8915584 C38.3825627,38.7455635 38.5324247,38.5494317 38.6219357,38.3245434 C38.740901,38.3136434 38.8481676,38.248791 38.9126691,38.1487687 C39.0547968,37.9149857 39.1532898,37.6575849 39.2034025,37.3889687 L39.3288169,37.3152567 C39.326069,37.2793978 39.326069,37.2433828 39.3288169,37.2075239 C40.4552717,36.5479229 41.5048797,35.7663556 42.4584764,34.8770922 L44.8014455,37.213194 C41.1106148,40.7004748 36.2541252,42.7077988 31.1654794,42.849323 L31.1654794,42.849323 Z M45.6337411,36.4250432 L43.2850713,34.0946115 C46.1888138,31.0325157 47.8639693,27.0183254 47.9938121,22.8110132 L51.3058925,22.8110132 C51.1730191,27.8905979 49.1521641,32.7409586 45.6337411,36.4250432 L45.6337411,36.4250432 Z M51.3058925,21.7166742 L47.9938121,21.7166742 C47.8835938,18.2401093 46.7147096,14.8787659 44.6418271,12.0774194 C44.6070717,11.9674309 44.5508985,11.8653189 44.4765081,11.7769014 C44.4205898,11.7148526 44.3574374,11.659652 44.2883865,11.6124671 C44.0204558,11.2665879 43.7183211,10.9377192 43.438989,10.6145207 C43.3988152,10.5411809 43.3681666,10.4630642 43.3477785,10.3820445 L45.6280404,8.11398455 C49.1450239,11.7949243 51.167599,16.6404998 51.3058925,21.7166742 Z M31.1654794,1.70104498 C36.2751692,1.83798791 41.1513427,3.85885483 44.8470507,7.37119491 L42.8290189,9.37842799 C42.7801496,9.28069967 42.7419279,9.17805333 42.7150058,9.07223989 C42.5553875,8.93048614 42.4527757,8.84543389 42.4128711,8.84543389 C42.2283762,8.76172854 42.1024746,8.58684132 42.0822332,8.38615175 C42.0753587,8.21524887 42.0111363,8.05155961 41.8998122,7.92119945 C41.5845292,7.80902389 41.3237611,7.58207279 41.1701284,7.28614266 C40.9763061,6.95727397 40.7824839,6.78716947 40.6000629,6.78716947 C40.4419041,6.83458583 40.2711732,6.81617191 40.1269086,6.73613812 C39.9772563,6.66767231 39.8174908,6.62363686 39.6537543,6.60572467 C39.4799625,6.60422233 39.3069558,6.62907846 39.1406953,6.67943662 C38.953743,6.73815542 38.7633688,6.7854943 38.5706299,6.82119037 L38.4965213,6.89490232 C36.2993804,5.76140578 33.8826683,5.11163098 31.4106075,4.98973194 C31.5987291,4.68921399 31.6272324,4.49075875 31.4790154,4.42271695 C31.4391108,4.3830259 31.3307984,4.42271695 31.1654794,4.59849159 L31.1654794,1.70104498 Z M31.1654794,6.08974103 C33.5140975,6.16643638 35.8183701,6.74667491 37.9207552,7.79078601 C37.9180853,7.80769281 37.9180853,7.82491055 37.9207552,7.84181736 C38.006265,7.9268696 38.1031762,8.03460245 38.2114886,8.15934575 C38.319801,8.28408905 38.4167122,8.39749205 38.4623174,8.44285325 C38.5161144,8.65708703 38.5846846,8.86738034 38.667541,9.07223989 C38.7330987,9.1963725 38.8073922,9.31574286 38.8898665,9.42945934 C38.8403363,9.63789873 38.8795282,9.8574301 38.998179,10.0361654 C39.1158015,10.248013 39.2491888,10.450814 39.3972248,10.6428714 L39.6879582,10.6088505 C39.8060857,10.5840121 39.9263714,10.5707185 40.0470994,10.5691595 C40.1833636,10.5902743 40.3038601,10.6687978 40.3777374,10.7846252 C40.4885628,10.9129254 40.5737011,11.0611203 40.6285662,11.2212267 C40.6608178,11.2972153 40.6819356,11.3774153 40.6912734,11.459373 L39.8019713,12.3439164 L39.8019713,12.3439164 C39.7109941,11.9279248 39.5653246,11.5256646 39.3687215,11.1475148 C39.2173799,11.0018572 39.007432,10.9329451 38.798656,10.9603998 C38.7473501,10.9150386 38.5820312,10.7052431 38.2912978,10.3423535 C38.0005644,9.97946388 37.8352454,9.77533848 37.7839395,9.77533848 C37.7045474,9.76871642 37.6259924,9.79544669 37.5673146,9.84905043 C37.6117259,9.93687775 37.6612144,10.0220727 37.7155316,10.1042072 L38.006265,10.5804998 C38.0120492,10.6210921 37.9983057,10.662027 37.9691597,10.6910169 C37.9400138,10.7200069 37.8988587,10.7336769 37.858048,10.7279237 C37.8981426,10.9092851 38.0405528,11.0509332 38.2228899,11.0908133 L38.1487814,11.232567 L38.3597056,11.6578283 C36.2640851,10.1321994 33.7601707,9.2599269 31.1654794,9.15162199 L31.1654794,6.08974103 Z M31.1654794,10.2913221 C33.986938,10.4063958 36.6774304,11.506546 38.7644521,13.3985643 L36.5354961,15.6155929 C35.0504977,14.3030521 33.1655059,13.5243375 31.1825813,13.4042344 L31.1654794,10.2913221 Z M31.1654794,14.5269241 C32.7466678,14.6418358 34.254595,15.2354472 35.4865756,16.2279691 C35.432274,16.2468874 35.3820054,16.2757334 35.3383586,16.3130214 C35.294708,16.354646 35.2446769,16.3890976 35.1901416,16.4150841 C35.1445364,16.4377647 35.1217337,16.4944662 35.1217337,16.5851886 C35.1217337,16.7042617 35.2813521,16.7496229 35.3953652,16.7666333 L34.540267,17.5774648 L34.540267,17.5774648 C34.4218085,17.6375551 34.3124267,17.7139035 34.2153296,17.8042708 C34.0158067,17.9006633 33.9074943,17.9857156 33.878991,18.0594275 C33.8504877,18.1331395 33.8390864,18.1955111 33.8105832,18.3089141 L33.5255504,18.5924216 C33.4839556,18.5983151 33.4417309,18.5983151 33.400136,18.5924216 C33.3032249,18.5924216 33.1550079,18.4960291 32.955485,18.2975738 C32.755962,18.0991186 32.607745,18.0083962 32.5108339,18.0083962 C32.3904068,17.9974739 32.270784,18.036451 32.1801959,18.116129 C32.1121107,18.1845753 32.0051966,18.1963911 31.9236664,18.1444798 C31.8267553,18.0480872 31.9236664,17.9403544 32.2543044,17.8156111 C32.5849424,17.6908678 32.790166,17.6058155 32.8870771,17.5604543 C33.2578979,17.2899653 33.471094,16.855252 33.4571426,16.3980736 C33.4571426,16.1542572 33.3602314,16.0295139 33.1607085,16.0295139 L32.938383,16.2393094 C32.7469238,16.3243804 32.5714809,16.4413557 32.4196234,16.5851886 L32.0490809,16.9367378 C31.9085157,16.8785498 31.7563701,16.8533279 31.6044298,16.8630259 L31.17118,16.8630259 L31.1654794,14.5269241 Z M30.5213054,19.4939755 C30.5555093,19.5676874 30.6011146,19.6073785 30.6524204,19.6073785 C30.7796575,19.6048797 30.9040764,19.6448001 31.005861,19.7207815 C31.1161541,19.7907737 31.252339,19.8074452 31.3764036,19.7661427 C31.3908291,19.8188822 31.4205733,19.8662183 31.4619134,19.9022263 C31.5110236,20.0088235 31.6244129,20.070969 31.7412455,20.0553203 L31.8267553,20.1460427 C31.8449806,20.1706678 31.8602838,20.1973051 31.8723606,20.2254248 C31.9072071,20.3127355 31.9471805,20.3979345 31.9920743,20.4805816 L32.0205776,20.4805816 L32.0205776,20.5429532 C32.0908383,20.5847569 32.1749469,20.5969996 32.2543044,20.5769741 C32.3133214,20.5562201 32.3777084,20.5562201 32.4367254,20.5769741 C32.4367254,20.6280055 32.4367254,20.6790368 32.4367254,20.7357383 L32.4823306,20.7357383 C32.4772768,20.794222 32.4772768,20.8530292 32.4823306,20.9115129 C32.5038397,21.0179492 32.5152909,21.1261535 32.5165345,21.2347115 L32.5165345,21.3764652 C32.5182965,21.396501 32.5110565,21.4162855 32.4967585,21.430507 C32.4824605,21.4447285 32.4625695,21.4519297 32.442426,21.4501772 C32.307963,21.5530198 32.2231479,21.7073391 32.2086992,21.8754384 C32.2086992,21.971831 32.2714064,22.0058519 32.4025214,21.9831713 C32.507941,21.9478988 32.6235649,21.9934216 32.6761529,22.0909041 C32.7844976,22.2053133 32.8402383,22.35932 32.8300705,22.5161654 L32.8300705,23.1625625 C32.8242986,23.248591 32.8657268,23.3310039 32.938383,23.3780282 C33.0124915,23.4233894 33.0466954,23.4687506 33.0466954,23.5197819 C33.0424632,23.6996726 33.0175994,23.8784949 32.9725869,24.052776 C32.9464907,24.2251533 32.8713203,24.386495 32.755962,24.5177283 C32.7027559,24.5630895 32.5773415,24.5630895 32.3797188,24.5177283 C32.2081594,24.4740317 32.0322735,24.4493112 31.8552586,24.4440164 C31.7583475,24.4440164 31.6557357,24.5914403 31.5588245,24.8749478 C31.4670387,25.0865236 31.3908294,25.3044531 31.3307984,25.527015 C31.2851931,25.7198001 31.1825813,25.8161926 31.0343643,25.8161926 C30.9345558,25.815971 30.8350653,25.8273893 30.7379303,25.8502135 L30.7835355,25.8502135 L30.5384073,26.2414539 L30.4585982,26.3435166 C29.6350572,26.2943091 28.8555783,25.9568694 28.2581455,25.3909314 L28.6400893,25.0110313 C28.8783575,24.9775441 29.1130571,24.9225046 29.3412699,24.846597 L29.4666843,24.7955657 C29.8543288,24.6254612 29.8201249,24.3136029 30.0367497,23.9790641 C30.1621641,23.7579282 30.527006,23.5084416 30.2362726,23.258955 C30.56121,22.69194 29.0505365,22.69194 28.7826057,22.8110132 C28.5146749,22.9300863 28.6685926,23.2929759 28.5032736,23.5424625 C28.4177638,23.672876 28.2752474,23.672876 28.1612343,23.7635984 C27.9114083,23.9618714 27.7154345,24.2191726 27.5911689,24.5120582 L27.5911689,24.5120582 C27.4936641,24.3302028 27.4116672,24.1405328 27.3460407,23.9450432 L27.4030473,23.9450432 C27.374544,23.8883417 27.3631427,23.8429805 27.4030473,23.82597 L27.4771558,23.82597 L27.4771558,23.899682 C27.6652774,23.9450432 27.7906918,23.9450432 27.836297,23.899682 C27.8828225,23.768479 27.9190355,23.633881 27.9446095,23.4971013 C28.0494927,23.2031674 28.1831497,22.9201914 28.3436553,22.652249 C28.2569926,22.6068258 28.1945458,22.5260794 28.1726356,22.4311131 C28.1726356,22.3347206 28.0928265,22.31204 28.001616,22.3574012 C27.9170607,22.3988206 27.8638701,22.4847927 27.8648003,22.578537 C27.8587307,22.6889567 27.8096562,22.7926821 27.7279846,22.8677147 C27.6573337,22.9528458 27.5538137,23.0043288 27.4429518,23.0094684 C27.450475,22.9503443 27.4300839,22.891083 27.3877165,22.8489424 C27.3453492,22.8068019 27.2857692,22.7865198 27.226327,22.7940027 C27.1134565,22.8023607 27.0086971,22.8554817 26.9355936,22.9414266 C26.8386824,22.9414266 26.6106562,22.9414266 26.2458143,23.0094684 C26.0193001,23.0651884 25.7825493,23.0651884 25.5560351,23.0094684 C25.459124,22.918746 25.5560351,22.8166833 25.920877,22.7202908 C25.8907269,22.4164845 26.0020413,22.1156637 26.2230117,21.9037892 C26.3576426,21.9822935 26.5070434,22.0324706 26.6619621,22.0512131 L26.8044785,21.9037892 L26.878587,21.9037892 C27.0211034,21.9037892 27.1066132,22.0285325 27.1294158,22.2723489 C27.1522184,22.5161654 27.2149256,22.6352385 27.3118368,22.6352385 C27.4250675,22.6281755 27.5303086,22.5748103 27.6025702,22.4878146 L27.6025702,22.1135847 C27.6994813,21.7223444 27.7735898,21.4558473 27.819195,21.3084234 L27.819195,21.0929577 C27.8734769,20.9614654 27.9506702,20.8405367 28.0472212,20.7357383 L28.1327311,20.7357383 C28.2290469,20.6556842 28.3452013,20.6028132 28.4690697,20.5826443 C28.5474925,20.4448631 28.5960397,20.2922748 28.6115861,20.1347024 C28.7598031,20.0893412 29.0106319,19.9872785 29.3754738,19.8398546 C29.7403157,19.6924307 29.9455393,19.5450068 29.9455393,19.3975829 L29.9455393,19.3578919 C30.1071388,19.3237316 30.2709672,19.3009942 30.4357956,19.2898501 C30.4438612,19.3579267 30.4738589,19.4215793 30.5213054,19.4712949 L30.5213054,19.4939755 Z M30.0595524,1.70104498 L30.0595524,4.97272149 C25.8332239,5.10347803 21.7998618,6.76262088 18.7152495,9.63925488 L16.3722804,7.30882326 C20.0789741,3.81796268 24.9563246,1.81967552 30.0595524,1.70104498 L30.0595524,1.70104498 Z M15.5969913,8.0969741 L17.9399604,10.4274057 C15.0385382,13.4932705 13.363879,17.5082881 13.2312196,21.7166742 L9.91343856,21.7166742 C10.0474661,16.6334783 12.0726421,11.7804768 15.5969913,8.0969741 L15.5969913,8.0969741 Z" id="Shape"></path>
                <path d="M95.2009339,9.16863244 L95.3320489,10.9774103 C96.4134281,9.60120615 98.0920055,8.8233266 99.8469675,8.88512494 C101.511559,8.88512494 102.748601,9.36708769 103.563794,10.3423535 C104.378988,11.3176193 104.789435,12.7691776 104.812238,14.7026988 L104.812238,24.7955657 L100.616556,24.7955657 L100.616556,14.8047615 C100.683695,14.1130591 100.479442,13.4223142 100.04649,12.8769105 C99.5107838,12.4244263 98.813405,12.2075337 98.1139684,12.2758746 C97.0125521,12.2307028 95.9815608,12.8138589 95.4574633,13.7784643 L95.4574633,24.7955657 L91.2617815,24.7955657 L91.2617815,9.16863244 L95.2009339,9.16863244 Z" id="Path"></path>
                <path d="M108.700084,5.10313494 C108.681654,4.52306336 108.911654,3.96247673 109.332857,3.56085416 C110.330243,2.75833157 111.755864,2.75833157 112.75325,3.56085416 C113.182598,3.95819537 113.419347,4.52004641 113.403124,5.10313494 C113.42504,5.69106897 113.190136,6.25967931 112.75895,6.66242617 C111.766309,7.47817809 110.331199,7.47817809 109.338558,6.66242617 C108.910101,6.25823544 108.677453,5.6900583 108.700084,5.10313494 L108.700084,5.10313494 Z M113.157996,24.7728851 L108.950913,24.7728851 L108.950913,9.16863244 L113.157996,9.16863244 L113.157996,24.7728851 Z" id="Shape"></path>
                <path d="M121.822991,5.32994094 L121.822991,9.16863244 L124.508,9.16863244 L124.508,12.2305134 L121.822991,12.2305134 L121.822991,20.0269696 C121.782545,20.4684954 121.899593,20.9100977 122.153629,21.2744025 C122.510994,21.5655656 122.971582,21.7005482 123.430576,21.6486324 C123.845221,21.6530658 124.259374,21.618896 124.667618,21.5465697 L124.667618,24.7105134 C123.843462,24.9599465 122.98659,25.0860696 122.125126,25.0847537 C119.183588,25.0847537 117.684316,23.6067242 117.62731,20.6506861 L117.62731,12.2305134 L115.347048,12.2305134 L115.347048,9.16863244 L117.62731,9.16863244 L117.62731,5.32994094 L121.822991,5.32994094 Z" id="Path"></path>
                <path d="M101.853598,49.9370104 C101.639517,49.4952514 101.497136,49.0225522 101.431749,48.5364834 C100.424028,49.6681813 98.9601856,50.2921854 97.4412912,50.2375284 C96.0434201,50.2858294 94.6782743,49.8102816 93.6161519,48.9050432 C92.6257395,48.0741962 92.0662441,46.8423894 92.094077,45.5539846 C92.0198038,44.0530945 92.7177873,42.6176021 93.9467898,41.7436438 C95.1838319,40.8591004 96.9624362,40.4111586 99.2997046,40.3998183 L101.226526,40.3998183 L101.226526,39.4925943 C101.257228,38.8659561 101.054224,38.250108 100.65646,37.7631985 C100.198678,37.29202 99.5510599,37.052287 98.8949581,37.1111313 C98.297509,37.0778787 97.707599,37.2567179 97.2303669,37.6157746 C96.8341919,37.9659584 96.6236383,38.4790543 96.6603015,39.0049614 L92.4646196,39.0049614 C92.4646141,38.0997419 92.7585328,37.2187265 93.3026158,36.493085 C93.9152501,35.6830136 94.7393992,35.0554622 95.6854895,34.678637 C96.7835184,34.2261905 97.9631124,34.0023406 99.1514876,34.0208996 C100.810869,33.9363963 102.444944,34.4519908 103.751916,35.472458 C104.916034,36.50413 105.545328,38.0063528 105.462112,39.5549659 L105.462112,46.3251249 C105.403997,47.4787063 105.616738,48.6299014 106.083484,49.6875239 L106.083484,49.9370104 L101.853598,49.9370104 Z M98.3818992,47.0622444 C98.9776853,47.0677388 99.5654578,46.9254795 100.092096,46.6483235 C100.579532,46.3948275 100.977367,45.9991214 101.232227,45.5142935 L101.232227,42.8323126 L99.6645465,42.8323126 C97.5667056,42.8323126 96.4493773,43.5543117 96.3125615,44.9983099 L96.3125615,45.2421263 C96.3070086,45.732875 96.5148254,46.2020949 96.882627,46.5292503 C97.2959482,46.8902712 97.8321491,47.0808916 98.3818992,47.0622444 L98.3818992,47.0622444 Z" id="Shape"></path>
                <path d="M112.998378,30.4713857 L112.998378,34.3100772 L115.683386,34.3100772 L115.683386,37.3719582 L112.998378,37.3719582 L112.998378,45.1684144 C112.958465,45.6089474 113.077712,46.0492075 113.334717,46.4101772 C113.689838,46.7055336 114.152268,46.841056 114.611663,46.7844071 C115.024226,46.7902934 115.436447,46.7580237 115.843005,46.6880145 L115.843005,49.8462881 C115.021061,50.0974971 114.166084,50.2255353 113.306213,50.2261881 C110.360875,50.2261881 108.859703,48.748169 108.802696,45.7921308 L108.802696,37.3719582 L106.522434,37.3719582 L106.522434,34.3100772 L108.802696,34.3100772 L108.802696,30.4713857 L112.998378,30.4713857 Z" id="Path"></path>
                <path d="M117.604507,30.2672603 C117.586077,29.6871888 117.816077,29.1266021 118.23728,28.7249796 C119.234666,27.922457 120.660286,27.922457 121.657672,28.7249796 C122.511857,29.5842859 122.511857,30.9672452 121.657672,31.8265516 C120.665031,32.6423035 119.229921,32.6423035 118.23728,31.8265516 C117.810921,31.4213521 117.580405,30.8533094 117.604507,30.2672603 L117.604507,30.2672603 Z M122.062419,49.9370104 L117.855336,49.9370104 L117.855336,34.3100772 L122.062419,34.3100772 L122.062419,49.9370104 Z" id="Shape"></path>
                <path d="M124.479497,41.9591095 C124.451281,40.5284059 124.759722,39.1109528 125.3802,37.8199 C125.938476,36.6387266 126.839991,35.6511807 127.968297,34.9848251 C129.165609,34.3156081 130.523189,33.9824387 131.896048,34.0208996 C133.818793,33.9469491 135.690541,34.6458651 137.089345,35.9600909 C138.479945,37.3634222 139.281022,39.240847 139.329702,41.2106497 L139.358205,42.282308 C139.358205,44.6788914 138.685528,46.6010722 137.340174,48.0488505 C134.315038,50.9405935 129.534066,50.9405935 126.50893,48.0488505 C125.155974,46.6010722 124.481397,44.6373103 124.485197,42.1575647 L124.479497,41.9591095 Z M128.675178,42.2596274 C128.59798,43.4522269 128.890471,44.6396763 129.513175,45.6617174 C130.086296,46.4009768 130.971754,46.8339974 131.9103,46.8339974 C132.848846,46.8339974 133.734304,46.4009768 134.307425,45.6617174 C134.877491,44.8830168 135.162523,43.641254 135.162523,41.9364289 C135.237965,40.7417398 134.939222,39.5531647 134.307425,38.5343389 C133.76442,37.7490948 132.853351,37.2970691 131.896048,37.3379373 C130.948376,37.2991786 130.047612,37.749294 129.513175,38.5286688 C128.95451,39.3735211 128.675178,40.6096138 128.675178,42.2766379 L128.675178,42.2596274 Z" id="Shape"></path>
                <path d="M145.207077,34.3100772 L145.338192,36.1131849 C146.419571,34.7369808 148.098149,33.9591013 149.853111,34.0208996 C151.517702,34.0208996 152.760445,34.5085325 153.569938,35.4781281 C154.379431,36.4477238 154.801279,37.9049523 154.818381,39.8441436 L154.818381,49.9370104 L150.622699,49.9370104 L150.622699,39.9405361 C150.688053,39.2490039 150.483991,38.5589076 150.052634,38.0126851 C149.513391,37.5633678 148.81409,37.3506088 148.114411,37.4229896 C147.012661,37.3764459 145.980989,37.9599869 145.457906,38.9255793 L145.457906,49.9370104 L141.262224,49.9370104 L141.262224,34.3100772 L145.207077,34.3100772 Z" id="Path"></path>
                <path d="M166.117079,45.6163562 C166.117715,45.1040037 165.82295,44.636667 165.358892,44.4142844 C164.588824,44.0291847 163.764111,43.7633998 162.913311,43.6261336 C159.173681,42.8436529 157.305767,41.2635711 157.309567,38.8858882 C157.293333,37.5246977 157.928075,36.236754 159.019763,35.4157565 C160.336228,34.4271353 161.96161,33.9330926 163.608791,34.0208996 C165.316382,33.9367434 167.002279,34.4304122 168.39164,35.4214266 C169.54648,36.2743348 170.213752,37.63133 170.181645,39.0616629 L165.985964,39.0616629 C166.004083,38.512127 165.798551,37.9785587 165.415898,37.5817537 C164.911113,37.1570922 164.255568,36.9526917 163.597389,37.0147388 C163.010982,36.9777875 162.430087,37.1463087 161.955601,37.4910313 C161.586253,37.7853542 161.375563,38.2338169 161.385535,38.7044434 C161.378908,39.1748061 161.633047,39.6106327 162.046811,39.8384734 C162.738636,40.2121114 163.491218,40.4616295 164.270066,40.5755929 C165.168088,40.7443427 166.052233,40.9793584 166.91517,41.2786915 C169.130825,42.0838528 170.238652,43.4843798 170.238652,45.4802726 C170.255639,46.869507 169.562122,48.1722373 168.397341,48.9390641 C166.979125,49.8631162 165.301905,50.3139395 163.608791,50.2261881 C162.402773,50.2469231 161.206601,50.0070344 160.102888,49.5230895 C159.141701,49.1176978 158.307128,48.4637928 157.68581,47.6292594 C157.120755,46.8670684 156.815179,45.9453113 156.81361,44.9983099 L160.804068,44.9983099 C160.805869,45.6606951 161.10994,46.2864403 161.630663,46.6993548 C162.235348,47.1127707 162.962005,47.3124305 163.6943,47.2663698 C164.333599,47.311984 164.970808,47.1530375 165.512809,46.8127578 C165.904433,46.5410437 166.131704,46.0910656 166.117079,45.6163562 Z" id="Path"></path>
                <path d="M140.555343,16.868696 C140.555343,14.4305316 141.104506,12.4913403 142.202832,11.0511222 C143.251475,9.62966437 144.94076,8.81821829 146.71205,8.88512494 C148.167893,8.85166476 149.560289,9.47739278 150.497285,10.5861699 L150.497285,2.61393912 L154.710069,2.61393912 L154.710069,24.7955657 L150.919133,24.7955657 L150.71961,23.1342117 C149.764407,24.3879151 148.264798,25.1126399 146.683547,25.0847433 C144.930895,25.132386 143.266555,24.3205665 142.231335,22.9130759 C141.114007,21.4615175 140.555343,19.4467242 140.555343,16.868696 Z M144.751025,17.1805543 C144.6799,18.3532278 144.946895,19.5217208 145.520613,20.5486234 C145.999039,21.3105092 146.853057,21.7569028 147.75527,21.7166742 C148.922583,21.7958728 150.016259,21.1445353 150.497285,20.0836711 L150.497285,13.9088778 C150.029101,12.8501974 148.943868,12.1970992 147.783773,12.2758746 C145.761941,12.2758746 144.751025,13.9107678 144.751025,17.1805543 L144.751025,17.1805543 Z" id="Shape"></path>
                <path d="M88.4171547,3.7706497 L88.4171547,17.6171558 C88.4171547,19.9192367 87.6931716,21.7393548 86.2452053,23.0775102 C84.797239,24.4156656 82.821012,25.0847433 80.3165244,25.0847433 C77.8500411,25.0847433 75.8909161,24.4345661 74.4391494,23.1342117 C72.9873826,21.8338573 72.2462975,20.0477601 72.215894,17.77592 L72.215894,3.7706497 L76.5711942,3.7706497 L76.5711942,17.6455066 C76.5711942,19.021463 76.9018322,20.0250795 77.5631082,20.6563562 C78.3203528,21.3192734 79.3093319,21.6593887 80.3165244,21.6032712 C82.7678059,21.6032712 84.0124489,20.3237074 84.0504532,17.7645797 L84.0504532,3.7706497 L88.4171547,3.7706497 Z" id="Path"></path>
                <polygon id="Path" points="89.6085916 49.9370104 85.2532914 49.9370104 76.7764178 36.1018446 76.7764178 49.9370104 72.398315 49.9370104 72.398315 28.9177647 76.7536152 28.9177647 85.2418901 42.7756111 85.2418901 28.9177647 89.585789 28.9177647"></polygon>
                <path d="M132.996275,25.0847433 C130.95762,25.1764649 128.978719,24.3866592 127.569251,22.918746 C126.195734,21.42215 125.46709,19.4494584 125.539818,17.4243707 L125.539818,16.8573557 C125.454572,14.7789662 126.138037,12.7415606 127.460939,11.1305043 C128.733386,9.63826244 130.625906,8.8121014 132.591528,8.89079509 C134.704571,8.89079509 136.34826,9.52585189 137.522595,10.7959655 C138.696929,12.0660791 139.282197,13.7841345 139.278415,15.9501318 L139.278415,18.2181917 L129.935023,18.2181917 L129.90652,18.303244 C129.944559,19.2409132 130.31166,20.1356971 130.944039,20.8321308 C131.592852,21.5100401 132.506869,21.8724478 133.446626,21.8244071 C134.233227,21.8442826 135.018574,21.7506981 135.778194,21.5465697 C136.485562,21.3202769 137.167554,21.0219579 137.813328,20.6563562 L138.953459,23.258955 C138.202675,23.8415595 137.350477,24.2817157 136.43947,24.5574194 C135.328145,24.9180116 134.165181,25.0961189 132.996275,25.0847433 Z M132.620031,12.1284507 C131.886682,12.1073551 131.190538,12.4493169 130.761618,13.0413448 C130.270797,13.7328486 129.979079,14.5445057 129.917921,15.3887869 L129.963526,15.4624989 L135.156823,15.4624989 L135.156823,15.088269 C135.204427,14.318643 134.98509,13.5560731 134.535451,12.9279418 C134.063174,12.3708662 133.350556,12.0734214 132.620031,12.1284507 L132.620031,12.1284507 Z" id="Shape"></path>
            </g>
        </g>
    </g>
</svg>