<?xml version="1.0" encoding="UTF-8"?>
<svg xmlns="http://www.w3.org/2000/svg" width="443" height="94" viewBox="0 0 443 94" fill="none">
  <path d="M355.633 46.1272C355.633 46.1063 355.612 46.0854 355.612 46.0854C355.485 45.73 355.654 45.3328 355.527 44.9774C355.146 42.3016 354.51 39.6884 353.557 37.1588C352.392 34.0857 350.74 31.3889 348.134 29.2566C345.74 27.3124 342.986 26.2253 339.978 25.6818C339.681 25.5563 339.343 25.6818 339.046 25.5981C339.004 25.5772 338.961 25.5563 338.919 25.5354C334.195 25.3264 329.894 26.6852 325.785 29.1939C325.785 27.7932 325.785 26.6016 325.785 25.4309C325.785 19.7864 325.806 14.142 325.806 8.49753C325.806 6.86691 325.446 6.53242 323.836 6.53242C323.666 6.53242 323.476 6.51152 323.306 6.51152C322.586 6.65786 321.866 6.65786 321.146 6.51152C321.146 6.51152 321.124 6.51152 321.103 6.51152C320.785 6.51152 320.468 6.51152 320.15 6.51152C318.794 6.49061 318.392 6.88781 318.392 8.24667C318.392 8.93654 318.413 9.64733 318.413 10.3372C318.413 29.382 318.413 48.4059 318.413 67.4507C318.413 67.8689 318.455 68.287 318.434 68.7051C318.392 69.3113 318.709 69.5831 319.239 69.6876C321.802 69.813 324.365 69.6876 326.929 69.7503C328.051 69.7712 329.174 69.6249 330.276 69.834C331.737 69.834 333.199 69.834 334.661 69.834C334.767 69.813 334.894 69.7921 335 69.7712C336.228 69.604 337.478 69.834 338.707 69.6667C343.495 69.1232 347.35 66.9908 350.273 63.1651C353.133 59.4022 354.828 55.2211 355.506 50.5801C355.633 50.2456 355.506 49.8693 355.591 49.5139C355.612 49.4512 355.633 49.3885 355.675 49.3258C355.675 48.3014 355.675 47.2561 355.675 46.2318C355.654 46.19 355.654 46.1481 355.633 46.1272ZM345.274 58.2524C343.05 62.2662 339.215 64.0432 334.64 64.1686C332.204 64.2313 329.767 64.1895 327.331 64.1895C326.124 64.1895 325.785 63.8341 325.785 62.6007C325.785 58.3987 325.785 54.1758 325.785 49.9738H325.806C325.806 45.8764 325.827 41.758 325.785 37.6606C325.764 35.9463 326.484 34.6711 327.861 33.6676C333.496 29.5911 341.588 30.9917 345.105 36.9916C349.193 43.9322 349.172 51.2073 345.274 58.2524Z" fill="#096BD8"></path>
  <path d="M156.237 44.9401C156.216 44.9192 156.216 44.8773 156.195 44.8564V44.8355C156.09 44.5214 156.216 44.1864 156.111 43.8724C155.943 42.993 155.818 42.1137 155.629 41.2344C154.54 36.3562 152.09 32.3364 148.09 29.3424C145.241 27.2069 141.953 26.0973 138.456 25.5948C138.141 25.4901 137.806 25.6157 137.492 25.5111C137.471 25.5111 137.471 25.5111 137.45 25.4901C137.429 25.4901 137.408 25.4692 137.387 25.4482C136.508 25.4482 135.628 25.4482 134.728 25.4482C134.686 25.4692 134.665 25.4901 134.623 25.4901C134.602 25.5111 134.581 25.5111 134.539 25.5111C134.183 25.6157 133.806 25.4692 133.45 25.5948C132.57 25.7623 131.67 25.8879 130.811 26.0973C125.785 27.2907 121.617 29.803 118.622 34.0741C116.444 37.2146 115.271 40.711 114.957 44.5005C114.831 44.8564 114.999 45.2542 114.873 45.6101C114.873 45.6311 114.852 45.652 114.852 45.652C114.831 45.6939 114.831 45.7148 114.81 45.7567C114.81 46.5732 114.81 47.3897 114.81 48.2272C114.852 48.3109 114.873 48.4156 114.894 48.4994C114.978 49.0437 114.831 49.5881 114.978 50.1324C115.145 50.9489 115.124 51.7655 115.229 52.582C115.816 56.7483 117.407 60.475 120.235 63.6155C123.376 67.1119 127.272 69.1846 131.984 69.6662C132.277 69.7918 132.612 69.6662 132.927 69.7709C132.968 69.7918 133.01 69.8127 133.052 69.8337C134.434 69.8337 135.817 69.8337 137.178 69.8337C137.199 69.8127 137.241 69.7918 137.262 69.7918C137.283 69.7709 137.304 69.7709 137.325 69.7709C137.618 69.6871 137.932 69.8127 138.225 69.708C139.356 69.5824 140.445 69.3731 141.534 69.0381C147.042 67.3632 151.126 64.0343 153.765 58.9048C155.043 56.4134 155.546 53.7125 156.069 51.0117C156.216 50.6558 156.048 50.279 156.153 49.923V49.9021C156.153 49.8812 156.153 49.8812 156.174 49.8602C156.195 49.8184 156.195 49.7974 156.216 49.7555C156.237 48.1225 156.237 46.5313 156.237 44.9401ZM144.425 60.2657C139.482 66.086 130.727 65.8139 126.057 59.7423C123.648 56.6227 122.538 53.0426 122.35 49.1693C122.141 45.0239 122.748 41.046 124.863 37.3821C127.314 33.0901 131 30.9545 135.942 31.0174C140.78 31.0802 144.068 33.5507 146.309 37.6333C148.006 40.7319 148.739 44.0608 148.739 48.4156C148.676 52.2679 147.545 56.6018 144.425 60.2657Z" fill="#096BD8"></path>
  <path d="M305.964 62.0287C305.943 61.9033 305.922 61.7988 305.922 61.6734C305.922 61.6316 305.922 61.6107 305.902 61.5689C305.757 60.1266 305.964 58.6633 305.819 57.2001C305.798 55.6742 305.778 54.1483 305.757 52.6223C305.716 52.4133 305.695 52.2043 305.674 51.9952C305.571 50.8038 305.757 49.6123 305.612 48.4208C305.592 47.1039 305.571 45.7661 305.55 44.4492C305.509 44.282 305.488 44.1357 305.467 43.9684C305.364 42.9442 305.55 41.9199 305.385 40.8957C305.364 40.4149 305.343 39.9132 305.323 39.4324C305.281 39.3906 305.261 39.3279 305.261 39.2861C305.178 38.9935 305.302 38.6799 305.178 38.3873C305.095 37.9901 305.013 37.5721 304.93 37.1749C304.124 33.2033 302.367 29.8379 298.79 27.7058C296.661 26.4307 294.263 26.0335 291.885 25.5946C291.534 25.4482 291.141 25.5946 290.79 25.511C290.769 25.511 290.728 25.49 290.707 25.49C290.666 25.49 290.645 25.4691 290.604 25.4482C289.673 25.4482 288.722 25.4482 287.792 25.4482C287.73 25.4691 287.668 25.511 287.627 25.511C287.627 25.511 287.627 25.511 287.606 25.511C287.255 25.5946 286.882 25.4482 286.531 25.5946C283.306 26.0335 280.205 26.9324 277.269 28.4165C276.174 28.9809 276.05 29.378 276.38 30.5695C276.587 31.322 276.959 32.0327 277.125 32.7643C277.393 33.914 277.869 33.7468 278.675 33.3287C281.239 31.9909 283.967 31.2175 286.862 31.0294C287.916 30.8831 288.97 30.8622 290.025 31.0294H290.045C291.265 31.1339 292.423 31.4265 293.518 31.97C296.413 33.3914 297.632 35.9207 298.087 38.9726C298.108 38.9935 298.108 39.0144 298.108 39.0144C298.273 39.3279 298.087 39.7042 298.232 40.0177C298.232 40.8121 298.273 41.6482 297.26 41.9199C296.867 42.1499 296.413 41.9199 296.02 42.0871C295.4 42.108 294.8 42.129 294.18 42.1499C294.118 42.1708 294.077 42.1917 294.015 42.2126C293.58 42.3171 293.126 42.1708 292.712 42.2962C292.299 42.3171 291.906 42.338 291.492 42.3589C291.472 42.3798 291.43 42.4007 291.41 42.4007C291.41 42.4007 291.41 42.4007 291.389 42.4007C291.079 42.5261 290.728 42.3589 290.438 42.5052C288.784 42.7979 287.11 43.0069 285.497 43.4249C281.569 44.4074 278.076 46.1005 275.471 49.4451C272.783 52.8732 272.37 56.6984 273.218 60.7537C273.838 63.7428 275.305 66.293 277.993 67.8607C280.04 69.0522 282.293 69.6584 284.67 69.7629C285.621 69.8465 286.593 69.8674 287.544 69.7629C291.43 69.3867 294.573 67.5054 297.281 64.788C297.529 64.5371 297.674 64.2236 297.818 63.91C297.922 63.6801 297.88 63.1993 298.211 63.3247C298.48 63.4293 298.997 63.5756 298.914 64.0773C298.79 64.8925 299.142 65.6241 299.142 66.4393C299.142 68.446 299.452 68.7805 301.188 68.9268C302.222 68.9895 303.235 69.0313 304.268 68.9059C305.674 68.7805 305.922 68.5087 305.922 67.1291C305.964 65.436 305.964 63.7428 305.964 62.0287ZM298.232 56.1759C297.157 61.4017 291.947 65.0388 286.696 64.4117C283.657 64.0354 281.487 62.6976 280.639 59.6249C279.295 54.7126 281.218 50.7829 285.869 48.7762C288.143 47.7937 290.562 47.4593 293.002 47.1875C294.263 47.0412 295.544 47.0203 296.805 46.9785C298.046 46.9367 298.356 47.2711 298.356 48.4835C298.356 49.5914 298.356 50.7201 298.356 51.828C298.356 53.2494 298.542 54.7335 298.232 56.1759Z" fill="#096BD8"></path>
  <path d="M240.806 44.9376C240.64 42.842 240.432 40.7254 239.911 38.6717C238.912 34.7947 237.101 31.3789 233.875 28.8851C231.523 27.0619 228.838 26.1188 225.966 25.5949C225.675 25.4692 225.363 25.6159 225.071 25.5111C225.071 25.5111 225.071 25.5111 225.05 25.5111C225.009 25.4902 224.967 25.4692 224.905 25.4482C223.947 25.4482 222.99 25.4482 222.032 25.4482C222.012 25.4692 221.97 25.4902 221.949 25.4902C221.928 25.4902 221.907 25.5111 221.887 25.5111C221.595 25.5949 221.283 25.4692 220.992 25.5949C220.471 25.6788 219.972 25.7835 219.472 25.8674C213.873 26.9781 209.669 30.1425 206.88 35.0672C205.173 38.0849 204.174 41.4169 203.883 44.9376C203.758 45.231 203.883 45.5872 203.779 45.8806C203.779 45.9016 203.779 45.9016 203.758 45.9225C203.758 45.9435 203.737 45.9854 203.716 46.0064C203.696 46.5512 203.675 47.1171 203.654 47.6619C203.55 48.3535 203.571 49.045 203.633 49.7366C203.696 52.4819 204.195 55.1433 205.194 57.7209C206.38 60.7596 208.066 63.463 210.564 65.5167C213.686 68.0943 217.349 69.4355 221.387 69.687C221.803 69.8337 222.241 69.666 222.657 69.7708H222.678C222.698 69.7708 222.719 69.7708 222.74 69.7918C222.782 69.8127 222.823 69.8127 222.865 69.8337H227.819C227.881 69.7918 227.943 69.7708 227.985 69.7708C227.985 69.7708 227.985 69.7708 228.006 69.7708C228.36 69.687 228.734 69.8337 229.067 69.687C231.648 69.5193 234.083 68.7439 236.519 67.9476C237.684 67.5704 238.08 66.7741 237.872 65.5586C237.726 64.7413 237.455 63.9659 237.31 63.1486C237.143 62.2685 236.831 62.2056 236.04 62.478C233.73 63.2534 231.399 63.945 228.922 63.9869C228.901 64.0078 228.88 64.0078 228.859 64.0078C228.464 64.1755 228.027 63.9869 227.631 64.1336C226.299 64.2383 224.988 64.2383 223.656 64.1336C223.364 63.9869 223.011 64.1545 222.719 64.0288H222.698C222.678 64.0078 222.636 64.0078 222.615 63.9869C222.365 63.9869 222.136 64.0288 221.887 63.9659C218.432 63.2324 215.58 61.535 213.436 58.7059C212.042 56.8617 211.084 54.8499 210.96 52.4819C210.96 52.4609 210.939 52.4399 210.939 52.4399C210.772 52.1256 210.96 51.7484 210.814 51.4131C210.71 49.6528 210.876 49.3384 211.959 49.066C212.167 48.9822 212.375 48.9612 212.583 48.9612C212.749 48.9612 212.916 48.9822 213.103 48.9822C221.595 48.9822 230.087 48.9822 238.579 48.9822C238.954 48.9822 239.349 49.045 239.724 48.9193C240.286 48.6469 240.661 48.2277 240.827 47.599C240.89 46.7398 240.869 45.8387 240.806 44.9376ZM212.583 43.8269C211.126 43.8898 210.71 43.4497 211.001 42.1295C211.771 38.5878 213.041 35.2558 216.059 33.0344C222.615 28.2145 232.044 30.7292 233.48 40.3272C233.584 40.9559 233.646 41.5636 233.667 42.1923C233.73 43.4497 233.376 43.8269 232.106 43.8479C229.921 43.8688 227.735 43.8479 225.03 43.8479C221.241 43.9526 216.912 43.6593 212.583 43.8269Z" fill="#096BD8"></path>
  <path d="M163.84 26.6793C164.82 26.6793 165.779 26.6793 166.759 26.6793C167.781 26.6793 168.427 27.2003 168.781 28.159C170.928 34.0779 173.076 39.9759 175.202 45.8948C176.745 50.188 178.288 54.5022 179.81 58.7954C179.872 58.983 179.955 59.1914 180.081 59.3581C180.247 59.6082 180.289 60.0251 180.685 59.9625C180.977 59.9208 180.998 59.5457 181.081 59.2956C183.02 53.5018 184.959 47.708 186.898 41.8933C188.378 37.4333 189.837 32.9733 191.297 28.5133C191.839 26.846 192.13 26.6584 193.882 26.6584C195.403 26.6584 196.946 26.721 198.468 26.6376C199.51 26.5751 199.573 27.0753 199.302 27.8255C198.593 29.7012 197.884 31.5561 197.155 33.411C192.547 45.1445 187.961 56.8989 183.354 68.6324C181.269 73.9469 178.475 78.8446 174.306 82.8461C171.992 85.0761 169.302 86.7225 166.3 87.8896C164.841 88.4732 164.299 88.2231 163.903 86.7225C163.59 85.5763 162.944 84.5342 162.923 83.3046C162.902 82.4709 163.236 81.9082 163.965 81.5956C167.03 80.2618 169.636 78.2819 171.846 75.7809C173.493 73.9261 174.89 71.9045 175.848 69.5911C176.745 67.4028 175.807 65.4021 175.015 63.4222C173.43 59.4832 171.825 55.5442 170.22 51.6261C168.594 47.6246 166.947 43.6023 165.341 39.6008C163.715 35.5576 162.11 31.4936 160.505 27.4504C160.317 26.9502 160.234 26.5751 161.047 26.6584C161.964 26.7418 162.902 26.6584 163.84 26.6793Z" fill="#096BD8"></path>
  <path d="M380.734 25.5739C382.952 26.0139 385.15 26.5167 387.222 27.4805C388.01 27.8576 388.321 28.3395 388.01 29.1985C387.595 30.3298 387.139 31.4612 386.829 32.6135C386.6 33.4516 386.331 33.2211 385.792 32.9487C383.761 31.9431 381.626 31.2098 379.346 31.0422C378.848 30.8955 378.33 30.8955 377.832 31.0422C375.221 31.1679 372.899 31.9012 371.427 34.3106C370.018 36.5942 370.785 39.674 372.713 41.1825C374.972 42.9424 377.646 43.8224 380.154 45.0794C382.33 46.1689 384.59 47.0698 386.435 48.7459C388.445 50.5686 389.544 52.9151 389.938 55.5969C390.021 56.5606 390.021 57.5453 389.938 58.5091C389.42 62.7203 387.367 65.9258 383.595 67.8533C381.833 68.7751 379.885 69.2151 377.936 69.5922C375.925 69.9693 373.894 69.7808 371.883 69.8227C371.552 69.5922 371.158 69.8227 370.826 69.6551C368.463 69.4246 366.204 68.7123 364.007 67.8533C362.701 67.3295 362.556 66.8895 363.012 65.5696C363.364 64.543 363.675 63.4745 364.007 62.4479C364.193 61.8822 364.38 61.526 365.105 61.9241C367.199 63.0555 369.417 63.8307 371.738 64.2916C372.402 64.4173 373.024 64.4173 373.687 64.4173C374.184 64.5639 374.682 64.5849 375.179 64.4173C378.04 64.3963 380.382 63.3697 382.04 60.9394C382.559 60.1642 382.745 59.2843 382.849 58.3624C383.014 58.0063 382.994 57.6501 382.849 57.273C382.558 54.4655 380.797 52.7894 378.475 51.6371C375.822 50.3172 373.086 49.1649 370.433 47.824C367.717 46.4622 365.52 44.5137 364.359 41.6015C363.489 39.4017 363.551 37.0971 364.11 34.8343C365.333 29.9318 368.774 27.3757 373.376 26.1396C374.246 25.9092 375.117 25.7835 375.988 25.5949C376.319 25.4692 376.713 25.6578 377.045 25.4482C377.853 25.4482 378.662 25.4482 379.47 25.4482C379.885 25.6368 380.341 25.3854 380.734 25.5739Z" fill="#096BD8"></path>
  <path d="M258.355 58.9501C258.376 60.6035 258.774 62.0686 260.39 62.9058C260.725 63.0732 261.082 63.1779 261.48 63.136C262.194 63.2825 262.928 63.3034 263.641 63.136C264.9 63.136 266.074 62.6755 267.291 62.4035C267.983 62.236 268.382 62.2779 268.487 63.136C268.655 64.3918 269.011 65.6057 269.242 66.8615C269.41 67.7824 268.843 68.3056 268.046 68.5358C266.452 68.9963 264.858 69.4567 263.201 69.687C262.865 69.8335 262.466 69.6242 262.152 69.8335C261.25 69.8335 260.348 69.8335 259.467 69.8335C259.131 69.6033 258.732 69.8335 258.397 69.666C254.516 69.3312 251.139 66.5894 250.992 61.6709C250.908 61.3988 250.929 61.1268 250.929 60.8337C250.929 42.7296 250.929 24.6464 250.929 6.54222C250.929 6.29106 250.908 6.06084 250.971 5.80968C251.076 5.01435 251.516 4.67948 252.313 4.74227C253.761 4.84692 255.208 4.86785 256.656 4.74227C257.39 4.67948 257.83 5.05621 258.208 5.60038C258.334 6.01898 258.271 6.43757 258.271 6.85616C258.271 23.8301 258.271 40.7831 258.271 57.7571C258.271 58.1129 258.166 58.5315 258.355 58.9501Z" fill="#096BD8"></path>
  <path d="M0.0654129 47.929C0.0872172 47.3603 0.109021 46.7698 0.130826 46.2011C0.348869 45.8512 0.15263 45.4575 0.283456 45.1076C0.697737 40.099 2.13682 35.3748 4.20823 30.8474C5.5819 27.8728 7.50068 25.2701 9.6375 22.7987C10.0518 22.3175 10.3134 22.4706 10.7059 22.7549C12.1232 23.8266 13.5623 24.8983 15.0232 25.9044C15.5901 26.2981 15.5901 26.5606 15.1758 27.0855C12.6901 30.2568 10.7059 33.7125 9.31043 37.4963C4.14281 51.4722 8.52548 69.2537 21.9351 78.8334C38.55 90.6877 61.0302 86.7509 72.7173 69.7567C73.2624 68.9694 73.5677 68.8381 74.3526 69.4943C75.5519 70.5222 76.8601 71.419 78.1902 72.2938C78.8007 72.6875 78.8443 72.9937 78.4736 73.5624C76.5112 76.6681 74.2218 79.4895 71.4745 81.9391C68.2474 84.8043 64.7151 87.1446 60.834 88.9599C57.4107 90.5784 53.8348 91.7376 50.0844 92.3281C49.4739 92.4156 48.8852 92.5249 48.2747 92.6124C47.9258 92.7655 47.5115 92.5468 47.1845 92.7874C46.8138 92.8093 46.4649 92.8093 46.0943 92.8311C44.0665 92.9405 42.0387 92.9405 40.0109 92.8311C34.3854 92.6124 29.0651 91.0377 24.0283 88.6537C21.2156 87.3195 18.6209 85.5479 16.1352 83.6232C12.0796 80.4519 8.85254 76.5806 6.19242 72.2501C3.77214 68.2913 2.07141 64.0045 1.0248 59.4771C0.654129 57.9024 0.392477 56.3276 0.283456 54.731C0.130826 54.3592 0.327064 53.9655 0.130826 53.5937C0.109021 53.025 0.0872172 52.4564 0.0654129 51.8877C-0.0218043 50.5317 -0.0218043 49.2413 0.0654129 47.929Z" fill="#096BD8"></path>
  <path d="M79.1069 47.5885C78.4353 52.881 76.9619 57.9121 74.4702 62.6383C73.4518 64.5767 72.3468 66.4933 71.0684 68.2792C70.2234 69.4335 69.5734 69.5207 68.425 68.693C67.255 67.8436 66.1066 66.9724 64.8932 66.1666C64.2865 65.7528 64.2865 65.4696 64.6982 64.9034C67.7316 60.6999 70.0284 56.1262 71.2417 51.0515C74.5785 37.1561 68.88 22.1717 57.0497 13.6994C40.9509 2.15619 18.1136 6.38144 6.97664 22.9558C5.84994 24.6546 5.84994 24.6328 4.2249 23.4785C3.35821 22.8686 2.46985 22.2806 1.58149 21.7143C0.584799 21.0827 0.303125 20.2986 0.909808 19.2532C1.7115 17.8593 2.79486 16.6397 3.74822 15.3547C4.83158 13.8954 6.19662 12.7193 7.47499 11.4561C10.7467 8.21093 14.5385 5.70627 18.742 3.83322C22.5987 2.11263 26.6288 1.04542 30.789 0.392034C31.8507 0.239576 32.934 0.174237 34.0174 0.065339C35.8158 -0.0217797 37.6141 -0.0217797 39.4125 0.065339C39.8459 0.0871186 40.2792 0.108898 40.7126 0.130678C41.0376 0.370254 41.4492 0.152458 41.7959 0.283136C46.7794 1.02364 51.5679 2.3522 56.053 4.70441C63.7665 8.73364 69.7684 14.5488 73.9501 22.2588C76.5719 27.1157 78.2403 32.2557 78.8903 37.7441C78.9336 38.2015 79.0636 38.6589 79.1503 39.1163C79.3019 39.5301 79.0636 40.0092 79.302 40.423C79.302 42.3832 79.302 44.3216 79.302 46.2818C79.0203 46.6956 79.2586 47.153 79.1069 47.5885Z" fill="#096BD8"></path>
  <path d="M42.1621 82.2604C26.5076 82.1511 13.2581 70.9391 10.5251 55.5308C8.12005 41.9146 15.2477 27.6428 27.4696 21.545C28.1911 21.1953 28.5628 21.1516 29.0001 21.9384C29.7872 23.3809 30.6399 24.7797 31.5581 26.1347C31.9954 26.7904 31.8642 27.0527 31.2083 27.4242C27.0105 29.6972 23.4248 32.6696 20.8886 36.7785C18.571 40.5158 17.4997 44.6029 17.1936 48.974C16.2971 61.8908 26.5076 73.6711 39.2542 75.1136C45.9665 75.8785 51.9353 74.1519 57.3794 70.3272C58.1446 69.7808 58.5382 69.737 59.0192 70.6331C59.6533 71.8133 60.4185 72.928 61.1181 74.0863C61.8178 75.2447 61.6866 75.8348 60.5497 76.6435C57.773 78.6105 54.7339 80.053 51.4324 80.9928C48.4152 81.8233 45.3324 82.2823 42.1621 82.2604Z" fill="#096BD8"></path>
  <path d="M36.8104 17.6403C30.646 17.5756 25.5925 19.4937 21.1053 22.9205C20.4083 23.4378 20.1251 23.4378 19.6677 22.6835C18.7746 21.2395 17.7944 19.7955 16.8142 18.373C16.4875 17.8989 16.4439 17.6403 16.9667 17.2739C23.0875 13.0066 29.7747 10.3556 37.3768 10.6789C54.8462 11.4332 66.0424 23.6964 68.2642 37.6191C70.29 50.3995 64.1909 63.1584 53.169 69.5809C51.0779 70.8094 51.0779 70.8094 49.771 68.8266C49.0957 67.7921 48.4858 66.736 47.767 65.7662C47.3095 65.1627 47.4838 64.9256 48.0719 64.6024C52.2541 62.2747 55.8265 59.279 58.2225 55.0979C67.8286 38.4812 56.5235 20.2481 40.753 17.942C39.2936 17.748 37.856 17.5756 36.8104 17.6403Z" fill="#096BD8"></path>
  <path d="M195.148 90V78.3636H199.511C200.405 78.3636 201.155 78.5189 201.761 78.8295C202.371 79.1402 202.831 79.5758 203.142 80.1364C203.456 80.6932 203.614 81.3428 203.614 82.0852C203.614 82.8314 203.455 83.4792 203.136 84.0284C202.822 84.5739 202.358 84.9962 201.744 85.2955C201.131 85.5909 200.377 85.7386 199.483 85.7386H196.375V83.9886H199.199C199.722 83.9886 200.15 83.9167 200.483 83.7727C200.816 83.625 201.063 83.411 201.222 83.1307C201.384 82.8466 201.466 82.4981 201.466 82.0852C201.466 81.6723 201.384 81.3201 201.222 81.0284C201.059 80.733 200.811 80.5095 200.477 80.358C200.144 80.2027 199.714 80.125 199.188 80.125H197.256V90H195.148ZM201.159 84.7273L204.04 90H201.688L198.858 84.7273H201.159ZM207.974 90.1761C207.421 90.1761 206.923 90.0777 206.48 89.8807C206.041 89.6799 205.692 89.3845 205.435 88.9943C205.181 88.6042 205.054 88.1231 205.054 87.5511C205.054 87.0587 205.145 86.6515 205.327 86.3295C205.509 86.0076 205.757 85.75 206.071 85.5568C206.385 85.3636 206.74 85.2178 207.134 85.1193C207.531 85.017 207.942 84.9432 208.366 84.8977C208.878 84.8447 209.293 84.7973 209.611 84.7557C209.929 84.7102 210.16 84.642 210.304 84.5511C210.452 84.4564 210.526 84.3106 210.526 84.1136V84.0795C210.526 83.6515 210.399 83.3201 210.145 83.0852C209.891 82.8504 209.526 82.733 209.048 82.733C208.545 82.733 208.145 82.8428 207.849 83.0625C207.558 83.2822 207.361 83.5417 207.259 83.8409L205.338 83.5682C205.49 83.0379 205.74 82.5947 206.088 82.2386C206.437 81.8788 206.863 81.6098 207.366 81.4318C207.87 81.25 208.427 81.1591 209.037 81.1591C209.457 81.1591 209.876 81.2083 210.293 81.3068C210.709 81.4053 211.09 81.5682 211.435 81.7955C211.779 82.0189 212.056 82.3239 212.264 82.7102C212.476 83.0966 212.582 83.5795 212.582 84.1591V90H210.605V88.8011H210.537C210.412 89.0436 210.236 89.2708 210.009 89.483C209.785 89.6913 209.503 89.8598 209.162 89.9886C208.825 90.1136 208.429 90.1761 207.974 90.1761ZM208.509 88.6648C208.921 88.6648 209.279 88.5833 209.582 88.4205C209.885 88.2538 210.118 88.0341 210.281 87.7614C210.448 87.4886 210.531 87.1913 210.531 86.8693V85.8409C210.467 85.8939 210.357 85.9432 210.202 85.9886C210.05 86.0341 209.88 86.0739 209.69 86.108C209.501 86.142 209.313 86.1723 209.128 86.1989C208.942 86.2254 208.781 86.2481 208.645 86.267C208.338 86.3087 208.063 86.3769 207.821 86.4716C207.579 86.5663 207.387 86.6989 207.247 86.8693C207.107 87.036 207.037 87.2519 207.037 87.517C207.037 87.8958 207.175 88.1818 207.452 88.375C207.728 88.5682 208.08 88.6648 208.509 88.6648ZM219.009 81.2727V82.8636H213.991V81.2727H219.009ZM215.23 79.1818H217.287V87.375C217.287 87.6515 217.329 87.8636 217.412 88.0114C217.499 88.1553 217.613 88.2538 217.753 88.3068C217.893 88.3598 218.048 88.3864 218.219 88.3864C218.348 88.3864 218.465 88.3769 218.571 88.358C218.681 88.339 218.764 88.322 218.821 88.3068L219.168 89.9148C219.058 89.9527 218.901 89.9943 218.696 90.0398C218.495 90.0852 218.249 90.1117 217.957 90.1193C217.442 90.1345 216.978 90.0568 216.565 89.8864C216.152 89.7121 215.825 89.4432 215.582 89.0795C215.344 88.7159 215.226 88.2614 215.23 87.7159V79.1818ZM224.499 90.1705C223.624 90.1705 222.868 89.9886 222.232 89.625C221.599 89.2576 221.112 88.7386 220.771 88.0682C220.43 87.3939 220.26 86.6004 220.26 85.6875C220.26 84.7898 220.43 84.0019 220.771 83.3239C221.116 82.642 221.597 82.1117 222.214 81.733C222.832 81.3504 223.557 81.1591 224.391 81.1591C224.929 81.1591 225.436 81.2462 225.913 81.4205C226.394 81.5909 226.819 81.8561 227.186 82.2159C227.557 82.5758 227.849 83.0341 228.061 83.5909C228.273 84.1439 228.379 84.803 228.379 85.5682V86.1989H221.226V84.8125H226.408C226.404 84.4186 226.319 84.0682 226.152 83.7614C225.985 83.4508 225.752 83.2064 225.453 83.0284C225.158 82.8504 224.813 82.7614 224.419 82.7614C223.999 82.7614 223.629 82.8636 223.311 83.0682C222.993 83.2689 222.745 83.5341 222.567 83.8636C222.393 84.1894 222.304 84.5473 222.3 84.9375V86.1477C222.3 86.6553 222.393 87.0909 222.578 87.4545C222.764 87.8144 223.023 88.0909 223.357 88.2841C223.69 88.4735 224.08 88.5682 224.527 88.5682C224.826 88.5682 225.097 88.5265 225.339 88.4432C225.582 88.3561 225.792 88.2292 225.97 88.0625C226.148 87.8958 226.283 87.6894 226.374 87.4432L228.294 87.6591C228.173 88.1667 227.942 88.6098 227.601 88.9886C227.264 89.3636 226.832 89.6553 226.305 89.8636C225.779 90.0682 225.177 90.1705 224.499 90.1705ZM233.358 90.1534C232.672 90.1534 232.059 89.9773 231.517 89.625C230.975 89.2727 230.547 88.7614 230.233 88.0909C229.919 87.4205 229.761 86.6061 229.761 85.6477C229.761 84.678 229.92 83.8598 230.239 83.1932C230.561 82.5227 230.994 82.017 231.54 81.6761C232.085 81.3314 232.693 81.1591 233.364 81.1591C233.875 81.1591 234.295 81.2462 234.625 81.4205C234.955 81.5909 235.216 81.7973 235.409 82.0398C235.602 82.2784 235.752 82.5038 235.858 82.7159H235.943V78.3636H238.006V90H235.983V88.625H235.858C235.752 88.8371 235.598 89.0625 235.398 89.3011C235.197 89.536 234.932 89.7367 234.602 89.9034C234.273 90.0701 233.858 90.1534 233.358 90.1534ZM233.932 88.4659C234.367 88.4659 234.739 88.3485 235.045 88.1136C235.352 87.875 235.585 87.5436 235.744 87.1193C235.903 86.6951 235.983 86.2008 235.983 85.6364C235.983 85.072 235.903 84.5814 235.744 84.1648C235.589 83.7481 235.358 83.4242 235.051 83.1932C234.748 82.9621 234.375 82.8466 233.932 82.8466C233.473 82.8466 233.091 82.9659 232.784 83.2045C232.477 83.4432 232.246 83.7727 232.091 84.1932C231.936 84.6136 231.858 85.0947 231.858 85.6364C231.858 86.1818 231.936 86.6686 232.091 87.0966C232.25 87.5208 232.483 87.8561 232.79 88.1023C233.1 88.3447 233.481 88.4659 233.932 88.4659ZM243.933 87.8409V86.1648L248.871 78.3636H250.268V80.75H249.416L246.092 86.017V86.108H252.984V87.8409H243.933ZM249.484 90V87.3295L249.507 86.5795V78.3636H251.496V90H249.484ZM255.761 90.125C255.417 90.125 255.121 90.0038 254.875 89.7614C254.629 89.5189 254.508 89.2235 254.511 88.875C254.508 88.5341 254.629 88.2424 254.875 88C255.121 87.7576 255.417 87.6364 255.761 87.6364C256.095 87.6364 256.384 87.7576 256.631 88C256.881 88.2424 257.008 88.5341 257.011 88.875C257.008 89.1061 256.947 89.3163 256.83 89.5057C256.716 89.6951 256.564 89.8466 256.375 89.9602C256.189 90.0701 255.985 90.125 255.761 90.125ZM262.811 90.1591C261.966 90.1591 261.216 90.017 260.561 89.733C259.91 89.4489 259.398 89.0606 259.027 88.5682C258.66 88.072 258.478 87.5095 258.482 86.8807C258.478 86.392 258.584 85.9432 258.8 85.5341C259.016 85.125 259.307 84.7841 259.675 84.5114C260.046 84.2348 260.459 84.0587 260.913 83.983V83.9034C260.315 83.7708 259.83 83.4659 259.459 82.9886C259.091 82.5076 258.91 81.9527 258.913 81.3239C258.91 80.7254 259.076 80.1913 259.413 79.7216C259.75 79.2519 260.213 78.8826 260.8 78.6136C261.387 78.3409 262.057 78.2045 262.811 78.2045C263.557 78.2045 264.222 78.3409 264.805 78.6136C265.393 78.8826 265.855 79.2519 266.192 79.7216C266.533 80.1913 266.703 80.7254 266.703 81.3239C266.703 81.9527 266.516 82.5076 266.141 82.9886C265.769 83.4659 265.29 83.7708 264.703 83.9034V83.983C265.158 84.0587 265.567 84.2348 265.93 84.5114C266.298 84.7841 266.589 85.125 266.805 85.5341C267.025 85.9432 267.135 86.392 267.135 86.8807C267.135 87.5095 266.949 88.072 266.578 88.5682C266.207 89.0606 265.696 89.4489 265.044 89.733C264.396 90.017 263.652 90.1591 262.811 90.1591ZM262.811 88.5341C263.247 88.5341 263.625 88.4602 263.947 88.3125C264.269 88.161 264.519 87.9489 264.697 87.6761C264.875 87.4034 264.966 87.089 264.97 86.733C264.966 86.3617 264.87 86.0341 264.68 85.75C264.495 85.4621 264.239 85.2367 263.913 85.0739C263.591 84.911 263.224 84.8295 262.811 84.8295C262.394 84.8295 262.023 84.911 261.697 85.0739C261.372 85.2367 261.114 85.4621 260.925 85.75C260.739 86.0341 260.648 86.3617 260.652 86.733C260.648 87.089 260.735 87.4034 260.913 87.6761C261.091 87.9451 261.341 88.1553 261.663 88.3068C261.989 88.4583 262.372 88.5341 262.811 88.5341ZM262.811 83.233C263.167 83.233 263.482 83.161 263.754 83.017C264.031 82.8731 264.249 82.6723 264.408 82.4148C264.567 82.1572 264.648 81.8598 264.652 81.5227C264.648 81.1894 264.569 80.8977 264.413 80.6477C264.258 80.3939 264.042 80.1989 263.766 80.0625C263.489 79.9223 263.171 79.8523 262.811 79.8523C262.444 79.8523 262.12 79.9223 261.839 80.0625C261.563 80.1989 261.347 80.3939 261.192 80.6477C261.04 80.8977 260.966 81.1894 260.97 81.5227C260.966 81.8598 261.042 82.1572 261.197 82.4148C261.357 82.6686 261.574 82.8693 261.851 83.017C262.131 83.161 262.451 83.233 262.811 83.233ZM273.776 77.8182L270.026 91.75H268.224L271.974 77.8182H273.776ZM279.111 90.1591C278.353 90.1591 277.675 90.017 277.077 89.733C276.478 89.4451 276.003 89.0511 275.651 88.5511C275.302 88.0511 275.116 87.4792 275.094 86.8352H277.139C277.177 87.3125 277.384 87.7027 277.759 88.0057C278.134 88.3049 278.584 88.4545 279.111 88.4545C279.524 88.4545 279.891 88.3598 280.213 88.1705C280.535 87.9811 280.789 87.7178 280.974 87.3807C281.16 87.0436 281.251 86.6591 281.247 86.2273C281.251 85.7879 281.158 85.3977 280.969 85.0568C280.779 84.7159 280.52 84.4489 280.19 84.2557C279.861 84.0587 279.482 83.9602 279.054 83.9602C278.705 83.9564 278.363 84.0208 278.026 84.1534C277.688 84.286 277.421 84.4602 277.224 84.6761L275.321 84.3636L275.929 78.3636H282.679V80.125H277.673L277.338 83.2102H277.406C277.622 82.9564 277.927 82.7462 278.321 82.5795C278.715 82.4091 279.147 82.3239 279.616 82.3239C280.321 82.3239 280.95 82.4905 281.503 82.8239C282.056 83.1534 282.491 83.608 282.81 84.1875C283.128 84.767 283.287 85.4299 283.287 86.1761C283.287 86.9451 283.109 87.6307 282.753 88.233C282.401 88.8314 281.91 89.303 281.281 89.6477C280.656 89.9886 279.933 90.1591 279.111 90.1591ZM289.273 90V78.3636H291.33V82.7159H291.415C291.521 82.5038 291.67 82.2784 291.864 82.0398C292.057 81.7973 292.318 81.5909 292.648 81.4205C292.977 81.2462 293.398 81.1591 293.909 81.1591C294.583 81.1591 295.191 81.3314 295.733 81.6761C296.278 82.017 296.71 82.5227 297.028 83.1932C297.35 83.8598 297.511 84.678 297.511 85.6477C297.511 86.6061 297.354 87.4205 297.04 88.0909C296.725 88.7614 296.297 89.2727 295.756 89.625C295.214 89.9773 294.6 90.1534 293.915 90.1534C293.415 90.1534 293 90.0701 292.67 89.9034C292.341 89.7367 292.076 89.536 291.875 89.3011C291.678 89.0625 291.525 88.8371 291.415 88.625H291.295V90H289.273ZM291.29 85.6364C291.29 86.2008 291.369 86.6951 291.528 87.1193C291.691 87.5436 291.924 87.875 292.227 88.1136C292.534 88.3485 292.905 88.4659 293.341 88.4659C293.795 88.4659 294.176 88.3447 294.483 88.1023C294.79 87.8561 295.021 87.5208 295.176 87.0966C295.335 86.6686 295.415 86.1818 295.415 85.6364C295.415 85.0947 295.337 84.6136 295.182 84.1932C295.027 83.7727 294.795 83.4432 294.489 83.2045C294.182 82.9659 293.799 82.8466 293.341 82.8466C292.902 82.8466 292.528 82.9621 292.222 83.1932C291.915 83.4242 291.682 83.7481 291.523 84.1648C291.367 84.5814 291.29 85.072 291.29 85.6364ZM300.241 93.2727C299.961 93.2727 299.702 93.25 299.463 93.2045C299.228 93.1629 299.041 93.1136 298.901 93.0568L299.378 91.4545C299.677 91.5417 299.944 91.5833 300.179 91.5795C300.414 91.5758 300.62 91.5019 300.798 91.358C300.98 91.2178 301.134 90.983 301.259 90.6534L301.435 90.1818L298.27 81.2727H300.452L302.463 87.8636H302.554L304.571 81.2727H306.759L303.264 91.0568C303.101 91.5189 302.885 91.9148 302.616 92.2443C302.348 92.5777 302.018 92.8314 301.628 93.0057C301.241 93.1837 300.779 93.2727 300.241 93.2727ZM316.861 78.3636V90H314.753V80.4148H314.685L311.963 82.1534V80.2216L314.855 78.3636H316.861ZM324.116 90.2216C323.181 90.2216 322.378 89.9848 321.707 89.5114C321.041 89.0341 320.527 88.3466 320.168 87.4489C319.812 86.5473 319.634 85.4621 319.634 84.1932C319.637 82.9242 319.817 81.8447 320.173 80.9545C320.533 80.0606 321.046 79.3788 321.713 78.9091C322.384 78.4394 323.185 78.2045 324.116 78.2045C325.048 78.2045 325.849 78.4394 326.52 78.9091C327.19 79.3788 327.704 80.0606 328.06 80.9545C328.42 81.8485 328.599 82.928 328.599 84.1932C328.599 85.4659 328.42 86.553 328.06 87.4545C327.704 88.3523 327.19 89.0379 326.52 89.5114C325.853 89.9848 325.052 90.2216 324.116 90.2216ZM324.116 88.4432C324.844 88.4432 325.418 88.0852 325.838 87.3693C326.262 86.6496 326.474 85.5909 326.474 84.1932C326.474 83.2689 326.378 82.4924 326.185 81.8636C325.991 81.2348 325.719 80.7614 325.366 80.4432C325.014 80.1212 324.598 79.9602 324.116 79.9602C323.393 79.9602 322.821 80.3201 322.401 81.0398C321.98 81.7557 321.768 82.8068 321.764 84.1932C321.76 85.1212 321.853 85.9015 322.043 86.5341C322.236 87.1667 322.509 87.6439 322.861 87.9659C323.213 88.2841 323.632 88.4432 324.116 88.4432ZM334.788 90.2216C333.853 90.2216 333.05 89.9848 332.379 89.5114C331.713 89.0341 331.199 88.3466 330.839 87.4489C330.483 86.5473 330.305 85.4621 330.305 84.1932C330.309 82.9242 330.489 81.8447 330.845 80.9545C331.205 80.0606 331.718 79.3788 332.385 78.9091C333.055 78.4394 333.857 78.2045 334.788 78.2045C335.72 78.2045 336.521 78.4394 337.192 78.9091C337.862 79.3788 338.375 80.0606 338.732 80.9545C339.091 81.8485 339.271 82.928 339.271 84.1932C339.271 85.4659 339.091 86.553 338.732 87.4545C338.375 88.3523 337.862 89.0379 337.192 89.5114C336.525 89.9848 335.724 90.2216 334.788 90.2216ZM334.788 88.4432C335.516 88.4432 336.089 88.0852 336.51 87.3693C336.934 86.6496 337.146 85.5909 337.146 84.1932C337.146 83.2689 337.05 82.4924 336.857 81.8636C336.663 81.2348 336.391 80.7614 336.038 80.4432C335.686 80.1212 335.269 79.9602 334.788 79.9602C334.065 79.9602 333.493 80.3201 333.072 81.0398C332.652 81.7557 332.44 82.8068 332.436 84.1932C332.432 85.1212 332.525 85.9015 332.714 86.5341C332.908 87.1667 333.18 87.6439 333.533 87.9659C333.885 88.2841 334.304 88.4432 334.788 88.4432ZM344.614 88.1364V80.2727H346.398V88.1364H344.614ZM341.574 85.0966V83.3125H349.438V85.0966H341.574ZM365.967 82.2898H363.842C363.782 81.9413 363.67 81.6326 363.507 81.3636C363.344 81.0909 363.142 80.8598 362.899 80.6705C362.657 80.4811 362.38 80.339 362.07 80.2443C361.763 80.1458 361.431 80.0966 361.075 80.0966C360.443 80.0966 359.882 80.2557 359.393 80.5739C358.905 80.8883 358.522 81.3504 358.246 81.9602C357.969 82.5663 357.831 83.3068 357.831 84.1818C357.831 85.072 357.969 85.822 358.246 86.4318C358.526 87.0379 358.909 87.4962 359.393 87.8068C359.882 88.1136 360.441 88.267 361.07 88.267C361.418 88.267 361.744 88.2216 362.047 88.1307C362.354 88.036 362.628 87.8977 362.871 87.7159C363.117 87.5341 363.323 87.3106 363.49 87.0455C363.661 86.7803 363.778 86.4773 363.842 86.1364L365.967 86.1477C365.888 86.7008 365.715 87.2197 365.45 87.7045C365.189 88.1894 364.846 88.6174 364.422 88.9886C363.998 89.3561 363.501 89.6439 362.933 89.8523C362.365 90.0568 361.734 90.1591 361.041 90.1591C360.018 90.1591 359.106 89.9223 358.303 89.4489C357.5 88.9754 356.867 88.2917 356.405 87.3977C355.943 86.5038 355.712 85.4318 355.712 84.1818C355.712 82.928 355.945 81.8561 356.411 80.9659C356.876 80.072 357.511 79.3883 358.314 78.9148C359.117 78.4413 360.026 78.2045 361.041 78.2045C361.689 78.2045 362.291 78.2955 362.848 78.4773C363.405 78.6591 363.901 78.9261 364.337 79.2784C364.772 79.6269 365.13 80.0549 365.411 80.5625C365.695 81.0663 365.88 81.642 365.967 82.2898ZM371.614 90.1705C370.761 90.1705 370.023 89.983 369.398 89.608C368.773 89.233 368.288 88.7083 367.943 88.0341C367.602 87.3598 367.432 86.572 367.432 85.6705C367.432 84.7689 367.602 83.9792 367.943 83.3011C368.288 82.6231 368.773 82.0966 369.398 81.7216C370.023 81.3466 370.761 81.1591 371.614 81.1591C372.466 81.1591 373.205 81.3466 373.83 81.7216C374.455 82.0966 374.938 82.6231 375.278 83.3011C375.623 83.9792 375.795 84.7689 375.795 85.6705C375.795 86.572 375.623 87.3598 375.278 88.0341C374.938 88.7083 374.455 89.233 373.83 89.608C373.205 89.983 372.466 90.1705 371.614 90.1705ZM371.625 88.5227C372.087 88.5227 372.473 88.3958 372.784 88.142C373.095 87.8845 373.326 87.5398 373.477 87.108C373.633 86.6761 373.71 86.1951 373.71 85.6648C373.71 85.1307 373.633 84.6477 373.477 84.2159C373.326 83.7803 373.095 83.4337 372.784 83.1761C372.473 82.9186 372.087 82.7898 371.625 82.7898C371.152 82.7898 370.758 82.9186 370.443 83.1761C370.133 83.4337 369.9 83.7803 369.744 84.2159C369.593 84.6477 369.517 85.1307 369.517 85.6648C369.517 86.1951 369.593 86.6761 369.744 87.108C369.9 87.5398 370.133 87.8845 370.443 88.142C370.758 88.3958 371.152 88.5227 371.625 88.5227ZM377.541 90V81.2727H379.507V82.7557H379.609C379.791 82.2557 380.092 81.8655 380.513 81.5852C380.933 81.3011 381.435 81.1591 382.018 81.1591C382.609 81.1591 383.107 81.303 383.513 81.5909C383.922 81.875 384.21 82.2633 384.376 82.7557H384.467C384.661 82.2708 384.986 81.8845 385.445 81.5966C385.907 81.3049 386.454 81.1591 387.087 81.1591C387.89 81.1591 388.545 81.4129 389.053 81.9205C389.56 82.428 389.814 83.1686 389.814 84.142V90H387.751V84.4602C387.751 83.9186 387.607 83.5227 387.32 83.2727C387.032 83.0189 386.679 82.892 386.263 82.892C385.767 82.892 385.378 83.0473 385.098 83.358C384.821 83.6648 384.683 84.0644 384.683 84.5568V90H382.666V84.375C382.666 83.9242 382.53 83.5644 382.257 83.2955C381.988 83.0265 381.636 82.892 381.2 82.892C380.905 82.892 380.636 82.9678 380.393 83.1193C380.151 83.267 379.958 83.4773 379.814 83.75C379.67 84.0189 379.598 84.3333 379.598 84.6932V90H377.541ZM391.901 93.2727V81.2727H393.923V82.7159H394.043C394.149 82.5038 394.298 82.2784 394.491 82.0398C394.685 81.7973 394.946 81.5909 395.276 81.4205C395.605 81.2462 396.026 81.1591 396.537 81.1591C397.211 81.1591 397.819 81.3314 398.361 81.6761C398.906 82.017 399.338 82.5227 399.656 83.1932C399.978 83.8598 400.139 84.678 400.139 85.6477C400.139 86.6061 399.982 87.4205 399.668 88.0909C399.353 88.7614 398.925 89.2727 398.384 89.625C397.842 89.9773 397.228 90.1534 396.543 90.1534C396.043 90.1534 395.628 90.0701 395.298 89.9034C394.969 89.7367 394.704 89.536 394.503 89.3011C394.306 89.0625 394.152 88.8371 394.043 88.625H393.957V93.2727H391.901ZM393.918 85.6364C393.918 86.2008 393.997 86.6951 394.156 87.1193C394.319 87.5436 394.552 87.875 394.855 88.1136C395.162 88.3485 395.533 88.4659 395.969 88.4659C396.423 88.4659 396.804 88.3447 397.111 88.1023C397.418 87.8561 397.649 87.5208 397.804 87.0966C397.963 86.6686 398.043 86.1818 398.043 85.6364C398.043 85.0947 397.965 84.6136 397.81 84.1932C397.654 83.7727 397.423 83.4432 397.116 83.2045C396.81 82.9659 396.427 82.8466 395.969 82.8466C395.529 82.8466 395.156 82.9621 394.849 83.1932C394.543 83.4242 394.31 83.7481 394.151 84.1648C393.995 84.5814 393.918 85.072 393.918 85.6364ZM404.412 90.1761C403.859 90.1761 403.361 90.0777 402.918 89.8807C402.478 89.6799 402.13 89.3845 401.872 88.9943C401.618 88.6042 401.491 88.1231 401.491 87.5511C401.491 87.0587 401.582 86.6515 401.764 86.3295C401.946 86.0076 402.194 85.75 402.509 85.5568C402.823 85.3636 403.177 85.2178 403.571 85.1193C403.969 85.017 404.38 84.9432 404.804 84.8977C405.315 84.8447 405.73 84.7973 406.048 84.7557C406.366 84.7102 406.598 84.642 406.741 84.5511C406.889 84.4564 406.963 84.3106 406.963 84.1136V84.0795C406.963 83.6515 406.836 83.3201 406.582 83.0852C406.329 82.8504 405.963 82.733 405.486 82.733C404.982 82.733 404.582 82.8428 404.287 83.0625C403.995 83.2822 403.798 83.5417 403.696 83.8409L401.776 83.5682C401.927 83.0379 402.177 82.5947 402.526 82.2386C402.874 81.8788 403.3 81.6098 403.804 81.4318C404.308 81.25 404.865 81.1591 405.474 81.1591C405.895 81.1591 406.313 81.2083 406.73 81.3068C407.147 81.4053 407.527 81.5682 407.872 81.7955C408.217 82.0189 408.493 82.3239 408.702 82.7102C408.914 83.0966 409.02 83.5795 409.02 84.1591V90H407.043V88.8011H406.974C406.849 89.0436 406.673 89.2708 406.446 89.483C406.223 89.6913 405.94 89.8598 405.599 89.9886C405.262 90.1136 404.866 90.1761 404.412 90.1761ZM404.946 88.6648C405.359 88.6648 405.717 88.5833 406.02 88.4205C406.323 88.2538 406.556 88.0341 406.719 87.7614C406.885 87.4886 406.969 87.1913 406.969 86.8693V85.8409C406.904 85.8939 406.795 85.9432 406.639 85.9886C406.488 86.0341 406.317 86.0739 406.128 86.108C405.938 86.142 405.751 86.1723 405.565 86.1989C405.38 86.2254 405.219 86.2481 405.082 86.267C404.776 86.3087 404.501 86.3769 404.259 86.4716C404.016 86.5663 403.825 86.6989 403.685 86.8693C403.545 87.036 403.474 87.2519 403.474 87.517C403.474 87.8958 403.613 88.1818 403.889 88.375C404.166 88.5682 404.518 88.6648 404.946 88.6648ZM413.145 84.8864V90H411.088V81.2727H413.054V82.7557H413.156C413.357 82.267 413.677 81.8788 414.116 81.5909C414.56 81.303 415.107 81.1591 415.759 81.1591C416.361 81.1591 416.885 81.2879 417.332 81.5455C417.783 81.803 418.132 82.1761 418.378 82.6648C418.628 83.1534 418.751 83.7462 418.747 84.4432V90H416.69V84.7614C416.69 84.178 416.539 83.7216 416.236 83.392C415.937 83.0625 415.522 82.8977 414.991 82.8977C414.632 82.8977 414.312 82.9773 414.031 83.1364C413.755 83.2917 413.537 83.517 413.378 83.8125C413.223 84.108 413.145 84.4659 413.145 84.8864ZM420.838 90V81.2727H422.895V90H420.838ZM421.872 80.0341C421.546 80.0341 421.266 79.9261 421.031 79.7102C420.796 79.4905 420.679 79.2273 420.679 78.9205C420.679 78.6098 420.796 78.3466 421.031 78.1307C421.266 77.911 421.546 77.8011 421.872 77.8011C422.202 77.8011 422.482 77.911 422.713 78.1307C422.948 78.3466 423.065 78.6098 423.065 78.9205C423.065 79.2273 422.948 79.4905 422.713 79.7102C422.482 79.9261 422.202 80.0341 421.872 80.0341ZM428.874 90.1705C427.999 90.1705 427.243 89.9886 426.607 89.625C425.974 89.2576 425.487 88.7386 425.146 88.0682C424.805 87.3939 424.635 86.6004 424.635 85.6875C424.635 84.7898 424.805 84.0019 425.146 83.3239C425.491 82.642 425.972 82.1117 426.589 81.733C427.207 81.3504 427.932 81.1591 428.766 81.1591C429.304 81.1591 429.811 81.2462 430.288 81.4205C430.769 81.5909 431.194 81.8561 431.561 82.2159C431.932 82.5758 432.224 83.0341 432.436 83.5909C432.648 84.1439 432.754 84.803 432.754 85.5682V86.1989H425.601V84.8125H430.783C430.779 84.4186 430.694 84.0682 430.527 83.7614C430.36 83.4508 430.127 83.2064 429.828 83.0284C429.533 82.8504 429.188 82.7614 428.794 82.7614C428.374 82.7614 428.004 82.8636 427.686 83.0682C427.368 83.2689 427.12 83.5341 426.942 83.8636C426.768 84.1894 426.679 84.5473 426.675 84.9375V86.1477C426.675 86.6553 426.768 87.0909 426.953 87.4545C427.139 87.8144 427.398 88.0909 427.732 88.2841C428.065 88.4735 428.455 88.5682 428.902 88.5682C429.201 88.5682 429.472 88.5265 429.714 88.4432C429.957 88.3561 430.167 88.2292 430.345 88.0625C430.523 87.8958 430.658 87.6894 430.749 87.4432L432.669 87.6591C432.548 88.1667 432.317 88.6098 431.976 88.9886C431.639 89.3636 431.207 89.6553 430.68 89.8636C430.154 90.0682 429.552 90.1705 428.874 90.1705ZM441.392 83.5795L439.517 83.7841C439.464 83.5947 439.371 83.4167 439.239 83.25C439.11 83.0833 438.936 82.9489 438.716 82.8466C438.496 82.7443 438.227 82.6932 437.909 82.6932C437.481 82.6932 437.121 82.786 436.83 82.9716C436.542 83.1572 436.4 83.3977 436.403 83.6932C436.4 83.947 436.492 84.1534 436.682 84.3125C436.875 84.4716 437.193 84.6023 437.636 84.7045L439.125 85.0227C439.951 85.2008 440.564 85.483 440.966 85.8693C441.371 86.2557 441.576 86.7614 441.58 87.3864C441.576 87.9356 441.415 88.4205 441.097 88.8409C440.782 89.2576 440.345 89.5833 439.784 89.8182C439.223 90.053 438.58 90.1705 437.852 90.1705C436.784 90.1705 435.924 89.947 435.273 89.5C434.621 89.0492 434.233 88.4223 434.108 87.6193L436.114 87.4261C436.205 87.8201 436.398 88.1174 436.693 88.3182C436.989 88.5189 437.373 88.6193 437.847 88.6193C438.335 88.6193 438.727 88.5189 439.023 88.3182C439.322 88.1174 439.472 87.8693 439.472 87.5739C439.472 87.3239 439.375 87.1174 439.182 86.9545C438.992 86.7917 438.697 86.6667 438.295 86.5795L436.807 86.267C435.97 86.0928 435.35 85.7992 434.949 85.3864C434.547 84.9697 434.348 84.4432 434.352 83.8068C434.348 83.2689 434.494 82.803 434.79 82.4091C435.089 82.0114 435.504 81.7045 436.034 81.4886C436.568 81.2689 437.184 81.1591 437.881 81.1591C438.903 81.1591 439.708 81.3769 440.295 81.8125C440.886 82.2481 441.252 82.8371 441.392 83.5795Z" fill="#096BD8"></path>
</svg>
