<?xml version="1.0" encoding="UTF-8"?> <svg xmlns="http://www.w3.org/2000/svg" id="Layer_1" viewBox="0 0 80 80"><path d="M78.57,48.09v-1s-18.91-.06-18.91-.06l.12-38.95c1.57-.24,2.77-1.58,2.77-3.22,0-1.81-1.46-3.27-3.27-3.27-1.81,0-3.27,1.46-3.27,3.27,0,1.63,1.2,2.98,2.77,3.22l-.12,38.94-37.58-.12,.12-38.83c1.57-.24,2.77-1.58,2.77-3.22,0-1.81-1.46-3.27-3.27-3.27-1.81,0-3.27,1.46-3.27,3.27,0,1.63,1.2,2.98,2.77,3.22l-.12,38.82-18.67-.06v1s18.67,.06,18.67,.06l-.09,28.27c-1.45,.85-2.9,1.57-5.72,1.58-3.11-.01-4.56-.89-6.17-1.85-1.6-.96-3.37-2-6.68-1.99v1c3.11,.01,4.56,.89,6.17,1.85,1.6,.96,3.37,2,6.68,1.99,3.31,.01,5.08-1.03,6.68-1.99,1.61-.96,3.06-1.84,6.17-1.85,3.12,.01,4.56,.89,6.17,1.85,1.6,.96,3.37,2,6.69,1.99,3.31,.01,5.08-1.03,6.68-1.99,1.61-.96,3.06-1.84,6.17-1.85,3.12,.01,4.56,.89,6.18,1.85,1.6,.96,3.37,2,6.69,1.99,3.32,.01,5.09-1.03,6.69-1.99,1.62-.96,3.06-1.84,6.18-1.85v-1c-3.32-.01-5.09,1.03-6.69,1.99-1.62,.96-3.06,1.84-6.18,1.85-3.09-.01-4.54-.88-6.14-1.82l.09-27.91,18.91,.06ZM57.02,4.87c0-1.25,1.02-2.27,2.27-2.27,1.25,0,2.27,1.02,2.27,2.27,0,1.25-1.02,2.27-2.27,2.27-1.25,0-2.27-1.02-2.27-2.27Zm-38.58,0c0-1.25,1.02-2.27,2.27-2.27,1.25,0,2.27,1.02,2.27,2.27,0,1.25-1.02,2.27-2.27,2.27-1.25,0-2.27-1.02-2.27-2.27ZM58.57,75.36c-1.39-.77-3.05-1.44-5.73-1.43-3.31-.01-5.08,1.03-6.68,1.99-1.61,.96-3.06,1.84-6.17,1.85-3.12-.01-4.56-.89-6.17-1.85-1.6-.96-3.37-2-6.69-1.99-2.94,0-4.66,.8-6.13,1.66l.09-27.68,37.58,.12-.09,27.33Z"></path><path d="M56.32,24.79c.17,0,.34-.07,.46-.19,.12-.12,.19-.29,.19-.46s-.07-.34-.19-.46c-.12-.12-.29-.19-.46-.19s-.34,.07-.46,.19-.19,.29-.19,.46,.07,.34,.19,.46,.29,.19,.46,.19Z"></path><path d="M37.72,34.45c.35,.04,.68-.21,.72-.56,.04-.35-.21-.68-.56-.72-.35-.04-.68,.21-.72,.56-.04,.35,.21,.68,.56,.72Z"></path><path d="M33.28,33.34c.33,.13,.71-.04,.84-.37,.13-.33-.04-.71-.37-.84-.33-.13-.71,.04-.84,.37-.13,.33,.04,.71,.37,.84Z"></path><path d="M42.3,34.45c.35-.04,.61-.37,.56-.72-.04-.35-.37-.61-.72-.56-.35,.04-.61,.37-.56,.72,.04,.35,.37,.61,.72,.56Z"></path><path d="M54.19,28.15c.24-.26,.22-.67-.04-.91-.26-.24-.67-.22-.91,.04-.24,.26-.22,.67,.04,.91,.26,.24,.67,.22,.91-.04Z"></path><path d="M50.76,31.17c.29-.2,.36-.61,.16-.9s-.61-.36-.9-.16-.36,.61-.16,.9,.61,.36,.9,.16Z"></path><path d="M46.73,33.33c.33-.13,.5-.5,.37-.84-.13-.33-.5-.5-.84-.37s-.5,.5-.37,.84c.13,.33,.5,.5,.84,.37Z"></path><path d="M30.15,31.02c.2-.29,.13-.7-.16-.9s-.7-.13-.9,.16c-.2,.29-.13,.7,.16,.9,.29,.2,.7,.13,.9-.16Z"></path><path d="M26.73,28.21c.26-.24,.28-.65,.04-.91-.24-.26-.65-.28-.91-.04-.26,.24-.28,.65-.04,.91,.24,.26,.65,.28,.91,.04Z"></path><path d="M23.21,23.69c-.12,.12-.19,.29-.19,.46s.07,.34,.19,.46c.12,.12,.29,.19,.46,.19s.34-.07,.46-.19c.12-.12,.19-.29,.19-.46s-.07-.34-.19-.46-.29-.19-.46-.19-.34,.07-.46,.19Z"></path><path d="M17.7,24.85c.17,0,.34-.07,.46-.19s.19-.29,.19-.46-.07-.34-.19-.46-.29-.19-.46-.19-.34,.07-.46,.19-.19,.29-.19,.46,.07,.34,.19,.46,.29,.19,.46,.19Z"></path><path d="M9.39,32.79c.32-.15,.46-.54,.31-.86s-.54-.46-.86-.31-.46,.54-.31,.86c.15,.32,.54,.46,.86,.31Z"></path><path d="M5.51,34.14c.35-.08,.57-.42,.49-.77-.08-.35-.42-.57-.77-.49-.35,.08-.57,.42-.49,.77,.08,.35,.42,.57,.77,.49Z"></path><path d="M15.88,27.85c.23-.27,.21-.68-.06-.91-.27-.23-.68-.21-.91,.06-.23,.27-.21,.68,.06,.91,.27,.23,.68,.21,.91-.06Z"></path><path d="M12.89,30.65c.28-.22,.34-.62,.12-.91-.22-.28-.62-.34-.91-.12-.28,.22-.34,.62-.12,.91,.22,.28,.62,.34,.91,.12Z"></path><path d="M1.87,34.4c.12-.12,.19-.29,.19-.46s-.07-.34-.19-.46-.29-.19-.46-.19-.34,.07-.46,.19-.19,.29-.19,.46,.07,.34,.19,.46c.12,.12,.29,.19,.46,.19s.34-.07,.46-.19Z"></path><path d="M61.83,23.74c-.12,.12-.19,.29-.19,.46s.07,.34,.19,.46c.12,.12,.29,.19,.46,.19s.34-.07,.46-.19,.19-.29,.19-.46-.07-.34-.19-.46-.29-.19-.46-.19-.34,.07-.46,.19Z"></path><path d="M68,30.53c.22-.28,.16-.69-.12-.91-.28-.22-.69-.16-.91,.12-.22,.28-.16,.69,.12,.91,.28,.22,.69,.16,.91-.12Z"></path><path d="M74.48,34.14c.35,.08,.69-.14,.77-.49,.08-.35-.14-.69-.49-.77-.35-.08-.69,.14-.77,.49-.08,.35,.14,.69,.49,.77Z"></path><path d="M70.6,32.79c.32,.15,.71,.02,.86-.31s.02-.71-.31-.86-.71-.02-.86,.31c-.15,.32-.02,.71,.31,.86Z"></path><path d="M65.02,27.91c.27-.23,.3-.64,.06-.91-.23-.27-.64-.3-.91-.06-.27,.23-.3,.64-.06,.91,.23,.27,.64,.3,.91,.06Z"></path><path d="M79.03,33.49c-.12-.12-.29-.19-.46-.19s-.34,.07-.46,.19c-.12,.12-.19,.29-.19,.46s.07,.34,.19,.46c.12,.12,.29,.19,.46,.19s.34-.07,.46-.19c.12-.12,.19-.29,.19-.46s-.07-.34-.19-.46Z"></path></svg> 