<?xml version="1.0" encoding="UTF-8"?> <svg xmlns="http://www.w3.org/2000/svg" width="461.832" height="59.207" viewBox="0 0 461.832 59.207"><path id="Subtraction_39" data-name="Subtraction 39" d="M13016,23124h0l-461.83-.621v-58.586l461.832.621V23124h0Zm-37.784-38.039a11.279,11.279,0,0,0-8.442,3.328,10.723,10.723,0,0,0-2.283,3.732,13.737,13.737,0,0,0-.794,4.729,12.055,12.055,0,0,0,3.06,8.645,11.467,11.467,0,0,0,8.46,3.143,11.205,11.205,0,0,0,8.312-3.244,12,12,0,0,0,3.115-8.543,13.711,13.711,0,0,0-.792-4.709,10.819,10.819,0,0,0-2.273-3.734A11.123,11.123,0,0,0,12978.212,23085.963Zm-50.535,3.914c1.822,0,2.966.4,3.6,1.26.633.9.633,1.977.633,3.465l-6.709,1.26c-4.208.787-8.1,2.174-8.1,6.93a6.19,6.19,0,0,0,2.343,5.078,8.836,8.836,0,0,0,5.445,1.67c3.426,0,6.015-1.326,7.289-3.736a14.568,14.568,0,0,0,.313,3.2h5.356v-.18a10.1,10.1,0,0,1-.766-3.871v-11.566a6.726,6.726,0,0,0-2.368-5.551c-1.546-1.24-3.807-1.869-6.72-1.869-3.179,0-5.632.588-7.289,1.75a6.934,6.934,0,0,0-2.838,5.717l5.223.678a4.2,4.2,0,0,1,1.148-3.295A5.026,5.026,0,0,1,12927.677,23089.877Zm-146.7-3.375v13.184c0,2.586.149,5.5,1.938,7.381a8.214,8.214,0,0,0,6.477,2.473,7.891,7.891,0,0,0,4.017-.984,6.522,6.522,0,0,0,2.6-2.84V23109h5.224v-22.5l-5.27,0v12.418c0,2.395-.551,4.152-1.637,5.225a5.4,5.4,0,0,1-6.778.039c-1.045-1.084-1.12-2.525-1.12-4.771V23086.5l-5.449,0Zm-15.391-.539a11.279,11.279,0,0,0-8.442,3.328,10.706,10.706,0,0,0-2.283,3.732,13.737,13.737,0,0,0-.794,4.729,12.062,12.062,0,0,0,3.062,8.645,11.467,11.467,0,0,0,8.458,3.143,11.218,11.218,0,0,0,8.314-3.244,11.991,11.991,0,0,0,3.118-8.543,13.711,13.711,0,0,0-.792-4.709,10.818,10.818,0,0,0-2.274-3.734A11.132,11.132,0,0,0,12765.583,23085.963Zm-122.4,0a9.312,9.312,0,0,0-7.3,3.225,12.923,12.923,0,0,0-2.779,8.564,12.742,12.742,0,0,0,2.876,8.645,9.2,9.2,0,0,0,3.22,2.334,10.239,10.239,0,0,0,4.078.809,8.081,8.081,0,0,0,3.951-.939,6.7,6.7,0,0,0,2.705-2.8v3.2h5.31v-31.5h-5.31v11.793A7.716,7.716,0,0,0,12643.185,23085.963Zm-56.026.539v13.184c0,2.586.149,5.5,1.938,7.381a8.216,8.216,0,0,0,6.477,2.473,7.886,7.886,0,0,0,4.017-.984,6.518,6.518,0,0,0,2.6-2.84V23109h5.223v-22.5l-5.27,0v12.418c0,2.395-.551,4.152-1.637,5.225a4.411,4.411,0,0,1-3.221,1.213,4.456,4.456,0,0,1-3.558-1.174c-1.045-1.086-1.12-2.527-1.12-4.771V23086.5Zm356.31,4.273v12.555c0,3.969,2.223,5.9,6.8,5.9a15.474,15.474,0,0,0,2.971-.273l-.093-4.631a13.135,13.135,0,0,1-2.066.221c-1.551,0-2.338-.258-2.338-1.66v-12.105l4.59,0v-4.275l-4.59,0v-6.258h-5.27v6.256l-3.238,0v4.275Zm-39.011,0v12.555c0,3.969,2.221,5.9,6.79,5.9a15.5,15.5,0,0,0,2.972-.273l-.087-4.631a13.326,13.326,0,0,1-2.072.221c-1.551,0-2.339-.258-2.339-1.66v-12.105l4.591,0v-4.275l-4.591,0v-6.258h-5.264v6.256l-3.244,0v4.275Zm-96.347,0v12.555c0,3.969,2.223,5.9,6.795,5.9a15.591,15.591,0,0,0,2.972-.273l-.093-4.631a13.326,13.326,0,0,1-2.072.221c-1.551,0-2.339-.258-2.339-1.66v-12.105l4.591,0v-4.275l-4.591,0v-6.258h-5.263v6.256l-3.238,0v4.275Zm-92.024,0v12.555c0,3.969,2.223,5.9,6.8,5.9a15.466,15.466,0,0,0,2.966-.273l-.088-4.631a13.292,13.292,0,0,1-2.071.221c-1.551,0-2.339-.258-2.339-1.66v-12.105l4.591,0v-4.275l-4.591,0v-6.258h-5.264v6.256l-3.244,0v4.275Zm287.951-.631a4.21,4.21,0,0,1,3.378,1.08c1.171,1.078,1.259,2.518,1.259,4.59V23109h5.4v-13.592c0-2.744-.145-5.357-1.893-7.15-1.561-1.609-3.445-2.295-6.3-2.295a8.5,8.5,0,0,0-4.188.947,5.9,5.9,0,0,0-2.6,3.008v-3.418l-5.311,0v22.5h5.351v-12.332C12999.133,23090.781,13002.563,23090.145,13004.037,23090.145Zm-46.845-3.643v22.5h5.356v-22.5l-5.356,0Zm-64.98,0v22.5h5.356v-22.5Zm-14.892,3.643a4.245,4.245,0,0,1,3.151,1.08c1.086,1.045,1.167,2.549,1.167,4.723V23109H12887v-14.266c0-2.887-.692-5.1-2.058-6.58a7.664,7.664,0,0,0-5.9-2.191,7.774,7.774,0,0,0-5.27,1.617,7.66,7.66,0,0,0-2.206,2.971,6.418,6.418,0,0,0-2.434-3.359,7.5,7.5,0,0,0-4.361-1.229,7.213,7.213,0,0,0-4.945,1.617,5.471,5.471,0,0,0-1.665,2.205v-3.285l-5.311,0v22.5h5.311v-12.285c0-2.521.5-4.225,1.572-5.357a4.242,4.242,0,0,1,3.059-1.213,4.115,4.115,0,0,1,3.151,1.033c1.175,1.086,1.26,2.525,1.26,4.77V23109h5.356v-12.373c0-2.436.5-4.1,1.572-5.223A4.283,4.283,0,0,1,12877.32,23090.145Zm-35.237-3.643v22.5h5.356v-22.5Zm-10.754-9h0v31.5h5.356v-31.5Zm-91.258,12.646a4.229,4.229,0,0,1,3.418,1.125c1.131,1.086,1.213,2.391,1.213,4.412V23109h5.4v-13.592c0-2.775-.139-5.223-1.846-7.062-1.534-1.67-3.459-2.383-6.436-2.383-3.163,0-5.544,1.373-6.7,3.869V23077.5h-5.311v31.5h5.356v-12.512c0-2.369.58-4.111,1.725-5.178A4.6,4.6,0,0,1,12740.071,23090.145Zm-36.225-3.643v22.5h5.351v-22.5Zm-19.755,5.129h.041c.537,2.945.964,5.049,1.306,6.436l2.658,10.934h5.71l6.889-22.5-5.536,0-2.925,11.744c-.3,1.248-.612,2.705-.968,4.391l-.023.109c-.113.541-.233,1.109-.361,1.709h-.04c-.232-1.068-.441-2.094-.652-3.137l0-.01c-.243-1.2-.454-2.242-.652-3.062l-2.744-11.746-5.224,0-2.832,11.744c-.24.953-.692,3.184-1.13,5.34l-.021.107-.154.762h-.046l-1.347-6.209-2.885-11.746-5.53,0,6.883,22.5h5.717l2.611-10.934c.306-1.266.675-3.27,1.031-5.207.075-.408.151-.818.228-1.227Zm-60.528-14.133h0v31.5h5.356v-31.5Zm-10.754,9v22.5h5.356v-22.5l-5.356,0Zm-54.807-9h0v31.5h11.966c3.034,0,6.478-.166,9.008-1.41,2.721-1.338,4.044-3.732,4.044-7.318,0-3.662-1.78-6.092-5.443-7.428a7.24,7.24,0,0,0,4.225-6.791,8.761,8.761,0,0,0-1.1-4.566,6.849,6.849,0,0,0-2.865-2.582c-2.48-1.248-5.77-1.406-8.357-1.406Zm399.189-.266h0v5.756l5.356,0v-5.758Zm-64.98,0h0v5.756l5.356,0v-5.758Zm-50.129,0h0v5.756l5.356,0v-5.758Zm-138.236,0h0v5.756l5.351,0v-5.758Zm-91.037,0h0v5.756l5.356,0v-5.758Zm365.4,28.395a5.166,5.166,0,0,1-4.144-1.531c-1.12-1.211-1.665-3.285-1.665-6.344s.545-5.137,1.665-6.348a5.232,5.232,0,0,1,4.144-1.527,5.027,5.027,0,0,1,4.138,1.619c1.059,1.281,1.573,3.328,1.573,6.256,0,3-.485,4.99-1.526,6.256A5.158,5.158,0,0,1,12978.212,23105.627Zm-52.2,0c-2.138,0-3.465-1.105-3.465-2.883,0-2,1.344-2.723,3.512-3.238l5.85-1.26v2.113a4.988,4.988,0,0,1-1.514,3.881A6.337,6.337,0,0,1,12926.011,23105.627Zm-160.428,0a5.159,5.159,0,0,1-4.138-1.531c-1.137-1.221-1.666-3.236-1.666-6.344s.529-5.127,1.666-6.348a5.224,5.224,0,0,1,4.138-1.527,5.034,5.034,0,0,1,4.144,1.619c1.058,1.281,1.572,3.328,1.572,6.256,0,3.006-.487,4.994-1.532,6.256A5.157,5.157,0,0,1,12765.583,23105.627Zm-121.093,0c-2.144,0-3.55-.635-4.426-2-.785-1.225-1.151-3.092-1.151-5.877,0-2.988.47-4.947,1.479-6.168a4.987,4.987,0,0,1,4.19-1.666,4.632,4.632,0,0,1,4.347,2.252,11.033,11.033,0,0,1,1.144,5.623c0,2.928-.621,5.078-1.846,6.391A4.872,4.872,0,0,1,12644.49,23105.627Zm-74.7-1.125h-6.163v-9.314h6.39a13.294,13.294,0,0,1,5.039.635c1.666.7,2.476,2.068,2.476,4.176,0,2.018-.71,3.252-2.234,3.889A15.261,15.261,0,0,1,12569.789,23104.5Zm-.673-13.82h-5.49v-8.639h5.536a13.444,13.444,0,0,1,4.977.594,3.6,3.6,0,0,1,2.179,3.73c0,1.938-.694,3.127-2.185,3.744A13.779,13.779,0,0,1,12569.116,23090.682Z" transform="translate(-12554.166 -23064.795)" fill="#fff"></path></svg> 