<?xml version="1.0" encoding="UTF-8"?> <svg xmlns="http://www.w3.org/2000/svg" width="1404" height="157.996" viewBox="0 0 1404 157.996"><path id="Subtraction_36" data-name="Subtraction 36" d="M13901,22787.992v0H12497V22630h1404v158Zm-116.621-30.289h0a24.421,24.421,0,0,0,4.125,12.123,27.719,27.719,0,0,0,8.639,7.971,36.838,36.838,0,0,0,11.412,4.3,62.305,62.305,0,0,0,12.447,1.281,59.14,59.14,0,0,0,17.221-2.289,34.042,34.042,0,0,0,12.666-6.873,28.43,28.43,0,0,0,7.789-11.545,46.743,46.743,0,0,0,2.6-16.289v-78.123H13843.2v11.326l-.32,0a24.038,24.038,0,0,0-4.239-6.08,21.347,21.347,0,0,0-5.746-4.207,31.487,31.487,0,0,0-14.27-3.27,35.5,35.5,0,0,0-15.611,3.348,35.121,35.121,0,0,0-11.656,9.014,40.423,40.423,0,0,0-7.293,13.148,49.167,49.167,0,0,0-2.537,15.781,65.819,65.819,0,0,0,2.062,16.748,39.314,39.314,0,0,0,6.582,13.789,31.9,31.9,0,0,0,11.411,9.406c4.568,2.275,10.2,3.428,16.728,3.428a27.936,27.936,0,0,0,14.185-3.818,27.515,27.515,0,0,0,5.891-4.588,28.608,28.608,0,0,0,4.5-6.1l.32,0v12.6a29.313,29.313,0,0,1-1.269,9.008,17.5,17.5,0,0,1-3.807,6.619,15.665,15.665,0,0,1-6.539,4.063,29.77,29.77,0,0,1-9.473,1.355,54.906,54.906,0,0,1-6.661-.395,17.329,17.329,0,0,1-5.786-1.764,13.946,13.946,0,0,1-4.515-3.74,14.634,14.634,0,0,1-2.692-6.225Zm-331.65,9.416v15.3a81.637,81.637,0,0,0,12.523.955,26.239,26.239,0,0,0,11.736-2.314,22.776,22.776,0,0,0,7.689-6.217,38.685,38.685,0,0,0,5.224-9.008c1.375-3.277,2.842-6.871,4.36-10.68l31.867-86.9h-18.869l-20.767,61.545-.31,0-21.408-61.543h-19.814l31.072,82.119-2.062,6.379a35.7,35.7,0,0,1-1.742,4.781,14.285,14.285,0,0,1-2.3,3.58,8.6,8.6,0,0,1-3.408,2.313,14.505,14.505,0,0,1-5.225.8,22.956,22.956,0,0,1-4.279-.389C13455.663,22767.57,13454.222,22767.328,13452.73,22767.119Zm-896.512-132.977a58.652,58.652,0,0,0-12.027,1.2,48.053,48.053,0,0,0-10.722,3.584,53.5,53.5,0,0,0-9.292,5.623,50.173,50.173,0,0,0-7.75,7.295,57.677,57.677,0,0,0-10.7,18.971,73.123,73.123,0,0,0,0,46.074,61.193,61.193,0,0,0,4.537,10.17,55.079,55.079,0,0,0,6.164,8.813,49.5,49.5,0,0,0,7.75,7.273,52.257,52.257,0,0,0,9.292,5.559,48.3,48.3,0,0,0,10.722,3.529,59.7,59.7,0,0,0,12.027,1.172,51.59,51.59,0,0,0,18.869-3.35,44.734,44.734,0,0,0,14.9-9.482,46.054,46.054,0,0,0,10.065-14.59,54.372,54.372,0,0,0,4.359-18.662h-19.34a45.791,45.791,0,0,1-2.7,11.646,30.2,30.2,0,0,1-5.705,9.488,26.313,26.313,0,0,1-8.719,6.373,28.2,28.2,0,0,1-11.732,2.309,31.727,31.727,0,0,1-15.616-3.664,30.767,30.767,0,0,1-10.7-9.8,44.675,44.675,0,0,1-6.106-13.949,65.11,65.11,0,0,1,0-31.889,44.725,44.725,0,0,1,6.106-13.949,30.788,30.788,0,0,1,10.7-9.809,31.764,31.764,0,0,1,15.616-3.666,32.453,32.453,0,0,1,10.861,1.674,24.879,24.879,0,0,1,13.869,11.875,40.73,40.73,0,0,1,3.488,9.094h19.82a42.828,42.828,0,0,0-4.915-16.418,39.811,39.811,0,0,0-10.386-12.2,46.609,46.609,0,0,0-14.825-7.662A60.115,60.115,0,0,0,12556.219,22634.143Zm781.574,31.885a37.754,37.754,0,0,0-16.488,3.51,38.223,38.223,0,0,0-12.447,9.488,42.974,42.974,0,0,0-7.928,13.869,50.247,50.247,0,0,0-2.768,16.662,56.321,56.321,0,0,0,2.611,17.535,38.128,38.128,0,0,0,7.773,13.719,35.551,35.551,0,0,0,12.6,8.928,43.374,43.374,0,0,0,17.123,3.184,44.305,44.305,0,0,0,12.764-1.832,36.5,36.5,0,0,0,11.016-5.418,34.172,34.172,0,0,0,13.314-20.809h-17.113a24.389,24.389,0,0,1-3,6,17.808,17.808,0,0,1-4.22,4.291c-3.217,2.273-7.51,3.426-12.764,3.426a22.6,22.6,0,0,1-9.83-1.988,19.714,19.714,0,0,1-6.812-5.354,22.822,22.822,0,0,1-4.043-7.8,31.825,31.825,0,0,1-1.347-9.248h60.241a47.658,47.658,0,0,0-1.191-17.939,43.9,43.9,0,0,0-7.367-15.387,38.384,38.384,0,0,0-12.768-10.766A36.793,36.793,0,0,0,13337.793,22666.027Zm-344.175,0a42.476,42.476,0,0,0-17.678,3.43,35.8,35.8,0,0,0-12.6,9.412,39.865,39.865,0,0,0-7.612,14.105,58.226,58.226,0,0,0-2.538,17.379,53.036,53.036,0,0,0,2.618,16.9,38.311,38.311,0,0,0,7.688,13.479,36.381,36.381,0,0,0,12.448,8.928,41.765,41.765,0,0,0,17.042,3.264,45.059,45.059,0,0,0,14.286-2.129,31.974,31.974,0,0,0,11.161-6.4,33.794,33.794,0,0,0,7.823-10.422,49.684,49.684,0,0,0,4.3-14.217h-18.068a28.452,28.452,0,0,1-2.238,7.939,19.5,19.5,0,0,1-4.184,5.939,17.193,17.193,0,0,1-5.848,3.705,20.367,20.367,0,0,1-7.23,1.238,19.157,19.157,0,0,1-9.99-2.473,20.782,20.782,0,0,1-6.736-6.461,28.081,28.081,0,0,1-3.8-9.088,45.2,45.2,0,0,1-1.191-10.2c0-6.248.746-11.371,2.218-15.227a25.227,25.227,0,0,1,5.556-9.088,17.693,17.693,0,0,1,7.287-4.461,26.084,26.084,0,0,1,7.453-1.2,23.507,23.507,0,0,1,6.957.979,17.576,17.576,0,0,1,5.646,2.928,14.993,14.993,0,0,1,4.022,4.846,20.718,20.718,0,0,1,2.083,6.711h18.068a31.906,31.906,0,0,0-3.8-13.229,29.333,29.333,0,0,0-8.168-9.248,35.813,35.813,0,0,0-11.417-5.508A49.638,49.638,0,0,0,12993.618,22666.027Zm-87.354,0a37.759,37.759,0,0,0-16.492,3.51,38.184,38.184,0,0,0-12.443,9.488,42.8,42.8,0,0,0-7.922,13.869,50.008,50.008,0,0,0-2.773,16.662,56.124,56.124,0,0,0,2.612,17.535,38.1,38.1,0,0,0,7.769,13.719,35.62,35.62,0,0,0,12.6,8.928,43.371,43.371,0,0,0,17.123,3.184,44.231,44.231,0,0,0,12.758-1.832,36.523,36.523,0,0,0,11.021-5.418,34.268,34.268,0,0,0,13.318-20.809h-17.122a24.317,24.317,0,0,1-2.994,6,17.752,17.752,0,0,1-4.224,4.291c-3.206,2.273-7.5,3.426-12.758,3.426a22.681,22.681,0,0,1-9.836-1.988,19.712,19.712,0,0,1-6.812-5.354,22.9,22.9,0,0,1-4.044-7.8,32.178,32.178,0,0,1-1.347-9.248h60.242a47.461,47.461,0,0,0-1.191-17.939,43.824,43.824,0,0,0-7.367-15.387,38.307,38.307,0,0,0-12.764-10.766A36.793,36.793,0,0,0,12906.264,22666.027Zm-253.5,0a44.653,44.653,0,0,0-17.518,3.27,37.485,37.485,0,0,0-13,9.012,38.791,38.791,0,0,0-8.083,13.709,56.244,56.244,0,0,0,0,34.918,38.822,38.822,0,0,0,8.083,13.715,37.606,37.606,0,0,0,13,9.008,48.631,48.631,0,0,0,35.03,0,37.674,37.674,0,0,0,13.009-9.008,38.872,38.872,0,0,0,8.078-13.715,56.244,56.244,0,0,0,0-34.918,38.842,38.842,0,0,0-8.078-13.709,37.6,37.6,0,0,0-13.009-9.012A44.639,44.639,0,0,0,12652.768,22666.027Zm878.439,2.232h0v13.555h13.633v48.631a50.312,50.312,0,0,0,1.026,9.084,13.836,13.836,0,0,0,3.333,6.613,15.335,15.335,0,0,0,6.818,3.99,39.952,39.952,0,0,0,11.5,1.357,53.016,53.016,0,0,0,5.86-.32l.769-.084c1.559-.172,3.324-.365,5.1-.547V22736.5a18.453,18.453,0,0,1-3.8.561c-1.348.049-2.592.074-3.8.074a12.92,12.92,0,0,1-4.755-.711,5.277,5.277,0,0,1-2.618-2.152,8.56,8.56,0,0,1-1.111-3.51,43.606,43.606,0,0,1-.234-4.941v-44.006h16.326v-13.555h-16.326v-24.709h-18.074v24.709Zm-497.322,0h0v13.555h13.635v48.631a50.184,50.184,0,0,0,1.025,9.084,13.775,13.775,0,0,0,3.334,6.613,15.328,15.328,0,0,0,6.816,3.99,39.911,39.911,0,0,0,11.486,1.357,53.119,53.119,0,0,0,5.871-.32l.859-.094.553-.062c1.445-.158,2.939-.322,4.454-.475V22736.5a18.462,18.462,0,0,1-3.8.561c-1.348.049-2.593.074-3.809.074a12.9,12.9,0,0,1-4.75-.711,5.256,5.256,0,0,1-2.617-2.152,8.522,8.522,0,0,1-1.111-3.51,43.948,43.948,0,0,1-.241-4.941v-44.006h16.332v-13.555h-16.332v-24.709h-18.067v24.709Zm839.123,60.91h0v21.52h22.033v-21.52Zm-132.7-48.789a20.368,20.368,0,0,1,7.015,1.1,11.72,11.72,0,0,1,4.878,3.285c2.525,2.9,3.911,7.654,4.118,14.115v51.813h18.074V22694.1a35.574,35.574,0,0,0-1.943-12.281,21.827,21.827,0,0,0-5.824-8.768,25.614,25.614,0,0,0-9.2-5.264,38.493,38.493,0,0,0-12.051-1.756,28.761,28.761,0,0,0-14.739,3.908,30.59,30.59,0,0,0-10.781,10.762l-.315-.316v-12.121h-17.123v82.43h18.074v-48.627a25.054,25.054,0,0,1,1.426-8.447,21.882,21.882,0,0,1,3.965-6.939,18.017,18.017,0,0,1,6.182-4.621A19.681,19.681,0,0,1,13740.312,22680.381Zm-67.694-12.121h0v82.43h18.073v-82.43Zm-45.657,12.121a20.38,20.38,0,0,1,7.015,1.1,11.679,11.679,0,0,1,4.877,3.285,15.048,15.048,0,0,1,2.932,5.721,34.421,34.421,0,0,1,1.188,8.395v51.813h18.074V22694.1a35.574,35.574,0,0,0-1.943-12.281,21.813,21.813,0,0,0-5.824-8.768,25.614,25.614,0,0,0-9.2-5.264,38.493,38.493,0,0,0-12.051-1.756,29.176,29.176,0,0,0-14.659,3.752,26.466,26.466,0,0,0-9.911,9.326h-.314v-42.254h-18.074v113.838h18.074v-48.627a25.054,25.054,0,0,1,1.426-8.447,21.86,21.86,0,0,1,3.965-6.939,18.017,18.017,0,0,1,6.182-4.621A19.681,19.681,0,0,1,13626.96,22680.381Zm-239.867-12.121h0v82.43h18.073v-39.215a38.607,38.607,0,0,1,1.748-12.121,26.737,26.737,0,0,1,4.754-8.848,19.917,19.917,0,0,1,7.058-5.416,20.627,20.627,0,0,1,8.639-1.84,32.971,32.971,0,0,1,3.885.236c1.468.184,2.737.367,3.883.561v-17.539c-1.016-.129-1.773-.229-2.458-.322a41.467,41.467,0,0,0-4.359-.158,21.517,21.517,0,0,0-8.089,1.6,28.044,28.044,0,0,0-7.207,4.215,30.483,30.483,0,0,0-5.551,5.824,18.5,18.5,0,0,0-3.088,6.545l-.32,0v-15.951Zm-165.826,0v0l29.8,82.43h20.3l29.324-82.43h-18.7l-19.98,63.3-.311,0-20.771-63.3h-19.66Zm-86.077-31.406h0v113.838h82.59v-17.219H13155v-33.322h57.079v-16.262H13155v-29.816h61.669v-17.219Zm-312.953,43.529a20.372,20.372,0,0,1,7.017,1.1,11.676,11.676,0,0,1,4.876,3.285c2.524,2.908,3.912,7.656,4.125,14.115v51.813h18.073V22694.1a35.566,35.566,0,0,0-1.944-12.281,21.848,21.848,0,0,0-5.823-8.768,25.606,25.606,0,0,0-9.2-5.264,38.482,38.482,0,0,0-12.05-1.756,28.778,28.778,0,0,0-14.746,3.908,30.557,30.557,0,0,0-10.775,10.762l-.32-.316v-12.121h-17.117v82.43h18.068v-48.627a25.146,25.146,0,0,1,1.426-8.447,21.866,21.866,0,0,1,3.965-6.939,17.986,17.986,0,0,1,6.187-4.621A19.634,19.634,0,0,1,12822.236,22680.381Zm-83.07,0a20.362,20.362,0,0,1,7.016,1.1,11.65,11.65,0,0,1,4.872,3.285c2.527,2.906,3.917,7.654,4.13,14.115v51.813h18.073V22694.1a35.536,35.536,0,0,0-1.943-12.281,21.815,21.815,0,0,0-5.83-8.768,25.54,25.54,0,0,0-9.2-5.264,38.495,38.495,0,0,0-12.052-1.756,28.767,28.767,0,0,0-14.74,3.908,30.557,30.557,0,0,0-10.775,10.762l-.32-.316v-12.121h-17.123v82.43h18.074v-48.627a25.03,25.03,0,0,1,1.426-8.447,21.876,21.876,0,0,1,3.965-6.939,18.1,18.1,0,0,1,6.181-4.621A19.681,19.681,0,0,1,12739.166,22680.381Zm933.451-43.529h0v17.219h18.073v-17.219Zm-1019.85,101.727a20.757,20.757,0,0,1-10.466-2.549,22.363,22.363,0,0,1-7.292-6.7,29.723,29.723,0,0,1-4.2-9.328,41.948,41.948,0,0,1,0-21.125,28.508,28.508,0,0,1,4.2-9.332,22.523,22.523,0,0,1,7.292-6.613,22.736,22.736,0,0,1,20.927,0,22.444,22.444,0,0,1,7.292,6.613,28.324,28.324,0,0,1,4.205,9.332,42.1,42.1,0,0,1,0,21.125,29.468,29.468,0,0,1-4.205,9.328,22.279,22.279,0,0,1-7.292,6.7A20.752,20.752,0,0,1,12652.768,22738.578Zm1168.4-2.234a18.946,18.946,0,0,1-9.75-2.393,20.806,20.806,0,0,1-6.656-6.219,27.726,27.726,0,0,1-3.885-8.693,39.284,39.284,0,0,1-1.271-9.963,49.171,49.171,0,0,1,1.111-10.285,28.762,28.762,0,0,1,3.649-9.246,20.391,20.391,0,0,1,6.657-6.613,19.018,19.018,0,0,1,10.145-2.551,21.19,21.19,0,0,1,10.066,2.234,18.778,18.778,0,0,1,6.816,6.059,27.422,27.422,0,0,1,3.884,8.762,41.15,41.15,0,0,1,1.271,10.209,46.936,46.936,0,0,1-1.191,10.445,28.877,28.877,0,0,1-3.81,9.242,20.157,20.157,0,0,1-6.811,6.539A19.947,19.947,0,0,1,13821.164,22736.344Zm-462.761-34.127h-42.168a24.384,24.384,0,0,1,1.816-8.6,23.009,23.009,0,0,1,4.444-6.939,19.865,19.865,0,0,1,6.652-4.621,21.8,21.8,0,0,1,8.645-1.674,18.636,18.636,0,0,1,8.322,1.834,20.387,20.387,0,0,1,6.342,4.781,22.028,22.028,0,0,1,4.119,6.934,29.533,29.533,0,0,1,1.827,8.285v0h0Zm-431.534,0H12884.7a24.533,24.533,0,0,1,1.822-8.6,23.167,23.167,0,0,1,4.439-6.939,19.974,19.974,0,0,1,6.662-4.621,21.743,21.743,0,0,1,8.639-1.674,18.6,18.6,0,0,1,8.318,1.834,20.347,20.347,0,0,1,6.342,4.781,22.3,22.3,0,0,1,4.129,6.934,29.693,29.693,0,0,1,1.816,8.285Z" transform="translate(-12497.002 -22629.996)" fill="#fff"></path></svg> 