<?xml version="1.0" encoding="UTF-8"?> <svg xmlns="http://www.w3.org/2000/svg" id="Layer_1" viewBox="0 0 80 80"><rect x="3.94" y="9.11" width="1" height="26.39" transform="translate(-.1 .02) rotate(-.25)"></rect><rect x="74.8" y="9.11" width="1" height="26.39" transform="translate(-.1 .34) rotate(-.26)"></rect><path d="M4.44,1.97c-1.81,0-3.27,1.46-3.27,3.27,0,1.81,1.46,3.27,3.27,3.27,1.81,0,3.27-1.46,3.27-3.27,0-1.81-1.46-3.27-3.27-3.27Zm0,5.54c-1.25,0-2.27-1.02-2.27-2.27,0-1.25,1.02-2.27,2.27-2.27,1.25,0,2.27,1.02,2.27,2.27,0,1.25-1.02,2.27-2.27,2.27Z"></path><path d="M40,8.51c1.81,0,3.27-1.46,3.27-3.27,0-1.81-1.46-3.27-3.27-3.27-1.81,0-3.27,1.46-3.27,3.27,0,1.81,1.46,3.27,3.27,3.27Zm0-5.54c1.25,0,2.27,1.02,2.27,2.27,0,1.25-1.02,2.27-2.27,2.27-1.25,0-2.27-1.02-2.27-2.27,0-1.25,1.02-2.27,2.27-2.27Z"></path><rect x="8.39" y="4.74" width="27.6" height="1"></rect><rect x="8.39" y="74.36" width="27.6" height="1"></rect><path d="M75.3,8.51c1.81,0,3.27-1.46,3.27-3.27,0-1.81-1.46-3.27-3.27-3.27-1.81,0-3.27,1.46-3.27,3.27,0,1.81,1.46,3.27,3.27,3.27Zm0-5.54c1.25,0,2.27,1.02,2.27,2.27,0,1.25-1.02,2.27-2.27,2.27-1.25,0-2.27-1.02-2.27-2.27,0-1.25,1.02-2.27,2.27-2.27Z"></path><path d="M4.44,36.78c-1.81,0-3.27,1.46-3.27,3.27,0,1.81,1.46,3.27,3.27,3.27,1.81,0,3.27-1.46,3.27-3.27,0-1.81-1.46-3.27-3.27-3.27Zm0,5.54c-1.25,0-2.27-1.02-2.27-2.27,0-1.25,1.02-2.27,2.27-2.27,1.25,0,2.27,1.02,2.27,2.27,0,1.25-1.02,2.27-2.27,2.27Z"></path><path d="M75.3,36.78c-1.81,0-3.27,1.46-3.27,3.27,0,1.81,1.46,3.27,3.27,3.27,1.81,0,3.27-1.46,3.27-3.27,0-1.81-1.46-3.27-3.27-3.27Zm0,5.54c-1.25,0-2.27-1.02-2.27-2.27,0-1.25,1.02-2.27,2.27-2.27,1.25,0,2.27,1.02,2.27,2.27,0,1.25-1.02,2.27-2.27,2.27Z"></path><path d="M9.76,39.42c-.12,.12-.19,.29-.19,.46s.07,.34,.19,.46,.29,.19,.46,.19,.34-.07,.46-.19,.19-.29,.19-.46-.07-.34-.19-.46c-.12-.12-.29-.19-.46-.19s-.34,.07-.46,.19Z"></path><path d="M13.8,39.9c0,.36,.29,.65,.64,.65,.36,0,.65-.29,.65-.64,0-.36-.29-.65-.64-.65-.36,0-.65,.29-.65,.64Z"></path><path d="M22.28,39.95c0,.36,.29,.65,.64,.65,.36,0,.65-.29,.65-.64,0-.36-.29-.65-.64-.65-.36,0-.65,.29-.65,.64Z"></path><path d="M26.51,39.97c0,.36,.29,.65,.64,.65,.36,0,.65-.29,.65-.64,0-.36-.29-.65-.64-.65-.36,0-.65,.29-.65,.64Z"></path><path d="M18.04,39.92c0,.36,.29,.65,.64,.65,.36,0,.65-.29,.65-.64,0-.36-.29-.65-.64-.65-.36,0-.65,.29-.65,.64Z"></path><path d="M65.94,40.2c0-.36-.29-.65-.64-.65-.36,0-.65,.29-.65,.64,0,.36,.29,.65,.64,.65,.36,0,.65-.29,.65-.64Z"></path><path d="M53.23,40.12c0-.36-.29-.65-.64-.65-.36,0-.65,.29-.65,.64,0,.36,.29,.65,.64,.65,.36,0,.65-.29,.65-.64Z"></path><path d="M44.1,40.72c.36,0,.65-.29,.65-.64,0-.36-.29-.65-.64-.65-.36,0-.65,.29-.65,.64,0,.36,.29,.65,.64,.65Z"></path><path d="M39.87,40.69c.36,0,.65-.29,.65-.64,0-.36-.29-.65-.64-.65-.36,0-.65,.29-.65,.64,0,.36,.29,.65,.64,.65Z"></path><path d="M61.7,40.17c0-.36-.29-.65-.64-.65-.36,0-.65,.29-.65,.64,0,.36,.29,.65,.64,.65,.36,0,.65-.29,.65-.64Z"></path><path d="M57.46,40.15c0-.36-.29-.65-.64-.65-.36,0-.65,.29-.65,.64,0,.36,.29,.65,.64,.65,.36,0,.65-.29,.65-.64Z"></path><path d="M30.75,39.99c0,.36,.29,.65,.64,.65,.36,0,.65-.29,.65-.64,0-.36-.29-.65-.64-.65-.36,0-.65,.29-.65,.64Z"></path><path d="M48.99,40.1c0-.36-.29-.65-.64-.65-.36,0-.65,.29-.65,.64,0,.36,.29,.65,.64,.65,.36,0,.65-.29,.65-.64Z"></path><path d="M35.64,39.38c-.36,0-.65,.29-.65,.64,0,.36,.29,.65,.64,.65,.36,0,.65-.29,.65-.64,0-.36-.29-.65-.64-.65Z"></path><path d="M69.99,40.67c.12-.12,.19-.29,.19-.46s-.07-.34-.19-.46-.29-.19-.46-.19-.34,.07-.46,.19-.19,.29-.19,.46,.07,.34,.19,.46c.12,.12,.29,.19,.46,.19s.34-.07,.46-.19Z"></path><polygon points="40.5 9.11 39.5 9.11 39.5 26.09 30.98 34.63 31.69 35.34 40.5 26.5 40.5 9.11"></polygon><rect x="74.8" y="44.59" width="1" height="26.39" transform="translate(-.26 .34) rotate(-.26)"></rect><rect x="3.94" y="44.59" width="1" height="26.39" transform="translate(-.26 .02) rotate(-.26)"></rect><path d="M75.3,71.59c-1.81,0-3.27,1.46-3.27,3.27,0,1.81,1.46,3.27,3.27,3.27,1.81,0,3.27-1.46,3.27-3.27,0-1.81-1.46-3.27-3.27-3.27Zm0,5.54c-1.25,0-2.27-1.02-2.27-2.27,0-1.25,1.02-2.27,2.27-2.27,1.25,0,2.27,1.02,2.27,2.27,0,1.25-1.02,2.27-2.27,2.27Z"></path><path d="M39.74,71.59c-1.81,0-3.27,1.46-3.27,3.27,0,1.81,1.46,3.27,3.27,3.27,1.81,0,3.27-1.46,3.27-3.27,0-1.81-1.46-3.27-3.27-3.27Zm0,5.54c-1.25,0-2.27-1.02-2.27-2.27,0-1.25,1.02-2.27,2.27-2.27,1.25,0,2.27,1.02,2.27,2.27,0,1.25-1.02,2.27-2.27,2.27Z"></path><rect x="43.74" y="74.36" width="27.6" height="1"></rect><rect x="43.74" y="4.74" width="27.6" height="1"></rect><path d="M4.44,71.59c-1.81,0-3.27,1.46-3.27,3.27,0,1.81,1.46,3.27,3.27,3.27,1.81,0,3.27-1.46,3.27-3.27,0-1.81-1.46-3.27-3.27-3.27Zm0,5.54c-1.25,0-2.27-1.02-2.27-2.27,0-1.25,1.02-2.27,2.27-2.27,1.25,0,2.27,1.02,2.27,2.27,0,1.25-1.02,2.27-2.27,2.27Z"></path><polygon points="39.24 70.98 40.24 70.98 40.24 54.01 48.76 45.46 48.05 44.75 39.24 53.59 39.24 70.98"></polygon></svg> 