<?xml version="1.0" encoding="UTF-8"?> <svg xmlns="http://www.w3.org/2000/svg" id="Layer_1" viewBox="0 0 80 80"><defs><style>.cls-1{fill:#fff;}</style></defs><path d="M77.73,40h0c0,.41,.34,.75,.75,.75s.75-.34,.75-.75-.34-.75-.75-.75-.75,.34-.75,.75Zm0-.16h0c0,.41,.34,.75,.75,.75s.75-.34,.75-.75-.34-.75-.75-.75-.75,.34-.75,.75Zm-.34-4.92h0c.06,.41,.43,.7,.84,.64s.7-.43,.64-.84-.43-.7-.84-.64-.7,.43-.64,.84Zm-.98-4.83h0c.11,.4,.52,.64,.92,.53,.4-.11,.64-.52,.53-.92h0c-.11-.4-.52-.64-.92-.53s-.64,.52-.53,.92h0Zm-1.6-4.66h0c.16,.38,.6,.56,.98,.4s.56-.6,.4-.98h0c-.16-.38-.6-.56-.98-.4s-.56,.6-.4,.98h0Zm-2.2-4.41h0c.21,.36,.67,.48,1.03,.27s.48-.67,.27-1.03-.67-.48-1.03-.27-.48,.67-.27,1.03Zm-2.76-4.09h0c.25,.33,.72,.39,1.05,.13s.39-.72,.13-1.05h0c-.25-.33-.72-.39-1.05-.13s-.39,.72-.13,1.05h0Zm-3.27-3.7h0c.29,.29,.77,.29,1.06,0s.29-.77,0-1.06-.77-.29-1.06,0-.29,.77,0,1.06Zm-3.72-3.24h0c.33,.25,.8,.19,1.05-.14,.25-.33,.19-.8-.14-1.05h0c-.33-.25-.8-.19-1.05,.14-.25,.33-.19,.8,.14,1.05h0Zm-4.11-2.73h0c.36,.21,.82,.08,1.02-.28s.08-.82-.28-1.02h0c-.36-.21-.82-.08-1.02,.28-.21,.36-.08,.82,.28,1.02h0Zm-4.43-2.17h0c.38,.16,.82-.03,.98-.41,.16-.38-.03-.82-.41-.98s-.82,.03-.98,.41c-.16,.38,.03,.82,.41,.98Zm-4.68-1.57h0c.4,.11,.81-.13,.92-.53,.11-.4-.13-.81-.53-.92h0c-.4-.11-.81,.13-.92,.53s.13,.81,.53,.92h0Zm-4.84-.94h0c.41,.05,.79-.24,.84-.65s-.24-.79-.65-.84h0c-.41-.05-.79,.24-.84,.65s.24,.79,.65,.84h0Zm-4.92-.3h0c.41,0,.75-.34,.75-.75s-.34-.75-.75-.75h0c-.41,0-.75,.34-.75,.75s.34,.75,.75,.75h0Zm-4.92,.33h0c.41-.05,.7-.43,.64-.84s-.43-.7-.84-.64h0c-.41,.05-.7,.43-.64,.84s.43,.7,.84,.64h0Zm-4.84,.97h0c.4-.11,.64-.52,.53-.92s-.52-.64-.92-.53h0c-.4,.11-.64,.52-.53,.92s.52,.64,.92,.53h0Zm-4.67,1.6h0c.38-.16,.56-.6,.4-.98-.16-.38-.6-.56-.98-.4h0c-.38,.16-.56,.6-.4,.98,.16,.38,.6,.56,.98,.4h0Zm-4.41,2.2h0c.36-.21,.48-.67,.27-1.03s-.67-.48-1.03-.27-.48,.67-.27,1.03,.67,.48,1.03,.27Zm-4.09,2.75h0c.33-.25,.39-.72,.14-1.05s-.72-.39-1.05-.14h0c-.33,.25-.39,.72-.14,1.05,.25,.33,.72,.39,1.05,.14h0Zm-3.7,3.26h0c.29-.29,.29-.77,0-1.06s-.77-.29-1.06,0-.29,.77,0,1.06,.77,.29,1.06,0Zm-3.25,3.72h0c.25-.33,.19-.8-.14-1.05-.33-.25-.8-.19-1.05,.14s-.19,.8,.14,1.05c.33,.25,.8,.19,1.05-.14Zm-2.74,4.11h0c.21-.36,.08-.82-.28-1.02s-.82-.08-1.02,.28h0c-.21,.36-.08,.82,.28,1.02,.36,.21,.82,.08,1.02-.28h0Zm-2.18,4.43h0c.16-.38-.02-.82-.41-.98s-.82,.02-.98,.41h0c-.16,.38,.02,.82,.41,.98,.38,.16,.82-.02,.98-.41h0Zm-1.58,4.68h0c.11-.4-.13-.81-.53-.92-.4-.11-.81,.13-.92,.53s.13,.81,.53,.92c.4,.11,.81-.13,.92-.53Zm-.95,4.84h0c.05-.41-.24-.79-.65-.84-.41-.05-.79,.24-.84,.65h0c-.05,.41,.24,.79,.65,.84,.41,.05,.79-.24,.84-.65h0Zm-.31,4.92h0c0-.41-.34-.75-.75-.75s-.75,.34-.75,.75,.34,.75,.75,.75,.75-.34,.75-.75Zm.33,4.92h0c-.05-.41-.43-.7-.84-.65-.41,.05-.7,.43-.65,.84h0c.05,.41,.43,.7,.84,.65,.41-.05,.7-.43,.65-.84h0Zm.97,4.84h0c-.11-.4-.52-.64-.92-.53s-.64,.52-.53,.92h0c.11,.4,.52,.64,.92,.53s.64-.52,.53-.92h0Zm1.59,4.67h0c-.16-.38-.6-.56-.98-.4s-.56,.6-.4,.98h0c.16,.38,.6,.56,.98,.4s.56-.6,.4-.98h0Zm2.19,4.42h0c-.21-.36-.67-.48-1.03-.27s-.48,.67-.27,1.03,.67,.48,1.03,.27c.36-.21,.48-.67,.27-1.03Zm2.75,4.09h0c-.25-.33-.72-.39-1.05-.14s-.39,.72-.14,1.05h0c.25,.33,.72,.39,1.05,.14,.33-.25,.39-.72,.14-1.05h0Zm3.26,3.7h0c-.29-.29-.77-.29-1.06,0s-.29,.77,0,1.06h0c.29,.29,.77,.29,1.06,0,.29-.29,.29-.77,0-1.06h0Zm3.71,3.25h0c-.33-.25-.8-.19-1.05,.14-.25,.33-.19,.8,.14,1.05h0c.33,.25,.8,.19,1.05-.14s.19-.8-.14-1.05h0Zm4.1,2.74h0c-.36-.21-.82-.08-1.02,.27s-.08,.82,.27,1.02,.82,.08,1.02-.27,.08-.82-.27-1.02Zm4.43,2.18h0c-.38-.16-.82,.02-.98,.41-.16,.38,.02,.82,.41,.98s.82-.02,.98-.41c.16-.38-.02-.82-.41-.98Zm4.68,1.58h0c-.4-.11-.81,.13-.92,.53-.11,.4,.13,.81,.53,.92h0c.4,.11,.81-.13,.92-.53s-.13-.81-.53-.92h0Zm4.84,.95h0c-.41-.05-.79,.24-.84,.65-.05,.41,.24,.79,.65,.84h0c.41,.05,.79-.24,.84-.65s-.24-.79-.65-.84h0Zm4.92,.31h0c-.41,0-.75,.34-.75,.75s.34,.75,.75,.75h0c.41,0,.75-.34,.75-.75s-.34-.75-.75-.75h0Zm4.92-.32h0c-.41,.05-.7,.43-.65,.84,.05,.41,.43,.7,.84,.65s.7-.43,.65-.84c-.05-.41-.43-.7-.84-.65Zm4.84-.96h0c-.4,.11-.64,.52-.53,.92,.11,.4,.52,.64,.92,.53h0c.4-.11,.64-.52,.53-.92-.11-.4-.52-.64-.92-.53Zm4.67-1.59h0c-.38,.16-.56,.6-.4,.98,.16,.38,.6,.56,.98,.4h0c.38-.16,.56-.6,.4-.98s-.6-.56-.98-.4h0Zm4.42-2.19h0c-.36,.21-.48,.67-.27,1.02,.21,.36,.67,.48,1.02,.27s.48-.67,.27-1.02c-.21-.36-.67-.48-1.02-.27Zm4.1-2.75h0c-.33,.25-.39,.72-.14,1.05s.72,.39,1.05,.14h0c.33-.25,.39-.72,.14-1.05s-.72-.39-1.05-.14h0Zm3.71-3.26h0c-.29,.29-.29,.77,0,1.06s.77,.29,1.06,0h0c.29-.29,.29-.77,0-1.06s-.77-.29-1.06,0h0Zm3.25-3.71h0c-.25,.33-.19,.8,.14,1.05s.8,.19,1.05-.14h0c.25-.33,.19-.8-.14-1.05-.33-.25-.8-.19-1.05,.14h0Zm2.74-4.1h0c-.21,.36-.08,.82,.27,1.02,.36,.21,.82,.08,1.02-.27h0c.21-.36,.08-.82-.27-1.02-.36-.21-.82-.08-1.02,.27h0Zm2.18-4.42h0c-.16,.38,.02,.82,.41,.98,.38,.16,.82-.02,.98-.41h0c.16-.38-.02-.82-.41-.98-.38-.16-.82,.02-.98,.41h0Zm1.59-4.67h0c-.11,.4,.13,.81,.53,.92,.4,.11,.81-.13,.92-.53s-.13-.81-.53-.92c-.4-.11-.81,.13-.92,.53Zm.96-4.84h0c-.05,.41,.24,.79,.65,.84,.41,.05,.79-.24,.84-.65s-.24-.79-.65-.84c-.41-.05-.79,.24-.84,.65Z"></path><circle class="cls-1" cx="40" cy="66.24" r="7.36"></circle><path d="M32.64,66.24h.5c0-1.9,.77-3.61,2.01-4.85,1.24-1.24,2.96-2.01,4.85-2.01,1.9,0,3.61,.77,4.85,2.01,1.24,1.24,2.01,2.96,2.01,4.85,0,1.9-.77,3.61-2.01,4.85-1.24,1.24-2.96,2.01-4.85,2.01-1.9,0-3.61-.77-4.85-2.01-1.24-1.24-2.01-2.96-2.01-4.85h-1c0,4.34,3.52,7.86,7.86,7.86,4.34,0,7.86-3.52,7.86-7.86,0-4.34-3.52-7.86-7.86-7.86-4.34,0-7.86,3.52-7.86,7.86h.5Z"></path><circle class="cls-1" cx="40" cy="13.87" r="7.36" transform="translate(-.71 2.23) rotate(-3.17)"></circle><path d="M32.64,13.87h.5c0-1.9,.77-3.61,2.01-4.85,1.24-1.24,2.96-2.01,4.85-2.01,1.9,0,3.61,.77,4.85,2.01,1.24,1.24,2.01,2.96,2.01,4.85,0,1.9-.77,3.61-2.01,4.85-1.24,1.24-2.96,2.01-4.85,2.01-1.9,0-3.61-.77-4.85-2.01-1.24-1.24-2.01-2.96-2.01-4.85h-1c0,4.34,3.52,7.86,7.86,7.86,4.34,0,7.86-3.52,7.86-7.86,0-4.34-3.52-7.86-7.86-7.86-4.34,0-7.86,3.52-7.86,7.86h.5Z"></path><circle class="cls-1" cx="66.18" cy="40.05" r="7.36"></circle><path d="M66.18,47.41v-.5c-1.9,0-3.61-.77-4.85-2.01-1.24-1.24-2.01-2.96-2.01-4.85,0-1.9,.77-3.61,2.01-4.85,1.24-1.24,2.96-2.01,4.85-2.01,1.9,0,3.61,.77,4.85,2.01,1.24,1.24,2.01,2.96,2.01,4.85,0,1.9-.77,3.61-2.01,4.85-1.24,1.24-2.96,2.01-4.85,2.01v1c4.34,0,7.86-3.52,7.86-7.86,0-4.34-3.52-7.86-7.86-7.86-4.34,0-7.86,3.52-7.86,7.86,0,4.34,3.52,7.86,7.86,7.86v-.5Z"></path><path d="M40,48.8h0c-.41,0-.75,.34-.75,.75s.34,.75,.75,.75,.75-.34,.75-.75-.34-.75-.75-.75Zm.04,0h0c-.41,0-.75,.34-.75,.75s.34,.75,.75,.75h0c.41,0,.75-.34,.75-.75s-.34-.75-.75-.75h0Zm4.39-1.19h0c-.36,.21-.48,.67-.27,1.03,.21,.36,.67,.48,1.03,.27h0c.36-.21,.48-.67,.27-1.03-.21-.36-.67-.48-1.03-.27h0Zm3.21-3.23h0c-.21,.36-.08,.82,.28,1.02,.36,.21,.82,.08,1.02-.28h0c.21-.36,.08-.82-.28-1.02-.36-.21-.82-.08-1.02,.28h0Zm1.16-4.4h0c0,.41,.34,.75,.75,.75,.41,0,.75-.34,.75-.75h0c0-.41-.34-.75-.75-.75s-.75,.34-.75,.75h0Zm-1.19-4.4h0c.21,.36,.67,.48,1.03,.27,.36-.21,.48-.67,.27-1.03s-.67-.48-1.03-.27c-.36,.21-.48,.67-.27,1.03Zm-3.23-3.21h0c.36,.21,.82,.08,1.02-.28s.08-.82-.28-1.02h0c-.36-.21-.82-.08-1.02,.28-.21,.36-.08,.82,.28,1.02h0Zm-4.4-1.17h0c.41,0,.75-.34,.75-.75s-.34-.75-.75-.75-.75,.34-.75,.75,.34,.75,.75,.75Zm-4.4,1.19h0c.36-.21,.48-.67,.27-1.03-.21-.36-.67-.48-1.03-.27h0c-.36,.21-.48,.67-.27,1.03,.21,.36,.67,.48,1.03,.27h0Zm-3.22,3.23h0c.21-.36,.08-.82-.28-1.02s-.82-.08-1.02,.28h0c-.21,.36-.08,.82,.27,1.02s.82,.08,1.02-.27h0Zm-1.17,4.4h0c0-.41-.34-.75-.75-.75-.41,0-.75,.34-.75,.75s.34,.75,.75,.75c.41,0,.75-.34,.75-.75Zm1.18,4.4h0c-.21-.36-.67-.48-1.02-.27s-.48,.67-.27,1.02h0c.21,.36,.67,.48,1.02,.27s.48-.67,.27-1.02h0Zm3.22,3.22h0c-.36-.21-.82-.08-1.02,.27-.21,.36-.08,.82,.27,1.02h0c.36,.21,.82,.08,1.02-.27s.08-.82-.27-1.02h0Z"></path><circle class="cls-1" cx="13.82" cy="40.05" r="7.36"></circle><path d="M13.82,47.41v-.5c-1.9,0-3.61-.77-4.85-2.01-1.24-1.24-2.01-2.96-2.01-4.85,0-1.9,.77-3.61,2.01-4.85,1.24-1.24,2.96-2.01,4.85-2.01,1.9,0,3.61,.77,4.85,2.01,1.24,1.24,2.01,2.96,2.01,4.85,0,1.9-.77,3.61-2.01,4.85-1.24,1.24-2.96,2.01-4.85,2.01v1c4.34,0,7.86-3.52,7.86-7.86,0-4.34-3.52-7.86-7.86-7.86-4.34,0-7.86,3.52-7.86,7.86,0,4.34,3.52,7.86,7.86,7.86v-.5Z"></path><circle class="cls-1" cx="58.52" cy="58.57" r="5.15"></circle><path d="M54.87,62.21l.35-.35c-.91-.91-1.36-2.1-1.36-3.29,0-1.19,.45-2.38,1.36-3.29,.91-.91,2.1-1.36,3.29-1.36,1.19,0,2.38,.45,3.29,1.36,.91,.91,1.36,2.1,1.36,3.29,0,1.19-.45,2.38-1.36,3.29-.91,.91-2.1,1.36-3.29,1.36-1.19,0-2.38-.45-3.29-1.36l-.35,.35-.35,.35c1.1,1.1,2.55,1.66,4,1.66,1.45,0,2.89-.55,4-1.66,1.1-1.1,1.66-2.55,1.66-4,0-1.45-.55-2.89-1.66-4-1.1-1.1-2.55-1.66-4-1.66-1.45,0-2.89,.55-4,1.66-1.1,1.1-1.66,2.55-1.66,4,0,1.45,.55,2.89,1.66,4l.35-.35Z"></path><circle class="cls-1" cx="21.49" cy="21.54" r="5.15"></circle><path d="M17.84,25.18l.35-.35c-.91-.91-1.36-2.1-1.36-3.29,0-1.19,.45-2.38,1.36-3.29,.91-.91,2.1-1.36,3.29-1.36,1.19,0,2.38,.45,3.29,1.36,.91,.91,1.36,2.1,1.36,3.29,0,1.19-.45,2.38-1.36,3.29-.91,.91-2.1,1.36-3.29,1.36-1.19,0-2.38-.45-3.29-1.36l-.35,.35-.35,.35c1.1,1.1,2.55,1.66,4,1.66,1.45,0,2.89-.55,4-1.66,1.1-1.1,1.66-2.55,1.66-4,0-1.45-.55-2.89-1.66-4-1.1-1.1-2.55-1.66-4-1.66-1.45,0-2.89,.55-4,1.66-1.1,1.1-1.66,2.55-1.66,4,0,1.45,.55,2.89,1.66,4l.35-.35Z"></path><circle class="cls-1" cx="58.52" cy="21.54" r="5.15"></circle><path d="M62.16,25.18l-.35-.35c-.91,.91-2.1,1.36-3.29,1.36-1.19,0-2.38-.45-3.29-1.36-.91-.91-1.36-2.1-1.36-3.29,0-1.19,.45-2.38,1.36-3.29,.91-.91,2.1-1.36,3.29-1.36,1.19,0,2.38,.45,3.29,1.36,.91,.91,1.36,2.1,1.36,3.29,0,1.19-.45,2.38-1.36,3.29l.35,.35,.35,.35c1.1-1.1,1.66-2.55,1.66-4,0-1.45-.55-2.89-1.66-4-1.1-1.1-2.55-1.66-4-1.66-1.45,0-2.89,.55-4,1.66-1.1,1.1-1.66,2.55-1.66,4,0,1.45,.55,2.89,1.66,4,1.1,1.1,2.55,1.66,4,1.66,1.45,0,2.89-.55,4-1.66l-.35-.35Z"></path><circle class="cls-1" cx="21.49" cy="58.57" r="5.15"></circle><path d="M25.13,62.21l-.35-.35c-.91,.91-2.1,1.36-3.29,1.36-1.19,0-2.38-.45-3.29-1.36-.91-.91-1.36-2.1-1.36-3.29,0-1.19,.45-2.38,1.36-3.29,.91-.91,2.1-1.36,3.29-1.36,1.19,0,2.38,.45,3.29,1.36,.91,.91,1.36,2.1,1.36,3.29,0,1.19-.45,2.38-1.36,3.29l.35,.35,.35,.35c1.1-1.1,1.66-2.55,1.66-4,0-1.45-.55-2.89-1.66-4-1.1-1.1-2.55-1.66-4-1.66-1.45,0-2.89,.55-4,1.66-1.1,1.1-1.66,2.55-1.66,4,0,1.45,.55,2.89,1.66,4,1.1,1.1,2.55,1.66,4,1.66,1.45,0,2.89-.55,4-1.66l-.35-.35Z"></path></svg> 