<?xml version="1.0" encoding="UTF-8"?> <svg xmlns="http://www.w3.org/2000/svg" width="1066" height="172.002" viewBox="0 0 1066 172.002"><path id="Subtraction_38" data-name="Subtraction 38" d="M1079,172H13V0H1079V172ZM741.66,123.96a11.446,11.446,0,0,0-4.455.844,9.594,9.594,0,0,0-3.51,2.531,12.305,12.305,0,0,0-2.835,8.37c0,3.635.923,6.512,2.745,8.55,1.9,2.211,4.551,3.285,8.1,3.285,5.762,0,9.325-2.754,10.3-7.965l-3.915-.315a5.685,5.685,0,0,1-1.986,3.8,7,7,0,0,1-4.449,1.237,5.908,5.908,0,0,1-4.748-1.811c-1.06-1.218-1.6-3.024-1.643-5.524h17.055a15.144,15.144,0,0,0-1.89-8.55A10.169,10.169,0,0,0,741.66,123.96Zm-65.79,0a11.445,11.445,0,0,0-4.455.844,9.594,9.594,0,0,0-3.51,2.531,12.306,12.306,0,0,0-2.835,8.37c0,3.635.924,6.512,2.745,8.55,1.9,2.211,4.551,3.285,8.1,3.285,5.762,0,9.325-2.754,10.305-7.965l-3.915-.315a5.686,5.686,0,0,1-1.986,3.8,7,7,0,0,1-4.449,1.237,5.907,5.907,0,0,1-4.747-1.811c-1.06-1.217-1.6-3.024-1.642-5.524h17.055a15.144,15.144,0,0,0-1.89-8.55A10.168,10.168,0,0,0,675.87,123.96Zm-83.25,0a11.445,11.445,0,0,0-4.455.844,9.594,9.594,0,0,0-3.51,2.531,12.306,12.306,0,0,0-2.835,8.37c0,3.635.924,6.512,2.745,8.55,1.9,2.211,4.551,3.285,8.1,3.285,5.762,0,9.325-2.754,10.3-7.965l-3.915-.315a5.686,5.686,0,0,1-1.986,3.8,7,7,0,0,1-4.449,1.237,5.908,5.908,0,0,1-4.748-1.811c-1.06-1.218-1.6-3.025-1.642-5.524h17.055a15.144,15.144,0,0,0-1.89-8.55A10.168,10.168,0,0,0,592.62,123.96Zm-75.78,0c-6.11,0-10.215,4.738-10.215,11.79a12.608,12.608,0,0,0,2.931,8.646,9.31,9.31,0,0,0,3.277,2.334,10.516,10.516,0,0,0,4.142.811,8.014,8.014,0,0,0,7.11-3.825V147h4.05V115.5h-4.05v11.925A8.287,8.287,0,0,0,516.84,123.96Zm-49.32,3.2c1.913,0,3.444.555,4.1,1.485s.765,2,.765,4.1l-7.425,1.44a13.5,13.5,0,0,0-5.158,1.873,5.7,5.7,0,0,0-2.492,5.012,5.891,5.891,0,0,0,2.363,4.894,8.655,8.655,0,0,0,5.2,1.586,10.336,10.336,0,0,0,4.742-.973,6.312,6.312,0,0,0,2.818-2.9,3.822,3.822,0,0,0,1.181,2.632,4.265,4.265,0,0,0,2.869.878A15.427,15.427,0,0,0,479,147l-.09-3.33a5.552,5.552,0,0,1-1.305.18c-1.3,0-1.3-.536-1.3-1.71V131.385a6.992,6.992,0,0,0-2.149-5.552c-1.429-1.243-3.582-1.873-6.4-1.873a12.528,12.528,0,0,0-6.885,1.665c-1.761,1.174-2.7,3.142-2.79,5.85l3.96.54a4.651,4.651,0,0,1,1.277-3.713C464.185,127.519,465.524,127.155,467.52,127.155Zm-38.79,12.1-3.69.36a7.154,7.154,0,0,0,1.993,5.307c1.671,1.685,4.352,2.613,7.547,2.613a12.186,12.186,0,0,0,6.339-1.474,6.134,6.134,0,0,0,2.931-5.591,6,6,0,0,0-.74-3.086,5.363,5.363,0,0,0-1.953-1.913,19.818,19.818,0,0,0-5.945-1.872l-.5-.1c-2.655-.575-5.4-1.17-5.4-3.24,0-2.038,2.264-3.1,4.5-3.1a6.3,6.3,0,0,1,4.134,1.221,4.569,4.569,0,0,1,1.536,3.549l3.78-.585a7.38,7.38,0,0,0-3.1-5.749,11.021,11.021,0,0,0-6.306-1.631,10.287,10.287,0,0,0-5.664,1.53,5.81,5.81,0,0,0-2.661,5.04,5.167,5.167,0,0,0,2.256,4.556,15.783,15.783,0,0,0,4.989,1.924c.579.151,1.2.287,1.807.418,2.673.582,5.438,1.184,5.438,3.272a3.064,3.064,0,0,1-1.384,2.717,7.585,7.585,0,0,1-4.151.928,6.088,6.088,0,0,1-4.46-1.593A4.742,4.742,0,0,1,428.73,139.26Zm-52.65-12.1c1.913,0,3.444.555,4.1,1.485s.765,2,.765,4.1l-7.425,1.44a13.5,13.5,0,0,0-5.158,1.873,5.7,5.7,0,0,0-2.492,5.012,5.891,5.891,0,0,0,2.363,4.894,8.655,8.655,0,0,0,5.2,1.586,10.336,10.336,0,0,0,4.742-.973,6.312,6.312,0,0,0,2.818-2.9,3.822,3.822,0,0,0,1.181,2.632,4.265,4.265,0,0,0,2.869.878,15.428,15.428,0,0,0,2.52-.18l-.09-3.33a5.552,5.552,0,0,1-1.305.18c-1.3,0-1.3-.536-1.3-1.71V131.385a6.992,6.992,0,0,0-2.149-5.552c-1.429-1.243-3.582-1.873-6.4-1.873a12.529,12.529,0,0,0-6.885,1.665c-1.761,1.174-2.7,3.142-2.79,5.85l3.96.54a4.651,4.651,0,0,1,1.277-3.713C372.745,127.519,374.084,127.155,376.08,127.155Zm-48.285-3.2a10.779,10.779,0,0,0-8.162,3.3,13.77,13.77,0,0,0,0,17.156,12.092,12.092,0,0,0,14.788,1.119,8.471,8.471,0,0,0,3.319-5.417l-3.825-.405a6.121,6.121,0,0,1-2.081,3.51,6.555,6.555,0,0,1-4.039,1.08c-2.574,0-4.338-.775-5.394-2.368-.894-1.349-1.311-3.313-1.311-6.182,0-3.012.472-5.057,1.485-6.435,1.091-1.423,2.8-2.115,5.22-2.115,4.2,0,5.452,2.766,6.075,5.175l3.78-.72a9.635,9.635,0,0,0-3.122-5.451A10.086,10.086,0,0,0,327.8,123.96Zm426.78.54v3.375h3.24V141.96c0,3.641,1.86,5.265,6.03,5.265A14.471,14.471,0,0,0,766.32,147l-.09-3.645a13.737,13.737,0,0,1-2.07.225c-1.65,0-2.34-.244-2.34-1.755v-13.95h4.59V124.5h-4.59v-6.255h-4V124.5Zm-103.68,0v3.375h3.24V141.96c0,3.641,1.86,5.265,6.03,5.265A14.474,14.474,0,0,0,662.64,147l-.09-3.645a13.735,13.735,0,0,1-2.07.225c-1.65,0-2.34-.244-2.34-1.755v-13.95h4.59V124.5h-4.59v-6.255h-4V124.5Zm-108.72,0v3.375h3.24V141.96c0,3.641,1.86,5.265,6.03,5.265A14.475,14.475,0,0,0,553.92,147l-.09-3.645a13.733,13.733,0,0,1-2.07.225c-1.65,0-2.34-.244-2.34-1.755v-13.95h4.59V124.5h-4.59v-6.255h-4V124.5ZM769.92,142.23V147h4.545v-4.77Zm-53.01-14.895a5.15,5.15,0,0,1,4,1.3c1.353,1.265,1.351,3.011,1.35,5.032V147h4.185V133.635c0-2.22,0-5.261-1.755-7.155-1.629-1.719-3.76-2.52-6.705-2.52a8.556,8.556,0,0,0-4.393,1.035,6.267,6.267,0,0,0-2.537,2.925V124.5h-4.05V147h4.05V134.58c0-2.8.734-4.836,2.182-6.036A5.721,5.721,0,0,1,716.91,127.335ZM691.125,124.5V147h4.05V136.335c0-3.388.683-5.683,2.087-7.014,1.152-1.093,2.785-1.581,5.293-1.581a6.935,6.935,0,0,1,1.035.045l.09-3.825h-.153c-.467,0-1.085.008-1.377.044a9.542,9.542,0,0,0-4.635,1.519,5.584,5.584,0,0,0-2.34,2.936V124.5Zm-53.28,2.835a5.15,5.15,0,0,1,4.005,1.3c1.352,1.265,1.351,3.01,1.35,5.031V147h4.185V133.635c0-2.22,0-5.261-1.755-7.155-1.629-1.719-3.759-2.52-6.7-2.52a8.556,8.556,0,0,0-4.393,1.035A6.266,6.266,0,0,0,632,127.92V124.5h-4.05V147H632V134.58c0-2.8.734-4.836,2.182-6.036A5.721,5.721,0,0,1,637.845,127.335Zm-19.89-2.835V147h4.05V124.5Zm-50.085,2.835a5.15,5.15,0,0,1,4.005,1.3c1.353,1.265,1.351,2.969,1.35,4.942V147h4.185V133.545c0-2.183,0-5.171-1.755-7.065-1.629-1.719-3.759-2.52-6.705-2.52-3.338,0-5.735,1.354-6.93,3.915V115.5h-4.05V147h4.05V134.355c0-2.837.729-4.841,2.166-5.957A5.87,5.87,0,0,1,567.87,127.335Zm-75.195,0a5.15,5.15,0,0,1,4,1.3c1.353,1.265,1.351,3.011,1.35,5.031V147h4.185V133.635c0-2.22,0-5.261-1.755-7.155-1.629-1.719-3.759-2.52-6.7-2.52a8.556,8.556,0,0,0-4.393,1.035,6.266,6.266,0,0,0-2.537,2.925V124.5h-4.05V147h4.05V134.58c0-2.8.734-4.836,2.183-6.036A5.721,5.721,0,0,1,492.675,127.335Zm-81.45,0a5.15,5.15,0,0,1,4,1.3c1.353,1.265,1.351,3.011,1.35,5.031V147h4.185V133.635c0-2.22,0-5.261-1.755-7.155-1.629-1.719-3.759-2.52-6.7-2.52a8.556,8.556,0,0,0-4.393,1.035,6.266,6.266,0,0,0-2.537,2.925V124.5h-4.05V147h4.05V134.58c0-2.8.734-4.836,2.183-6.036A5.721,5.721,0,0,1,411.225,127.335Zm-19.89-2.835V147h4.05V124.5Zm-39.555,2.835a5.15,5.15,0,0,1,4.005,1.3c1.353,1.265,1.351,2.969,1.35,4.942V147h4.185V133.545c0-2.183,0-5.171-1.755-7.065-1.629-1.719-3.759-2.52-6.705-2.52-3.338,0-5.735,1.354-6.93,3.915V115.5h-4.05V147h4.05V134.355c0-2.837.729-4.841,2.166-5.957A5.87,5.87,0,0,1,351.78,127.335ZM617.955,115.5v4.77h4.05V115.5Zm-226.62,0v4.77h4.05V115.5Zm-294.8-39V108h4.05V96.075a8.287,8.287,0,0,0,7.245,3.465c6.11,0,10.215-4.738,10.215-11.79A12.608,12.608,0,0,0,115.12,79.1a9.31,9.31,0,0,0-3.277-2.334,10.516,10.516,0,0,0-4.142-.811,8.014,8.014,0,0,0-7.11,3.825V76.5ZM70.4,76.5V108h4.05V96.075A8.287,8.287,0,0,0,81.69,99.54c6.11,0,10.215-4.738,10.215-11.79A12.608,12.608,0,0,0,88.975,79.1,9.31,9.31,0,0,0,85.7,76.771a10.516,10.516,0,0,0-4.142-.811,8.014,8.014,0,0,0-7.11,3.825V76.5Zm950.31-.54a11.444,11.444,0,0,0-4.455.844,9.594,9.594,0,0,0-3.51,2.531,12.307,12.307,0,0,0-2.835,8.37c0,3.635.923,6.512,2.745,8.55,1.9,2.211,4.551,3.285,8.1,3.285,5.762,0,9.325-2.754,10.3-7.965l-3.915-.315a5.685,5.685,0,0,1-1.986,3.8,7,7,0,0,1-4.449,1.237,5.908,5.908,0,0,1-4.748-1.811c-1.06-1.218-1.6-3.025-1.642-5.524h17.055a15.147,15.147,0,0,0-1.89-8.55A10.169,10.169,0,0,0,1020.705,75.96Zm-63.855,0a10.886,10.886,0,0,0-8.241,3.33,10.776,10.776,0,0,0-2.232,3.732,14.013,14.013,0,0,0-.777,4.728,12.234,12.234,0,0,0,2.992,8.646,11.053,11.053,0,0,0,8.258,3.144,10.874,10.874,0,0,0,8.134-3.246,12.117,12.117,0,0,0,3.071-8.544,13.867,13.867,0,0,0-.783-4.709A10.512,10.512,0,0,0,956.85,75.96Zm-74.835,0a10.887,10.887,0,0,0-8.241,3.33,10.776,10.776,0,0,0-2.232,3.732,14.011,14.011,0,0,0-.777,4.728,12.234,12.234,0,0,0,2.992,8.646,11.053,11.053,0,0,0,8.258,3.144,10.875,10.875,0,0,0,8.134-3.246,12.117,12.117,0,0,0,3.071-8.544,13.865,13.865,0,0,0-.783-4.709,10.512,10.512,0,0,0-10.423-7.081Zm-63.72,3.2c1.913,0,3.444.555,4.095,1.485s.765,2,.765,4.1l-7.425,1.44a13.5,13.5,0,0,0-5.158,1.873,5.7,5.7,0,0,0-2.492,5.012,5.891,5.891,0,0,0,2.363,4.894,8.655,8.655,0,0,0,5.2,1.586,10.337,10.337,0,0,0,4.742-.973,6.312,6.312,0,0,0,2.818-2.9,3.822,3.822,0,0,0,1.181,2.632,4.265,4.265,0,0,0,2.869.878,15.424,15.424,0,0,0,2.52-.18l-.09-3.33a5.551,5.551,0,0,1-1.3.18c-1.305,0-1.305-.536-1.305-1.71V83.385a6.992,6.992,0,0,0-2.149-5.552c-1.429-1.243-3.582-1.873-6.4-1.873a12.529,12.529,0,0,0-6.885,1.665c-1.761,1.174-2.7,3.142-2.79,5.85l3.96.54C812.805,80.563,814.4,79.155,818.3,79.155Zm-37.845,0c1.913,0,3.444.555,4.1,1.485s.765,2,.765,4.1l-7.425,1.44a13.494,13.494,0,0,0-5.158,1.873,5.7,5.7,0,0,0-2.492,5.012,5.891,5.891,0,0,0,2.363,4.894,8.655,8.655,0,0,0,5.2,1.586,10.337,10.337,0,0,0,4.742-.973,6.312,6.312,0,0,0,2.818-2.9,3.822,3.822,0,0,0,1.181,2.632,4.265,4.265,0,0,0,2.869.878,15.427,15.427,0,0,0,2.52-.18l-.09-3.33a5.552,5.552,0,0,1-1.305.18c-1.3,0-1.3-.536-1.3-1.71V83.385a6.992,6.992,0,0,0-2.149-5.552c-1.429-1.243-3.582-1.873-6.4-1.873a12.529,12.529,0,0,0-6.885,1.665c-1.761,1.174-2.7,3.142-2.79,5.85l3.96.54a4.651,4.651,0,0,1,1.277-3.713C777.115,79.52,778.454,79.155,780.45,79.155Zm-26.28-3.2c-6.11,0-10.215,4.738-10.215,11.79a12.608,12.608,0,0,0,2.931,8.646,9.31,9.31,0,0,0,3.277,2.334,10.515,10.515,0,0,0,4.142.811,8.014,8.014,0,0,0,7.11-3.825V99h4.05V67.5h-4.05V79.425A8.287,8.287,0,0,0,754.17,75.96Zm-36.225,0c-6.11,0-10.215,4.738-10.215,11.79a12.608,12.608,0,0,0,2.931,8.646,9.31,9.31,0,0,0,3.277,2.334,10.515,10.515,0,0,0,4.142.811,8.014,8.014,0,0,0,7.11-3.825V99h4.05V67.5h-4.05V79.425A8.286,8.286,0,0,0,717.945,75.96Zm-24.165,0a11.446,11.446,0,0,0-4.455.844,9.594,9.594,0,0,0-3.51,2.531,12.306,12.306,0,0,0-2.835,8.37c0,3.635.923,6.511,2.745,8.55,1.9,2.211,4.551,3.285,8.1,3.285,5.762,0,9.325-2.754,10.3-7.965l-3.915-.315a5.685,5.685,0,0,1-1.986,3.8A7,7,0,0,1,693.78,96.3a5.907,5.907,0,0,1-4.747-1.811c-1.06-1.218-1.6-3.024-1.643-5.524h17.055a15.145,15.145,0,0,0-1.89-8.55A10.169,10.169,0,0,0,693.78,75.96Zm-65.2,3.2c1.913,0,3.444.555,4.095,1.485s.765,2,.765,4.1l-7.425,1.44a13.5,13.5,0,0,0-5.158,1.873,5.7,5.7,0,0,0-2.492,5.012,5.89,5.89,0,0,0,2.363,4.894,8.655,8.655,0,0,0,5.2,1.586,10.337,10.337,0,0,0,4.742-.973,6.312,6.312,0,0,0,2.818-2.9,3.822,3.822,0,0,0,1.181,2.632,4.265,4.265,0,0,0,2.869.878,15.425,15.425,0,0,0,2.52-.18l-.09-3.33a5.55,5.55,0,0,1-1.3.18c-1.3,0-1.3-.536-1.3-1.71V83.385a6.993,6.993,0,0,0-2.149-5.552c-1.429-1.243-3.582-1.873-6.4-1.873a12.528,12.528,0,0,0-6.885,1.665c-1.761,1.174-2.7,3.142-2.79,5.85l3.96.54C623.085,80.563,624.676,79.155,628.575,79.155Zm-78.255-3.2a11.445,11.445,0,0,0-4.455.844,9.594,9.594,0,0,0-3.51,2.531,12.306,12.306,0,0,0-2.835,8.37c0,3.635.923,6.512,2.745,8.55,1.9,2.211,4.551,3.285,8.1,3.285,5.762,0,9.325-2.754,10.3-7.965l-3.915-.315a5.686,5.686,0,0,1-1.986,3.8A7,7,0,0,1,550.32,96.3a5.908,5.908,0,0,1-4.748-1.811c-1.06-1.218-1.6-3.025-1.642-5.524h17.055a15.145,15.145,0,0,0-1.89-8.55A10.168,10.168,0,0,0,550.32,75.96Zm-23.58,0a10.779,10.779,0,0,0-8.162,3.3,12.208,12.208,0,0,0-3,8.494,12.259,12.259,0,0,0,3,8.663,12.092,12.092,0,0,0,14.788,1.119,8.472,8.472,0,0,0,3.319-5.417l-3.825-.405a6.121,6.121,0,0,1-2.081,3.51,6.554,6.554,0,0,1-4.039,1.08c-2.573,0-4.338-.775-5.394-2.368-.894-1.349-1.311-3.313-1.311-6.182,0-3.012.472-5.057,1.485-6.435,1.091-1.423,2.8-2.115,5.22-2.115,4.2,0,5.452,2.766,6.075,5.175l3.78-.72a9.635,9.635,0,0,0-3.122-5.451A10.087,10.087,0,0,0,526.74,75.96Zm-25.065,0a11.446,11.446,0,0,0-4.455.844,9.594,9.594,0,0,0-3.51,2.531,12.306,12.306,0,0,0-2.835,8.37c0,3.635.923,6.511,2.745,8.55,1.9,2.211,4.551,3.285,8.1,3.285,5.762,0,9.325-2.754,10.305-7.965l-3.915-.315a5.685,5.685,0,0,1-1.986,3.8,7,7,0,0,1-4.449,1.237,5.908,5.908,0,0,1-4.748-1.811c-1.06-1.218-1.6-3.025-1.642-5.524H512.34a15.144,15.144,0,0,0-1.89-8.55A10.168,10.168,0,0,0,501.675,75.96Zm-26.73,0c-6.11,0-10.215,4.738-10.215,11.79a12.608,12.608,0,0,0,2.931,8.646,9.31,9.31,0,0,0,3.277,2.334,10.516,10.516,0,0,0,4.142.811,8.014,8.014,0,0,0,7.11-3.825V99h4.05V67.5h-4.05V79.425A8.287,8.287,0,0,0,474.945,75.96Zm-34.245,0a11.445,11.445,0,0,0-4.455.844,9.594,9.594,0,0,0-3.51,2.531,12.306,12.306,0,0,0-2.835,8.37c0,3.635.923,6.512,2.745,8.55,1.9,2.211,4.551,3.285,8.1,3.285,5.762,0,9.325-2.754,10.3-7.965l-3.915-.315a5.685,5.685,0,0,1-1.986,3.8A7,7,0,0,1,440.7,96.3a5.908,5.908,0,0,1-4.748-1.811c-1.06-1.218-1.6-3.025-1.642-5.524h17.055a15.144,15.144,0,0,0-1.89-8.55A10.168,10.168,0,0,0,440.7,75.96Zm-29.16,15.3-3.69.36a7.154,7.154,0,0,0,1.993,5.307c1.671,1.685,4.352,2.613,7.547,2.613a12.186,12.186,0,0,0,6.339-1.474,6.134,6.134,0,0,0,2.931-5.591,6,6,0,0,0-.74-3.086,5.363,5.363,0,0,0-1.953-1.913,19.818,19.818,0,0,0-5.945-1.872l-.5-.1c-2.655-.575-5.4-1.17-5.4-3.24,0-2.038,2.264-3.1,4.5-3.1a6.3,6.3,0,0,1,4.134,1.221,4.569,4.569,0,0,1,1.536,3.549l3.78-.585a7.38,7.38,0,0,0-3.1-5.749,11.021,11.021,0,0,0-6.306-1.631,10.287,10.287,0,0,0-5.664,1.53,5.81,5.81,0,0,0-2.661,5.04,5.167,5.167,0,0,0,2.256,4.556,15.783,15.783,0,0,0,4.989,1.924c.579.151,1.2.287,1.807.418,2.673.582,5.438,1.184,5.438,3.272a3.064,3.064,0,0,1-1.384,2.717,7.585,7.585,0,0,1-4.151.928,6.088,6.088,0,0,1-4.46-1.593A4.742,4.742,0,0,1,411.54,91.26ZM383.91,76.5V89.955c0,2.183,0,5.173,1.8,7.065a8.55,8.55,0,0,0,6.66,2.52c3.273,0,5.734-1.39,6.93-3.915V99h4.05V76.5H399.3V89.145c0,2.838-.721,4.842-2.143,5.957a5.8,5.8,0,0,1-3.662,1.063,5.371,5.371,0,0,1-4.1-1.305c-1.307-1.264-1.306-2.965-1.305-4.935V76.5Zm-38.655,2.655c1.913,0,3.444.555,4.095,1.485s.765,2,.765,4.1l-7.425,1.44a13.5,13.5,0,0,0-5.158,1.873,5.7,5.7,0,0,0-2.492,5.012,5.891,5.891,0,0,0,2.363,4.894,8.655,8.655,0,0,0,5.2,1.586,10.337,10.337,0,0,0,4.742-.973,6.312,6.312,0,0,0,2.818-2.9,3.822,3.822,0,0,0,1.181,2.632,4.265,4.265,0,0,0,2.869.878,15.424,15.424,0,0,0,2.52-.18l-.09-3.33a5.55,5.55,0,0,1-1.3.18c-1.305,0-1.305-.536-1.305-1.71V83.385a6.992,6.992,0,0,0-2.149-5.552c-1.429-1.243-3.582-1.873-6.4-1.873a12.528,12.528,0,0,0-6.885,1.665c-1.761,1.174-2.7,3.142-2.79,5.85l3.96.54C339.765,80.563,341.356,79.155,345.255,79.155ZM267.5,91.26l-3.69.36a7.154,7.154,0,0,0,1.992,5.307c1.671,1.685,4.352,2.613,7.548,2.613a12.187,12.187,0,0,0,6.339-1.474,6.134,6.134,0,0,0,2.931-5.591,6,6,0,0,0-.74-3.086,5.368,5.368,0,0,0-1.953-1.913,19.824,19.824,0,0,0-5.945-1.873l-.069-.014-.428-.089c-2.655-.575-5.4-1.17-5.4-3.24,0-2.038,2.264-3.1,4.5-3.1a6.3,6.3,0,0,1,4.134,1.221,4.57,4.57,0,0,1,1.536,3.549l3.78-.585a7.379,7.379,0,0,0-3.1-5.749,11.021,11.021,0,0,0-6.306-1.631,10.287,10.287,0,0,0-5.664,1.53,5.81,5.81,0,0,0-2.661,5.04,5.167,5.167,0,0,0,2.256,4.556,15.781,15.781,0,0,0,4.989,1.924c.575.15,1.2.286,1.8.417l.007,0c2.673.582,5.438,1.184,5.438,3.272a3.064,3.064,0,0,1-1.384,2.717,7.585,7.585,0,0,1-4.151.928,6.088,6.088,0,0,1-4.46-1.593A4.742,4.742,0,0,1,267.5,91.26Zm-43.2-15.3a10.887,10.887,0,0,0-8.241,3.33,10.776,10.776,0,0,0-2.232,3.732,14.012,14.012,0,0,0-.777,4.728,12.234,12.234,0,0,0,2.992,8.646A11.053,11.053,0,0,0,224.3,99.54a10.874,10.874,0,0,0,8.134-3.246A12.117,12.117,0,0,0,235.5,87.75a13.866,13.866,0,0,0-.783-4.709A10.512,10.512,0,0,0,224.3,75.96Zm-48.69,3.2c1.913,0,3.444.555,4.095,1.485s.765,2,.765,4.1l-7.425,1.44a13.5,13.5,0,0,0-5.158,1.873,5.7,5.7,0,0,0-2.492,5.012,5.891,5.891,0,0,0,2.363,4.894,8.655,8.655,0,0,0,5.2,1.586,10.337,10.337,0,0,0,4.742-.973,6.312,6.312,0,0,0,2.818-2.9,3.822,3.822,0,0,0,1.181,2.632,4.265,4.265,0,0,0,2.869.878,15.424,15.424,0,0,0,2.52-.18l-.09-3.33a5.55,5.55,0,0,1-1.3.18c-1.305,0-1.305-.536-1.305-1.71V83.385a6.992,6.992,0,0,0-2.149-5.552c-1.429-1.243-3.582-1.873-6.4-1.873a12.528,12.528,0,0,0-6.885,1.665c-1.761,1.174-2.7,3.142-2.79,5.85l3.96.54C170.115,80.563,171.706,79.155,175.605,79.155Zm-23.13-3.2a10.779,10.779,0,0,0-8.162,3.3,12.209,12.209,0,0,0-3,8.494,12.26,12.26,0,0,0,3,8.663A12.092,12.092,0,0,0,159.1,97.532a8.472,8.472,0,0,0,3.319-5.417L158.6,91.71a6.121,6.121,0,0,1-2.081,3.51,6.555,6.555,0,0,1-4.039,1.08c-2.574,0-4.338-.775-5.394-2.368-.894-1.349-1.311-3.313-1.311-6.182,0-3.012.472-5.057,1.485-6.435,1.091-1.423,2.8-2.115,5.22-2.115,4.2,0,5.452,2.766,6.075,5.175l3.78-.72a9.635,9.635,0,0,0-3.122-5.451A10.086,10.086,0,0,0,152.475,75.96Zm-97.335,3.2c1.913,0,3.444.555,4.1,1.485s.765,2,.765,4.1l-7.425,1.44a13.5,13.5,0,0,0-5.158,1.873,5.7,5.7,0,0,0-2.492,5.012,5.891,5.891,0,0,0,2.363,4.894,8.655,8.655,0,0,0,5.2,1.586,10.337,10.337,0,0,0,4.742-.973,6.312,6.312,0,0,0,2.818-2.9A3.822,3.822,0,0,0,61.227,98.3a4.265,4.265,0,0,0,2.869.878,15.426,15.426,0,0,0,2.52-.18l-.09-3.33a5.552,5.552,0,0,1-1.305.18c-1.3,0-1.3-.536-1.3-1.71V83.385a6.992,6.992,0,0,0-2.149-5.552c-1.429-1.243-3.582-1.873-6.4-1.873a12.529,12.529,0,0,0-6.885,1.665c-1.761,1.174-2.7,3.142-2.79,5.85l3.96.54A4.651,4.651,0,0,1,50.927,80.3C51.805,79.52,53.144,79.155,55.14,79.155ZM970.26,76.5v3.375h3.24V93.96c0,3.641,1.86,5.265,6.03,5.265A14.474,14.474,0,0,0,982.005,99l-.09-3.645a13.733,13.733,0,0,1-2.07.225c-1.65,0-2.34-.244-2.34-1.755V79.875h4.59V76.5h-4.59V70.245H973.5V76.5Zm-176.8,0v3.375h3.24V93.96c0,3.641,1.86,5.265,6.03,5.265A14.471,14.471,0,0,0,805.2,99l-.09-3.645a13.734,13.734,0,0,1-2.07.225c-1.65,0-2.34-.244-2.34-1.755V79.875h4.59V76.5H800.7V70.245h-4V76.5Zm-204.93,0v3.375h3.24V93.96c0,3.641,1.86,5.265,6.03,5.265A14.473,14.473,0,0,0,600.27,99l-.09-3.645a13.735,13.735,0,0,1-2.07.225c-1.65,0-2.34-.244-2.34-1.755V79.875h4.59V76.5h-4.59V70.245h-4V76.5Zm-230.265,0v3.375h3.24V93.96c0,3.641,1.86,5.265,6.03,5.265A14.475,14.475,0,0,0,370.005,99l-.09-3.645a13.737,13.737,0,0,1-2.07.225c-1.65,0-2.34-.244-2.34-1.755V79.875h4.59V76.5h-4.59V70.245H361.5V76.5Zm-63,0v3.375h3.24V93.96c0,3.641,1.86,5.265,6.03,5.265A14.475,14.475,0,0,0,307.005,99l-.09-3.645a13.737,13.737,0,0,1-2.07.225c-1.65,0-2.34-.244-2.34-1.755V79.875h4.59V76.5h-4.59V70.245H298.5V76.5Zm-106.65,0v3.375h3.24V93.96c0,3.641,1.86,5.265,6.03,5.265A14.475,14.475,0,0,0,200.355,99l-.09-3.645a13.737,13.737,0,0,1-2.07.225c-1.65,0-2.34-.244-2.34-1.755V79.875h4.59V76.5h-4.59V70.245H191.85V76.5Zm847.35,0V99h4.05V88.335c0-3.388.683-5.683,2.087-7.014,1.152-1.093,2.785-1.581,5.293-1.581a6.934,6.934,0,0,1,1.035.045l.09-3.825h-.153c-.467,0-1.085.008-1.377.044a9.542,9.542,0,0,0-4.635,1.519,5.585,5.585,0,0,0-2.34,2.936V76.5Zm-40.005,2.835a5.15,5.15,0,0,1,4,1.3c1.353,1.265,1.352,2.969,1.35,4.941V99h4.185V85.545c0-2.182,0-5.171-1.755-7.065-1.629-1.719-3.759-2.52-6.7-2.52-3.338,0-5.735,1.354-6.93,3.915V67.5h-4.05V99h4.05V86.355c0-2.837.729-4.841,2.166-5.957A5.87,5.87,0,0,1,995.955,79.335Zm-74.07-.045a5.249,5.249,0,0,1,3.78,1.26c1.35,1.26,1.35,3.1,1.35,5.22V99h4.14V84.42c0-5.535-2.692-8.46-7.785-8.46a7.463,7.463,0,0,0-5.265,1.71,7.2,7.2,0,0,0-2.16,3.06,6.908,6.908,0,0,0-2.672-3.516,8.886,8.886,0,0,0-9.793.456,5.28,5.28,0,0,0-1.665,2.205V76.5H897.81V99h4.005V86.58c0-3.681,1.046-5.137,2.07-6.075a4.9,4.9,0,0,1,3.33-1.215A5.249,5.249,0,0,1,911,80.55c1.35,1.26,1.35,3.1,1.35,5.22V99h4.14V86.58c0-3.681,1.046-5.137,2.07-6.075A4.9,4.9,0,0,1,921.885,79.29ZM857.13,76.5V99h4.05V88.335c0-3.388.683-5.683,2.087-7.014,1.152-1.093,2.785-1.581,5.293-1.581a6.936,6.936,0,0,1,1.035.045l.09-3.825h-.153c-.467,0-1.085.008-1.377.044a9.543,9.543,0,0,0-4.635,1.519,5.584,5.584,0,0,0-2.34,2.936V76.5Zm-15.3,0v3.375h3.24V99h4.005V79.875h4.59V76.5h-4.59V72.63c0-1.492.726-1.755,2.25-1.755a14.019,14.019,0,0,1,2.16.225l.09-3.6a15.449,15.449,0,0,0-2.475-.225c-4.17,0-6.03,1.624-6.03,5.265V76.5ZM675.285,79.875h0v.044c-1.031,1.14-1.973,2.216-2.52,2.88l-10.71,13.05V99H680.64V95.535H666.645V95.49c1.347-1.527,2.512-2.915,2.835-3.33l10.44-12.87V76.5H662.775v3.465h8.73c1.126,0,3.345-.075,3.779-.09ZM653.82,76.5V99h4.05V76.5Zm-9.99-9V99h4.05V67.5Zm-39.51,9V99h4.05V88.335c0-3.388.683-5.683,2.087-7.014,1.152-1.093,2.785-1.581,5.293-1.581a6.936,6.936,0,0,1,1.035.045l.09-3.825h-.153c-.467,0-1.085.008-1.377.044a9.543,9.543,0,0,0-4.635,1.519,5.584,5.584,0,0,0-2.34,2.936V76.5Zm-28.845,2.835a5.15,5.15,0,0,1,4,1.3c1.353,1.265,1.351,3.011,1.35,5.031V99h4.185V85.635c0-2.22,0-5.261-1.755-7.155-1.629-1.719-3.759-2.52-6.7-2.52a8.556,8.556,0,0,0-4.393,1.035,6.266,6.266,0,0,0-2.537,2.925V76.5h-4.05V99h4.05V86.58c0-2.8.734-4.836,2.182-6.036A5.721,5.721,0,0,1,575.475,79.335Zm-254.52,0a5.15,5.15,0,0,1,4,1.3c1.353,1.265,1.351,2.969,1.35,4.941V99H330.5V85.545c0-2.182,0-5.171-1.755-7.065-1.629-1.719-3.759-2.52-6.7-2.52-3.338,0-5.735,1.354-6.93,3.915V67.5h-4.05V99h4.05V86.355c0-2.837.729-4.841,2.166-5.957A5.87,5.87,0,0,1,320.955,79.335Zm-70.965,0A5.15,5.15,0,0,1,254,80.64c1.353,1.265,1.351,3.011,1.35,5.032V99h4.185V85.635c0-2.22,0-5.261-1.755-7.155-1.629-1.719-3.759-2.52-6.705-2.52a8.556,8.556,0,0,0-4.393,1.035,6.267,6.267,0,0,0-2.537,2.925V76.5h-4.05V99h4.05V86.58c0-2.8.734-4.836,2.183-6.036A5.721,5.721,0,0,1,249.99,79.335ZM204.405,76.5V99h4.05V76.5Zm-71.73,0V99h4.05V76.5Zm-9.99-9V99h4.05V67.5Zm531.135,0v4.77h4.05V67.5Zm-449.415,0v4.77h4.05V67.5Zm-71.73,0v4.77h4.05V67.5Zm917.932-15.15-3.87.27a7.03,7.03,0,0,0,3.206,5.929,11.738,11.738,0,0,0,6.379,1.676c6.661,0,10.8-3.724,10.8-9.72v-22h-4.05v3.15a8.048,8.048,0,0,0-7.245-3.69,10.42,10.42,0,0,0-4.133.814,9.225,9.225,0,0,0-3.213,2.291,11.785,11.785,0,0,0-2.824,8.1,12.526,12.526,0,0,0,2.824,8.46,9.661,9.661,0,0,0,7.481,3.2,7.875,7.875,0,0,0,7.11-3.87v3.825a6.259,6.259,0,0,1-1.783,4.686,6.4,6.4,0,0,1-4.517,1.614,7.762,7.762,0,0,1-4.365-.962,4.431,4.431,0,0,1-1.8-3.763ZM527.393,56l-.09,3.78a13.054,13.054,0,0,0,3.42.45A4.69,4.69,0,0,0,534.48,58.5a17.707,17.707,0,0,0,2.813-5.434l9.18-24.57h-4.23l-4.32,12.15c-.659,1.883-1.153,3.325-2.025,5.985-.861-2.69-1.508-4.648-1.98-5.985L529.643,28.5h-4.32L534.1,50.82c-1.527,3.932-2.271,5.67-3.915,5.67a8.764,8.764,0,0,1-2.79-.5ZM994.583,27.96c-6.11,0-10.215,4.738-10.215,11.79A12.608,12.608,0,0,0,987.3,48.4a9.31,9.31,0,0,0,3.277,2.334,10.516,10.516,0,0,0,4.142.811,8.014,8.014,0,0,0,7.11-3.825V51h4.05V19.5h-4.05V31.425A8.287,8.287,0,0,0,994.583,27.96Zm-54.27.54V41.955c0,2.183,0,5.173,1.8,7.065a8.55,8.55,0,0,0,6.66,2.52c3.273,0,5.734-1.39,6.93-3.915V51h4.05V28.5H955.7V41.145c0,2.838-.721,4.842-2.143,5.957a5.8,5.8,0,0,1-3.662,1.063,5.371,5.371,0,0,1-4.1-1.3C944.5,45.6,944.5,43.9,944.5,41.925V28.5Zm-21.87,19.215,0,0a8.014,8.014,0,0,0,7.108,3.822,10.516,10.516,0,0,0,4.142-.811,9.31,9.31,0,0,0,3.277-2.334A12.608,12.608,0,0,0,935.9,39.75c0-7.079-4.105-11.835-10.215-11.835a8.3,8.3,0,0,0-7.245,3.51V19.5h-4.05V51h4.05V47.715ZM873.758,27.96a10.886,10.886,0,0,0-8.241,3.33,10.776,10.776,0,0,0-2.232,3.732,14.013,14.013,0,0,0-.777,4.728A12.234,12.234,0,0,0,865.5,48.4a11.053,11.053,0,0,0,8.258,3.144,10.874,10.874,0,0,0,8.134-3.246,12.118,12.118,0,0,0,3.071-8.544,13.866,13.866,0,0,0-.783-4.709,10.512,10.512,0,0,0-10.422-7.081Zm-83.43,3.195c1.913,0,3.444.555,4.095,1.485s.765,2,.765,4.095l-7.425,1.44a13.5,13.5,0,0,0-5.158,1.873,5.7,5.7,0,0,0-2.492,5.012,5.891,5.891,0,0,0,2.363,4.894,8.655,8.655,0,0,0,5.2,1.586,10.337,10.337,0,0,0,4.742-.973,6.313,6.313,0,0,0,2.818-2.9,3.823,3.823,0,0,0,1.181,2.632,4.265,4.265,0,0,0,2.869.878A15.437,15.437,0,0,0,801.8,51l-.09-3.33a5.56,5.56,0,0,1-1.3.18c-1.305,0-1.305-.536-1.305-1.71V35.385a6.992,6.992,0,0,0-2.149-5.552c-1.429-1.243-3.582-1.873-6.4-1.873a12.529,12.529,0,0,0-6.885,1.665c-1.761,1.174-2.7,3.142-2.79,5.85l3.96.54C784.838,32.564,786.429,31.155,790.328,31.155ZM742.043,27.96a10.778,10.778,0,0,0-8.162,3.3,12.208,12.208,0,0,0-3,8.494,12.259,12.259,0,0,0,3,8.663,12.091,12.091,0,0,0,14.788,1.119,8.472,8.472,0,0,0,3.319-5.417l-3.825-.4a6.121,6.121,0,0,1-2.081,3.51,6.555,6.555,0,0,1-4.039,1.08c-2.573,0-4.338-.775-5.394-2.368-.894-1.349-1.311-3.313-1.311-6.182,0-3.012.472-5.057,1.485-6.435,1.091-1.423,2.8-2.115,5.22-2.115,4.2,0,5.452,2.766,6.075,5.175l3.78-.72a9.634,9.634,0,0,0-3.122-5.451A10.086,10.086,0,0,0,742.043,27.96Zm-45.225,0a10.779,10.779,0,0,0-8.162,3.3,12.209,12.209,0,0,0-3,8.494,12.259,12.259,0,0,0,3,8.663,12.092,12.092,0,0,0,14.788,1.119,8.473,8.473,0,0,0,3.319-5.417l-3.825-.4a6.121,6.121,0,0,1-2.081,3.51,6.555,6.555,0,0,1-4.039,1.08c-2.574,0-4.338-.775-5.394-2.368-.894-1.349-1.311-3.313-1.311-6.182,0-3.013.472-5.057,1.485-6.435,1.091-1.423,2.8-2.115,5.22-2.115,4.2,0,5.452,2.766,6.075,5.175l3.78-.72a9.635,9.635,0,0,0-3.122-5.451A10.087,10.087,0,0,0,696.818,27.96Zm-25.605,0a10.886,10.886,0,0,0-8.241,3.33,10.776,10.776,0,0,0-2.232,3.732,14.011,14.011,0,0,0-.777,4.728,12.234,12.234,0,0,0,2.992,8.646,11.053,11.053,0,0,0,8.258,3.144,10.875,10.875,0,0,0,8.134-3.246,12.118,12.118,0,0,0,3.071-8.544,13.864,13.864,0,0,0-.783-4.709,10.512,10.512,0,0,0-10.422-7.081ZM629.228,47.715l0,0a8.013,8.013,0,0,0,7.108,3.822,10.515,10.515,0,0,0,4.142-.811,9.31,9.31,0,0,0,3.277-2.334,12.608,12.608,0,0,0,2.931-8.646c0-7.079-4.105-11.835-10.215-11.835a8.3,8.3,0,0,0-7.245,3.51V19.5h-4.05V51h4.05V47.715ZM558.713,27.96a11.446,11.446,0,0,0-4.455.844,9.591,9.591,0,0,0-3.51,2.531,12.307,12.307,0,0,0-2.835,8.37c0,3.635.924,6.512,2.745,8.55,1.9,2.211,4.551,3.285,8.1,3.285,5.762,0,9.325-2.754,10.3-7.965l-3.915-.315a5.685,5.685,0,0,1-1.986,3.8,7,7,0,0,1-4.449,1.237,5.907,5.907,0,0,1-4.748-1.811c-1.06-1.218-1.6-3.025-1.642-5.524h17.055a15.144,15.144,0,0,0-1.89-8.55A10.168,10.168,0,0,0,558.713,27.96Zm-45.36,3.195c1.913,0,3.444.555,4.1,1.485s.765,2,.765,4.095l-7.425,1.44a13.5,13.5,0,0,0-5.158,1.873,5.7,5.7,0,0,0-2.492,5.012,5.891,5.891,0,0,0,2.363,4.894,8.655,8.655,0,0,0,5.2,1.586,10.337,10.337,0,0,0,4.742-.973,6.314,6.314,0,0,0,2.818-2.9,3.822,3.822,0,0,0,1.181,2.632,4.265,4.265,0,0,0,2.869.878,15.441,15.441,0,0,0,2.52-.18l-.09-3.33a5.559,5.559,0,0,1-1.3.18c-1.305,0-1.305-.536-1.305-1.71V35.385a6.992,6.992,0,0,0-2.149-5.552c-1.429-1.243-3.582-1.873-6.4-1.873a12.529,12.529,0,0,0-6.885,1.665c-1.761,1.174-2.7,3.142-2.79,5.85l3.96.54C507.863,32.564,509.454,31.155,513.353,31.155ZM452.468,27.96c-6.11,0-10.215,4.738-10.215,11.79a12.608,12.608,0,0,0,2.931,8.646,9.31,9.31,0,0,0,3.277,2.334,10.516,10.516,0,0,0,4.142.811,8.014,8.014,0,0,0,7.11-3.825V51h4.05V19.5h-4.05V31.425A8.287,8.287,0,0,0,452.468,27.96Zm-24.165,0a11.445,11.445,0,0,0-4.455.844,9.592,9.592,0,0,0-3.51,2.531,12.307,12.307,0,0,0-2.835,8.37c0,3.635.923,6.511,2.745,8.55,1.9,2.211,4.551,3.285,8.1,3.285,5.762,0,9.325-2.754,10.3-7.965l-3.915-.315a5.685,5.685,0,0,1-1.986,3.8A7,7,0,0,1,428.3,48.3a5.907,5.907,0,0,1-4.748-1.811c-1.06-1.218-1.6-3.025-1.642-5.524h17.055a15.145,15.145,0,0,0-1.89-8.55A10.168,10.168,0,0,0,428.3,27.96Zm-29.16,15.3-3.69.36a7.154,7.154,0,0,0,1.993,5.307c1.671,1.685,4.352,2.613,7.547,2.613a12.185,12.185,0,0,0,6.339-1.474,6.134,6.134,0,0,0,2.931-5.591,6,6,0,0,0-.74-3.086,5.366,5.366,0,0,0-1.953-1.913,19.823,19.823,0,0,0-5.947-1.873l-.5-.1c-2.655-.575-5.4-1.17-5.4-3.24,0-2.038,2.264-3.105,4.5-3.105a6.3,6.3,0,0,1,4.134,1.221,4.569,4.569,0,0,1,1.536,3.549l3.78-.585a7.379,7.379,0,0,0-3.1-5.749,11.021,11.021,0,0,0-6.306-1.631,10.287,10.287,0,0,0-5.664,1.53,5.811,5.811,0,0,0-2.661,5.04,5.167,5.167,0,0,0,2.256,4.556,15.786,15.786,0,0,0,4.989,1.924c.576.15,1.2.286,1.8.417H405c2.673.582,5.438,1.184,5.438,3.272a3.064,3.064,0,0,1-1.384,2.717,7.585,7.585,0,0,1-4.151.928,6.088,6.088,0,0,1-4.46-1.593A4.742,4.742,0,0,1,399.143,43.26Zm-17.5-12.105c1.913,0,3.444.555,4.095,1.485s.765,2,.765,4.095l-7.425,1.44a13.5,13.5,0,0,0-5.158,1.873,5.7,5.7,0,0,0-2.492,5.012,5.891,5.891,0,0,0,2.363,4.894,8.655,8.655,0,0,0,5.2,1.586,10.337,10.337,0,0,0,4.742-.973,6.313,6.313,0,0,0,2.818-2.9,3.823,3.823,0,0,0,1.181,2.632,4.265,4.265,0,0,0,2.869.878,15.438,15.438,0,0,0,2.52-.18l-.09-3.33a5.559,5.559,0,0,1-1.3.18c-1.305,0-1.305-.536-1.305-1.71V35.385a6.992,6.992,0,0,0-2.149-5.552c-1.429-1.243-3.582-1.873-6.4-1.873a12.529,12.529,0,0,0-6.885,1.665c-1.761,1.174-2.7,3.142-2.79,5.85l3.96.54a4.651,4.651,0,0,1,1.277-3.713C378.3,31.52,379.641,31.155,381.638,31.155ZM350.5,47.715l0,0a8.014,8.014,0,0,0,7.108,3.822,10.515,10.515,0,0,0,4.142-.811,9.309,9.309,0,0,0,3.277-2.334,12.608,12.608,0,0,0,2.931-8.646c0-7.079-4.105-11.835-10.215-11.835a8.3,8.3,0,0,0-7.245,3.51V19.5h-4.05V51h4.05V47.715Zm-165.24-16.56c1.913,0,3.444.555,4.095,1.485s.765,2,.765,4.095l-7.425,1.44a13.5,13.5,0,0,0-5.158,1.873,5.7,5.7,0,0,0-2.492,5.012,5.891,5.891,0,0,0,2.363,4.894,8.655,8.655,0,0,0,5.2,1.586,10.337,10.337,0,0,0,4.742-.973,6.313,6.313,0,0,0,2.818-2.9,3.823,3.823,0,0,0,1.181,2.632,4.265,4.265,0,0,0,2.869.878,15.438,15.438,0,0,0,2.52-.18l-.09-3.33a5.559,5.559,0,0,1-1.3.18c-1.305,0-1.305-.536-1.305-1.71V35.385a6.992,6.992,0,0,0-2.149-5.552c-1.429-1.243-3.582-1.873-6.4-1.873a12.529,12.529,0,0,0-6.885,1.665c-1.761,1.174-2.7,3.142-2.79,5.85l3.96.54C179.768,32.564,181.359,31.155,185.258,31.155ZM146.468,43.26l-3.69.36a7.154,7.154,0,0,0,1.992,5.307c1.671,1.685,4.352,2.613,7.548,2.613a12.185,12.185,0,0,0,6.339-1.474,6.134,6.134,0,0,0,2.931-5.591,6,6,0,0,0-.74-3.086,5.365,5.365,0,0,0-1.953-1.913,19.828,19.828,0,0,0-5.947-1.873l-.5-.1c-2.655-.575-5.4-1.17-5.4-3.24,0-2.038,2.264-3.105,4.5-3.105a6.3,6.3,0,0,1,4.134,1.221,4.569,4.569,0,0,1,1.536,3.549L161,35.34a7.379,7.379,0,0,0-3.1-5.749A11.021,11.021,0,0,0,151.6,27.96a10.287,10.287,0,0,0-5.664,1.53,5.81,5.81,0,0,0-2.661,5.04,5.167,5.167,0,0,0,2.256,4.556,15.789,15.789,0,0,0,4.989,1.924c.576.15,1.2.286,1.8.417h.005c2.673.582,5.438,1.184,5.438,3.272a3.064,3.064,0,0,1-1.384,2.717,7.585,7.585,0,0,1-4.151.928,6.088,6.088,0,0,1-4.46-1.593A4.741,4.741,0,0,1,146.468,43.26Zm-37.575-15.3a11.445,11.445,0,0,0-4.455.844,9.591,9.591,0,0,0-3.51,2.531,12.306,12.306,0,0,0-2.835,8.37c0,3.635.923,6.512,2.745,8.55,1.9,2.211,4.551,3.285,8.1,3.285,5.762,0,9.325-2.754,10.3-7.965l-3.915-.315a5.685,5.685,0,0,1-1.986,3.8,7,7,0,0,1-4.449,1.237,5.907,5.907,0,0,1-4.748-1.811c-1.06-1.218-1.6-3.025-1.642-5.524h17.055a15.146,15.146,0,0,0-1.89-8.55A10.168,10.168,0,0,0,108.893,27.96ZM69.158,31.155c1.913,0,3.444.555,4.095,1.485s.765,2,.765,4.095l-7.425,1.44a13.5,13.5,0,0,0-5.158,1.873,5.7,5.7,0,0,0-2.492,5.012,5.891,5.891,0,0,0,2.363,4.894,8.655,8.655,0,0,0,5.2,1.586,10.337,10.337,0,0,0,4.742-.973,6.313,6.313,0,0,0,2.818-2.9A3.822,3.822,0,0,0,75.244,50.3a4.265,4.265,0,0,0,2.869.878,15.438,15.438,0,0,0,2.52-.18l-.09-3.33a5.559,5.559,0,0,1-1.305.18c-1.3,0-1.3-.536-1.3-1.71V35.385a6.992,6.992,0,0,0-2.149-5.552c-1.429-1.243-3.582-1.873-6.4-1.873A12.529,12.529,0,0,0,62.5,29.625c-1.761,1.174-2.7,3.142-2.79,5.85l3.96.54A4.651,4.651,0,0,1,64.945,32.3C65.823,31.52,67.161,31.155,69.158,31.155Zm962.55.18a5.149,5.149,0,0,1,4,1.305c1.353,1.265,1.352,3.011,1.35,5.032V51h4.185V37.635c0-2.22,0-5.261-1.755-7.155-1.629-1.719-3.759-2.52-6.7-2.52A8.557,8.557,0,0,0,1028.395,29a6.267,6.267,0,0,0-2.537,2.925V28.5h-4.05V51h4.05V38.58c0-2.8.734-4.836,2.182-6.036A5.721,5.721,0,0,1,1031.708,31.335Zm-19.89-2.835V51h4.05V28.5Zm-36.135-9V51h4.05V19.5Zm-9.99,9V51h4.05V28.5Zm-76.14,0V51h4.05V40.335c0-3.388.683-5.683,2.087-7.014,1.152-1.093,2.785-1.581,5.293-1.581a6.957,6.957,0,0,1,1.035.045l.09-3.825h-.153c-.467,0-1.085.008-1.377.044a9.542,9.542,0,0,0-4.635,1.519,5.584,5.584,0,0,0-2.34,2.936V28.5Zm-40.545,0v3.375h3.24V51h4V31.875h4.59V28.5h-4.59V24.63c0-1.492.726-1.755,2.25-1.755a14.023,14.023,0,0,1,2.16.225l.09-3.6a15.445,15.445,0,0,0-2.475-.225c-4.17,0-6.03,1.624-6.03,5.265V28.5Zm-23.535,2.835a5.15,5.15,0,0,1,4.005,1.305c1.352,1.265,1.351,3.011,1.35,5.032V51h4.185V37.635c0-2.22,0-5.261-1.755-7.155-1.629-1.719-3.759-2.52-6.705-2.52A8.556,8.556,0,0,0,822.16,29a6.266,6.266,0,0,0-2.537,2.925V28.5h-4.05V51h4.05V38.58c0-2.8.734-4.836,2.183-6.036A5.721,5.721,0,0,1,825.473,31.335ZM805.583,28.5V51h4.05V28.5Zm-39.555,2.835a5.15,5.15,0,0,1,4,1.305c1.352,1.265,1.351,2.969,1.35,4.942V51h4.185V37.545c0-2.182,0-5.171-1.755-7.065-1.629-1.719-3.759-2.52-6.7-2.52-3.338,0-5.735,1.354-6.93,3.915V19.5h-4.05V51h4.05V38.355c0-2.837.729-4.841,2.166-5.957A5.87,5.87,0,0,1,766.028,31.335Zm-47.925,8.1h0L725.528,51h4.725l-9.315-14.265,8.91-8.235h-5.49l-9.4,9.315V19.5H710.9V51h4.05v-8.6l3.149-2.969ZM651.323,19.5V51h4.05V19.5Zm-46.935,7.83V51h4V20.175h-3.15c-.673,3.815-3.485,5.67-8.595,5.67V29.31a9.983,9.983,0,0,0,1.215.09,13.828,13.828,0,0,0,3.853-.478,5.276,5.276,0,0,0,2.67-1.59Zm-30.42,1.17V51h4.05V40.335c0-3.388.683-5.683,2.087-7.014,1.152-1.093,2.785-1.581,5.293-1.581a6.956,6.956,0,0,1,1.035.045l.09-3.825h-.153c-.467,0-1.085.008-1.377.044a9.54,9.54,0,0,0-4.635,1.519,5.584,5.584,0,0,0-2.34,2.936V28.5Zm-93.42-9V51h20.34V47.445H484.6V19.5ZM318.1,24.765h.045c-.13,2.463-.225,6.195-.225,7.2V51h4V19.5h-5.9l-6.66,17.82c-1.2,3.238-2.514,7.047-3.195,9.135h-.045c-.46-1.41-1.491-4.471-3.24-9.135l-6.66-17.82h-5.9V51h4V31.965c0-1-.095-4.729-.225-7.2h.045c.923,2.643,1.967,5.637,2.565,7.2L304.058,51h4.14l7.335-19.035c.613-1.6,1.469-4.037,2.565-7.2ZM259.238,19.5,270.668,51h4.23l11.43-31.5h-4.41L275.8,37.545c-1.339,3.907-2.283,6.807-2.738,8.2-.11.337-.188.576-.232.71h-.045c-.884-2.651-1.9-5.649-3.015-8.91L263.648,19.5Zm-22.725,0V51h20.34V47.355h-16.29V36.915h14.625V33.27H240.563V23.145h16.29V19.5Zm-26.1,11.835a5.149,5.149,0,0,1,4,1.305c1.353,1.265,1.352,3.011,1.35,5.032V51h4.185V37.635c0-2.22,0-5.261-1.755-7.155-1.629-1.719-3.759-2.52-6.705-2.52A8.556,8.556,0,0,0,207.1,29a6.267,6.267,0,0,0-2.537,2.925V28.5h-4.05V51h4.05V38.58c0-2.8.734-4.836,2.183-6.036A5.721,5.721,0,0,1,210.413,31.335ZM134.228,28.5V51h4.05V28.5Zm-49.815,0V51h4.05V40.335c0-3.388.683-5.683,2.087-7.014,1.152-1.093,2.785-1.581,5.293-1.581a6.959,6.959,0,0,1,1.035.045l.09-3.825h-.153c-.467,0-1.085.008-1.377.044A9.542,9.542,0,0,0,90.8,29.524a5.584,5.584,0,0,0-2.34,2.936V28.5Zm-34.29-9V51h4.05V19.5Zm-24.48,0V51h4.05V36.915H44.318V33.27H29.693V23.145h16.29V19.5ZM328.268,36.465v3.6h12.6v-3.6ZM1011.818,19.5v4.77h4.05V19.5Zm-46.125,0v4.77h4.05V19.5Zm-160.11,0v4.77h4.05V19.5Zm-671.355,0v4.77h4.05V19.5ZM517.7,144.345c-2.51,0-4.238-.76-5.282-2.323-.909-1.361-1.333-3.354-1.333-6.272,0-3.133.558-5.249,1.755-6.66a6.174,6.174,0,0,1,4.95-1.89c5.768,0,6.435,4.905,6.435,8.6,0,3.195-.712,5.527-2.115,6.93A5.908,5.908,0,0,1,517.7,144.345Zm-52.2-.045a4.747,4.747,0,0,1-2.852-.849,2.945,2.945,0,0,1-1.2-2.436c0-2.629,1.875-3.267,4.14-3.78l6.795-1.485v2.745a5.484,5.484,0,0,1-1.6,4.117A7.458,7.458,0,0,1,465.5,144.3Zm-91.44,0a4.747,4.747,0,0,1-2.852-.849,2.945,2.945,0,0,1-1.2-2.436c0-2.629,1.875-3.267,4.14-3.78l6.795-1.485v2.745a5.484,5.484,0,0,1-1.6,4.117A7.458,7.458,0,0,1,374.055,144.3Zm374.13-10.62h-12.87a8.08,8.08,0,0,1,1.08-4c.936-1.544,2.871-2.43,5.31-2.43,2.491,0,4.115.749,5.265,2.43a8.72,8.72,0,0,1,1.215,4Zm-65.79,0h-12.87a8.079,8.079,0,0,1,1.08-4c.936-1.544,2.871-2.43,5.31-2.43,2.491,0,4.115.749,5.265,2.43a8.717,8.717,0,0,1,1.215,4Zm-83.25,0h-12.87a8.079,8.079,0,0,1,1.08-4c.936-1.544,2.871-2.43,5.31-2.43,2.491,0,4.115.749,5.265,2.43a8.717,8.717,0,0,1,1.215,4Zm357.7-37.335a6.442,6.442,0,0,1-4.905-1.71c-1.332-1.374-1.98-3.626-1.98-6.885s.648-5.511,1.98-6.885a6.526,6.526,0,0,1,4.905-1.71A6.348,6.348,0,0,1,961.8,81c1.272,1.4,1.89,3.607,1.89,6.75,0,3.1-.6,5.292-1.845,6.705A6.363,6.363,0,0,1,956.85,96.345Zm-74.835,0a6.441,6.441,0,0,1-4.9-1.71c-1.332-1.374-1.98-3.626-1.98-6.885s.648-5.511,1.98-6.885a6.525,6.525,0,0,1,4.9-1.71A6.349,6.349,0,0,1,886.965,81c1.272,1.4,1.89,3.607,1.89,6.75,0,3.1-.6,5.292-1.845,6.705A6.363,6.363,0,0,1,882.015,96.345Zm-126.99,0c-2.51,0-4.238-.76-5.282-2.323-.909-1.362-1.333-3.355-1.333-6.272,0-3.133.558-5.249,1.755-6.66a6.174,6.174,0,0,1,4.95-1.89c5.768,0,6.435,4.905,6.435,8.6,0,3.195-.712,5.527-2.115,6.93A5.909,5.909,0,0,1,755.025,96.345Zm-36.225,0c-2.51,0-4.238-.76-5.282-2.323-.909-1.361-1.333-3.354-1.333-6.272,0-3.133.558-5.249,1.755-6.66a6.174,6.174,0,0,1,4.95-1.89c5.768,0,6.435,4.905,6.435,8.6,0,3.195-.712,5.527-2.115,6.93A5.908,5.908,0,0,1,718.8,96.345Zm-243,0c-2.51,0-4.238-.76-5.282-2.323-.909-1.361-1.333-3.354-1.333-6.272,0-3.133.558-5.249,1.755-6.66a6.174,6.174,0,0,1,4.95-1.89c5.768,0,6.435,4.905,6.435,8.6,0,3.195-.712,5.527-2.115,6.93A5.908,5.908,0,0,1,475.8,96.345Zm-251.5,0a6.442,6.442,0,0,1-4.905-1.71c-1.332-1.374-1.98-3.626-1.98-6.885s.648-5.511,1.98-6.885a6.526,6.526,0,0,1,4.905-1.71A6.349,6.349,0,0,1,229.245,81c1.272,1.4,1.89,3.607,1.89,6.75,0,3.1-.6,5.292-1.845,6.705A6.363,6.363,0,0,1,224.3,96.345ZM816.27,96.3a4.746,4.746,0,0,1-2.852-.849,2.945,2.945,0,0,1-1.2-2.436c0-2.629,1.875-3.267,4.14-3.78l6.8-1.485V90.5a5.484,5.484,0,0,1-1.6,4.117A7.458,7.458,0,0,1,816.27,96.3Zm-37.845,0a4.746,4.746,0,0,1-2.852-.849,2.945,2.945,0,0,1-1.2-2.436c0-2.629,1.875-3.267,4.14-3.78l6.795-1.485V90.5a5.484,5.484,0,0,1-1.6,4.117A7.458,7.458,0,0,1,778.425,96.3Zm-151.875,0a4.746,4.746,0,0,1-2.852-.849,2.945,2.945,0,0,1-1.2-2.436c0-2.629,1.875-3.267,4.14-3.78l6.8-1.485V90.5a5.484,5.484,0,0,1-1.6,4.117A7.458,7.458,0,0,1,626.55,96.3Zm-283.32,0a4.746,4.746,0,0,1-2.852-.849,2.945,2.945,0,0,1-1.2-2.436c0-2.629,1.875-3.267,4.14-3.78l6.8-1.485V90.5a5.484,5.484,0,0,1-1.6,4.117A7.458,7.458,0,0,1,343.23,96.3Zm-169.65,0a4.746,4.746,0,0,1-2.852-.849,2.945,2.945,0,0,1-1.2-2.436c0-2.629,1.875-3.267,4.14-3.78l6.8-1.485V90.5a5.484,5.484,0,0,1-1.6,4.117A7.458,7.458,0,0,1,173.58,96.3Zm-66.69,0c-5.768,0-6.435-4.905-6.435-8.595,0-2.848.575-5.028,1.71-6.48a5.735,5.735,0,0,1,4.815-2.07c2.51,0,4.238.76,5.282,2.323.909,1.361,1.333,3.354,1.333,6.272,0,3.42-.658,5.651-2.07,7.02A6.479,6.479,0,0,1,106.89,96.3Zm-26.145,0c-5.768,0-6.435-4.905-6.435-8.595,0-2.847.575-5.028,1.71-6.48a5.735,5.735,0,0,1,4.815-2.07c2.51,0,4.238.76,5.282,2.323.909,1.361,1.333,3.354,1.333,6.272,0,3.42-.658,5.651-2.07,7.02A6.479,6.479,0,0,1,80.745,96.3Zm-27.63,0a4.747,4.747,0,0,1-2.852-.849,2.945,2.945,0,0,1-1.2-2.436c0-2.629,1.875-3.267,4.14-3.78L60,87.75V90.5a5.484,5.484,0,0,1-1.6,4.117A7.458,7.458,0,0,1,53.115,96.3Zm974.115-10.62h-12.87a8.078,8.078,0,0,1,1.08-4c.936-1.544,2.871-2.43,5.31-2.43,2.491,0,4.115.749,5.265,2.43a8.717,8.717,0,0,1,1.215,4Zm-326.925,0h-12.87a8.08,8.08,0,0,1,1.08-4c.936-1.544,2.871-2.43,5.31-2.43,2.491,0,4.115.749,5.265,2.43a8.717,8.717,0,0,1,1.215,4Zm-143.46,0h-12.87a8.079,8.079,0,0,1,1.08-4c.936-1.544,2.871-2.43,5.31-2.43,2.491,0,4.115.749,5.265,2.43a8.717,8.717,0,0,1,1.215,4Zm-48.645,0H495.33a8.079,8.079,0,0,1,1.08-4c.936-1.544,2.871-2.43,5.31-2.43,2.491,0,4.115.749,5.265,2.43a8.718,8.718,0,0,1,1.215,4Zm-60.975,0h-12.87a8.08,8.08,0,0,1,1.08-4c.936-1.544,2.871-2.43,5.31-2.43,2.491,0,4.115.749,5.265,2.43a8.717,8.717,0,0,1,1.215,4ZM924.833,48.435a5.749,5.749,0,0,1-4.883-2.194c-1.09-1.449-1.642-3.618-1.642-6.446,0-2.99.515-5.125,1.575-6.525a5.62,5.62,0,0,1,4.86-2.16c2.44,0,4.155.751,5.243,2.3.984,1.4,1.463,3.472,1.463,6.345,0,3.344-.527,5.453-1.71,6.84A6.234,6.234,0,0,1,924.833,48.435Zm-289.215,0a5.749,5.749,0,0,1-4.883-2.194c-1.09-1.449-1.642-3.618-1.642-6.446,0-2.99.515-5.124,1.575-6.525a5.621,5.621,0,0,1,4.86-2.16c2.44,0,4.155.751,5.242,2.3.984,1.4,1.463,3.472,1.463,6.345,0,3.344-.527,5.454-1.71,6.84A6.235,6.235,0,0,1,635.618,48.435Zm-278.73,0a5.749,5.749,0,0,1-4.883-2.194c-1.09-1.449-1.643-3.618-1.643-6.446,0-2.99.515-5.125,1.575-6.525a5.62,5.62,0,0,1,4.86-2.16c2.44,0,4.154.751,5.242,2.3.984,1.4,1.463,3.472,1.463,6.345,0,3.344-.527,5.454-1.71,6.84A6.234,6.234,0,0,1,356.888,48.435Zm638.55-.09c-2.51,0-4.238-.76-5.282-2.323-.909-1.361-1.333-3.354-1.333-6.272,0-3.133.558-5.249,1.755-6.66a6.173,6.173,0,0,1,4.95-1.89c5.768,0,6.435,4.905,6.435,8.595,0,3.2-.712,5.527-2.115,6.93A5.909,5.909,0,0,1,995.438,48.345Zm-121.68,0a6.442,6.442,0,0,1-4.905-1.71c-1.332-1.374-1.98-3.626-1.98-6.885s.648-5.511,1.98-6.885a6.527,6.527,0,0,1,4.905-1.71A6.349,6.349,0,0,1,878.708,33c1.272,1.4,1.89,3.607,1.89,6.75,0,3.1-.6,5.292-1.845,6.7A6.362,6.362,0,0,1,873.758,48.345Zm-202.545,0a6.442,6.442,0,0,1-4.905-1.71c-1.332-1.374-1.98-3.626-1.98-6.885s.648-5.511,1.98-6.885a6.527,6.527,0,0,1,4.905-1.71A6.349,6.349,0,0,1,676.163,33c1.272,1.4,1.89,3.607,1.89,6.75,0,3.1-.6,5.292-1.845,6.7A6.363,6.363,0,0,1,671.213,48.345Zm-217.89,0c-2.51,0-4.238-.76-5.282-2.323-.909-1.362-1.333-3.354-1.333-6.272,0-3.133.558-5.249,1.755-6.66a6.174,6.174,0,0,1,4.95-1.89c5.768,0,6.435,4.905,6.435,8.595,0,3.2-.712,5.527-2.115,6.93A5.909,5.909,0,0,1,453.323,48.345ZM788.3,48.3a4.746,4.746,0,0,1-2.852-.849,2.945,2.945,0,0,1-1.2-2.436c0-2.629,1.875-3.267,4.14-3.78l6.8-1.485V42.5a5.484,5.484,0,0,1-1.6,4.117A7.458,7.458,0,0,1,788.3,48.3Zm-276.975,0a4.746,4.746,0,0,1-2.852-.849,2.945,2.945,0,0,1-1.2-2.436c0-2.629,1.875-3.267,4.14-3.78l6.795-1.485V42.5a5.484,5.484,0,0,1-1.6,4.117A7.458,7.458,0,0,1,511.328,48.3Zm-131.715,0a4.746,4.746,0,0,1-2.852-.849,2.945,2.945,0,0,1-1.2-2.436c0-2.629,1.875-3.267,4.14-3.78L386.5,39.75V42.5a5.485,5.485,0,0,1-1.6,4.117A7.458,7.458,0,0,1,379.613,48.3Zm-196.38,0a4.746,4.746,0,0,1-2.852-.849,2.945,2.945,0,0,1-1.2-2.436c0-2.629,1.875-3.267,4.14-3.78l6.8-1.485V42.5a5.484,5.484,0,0,1-1.6,4.117A7.458,7.458,0,0,1,183.233,48.3Zm-116.1,0a4.746,4.746,0,0,1-2.852-.849,2.945,2.945,0,0,1-1.2-2.436c0-2.629,1.875-3.267,4.14-3.78l6.795-1.485V42.5a5.485,5.485,0,0,1-1.6,4.117A7.458,7.458,0,0,1,67.133,48.3Zm989.46-.72c-2.478,0-4.18-.731-5.2-2.233-.9-1.324-1.322-3.289-1.322-6.182,0-2.925.543-4.87,1.71-6.12,1.058-1.241,2.662-1.845,4.9-1.845,4.3,0,6.571,2.754,6.571,7.965a9.727,9.727,0,0,1-2.025,6.57A6.012,6.012,0,0,1,1056.593,47.58Zm-491.355-9.9h-12.87a8.079,8.079,0,0,1,1.08-4.005c.936-1.544,2.871-2.43,5.31-2.43,2.491,0,4.115.749,5.265,2.43a8.718,8.718,0,0,1,1.215,4Zm-130.41,0h-12.87a8.08,8.08,0,0,1,1.08-4.005c.936-1.544,2.871-2.43,5.31-2.43,2.491,0,4.115.749,5.265,2.43a8.718,8.718,0,0,1,1.215,4Zm-319.41,0h-12.87a8.079,8.079,0,0,1,1.08-4.005c.936-1.544,2.871-2.43,5.31-2.43,2.491,0,4.115.749,5.265,2.43a8.717,8.717,0,0,1,1.215,4Z" transform="translate(-13)" fill="#fff"></path></svg> 