<?xml version="1.0" encoding="UTF-8"?> <svg xmlns="http://www.w3.org/2000/svg" id="Group_532" data-name="Group 532" width="99.82" height="31.994" viewBox="0 0 99.82 31.994"><path id="Path_1" data-name="Path 1" d="M26.575,22.62H11.08a7.821,7.821,0,0,0-7.85,7.627.2.2,0,0,0,.205.205H18.93a7.82,7.82,0,0,0,7.85-7.618.2.2,0,0,0-.205-.205Z" transform="translate(-2.561 -10.853)" fill="#fff"></path><path id="Path_2" data-name="Path 2" d="M34.425,9.43H11.08a7.821,7.821,0,0,0-7.85,7.627.2.2,0,0,0,.205.205H26.78a7.82,7.82,0,0,0,7.85-7.618.2.2,0,0,0-.205-.205Z" transform="translate(-2.561 -9.43)" fill="#fff"></path><circle id="Ellipse_1" data-name="Ellipse 1" cx="3.925" cy="3.925" r="3.925" transform="translate(0 24.286) rotate(-10.9)" fill="#fff"></circle><rect id="Rectangle_1" data-name="Rectangle 1" width="4.202" height="23.479" transform="translate(48.465 3.925)" fill="#fff"></rect><path id="Path_3" data-name="Path 3" d="M112.56,30.23c0-4.362-3.069-8.02-7.4-8.02-4.657,0-7.636,3.818-7.636,8.18a7.847,7.847,0,0,0,8.216,8.153,8.493,8.493,0,0,0,6.432-2.81l-2.391-2.391a5.531,5.531,0,0,1-3.943,1.811,4.115,4.115,0,0,1-4.237-3.72h10.865a7.124,7.124,0,0,0,.1-1.2Zm-10.767-1.873a3.4,3.4,0,0,1,3.363-2.748,3.1,3.1,0,0,1,3.1,2.748Z" transform="translate(-12.74 -10.809)" fill="#fff"></path><path id="Path_4" data-name="Path 4" d="M76.508,24.01l-.294-.241a7.151,7.151,0,0,0-4.585-1.579,7.876,7.876,0,0,0-7.7,8.2A8.431,8.431,0,0,0,65.937,35.9,7.877,7.877,0,0,0,71.86,38.55a6.552,6.552,0,0,0,4.353-1.579l.3-.259V38.22H80.29V22.52H76.517v1.49ZM72.137,35.223a4.8,4.8,0,1,1,4.576-4.8A4.7,4.7,0,0,1,72.137,35.223Z" transform="translate(-9.114 -10.807)" fill="#fff"></path><path id="Path_5" data-name="Path 5" d="M93.5,22.19a7.151,7.151,0,0,0-4.585,1.579l-.294.241V22.52H84.85v15.7h3.773V30.04A4.367,4.367,0,0,1,93,25.624a4.271,4.271,0,0,1,2.034.508l1.249-3.408a7.477,7.477,0,0,0-2.765-.526Z" transform="translate(-11.372 -10.807)" fill="#fff"></path><path id="Path_6" data-name="Path 6" d="M48.615,18.252h0a3.173,3.173,0,0,1,2.56-1,6.394,6.394,0,0,1,1.151.125l.6-3.318a9.514,9.514,0,0,0-2.346-.25,6.917,6.917,0,0,0-4.88,1.838c-1.151,1.124-1.668,2.694-1.668,5.1V21.6H41.14V24.88h2.89V37.307h3.943V24.88h4.478V21.6H47.973V20.92a3.9,3.9,0,0,1,.633-2.667Z" transform="translate(-6.653 -9.902)" fill="#fff"></path></svg> 