<?xml version="1.0" encoding="UTF-8"?> <svg xmlns="http://www.w3.org/2000/svg" width="76" height="76.002" viewBox="0 0 76 76.002"><path id="Subtraction_7" data-name="Subtraction 7" d="M76,421H0V345H76v76ZM36.911,404.26a.085.085,0,0,0-.064.02.1.1,0,0,0-.02.076c0,.1,0,.2,0,.291,0,.054,0,.108,0,.161q0,1.881,0,3.76H38.8v-.057c0-.038,0-.075,0-.112q0-1.984,0-3.968c0-.008,0-.016,0-.024a.362.362,0,0,1,0-.051.1.1,0,0,0-.016-.078.1.1,0,0,0-.077-.025h-.019l-.167.006c-.066,0-.129,0-.192.007h-.012a.089.089,0,0,1-.069-.023.1.1,0,0,1-.017-.076c0-.031,0-.062,0-.092,0-.014,0-.027,0-.04q0-1.983,0-3.967c0-.016,0-.032,0-.048a.294.294,0,0,0-.023-.163h-.464l-.29,0h-.006a.1.1,0,0,0-.08.025.11.11,0,0,0-.018.087.72.72,0,0,1,0,.091c0,.014,0,.027,0,.04v3.93c0,.014,0,.027,0,.041a.719.719,0,0,0,0,.091.1.1,0,0,1-.017.08.1.1,0,0,1-.08.025h-.016c-.052,0-.106,0-.158,0s-.109,0-.163,0Zm-3.248-.412c-.055,0-.07.045-.077.094q-.043.29-.088.578l-.105.679q-.125.807-.251,1.614c-.067.429-.137.864-.205,1.285a.124.124,0,0,0,.009.094.107.107,0,0,0,.076.034c.648.091,1.293.164,1.782.218l.022,0c.048,0,.072-.024.079-.08.015-.111.033-.223.05-.331v-.005l.021-.129.324-2.069.062-.4c.06-.379.119-.756.177-1.133.011-.072.015-.107,0-.127s-.051-.025-.122-.034l-.1-.014c-.059-.009-.12-.018-.18-.02a.113.113,0,0,1-.086-.031.126.126,0,0,1-.01-.1c.038-.226.073-.454.107-.674V403.3q.028-.182.056-.363.09-.573.18-1.146l0-.012q.09-.567.179-1.134c.043-.273.085-.546.126-.811a.1.1,0,0,0-.008-.076.1.1,0,0,0-.068-.031c-.19-.027-.441-.063-.691-.106l-.03,0c-.052,0-.066.031-.075.091-.019.142-.042.285-.065.423l-.019.118-.2,1.286-.2,1.286c-.063.4-.112.712-.156,1.007-.012.078-.038.111-.091.111a.2.2,0,0,1-.057-.01,1.423,1.423,0,0,0-.16-.035,1.446,1.446,0,0,1-.154-.033A.17.17,0,0,0,33.663,403.848Zm7.1-4.261h0l-.3.047c-.171.027-.332.053-.5.076a.083.083,0,0,0-.059.027.106.106,0,0,0-.008.078c.017.113.035.226.052.339l.029.184.184,1.19q.171,1.1.342,2.205a.876.876,0,0,0,.022.1.276.276,0,0,1,.006.212c-.041.064-.127.065-.21.066a.7.7,0,0,0-.108.007c-.148.024-.151.025-.129.183.031.214.065.431.1.641l.025.161.051.329q.158,1.021.315,2.04.024.157.048.314c.026.173.052.34.078.508.018.109.025.132.1.132.019,0,.042,0,.072,0,.126-.01.253-.025.376-.039.466-.055.947-.113,1.446-.2q-.181-1.164-.358-2.317l-.011-.074q-.153-.993-.306-1.982c-.092.013-.178.032-.262.051a2.227,2.227,0,0,1-.327.056c-.223-1.442-.445-2.876-.67-4.327Zm-10.121,3.374c-.034,0-.055.022-.07.072-.033.111-.07.223-.1.331-.023.071-.045.14-.067.208l-.373,1.181,0,.007c-.257.812-.522,1.652-.785,2.478-.028.088-.034.128-.021.152s.042.03.088.041l.039.01c.506.142,1.011.263,1.613.4a.532.532,0,0,0,.109.019c.055,0,.067-.039.1-.144q.247-.777.493-1.556l.247-.779q.269-.845.536-1.689c.019-.062.03-.1.019-.117s-.043-.031-.1-.048c-.107-.034-.215-.067-.318-.1l-.052-.016a.168.168,0,0,1,.008-.1l.377-1.18.5-1.567c.122-.386.243-.768.364-1.15.024-.077.037-.12.024-.146s-.053-.037-.124-.059L33,399.166c-.139-.041-.28-.083-.416-.13a.415.415,0,0,0-.105-.029c-.033,0-.041.026-.06.089l-.012.037-.379,1.192,0,.011,0,.015-.378,1.188-.507,1.584a2.19,2.19,0,0,1-.344-.115l-.089-.035A.16.16,0,0,0,30.645,402.961ZM43.1,398.973a.5.5,0,0,0-.126.032l-.522.168c-.077.024-.116.037-.129.062s0,.065.024.143l.286.9,0,.012.286.9c.131.414.261.827.392,1.245l.294.935-.32.1c-.077.023-.116.035-.129.06s0,.061.02.129l.635,2.014.635,2.014c.032.1.044.139.1.139a.53.53,0,0,0,.109-.019c.631-.145,1.143-.275,1.611-.408.077-.022.116-.033.129-.058s0-.064-.022-.142l0-.018-1.214-3.842-.044-.138-.055-.173c0-.01-.006-.02-.008-.029a.157.157,0,0,0-.062-.1l-.372.137-.009,0-.151.056-.014-.033c-.012-.029-.023-.054-.031-.08L44.04,401.8l-.008-.026-.381-1.208-.229-.728-.229-.728C43.16,399.011,43.148,398.973,43.1,398.973ZM27.82,401.652h0l-1.917,3.9-.3.611.1.041.006,0,.051.021c.533.215,1.031.4,1.521.569l.045.016a.486.486,0,0,0,.124.035c.033,0,.044-.024.069-.082.01-.022.021-.048.036-.079q.876-1.778,1.749-3.557l.092-.189,0-.006.193-.4a1.188,1.188,0,0,0-.233-.12c-.038-.016-.077-.033-.115-.051-.068-.034-.1-.05-.111-.076s.007-.056.041-.126l1.5-3.029.067-.136c.077-.158.155-.316.234-.474l0-.005c.016-.031.03-.058.021-.083a.09.09,0,0,0-.053-.046c-.171-.079-.344-.162-.511-.242l-.006,0-.2-.1-.018.029c-.014.022-.025.041-.035.061l-1.4,2.843-.1.2c-.1.209-.21.422-.31.633-.025.052-.046.072-.076.072a.137.137,0,0,1-.067-.024c-.083-.049-.169-.093-.26-.139l-.139-.072Zm17.5-3.634a.172.172,0,0,0-.08.027c-.116.065-.238.124-.355.18l-.117.057c-.1.051-.157.077-.17.115s.012.088.061.187l1.581,3.217c.044.09.087.181.131.272l.088.182-.117.055c-.079.038-.152.073-.227.1-.043.017-.067.037-.076.061a.122.122,0,0,0,.019.1c.068.132.134.267.2.4l.087.177.683,1.4,1.031,2.111c.048.1.068.139.118.139a.475.475,0,0,0,.128-.035l.007,0c.485-.169.979-.355,1.466-.553l.081-.032c.076-.03.114-.045.123-.069s-.008-.055-.041-.119c-.012-.024-.027-.052-.044-.086-.443-.913-.9-1.839-1.335-2.734l0,0-.418-.854-.223-.453-.135-.273-.157.084c-.092.049-.177.094-.262.139a.241.241,0,0,1-.088.036c-.027,0-.042-.027-.074-.092l-1.214-2.472-.192-.389c-.126-.255-.256-.518-.382-.78C45.388,398.052,45.363,398.018,45.322,398.018Zm-20.063,2.041c-.035,0-.062.033-.086.068-.16.238-.326.478-.486.709l-.06.087-2.392,3.467c-.048.071-.073.106-.066.134s.046.049.123.091c.494.266.993.517,1.485.746a.367.367,0,0,0,.127.047c.038,0,.059-.032.107-.1l1.045-1.515.714-1.035.393-.569.029-.042.63-.913c.036-.053.056-.082.051-.105s-.033-.041-.09-.077l-.224-.14-.115-.072.021-.032.057-.087.98-1.414.967-1.4.154-.222,0-.007q.109-.157.218-.315a.1.1,0,0,0,.028-.074.081.081,0,0,0-.041-.049c-.175-.115-.348-.232-.521-.348l-.133-.09a.276.276,0,0,0-.087.094l-.017.026-.861,1.242-.028.041-.833,1.2-.141.2c-.149.215-.3.435-.45.653-.029.042-.053.06-.081.06a.121.121,0,0,1-.07-.03c-.039-.029-.079-.057-.119-.083a1.728,1.728,0,0,1-.158-.114A.127.127,0,0,0,25.259,400.059Zm22.134-3.33h0l-.585.4-.043.029c-.051.034-.077.051-.081.073s.016.052.056.109l.018.026q.808,1.168,1.614,2.337l.032.046.007.011.585.85.005.008.107.155a1.171,1.171,0,0,1-.2.135.989.989,0,0,0-.213.153l.53.771.006.009c.772,1.123,1.571,2.285,2.353,3.427.038.056.071.079.112.079a.188.188,0,0,0,.087-.027c.209-.107.422-.214.628-.316l.5-.252c.115-.059.227-.119.346-.182l.009-.005.176-.094-3.1-4.516-.143.1-.015.01-.335.23-.941-1.361-1.519-2.2Zm-24.545,1.44a.092.092,0,0,0-.071.049.411.411,0,0,1-.049.053l-.029.029-.015.016q-1.371,1.473-2.743,2.945l-.587.633-.023.025-.532.573a.189.189,0,0,0,.087.086l.028.018c.462.31.945.617,1.435.913l0,0a.278.278,0,0,0,.116.053c.034,0,.062-.03.122-.095l3.675-3.943.026-.026a.2.2,0,0,0,.07-.111,1.852,1.852,0,0,0-.173-.141,1.544,1.544,0,0,1-.221-.189l2.076-2.22.927-.991-.293-.267-.36-.328-1.085,1.159-.144.153-1.819,1.942-.132-.112c-.074-.063-.144-.122-.211-.182A.133.133,0,0,0,22.848,398.169Zm26.364-2.994c-.134.144-.277.273-.414.4-.074.068-.151.137-.226.209l.668.718,2.338,2.511-.2.159-.185.148.037.045c.018.022.035.043.053.063l.707.763.063.068.761.82.025.027,2.132,2.3c.065.069.094.1.131.1a.3.3,0,0,0,.128-.06c.374-.234.66-.415.927-.586.131-.084.259-.17.4-.26l.014-.009.217-.145-.464-.5-.029-.031-3.571-3.85-.272.231-.184.156-1.569-1.683Zm-28.607.867c-.026,0-.054.022-.1.063q-2.428,1.944-4.855,3.891l-.026.019a.149.149,0,0,0-.075.094l.035.03.008.007c.023.02.046.04.07.059l.287.223.007.006q.517.4,1.036.8l.04.031c.05.04.074.059.1.059s.054-.022.107-.066l.034-.028,1.9-1.52.163-.131,1.733-1.389.967-.776a1.85,1.85,0,0,0-.17-.17,1.311,1.311,0,0,1-.2-.216c1.106-.882,2.29-1.826,3.62-2.889l-.348-.426-.207-.253c-.072.053-.125.092-.174.13L22.4,395.309l-.014.011-1.2.961c-.086.068-.128.1-.167.1s-.078-.039-.152-.118c-.05-.052-.1-.1-.148-.149S20.633,396.042,20.605,396.042Zm30.207-2.632c-.021,0-.041.013-.064.042-.113.145-.228.289-.346.437l-.15.188,3.619,2.9a1.1,1.1,0,0,1-.173.187,1.177,1.177,0,0,0-.168.178l.013.011.071.061,4.1,3.295.221.177c.133.106.268.214.4.321a.155.155,0,0,0,.1.048.137.137,0,0,0,.083-.035c.537-.41,1.021-.783,1.517-1.192l-1.938-1.559-.189-.152-2.96-2.382c-.056.053-.107.108-.157.161a2.069,2.069,0,0,1-.27.255l-.04-.03c-.025-.018-.048-.036-.071-.054l-3.409-2.732-.038-.029c-.027-.021-.055-.042-.08-.065A.091.091,0,0,0,50.812,393.41Zm-32.32.259a.194.194,0,0,0-.082.038l-.043.026-5.9,3.454-.025.013a.144.144,0,0,0-.083.076l.044.047c.034.037.07.075.107.109l.375.346.014.013c.28.258.566.521.844.784a.178.178,0,0,0,.122.062.235.235,0,0,0,.118-.042c1.126-.661,2.272-1.331,3.379-1.979l.007,0,2.321-1.358.027-.014a.146.146,0,0,0,.087-.081,1.981,1.981,0,0,0-.148-.172,1.646,1.646,0,0,1-.19-.232l.042-.027c.039-.025.073-.047.109-.067l3.819-2.221.166-.1.046-.028c.041-.025.087-.053.134-.077a.074.074,0,0,0,.041-.042.083.083,0,0,0-.018-.063q-.115-.19-.229-.38l0,0-.175-.292a.3.3,0,0,0-.124.054l-.034.021-.028.016-.077.045-3.93,2.284a1.135,1.135,0,0,0-.094.064.421.421,0,0,1-.222.108l-.029,0c-.074-.015-.128-.094-.179-.171a1.039,1.039,0,0,0-.072-.1l-.028-.033C18.537,393.692,18.517,393.669,18.492,393.669Zm33.622-2.29-.293.5-.154.262,2.948,1.724,1.445.845-.312.358-.03.034.025.017c.024.016.039.027.055.036l1.643.966.164.1q1.99,1.169,3.978,2.34a.18.18,0,0,0,.09.031.152.152,0,0,0,.1-.054c.172-.162.348-.324.518-.479l.006-.006q.2-.187.406-.375l.113-.1a4.082,4.082,0,0,0,.359-.356.36.36,0,0,0-.116-.088l-.028-.016-4.571-2.686-.053-.031-.152-.09-.007,0c-.366-.214-.745-.436-1.117-.659a.188.188,0,0,0-.093-.035c-.034,0-.063.02-.093.066a1.242,1.242,0,0,1-.112.139l-.057.065c-.071.086-.1.126-.147.126a.371.371,0,0,1-.149-.068l-3.459-2.024-.594-.345-.014-.008-.3-.176h0Zm-35.66-.33a.284.284,0,0,0-.105.027c-.575.234-1.16.468-1.726.7l-.395.158-4.873,1.95-.041.014a.188.188,0,0,0-.113.068l0,.01a.053.053,0,0,0,0,.013c.376.444.779.876,1.168,1.294l.152.163a.138.138,0,0,0,.1.053.145.145,0,0,0,.063-.016c.041-.018.082-.035.122-.05l2.05-.82.019-.008q2.262-.905,4.524-1.812l.076-.028a.713.713,0,0,0,.214-.1l-.28-.373-.069-.093,5.354-2.133-.078-.193c-.077-.191-.151-.372-.222-.554-.017-.04-.033-.056-.057-.056a.094.094,0,0,0-.041.012.444.444,0,0,1-.059.025l-.028.011-.588.234-.074.029q-2.2.875-4.393,1.749a1.123,1.123,0,0,0-.1.049.488.488,0,0,1-.208.073.173.173,0,0,1-.04,0c-.078-.019-.123-.1-.167-.173a.785.785,0,0,0-.071-.108.091.091,0,0,1-.011-.015C16.537,391.076,16.5,391.049,16.455,391.049ZM53.144,389.2c-.035,0-.048.032-.076.1q-.067.166-.132.331l-.092.23c-.052.133-.052.133.075.186l.027.01.027.01q2.508,1,5.015,2.011l.036.012a.151.151,0,0,1,.111.078l-.08.107-.229.3a.162.162,0,0,0,.107.071l.032.011,4.073,1.64.259.1,1.257.506.306.122,0,0c.307.122.624.249.934.377a.222.222,0,0,0,.09.022.151.151,0,0,0,.12-.07c.059-.071.124-.138.187-.2.041-.043.083-.085.123-.129l.711-.782.011-.012.3-.331-.08-.036c-.044-.02-.08-.037-.118-.052l-5.836-2.348-.269-.108-.032-.013c-.281-.112-.572-.228-.855-.347a.221.221,0,0,0-.084-.021c-.046,0-.08.025-.115.083a1.332,1.332,0,0,1-.085.119,1.262,1.262,0,0,0-.09.127c-.033.056-.068.082-.112.082a.18.18,0,0,1-.09-.03.14.14,0,0,0-.033-.014l-.019-.007-3.786-1.517q-.747-.3-1.493-.6A.329.329,0,0,0,53.144,389.2Zm-38.672-1.138a.557.557,0,0,0-.11.02l-4.62,1.08-3.585.838-.018,0a.226.226,0,0,0-.111.046l.01.023a.122.122,0,0,0,.011.023c.3.407.616.812.92,1.2l.277.356a.18.18,0,0,0,.149.081.433.433,0,0,0,.1-.014l7.927-1.854.112-.026.015,0c.031-.007.064-.013.072-.062l-.048-.074-.275-.424.034-.017a.151.151,0,0,1,.037-.016l3.919-.912,1.055-.245.178-.041,1.215-.282c.081-.019.118-.028.133-.052s.006-.066-.014-.148l-.03-.122c-.035-.142-.071-.285-.1-.429-.023-.1-.03-.127-.078-.127a.511.511,0,0,0-.1.017l-2.135.5-3.108.724-.484.112c-.3.069-.609.14-.915.215a.3.3,0,0,1-.07.01.12.12,0,0,1-.114-.081,1.4,1.4,0,0,0-.09-.152l-.037-.058C14.538,388.095,14.52,388.067,14.473,388.067Zm39.374-1.214c-.046,0-.07.028-.082.092-.04.214-.094.426-.151.644a.114.114,0,0,0,0,.092.1.1,0,0,0,.076.039l.074.014,1.79.42q2.02.474,4.04.949l.15.033a2.75,2.75,0,0,1,.442.121l-.2.31-.12.188a.348.348,0,0,0,.14.054l.009,0,.78.184.6.141c2.247.53,4.442,1.048,6.6,1.561a.359.359,0,0,0,.088.012.217.217,0,0,0,.184-.105c.2-.274.417-.548.623-.814.128-.165.254-.328.379-.491l.041-.052a1.071,1.071,0,0,0,.154-.235l-.106-.028c-.072-.019-.141-.037-.21-.054l-.115-.027-7.666-1.8c-.035-.008-.072-.02-.107-.031a.7.7,0,0,0-.2-.044.209.209,0,0,0-.058.008c-.086.024-.129.117-.172.207a1.051,1.051,0,0,1-.053.1c-.038.061-.074.1-.142.1a.306.306,0,0,1-.069-.009c-1.583-.377-3.193-.755-4.75-1.12l-.031-.007-1.015-.238-.307-.072-.558-.131A.285.285,0,0,0,53.847,386.853ZM12.494,384.6c-.024,0-.052,0-.088.005l-.02,0-.307.025c-.43.035-.917.075-1.389.111l-.978.072-.035,0q-.616.045-1.231.092l-1.718.134-.049,0-1.419.111q-.838.064-1.679.124l-.565.041-.022,0a.232.232,0,0,0-.147.046l.131.213c.1.156.194.317.294.475.2.321.414.646.617.959l.068.106.01.015c.031.048.06.093.127.093l.021,0c.1-.013.207-.02.308-.026l.144-.01.9-.071h.006l1.314-.1.793-.059c.308-.022.616-.045.923-.069l1.209-.1.022,0,.037,0q.714-.057,1.428-.112c.758-.058,1.513-.113,2.244-.166h.018a.11.11,0,0,0,.1-.05l-.162-.294-.009-.017-.007-.013-.143-.26,1.611-.122.9-.068.821-.061.819-.061.711-.054,1.665-.127.287-.022c.406-.031.825-.063,1.24-.092a.129.129,0,0,0,.094-.034.121.121,0,0,0,.017-.092c-.021-.227-.035-.45-.047-.66,0-.073-.027-.1-.091-.1h-.026c-.387.031-.78.059-1.161.086l-.022,0-.721.052q-.791.058-1.583.12l-.059,0-.735.056-.971.072-.651.048-.56.042c-.552.041-1.122.083-1.682.14-.036,0-.068.005-.1.005a.351.351,0,0,1-.372-.271C12.6,384.625,12.575,384.6,12.494,384.6Zm41.711-.235c-.074,0-.1.032-.1.121,0,.161-.018.323-.032.48,0,.048-.008.095-.012.141v.005c-.005.06-.008.09.006.106s.044.019.1.023c1.049.085,1.917.154,2.733.218q.906.073,1.813.142l.581.045,1.875.143.822.063h.022a.564.564,0,0,1,.206.042l-.061.111-.257.468.158.009.227.016,1.131.09,1.131.09.915.07.688.052,2.091.166.171.014.586.048.024,0,.577.047.532.04h.01c.391.029.8.06,1.194.092h.027a.186.186,0,0,0,.171-.1l.025-.038c.344-.534.7-1.086,1.033-1.639l.011-.016c.018-.025.037-.051.008-.087l-.412-.033-1.15-.091-.643-.048q-.527-.039-1.053-.08-.672-.052-1.343-.107h-.008l-.817-.066-.7-.053-.023,0-.954-.073-.793-.063h-.013c-.477-.038-.97-.077-1.457-.113a.743.743,0,0,1-.1-.016.591.591,0,0,0-.12-.018.15.15,0,0,0-.1.029.621.621,0,0,0-.159.271.2.2,0,0,1-.21.155l-.047,0c-.414-.04-.835-.072-1.242-.1l-.133-.01-.779-.058q-.469-.034-.938-.071c-1.074-.083-1.967-.152-2.809-.22-.212-.017-.424-.035-.636-.053l-.533-.045-.564-.042c-.214-.015-.428-.031-.643-.048Zm-41.523-2.378.031,0a.648.648,0,0,0,.082.006l.05,0,.6.048h.014l1.192.094.782.06.033,0,.768.059,2.281.181.589.048h.014l.585.047.446.035h.015c.355.028.723.056,1.084.086h.022c.064,0,.089-.028.092-.1.008-.162.021-.326.033-.485l.01-.137c0-.021,0-.04.005-.055,0-.04.007-.062,0-.076s-.057-.023-.147-.033c-.259-.026-.523-.045-.779-.063h-.018l-.277-.02-.422-.031c-.424-.031-.862-.063-1.294-.1l-1.134-.091-.019,0-1.448-.116c-.526-.042-1.061-.082-1.578-.121h-.019l-.61-.046c-.171-.013-.341-.028-.52-.043l-.07-.006a1.18,1.18,0,0,1,.1-.208.971.971,0,0,0,.1-.2.107.107,0,0,0-.088-.03H13.16l-.906-.071h-.01l-.592-.046-2.281-.181-.542-.041h-.01l-1.031-.079-.7-.056H7.075l-1.57-.125-.2-.016H5.3c-.476-.038-.968-.077-1.451-.121l-.038,0a.2.2,0,0,0-.19.113c-.152.25-.31.5-.462.746l-.285.458c-.08.13-.156.258-.237.394l-.1.162.042.01a.373.373,0,0,0,.048.01l.03,0,.95.074.293.023,1.913.151.939.073.72.055,1.5.119.039,0,.671.054.45.037.023,0h.011c.259.022.519.043.779.063l.448.033c.261.019.53.038.8.061h.027a.144.144,0,0,0,.147-.1c.033-.074.071-.148.108-.22s.07-.136.1-.2S12.63,381.982,12.682,381.982ZM71.7,379.965l-.034,0c-.149.013-.3.022-.444.032l-.311.021-.417.031-1.2.091-1.149.089-.037,0-1.132.087-.819.062h-.009l-.812.061-.457.035-.064,0c-.6.045-1.212.091-1.817.144-.081.007-.164.011-.244.015a3.392,3.392,0,0,0-.571.062l.177.341.05.1-.112.007-.188.012-.552.043c-.707.056-1.437.113-2.161.168l-.979.072-.793.058-1.663.125-.083.006-1.175.089-.25.02h-.016l-.263.021c-.124.011-.124.011-.116.126.015.18.028.357.04.529l.008.116c.007.091.009.113.068.113.017,0,.04,0,.068,0l.437-.032.864-.063,1.6-.119h.017l.789-.061.039,0,1.53-.117.466-.034.029,0,.654-.049h.014c.681-.054,1.386-.109,2.078-.166h.02a.124.124,0,0,1,.124.089c.028.061.059.121.089.18s.071.138.1.209a.167.167,0,0,0,.167.121l.036,0c.248-.025.5-.043.745-.06h.012l.223-.016.71-.052.026,0,.924-.068.979-.076,1.3-.1.963-.072.715-.053c.949-.072,1.913-.146,2.865-.221h.064a.128.128,0,0,0,.1-.031v-.011a.059.059,0,0,0,0-.027c-.328-.561-.669-1.106-1.079-1.752A.146.146,0,0,0,71.7,379.965Zm-3.269-4.555a1.166,1.166,0,0,0-.233.042l-.012,0-3.726.872-.109.026-3.377.79-.472.111-.34.08a.822.822,0,0,0,.11.194.665.665,0,0,1,.1.186.073.073,0,0,1-.057.034l-.015,0-2.1.488-.164.038-2.283.531-.865.2-.043.01-.091.021-1.026.239c-.131.031-.134.035-.105.159l.041.173c.035.148.071.3.1.452.014.061.03.1.072.1a.129.129,0,0,0,.053-.014.226.226,0,0,1,.057-.013l.036-.006,2.73-.635,2.847-.662.559-.132.034-.008.584-.137a.545.545,0,0,1,.11-.02c.052,0,.071.031.128.123l.043.07c.051.083.1.168.153.254.034.061.073.121.138.121a.169.169,0,0,0,.081-.025.058.058,0,0,1,.022,0l.015,0,4.131-.965,4.131-.965.007,0a.13.13,0,0,0,.09-.048.241.241,0,0,0-.058-.1l-.021-.027,0,0c-.322-.429-.656-.872-.987-1.308C68.589,375.475,68.54,375.41,68.432,375.41Zm-53.78,3.108a.345.345,0,0,1,.077.01c1.731.411,3.491.823,5.194,1.222l.033.008.716.168.5.115.5.117c.016-.07.032-.139.048-.207.039-.173.077-.337.122-.5.021-.075.029-.113.015-.136s-.046-.029-.106-.043l-.023-.005-3.924-.92-1.927-.451-.625-.149-.15-.036a.922.922,0,0,1,.115-.2.932.932,0,0,0,.094-.159.159.159,0,0,0-.1-.049l-.024,0-.549-.13q-.571-.136-1.142-.27l-1.687-.4-.055-.013-.007,0c-1.512-.356-3.076-.723-4.612-1.089a.357.357,0,0,0-.083-.011.215.215,0,0,0-.18.11c-.231.311-.469.623-.7.924l-.021.027-.307.4c-.033.043-.064.086-.1.134l-.071.1.241.06.009,0,6.692,1.579.817.193.634.149a.584.584,0,0,0,.112.019c.051,0,.07-.03.125-.119.024-.04.048-.078.072-.116.046-.073.093-.148.134-.224S14.587,378.518,14.652,378.518ZM65.237,371.6a.276.276,0,0,0-.1.025c-.654.268-1.317.532-1.958.788l-.829.332q-2.038.816-4.068,1.631a.429.429,0,0,1-.042.013.154.154,0,0,0-.114.076,1.346,1.346,0,0,0,.1.131.993.993,0,0,1,.124.185l-.04.018-.065.029-1.748.7-1.325.527q-1.123.447-2.245.9c-.123.049-.121.053-.073.175l.084.21c.045.111.089.222.133.333l0,0c.034.086.048.122.088.122a.407.407,0,0,0,.121-.038l2.6-1.035.064-.025,1.018-.4.788-.313,1-.4a.391.391,0,0,1,.121-.038c.041,0,.063.032.118.108l.049.068c.068.094.137.19.2.287.035.052.065.075.1.075a.134.134,0,0,0,.068-.023.276.276,0,0,1,.057-.024l.03-.011,1.772-.709,4.8-1.923.319-.129.016-.007.247-.1-.013-.031a.083.083,0,0,0-.013-.027l-.3-.331c-.319-.357-.65-.726-.974-1.094A.166.166,0,0,0,65.237,371.6ZM16.621,375.51a.391.391,0,0,1,.121.038l4.5,1.806.363.145.637.255.016.007a.17.17,0,0,0,.063.019c.026,0,.044-.017.058-.053l.154-.386,0,0,.117-.293a.073.073,0,0,0,0-.058.064.064,0,0,0-.04-.032l-.057-.023-.048-.019-4.891-1.961-.424-.172-.059-.024.126-.177.1-.135a.14.14,0,0,0-.082-.059l-.018-.007-.6-.241-.048-.019-.806-.324-2.084-.838-3.348-1.347a.414.414,0,0,0-.128-.04c-.039,0-.065.028-.122.09l-.147.16,0,0c-.164.179-.334.364-.5.547-.148.164-.292.329-.444.5l-.211.241.458.185.024.01.508.206,2.339.941,2.339.941.562.225.007,0c.325.13.66.264.991.4a.251.251,0,0,0,.094.024c.048,0,.084-.026.12-.088a2.983,2.983,0,0,1,.175-.252l.065-.088C16.558,375.542,16.581,375.51,16.621,375.51Zm45.4-7.13c-.018,0-.036.012-.07.033-.018.012-.041.026-.069.043-1.893,1.1-3.808,2.225-5.692,3.329l-.045.024a.3.3,0,0,0-.123.093.656.656,0,0,0,.1.129.672.672,0,0,1,.125.166l-1.042.607-3.531,2.055.121.209c.095.163.184.316.272.474.023.04.045.059.073.059a.115.115,0,0,0,.062-.025.644.644,0,0,1,.068-.041l.013-.007q1.338-.78,2.678-1.559l.866-.5.866-.5.024-.014a.333.333,0,0,1,.121-.057c.022,0,.036.017.063.052.012.016.028.035.047.058.116.133.2.237.274.337a.126.126,0,0,0,.1.065.15.15,0,0,0,.087-.037.392.392,0,0,1,.05-.03l.031-.018.275-.161,4.83-2.825c.3-.177.608-.355.915-.536a.417.417,0,0,0-.1-.126l-.025-.024c-.373-.367-.772-.745-1.221-1.157l-.04-.037C62.07,368.4,62.047,368.38,62.023,368.38Zm-43.356,4.466a.183.183,0,0,1,.077.037l.061.037,2.59,1.513.01.006,1.007.589.952.556.134-.224c.094-.157.185-.31.278-.464a.086.086,0,0,0,.018-.066.072.072,0,0,0-.04-.041.759.759,0,0,1-.068-.04l-.029-.018-4.258-2.49-.034-.018a.224.224,0,0,1-.108-.088l.066-.079.155-.185a.179.179,0,0,0-.085-.073l-.024-.013-1.923-1.13q-1.923-1.13-3.845-2.261a.212.212,0,0,0-.105-.036.176.176,0,0,0-.119.062l-.137.128c-.35.325-.712.662-1.057,1-.017.017-.036.033-.055.049a.41.41,0,0,0-.126.148l.03.02c.039.026.076.051.114.073l2.208,1.3,2.208,1.3.31.182c.395.231.8.47,1.2.71a.2.2,0,0,0,.1.036c.037,0,.068-.021.1-.069.08-.113.174-.222.262-.323l.048-.057C18.627,372.867,18.644,372.846,18.667,372.846Zm40.087-7.2c-.023,0-.046.019-.1.06l-.035.028-1.182.947-2.626,2.1-.705.566-.016.013-.3.24.2.164.1.083-2.582,2.06-1.256,1,.158.2c.1.126.2.243.29.364l.032.041c.034.045.052.068.074.068s.051-.022.106-.066l.015-.012.6-.478.6-.477L54.59,370.6l.027-.022c.045-.037.068-.055.09-.055s.046.023.09.069l.018.018c.127.131.23.24.324.344a.1.1,0,0,0,.073.043.1.1,0,0,0,.068-.036.584.584,0,0,1,.048-.04l.025-.019,4.884-3.916.023-.017a.092.092,0,0,0,.056-.086c-.457-.383-.938-.766-1.43-1.14l-.055-.044C58.793,365.665,58.774,365.649,58.754,365.649Zm-37.94,4.832c.027,0,.055.023.111.068l1.508,1.208,1.445,1.157.217.174c.176.141.349.279.52.418a.113.113,0,0,0,.067.033c.023,0,.044-.015.068-.047.106-.138.214-.271.328-.413l.008-.01.156-.195-.214-.171-3.587-2.873.12-.127.144-.15-.4-.325-.437-.352-.43-.346L16.9,365.687c-.062-.05-.093-.075-.124-.075s-.058.022-.112.062c-.443.336-.907.7-1.378,1.093l-.021.014c-.029.019-.06.039-.054.09l2.5,2.015,2.576,2.073c.161-.155.288-.278.409-.4C20.759,370.507,20.785,370.481,20.814,370.481ZM55.4,363.357c-.048,0-.085.04-.167.128l-.631.677-.011.011q-1.489,1.6-2.977,3.2c-.014.015-.029.03-.044.044a.474.474,0,0,0-.111.141l.053.043.243.2-.409.438-.022.023-.782.837-.466.5,0,.005c-.463.5-.943,1.007-1.416,1.509-.038.04-.052.067-.051.092s.019.051.06.085c.115.1.226.2.333.307l0,0,.119.113.011.01c.044.041.066.061.088.061s.046-.023.09-.071l.8-.851,1.243-1.329.318-.339c.226-.241.461-.49.688-.738a.136.136,0,0,1,.093-.056.139.139,0,0,1,.091.049c.1.093.2.182.312.277l.117.1,3.183-3.419.029-.031.891-.957c-.457-.315-.945-.636-1.491-.979A.428.428,0,0,0,55.4,363.357Zm-32.312,4.983h.01l.936,1.005,1.1,1.178.317.339c.248.265.5.538.752.81.036.039.064.057.092.057s.052-.015.089-.051c.1-.1.2-.195.305-.288l.137-.126c.056-.052.084-.078.085-.105s-.023-.053-.077-.111l-.779-.835q-.959-1.027-1.917-2.056l-.094-.1a2.222,2.222,0,0,1-.268-.312c.1-.082.19-.157.3-.246l-.508-.546-.013-.014c-.375-.4-.744-.8-1.113-1.2l-1.085-1.172L20.27,363.4c-.059-.064-.088-.1-.124-.1a.322.322,0,0,0-.136.065c-.5.311-.987.626-1.443.938l-.017.011a.1.1,0,0,0-.06.073l.021.026c.019.024.039.049.061.072l3.435,3.7.141.152.063.069,0,0c.08.087.16.174.241.26.049.052.077.081.1.081s.056-.025.114-.076l.109-.1c.065-.057.127-.111.191-.165l.024-.023A.127.127,0,0,1,23.092,368.341Zm28.855-6.907c-.034,0-.057.034-.121.126q-.76,1.1-1.519,2.2l-.35.507q-.478.693-.953,1.384c-.075.109-.073.11.029.182l.005,0c.023.016.048.031.072.045a.587.587,0,0,1,.159.122l-1.092,1.576-1.508,2.175.563.388.148.1a.238.238,0,0,0,.092-.1l.017-.027q.668-.961,1.336-1.924l.273-.393c.267-.383.542-.779.813-1.174.06-.088.09-.125.121-.125s.044.017.078.044l.057.042.266.188.135.1,1.172-1.7.129-.187,1.83-2.652-.05-.03-.051-.03c-.445-.245-.939-.5-1.509-.782l-.058-.03A.211.211,0,0,0,51.947,361.434Zm-26.421,5h0l1.835,2.656.041.059.732,1.06.44-.3.285-.2-.034-.053c-.016-.026-.031-.048-.046-.07l-.632-.915-.035-.051q-.847-1.228-1.693-2.456a.614.614,0,0,0-.05-.061c-.044-.049-.089-.1-.077-.158s.074-.088.133-.117a.632.632,0,0,0,.07-.038l.027-.017c.045-.029.07-.044.074-.065s-.017-.056-.065-.125q-.492-.714-.977-1.421l-.692-1.008-.021-.031q-.558-.812-1.116-1.623l-.023-.033c-.043-.064-.059-.087-.084-.087a.167.167,0,0,0-.065.026l-.059.03c-.279.138-.553.273-.828.415-.18.092-.355.186-.54.284l-.27.143,1.574,2.29,1.545,2.249.551-.386Zm22.84-6.5c-.031,0-.043.025-.071.086l-.024.049q-.625,1.267-1.248,2.535l0,.009-.314.638-.13.266,0,.005c-.106.216-.215.44-.326.659a.124.124,0,0,0-.02.095c.008.023.031.042.075.061l.062.026a.7.7,0,0,1,.223.124l-.013.031-.025.057q-.471.956-.943,1.912l-.493,1-.493,1c-.057.117-.056.119.063.179l.215.106.328.161.007,0a.285.285,0,0,0,.1.037c.034,0,.051-.034.088-.11q.378-.765.755-1.529l.008-.015.506-1.026c.231-.466.464-.932.7-1.409l.57.307.022-.039c.021-.038.04-.07.057-.1l.831-1.693,0-.01.435-.887.108-.219q.362-.736.723-1.474c.029-.06.043-.092.035-.115s-.04-.036-.1-.061c-.633-.259-1.121-.447-1.584-.611l-.03-.011A.339.339,0,0,0,48.367,359.937Zm-20.221,4.919c.032,0,.048.03.083.1l.665,1.355.044.089.622,1.266c.23.472.407.832.573,1.167,0,.008.008.017.012.027.014.034.029.069.067.069a.113.113,0,0,0,.053-.016c.218-.111.438-.216.645-.313a.087.087,0,0,0,.051-.044.074.074,0,0,0-.008-.058l-.023-.049L30.9,368.4l-.378-.768q-.473-.961-.945-1.922l-.2-.407,0-.01-.409-.833a.327.327,0,0,1,.162-.105l.053-.022.009,0c.093-.042.136-.061.146-.091s-.009-.062-.041-.125l-.025-.049-.584-1.2-.724-1.482q-.146-.3-.294-.6c-.13-.265-.259-.527-.386-.789-.025-.054-.051-.087-.1-.087a.2.2,0,0,0-.073.018c-.181.072-.368.14-.548.206-.126.046-.249.091-.372.138-.206.078-.407.159-.62.244l-.2.08.077.162,0,.007.071.149.63,1.288.027.056.668,1.366.171.348q.255.52.511,1.04c.038.077.055.108.087.108a.277.277,0,0,0,.1-.044l.13-.071c.064-.035.124-.069.185-.1A.3.3,0,0,1,28.145,364.857ZM44.7,358.88c-.07,0-.084.047-.129.185l-.4,1.277q-.4,1.278-.809,2.555c-.008.024-.018.05-.028.076a.3.3,0,0,0-.037.19c.023.061.094.074.164.086a.5.5,0,0,1,.1.025l.01,0a.078.078,0,0,0,.025.008.109.109,0,0,1,.087.037c.018.028.01.069-.008.122-.064.194-.127.392-.188.584l0,.008-.08.251c-.323,1.01-.7,2.184-1.066,3.341l0,.013c-.02.065-.03.1-.021.112s.027.02.062.03l.045.014c.157.052.315.1.474.152l.1.032a.415.415,0,0,0,.108.028c.042,0,.054-.037.083-.128l.274-.858.006-.017q.264-.828.529-1.657l.183-.575,0-.008q.181-.569.363-1.137l.029,0a.279.279,0,0,1,.109.028l.014.006.131.048c.075.027.151.054.222.087a.158.158,0,0,0,.063.018c.035,0,.056-.026.066-.083a.148.148,0,0,1,.011-.034c0-.007.005-.013.007-.02q.656-2.076,1.313-4.153c.035-.109.045-.151.031-.175s-.037-.024-.079-.034l-.07-.017c-.586-.166-1.074-.291-1.536-.393h-.007A.778.778,0,0,0,44.7,358.88Zm-13.677,4.7h0l.025.073c.01.029.019.055.028.081l.424,1.338.561,1.772q.111.352.223.7l.108.339.006.022c.01.036.02.074.063.074a.129.129,0,0,0,.037-.007c.155-.05.31-.1.466-.147l.006,0,.231-.072a.07.07,0,0,0,.046-.031.066.066,0,0,0,0-.052c-.007-.02-.013-.04-.018-.061s-.009-.032-.014-.047l-.706-2.233-.016-.05-.545-1.725c-.042-.132-.064-.2-.041-.241s.094-.066.233-.109l.012,0,.023-.009c.133-.042.134-.044.092-.18l-.626-2-.367-1.166-.278-.882c-.03-.094-.04-.125-.086-.125a.5.5,0,0,0-.093.016c-.538.117-1.092.257-1.647.416-.069.02-.107.031-.12.055s0,.062.021.131l.482,1.529.487,1.546q.166.531.333,1.061c.037.12.051.165.1.165a.493.493,0,0,0,.134-.038l.01,0c.039-.014.078-.029.118-.045a1.648,1.648,0,0,1,.287-.093Zm9.854-5.341c-.059,0-.087.028-.1.1-.016.127-.037.257-.057.382l-.022.14q-.091.588-.183,1.176t-.183,1.173l-.086.558,0,.03c-.037.241-.075.485-.113.733l.1.014c.09.013.166.025.244.034s.1.015.12.035.011.055,0,.127q-.088.572-.178,1.143l-.089.571-.005.035q-.164,1.039-.326,2.071l-.018.114v.008c-.024.158-.049.316-.072.475v.008a.107.107,0,0,0,.006.079.076.076,0,0,0,.053.026c.206.031.425.065.71.112l.029,0c.053,0,.069-.034.077-.094.094-.619.193-1.247.289-1.854l.09-.57.1-.626,0-.014q.105-.677.211-1.354c.014-.086.024-.11.072-.11a.452.452,0,0,1,.079.011c.113.022.228.047.339.071l.118.025.011-.027a.215.215,0,0,0,.014-.039q.094-.6.188-1.2t.189-1.205q.134-.86.266-1.715c.016-.1.022-.15,0-.178s-.064-.033-.146-.046c-.607-.092-1.22-.165-1.687-.219Zm-6.829,4.506c.044,0,.048.026.061.11q.086.54.171,1.081.156,1.006.311,2.013l0,.023.043.276.031.206c.041.269.084.547.123.82.009.06.025.092.078.092a.217.217,0,0,0,.044-.005c.223-.044.447-.074.616-.094l.047,0c.039,0,.064,0,.079-.023s.017-.06,0-.148q-.048-.315-.1-.63l0-.01q-.045-.285-.089-.571-.136-.87-.27-1.741l-.135-.87c-.034-.222-.067-.445-.1-.688l.135-.018c.088-.012.168-.023.247-.029a.109.109,0,0,0,.082-.033.113.113,0,0,0,.01-.09c-.015-.085-.027-.172-.038-.256-.007-.053-.014-.1-.022-.155l-.191-1.234-.01-.062-.2-1.3c-.062-.4-.114-.746-.161-1.064-.012-.083-.044-.119-.108-.119a.234.234,0,0,0-.039,0c-.074.013-.15.02-.224.027h-.005l-.09.009c-.455.049-.934.112-1.425.186a.106.106,0,0,0-.075.033.1.1,0,0,0-.008.076c.016.089.029.18.041.268.008.06.016.12.026.18q.2,1.3.4,2.592l.034.22c.044.288.09.586.138.879.016.1.023.129.07.129a.52.52,0,0,0,.087-.013c.108-.022.213-.041.315-.059A.6.6,0,0,1,34.045,362.75Zm3.214-.354h0a.094.094,0,0,1,.072.024.1.1,0,0,1,.021.077c0,.029,0,.058,0,.087,0,.015,0,.03,0,.045q0,.307,0,.613c0,.536,0,1.089,0,1.636,0,.169,0,.337,0,.506,0,.373.005.758-.015,1.138-.007.132-.006.263,0,.4,0,.063,0,.127,0,.191h.894v-4.709a1.388,1.388,0,0,1,.154-.008c.073,0,.145,0,.214.009.053,0,.1.007.151.008a.134.134,0,0,0,.028-.1V362.3c0-.172,0-.347.006-.516s.005-.31.006-.465c.006-.7.006-1.413,0-2.1,0-.309,0-.616,0-.922,0-.019,0-.038,0-.057a.467.467,0,0,1,.011-.159H36.794a.433.433,0,0,1,.012.159c0,.019,0,.038,0,.057q0,1.5,0,3.006c0,.383,0,.7-.008.983a.129.129,0,0,0,.023.1.094.094,0,0,0,.071.023h.021c.067,0,.135-.006.2-.006l.139,0Z" transform="translate(0 -345)" fill="#242425"></path></svg> 