<?xml version="1.0" encoding="UTF-8"?> <svg xmlns="http://www.w3.org/2000/svg" width="31.595" height="31.595" viewBox="0 0 31.595 31.595"><path id="Path_2473" data-name="Path 2473" d="M152.116,107.44a16,16,0,0,0-15.8,16.2,16.169,16.169,0,0,0,10.8,15.368c.79.148,1.078-.351,1.078-.781,0-.385-.014-1.4-.021-2.755-4.394.979-5.321-2.171-5.321-2.171a4.263,4.263,0,0,0-1.754-2.369c-1.434-1.005.109-.984.109-.984a3.327,3.327,0,0,1,2.42,1.669,3.317,3.317,0,0,0,4.6,1.346,3.5,3.5,0,0,1,1-2.166c-3.508-.409-7.2-1.8-7.2-8.005a6.35,6.35,0,0,1,1.626-4.346,5.956,5.956,0,0,1,.155-4.287s1.326-.436,4.344,1.66a14.625,14.625,0,0,1,7.91,0c3.016-2.1,4.34-1.66,4.34-1.66a5.957,5.957,0,0,1,.158,4.287,6.339,6.339,0,0,1,1.623,4.346c0,6.222-3.694,7.592-7.213,7.992a3.92,3.92,0,0,1,1.073,3c0,2.166-.019,3.913-.019,4.444,0,.433.285.937,1.086.779a16.171,16.171,0,0,0,10.795-15.366A16,16,0,0,0,152.116,107.44Z" transform="translate(-136.32 -107.44)" fill="#1d1d1f" fill-rule="evenodd"></path></svg> 