<?xml version="1.0" encoding="UTF-8"?> <svg xmlns="http://www.w3.org/2000/svg" xmlns:xlink="http://www.w3.org/1999/xlink" id="Group_75" data-name="Group 75" width="23.889" height="23.889" viewBox="0 0 23.889 23.889"><defs><clipPath id="clip-path"><rect id="Rectangle_94" data-name="Rectangle 94" width="23.889" height="23.889" fill="#fff"></rect></clipPath></defs><g id="Group_74" data-name="Group 74" clip-path="url(#clip-path)"><path id="Path_853" data-name="Path 853" d="M51.056,74.1a1.244,1.244,0,1,0-1.244,1.244A1.245,1.245,0,0,0,51.056,74.1" transform="translate(-40.605 -60.909)" fill="#fff"></path><path id="Path_854" data-name="Path 854" d="M59.817,97.231a4.667,4.667,0,0,1-5,0,.322.322,0,0,0-.456.456,5.232,5.232,0,0,0,5.909,0,.322.322,0,1,0-.456-.456" transform="translate(-45.371 -81.211)" fill="#fff"></path><path id="Path_855" data-name="Path 855" d="M11.944,0A11.944,11.944,0,1,0,23.889,11.944,11.944,11.944,0,0,0,11.944,0m6.925,13.536a3.426,3.426,0,0,1,.041.523c0,2.68-3.12,4.852-6.968,4.852s-6.968-2.173-6.968-4.852a3.428,3.428,0,0,1,.042-.527,1.741,1.741,0,1,1,1.917-2.845,8.554,8.554,0,0,1,4.727-1.476l.886-4.166a.311.311,0,0,1,.369-.24l2.895.615a1.243,1.243,0,1,1-.127.609l-2.592-.551L12.3,9.212a8.528,8.528,0,0,1,4.658,1.478,1.741,1.741,0,1,1,1.914,2.845" transform="translate(0 0.001)" fill="#fff"></path><path id="Path_856" data-name="Path 856" d="M83.2,72.853A1.244,1.244,0,1,0,84.448,74.1,1.246,1.246,0,0,0,83.2,72.853" transform="translate(-68.523 -60.909)" fill="#fff"></path></g></svg> 