<?xml version="1.0" encoding="UTF-8"?> <svg xmlns="http://www.w3.org/2000/svg" xmlns:xlink="http://www.w3.org/1999/xlink" id="Group_65" data-name="Group 65" width="30.858" height="23.887" viewBox="0 0 30.858 23.887"><defs><clipPath id="clip-path"><rect id="Rectangle_89" data-name="Rectangle 89" width="30.858" height="23.887" fill="#fff"></rect></clipPath></defs><g id="Group_64" data-name="Group 64" clip-path="url(#clip-path)"><path id="Path_849" data-name="Path 849" d="M26.14,2a25.14,25.14,0,0,0-6.367-2,18.794,18.794,0,0,0-.816,1.693,23.371,23.371,0,0,0-7.055,0A18.1,18.1,0,0,0,11.077,0,25.055,25.055,0,0,0,4.706,2.005,26.7,26.7,0,0,0,.131,19.883a25.444,25.444,0,0,0,7.808,4A19.393,19.393,0,0,0,9.611,21.13a16.434,16.434,0,0,1-2.633-1.282c.221-.164.437-.335.645-.511a18,18,0,0,0,15.611,0c.211.176.427.347.645.511a16.424,16.424,0,0,1-2.638,1.284,19.364,19.364,0,0,0,1.672,2.754,25.4,25.4,0,0,0,7.813-4A26.675,26.675,0,0,0,26.14,2M10.3,16.284a3,3,0,0,1-2.774-3.156A2.979,2.979,0,0,1,10.3,9.97a2.96,2.96,0,0,1,2.774,3.158A2.976,2.976,0,0,1,10.3,16.284m10.252,0a3,3,0,0,1-2.774-3.156A2.979,2.979,0,0,1,20.555,9.97a2.96,2.96,0,0,1,2.774,3.158,2.977,2.977,0,0,1-2.774,3.156" transform="translate(0 0)" fill="#fff"></path></g></svg> 