<?xml version="1.0" encoding="UTF-8"?> <svg xmlns="http://www.w3.org/2000/svg" xmlns:xlink="http://www.w3.org/1999/xlink" id="Group_77" data-name="Group 77" width="23.889" height="23.889" viewBox="0 0 23.889 23.889"><defs><clipPath id="clip-path"><rect id="Rectangle_95" data-name="Rectangle 95" width="23.889" height="23.889" fill="#1d1d1f"></rect></clipPath></defs><g id="Group_76" data-name="Group 76" clip-path="url(#clip-path)"><path id="Path_857" data-name="Path 857" d="M11.943,2.152c3.189,0,3.567.012,4.826.07a6.608,6.608,0,0,1,2.218.411,3.7,3.7,0,0,1,1.373.894A3.7,3.7,0,0,1,21.255,4.9a6.609,6.609,0,0,1,.411,2.218c.057,1.259.07,1.637.07,4.827s-.012,3.567-.07,4.827a6.609,6.609,0,0,1-.411,2.218,3.956,3.956,0,0,1-2.267,2.267,6.608,6.608,0,0,1-2.218.411c-1.259.057-1.637.07-4.826.07s-3.567-.012-4.827-.07A6.609,6.609,0,0,1,4.9,21.256a3.7,3.7,0,0,1-1.373-.893,3.7,3.7,0,0,1-.893-1.373,6.61,6.61,0,0,1-.411-2.218c-.057-1.259-.07-1.637-.07-4.827s.012-3.567.07-4.827A6.61,6.61,0,0,1,2.632,4.9a3.7,3.7,0,0,1,.893-1.373A3.7,3.7,0,0,1,4.9,2.633a6.609,6.609,0,0,1,2.218-.411c1.26-.057,1.637-.07,4.827-.07m0-2.152C8.7,0,8.293.014,7.019.072a8.768,8.768,0,0,0-2.9.555A5.855,5.855,0,0,0,2,2,5.855,5.855,0,0,0,.626,4.12a8.767,8.767,0,0,0-.555,2.9C.013,8.294,0,8.7,0,11.944s.014,3.651.072,4.925a8.767,8.767,0,0,0,.555,2.9A5.855,5.855,0,0,0,2,21.884a5.855,5.855,0,0,0,2.116,1.378,8.768,8.768,0,0,0,2.9.555c1.274.058,1.681.072,4.925.072s3.651-.014,4.925-.072a8.768,8.768,0,0,0,2.9-.555,6.108,6.108,0,0,0,3.493-3.493,8.767,8.767,0,0,0,.555-2.9c.058-1.274.072-1.681.072-4.925s-.014-3.651-.072-4.925a8.767,8.767,0,0,0-.555-2.9A5.856,5.856,0,0,0,21.883,2,5.856,5.856,0,0,0,19.767.627a8.768,8.768,0,0,0-2.9-.555C15.594.014,15.187,0,11.943,0" transform="translate(0.001 0)" fill="#1d1d1f"></path><path id="Path_858" data-name="Path 858" d="M128.689,122.556a6.134,6.134,0,1,0,6.134,6.134,6.134,6.134,0,0,0-6.134-6.134m0,10.115a3.981,3.981,0,1,1,3.981-3.981,3.981,3.981,0,0,1-3.981,3.981" transform="translate(-116.744 -116.745)" fill="#1d1d1f"></path><path id="Path_859" data-name="Path 859" d="M359.033,88.648a1.433,1.433,0,1,1-1.433-1.433,1.433,1.433,0,0,1,1.433,1.433" transform="translate(-339.279 -83.08)" fill="#1d1d1f"></path></g></svg> 