<?xml version="1.0" encoding="UTF-8"?> <svg xmlns="http://www.w3.org/2000/svg" xmlns:xlink="http://www.w3.org/1999/xlink" width="94.388" height="94.386" viewBox="0 0 94.388 94.386"><defs><clipPath id="clip-path"><rect id="Rectangle_1819" data-name="Rectangle 1819" width="94.388" height="94.386" transform="translate(0 0)" fill="#fff"></rect></clipPath></defs><g id="Group_1330" data-name="Group 1330" transform="translate(0 0)"><g id="Group_1328" data-name="Group 1328" clip-path="url(#clip-path)"><path id="Path_4236" data-name="Path 4236" d="M87.4,0H6.966A6.89,6.89,0,0,0,0,6.8V87.576a6.9,6.9,0,0,0,6.967,6.81H87.4a6.907,6.907,0,0,0,6.986-6.81V6.8A6.9,6.9,0,0,0,87.4,0M27.994,80.429h-14V35.385h14Zm-7-51.2a8.117,8.117,0,1,1,8.113-8.119A8.119,8.119,0,0,1,21,29.228m59.432,51.2H66.439V58.524c0-5.224-.1-11.943-7.274-11.943-7.285,0-8.4,5.69-8.4,11.565V80.429H36.775V35.385H50.2V41.54h.188c1.869-3.542,6.435-7.275,13.246-7.275,14.177,0,16.793,9.33,16.793,21.457Z" fill="#fff"></path></g></g></svg> 