<?xml version="1.0" encoding="UTF-8"?> <svg xmlns="http://www.w3.org/2000/svg" width="23.467" height="23.467" viewBox="0 0 23.467 23.467"><path id="Path_848" data-name="Path 848" d="M0-.724V22.743H23.467V-.724ZM19.556,5.137,18.3,6.344a.368.368,0,0,0-.14.353v8.866a.368.368,0,0,0,.14.353l1.229,1.207v.265H13.344v-.265l1.273-1.236c.125-.125.125-.162.125-.353V8.367L11.2,17.358h-.478L6.6,8.367v6.026a.832.832,0,0,0,.228.692l1.656,2.009v.265h-4.7v-.265l1.656-2.009a.8.8,0,0,0,.213-.692V7.425a.611.611,0,0,0-.2-.515L3.99,5.137V4.872H8.56l3.533,7.748L15.2,4.872h4.357Z" transform="translate(0 0.724)" fill="#1d1d1f"></path></svg> 