<?xml version="1.0" encoding="UTF-8"?> <svg xmlns="http://www.w3.org/2000/svg" width="34.869" height="24.566" viewBox="0 0 34.869 24.566"><path id="Path_847" data-name="Path 847" d="M123.14-28.164a4.381,4.381,0,0,0-3.083-3.1C117.338-32,106.434-32,106.434-32s-10.9,0-13.623.733a4.381,4.381,0,0,0-3.083,3.1A45.956,45.956,0,0,0,89-19.717a45.956,45.956,0,0,0,.729,8.447,4.381,4.381,0,0,0,3.083,3.1c2.719.733,13.623.733,13.623.733s10.9,0,13.623-.733a4.381,4.381,0,0,0,3.083-3.1,45.956,45.956,0,0,0,.729-8.447A45.956,45.956,0,0,0,123.14-28.164ZM102.868-14.532V-24.9l9.113,5.185Z" transform="translate(-89 32)" fill="#fff"></path></svg> 