<?xml version="1.0" encoding="UTF-8"?> <svg xmlns="http://www.w3.org/2000/svg" width="27.527" height="22.372" viewBox="0 0 27.527 22.372"><path id="Path_846" data-name="Path 846" d="M1037.657,374.283c10.388,0,16.069-8.606,16.069-16.069q0-.367-.016-.73a11.492,11.492,0,0,0,2.817-2.924,11.273,11.273,0,0,1-3.243.889,5.667,5.667,0,0,0,2.483-3.124,11.314,11.314,0,0,1-3.586,1.371,5.653,5.653,0,0,0-9.624,5.151,16.034,16.034,0,0,1-11.641-5.9,5.652,5.652,0,0,0,1.748,7.54,5.6,5.6,0,0,1-2.558-.707c0,.024,0,.047,0,.072a5.65,5.65,0,0,0,4.531,5.537,5.637,5.637,0,0,1-2.55.1,5.654,5.654,0,0,0,5.276,3.923,11.333,11.333,0,0,1-7.014,2.418,11.485,11.485,0,0,1-1.347-.078,15.99,15.99,0,0,0,8.657,2.537" transform="translate(-1029 -351.911)" fill="#fff"></path></svg> 