<?xml version="1.0" encoding="UTF-8"?> <svg xmlns="http://www.w3.org/2000/svg" id="Layer_1" viewBox="0 0 80 80"><path d="M72.06,40.71c.24,1.7,1.69,3.01,3.46,3.01,1.94,0,3.51-1.57,3.51-3.51,0-1.94-1.57-3.51-3.51-3.51-1.77,0-3.21,1.31-3.46,3.01h-9.71v-3.51h7.16l4.46-5.58c.47,.23,.99,.37,1.55,.37,1.94,0,3.51-1.57,3.51-3.51,0-1.94-1.57-3.51-3.51-3.51-1.94,0-3.51,1.57-3.51,3.51,0,1.02,.44,1.93,1.13,2.57l-4.11,5.14h-6.68V10.69H27.31l-.15,.15-9.14,9.09v15.27h-5.49l-4.11-5.14c.69-.64,1.13-1.55,1.13-2.57,0-1.94-1.57-3.51-3.51-3.51-1.94,0-3.51,1.57-3.51,3.51,0,1.94,1.57,3.51,3.51,3.51,.56,0,1.08-.14,1.55-.37l4.46,5.58h5.97v3.51H9.5c-.24-1.7-1.69-3.01-3.46-3.01-1.94,0-3.51,1.57-3.51,3.51,0,1.94,1.57,3.51,3.51,3.51,1.77,0,3.21-1.31,3.46-3.01h8.52v3.51h-5.97l-4.46,5.58c-.47-.23-.99-.37-1.55-.37-1.94,0-3.51,1.57-3.51,3.51,0,1.94,1.57,3.51,3.51,3.51,1.94,0,3.51-1.57,3.51-3.51,0-1.02-.44-1.93-1.13-2.57l4.11-5.14h5.49v24.51H62.35v-24.51h6.68l4.11,5.14c-.69,.64-1.13,1.55-1.13,2.57,0,1.94,1.57,3.51,3.51,3.51,1.94,0,3.51-1.57,3.51-3.51,0-1.94-1.57-3.51-3.51-3.51-.56,0-1.08,.14-1.55,.37l-4.46-5.58h-7.16v-3.51h9.71Zm3.46-3.01c1.38,0,2.5,1.12,2.51,2.51,0,1.38-1.12,2.5-2.51,2.51-1.38,0-2.5-1.12-2.51-2.51,0-1.38,1.12-2.5,2.51-2.51Zm-2.51-10.21c0-1.38,1.12-2.5,2.51-2.51,1.38,0,2.5,1.12,2.51,2.51,0,1.38-1.12,2.5-2.51,2.51-1.38,0-2.5-1.12-2.51-2.51ZM3.54,27.49c0-1.38,1.12-2.5,2.51-2.51,1.38,0,2.5,1.12,2.51,2.51,0,1.38-1.12,2.5-2.51,2.51-1.38,0-2.5-1.12-2.51-2.51Zm2.51,15.22c-1.38,0-2.5-1.12-2.51-2.51,0-1.38,1.12-2.5,2.51-2.51,1.38,0,2.5,1.12,2.51,2.51,0,1.38-1.12,2.5-2.51,2.51Zm2.51,10.21c0,1.38-1.12,2.5-2.51,2.51-1.38,0-2.5-1.12-2.51-2.51,0-1.38,1.12-2.5,2.51-2.51,1.38,0,2.5,1.12,2.51,2.51Zm69.47,0c0,1.38-1.12,2.5-2.51,2.51-1.38,0-2.5-1.12-2.51-2.51,0-1.38,1.12-2.5,2.51-2.51,1.38,0,2.5,1.12,2.51,2.51ZM27.01,12.39v7.24h-7.28l7.28-7.24Zm34.33,56.34H19.02V20.63h8.99V11.69H61.35v57.04Z"></path><polygon points="2.01 2.68 8.52 9.18 9.23 8.48 2.66 1.91 8.88 1.91 8.88 .91 1.01 .91 1.01 8.67 2.01 8.67 2.01 2.68"></polygon><polygon points="8.52 70.57 2.01 77.08 2.01 71.09 1.01 71.09 1.01 78.84 8.88 78.84 8.88 77.84 2.66 77.84 9.23 71.28 8.52 70.57"></polygon><polygon points="77.99 77.08 71.48 70.57 70.77 71.28 77.34 77.84 71.12 77.84 71.12 78.84 78.99 78.84 78.99 71.09 77.99 71.09 77.99 77.08"></polygon><polygon points="71.48 9.18 77.99 2.68 77.99 8.67 78.99 8.67 78.99 .91 71.12 .91 71.12 1.91 77.34 1.91 70.77 8.48 71.48 9.18"></polygon><path d="M29.73,47.31c0,1.02,.48,1.86,1.01,2.59,.53,.73,1.13,1.39,1.48,2.01,.37,.64,.66,1.49,1.03,2.32,.37,.82,.85,1.64,1.71,2.14,.32,.18,.65,.29,.99,.36v6.68l4.02-3.05,4.46,2.98v-6.61c.34-.07,.67-.17,.99-.36,.86-.5,1.33-1.32,1.71-2.14,.37-.82,.66-1.68,1.03-2.32,.35-.62,.95-1.28,1.48-2.01,.53-.73,1.01-1.57,1.01-2.59,0-1.02-.48-1.86-1.01-2.59-.53-.73-1.13-1.39-1.48-2.01-.37-.64-.66-1.49-1.03-2.32-.37-.82-.85-1.64-1.71-2.14-.59-.34-1.24-.44-1.88-.44-1.16,0-2.34,.31-3.35,.3-1.01,0-2.19-.3-3.35-.3-.64,0-1.29,.1-1.88,.44-.86,.5-1.33,1.32-1.71,2.14-.37,.82-.66,1.68-1.03,2.32-.35,.62-.95,1.28-1.48,2.01-.53,.73-1.01,1.57-1.01,2.59Zm10.21,11.82l-2.99,2.27v-4.6c1.12-.02,2.26-.3,3.24-.29,.98,0,2.12,.27,3.24,.29v4.67l-3.49-2.34Zm-6.85-15.92c.44-.77,.73-1.65,1.08-2.41,.34-.76,.74-1.37,1.3-1.69,.38-.22,.84-.31,1.38-.31,.98,0,2.17,.3,3.35,.3,1.18,0,2.37-.31,3.35-.3,.54,0,1,.08,1.38,.31,.56,.32,.95,.93,1.3,1.69,.35,.76,.63,1.63,1.08,2.41,.44,.75,1.05,1.42,1.54,2.09,.49,.67,.82,1.32,.82,2,0,.68-.33,1.33-.82,2-.48,.67-1.1,1.34-1.54,2.09-.44,.77-.73,1.65-1.08,2.41-.34,.76-.74,1.37-1.3,1.69-.38,.22-.84,.31-1.38,.31-.98,0-2.17-.3-3.35-.3-1.18,0-2.37,.31-3.35,.3-.54,0-1-.08-1.38-.31-.56-.32-.95-.93-1.3-1.69-.35-.76-.63-1.63-1.08-2.41-.44-.75-1.05-1.42-1.54-2.09-.49-.67-.82-1.32-.82-2,0-.68,.33-1.33,.82-2,.48-.67,1.1-1.34,1.54-2.09Z"></path><path d="M40.19,53.79c3.58,0,6.48-2.9,6.48-6.48,0-3.58-2.9-6.48-6.48-6.48-3.58,0-6.48,2.9-6.48,6.48,0,3.58,2.9,6.48,6.48,6.48Zm-3.87-10.35c.99-.99,2.36-1.6,3.87-1.6,1.51,0,2.88,.61,3.87,1.6,.99,.99,1.6,2.36,1.6,3.87,0,1.51-.61,2.88-1.6,3.87-.99,.99-2.36,1.6-3.87,1.6-1.51,0-2.88-.61-3.87-1.6-.99-.99-1.6-2.36-1.6-3.87,0-1.51,.61-2.88,1.6-3.87Z"></path><path d="M25.81,24.77c-.2,0-.39,.08-.53,.22s-.22,.33-.22,.53,.08,.39,.22,.53,.33,.22,.53,.22,.39-.08,.53-.22,.22-.33,.22-.53-.08-.39-.22-.53-.33-.22-.53-.22Z"></path><circle cx="35.4" cy="25.52" r=".75"></circle><circle cx="40.19" cy="25.52" r=".75"></circle><circle cx="44.98" cy="25.52" r=".75"></circle><circle cx="49.77" cy="25.52" r=".75"></circle><circle cx="30.6" cy="25.52" r=".75"></circle><path d="M54.56,26.27c.2,0,.39-.08,.53-.22s.22-.33,.22-.53-.08-.39-.22-.53-.33-.22-.53-.22-.39,.08-.53,.22-.22,.33-.22,.53,.08,.39,.22,.53,.33,.22,.53,.22Z"></path><path d="M25.81,29.85c-.2,0-.39,.08-.53,.22s-.22,.33-.22,.53,.08,.39,.22,.53,.33,.22,.53,.22,.39-.08,.53-.22,.22-.33,.22-.53-.08-.39-.22-.53-.33-.22-.53-.22Z"></path><circle cx="35.4" cy="30.6" r=".75"></circle><circle cx="30.6" cy="30.6" r=".75"></circle><circle cx="49.77" cy="30.6" r=".75"></circle><circle cx="44.98" cy="30.6" r=".75"></circle><circle cx="40.19" cy="30.6" r=".75"></circle><path d="M54.56,31.35c.2,0,.39-.08,.53-.22s.22-.33,.22-.53-.08-.39-.22-.53-.33-.22-.53-.22-.39,.08-.53,.22-.22,.33-.22,.53,.08,.39,.22,.53,.33,.22,.53,.22Z"></path></svg> 