<?xml version="1.0" encoding="UTF-8"?> <svg xmlns="http://www.w3.org/2000/svg" id="Layer_1" viewBox="0 0 80 80"><path d="M26.53,27.34l5.38,5.38,.73-.73-5.38-5.38c2.48-2.66,4.01-6.22,4.01-10.14,0-8.22-6.66-14.88-14.88-14.88-8.22,0-14.88,6.66-14.88,14.88,0,8.22,6.66,14.88,14.88,14.88,3.92,0,7.48-1.53,10.14-4.01ZM16.39,2.61c3.83,0,7.29,1.55,9.79,4.06,2.51,2.51,4.06,5.97,4.06,9.79,0,3.83-1.55,7.29-4.06,9.79-2.51,2.51-5.97,4.06-9.79,4.06-3.83,0-7.29-1.55-9.79-4.06-2.51-2.51-4.06-5.97-4.06-9.79,0-3.83,1.55-7.29,4.06-9.79,2.51-2.51,5.97-4.06,9.79-4.06Z"></path><path d="M20.08,20.88c.17,0,.34-.07,.46-.19,.12-.12,.19-.29,.19-.46s-.07-.34-.19-.46c-.12-.12-.29-.19-.46-.19s-.34,.07-.46,.19c-.12,.12-.19,.29-.19,.46s.07,.34,.19,.46c.12,.12,.29,.19,.46,.19Z"></path><circle cx="16.2" cy="20.23" r=".65"></circle><circle cx="12.32" cy="20.23" r=".65"></circle><path d="M8.44,20.88c.17,0,.34-.07,.46-.19,.12-.12,.19-.29,.19-.46s-.07-.34-.19-.46c-.12-.12-.29-.19-.46-.19s-.34,.07-.46,.19c-.12,.12-.19,.29-.19,.46s.07,.34,.19,.46c.12,.12,.29,.19,.46,.19Z"></path><circle cx="8.44" cy="16.35" r=".65"></circle><circle cx="8.44" cy="12.47" r=".65"></circle><path d="M8.44,9.24c.17,0,.34-.07,.46-.19,.12-.12,.19-.29,.19-.46s-.07-.34-.19-.46c-.12-.12-.29-.19-.46-.19s-.34,.07-.46,.19-.19,.29-.19,.46,.07,.34,.19,.46c.12,.12,.29,.19,.46,.19Z"></path><circle cx="16.2" cy="8.59" r=".65"></circle><circle cx="12.32" cy="8.59" r=".65"></circle><path d="M20.08,9.24c.17,0,.34-.07,.46-.19,.12-.12,.19-.29,.19-.46s-.07-.34-.19-.46c-.12-.12-.29-.19-.46-.19s-.34,.07-.46,.19-.19,.29-.19,.46,.07,.34,.19,.46c.12,.12,.29,.19,.46,.19Z"></path><circle cx="20.08" cy="16.35" r=".65"></circle><circle cx="20.08" cy="12.47" r=".65"></circle><path d="M35.07,19.35h9.87V9.48h-9.87v9.87Zm.86-9.01h8.15v8.15h-8.15V10.34Z"></path><path d="M60.8,9.48v9.87h9.87V9.48h-9.87Zm.86,.86h8.15v8.15h-8.15V10.34Z"></path><path d="M9.33,70.82h9.87v-9.87H9.33v9.87Zm.86-9.01h8.15v8.15H10.19v-8.15Z"></path><path d="M60.8,70.82h9.87v-9.87h-9.87v9.87Zm.86-9.01h8.15v8.15h-8.15v-8.15Z"></path><path d="M35.07,70.82h9.87v-9.87h-9.87v9.87Zm.86-9.01h8.15v8.15h-8.15v-8.15Z"></path><path d="M9.33,45.08h9.87v-9.87H9.33v9.87Zm.86-9.01h8.15v8.15H10.19v-8.15Z"></path><path d="M60.8,45.08h9.87v-9.87h-9.87v9.87Zm.86-9.01h8.15v8.15h-8.15v-8.15Z"></path><path d="M35.07,45.08h9.87v-9.87h-9.87v9.87Zm.86-9.01h8.15v8.15h-8.15v-8.15Z"></path><path d="M21.98,39.5c-.17,0-.34,.07-.46,.19s-.19,.29-.19,.46,.07,.34,.19,.46c.12,.12,.29,.19,.46,.19s.34-.07,.46-.19c.12-.12,.19-.29,.19-.46s-.07-.34-.19-.46c-.12-.12-.29-.19-.46-.19Z"></path><circle cx="27.13" cy="40.15" r=".65"></circle><path d="M32.28,39.5c-.17,0-.34,.07-.46,.19s-.19,.29-.19,.46,.07,.34,.19,.46c.12,.12,.29,.19,.46,.19s.34-.07,.46-.19c.12-.12,.19-.29,.19-.46s-.07-.34-.19-.46c-.12-.12-.29-.19-.46-.19Z"></path><path d="M21.98,65.24c-.17,0-.34,.07-.46,.19s-.19,.29-.19,.46,.07,.34,.19,.46c.12,.12,.29,.19,.46,.19s.34-.07,.46-.19c.12-.12,.19-.29,.19-.46s-.07-.34-.19-.46-.29-.19-.46-.19Z"></path><circle cx="27.13" cy="65.89" r=".65"></circle><path d="M32.28,65.24c-.17,0-.34,.07-.46,.19s-.19,.29-.19,.46,.07,.34,.19,.46c.12,.12,.29,.19,.46,.19s.34-.07,.46-.19c.12-.12,.19-.29,.19-.46s-.07-.34-.19-.46-.29-.19-.46-.19Z"></path><path d="M47.72,13.76c-.17,0-.34,.07-.46,.19-.12,.12-.19,.29-.19,.46s.07,.34,.19,.46c.12,.12,.29,.19,.46,.19s.34-.07,.46-.19c.12-.12,.19-.29,.19-.46s-.07-.34-.19-.46c-.12-.12-.29-.19-.46-.19Z"></path><circle cx="52.87" cy="14.41" r=".65"></circle><path d="M58.02,13.76c-.17,0-.34,.07-.46,.19-.12,.12-.19,.29-.19,.46s.07,.34,.19,.46c.12,.12,.29,.19,.46,.19s.34-.07,.46-.19c.12-.12,.19-.29,.19-.46s-.07-.34-.19-.46c-.12-.12-.29-.19-.46-.19Z"></path><path d="M47.72,39.5c-.17,0-.34,.07-.46,.19s-.19,.29-.19,.46,.07,.34,.19,.46c.12,.12,.29,.19,.46,.19s.34-.07,.46-.19c.12-.12,.19-.29,.19-.46s-.07-.34-.19-.46c-.12-.12-.29-.19-.46-.19Z"></path><circle cx="52.87" cy="40.15" r=".65"></circle><path d="M58.02,39.5c-.17,0-.34,.07-.46,.19s-.19,.29-.19,.46,.07,.34,.19,.46c.12,.12,.29,.19,.46,.19s.34-.07,.46-.19c.12-.12,.19-.29,.19-.46s-.07-.34-.19-.46c-.12-.12-.29-.19-.46-.19Z"></path><path d="M47.72,65.24c-.17,0-.34,.07-.46,.19s-.19,.29-.19,.46,.07,.34,.19,.46c.12,.12,.29,.19,.46,.19s.34-.07,.46-.19c.12-.12,.19-.29,.19-.46s-.07-.34-.19-.46-.29-.19-.46-.19Z"></path><circle cx="52.87" cy="65.89" r=".65"></circle><path d="M58.02,65.24c-.17,0-.34,.07-.46,.19s-.19,.29-.19,.46,.07,.34,.19,.46c.12,.12,.29,.19,.46,.19s.34-.07,.46-.19c.12-.12,.19-.29,.19-.46s-.07-.34-.19-.46-.29-.19-.46-.19Z"></path><path d="M65.74,22.78c.17,0,.34-.07,.46-.19s.19-.29,.19-.46-.07-.34-.19-.46-.29-.19-.46-.19-.34,.07-.46,.19-.19,.29-.19,.46,.07,.34,.19,.46,.29,.19,.46,.19Z"></path><circle cx="65.74" cy="27.28" r=".65"></circle><path d="M65.28,32.88c.12,.12,.29,.19,.46,.19s.34-.07,.46-.19,.19-.29,.19-.46-.07-.34-.19-.46-.29-.19-.46-.19-.34,.07-.46,.19-.19,.29-.19,.46,.07,.34,.19,.46Z"></path><path d="M40,22.78c.17,0,.34-.07,.46-.19s.19-.29,.19-.46-.07-.34-.19-.46-.29-.19-.46-.19-.34,.07-.46,.19-.19,.29-.19,.46,.07,.34,.19,.46,.29,.19,.46,.19Z"></path><circle cx="40" cy="27.28" r=".65"></circle><path d="M39.54,32.88c.12,.12,.29,.19,.46,.19s.34-.07,.46-.19,.19-.29,.19-.46-.07-.34-.19-.46-.29-.19-.46-.19-.34,.07-.46,.19-.19,.29-.19,.46,.07,.34,.19,.46Z"></path><path d="M65.74,48.52c.17,0,.34-.07,.46-.19s.19-.29,.19-.46-.07-.34-.19-.46-.29-.19-.46-.19-.34,.07-.46,.19-.19,.29-.19,.46,.07,.34,.19,.46,.29,.19,.46,.19Z"></path><circle cx="65.74" cy="53.02" r=".65"></circle><path d="M65.28,58.62c.12,.12,.29,.19,.46,.19s.34-.07,.46-.19,.19-.29,.19-.46-.07-.34-.19-.46-.29-.19-.46-.19-.34,.07-.46,.19-.19,.29-.19,.46,.07,.34,.19,.46Z"></path><path d="M40,48.52c.17,0,.34-.07,.46-.19s.19-.29,.19-.46-.07-.34-.19-.46-.29-.19-.46-.19-.34,.07-.46,.19-.19,.29-.19,.46,.07,.34,.19,.46,.29,.19,.46,.19Z"></path><circle cx="40" cy="53.02" r=".65"></circle><path d="M39.54,58.62c.12,.12,.29,.19,.46,.19s.34-.07,.46-.19,.19-.29,.19-.46-.07-.34-.19-.46-.29-.19-.46-.19-.34,.07-.46,.19-.19,.29-.19,.46,.07,.34,.19,.46Z"></path><path d="M14.26,48.52c.17,0,.34-.07,.46-.19s.19-.29,.19-.46-.07-.34-.19-.46-.29-.19-.46-.19-.34,.07-.46,.19-.19,.29-.19,.46,.07,.34,.19,.46,.29,.19,.46,.19Z"></path><circle cx="14.26" cy="53.02" r=".65"></circle><path d="M13.81,58.62c.12,.12,.29,.19,.46,.19s.34-.07,.46-.19,.19-.29,.19-.46-.07-.34-.19-.46-.29-.19-.46-.19-.34,.07-.46,.19-.19,.29-.19,.46,.07,.34,.19,.46Z"></path><circle cx="24.3" cy="14.41" r=".65"></circle><circle cx="28.61" cy="14.41" r=".65"></circle><circle cx="14.26" cy="24.52" r=".65"></circle><circle cx="14.26" cy="28.83" r=".65"></circle></svg> 