<?xml version="1.0" encoding="UTF-8"?> <svg xmlns="http://www.w3.org/2000/svg" width="76" height="76.001" viewBox="0 0 76 76.001"><path id="Subtraction_7" data-name="Subtraction 7" d="M76,421H0V345H76v76Zm-37.012-9.515h.43l.417,0-.064-1.225-.062-1.2-.063-1.2c-.021-.394-.043-.8-.062-1.2l-.014-.253c-.017-.309-.035-.628-.045-.949l.388-.039h.006l.219-.022-.319-6.114-2.086.11.32,6.126.617-.032h0l.314,6Zm3.574-6.456h0l1.223,5.306.006.026.258,1.12.85-.046q-.62-2.692-1.236-5.373l-.281-1.222.615-.181-.392-1.705q-.491-2.133-.979-4.253l-.919.212-.036.008-1.113.257.794,3.446,0,.02q.286,1.244.574,2.492l.12-.021h0l.506-.089Zm-7.683-5.918-.089.725-.013.11c-.214,1.749-.427,3.489-.64,5.238l.313.054.014,0,.3.053c-.16,1.311-.319,2.611-.478,3.915l-.246,2.01.4.044.028,0,.4.043c.12-.941.236-1.893.348-2.814.124-1.016.251-2.066.384-3.1l.026,0,.612.037.165-1.354,0-.027c.192-1.571.382-3.13.573-4.686l-.131-.016ZM46.3,403.892h0l.027.061c.025.056.046.1.067.154q.843,2,1.688,3.989l.844,1.994c.1.235.2.47.292.705q.1.243.2.486l.916-.048-.017-.028a.448.448,0,0,1-.027-.048q-1.574-3.717-3.146-7.434c-.015-.035-.027-.071-.041-.11l-.02-.058.2-.1.37-.183c-.751-1.776-1.531-3.618-2.384-5.632l-.1.044c-.626.268-1.228.525-1.851.789q.918,2.167,1.838,4.34l.547,1.292.6-.218ZM49.8,402.11h0l4.112,6.35,1.51,2.332.3-.04.622-.081-1.392-2.151-.038-.058-4.41-6.811.517-.382L50,399.694l-.009-.014L47.7,396.141l-.253.165-1.527,1,.83,1.282.192.3,2.3,3.555.18-.106.372-.219ZM32.15,398.342c-.145.326-1.761,5.693-1.765,5.86l.569.2c-.608,2-1.21,3.967-1.817,5.963l.371.082.452.1c.277-.9.554-1.811.821-2.691l0-.005c.319-1.05.649-2.137.98-3.2l.453.119.164.043q.9-2.944,1.785-5.855l-.907-.278Zm20.767,1.409h0l.049.05c.047.048.088.09.128.133l7.612,8.186.309.332q.456.49.911.982a.222.222,0,0,0,.161.093H62.1a.216.216,0,0,0,.055-.011c.17-.053.341-.1.523-.157l.263-.078-3.88-4.174-5.518-5.934.1-.108.341-.355c-1.261-1.358-2.531-2.723-3.758-4.042l-.01-.011-.391-.421-.966.9-.02.018-.567.53,1.814,1.951,2.349,2.526.228-.2.252-.218Zm-23.351-2.658-1.417,2.79-.076.151L26.8,402.549l.1.057c.153.086.3.169.455.259l-1.933,3.808,0,.008-1.183,2.33.47.151.342.11,1.312-2.582,1.749-3.441.214.1.368.169c.932-1.834,1.852-3.645,2.771-5.455l-.567-.29Zm-2.312-1.671-1.5,2-.079.1-.035.046-2.057,2.738.408.337.087.071-2.751,3.662-.01.014L19.279,407.1l.434.189.36.157c.533-.707,1.049-1.394,1.565-2.081l.5-.665q.532-.71,1.065-1.417l.512-.682c.34-.453.688-.918,1.038-1.373L25,401.4l.28.194,3.4-4.531.268-.357-.839-.636-.008-.006-.847-.642h0Zm28.34,1.458h0L68.19,406.4l.283-.33.267-.31-3.6-2.724-.392-.3-8.64-6.53.187-.278.172-.256-2.6-1.967-2.268-1.714-.341.454-.938,1.246.139.105.021.016,4.715,3.564.231-.283.175-.214Zm-30.331-3.5h0l-1.385,1.294-.015.014c-1,.937-2.041,1.906-3.063,2.866l.052.062.363.427-.829.775-6.1,5.7.418.245.015.009.324.191,3.239-3.029.079-.074,3.424-3.2c.127.122.243.235.357.346l.094.092c.33-.252,4.366-4.046,4.451-4.186l-.5-.535-.93-1Zm-1.607-2.362c-1.7,1.108-3.4,2.216-5.117,3.333l.162.28.16.275-9.03,5.882-.365.238.227.193.443.377,7.466-4.862,1.719-1.119.136.19.237.332,1.793-1.168,3.326-2.165-.621-.958,0,0Zm34.067,2.6h.029c.008,0,.012,0,.015,0l7.795,3.979,3.842,1.961c.026.013.052.025.078.037a.066.066,0,0,0,.022.006h.007a.037.037,0,0,0,.014,0s.006,0,.012-.008l.021-.018c-.022-.077-.044-.154-.066-.232-.054-.188-.11-.382-.159-.577a.471.471,0,0,0-.275-.332c-3.074-1.567-6.191-3.159-9.2-4.7l-1.5-.765-.062-.033-.176-.093.263-.582-2.952-1.509-.051-.026-2.432-1.243c-.324.634-.641,1.256-.967,1.9q2.594,1.323,5.2,2.657l.238.121.141-.248.166-.291Zm-35.24-5.2h0l-1.884.8L16.866,390.8l.041.112c.06.166.117.324.179.492l-6.431,2.738-5.149,2.193.2.315.255.41,6.809-2.9.507-.216,4.143-1.763c.052.1.1.2.147.3l.136.278c1.909-.811,3.821-1.626,5.616-2.39-.279-.655-.548-1.291-.831-1.958Zm36.787,1.572h0l5.241,1.606.051.016,1.968.6-.025-.065c-.017-.045-.03-.078-.045-.109-.032-.067-.065-.135-.1-.2-.072-.146-.147-.3-.21-.451a.435.435,0,0,0-.309-.27c-1.807-.549-3.643-1.113-5.419-1.658l-.028-.009-.648-.2-.1-.033-.127-.04c.053-.216.1-.41.152-.622l-4.756-1.458-.035-.011-1.041-.319c-.139.452-.273.893-.408,1.334l-.214.7,5.836,1.789.216-.6Zm-37.489-4.342-.51.118-.016,0-.965.223-1.488.346-.562.13-.036.008-.018,0-.872.2c-.149.035-.3.068-.449.1-.337.075-.686.152-1.025.251l.018.1c.031.179.06.342.09.51l-.079.022c-.039.011-.072.02-.106.028l-3.805.883-3.347.774-.692.16-1.542.357-2.241.52c-.218.05-.219.054-.289.253l.033.66.063-.011c.051-.009.1-.017.151-.028l4.061-.938,2.01-.466.009,0,2.019-.468,3.741-.868a1.031,1.031,0,0,1,.138-.019l.073-.007.079.287.086.311,1.927-.443.069-.016.8-.186.012,0,1.187-.276.6-.138c.445-.1.9-.206,1.347-.318l-.207-.9Zm32.467-1.706c-.046.374-.091.741-.136,1.108-.041.337-.082.669-.123,1l2.266.279.033,0,3.757.462.012-.072c.034-.2.065-.372.1-.56l1.835.224,2.065.252-.167-.46-.005-.014-.148-.409c-.55-.074-1.106-.141-1.644-.206h-.008c-.6-.073-1.216-.148-1.825-.231.006-.106.012-.206.018-.3V385c.006-.1.012-.208.019-.318Zm-38.731.654h0c.014.118.028.228.041.332v.01c.012.1.024.19.035.282l.081,0c.278,0,1.112-.035,2.288-.1,1.692-.088,3.636-.208,3.718-.239l-.107-2.068c-.011,0-.033,0-.072,0-.75,0-5.868.285-6.017.335l0,.207c0,.127-.005.259-.008.4l-.283.015-8.834.464-.053,0c-.031,0-.063.006-.094.006H6.164a.217.217,0,0,0-.194.124c-.068.112-.138.223-.208.334-.054.087-.109.173-.162.26a.572.572,0,0,0-.045.1l-.023.057,2.509-.131,2.487-.131,2.385-.125.124-.007,2.479-.13Zm44.727-3.821-6.085.32.11,2.093c.014,0,.041,0,.077,0,.263,0,1.125-.037,2.308-.1,1.717-.09,3.614-.207,3.7-.238l0-.293c0-.105,0-.212,0-.325L62.8,382.1c-.035-.284-.066-.546-.1-.831l-2.382.122c-.024-.221-.047-.42-.07-.624ZM9.758,379.1l-.469.681-.069.1,3.063.378,3.3.408,0,.059c-.014.2-.026.385-.041.583l6.055.745c.086-.712.17-1.4.256-2.113l-.91-.111-1.1-.136-.938-.116q-.549-.069-1.1-.136c-.221-.026-.445-.055-.662-.083-.442-.057-.9-.115-1.347-.153l-.021.125v.009c-.029.168-.055.323-.083.488l-2.875-.354L9.758,379.1Zm49.773-2.177h0c-.128.015-1.52.323-3.039.671-.667.153-2.848.657-2.9.709l.206.894c.088.381.176.763.265,1.151l3.9-.9.018,0L60,378.978l-.072-.456-.028-.178,1.337-.312,1.549-.361c.019-.182.036-.353.054-.526.012-.12.024-.236.036-.358l-1.332.308-.051.012-1.785.413-.081-.276ZM12.54,374.775l-.239.392-.213.35,4.234,1.3-.06.245v.005c-.03.125-.06.246-.092.373l1.374.421L22,379.23c.148-.482.291-.955.437-1.433l.184-.605-1.809-.553L16.786,375.4l-.113.319-.1.286Zm45.6-1.544-4.655,1.982-.96.409.084.2c.25.592.494,1.169.74,1.745.345-.1,5.484-2.306,5.61-2.41l-.011-.029c-.062-.171-.126-.344-.194-.53l.069-.034c.046-.023.09-.045.134-.063l.967-.412.032-.013c1-.427,2.036-.869,3.06-1.292.262-.109.42-.238.4-.546a2.144,2.144,0,0,1,.024-.373c.008-.062.015-.127.021-.194-.836.351-1.671.707-2.478,1.052-.839.358-1.707.729-2.564,1.088l-.212-.434-.069-.141Zm-43.26-2.479h0c-.093.163-.182.321-.272.48l0,.007-.14.247,3.254,1.665c-.052.12-.1.232-.152.345l-.107.242,5.434,2.777.476-.933.491-.964-1.26-.643-.061-.031-4.117-2.1-.146.255-.173.3-.9-.457-.011-.006-2.317-1.182Zm41.257-.892h0l-1.317.859-.031.02q-1.894,1.235-3.764,2.453c.394.608.774,1.192,1.16,1.785l2.719-1.771.073-.047,2.324-1.514-.167-.289-.006-.01-.147-.254c.094-.064.162-.109.226-.15q1.984-1.295,3.971-2.587l1.666-1.085.208-.135c.136-.088.277-.178.413-.273.043-.03.1-.1.1-.148-.011-.194-.031-.39-.052-.6-.009-.089-.018-.177-.027-.27l-2.1,1.368-4.859,3.164-.155-.21-.008-.011-.221-.3ZM17.1,366.731l-.213.387-.011.019-.187.34,1.153.872,1.9,1.436-.184.276-.173.258,2.369,1.79.1.073L24.25,374l.8-1.062,0,0,.476-.633-2.209-1.67-.166-.125-2.5-1.889c-.127.153-.257.311-.409.495l-2.084-1.573Zm36.5.152h0l-2.523,2.359-.024.022-1.918,1.794,1.01,1.083.024.026.417.447,2.642-2.471.007-.007.167-.157,1.645-1.539-.171-.2-.244-.289,7.418-6.937,0-.005,0-.007c-.141-.243-.277-.476-.429-.734-2.645,2.471-5.305,4.96-7.559,7.068l-.27-.268-.186-.185Zm-34.085-4.306-.1.16c-.125.2-.241.387-.362.58l1.2,1.29,2.058,2.215-.154.156-.3.3,2.089,2.248,2.073,2.23.326-.305c.408-.382.812-.76,1.226-1.149l-.153-.165-4.008-4.31c-.173.148-.321.275-.487.418l-1.588-1.707ZM50.565,364.4h0L48.6,367.015l-.02.026-1.688,2.246.4.3,1.294.977,1.235-1.644.1-.131,2.339-3.113-.175-.144-.32-.263,3.81-5.072,2.544-3.387-.47-.283-.256-.154-.175.233-.221.294-5.905,7.859c-.164-.115-.319-.222-.484-.336l-.005,0-.039-.027ZM22.61,358.58h0l-.125.132-.47.5q1.315,2.034,2.623,4.053l.017.026.684,1.056-.258.189-.26.19.907,1.4.052.08,2.365,3.65.881-.575.009-.006.89-.581L27.594,365.1l-.009-.014-.987-1.524-.431.254-.121.071-1.847-2.85-.028-.043L22.61,358.58Zm24.543,3.9L46.125,364.5l-1.742,3.429,1.109.568.783.4,2.769-5.451-.554-.321L49,362.111l.359-.708.433-.85.01-.019.421-.826.436-.859.018-.035.418-.824.269-.527q.3-.584.594-1.168c.1-.2.2-.392.3-.589.188-.367.383-.747.566-1.136l-.183-.045L52,354.364l-2.078,4.089-.034.066-.027.054-2.12,4.17-.236-.107-.348-.158h0Zm-20.348-6.82-.047.023-.707.352.055.13.013.03c.886,2.095,1.76,4.162,2.642,6.241l-.3.147-.253.122c.072.287,2.286,5.5,2.393,5.63.669-.283,1.321-.561,1.925-.819-.769-1.814-1.532-3.616-2.3-5.424l-.088-.208-.2.074-.4.147q-.724-1.712-1.445-3.413l-.02-.046Zm16.655,5.524h0l-1.029,3.374-.014.047-.741,2.43.645.2.022.007,1.363.418q.647-2.126,1.295-4.247l.488-1.6-.363-.137-.236-.089c.378-1.248.764-2.51,1.136-3.731.422-1.382.857-2.808,1.284-4.219l-.532-.043-.324-.026c-.794,2.6-1.58,5.18-2.372,7.776l-.359-.09-.264-.066Zm-11.744-7-.451.086-.374.071.831,3.615.736,3.2-.11.032-.506.146c.444,1.933.884,3.842,1.372,5.959.767-.176,1.476-.339,2.068-.476l-.757-3.283-.617-2.677-.337.059-.294.052-.7-3.019-.868-3.764Zm7.884,6.375h0l-.008.067c-.243,1.969-.494,4.006-.733,6l.784.1.059.007,1.26.154q.269-2.188.537-4.38l.207-1.689-.213-.039-.029-.005-.386-.07c.139-1.175.286-2.368.428-3.522.152-1.235.309-2.509.458-3.771l-.849.044q-.385,3.15-.774,6.315l-.1.833-.414-.029-.224-.015Zm-2.819-6.966h0l-.044,0-.07.014a1.575,1.575,0,0,1-.159.028c-.129.015-.256.026-.391.038l-.163.014.358,6.853-.289.03-.3.031-.005.01-.009.016a.1.1,0,0,0-.014.033.389.389,0,0,0,0,.086q.154,2.943.309,5.885a.225.225,0,0,0,.012.05l0,.013a.036.036,0,0,0,.009.013l0,0,.009.007,2.064-.11-.319-6.114h-.2l-.414,0-.015-.3-.108-2.069,0-.061q-.11-2.1-.22-4.193a1.823,1.823,0,0,0-.027-.2c0-.027-.009-.053-.013-.078Z" transform="translate(0 -345)" fill="#242425"></path></svg> 