<?xml version="1.0" encoding="UTF-8"?> <svg xmlns="http://www.w3.org/2000/svg" xmlns:xlink="http://www.w3.org/1999/xlink" id="Group_73" data-name="Group 73" width="23.887" height="23.887" viewBox="0 0 23.887 23.887"><defs><clipPath id="clip-path"><rect id="Rectangle_93" data-name="Rectangle 93" width="23.887" height="23.887" fill="#1d1d1f"></rect></clipPath></defs><g id="Group_72" data-name="Group 72" transform="translate(0 0)" clip-path="url(#clip-path)"><path id="Path_852" data-name="Path 852" d="M11.943,0A11.943,11.943,0,1,0,23.887,11.943,11.943,11.943,0,0,0,11.943,0M17.48,8.122c-.18,1.888-.958,6.471-1.353,8.587-.167.9-.5,1.195-.816,1.224-.693.064-1.22-.459-1.892-.9-1.052-.689-1.645-1.118-2.666-1.79-1.179-.778-.415-1.2.257-1.9.176-.183,3.231-2.962,3.291-3.215a.244.244,0,0,0-.056-.211A.278.278,0,0,0,14,9.893q-.158.035-5.038,3.33a2.264,2.264,0,0,1-1.3.478,8.493,8.493,0,0,1-1.856-.439c-.748-.243-1.343-.371-1.291-.784q.04-.323.889-.66,5.222-2.276,6.965-3c3.316-1.38,4.006-1.62,4.455-1.627a.785.785,0,0,1,.463.139.5.5,0,0,1,.17.323,2.088,2.088,0,0,1,.02.47" transform="translate(0 0)" fill="#1d1d1f" fill-rule="evenodd"></path></g></svg> 