<?xml version="1.0" encoding="UTF-8"?> <svg xmlns="http://www.w3.org/2000/svg" width="233.224" height="57.998" viewBox="0 0 233.224 57.998"><path id="Subtraction_34" data-name="Subtraction 34" d="M10029,22535H9795.775v-58H10029v58h0Zm-89.9-36.5h0v31.5h5.35v-11.746a8.451,8.451,0,0,0,6.934,3.285,9.652,9.652,0,0,0,4.021-.842,9.063,9.063,0,0,0,3.143-2.387,12.977,12.977,0,0,0,2.778-8.562,12.8,12.8,0,0,0-2.863-8.645,9.135,9.135,0,0,0-3.191-2.332,10,10,0,0,0-4.023-.809,8.421,8.421,0,0,0-3.854.881,7.776,7.776,0,0,0-2.944,2.67v-3.014Zm71.231,14.76-4.994.588a7.707,7.707,0,0,0,.9,3.479,6.97,6.97,0,0,0,2.192,2.393,12.173,12.173,0,0,0,6.9,1.82c3.613,0,9.676-.922,9.676-7.107a5.615,5.615,0,0,0-2.815-5.166,19.843,19.843,0,0,0-5.931-1.971l-.3-.064a16.618,16.618,0,0,1-3.554-1.043,2.055,2.055,0,0,1-1.395-1.885,2.146,2.146,0,0,1,1.169-1.916,5.43,5.43,0,0,1,2.654-.6c2.932,0,4.551,1.432,4.683,4.141l4.9-.809c-.3-3.264-2.212-7.154-9.586-7.154a11.311,11.311,0,0,0-6.119,1.568,6.008,6.008,0,0,0-1.991,2.094,6.239,6.239,0,0,0-.752,3.084,5.4,5.4,0,0,0,2.412,4.74,17.15,17.15,0,0,0,5.415,2.1c.44.111.857.211,1.317.322,2.708.646,4.847,1.156,4.847,2.867,0,1.918-1.631,2.975-4.592,2.975-3.112,0-5-1.666-5.039-4.457Zm-34.918-15.3a10.712,10.712,0,0,0-8.1,3.148,12.234,12.234,0,0,0-3.02,8.592c0,3.748,1.016,6.686,3.02,8.732a10.913,10.913,0,0,0,8.145,3.1,11.833,11.833,0,0,0,7.03-1.928,9.434,9.434,0,0,0,3.591-5.809l-5.175-.406a4.768,4.768,0,0,1-1.7,3.1,6.054,6.054,0,0,1-3.792,1.041,5.43,5.43,0,0,1-4.227-1.582,7.1,7.1,0,0,1-1.49-4.717h16.74c.138-3.912-.772-7.3-2.562-9.541A10.478,10.478,0,0,0,9975.412,22497.963Zm-51.884,0a11.288,11.288,0,0,0-8.444,3.328,10.716,10.716,0,0,0-2.282,3.73,13.741,13.741,0,0,0-.793,4.727,12.07,12.07,0,0,0,3.059,8.646,11.466,11.466,0,0,0,8.461,3.145,11.213,11.213,0,0,0,8.313-3.246,12,12,0,0,0,3.117-8.545,13.669,13.669,0,0,0-.793-4.707,10.8,10.8,0,0,0-2.273-3.734A11.144,11.144,0,0,0,9923.528,22497.963Zm-36.184,0a10.712,10.712,0,0,0-8.1,3.148,12.258,12.258,0,0,0-3.015,8.592c0,3.75,1.015,6.689,3.015,8.732a10.908,10.908,0,0,0,8.144,3.1,11.834,11.834,0,0,0,7.032-1.928,9.436,9.436,0,0,0,3.589-5.809l-5.175-.406a4.753,4.753,0,0,1-1.7,3.1,6.06,6.06,0,0,1-3.794,1.041,5.423,5.423,0,0,1-4.222-1.582,7.1,7.1,0,0,1-1.49-4.717h16.74c.137-3.91-.774-7.3-2.567-9.541A10.465,10.465,0,0,0,9887.345,22497.963Zm-46.573,0a10.709,10.709,0,0,0-8.1,3.148,12.258,12.258,0,0,0-3.015,8.592c0,3.75,1.015,6.689,3.015,8.732a10.908,10.908,0,0,0,8.144,3.1,11.833,11.833,0,0,0,7.03-1.928,9.434,9.434,0,0,0,3.591-5.809l-5.175-.406a4.768,4.768,0,0,1-1.7,3.1,6.051,6.051,0,0,1-3.791,1.041,5.431,5.431,0,0,1-4.225-1.582,7.088,7.088,0,0,1-1.488-4.717h16.735c.138-3.912-.772-7.3-2.562-9.541A10.46,10.46,0,0,0,9840.771,22497.963Zm149.8.537h0v22.5h5.355v-10.309c0-2.971.606-5.027,1.854-6.287,1.1-1.111,2.7-1.631,5.028-1.631a8.72,8.72,0,0,1,1.126.045l.136-4.857-.166,0c-.392,0-1.094,0-1.406.043a8.353,8.353,0,0,0-4.407,1.494,5.93,5.93,0,0,0-2.21,3.047v-4.049Zm-88.062-9h0v31.5h5.355v-31.5Zm-49.5,9h0l8.014,22.5h5.983l8.009-22.5h-5.622l-3.376,10.666c-.126.434-.258.887-.395,1.354-.468,1.6-1.051,3.6-1.585,5.529-1.084-3.721-1.707-5.844-2.024-6.883l-3.286-10.666Zm-53.235-9h0v31.5h11.209c4.729,0,8.653-1.445,11.35-4.18s4.13-6.742,4.13-11.57c0-4.729-1.393-8.684-4.028-11.437a13.238,13.238,0,0,0-4.856-3.187,18.4,18.4,0,0,0-6.595-1.125Zm123.754,28.125a5.152,5.152,0,0,1-4.14-1.533c-1.138-1.221-1.668-3.236-1.668-6.346,0-3.061.546-5.137,1.668-6.346a5.222,5.222,0,0,1,4.14-1.527,5.039,5.039,0,0,1,4.141,1.617c1.058,1.281,1.572,3.328,1.572,6.256,0,3-.485,4.988-1.527,6.256A5.178,5.178,0,0,1,9923.528,22517.627Zm26.276-.045a4.629,4.629,0,0,1-4.378-2.258,11.352,11.352,0,0,1-1.108-5.666c0-2.729.5-4.742,1.481-5.984a4.985,4.985,0,0,1,4.095-1.8c2.089,0,3.533.646,4.417,1.975.826,1.238,1.211,3.1,1.211,5.854,0,3.264-.586,5.352-1.844,6.572A5.3,5.3,0,0,1,9949.8,22517.582Zm-139.273-1.127h-5.13v-22.412h5.13c3.863,0,6.542,1.061,7.963,3.15,1.447,2.125,1.985,4.309,1.985,8.059,0,3.6-.66,6.17-2.076,8.1a7.131,7.131,0,0,1-3.124,2.311A12.9,12.9,0,0,1,9810.531,22516.455Zm170.458-9.225H9969.74a6.607,6.607,0,0,1,1.125-3.285,5.287,5.287,0,0,1,4.547-1.979,5.075,5.075,0,0,1,4.321,1.752,6.382,6.382,0,0,1,1.256,3.51Zm-88.062,0h-11.249a6.572,6.572,0,0,1,1.125-3.285,5.282,5.282,0,0,1,4.542-1.979,5.073,5.073,0,0,1,4.32,1.752,6.427,6.427,0,0,1,1.262,3.51Zm-46.573,0H9835.1a6.537,6.537,0,0,1,1.119-3.285,5.289,5.289,0,0,1,4.548-1.979,5.073,5.073,0,0,1,4.32,1.752,6.427,6.427,0,0,1,1.262,3.51Z" transform="translate(-9795.775 -22477.002)" fill="#fff"></path></svg> 