<?xml version="1.0" encoding="UTF-8"?> <svg xmlns="http://www.w3.org/2000/svg" width="315.857" height="62.318" viewBox="0 0 315.857 62.318"><path id="Subtraction_12" data-name="Subtraction 12" d="M10104.686,22348.268H9788.83v-62.318h315.857v62.318Zm-25.646-24.006-4.991.584a7.7,7.7,0,0,0,.9,3.48,6.934,6.934,0,0,0,2.191,2.393,12.152,12.152,0,0,0,6.9,1.822c3.613,0,9.675-.922,9.675-7.107a5.617,5.617,0,0,0-2.82-5.168,19.906,19.906,0,0,0-5.933-1.967l-.294-.066c-2.991-.658-4.952-1.217-4.952-2.928,0-1.857,2.06-2.518,3.824-2.518,2.934,0,4.553,1.432,4.684,4.139l4.9-.807a7.062,7.062,0,0,0-3.138-5.59,11.75,11.75,0,0,0-6.448-1.568,11.309,11.309,0,0,0-6.117,1.568,6.028,6.028,0,0,0-1.992,2.1,6.259,6.259,0,0,0-.752,3.088,5.388,5.388,0,0,0,2.414,4.736,17.247,17.247,0,0,0,5.416,2.1c.368.092.729.178,1.079.262l.229.057c2.714.648,4.855,1.16,4.855,2.877,0,1.912-1.629,2.967-4.588,2.967a5.521,5.521,0,0,1-3.62-1.129,4.277,4.277,0,0,1-1.423-3.324Zm-29.832-15.3a11.286,11.286,0,0,0-8.444,3.33,10.736,10.736,0,0,0-2.282,3.732,13.733,13.733,0,0,0-.794,4.727,12.068,12.068,0,0,0,3.06,8.648,11.471,11.471,0,0,0,8.461,3.143,11.214,11.214,0,0,0,8.313-3.244,11.994,11.994,0,0,0,3.118-8.547,13.685,13.685,0,0,0-.793-4.707,10.818,10.818,0,0,0-2.274-3.734A11.129,11.129,0,0,0,10049.207,22308.961Zm-24.168,0a11.123,11.123,0,0,0-8.393,3.3,12.145,12.145,0,0,0-2.993,8.492c0,3.631,1.035,6.627,2.993,8.664a9.6,9.6,0,0,0,3.575,2.324,13.689,13.689,0,0,0,4.817.8,11.208,11.208,0,0,0,6.93-2.141,8.7,8.7,0,0,0,3.283-5.555l-5.126-.539a5.85,5.85,0,0,1-1.75,3.139,4.963,4.963,0,0,1-3.337,1.045c-2.132,0-3.591-.67-4.461-2.047-.765-1.209-1.12-3.02-1.12-5.693,0-2.861.416-4.764,1.308-5.984a4.984,4.984,0,0,1,4.273-1.754c3.5,0,4.537,2.436,5.087,4.816l4.992-.9a9.838,9.838,0,0,0-3.132-5.7A10.368,10.368,0,0,0,10025.039,22308.961Zm-25.738,0a11.282,11.282,0,0,0-8.443,3.33,10.706,10.706,0,0,0-2.283,3.732,13.733,13.733,0,0,0-.794,4.727,12.069,12.069,0,0,0,3.061,8.648,11.467,11.467,0,0,0,8.46,3.143,11.212,11.212,0,0,0,8.314-3.244,12,12,0,0,0,3.116-8.547,13.692,13.692,0,0,0-.792-4.707,10.8,10.8,0,0,0-2.273-3.734A11.129,11.129,0,0,0,9999.3,22308.961Zm-40.231,0a11.281,11.281,0,0,0-8.443,3.33,10.736,10.736,0,0,0-2.282,3.732,13.733,13.733,0,0,0-.794,4.727,12.068,12.068,0,0,0,3.06,8.648,11.47,11.47,0,0,0,8.46,3.143,11.212,11.212,0,0,0,8.314-3.244,12,12,0,0,0,3.116-8.547,13.692,13.692,0,0,0-.792-4.707,10.8,10.8,0,0,0-2.273-3.734A11.129,11.129,0,0,0,9959.069,22308.961Zm-79.244,0a10.723,10.723,0,0,0-8.1,3.152,10.6,10.6,0,0,0-2.268,3.807,14.573,14.573,0,0,0-.75,4.787c0,3.746,1.016,6.686,3.018,8.732a10.919,10.919,0,0,0,8.145,3.1,11.833,11.833,0,0,0,7.031-1.928,9.438,9.438,0,0,0,3.591-5.812l-5.177-.4a4.747,4.747,0,0,1-1.7,3.1,6.044,6.044,0,0,1-3.793,1.039,5.433,5.433,0,0,1-4.226-1.58,7.112,7.112,0,0,1-1.49-4.719h16.742c.137-3.91-.775-7.3-2.569-9.539A10.45,10.45,0,0,0,9879.825,22308.961Zm-41.309,0a11.281,11.281,0,0,0-8.443,3.33,10.736,10.736,0,0,0-2.282,3.732,13.733,13.733,0,0,0-.794,4.727,12.068,12.068,0,0,0,3.06,8.648,11.47,11.47,0,0,0,8.46,3.143,11.214,11.214,0,0,0,8.313-3.244,11.994,11.994,0,0,0,3.118-8.547,13.685,13.685,0,0,0-.793-4.707,10.818,10.818,0,0,0-2.274-3.734A11.129,11.129,0,0,0,9838.517,22308.961Zm-28.082-9c-4.774,0-8.732,1.578-11.446,4.566-2.609,2.871-3.989,6.924-3.989,11.721a21.754,21.754,0,0,0,1.039,6.969,13.65,13.65,0,0,0,3.018,5.107,12.783,12.783,0,0,0,4.848,3.143,18.743,18.743,0,0,0,6.531,1.07,15.759,15.759,0,0,0,8.786-2.395,14.518,14.518,0,0,0,5.482-6.922l-5.945-1.57a9.124,9.124,0,0,1-2.826,4.521,8.342,8.342,0,0,1-5.5,1.822,11.3,11.3,0,0,1-4.5-.812,7.076,7.076,0,0,1-3.016-2.43c-1.356-2.02-1.936-4.562-1.936-8.5,0-3.822.741-6.775,2.2-8.777a6.576,6.576,0,0,1,3.023-2.275,11.872,11.872,0,0,1,4.269-.691,7.905,7.905,0,0,1,5.491,1.951,9.1,9.1,0,0,1,2.652,4.887l5.85-1.123a14.293,14.293,0,0,0-1.984-4.508,12.332,12.332,0,0,0-3.161-3.205A15.445,15.445,0,0,0,9810.435,22299.965Zm162,9.535h0v4.279h3.241v12.553c0,3.967,2.222,5.895,6.792,5.895a15.474,15.474,0,0,0,2.973-.27l-.09-4.633a12.883,12.883,0,0,1-2.069.225c-1.555,0-2.344-.258-2.344-1.666v-12.1h4.593v-4.279h-4.593v-6.254h-5.262v6.254Zm92.341-9h0v31.5h5.351v-31.5Zm-131.81,9h0v22.5h5.356v-10.3c0-2.973.607-5.029,1.857-6.289,1.1-1.111,2.7-1.631,5.03-1.631a8.68,8.68,0,0,1,1.121.045l.135-4.863-.166,0c-.477,0-1.106.006-1.4.043-3.341.246-5.814,1.947-6.618,4.549v-4.055Zm-27.808-9h0v31.5h5.626v-12.059h5.535c2.667,0,6.063-.178,8.669-1.564a7.5,7.5,0,0,0,3.059-2.916,10.414,10.414,0,0,0,1.189-5.2,10.561,10.561,0,0,0-1.2-5.248,7.537,7.537,0,0,0-3.063-2.943c-2.6-1.395-5.969-1.572-8.613-1.572Zm-51.072,9h0v22.5h5.355v-10.3c0-2.973.606-5.029,1.854-6.289,1.1-1.111,2.7-1.631,5.027-1.631a8.836,8.836,0,0,1,1.128.045l.135-4.863-.167,0c-.479,0-1.112.006-1.409.043a8.373,8.373,0,0,0-4.4,1.5,5.93,5.93,0,0,0-2.209,3.053v-4.055Zm195.12,19.125a5.159,5.159,0,0,1-4.14-1.525c-1.137-1.225-1.666-3.242-1.666-6.35,0-3.066.545-5.141,1.666-6.342a5.206,5.206,0,0,1,4.14-1.531,5.036,5.036,0,0,1,4.139,1.621c1.061,1.287,1.576,3.332,1.576,6.252,0,3-.486,4.992-1.531,6.26A5.171,5.171,0,0,1,10049.207,22328.625Zm-49.906,0a5.159,5.159,0,0,1-4.14-1.525c-1.136-1.223-1.665-3.24-1.665-6.35s.529-5.123,1.665-6.342a5.206,5.206,0,0,1,4.14-1.531,5.025,5.025,0,0,1,4.14,1.621c1.06,1.281,1.575,3.326,1.575,6.252,0,3.01-.486,5-1.53,6.26A5.158,5.158,0,0,1,9999.3,22328.625Zm-40.231,0a5.157,5.157,0,0,1-4.139-1.525c-1.137-1.225-1.666-3.242-1.666-6.35,0-3.066.545-5.141,1.666-6.342a5.2,5.2,0,0,1,4.139-1.531,5.025,5.025,0,0,1,4.14,1.621c1.061,1.281,1.576,3.326,1.576,6.252,0,3.01-.486,5-1.531,6.26A5.158,5.158,0,0,1,9959.069,22328.625Zm-120.553,0a5.157,5.157,0,0,1-4.139-1.525c-1.137-1.223-1.666-3.24-1.666-6.35s.529-5.125,1.666-6.342a5.2,5.2,0,0,1,4.139-1.531,5.041,5.041,0,0,1,4.14,1.621c1.061,1.287,1.576,3.332,1.576,6.252,0,3-.486,4.99-1.531,6.26A5.174,5.174,0,0,1,9838.517,22328.625Zm46.889-10.393h-11.251a6.563,6.563,0,0,1,1.128-3.287,5.288,5.288,0,0,1,4.543-1.979,5.07,5.07,0,0,1,4.318,1.754,6.287,6.287,0,0,1,1.262,3.51Zm30.825-2.793h-5.445v-10.393h5.49a12.122,12.122,0,0,1,5.034.688c1.549.746,2.3,2.229,2.3,4.533,0,2.232-.754,3.684-2.307,4.439A12.105,12.105,0,0,1,9916.23,22315.439Z" transform="translate(-9788.83 -22285.949)" fill="#fff"></path></svg> 