<svg width="48" height="51" viewBox="0 0 48 51" fill="none" xmlns="http://www.w3.org/2000/svg">
<path d="M23.5088 41.6423L26.8089 44.8861L23.5088 48.1299L20.2087 44.8861L23.5088 41.6423ZM47.0088 38.0821L40.0503 44.5549L30.6185 44.5522L25.1514 39.2168L25.1383 29.8735L31.6433 22.9888L46.8735 22.9594L47.0088 38.083V38.0821ZM33.6545 34.2053L42.2873 25.7197L33.6545 25.7363V34.2053ZM35.6694 36.1171H44.1912L44.1166 27.8141L35.6694 36.1171ZM27.94 30.9524L27.9493 38.0692L28.8397 38.938L30.8546 36.9574V27.8673L27.94 30.9524ZM42.0895 38.8692H32.8696L30.8266 40.8773L31.773 41.8001L38.9359 41.8029L42.0895 38.8692ZM14.6249 19.0946L14.3244 11.1172L23.4323 2.12988L32.7296 11.109L32.5047 19.1111L23.5489 27.0499L14.624 19.0946H14.6249ZM24.9516 14.2812L29.1169 11.4787L24.9516 7.45606V14.2812ZM22.1518 7.29277L17.9278 11.4603L22.1518 14.2876V7.29277ZM17.2474 14.3344L17.379 17.8351L22.1518 22.0898V17.6186L17.2474 14.3344ZM29.7394 17.8571L29.8383 14.328L24.9516 17.6158V22.1008L29.7384 17.8571H29.7394ZM21.8653 39.2159L16.3981 44.5513L6.96639 44.554L0.00878906 38.0821L0.144115 22.9585L15.3743 22.9879L21.8793 29.8726L21.8662 39.2159H21.8653ZM19.0766 30.9514L16.162 27.8664V36.9565L18.177 38.937L19.0673 38.0683L19.0766 30.9514ZM2.82636 36.1162H11.3481L2.90102 27.8132L2.82636 36.1162ZM13.3631 34.2044V25.7353L4.73025 25.7188L13.3631 34.2044ZM15.2455 41.7992L16.1919 40.8763L14.1489 38.8682H4.92811L8.08166 41.8019L15.2446 41.7992H15.2455Z" fill="#DCFE54"/>
</svg>
