<svg width="128" height="150" viewBox="0 0 128 150" fill="none" xmlns="http://www.w3.org/2000/svg"><path d="M4.14 107V95.66H6.3V107H4.14zM.378 96.326V94.4h9.666v1.926H.378zm11.657 10.854c-.552 0-1.044-.114-1.476-.342-.42-.24-.75-.564-.99-.972-.24-.408-.36-.888-.36-1.44 0-.576.132-1.068.396-1.476.264-.408.642-.732 1.134-.972.504-.24 1.11-.378 1.818-.414l2.538-.162v-.72c0-.432-.156-.768-.468-1.008-.3-.252-.726-.378-1.278-.378-.504 0-.9.12-1.188.36a1.582 1.582 0 00-.54.9H9.569c.108-.936.504-1.662 1.188-2.178.684-.516 1.548-.774 2.592-.774 1.176 0 2.1.252 2.772.756.684.492 1.026 1.224 1.026 2.196V107h-1.908v-1.71h-.144a3.115 3.115 0 01-.612.99c-.252.288-.582.51-.99.666-.396.156-.882.234-1.458.234zm.756-1.71c.492 0 .906-.096 1.242-.288.348-.192.612-.45.792-.774.18-.336.27-.708.27-1.116v-.486l-2.07.144c-.564.036-.978.162-1.242.378-.252.216-.378.528-.378.936 0 .348.126.636.378.864.264.228.6.342 1.008.342zM24.193 107l-3.546-4.77 3.456-4.446h2.394l-3.51 4.446 3.6 4.77h-2.394zm-3.438-4.32v-.9h.504v.9h-.504zM18.81 107V94.22h2.052V107H18.81zm12.353.18c-.912 0-1.716-.204-2.412-.612a4.53 4.53 0 01-1.62-1.71c-.396-.732-.594-1.554-.594-2.466 0-.924.198-1.746.594-2.466.408-.72.96-1.284 1.656-1.692.708-.42 1.506-.63 2.394-.63.912 0 1.698.186 2.358.558a3.912 3.912 0 011.548 1.512 4 4 0 01.558 2.088c0 .228-.006.414-.018.558-.012.132-.03.282-.054.45h-8.226v-1.422h6.264a2.107 2.107 0 00-.378-1.116 2.2 2.2 0 00-.864-.756c-.36-.18-.756-.27-1.188-.27-.468 0-.9.114-1.296.342a2.572 2.572 0 00-.936.99c-.228.42-.342.93-.342 1.53l-.054.414c0 .624.12 1.158.36 1.602.252.432.576.762.972.99.396.228.828.342 1.296.342.564 0 1.026-.108 1.386-.324.36-.216.636-.51.828-.882h2.034a3.943 3.943 0 01-.882 1.602 4.104 4.104 0 01-1.494 1.026 5.09 5.09 0 01-1.89.342zm9.409 3.204v-12.6h1.908v1.566h.144a3.197 3.197 0 011.17-1.26c.504-.324 1.116-.486 1.836-.486.78 0 1.476.198 2.088.594.612.384 1.092.936 1.44 1.656.348.72.522 1.566.522 2.538 0 .972-.18 1.818-.54 2.538-.348.72-.828 1.278-1.44 1.674a3.814 3.814 0 01-2.07.576c-.72 0-1.338-.15-1.854-.45a2.916 2.916 0 01-1.152-1.26h-.144l.144 1.53v3.384h-2.052zm4.5-5.058c.468 0 .888-.114 1.26-.342.384-.24.69-.576.918-1.008.228-.444.342-.972.342-1.584 0-.624-.114-1.152-.342-1.584a2.447 2.447 0 00-.918-.99 2.274 2.274 0 00-1.26-.36c-.468 0-.894.12-1.278.36a2.491 2.491 0 00-.9.99c-.228.432-.342.96-.342 1.584 0 .612.114 1.14.342 1.584.228.432.528.768.9 1.008.384.228.81.342 1.278.342zm8.534 1.854c-.552 0-1.044-.114-1.476-.342-.42-.24-.75-.564-.99-.972-.24-.408-.36-.888-.36-1.44 0-.576.132-1.068.396-1.476.264-.408.642-.732 1.134-.972.504-.24 1.11-.378 1.818-.414l2.538-.162v-.72c0-.432-.156-.768-.468-1.008-.3-.252-.726-.378-1.278-.378-.504 0-.9.12-1.188.36a1.582 1.582 0 00-.54.9h-2.052c.108-.936.504-1.662 1.188-2.178.684-.516 1.548-.774 2.592-.774 1.176 0 2.1.252 2.772.756.684.492 1.026 1.224 1.026 2.196V107h-1.908v-1.71h-.144a3.115 3.115 0 01-.612.99c-.252.288-.582.51-.99.666-.396.156-.882.234-1.458.234zm.756-1.71c.492 0 .906-.096 1.242-.288.348-.192.612-.45.792-.774.18-.336.27-.708.27-1.116v-.486l-2.07.144c-.564.036-.978.162-1.242.378-.252.216-.378.528-.378.936 0 .348.126.636.378.864.264.228.6.342 1.008.342zm7.13 4.914h-1.656v-1.818h1.548c.408 0 .732-.072.972-.216.24-.144.432-.39.576-.738l.18-.468-3.888-9.36h2.286l1.998 5.202.468 1.512h.144l.45-1.512 1.89-5.202h2.196l-3.906 10.152c-.228.6-.492 1.08-.792 1.44-.3.36-.648.618-1.044.774-.396.156-.87.234-1.422.234zM69.699 107v-9.216h1.909v1.692h.143c.168-.54.474-.984.918-1.332.457-.36 1.014-.54 1.675-.54.696 0 1.248.174 1.656.522.407.336.69.792.846 1.368h.144a2.89 2.89 0 011.008-1.368c.48-.348 1.103-.522 1.871-.522.948 0 1.65.294 2.106.882.469.576.703 1.38.703 2.412V107h-2.052v-5.868c0-.552-.139-.966-.415-1.242-.275-.288-.653-.432-1.133-.432-.553 0-1.002.198-1.35.594-.349.384-.522.924-.522 1.62V107h-2.053v-5.868c0-.552-.138-.966-.413-1.242-.264-.288-.642-.432-1.134-.432-.552 0-1.002.198-1.35.594-.337.384-.505.924-.505 1.62V107H69.7zm18.98.18c-.912 0-1.716-.204-2.412-.612a4.53 4.53 0 01-1.62-1.71c-.396-.732-.594-1.554-.594-2.466 0-.924.198-1.746.594-2.466.408-.72.96-1.284 1.656-1.692.708-.42 1.506-.63 2.394-.63.912 0 1.698.186 2.358.558a3.912 3.912 0 011.548 1.512 4 4 0 01.558 2.088c0 .228-.006.414-.018.558-.012.132-.03.282-.054.45h-8.226v-1.422h6.264a2.107 2.107 0 00-.378-1.116 2.2 2.2 0 00-.864-.756c-.36-.18-.756-.27-1.188-.27-.468 0-.9.114-1.296.342a2.572 2.572 0 00-.936.99c-.228.42-.342.93-.342 1.53l-.054.414c0 .624.12 1.158.36 1.602.252.432.576.762.972.99.396.228.828.342 1.296.342.564 0 1.026-.108 1.386-.324.36-.216.636-.51.828-.882h2.034a3.943 3.943 0 01-.882 1.602 4.104 4.104 0 01-1.494 1.026 5.09 5.09 0 01-1.89.342zm5.858-.18v-9.216h1.908v1.908h.144c.24-.612.612-1.11 1.116-1.494.504-.396 1.134-.594 1.89-.594 1.08 0 1.896.336 2.448 1.008.564.672.846 1.614.846 2.826V107h-2.052v-5.382c0-.732-.168-1.272-.504-1.62-.324-.36-.78-.54-1.368-.54-.468 0-.882.108-1.242.324-.36.216-.642.522-.846.918-.192.384-.288.846-.288 1.386V107h-2.052zm13.359 0c-.888 0-1.554-.27-1.998-.81-.444-.552-.666-1.32-.666-2.304v-8.55h2.034v8.406c0 .456.102.804.306 1.044.204.24.492.36.864.36h1.332V107h-1.872zm-4.392-7.578v-1.638h6.264v1.638h-6.264zm10.874 7.776c-1.092 0-1.98-.252-2.664-.756-.672-.516-1.074-1.266-1.206-2.25h1.944c.072.384.27.702.594.954.324.24.768.36 1.332.36.48 0 .888-.102 1.224-.306.348-.216.522-.522.522-.918 0-.36-.144-.624-.432-.792-.288-.18-.702-.312-1.242-.396l-1.062-.198a5.093 5.093 0 01-1.332-.432 2.676 2.676 0 01-.99-.828c-.252-.348-.378-.786-.378-1.314 0-.54.15-1.014.45-1.422.312-.408.738-.726 1.278-.954a4.766 4.766 0 011.836-.342c.96 0 1.764.234 2.412.702.66.468 1.05 1.152 1.17 2.052h-1.872c-.096-.36-.3-.636-.612-.828-.312-.204-.69-.306-1.134-.306-.48 0-.882.096-1.206.288-.312.192-.468.456-.468.792 0 .324.174.582.522.774.348.18.816.306 1.404.378l1.044.18c.48.072.912.204 1.296.396.384.192.69.468.918.828.228.348.342.798.342 1.35 0 .588-.162 1.11-.486 1.566-.312.444-.744.792-1.296 1.044-.54.252-1.176.378-1.908.378zM2.034 127v-9.576c0-1.08.282-1.884.846-2.412.576-.528 1.302-.792 2.178-.792h1.944v1.746h-1.71c-.396 0-.702.108-.918.324-.204.204-.306.558-.306 1.062V127H2.034zm-1.728-7.578v-1.638H6.57v1.638H.306zm9.795 7.758c-.552 0-1.044-.114-1.476-.342-.42-.24-.75-.564-.99-.972-.24-.408-.36-.888-.36-1.44 0-.576.132-1.068.396-1.476.264-.408.642-.732 1.134-.972.504-.24 1.11-.378 1.818-.414l2.538-.162v-.72c0-.432-.156-.768-.468-1.008-.3-.252-.726-.378-1.278-.378-.504 0-.9.12-1.188.36a1.582 1.582 0 00-.54.9H7.635c.108-.936.504-1.662 1.188-2.178.684-.516 1.548-.774 2.592-.774 1.176 0 2.1.252 2.772.756.684.492 1.026 1.224 1.026 2.196V127h-1.908v-1.71h-.144a3.115 3.115 0 01-.612.99c-.252.288-.582.51-.99.666-.396.156-.882.234-1.458.234zm.756-1.71c.492 0 .906-.096 1.242-.288.348-.192.612-.45.792-.774.18-.336.27-.708.27-1.116v-.486l-2.07.144c-.564.036-.978.162-1.242.378-.252.216-.378.528-.378.936 0 .348.126.636.378.864.264.228.6.342 1.008.342zm9.514 1.728c-1.092 0-1.98-.252-2.665-.756-.671-.516-1.073-1.266-1.206-2.25h1.945c.072.384.27.702.593.954.325.24.768.36 1.332.36.48 0 .889-.102 1.224-.306.348-.216.522-.522.522-.918 0-.36-.143-.624-.431-.792-.288-.18-.702-.312-1.242-.396l-1.063-.198a5.093 5.093 0 01-1.331-.432 2.676 2.676 0 01-.99-.828c-.253-.348-.379-.786-.379-1.314 0-.54.15-1.014.45-1.422.313-.408.739-.726 1.279-.954a4.766 4.766 0 011.835-.342c.96 0 1.765.234 2.413.702.66.468 1.05 1.152 1.17 2.052h-1.873c-.096-.36-.3-.636-.611-.828-.313-.204-.69-.306-1.134-.306-.48 0-.883.096-1.206.288-.313.192-.468.456-.468.792 0 .324.174.582.521.774.348.18.816.306 1.404.378l1.044.18c.48.072.912.204 1.296.396.384.192.69.468.918.828.229.348.343.798.343 1.35 0 .588-.163 1.11-.486 1.566-.313.444-.744.792-1.296 1.044-.54.252-1.177.378-1.909.378zM28.9 127c-.889 0-1.555-.27-1.999-.81-.444-.552-.666-1.32-.666-2.304v-8.55h2.034v8.406c0 .456.102.804.306 1.044.204.24.492.36.864.36h1.332V127H28.9zm-4.393-7.578v-1.638h6.264v1.638h-6.264zm8.55 7.704a1.28 1.28 0 01-.936-.396 1.3 1.3 0 01-.396-.954c0-.36.132-.672.396-.936a1.28 1.28 0 01.936-.396c.36 0 .666.132.918.396.264.264.396.576.396.936a1.3 1.3 0 01-.396.954 1.222 1.222 0 01-.918.396zm6.426-.126v-12.6h2.394l5.868 8.982h.144l-.144-2.124V114.4h2.16V127h-2.16l-6.12-9.396h-.144l.144 2.142V127h-2.142zm16.465.18c-.936 0-1.752-.204-2.448-.612a4.267 4.267 0 01-1.602-1.692c-.384-.72-.576-1.548-.576-2.484 0-.936.192-1.758.576-2.466a4.267 4.267 0 011.602-1.692c.696-.42 1.512-.63 2.448-.63.924 0 1.728.204 2.412.612a4.229 4.229 0 011.62 1.692c.384.72.576 1.548.576 2.484 0 .936-.192 1.764-.576 2.484a4.229 4.229 0 01-1.62 1.692c-.684.408-1.488.612-2.412.612zm0-1.854c.456 0 .876-.108 1.26-.324.384-.228.69-.564.918-1.008.228-.444.342-.978.342-1.602 0-.636-.114-1.17-.342-1.602-.228-.444-.534-.774-.918-.99a2.423 2.423 0 00-1.26-.342c-.468 0-.894.114-1.278.342-.384.216-.69.546-.918.99-.228.432-.342.966-.342 1.602 0 .624.114 1.158.342 1.602.228.444.534.78.918 1.008.384.216.81.324 1.278.324zM65.48 127v-12.78h2.052v3.564l-.144 1.908h.144c.228-.66.618-1.17 1.17-1.53.564-.372 1.23-.558 1.998-.558 1.068 0 1.884.336 2.448 1.008.564.66.846 1.62.846 2.88V127H71.96v-5.346c0-.756-.174-1.308-.522-1.656-.348-.36-.834-.54-1.458-.54-.492 0-.924.114-1.296.342-.36.228-.642.546-.846.954-.204.396-.306.864-.306 1.404V127H65.48zm10.213 0v-9.216h2.052V127h-2.052zm1.026-10.512c-.348 0-.648-.126-.9-.378a1.229 1.229 0 01-.378-.9c0-.348.126-.642.378-.882.252-.252.552-.378.9-.378s.642.126.882.378c.252.24.378.534.378.882s-.126.648-.378.9a1.17 1.17 0 01-.882.378zm6.462 10.692a3.905 3.905 0 01-2.088-.576c-.612-.396-1.098-.954-1.458-1.674-.36-.72-.54-1.566-.54-2.538 0-.972.174-1.818.522-2.538.36-.72.846-1.272 1.458-1.656a3.728 3.728 0 012.07-.594c.708 0 1.314.144 1.818.432.504.288.9.696 1.188 1.224h.144l-.144-1.386v-3.654h2.052V127h-1.908v-1.566h-.144c-.3.516-.69.936-1.17 1.26-.48.324-1.08.486-1.8.486zm.522-1.854c.468 0 .888-.114 1.26-.342.384-.24.69-.576.918-1.008.228-.444.342-.972.342-1.584 0-.624-.114-1.152-.342-1.584a2.447 2.447 0 00-.918-.99 2.274 2.274 0 00-1.26-.36c-.468 0-.894.12-1.278.36a2.491 2.491 0 00-.9.99c-.228.432-.342.96-.342 1.584 0 .612.114 1.14.342 1.584.228.432.528.768.9 1.008.384.228.81.342 1.278.342zm9.955 1.854a3.905 3.905 0 01-2.088-.576c-.612-.396-1.098-.954-1.458-1.674-.36-.72-.54-1.566-.54-2.538 0-.972.174-1.818.522-2.538.36-.72.846-1.272 1.458-1.656a3.728 3.728 0 012.07-.594c.708 0 1.314.144 1.818.432.504.288.9.696 1.188 1.224h.144l-.144-1.386v-3.654h2.052V127h-1.908v-1.566h-.144c-.3.516-.69.936-1.17 1.26-.48.324-1.08.486-1.8.486zm.522-1.854c.468 0 .888-.114 1.26-.342.384-.24.69-.576.918-1.008.228-.444.342-.972.342-1.584 0-.624-.114-1.152-.342-1.584a2.447 2.447 0 00-.918-.99 2.274 2.274 0 00-1.26-.36c-.468 0-.894.12-1.278.36a2.491 2.491 0 00-.9.99c-.228.432-.342.96-.342 1.584 0 .612.114 1.14.342 1.584.228.432.528.768.9 1.008.384.228.81.342 1.278.342zm10.494 1.854c-.912 0-1.716-.204-2.412-.612a4.53 4.53 0 01-1.62-1.71c-.396-.732-.594-1.554-.594-2.466 0-.924.198-1.746.594-2.466.408-.72.96-1.284 1.656-1.692.708-.42 1.506-.63 2.394-.63.912 0 1.698.186 2.358.558a3.912 3.912 0 011.548 1.512 4 4 0 01.558 2.088c0 .228-.006.414-.018.558-.012.132-.03.282-.054.45h-8.226v-1.422h6.264a2.107 2.107 0 00-.378-1.116 2.2 2.2 0 00-.864-.756c-.36-.18-.756-.27-1.188-.27-.468 0-.9.114-1.296.342a2.572 2.572 0 00-.936.99c-.228.42-.342.93-.342 1.53l-.054.414c0 .624.12 1.158.36 1.602.252.432.576.762.972.99.396.228.828.342 1.296.342.564 0 1.026-.108 1.386-.324.36-.216.636-.51.828-.882h2.034a3.943 3.943 0 01-.882 1.602 4.104 4.104 0 01-1.494 1.026 5.09 5.09 0 01-1.89.342zm5.859-.18v-9.216h1.908v1.908h.144c.24-.612.612-1.11 1.116-1.494.504-.396 1.134-.594 1.89-.594 1.08 0 1.896.336 2.448 1.008.564.672.846 1.614.846 2.826V127h-2.052v-5.382c0-.732-.168-1.272-.504-1.62-.324-.36-.78-.54-1.368-.54-.468 0-.882.108-1.242.324-.36.216-.642.522-.846.918-.192.384-.288.846-.288 1.386V127h-2.052zm-108.5 20v-9.576c0-1.08.282-1.884.846-2.412.576-.528 1.302-.792 2.178-.792h1.944v1.746h-1.71c-.396 0-.702.108-.918.324-.204.204-.306.558-.306 1.062V147H2.034zm-1.728-7.578v-1.638H6.57v1.638H.306zm11.486 7.758c-.912 0-1.716-.204-2.411-.612a4.53 4.53 0 01-1.62-1.71c-.396-.732-.594-1.554-.594-2.466 0-.924.198-1.746.594-2.466.408-.72.96-1.284 1.656-1.692.707-.42 1.505-.63 2.393-.63.912 0 1.698.186 2.358.558a3.912 3.912 0 011.549 1.512 4 4 0 01.557 2.088c0 .228-.006.414-.018.558-.012.132-.03.282-.053.45H7.976v-1.422h6.264a2.107 2.107 0 00-.378-1.116 2.2 2.2 0 00-.864-.756c-.36-.18-.757-.27-1.189-.27-.468 0-.9.114-1.296.342a2.572 2.572 0 00-.935.99c-.228.42-.342.93-.342 1.53l-.054.414c0 .624.12 1.158.36 1.602.252.432.575.762.972.99.396.228.827.342 1.295.342.564 0 1.026-.108 1.386-.324.36-.216.636-.51.829-.882h2.033a3.943 3.943 0 01-.881 1.602 4.104 4.104 0 01-1.495 1.026 5.09 5.09 0 01-1.89.342zm10.249 0c-.912 0-1.716-.204-2.412-.612a4.53 4.53 0 01-1.62-1.71c-.396-.732-.594-1.554-.594-2.466 0-.924.198-1.746.594-2.466.408-.72.96-1.284 1.656-1.692.708-.42 1.506-.63 2.394-.63.912 0 1.698.186 2.358.558a3.912 3.912 0 011.548 1.512 4 4 0 01.558 2.088c0 .228-.006.414-.018.558-.012.132-.03.282-.054.45h-8.226v-1.422h6.264a2.107 2.107 0 00-.378-1.116 2.2 2.2 0 00-.864-.756c-.36-.18-.756-.27-1.188-.27-.468 0-.9.114-1.296.342a2.572 2.572 0 00-.936.99c-.228.42-.342.93-.342 1.53l-.054.414c0 .624.12 1.158.36 1.602.252.432.576.762.972.99.396.228.828.342 1.296.342.564 0 1.026-.108 1.386-.324.36-.216.636-.51.828-.882h2.034a3.943 3.943 0 01-.882 1.602 4.104 4.104 0 01-1.494 1.026 5.09 5.09 0 01-1.89.342zm9.404.018c-1.092 0-1.98-.252-2.664-.756-.672-.516-1.074-1.266-1.206-2.25h1.944c.072.384.27.702.594.954.324.24.768.36 1.332.36.48 0 .888-.102 1.224-.306.348-.216.522-.522.522-.918 0-.36-.144-.624-.432-.792-.288-.18-.702-.312-1.242-.396l-1.062-.198a5.093 5.093 0 01-1.332-.432 2.676 2.676 0 01-.99-.828c-.252-.348-.378-.786-.378-1.314 0-.54.15-1.014.45-1.422.312-.408.738-.726 1.278-.954a4.766 4.766 0 011.836-.342c.96 0 1.764.234 2.412.702.66.468 1.05 1.152 1.17 2.052h-1.872c-.096-.36-.3-.636-.612-.828-.312-.204-.69-.306-1.134-.306-.48 0-.882.096-1.206.288-.312.192-.468.456-.468.792 0 .324.174.582.522.774.348.18.816.306 1.404.378l1.044.18c.48.072.912.204 1.296.396.384.192.69.468.918.828.228.348.342.798.342 1.35 0 .588-.162 1.11-.486 1.566-.312.444-.744.792-1.296 1.044-.54.252-1.176.378-1.908.378zm5.586-.072a1.28 1.28 0 01-.936-.396 1.3 1.3 0 01-.396-.954c0-.36.132-.672.396-.936a1.28 1.28 0 01.936-.396c.36 0 .666.132.918.396.264.264.396.576.396.936a1.3 1.3 0 01-.396.954 1.222 1.222 0 01-.918.396z" fill="#fff"/></svg>