<svg width="269" height="154" viewBox="0 0 269 154" fill="none" xmlns="http://www.w3.org/2000/svg"><path d="M13.14 27L4.71 16.5 13.08 6h4.23L8.79 16.5 17.31 27h-4.17zM1.53 27V6H5.1v21H1.53zm3.06-9.75v-1.5h.84v1.5h-.84zM24.371 27.3c-1.52 0-2.86-.34-4.02-1.02a7.55 7.55 0 01-2.7-2.85c-.66-1.22-.99-2.59-.99-4.11 0-1.54.33-2.91.99-4.11.68-1.2 1.6-2.14 2.76-2.82 1.18-.7 2.51-1.05 3.99-1.05 1.52 0 2.83.31 3.93.93 1.12.62 1.98 1.46 2.58 2.52.62 1.04.93 2.2.93 3.48 0 .38-.01.69-.03.93-.02.22-.05.47-.09.75h-13.71v-2.37h10.44c-.04-.7-.25-1.32-.63-1.86-.36-.54-.84-.96-1.44-1.26-.6-.3-1.26-.45-1.98-.45-.78 0-1.5.19-2.16.57-.64.38-1.16.93-1.56 1.65-.38.7-.57 1.55-.57 2.55l-.09.69c0 1.04.2 1.93.6 2.67.42.72.96 1.27 1.62 1.65.66.38 1.38.57 2.16.57.94 0 1.71-.18 2.31-.54.6-.36 1.06-.85 1.38-1.47h3.39c-.3 1.04-.79 1.93-1.47 2.67a6.84 6.84 0 01-2.49 1.71c-.96.38-2.01.57-3.15.57zm17.08 0c-1.52 0-2.86-.34-4.02-1.02a7.55 7.55 0 01-2.7-2.85c-.66-1.22-.99-2.59-.99-4.11 0-1.54.33-2.91.99-4.11.68-1.2 1.6-2.14 2.76-2.82 1.18-.7 2.51-1.05 3.99-1.05 1.52 0 2.83.31 3.93.93 1.12.62 1.98 1.46 2.58 2.52.62 1.04.93 2.2.93 3.48 0 .38-.01.69-.03.93-.02.22-.05.47-.09.75h-13.71v-2.37h10.44c-.04-.7-.25-1.32-.63-1.86-.36-.54-.84-.96-1.44-1.26-.6-.3-1.26-.45-1.98-.45-.78 0-1.5.19-2.16.57-.64.38-1.16.93-1.56 1.65-.38.7-.57 1.55-.57 2.55l-.09.69c0 1.04.2 1.93.6 2.67.42.72.96 1.27 1.62 1.65.66.38 1.38.57 2.16.57.94 0 1.71-.18 2.31-.54.6-.36 1.06-.85 1.38-1.47h3.39c-.3 1.04-.79 1.93-1.47 2.67a6.84 6.84 0 01-2.49 1.71c-.96.38-2.01.57-3.15.57zm9.764 5.34v-21h3.18v2.61h.24c.46-.88 1.11-1.58 1.95-2.1.84-.54 1.86-.81 3.06-.81 1.3 0 2.46.33 3.48.99 1.02.64 1.82 1.56 2.4 2.76.58 1.2.87 2.61.87 4.23 0 1.62-.3 3.03-.9 4.23-.58 1.2-1.38 2.13-2.4 2.79-1.02.64-2.17.96-3.45.96-1.2 0-2.23-.25-3.09-.75a4.86 4.86 0 01-1.92-2.1h-.24l.24 2.55v5.64h-3.42zm7.5-8.43c.78 0 1.48-.19 2.1-.57.64-.4 1.15-.96 1.53-1.68.38-.74.57-1.62.57-2.64 0-1.04-.19-1.92-.57-2.64-.38-.72-.89-1.27-1.53-1.65-.62-.4-1.32-.6-2.1-.6s-1.49.2-2.13.6c-.62.38-1.12.93-1.5 1.65-.38.72-.57 1.6-.57 2.64 0 1.02.19 1.9.57 2.64.38.72.88 1.28 1.5 1.68.64.38 1.35.57 2.13.57zm18.549 8.43h-2.76v-3.03h2.58c.68 0 1.22-.12 1.62-.36.4-.24.72-.65.96-1.23l.3-.78-6.48-15.6h3.81l3.33 8.67.78 2.52h.24l.75-2.52 3.15-8.67h3.66l-6.51 16.92c-.38 1-.82 1.8-1.32 2.4-.5.6-1.08 1.03-1.74 1.29-.66.26-1.45.39-2.37.39zM97.32 27.3c-1.56 0-2.92-.34-4.08-1.02a7.111 7.111 0 01-2.67-2.82c-.64-1.2-.96-2.58-.96-4.14 0-1.56.32-2.93.96-4.11.64-1.2 1.53-2.14 2.67-2.82 1.16-.7 2.52-1.05 4.08-1.05 1.54 0 2.88.34 4.02 1.02 1.16.68 2.06 1.62 2.7 2.82.64 1.2.96 2.58.96 4.14 0 1.56-.32 2.94-.96 4.14a7.048 7.048 0 01-2.7 2.82c-1.14.68-2.48 1.02-4.02 1.02zm0-3.09c.76 0 1.46-.18 2.1-.54.64-.38 1.15-.94 1.53-1.68.38-.74.57-1.63.57-2.67 0-1.06-.19-1.95-.57-2.67-.38-.74-.89-1.29-1.53-1.65-.64-.38-1.34-.57-2.1-.57-.78 0-1.49.19-2.13.57-.64.36-1.15.91-1.53 1.65-.38.72-.57 1.61-.57 2.67 0 1.04.19 1.93.57 2.67.38.74.89 1.3 1.53 1.68.64.36 1.35.54 2.13.54zm15.519 3.09c-1.82 0-3.2-.56-4.14-1.68-.94-1.12-1.41-2.69-1.41-4.71v-9.27h3.42v8.97c0 1.22.27 2.13.81 2.73.56.58 1.33.87 2.31.87.8 0 1.5-.18 2.1-.54.6-.36 1.06-.87 1.38-1.53.32-.66.48-1.43.48-2.31v-8.19h3.42V27h-3.18v-3.18h-.24a5.741 5.741 0 01-1.8 2.52c-.82.64-1.87.96-3.15.96zm11.178-.3V11.64h3.18v2.94h.24c.22-1 .7-1.74 1.44-2.22.74-.48 1.68-.72 2.82-.72h1.56v3.09h-1.95c-.74 0-1.4.16-1.98.48-.58.32-1.04.79-1.38 1.41-.34.6-.51 1.36-.51 2.28V27h-3.42zM1.41 60V44.64h3.18v2.94h.24c.22-1 .7-1.74 1.44-2.22.74-.48 1.68-.72 2.82-.72h1.56v3.09H8.7c-.74 0-1.4.16-1.98.48-.58.32-1.04.79-1.38 1.41-.34.6-.51 1.36-.51 2.28V60H1.41zm17.6.3c-1.52 0-2.86-.34-4.02-1.02a7.55 7.55 0 01-2.7-2.85c-.66-1.22-.99-2.59-.99-4.11 0-1.54.33-2.91.99-4.11.68-1.2 1.6-2.14 2.76-2.82 1.18-.7 2.51-1.05 3.99-1.05 1.52 0 2.83.31 3.93.93 1.12.62 1.98 1.46 2.58 2.52.62 1.04.93 2.2.93 3.48 0 .38-.01.69-.03.93-.02.22-.05.47-.09.75H12.65v-2.37h10.44c-.04-.7-.25-1.32-.63-1.86-.36-.54-.84-.96-1.44-1.26-.6-.3-1.26-.45-1.98-.45-.78 0-1.5.19-2.16.57-.64.38-1.16.93-1.56 1.65-.38.7-.57 1.55-.57 2.55l-.09.69c0 1.04.2 1.93.6 2.67.42.72.96 1.27 1.62 1.65.66.38 1.38.57 2.16.57.94 0 1.71-.18 2.31-.54.6-.36 1.06-.85 1.38-1.47h3.39c-.3 1.04-.79 1.93-1.47 2.67a6.84 6.84 0 01-2.49 1.71c-.96.38-2.01.57-3.15.57zm15.673.03c-1.82 0-3.3-.42-4.44-1.26-1.12-.86-1.79-2.11-2.01-3.75h3.24c.12.64.45 1.17.99 1.59.54.4 1.28.6 2.22.6.8 0 1.48-.17 2.04-.51.58-.36.87-.87.87-1.53 0-.6-.24-1.04-.72-1.32-.48-.3-1.17-.52-2.07-.66l-1.77-.33c-.78-.14-1.52-.38-2.22-.72a4.46 4.46 0 01-1.65-1.38c-.42-.58-.63-1.31-.63-2.19 0-.9.25-1.69.75-2.37.52-.68 1.23-1.21 2.13-1.59.92-.38 1.94-.57 3.06-.57 1.6 0 2.94.39 4.02 1.17 1.1.78 1.75 1.92 1.95 3.42h-3.12c-.16-.6-.5-1.06-1.02-1.38-.52-.34-1.15-.51-1.89-.51-.8 0-1.47.16-2.01.48-.52.32-.78.76-.78 1.32 0 .54.29.97.87 1.29.58.3 1.36.51 2.34.63l1.74.3c.8.12 1.52.34 2.16.66.64.32 1.15.78 1.53 1.38.38.58.57 1.33.57 2.25 0 .98-.27 1.85-.81 2.61-.52.74-1.24 1.32-2.16 1.74-.9.42-1.96.63-3.18.63zM48.9 60c-1.48 0-2.59-.45-3.33-1.35-.74-.92-1.11-2.2-1.11-3.84V40.56h3.39v14.01c0 .76.17 1.34.51 1.74.34.4.82.6 1.44.6h2.22V60H48.9zm-7.32-12.63v-2.73h10.44v2.73H41.58zM58.35 60.3c-.92 0-1.74-.19-2.46-.57-.7-.4-1.25-.94-1.65-1.62-.4-.68-.6-1.48-.6-2.4 0-.96.22-1.78.66-2.46.44-.68 1.07-1.22 1.89-1.62.84-.4 1.85-.63 3.03-.69l4.23-.27v-1.2c0-.72-.26-1.28-.78-1.68-.5-.42-1.21-.63-2.13-.63-.84 0-1.5.2-1.98.6-.46.38-.76.88-.9 1.5h-3.42c.18-1.56.84-2.77 1.98-3.63 1.14-.86 2.58-1.29 4.32-1.29 1.96 0 3.5.42 4.62 1.26 1.14.82 1.71 2.04 1.71 3.66V60h-3.18v-2.85h-.24c-.24.62-.58 1.17-1.02 1.65-.42.48-.97.85-1.65 1.11-.66.26-1.47.39-2.43.39zm1.26-2.85c.82 0 1.51-.16 2.07-.48.58-.32 1.02-.75 1.32-1.29.3-.56.45-1.18.45-1.86v-.81l-3.45.24c-.94.06-1.63.27-2.07.63-.42.36-.63.88-.63 1.56 0 .58.21 1.06.63 1.44.44.38 1 .57 1.68.57zm15.583 2.85c-1.82 0-3.2-.56-4.14-1.68-.94-1.12-1.41-2.69-1.41-4.71v-9.27h3.42v8.97c0 1.22.27 2.13.81 2.73.56.58 1.33.87 2.31.87.8 0 1.5-.18 2.1-.54.6-.36 1.06-.87 1.38-1.53.32-.66.48-1.43.48-2.31v-8.19h3.42V60h-3.18v-3.18h-.24a5.741 5.741 0 01-1.8 2.52c-.82.64-1.87.96-3.15.96zm11.179-.3V44.64h3.18v2.94h.24c.22-1 .7-1.74 1.44-2.22.74-.48 1.68-.72 2.82-.72h1.56v3.09h-1.95c-.74 0-1.4.16-1.98.48-.58.32-1.04.79-1.38 1.41-.34.6-.51 1.36-.51 2.28V60h-3.42zm14.957.3c-.92 0-1.74-.19-2.46-.57-.7-.4-1.25-.94-1.65-1.62-.4-.68-.6-1.48-.6-2.4 0-.96.22-1.78.66-2.46.44-.68 1.07-1.22 1.89-1.62.84-.4 1.85-.63 3.03-.69l4.23-.27v-1.2c0-.72-.26-1.28-.78-1.68-.5-.42-1.21-.63-2.13-.63-.84 0-1.5.2-1.98.6-.46.38-.76.88-.9 1.5h-3.42c.18-1.56.84-2.77 1.98-3.63 1.14-.86 2.58-1.29 4.32-1.29 1.96 0 3.5.42 4.62 1.26 1.14.82 1.71 2.04 1.71 3.66V60h-3.18v-2.85h-.24c-.24.62-.58 1.17-1.02 1.65-.42.48-.97.85-1.65 1.11-.66.26-1.47.39-2.43.39zm1.26-2.85c.82 0 1.51-.16 2.07-.48.58-.32 1.02-.75 1.32-1.29.3-.56.45-1.18.45-1.86v-.81l-3.45.24c-.94.06-1.63.27-2.07.63-.42.36-.63.88-.63 1.56 0 .58.21 1.06.63 1.44.44.38 1 .57 1.68.57zM112.621 60V44.64h3.18v3.18h.24a5.66 5.66 0 011.86-2.49c.84-.66 1.89-.99 3.15-.99 1.8 0 3.16.56 4.08 1.68.94 1.12 1.41 2.69 1.41 4.71V60h-3.42v-8.97c0-1.22-.28-2.12-.84-2.7-.54-.6-1.3-.9-2.28-.9-.78 0-1.47.18-2.07.54-.6.36-1.07.87-1.41 1.53-.32.64-.48 1.41-.48 2.31V60h-3.42zm22.265 0c-1.48 0-2.59-.45-3.33-1.35-.74-.92-1.11-2.2-1.11-3.84V40.56h3.39v14.01c0 .76.17 1.34.51 1.74.34.4.82.6 1.44.6h2.22V60h-3.12zm-7.32-12.63v-2.73h10.44v2.73h-10.44zM145.844 60V44.64h3.18v2.94h.24c.22-1 .7-1.74 1.44-2.22.74-.48 1.68-.72 2.82-.72h1.56v3.09h-1.95c-.74 0-1.4.16-1.98.48-.58.32-1.04.79-1.38 1.41-.34.6-.51 1.36-.51 2.28V60h-3.42zm16.858.3c-1.82 0-3.2-.56-4.14-1.68-.94-1.12-1.41-2.69-1.41-4.71v-9.27h3.42v8.97c0 1.22.27 2.13.81 2.73.56.58 1.33.87 2.31.87.8 0 1.5-.18 2.1-.54.6-.36 1.06-.87 1.38-1.53.32-.66.48-1.43.48-2.31v-8.19h3.42V60h-3.18v-3.18h-.24a5.741 5.741 0 01-1.8 2.52c-.82.64-1.87.96-3.15.96zm11.179-.3V44.64h3.18v3.18h.24a5.66 5.66 0 011.86-2.49c.84-.66 1.89-.99 3.15-.99 1.8 0 3.16.56 4.08 1.68.94 1.12 1.41 2.69 1.41 4.71V60h-3.42v-8.97c0-1.22-.28-2.12-.84-2.7-.54-.6-1.3-.9-2.28-.9-.78 0-1.47.18-2.07.54-.6.36-1.07.87-1.41 1.53-.32.64-.48 1.41-.48 2.31V60h-3.42zm16.728 0V44.64h3.18v3.18h.24a5.66 5.66 0 011.86-2.49c.84-.66 1.89-.99 3.15-.99 1.8 0 3.16.56 4.08 1.68.94 1.12 1.41 2.69 1.41 4.71V60h-3.42v-8.97c0-1.22-.28-2.12-.84-2.7-.54-.6-1.3-.9-2.28-.9-.78 0-1.47.18-2.07.54-.6.36-1.07.87-1.41 1.53-.32.64-.48 1.41-.48 2.31V60h-3.42zm16.729 0V44.64h3.42V60h-3.42zm1.71-17.52c-.58 0-1.08-.21-1.5-.63-.42-.42-.63-.92-.63-1.5s.21-1.07.63-1.47c.42-.42.92-.63 1.5-.63s1.07.21 1.47.63c.42.4.63.89.63 1.47s-.21 1.08-.63 1.5c-.4.42-.89.63-1.47.63zM213.549 60V44.64h3.18v3.18h.24a5.66 5.66 0 011.86-2.49c.84-.66 1.89-.99 3.15-.99 1.8 0 3.16.56 4.08 1.68.94 1.12 1.41 2.69 1.41 4.71V60h-3.42v-8.97c0-1.22-.28-2.12-.84-2.7-.54-.6-1.3-.9-2.28-.9-.78 0-1.47.18-2.07.54-.6.36-1.07.87-1.41 1.53-.32.64-.48 1.41-.48 2.31V60h-3.42zm23.808 5.94c-2.12 0-3.79-.45-5.01-1.35-1.22-.88-1.99-2.04-2.31-3.48h3.63c.2.56.6 1.03 1.2 1.41.6.4 1.43.6 2.49.6 1.26 0 2.22-.37 2.88-1.11.68-.72 1.02-1.68 1.02-2.88l.15-1.89h-.24c-.38.76-.98 1.38-1.8 1.86-.8.48-1.8.72-3 .72-1.22 0-2.33-.31-3.33-.93-1-.62-1.8-1.5-2.4-2.64-.6-1.16-.9-2.55-.9-4.17 0-1.6.3-2.98.9-4.14.6-1.16 1.4-2.05 2.4-2.67 1-.62 2.11-.93 3.33-.93 1.18 0 2.18.24 3 .72a4.87 4.87 0 011.89 1.98h.24v-2.4h3.18V58.8c0 1.54-.31 2.84-.93 3.9a5.802 5.802 0 01-2.55 2.4c-1.08.56-2.36.84-3.84.84zm-.09-9.21c.76 0 1.45-.17 2.07-.51.62-.36 1.11-.88 1.47-1.56.38-.7.57-1.56.57-2.58s-.19-1.87-.57-2.55c-.36-.7-.85-1.22-1.47-1.56-.62-.36-1.31-.54-2.07-.54-.74 0-1.42.18-2.04.54-.6.34-1.09.86-1.47 1.56-.36.68-.54 1.53-.54 2.55 0 1.02.18 1.88.54 2.58.38.68.87 1.2 1.47 1.56.62.34 1.3.51 2.04.51zM7.32 93.33c-1.82 0-3.3-.42-4.44-1.26-1.12-.86-1.79-2.11-2.01-3.75h3.24c.12.64.45 1.17.99 1.59.54.4 1.28.6 2.22.6.8 0 1.48-.17 2.04-.51.58-.36.87-.87.87-1.53 0-.6-.24-1.04-.72-1.32-.48-.3-1.17-.52-2.07-.66l-1.77-.33c-.78-.14-1.52-.38-2.22-.72a4.46 4.46 0 01-1.65-1.38c-.42-.58-.63-1.31-.63-2.19 0-.9.25-1.69.75-2.37.52-.68 1.23-1.21 2.13-1.59.92-.38 1.94-.57 3.06-.57 1.6 0 2.94.39 4.02 1.17 1.1.78 1.75 1.92 1.95 3.42H9.96c-.16-.6-.5-1.06-1.02-1.38-.52-.34-1.15-.51-1.89-.51-.8 0-1.47.16-2.01.48-.52.32-.78.76-.78 1.32 0 .54.29.97.87 1.29.58.3 1.36.51 2.34.63l1.74.3c.8.12 1.52.34 2.16.66.64.32 1.15.78 1.53 1.38.38.58.57 1.33.57 2.25 0 .98-.27 1.85-.81 2.61-.52.74-1.24 1.32-2.16 1.74-.9.42-1.96.63-3.18.63zm8.533-.33V77.64h3.18v2.82h.24c.28-.9.79-1.64 1.53-2.22.76-.6 1.69-.9 2.79-.9 1.16 0 2.08.29 2.76.87.68.56 1.15 1.32 1.41 2.28h.24c.34-.94.9-1.7 1.68-2.28.8-.58 1.84-.87 3.12-.87 1.58 0 2.75.49 3.51 1.47.78.96 1.17 2.3 1.17 4.02V93h-3.42v-9.78c0-.92-.23-1.61-.69-2.07-.46-.48-1.09-.72-1.89-.72-.92 0-1.67.33-2.25.99-.58.64-.87 1.54-.87 2.7V93h-3.42v-9.78c0-.92-.23-1.61-.69-2.07-.44-.48-1.07-.72-1.89-.72-.92 0-1.67.33-2.25.99-.56.64-.84 1.54-.84 2.7V93h-3.42zm31.633.3c-1.56 0-2.92-.34-4.08-1.02a7.111 7.111 0 01-2.67-2.82c-.64-1.2-.96-2.58-.96-4.14 0-1.56.32-2.93.96-4.11.64-1.2 1.53-2.14 2.67-2.82 1.16-.7 2.52-1.05 4.08-1.05 1.54 0 2.88.34 4.02 1.02 1.16.68 2.06 1.62 2.7 2.82.64 1.2.96 2.58.96 4.14 0 1.56-.32 2.94-.96 4.14a7.048 7.048 0 01-2.7 2.82c-1.14.68-2.48 1.02-4.02 1.02zm0-3.09c.76 0 1.46-.18 2.1-.54.64-.38 1.15-.94 1.53-1.68.38-.74.57-1.63.57-2.67 0-1.06-.19-1.95-.57-2.67-.38-.74-.89-1.29-1.53-1.65-.64-.38-1.34-.57-2.1-.57-.78 0-1.49.19-2.13.57-.64.36-1.15.91-1.53 1.65-.38.72-.57 1.61-.57 2.67 0 1.04.19 1.93.57 2.67.38.74.89 1.3 1.53 1.68.64.36 1.35.54 2.13.54zm17.285 3.09c-1.56 0-2.92-.34-4.08-1.02a7.111 7.111 0 01-2.67-2.82c-.64-1.2-.96-2.58-.96-4.14 0-1.56.32-2.93.96-4.11.64-1.2 1.53-2.14 2.67-2.82 1.16-.7 2.52-1.05 4.08-1.05 1.54 0 2.88.34 4.02 1.02 1.16.68 2.06 1.62 2.7 2.82.64 1.2.96 2.58.96 4.14 0 1.56-.32 2.94-.96 4.14a7.048 7.048 0 01-2.7 2.82c-1.14.68-2.48 1.02-4.02 1.02zm0-3.09c.76 0 1.46-.18 2.1-.54.64-.38 1.15-.94 1.53-1.68.38-.74.57-1.63.57-2.67 0-1.06-.19-1.95-.57-2.67-.38-.74-.89-1.29-1.53-1.65-.64-.38-1.34-.57-2.1-.57-.78 0-1.49.19-2.13.57-.64.36-1.15.91-1.53 1.65-.38.72-.57 1.61-.57 2.67 0 1.04.19 1.93.57 2.67.38.74.89 1.3 1.53 1.68.64.36 1.35.54 2.13.54zM80.335 93c-1.48 0-2.59-.45-3.33-1.35-.74-.92-1.11-2.2-1.11-3.84V73.56h3.39v14.01c0 .76.17 1.34.51 1.74.34.4.82.6 1.44.6h2.22V93h-3.12zm-7.32-12.63v-2.73h10.44v2.73h-10.44zM85.375 93V71.7h3.42v5.94l-.24 3.18h.24c.38-1.1 1.03-1.95 1.95-2.55.94-.62 2.05-.93 3.33-.93 1.78 0 3.14.56 4.08 1.68.94 1.1 1.41 2.7 1.41 4.8V93h-3.39v-8.91c0-1.26-.29-2.18-.87-2.76-.58-.6-1.39-.9-2.43-.9-.82 0-1.54.19-2.16.57-.6.38-1.07.91-1.41 1.59-.34.66-.51 1.44-.51 2.34V93h-3.42zm17.021 0V71.7h3.42V93h-3.42zm8.911 5.64h-2.76v-3.03h2.58c.68 0 1.22-.12 1.62-.36.4-.24.72-.65.96-1.23l.3-.78-6.48-15.6h3.81l3.33 8.67.78 2.52h.24l.75-2.52 3.15-8.67h3.66l-6.51 16.92c-.38 1-.82 1.8-1.32 2.4-.5.6-1.08 1.03-1.74 1.29-.66.26-1.45.39-2.37.39zM134.112 93l-4.2-15.36h3.69l2.22 9.18.36 2.16h.24l.42-2.16 2.22-9.18h4.26l2.25 9.18.39 2.16h.24l.39-2.16 2.19-9.18h3.69l-4.2 15.36h-4.26l-2.37-9.93-.33-1.98h-.24l-.33 1.98-2.37 9.93h-4.26zm20.198 0V77.64h3.42V93h-3.42zm1.71-17.52c-.58 0-1.08-.21-1.5-.63-.42-.42-.63-.92-.63-1.5s.21-1.07.63-1.47c.42-.42.92-.63 1.5-.63s1.07.21 1.47.63c.42.4.63.89.63 1.47s-.21 1.08-.63 1.5c-.4.42-.89.63-1.47.63zM166.731 93c-1.48 0-2.59-.45-3.33-1.35-.74-.92-1.11-2.2-1.11-3.84V73.56h3.39v14.01c0 .76.17 1.34.51 1.74.34.4.82.6 1.44.6h2.22V93h-3.12zm-7.32-12.63v-2.73h10.44v2.73h-10.44zM171.771 93V71.7h3.42v5.94l-.24 3.18h.24c.38-1.1 1.03-1.95 1.95-2.55.94-.62 2.05-.93 3.33-.93 1.78 0 3.14.56 4.08 1.68.94 1.1 1.41 2.7 1.41 4.8V93h-3.39v-8.91c0-1.26-.29-2.18-.87-2.76-.58-.6-1.39-.9-2.43-.9-.82 0-1.54.19-2.16.57-.6.38-1.07.91-1.41 1.59-.34.66-.51 1.44-.51 2.34V93h-3.42zM8.91 126.3c-1.64 0-3.03-.28-4.17-.84-1.14-.56-2.03-1.35-2.67-2.37-.64-1.02-1.01-2.22-1.11-3.6h3.6c.1 1.02.5 1.88 1.2 2.58.7.7 1.75 1.05 3.15 1.05 1.24 0 2.22-.28 2.94-.84.72-.56 1.08-1.31 1.08-2.25 0-.88-.29-1.54-.87-1.98-.58-.44-1.41-.79-2.49-1.05l-2.79-.6c-1-.22-1.91-.58-2.73-1.08-.8-.5-1.43-1.14-1.89-1.92-.46-.8-.69-1.73-.69-2.79 0-1.18.31-2.21.93-3.09.64-.88 1.5-1.57 2.58-2.07 1.1-.5 2.32-.75 3.66-.75 1.44 0 2.68.24 3.72.72 1.06.46 1.9 1.11 2.52 1.95.62.82.97 1.79 1.05 2.91h-3.48c-.2-.78-.62-1.39-1.26-1.83-.64-.44-1.49-.66-2.55-.66-1.1 0-2 .26-2.7.78-.7.52-1.05 1.17-1.05 1.95s.31 1.41.93 1.89c.64.46 1.53.82 2.67 1.08l2.76.6c1.02.2 1.91.55 2.67 1.05.76.48 1.35 1.11 1.77 1.89.44.76.66 1.68.66 2.76 0 1.36-.32 2.53-.96 3.51-.62.96-1.49 1.7-2.61 2.22-1.12.52-2.41.78-3.87.78zm21.18 5.34V126l.24-2.67h-.24c-.42.96-1.06 1.7-1.92 2.22-.86.5-1.89.75-3.09.75-1.28 0-2.43-.32-3.45-.96-1.02-.66-1.83-1.59-2.43-2.79-.58-1.2-.87-2.61-.87-4.23 0-1.62.29-3.03.87-4.23.6-1.2 1.41-2.12 2.43-2.76 1.02-.66 2.17-.99 3.45-.99 1.18 0 2.19.26 3.03.78.84.5 1.5 1.19 1.98 2.07h.24v-2.55h3.18v21h-3.42zm-4.08-8.43c.78 0 1.48-.19 2.1-.57.64-.4 1.15-.96 1.53-1.68.38-.74.57-1.62.57-2.64 0-1.04-.19-1.92-.57-2.64-.38-.72-.89-1.27-1.53-1.65-.62-.4-1.32-.6-2.1-.6s-1.49.2-2.13.6c-.62.38-1.12.93-1.5 1.65-.38.72-.57 1.6-.57 2.64 0 1.02.19 1.9.57 2.64.38.72.88 1.28 1.5 1.68.64.38 1.35.57 2.13.57zm15.872 3.09c-1.82 0-3.2-.56-4.14-1.68-.94-1.12-1.41-2.69-1.41-4.71v-9.27h3.42v8.97c0 1.22.27 2.13.81 2.73.56.58 1.33.87 2.31.87.8 0 1.5-.18 2.1-.54.6-.36 1.06-.87 1.38-1.53.32-.66.48-1.43.48-2.31v-8.19h3.42V126h-3.18v-3.18h-.24a5.741 5.741 0 01-1.8 2.52c-.82.64-1.87.96-3.15.96zm15.588 0c-.92 0-1.74-.19-2.46-.57-.7-.4-1.25-.94-1.65-1.62-.4-.68-.6-1.48-.6-2.4 0-.96.22-1.78.66-2.46.44-.68 1.07-1.22 1.89-1.62.84-.4 1.85-.63 3.03-.69l4.23-.27v-1.2c0-.72-.26-1.28-.78-1.68-.5-.42-1.21-.63-2.13-.63-.84 0-1.5.2-1.98.6-.46.38-.76.88-.9 1.5h-3.42c.18-1.56.84-2.77 1.98-3.63 1.14-.86 2.58-1.29 4.32-1.29 1.96 0 3.5.42 4.62 1.26 1.14.82 1.71 2.04 1.71 3.66V126h-3.18v-2.85h-.24c-.24.62-.58 1.17-1.02 1.65-.42.48-.97.85-1.65 1.11-.66.26-1.47.39-2.43.39zm1.26-2.85c.82 0 1.51-.16 2.07-.48.58-.32 1.02-.75 1.32-1.29.3-.56.45-1.18.45-1.86v-.81l-3.45.24c-.94.06-1.63.27-2.07.63-.42.36-.63.88-.63 1.56 0 .58.21 1.06.63 1.44.44.38 1 .57 1.68.57zM68.763 126v-15.36h3.18v2.94h.24c.22-1 .7-1.74 1.44-2.22.74-.48 1.68-.72 2.82-.72h1.56v3.09h-1.95c-.74 0-1.4.16-1.98.48-.58.32-1.04.79-1.38 1.41-.34.6-.51 1.36-.51 2.28v8.1h-3.42zm17.6.3c-1.52 0-2.86-.34-4.02-1.02a7.55 7.55 0 01-2.7-2.85c-.66-1.22-.99-2.59-.99-4.11 0-1.54.33-2.91.99-4.11.68-1.2 1.6-2.14 2.76-2.82 1.18-.7 2.51-1.05 3.99-1.05 1.52 0 2.83.31 3.93.93 1.12.62 1.98 1.46 2.58 2.52.62 1.04.93 2.2.93 3.48 0 .38-.01.69-.03.93-.02.22-.05.47-.09.75h-13.71v-2.37h10.44c-.04-.7-.25-1.32-.63-1.86-.36-.54-.84-.96-1.44-1.26-.6-.3-1.26-.45-1.98-.45-.78 0-1.5.19-2.16.57-.64.38-1.16.93-1.56 1.65-.38.7-.57 1.55-.57 2.55l-.09.69c0 1.04.2 1.93.6 2.67.42.72.96 1.27 1.62 1.65.66.38 1.38.57 2.16.57.94 0 1.71-.18 2.31-.54.6-.36 1.06-.85 1.38-1.47h3.39c-.3 1.04-.79 1.93-1.47 2.67a6.84 6.84 0 01-2.49 1.71c-.96.38-2.01.57-3.15.57zm21.172-.3v-18.9h3.6V126h-3.6zm-6.27-17.79V105h16.11v3.21h-16.11zm21.924 18.09c-1.52 0-2.86-.34-4.02-1.02a7.55 7.55 0 01-2.7-2.85c-.66-1.22-.99-2.59-.99-4.11 0-1.54.33-2.91.99-4.11.68-1.2 1.6-2.14 2.76-2.82 1.18-.7 2.51-1.05 3.99-1.05 1.52 0 2.83.31 3.93.93 1.12.62 1.98 1.46 2.58 2.52.62 1.04.93 2.2.93 3.48 0 .38-.01.69-.03.93-.02.22-.05.47-.09.75h-13.71v-2.37h10.44c-.04-.7-.25-1.32-.63-1.86-.36-.54-.84-.96-1.44-1.26-.6-.3-1.26-.45-1.98-.45-.78 0-1.5.19-2.16.57-.64.38-1.16.93-1.56 1.65-.38.7-.57 1.55-.57 2.55l-.09.69c0 1.04.2 1.93.6 2.67.42.72.96 1.27 1.62 1.65.66.38 1.38.57 2.16.57.94 0 1.71-.18 2.31-.54.6-.36 1.06-.85 1.38-1.47h3.39c-.3 1.04-.79 1.93-1.47 2.67a6.84 6.84 0 01-2.49 1.71c-.96.38-2.01.57-3.15.57zm9.764-.3v-15.36h3.18v2.94h.24c.22-1 .7-1.74 1.44-2.22.74-.48 1.68-.72 2.82-.72h1.56v3.09h-1.95c-.74 0-1.4.16-1.98.48-.58.32-1.04.79-1.38 1.41-.34.6-.51 1.36-.51 2.28v8.1h-3.42zm11.309 0v-15.36h3.18v2.82h.24c.28-.9.79-1.64 1.53-2.22.76-.6 1.69-.9 2.79-.9 1.16 0 2.08.29 2.76.87.68.56 1.15 1.32 1.41 2.28h.24c.34-.94.9-1.7 1.68-2.28.8-.58 1.84-.87 3.12-.87 1.58 0 2.75.49 3.51 1.47.78.96 1.17 2.3 1.17 4.02V126h-3.42v-9.78c0-.92-.23-1.61-.69-2.07-.46-.48-1.09-.72-1.89-.72-.92 0-1.67.33-2.25.99-.58.64-.87 1.54-.87 2.7V126h-3.42v-9.78c0-.92-.23-1.61-.69-2.07-.44-.48-1.07-.72-1.89-.72-.92 0-1.67.33-2.25.99-.56.64-.84 1.54-.84 2.7V126h-3.42zm24.462 0v-15.36h3.42V126h-3.42zm1.71-17.52c-.58 0-1.08-.21-1.5-.63-.42-.42-.63-.92-.63-1.5s.21-1.07.63-1.47c.42-.42.92-.63 1.5-.63s1.07.21 1.47.63c.42.4.63.89.63 1.47s-.21 1.08-.63 1.5c-.4.42-.89.63-1.47.63zm4.501 17.52v-15.36h3.18v3.18h.24a5.66 5.66 0 011.86-2.49c.84-.66 1.89-.99 3.15-.99 1.8 0 3.16.56 4.08 1.68.94 1.12 1.41 2.69 1.41 4.71V126h-3.42v-8.97c0-1.22-.28-2.12-.84-2.7-.54-.6-1.3-.9-2.28-.9-.78 0-1.47.18-2.07.54-.6.36-1.07.87-1.41 1.53-.32.64-.48 1.41-.48 2.31V126h-3.42zm21.139.3c-.92 0-1.74-.19-2.46-.57-.7-.4-1.25-.94-1.65-1.62-.4-.68-.6-1.48-.6-2.4 0-.96.22-1.78.66-2.46.44-.68 1.07-1.22 1.89-1.62.84-.4 1.85-.63 3.03-.69l4.23-.27v-1.2c0-.72-.26-1.28-.78-1.68-.5-.42-1.21-.63-2.13-.63-.84 0-1.5.2-1.98.6-.46.38-.76.88-.9 1.5h-3.42c.18-1.56.84-2.77 1.98-3.63 1.14-.86 2.58-1.29 4.32-1.29 1.96 0 3.5.42 4.62 1.26 1.14.82 1.71 2.04 1.71 3.66V126h-3.18v-2.85h-.24c-.24.62-.58 1.17-1.02 1.65-.42.48-.97.85-1.65 1.11-.66.26-1.47.39-2.43.39zm1.26-2.85c.82 0 1.51-.16 2.07-.48.58-.32 1.02-.75 1.32-1.29.3-.56.45-1.18.45-1.86v-.81l-3.45.24c-.94.06-1.63.27-2.07.63-.42.36-.63.88-.63 1.56 0 .58.21 1.06.63 1.44.44.38 1 .57 1.68.57zm10.033 2.55v-21.3h3.42V126h-3.42zm7.456.21c-.6 0-1.12-.22-1.56-.66-.44-.44-.66-.97-.66-1.59 0-.6.22-1.12.66-1.56.44-.44.96-.66 1.56-.66.6 0 1.11.22 1.53.66.44.44.66.96.66 1.56 0 .62-.22 1.15-.66 1.59-.42.44-.93.66-1.53.66z" fill="#fff"/></svg>