<svg width="128" height="151" viewBox="0 0 128 151" fill="none" xmlns="http://www.w3.org/2000/svg"><path d="M6.336 87.18c-1.068 0-2.034-.258-2.898-.774-.864-.528-1.548-1.272-2.052-2.232C.882 83.202.63 82.044.63 80.7c0-1.008.15-1.908.45-2.7.312-.804.738-1.488 1.278-2.052a5.506 5.506 0 011.908-1.278 5.93 5.93 0 012.304-.45c.996 0 1.866.15 2.61.45.744.288 1.35.72 1.818 1.296.48.564.792 1.254.936 2.07H9.72c-.18-.552-.546-1.002-1.098-1.35-.54-.36-1.224-.54-2.052-.54-.684 0-1.314.186-1.89.558-.576.36-1.038.882-1.386 1.566-.348.672-.522 1.482-.522 2.43 0 .936.168 1.746.504 2.43.348.672.804 1.194 1.368 1.566.576.36 1.206.54 1.89.54.672 0 1.242-.138 1.71-.414a3.31 3.31 0 001.116-1.116c.288-.456.462-.954.522-1.494H6.39V80.43h5.634V87h-1.998v-1.854h-.144a3.781 3.781 0 01-1.926 1.764c-.456.18-.996.27-1.62.27zm11.644 0c-.912 0-1.716-.204-2.412-.612a4.53 4.53 0 01-1.62-1.71c-.396-.732-.594-1.554-.594-2.466 0-.924.198-1.746.594-2.466.408-.72.96-1.284 1.656-1.692.708-.42 1.506-.63 2.394-.63.912 0 1.698.186 2.358.558a3.912 3.912 0 011.548 1.512 4 4 0 01.558 2.088c0 .228-.006.414-.018.558-.012.132-.03.282-.054.45h-8.226v-1.422h6.264a2.107 2.107 0 00-.378-1.116 2.2 2.2 0 00-.864-.756c-.36-.18-.756-.27-1.188-.27-.468 0-.9.114-1.296.342a2.572 2.572 0 00-.936.99c-.228.42-.342.93-.342 1.53l-.054.414c0 .624.12 1.158.36 1.602.252.432.576.762.972.99.396.228.828.342 1.296.342.564 0 1.026-.108 1.386-.324.36-.216.636-.51.828-.882h2.034a3.943 3.943 0 01-.882 1.602 4.104 4.104 0 01-1.494 1.026 5.09 5.09 0 01-1.89.342zm9.215-.18c-.888 0-1.554-.27-1.998-.81-.444-.552-.666-1.32-.666-2.304v-8.55h2.034v8.406c0 .456.102.804.306 1.044.204.24.492.36.864.36h1.332V87h-1.872zm-4.392-7.578v-1.638h6.264v1.638h-6.264zm14.513 7.776c-1.092 0-1.98-.252-2.664-.756-.672-.516-1.074-1.266-1.206-2.25h1.944c.072.384.27.702.594.954.324.24.768.36 1.332.36.48 0 .888-.102 1.224-.306.348-.216.522-.522.522-.918 0-.36-.144-.624-.432-.792-.288-.18-.702-.312-1.242-.396l-1.062-.198a5.093 5.093 0 01-1.332-.432 2.676 2.676 0 01-.99-.828c-.252-.348-.378-.786-.378-1.314 0-.54.15-1.014.45-1.422.312-.408.738-.726 1.278-.954a4.766 4.766 0 011.836-.342c.96 0 1.764.234 2.412.702.66.468 1.05 1.152 1.17 2.052H38.9c-.096-.36-.3-.636-.612-.828-.312-.204-.69-.306-1.134-.306-.48 0-.882.096-1.206.288-.312.192-.468.456-.468.792 0 .324.174.582.522.774.348.18.816.306 1.404.378l1.044.18c.48.072.912.204 1.296.396.384.192.69.468.918.828.228.348.342.798.342 1.35 0 .588-.162 1.11-.486 1.566-.312.444-.744.792-1.296 1.044-.54.252-1.176.378-1.908.378zm8.53-.198c-.889 0-1.555-.27-1.999-.81-.444-.552-.666-1.32-.666-2.304v-8.55h2.034v8.406c0 .456.102.804.306 1.044.204.24.492.36.864.36h1.332V87h-1.872zm-4.393-7.578v-1.638h6.264v1.638h-6.264zm10.062 7.758c-.552 0-1.044-.114-1.476-.342-.42-.24-.75-.564-.99-.972-.24-.408-.36-.888-.36-1.44 0-.576.132-1.068.396-1.476.264-.408.642-.732 1.134-.972.504-.24 1.11-.378 1.818-.414l2.538-.162v-.72c0-.432-.156-.768-.468-1.008-.3-.252-.726-.378-1.278-.378-.504 0-.9.12-1.188.36a1.582 1.582 0 00-.54.9H49.05c.108-.936.504-1.662 1.188-2.178.684-.516 1.548-.774 2.592-.774 1.176 0 2.1.252 2.772.756.684.492 1.026 1.224 1.026 2.196V87H54.72v-1.71h-.144a3.115 3.115 0 01-.612.99c-.252.288-.582.51-.99.666-.396.156-.882.234-1.458.234zm.756-1.71c.492 0 .906-.096 1.242-.288.348-.192.612-.45.792-.774.18-.336.27-.708.27-1.116v-.486l-2.07.144c-.564.036-.978.162-1.242.378-.252.216-.378.528-.378.936 0 .348.126.636.378.864.264.228.6.342 1.008.342zm6.02 1.53v-9.216H60.2v1.764h.144c.132-.6.42-1.044.864-1.332.444-.288 1.008-.432 1.692-.432h.936v1.854h-1.17c-.444 0-.84.096-1.188.288a2.084 2.084 0 00-.828.846c-.204.36-.306.816-.306 1.368V87h-2.052zm10.511 0c-.888 0-1.553-.27-1.998-.81-.444-.552-.666-1.32-.666-2.304v-8.55h2.034v8.406c0 .456.103.804.306 1.044.205.24.493.36.865.36h1.331V87h-1.872zm-4.392-7.578v-1.638h6.264v1.638H64.41zm11.455 7.758c-.912 0-1.716-.204-2.412-.612a4.53 4.53 0 01-1.62-1.71c-.396-.732-.594-1.554-.594-2.466 0-.924.198-1.746.594-2.466.408-.72.96-1.284 1.656-1.692.708-.42 1.506-.63 2.394-.63.912 0 1.698.186 2.358.558a3.912 3.912 0 011.548 1.512 4 4 0 01.558 2.088c0 .228-.006.414-.018.558-.012.132-.03.282-.054.45h-8.226v-1.422h6.264a2.107 2.107 0 00-.378-1.116 2.2 2.2 0 00-.864-.756c-.36-.18-.756-.27-1.188-.27-.468 0-.9.114-1.296.342a2.572 2.572 0 00-.936.99c-.228.42-.342.93-.342 1.53l-.054.414c0 .624.12 1.158.36 1.602.252.432.576.762.972.99.396.228.828.342 1.296.342.564 0 1.026-.108 1.386-.324.36-.216.636-.51.828-.882h2.034a3.943 3.943 0 01-.882 1.602 4.104 4.104 0 01-1.494 1.026 5.09 5.09 0 01-1.89.342zm9.708 0a3.905 3.905 0 01-2.088-.576c-.612-.396-1.098-.954-1.458-1.674-.36-.72-.54-1.566-.54-2.538 0-.972.174-1.818.522-2.538.36-.72.846-1.272 1.458-1.656a3.728 3.728 0 012.07-.594c.708 0 1.314.144 1.818.432.504.288.9.696 1.188 1.224h.144l-.144-1.386V74.22h2.052V87h-1.908v-1.566h-.144c-.3.516-.69.936-1.17 1.26-.48.324-1.08.486-1.8.486zm.522-1.854c.468 0 .888-.114 1.26-.342.384-.24.69-.576.918-1.008.228-.444.342-.972.342-1.584 0-.624-.114-1.152-.342-1.584a2.447 2.447 0 00-.918-.99 2.274 2.274 0 00-1.26-.36c-.468 0-.894.12-1.278.36a2.491 2.491 0 00-.9.99c-.228.432-.342.96-.342 1.584 0 .612.114 1.14.342 1.584.228.432.528.768.9 1.008.384.228.81.342 1.278.342zM2.772 107l-2.52-9.216h2.214l1.332 5.508.216 1.296h.144l.252-1.296 1.332-5.508h2.556l1.35 5.508.234 1.296h.144l.234-1.296 1.314-5.508h2.214L11.268 107H8.712l-1.422-5.958-.198-1.188h-.144l-.198 1.188L5.328 107H2.772zm12.119 0v-9.216h2.052V107H14.89zm1.026-10.512c-.348 0-.648-.126-.9-.378a1.229 1.229 0 01-.378-.9c0-.348.126-.642.378-.882.252-.252.552-.378.9-.378s.642.126.882.378c.252.24.378.534.378.882s-.126.648-.378.9a1.17 1.17 0 01-.882.378zM22.343 107c-.887 0-1.553-.27-1.997-.81-.445-.552-.666-1.32-.666-2.304v-8.55h2.034v8.406c0 .456.102.804.306 1.044.204.24.492.36.864.36h1.331V107h-1.872zm-4.392-7.578v-1.638h6.264v1.638h-6.264zM25.367 107V94.22h2.052v3.564l-.143 1.908h.143c.229-.66.619-1.17 1.17-1.53.565-.372 1.23-.558 1.998-.558 1.069 0 1.884.336 2.448 1.008.565.66.847 1.62.847 2.88V107h-2.034v-5.346c0-.756-.174-1.308-.522-1.656-.349-.36-.835-.54-1.459-.54-.492 0-.924.114-1.296.342-.36.228-.642.546-.846.954-.204.396-.306.864-.306 1.404V107h-2.052zm18.264.18c-.984 0-1.818-.168-2.502-.504a3.847 3.847 0 01-1.602-1.422c-.384-.612-.606-1.332-.666-2.16h2.16c.06.612.3 1.128.72 1.548.42.42 1.05.63 1.89.63.744 0 1.332-.168 1.764-.504.432-.336.648-.786.648-1.35 0-.528-.174-.924-.522-1.188-.348-.264-.846-.474-1.494-.63l-1.674-.36a5.314 5.314 0 01-1.638-.648c-.48-.3-.858-.684-1.134-1.152-.276-.48-.414-1.038-.414-1.674 0-.708.186-1.326.558-1.854.384-.528.9-.942 1.548-1.242.66-.3 1.392-.45 2.196-.45.864 0 1.608.144 2.232.432.636.276 1.14.666 1.512 1.17.372.492.582 1.074.63 1.746h-2.088A1.84 1.84 0 0045 96.47c-.384-.264-.894-.396-1.53-.396-.66 0-1.2.156-1.62.468-.42.312-.63.702-.63 1.17 0 .468.186.846.558 1.134.384.276.918.492 1.602.648l1.656.36c.612.12 1.146.33 1.602.63.456.288.81.666 1.062 1.134.264.456.396 1.008.396 1.656 0 .816-.192 1.518-.576 2.106-.372.576-.894 1.02-1.566 1.332-.672.312-1.446.468-2.322.468zm12.709 3.204V107l.144-1.602h-.144a2.846 2.846 0 01-1.152 1.332c-.516.3-1.134.45-1.854.45a3.814 3.814 0 01-2.07-.576c-.612-.396-1.098-.954-1.458-1.674-.348-.72-.522-1.566-.522-2.538 0-.972.174-1.818.522-2.538.36-.72.846-1.272 1.458-1.656a3.728 3.728 0 012.07-.594c.708 0 1.314.156 1.818.468.504.3.9.714 1.188 1.242h.144v-1.53h1.908v12.6H56.34zm-2.448-5.058c.468 0 .888-.114 1.26-.342.384-.24.69-.576.918-1.008.228-.444.342-.972.342-1.584 0-.624-.114-1.152-.342-1.584a2.447 2.447 0 00-.918-.99 2.274 2.274 0 00-1.26-.36c-.468 0-.894.12-1.278.36a2.491 2.491 0 00-.9.99c-.228.432-.342.96-.342 1.584 0 .612.114 1.14.342 1.584.228.432.528.768.9 1.008.384.228.81.342 1.278.342zm9.522 1.854c-1.092 0-1.92-.336-2.484-1.008-.564-.672-.846-1.614-.846-2.826v-5.562h2.052v5.382c0 .732.162 1.278.486 1.638.336.348.798.522 1.386.522.48 0 .9-.108 1.26-.324.36-.216.636-.522.828-.918.192-.396.288-.858.288-1.386v-4.914h2.052V107h-1.908v-1.908h-.144a3.445 3.445 0 01-1.08 1.512c-.492.384-1.122.576-1.89.576zm9.353 0c-.552 0-1.044-.114-1.476-.342-.42-.24-.75-.564-.99-.972-.24-.408-.36-.888-.36-1.44 0-.576.132-1.068.396-1.476.264-.408.642-.732 1.134-.972.504-.24 1.11-.378 1.818-.414l2.538-.162v-.72c0-.432-.156-.768-.468-1.008-.3-.252-.726-.378-1.278-.378-.504 0-.9.12-1.188.36a1.582 1.582 0 00-.54.9h-2.052c.108-.936.504-1.662 1.188-2.178.684-.516 1.548-.774 2.592-.774 1.176 0 2.1.252 2.772.756.684.492 1.026 1.224 1.026 2.196V107h-1.908v-1.71h-.144a3.115 3.115 0 01-.612.99c-.252.288-.582.51-.99.666-.396.156-.882.234-1.458.234zm.756-1.71c.492 0 .906-.096 1.242-.288.348-.192.612-.45.792-.774.18-.336.27-.708.27-1.116v-.486l-2.07.144c-.564.036-.978.162-1.242.378-.252.216-.378.528-.378.936 0 .348.126.636.378.864.264.228.6.342 1.008.342zm6.02 1.53v-9.216h1.908v1.764h.144c.132-.6.42-1.044.864-1.332.444-.288 1.008-.432 1.692-.432h.936v1.854h-1.17c-.444 0-.84.096-1.188.288a2.084 2.084 0 00-.828.846c-.204.36-.306.816-.306 1.368V107h-2.052zm10.56.18c-.912 0-1.716-.204-2.412-.612a4.53 4.53 0 01-1.62-1.71c-.396-.732-.594-1.554-.594-2.466 0-.924.198-1.746.594-2.466.408-.72.96-1.284 1.656-1.692.708-.42 1.506-.63 2.394-.63.912 0 1.698.186 2.358.558a3.912 3.912 0 011.548 1.512 4 4 0 01.558 2.088c0 .228-.006.414-.018.558-.012.132-.03.282-.054.45h-8.226v-1.422h6.264a2.107 2.107 0 00-.378-1.116 2.2 2.2 0 00-.864-.756c-.36-.18-.756-.27-1.188-.27-.468 0-.9.114-1.296.342a2.572 2.572 0 00-.936.99c-.228.42-.342.93-.342 1.53l-.054.414c0 .624.12 1.158.36 1.602.252.432.576.762.972.99.396.228.828.342 1.296.342.564 0 1.026-.108 1.386-.324.36-.216.636-.51.828-.882h2.034a3.943 3.943 0 01-.882 1.602 4.104 4.104 0 01-1.494 1.026 5.09 5.09 0 01-1.89.342zM.918 127v-12.6h4.644c1.344 0 2.4.33 3.168.99.768.66 1.152 1.608 1.152 2.844 0 1.236-.384 2.184-1.152 2.844-.768.66-1.824.99-3.168.99H3.06V127H.918zm2.142-6.858h2.574c.636 0 1.146-.156 1.53-.468.384-.324.576-.804.576-1.44 0-.636-.192-1.11-.576-1.422-.384-.324-.894-.486-1.53-.486H3.06v3.816zm11.879 7.038c-.936 0-1.752-.204-2.448-.612a4.267 4.267 0 01-1.602-1.692c-.384-.72-.576-1.548-.576-2.484 0-.936.192-1.758.576-2.466a4.267 4.267 0 011.602-1.692c.696-.42 1.512-.63 2.448-.63.924 0 1.728.204 2.412.612a4.229 4.229 0 011.62 1.692c.384.72.576 1.548.576 2.484 0 .936-.192 1.764-.576 2.484a4.229 4.229 0 01-1.62 1.692c-.684.408-1.488.612-2.412.612zm0-1.854c.456 0 .876-.108 1.26-.324.384-.228.69-.564.918-1.008.228-.444.342-.978.342-1.602 0-.636-.114-1.17-.342-1.602-.228-.444-.534-.774-.918-.99a2.423 2.423 0 00-1.26-.342c-.468 0-.894.114-1.278.342-.384.216-.69.546-.918.99-.228.432-.342.966-.342 1.602 0 .624.114 1.158.342 1.602.228.444.534.78.918 1.008.384.216.81.324 1.278.324zM20.92 127v-9.216h2.052V127H20.92zm1.026-10.512c-.348 0-.648-.126-.9-.378a1.229 1.229 0 01-.378-.9c0-.348.126-.642.378-.882.252-.252.552-.378.9-.378s.642.126.882.378c.252.24.378.534.378.882s-.126.648-.378.9a1.17 1.17 0 01-.882.378zm2.7 10.512v-9.216h1.909v1.908h.144c.24-.612.612-1.11 1.116-1.494.504-.396 1.134-.594 1.89-.594 1.08 0 1.896.336 2.448 1.008.564.672.846 1.614.846 2.826V127h-2.052v-5.382c0-.732-.168-1.272-.504-1.62-.324-.36-.78-.54-1.368-.54-.468 0-.882.108-1.242.324-.36.216-.642.522-.846.918-.192.384-.288.846-.288 1.386V127h-2.052zm13.36 0c-.888 0-1.554-.27-1.998-.81-.444-.552-.666-1.32-.666-2.304v-8.55h2.034v8.406c0 .456.102.804.306 1.044.204.24.492.36.864.36h1.332V127h-1.872zm-4.392-7.578v-1.638h6.264v1.638h-6.264zm15.268 7.758c-.936 0-1.752-.204-2.448-.612a4.267 4.267 0 01-1.602-1.692c-.384-.72-.576-1.548-.576-2.484 0-.936.192-1.758.576-2.466a4.267 4.267 0 011.602-1.692c.696-.42 1.512-.63 2.448-.63.924 0 1.728.204 2.412.612a4.229 4.229 0 011.62 1.692c.384.72.576 1.548.576 2.484 0 .936-.192 1.764-.576 2.484a4.229 4.229 0 01-1.62 1.692c-.684.408-1.488.612-2.412.612zm0-1.854c.456 0 .876-.108 1.26-.324.384-.228.69-.564.918-1.008.228-.444.342-.978.342-1.602 0-.636-.114-1.17-.342-1.602-.228-.444-.534-.774-.918-.99a2.423 2.423 0 00-1.26-.342c-.468 0-.894.114-1.278.342-.384.216-.69.546-.918.99-.228.432-.342.966-.342 1.602 0 .624.114 1.158.342 1.602.228.444.534.78.918 1.008.384.216.81.324 1.278.324zM55.806 127v-9.576c0-1.08.282-1.884.846-2.412.575-.528 1.301-.792 2.178-.792h1.944v1.746h-1.71c-.397 0-.703.108-.919.324-.204.204-.306.558-.306 1.062V127h-2.033zm-1.728-7.578v-1.638h6.264v1.638h-6.264zm15.727 7.758c-.984 0-1.818-.168-2.502-.504a3.847 3.847 0 01-1.602-1.422c-.384-.612-.606-1.332-.666-2.16h2.16c.06.612.3 1.128.72 1.548.42.42 1.05.63 1.89.63.744 0 1.332-.168 1.764-.504.432-.336.648-.786.648-1.35 0-.528-.174-.924-.522-1.188-.348-.264-.846-.474-1.494-.63l-1.674-.36a5.314 5.314 0 01-1.638-.648c-.48-.3-.858-.684-1.134-1.152-.276-.48-.414-1.038-.414-1.674 0-.708.186-1.326.558-1.854.384-.528.9-.942 1.548-1.242.66-.3 1.392-.45 2.196-.45.864 0 1.608.144 2.232.432.636.276 1.14.666 1.512 1.17.372.492.582 1.074.63 1.746h-2.088a1.84 1.84 0 00-.756-1.098c-.384-.264-.894-.396-1.53-.396-.66 0-1.2.156-1.62.468-.42.312-.63.702-.63 1.17 0 .468.186.846.558 1.134.384.276.918.492 1.602.648l1.656.36c.612.12 1.146.33 1.602.63.456.288.81.666 1.062 1.134.264.456.396 1.008.396 1.656 0 .816-.192 1.518-.576 2.106-.372.576-.894 1.02-1.566 1.332-.672.312-1.446.468-2.322.468zm8.622 0c-.552 0-1.044-.114-1.476-.342-.42-.24-.75-.564-.99-.972-.24-.408-.36-.888-.36-1.44 0-.576.133-1.068.397-1.476.263-.408.641-.732 1.133-.972.504-.24 1.11-.378 1.819-.414l2.537-.162v-.72c0-.432-.155-.768-.468-1.008-.3-.252-.726-.378-1.278-.378-.504 0-.9.12-1.188.36a1.582 1.582 0 00-.54.9h-2.052c.109-.936.505-1.662 1.189-2.178.683-.516 1.547-.774 2.591-.774 1.177 0 2.1.252 2.772.756.684.492 1.026 1.224 1.026 2.196V127h-1.907v-1.71h-.145a3.115 3.115 0 01-.611.99c-.252.288-.583.51-.99.666-.396.156-.882.234-1.459.234zm.756-1.71c.492 0 .906-.096 1.242-.288.349-.192.612-.45.793-.774.18-.336.27-.708.27-1.116v-.486l-2.07.144c-.565.036-.979.162-1.243.378-.251.216-.377.528-.377.936 0 .348.126.636.377.864.264.228.6.342 1.008.342zm6.02 1.53v-12.78h2.052V127h-2.052zm8.047.18c-.912 0-1.716-.204-2.412-.612a4.53 4.53 0 01-1.62-1.71c-.396-.732-.594-1.554-.594-2.466 0-.924.198-1.746.594-2.466.408-.72.96-1.284 1.656-1.692.708-.42 1.506-.63 2.394-.63.912 0 1.698.186 2.358.558a3.912 3.912 0 011.548 1.512 4 4 0 01.558 2.088c0 .228-.006.414-.018.558-.012.132-.03.282-.054.45h-8.226v-1.422h6.264a2.107 2.107 0 00-.378-1.116 2.2 2.2 0 00-.864-.756c-.36-.18-.756-.27-1.188-.27-.468 0-.9.114-1.296.342a2.572 2.572 0 00-.936.99c-.228.42-.342.93-.342 1.53l-.054.414c0 .624.12 1.158.36 1.602.252.432.576.762.972.99.396.228.828.342 1.296.342.564 0 1.026-.108 1.386-.324.36-.216.636-.51.828-.882h2.034a3.943 3.943 0 01-.882 1.602 4.104 4.104 0 01-1.494 1.026 5.09 5.09 0 01-1.89.342zM4.572 147c-.888 0-1.554-.27-1.998-.81-.444-.552-.666-1.32-.666-2.304v-8.55h2.034v8.406c0 .456.102.804.306 1.044.204.24.492.36.864.36h1.332V147H4.572zM.18 139.422v-1.638h6.264v1.638H.18zm11.454 7.758c-.936 0-1.752-.204-2.448-.612a4.267 4.267 0 01-1.602-1.692c-.384-.72-.576-1.548-.576-2.484 0-.936.192-1.758.576-2.466a4.267 4.267 0 011.602-1.692c.696-.42 1.512-.63 2.448-.63.924 0 1.728.204 2.412.612a4.229 4.229 0 011.62 1.692c.384.72.576 1.548.576 2.484 0 .936-.192 1.764-.576 2.484a4.229 4.229 0 01-1.62 1.692c-.684.408-1.488.612-2.412.612zm0-1.854c.456 0 .876-.108 1.26-.324.384-.228.69-.564.918-1.008.228-.444.342-.978.342-1.602 0-.636-.114-1.17-.342-1.602-.228-.444-.534-.774-.918-.99a2.423 2.423 0 00-1.26-.342c-.468 0-.894.114-1.278.342-.384.216-.69.546-.918.99-.228.432-.342.966-.342 1.602 0 .624.114 1.158.342 1.602.228.444.534.78.918 1.008.384.216.81.324 1.278.324zm9.831 1.854a3.905 3.905 0 01-2.088-.576c-.612-.396-1.098-.954-1.458-1.674-.36-.72-.54-1.566-.54-2.538 0-.972.174-1.818.522-2.538.36-.72.846-1.272 1.458-1.656a3.728 3.728 0 012.07-.594c.708 0 1.314.144 1.818.432.504.288.9.696 1.188 1.224h.144l-.144-1.386v-3.654h2.052V147H24.58v-1.566h-.144c-.3.516-.69.936-1.17 1.26-.48.324-1.08.486-1.8.486zm.522-1.854c.468 0 .888-.114 1.26-.342.384-.24.69-.576.918-1.008.228-.444.342-.972.342-1.584 0-.624-.114-1.152-.342-1.584a2.447 2.447 0 00-.918-.99 2.274 2.274 0 00-1.26-.36c-.468 0-.894.12-1.278.36a2.491 2.491 0 00-.9.99c-.228.432-.342.96-.342 1.584 0 .612.114 1.14.342 1.584.228.432.528.768.9 1.008.384.228.81.342 1.278.342zm8.839 1.854c-.552 0-1.044-.114-1.476-.342-.42-.24-.75-.564-.99-.972-.24-.408-.36-.888-.36-1.44 0-.576.132-1.068.396-1.476.264-.408.642-.732 1.134-.972.504-.24 1.11-.378 1.818-.414l2.538-.162v-.72c0-.432-.156-.768-.468-1.008-.3-.252-.726-.378-1.278-.378-.504 0-.9.12-1.188.36a1.582 1.582 0 00-.54.9H28.36c.108-.936.504-1.662 1.188-2.178.684-.516 1.548-.774 2.592-.774 1.176 0 2.1.252 2.772.756.684.492 1.026 1.224 1.026 2.196V147H34.03v-1.71h-.144a3.115 3.115 0 01-.612.99c-.252.288-.582.51-.99.666-.396.156-.882.234-1.458.234zm.756-1.71c.492 0 .906-.096 1.242-.288.348-.192.612-.45.792-.774.18-.336.27-.708.27-1.116v-.486l-2.07.144c-.564.036-.978.162-1.242.378-.252.216-.378.528-.378.936 0 .348.126.636.378.864.264.228.6.342 1.008.342zm7.13 4.914h-1.656v-1.818h1.548c.408 0 .732-.072.972-.216.24-.144.432-.39.576-.738l.18-.468-3.888-9.36h2.286l1.998 5.202.468 1.512h.144l.45-1.512 1.89-5.202h2.196l-3.906 10.152c-.228.6-.492 1.08-.792 1.44-.3.36-.648.618-1.044.774-.396.156-.87.234-1.422.234zm7.319-3.258a1.28 1.28 0 01-.936-.396 1.3 1.3 0 01-.396-.954c0-.36.132-.672.396-.936a1.28 1.28 0 01.936-.396c.36 0 .666.132.918.396.264.264.396.576.396.936a1.3 1.3 0 01-.396.954 1.222 1.222 0 01-.918.396z" fill="#fff"/></svg>