<svg width="102" height="33" viewBox="0 0 102 33" fill="none" xmlns="http://www.w3.org/2000/svg"><rect width="102" height="33" rx="3.659" fill="#006AFF"/><path d="M17.107 21v-9.1h1.56v7.761h4.498V21h-6.058zm10.208.13c-.633 0-1.188-.152-1.664-.455a3.121 3.121 0 01-1.118-1.248c-.26-.529-.39-1.127-.39-1.794 0-.693.13-1.313.39-1.859a3.177 3.177 0 011.118-1.287c.476-.32 1.03-.481 1.664-.481.702 0 1.287.152 1.755.455.468.303.819.702 1.053 1.196.234.485.35 1.027.35 1.625v.624h-5.81v-1.027h4.888l-.533.221c0-.598-.152-1.07-.455-1.417-.304-.355-.72-.533-1.248-.533-.347 0-.65.091-.91.273-.26.173-.46.429-.598.767-.14.338-.208.754-.208 1.248l-.013.286c0 .468.078.867.234 1.196.156.33.368.58.637.754.268.173.563.26.884.26.38 0 .693-.078.936-.234.242-.156.429-.377.559-.663h1.495c-.2.659-.56 1.174-1.08 1.547-.52.364-1.165.546-1.936.546zm6.349 0c-.642 0-1.162-.186-1.56-.559-.39-.373-.585-.854-.585-1.443 0-.641.22-1.135.663-1.482.442-.355 1.044-.563 1.807-.624l1.69-.117v-.676a.984.984 0 00-.156-.559.917.917 0 00-.43-.377 1.532 1.532 0 00-.662-.13c-.338 0-.62.078-.845.234-.225.147-.373.368-.442.663h-1.47a2.31 2.31 0 01.469-1.092c.251-.303.572-.537.962-.702.399-.173.84-.26 1.326-.26.59 0 1.088.082 1.495.247.407.165.72.403.936.715.216.312.325.702.325 1.17V21h-1.404v-1.118h-.104c-.165.39-.42.698-.767.923-.338.217-.754.325-1.248.325zm.455-1.157c.303 0 .572-.07.806-.208.234-.147.416-.355.546-.624.139-.269.208-.576.208-.923v-.312l-1.417.117c-.407.026-.71.13-.91.312-.2.173-.3.407-.3.702 0 .277.092.503.274.676.19.173.455.26.793.26zM38.992 21v-6.864h1.405v1.248h.104c.095-.425.307-.737.637-.936.337-.208.745-.312 1.221-.312h.703v1.261h-.845c-.503 0-.915.169-1.236.507-.32.338-.48.81-.48 1.417V21h-1.508zm5.333 0v-6.864h1.404v1.17h.104c.164-.373.416-.68.754-.923.346-.251.78-.377 1.3-.377.806 0 1.4.238 1.78.715.39.468.586 1.135.586 2.002V21h-1.508v-4.173c0-.572-.117-.97-.351-1.196-.234-.234-.555-.351-.962-.351-.53 0-.928.178-1.196.533-.27.347-.403.78-.403 1.3V21h-1.508zm11.311 0v-6.864h1.404v1.04h.104c.147-.33.36-.607.637-.832.286-.225.663-.338 1.131-.338.468 0 .85.1 1.144.299.303.2.524.49.663.871h.091a1.95 1.95 0 01.676-.832c.312-.225.72-.338 1.222-.338.685 0 1.192.2 1.521.598.338.39.507.945.507 1.664V21h-1.508v-4.537c0-.39-.087-.685-.26-.884-.173-.2-.433-.299-.78-.299-.407 0-.72.139-.936.416-.208.277-.312.628-.312 1.053V21h-1.508v-4.537c0-.39-.087-.685-.26-.884-.173-.2-.433-.299-.78-.299-.407 0-.72.139-.936.416-.208.277-.312.628-.312 1.053V21h-1.508zm13.753.13c-.685 0-1.27-.152-1.755-.455a3.07 3.07 0 01-1.118-1.274c-.252-.537-.377-1.148-.377-1.833 0-.52.069-.997.208-1.43.147-.433.364-.806.65-1.118.286-.32.628-.568 1.027-.741a3.253 3.253 0 011.365-.273c.684 0 1.265.156 1.742.468a2.9 2.9 0 011.105 1.261c.26.529.39 1.14.39 1.833 0 .52-.074.997-.221 1.43a3.012 3.012 0 01-1.651 1.872c-.399.173-.854.26-1.365.26zm0-1.235c.346 0 .65-.087.91-.26.26-.182.463-.442.61-.78.157-.347.235-.776.235-1.287 0-.763-.165-1.339-.494-1.729a1.54 1.54 0 00-1.261-.598c-.347 0-.655.091-.923.273-.26.173-.464.433-.611.78-.148.338-.221.763-.221 1.274 0 .763.16 1.343.48 1.742.33.39.755.585 1.275.585zM74.069 21v-6.864h1.405v1.248h.104c.095-.425.307-.737.637-.936.338-.208.745-.312 1.222-.312h.702v1.261h-.845c-.503 0-.915.169-1.235.507-.321.338-.481.81-.481 1.417V21H74.07zm8.115.13c-.633 0-1.188-.152-1.664-.455a3.122 3.122 0 01-1.118-1.248c-.26-.529-.39-1.127-.39-1.794 0-.693.13-1.313.39-1.859a3.177 3.177 0 011.118-1.287c.476-.32 1.031-.481 1.664-.481.702 0 1.287.152 1.755.455.468.303.819.702 1.053 1.196.234.485.35 1.027.35 1.625v.624h-5.81v-1.027h4.888l-.533.221c0-.598-.152-1.07-.455-1.417-.304-.355-.72-.533-1.248-.533-.347 0-.65.091-.91.273-.26.173-.46.429-.598.767-.139.338-.208.754-.208 1.248l-.013.286c0 .468.078.867.234 1.196.156.33.368.58.637.754.268.173.563.26.884.26.381 0 .693-.078.936-.234.242-.156.429-.377.559-.663H85.2c-.2.659-.56 1.174-1.08 1.547-.52.364-1.165.546-1.936.546z" fill="#fff"/></svg>