<svg width="269" height="154" viewBox="0 0 269 154" fill="none" xmlns="http://www.w3.org/2000/svg"><path d="M6.9 27V8.1h3.6V27H6.9zM.63 9.21V6h16.11v3.21H.63zM20.058 27.3c-.92 0-1.74-.19-2.46-.57-.7-.4-1.25-.94-1.65-1.62-.4-.68-.6-1.48-.6-2.4 0-.96.22-1.78.66-2.46.44-.68 1.07-1.22 1.89-1.62.84-.4 1.85-.63 3.03-.69l4.23-.27v-1.2c0-.72-.26-1.28-.78-1.68-.5-.42-1.21-.63-2.13-.63-.84 0-1.5.2-1.98.6-.46.38-.76.88-.9 1.5h-3.42c.18-1.56.84-2.77 1.98-3.63 1.14-.86 2.58-1.29 4.32-1.29 1.96 0 3.5.42 4.62 1.26 1.14.82 1.71 2.04 1.71 3.66V27h-3.18v-2.85h-.24c-.24.62-.58 1.17-1.02 1.65-.42.48-.97.85-1.65 1.11-.66.26-1.47.39-2.43.39zm1.26-2.85c.82 0 1.51-.16 2.07-.48.58-.32 1.02-.75 1.32-1.29.3-.56.45-1.18.45-1.86v-.81l-3.45.24c-.94.06-1.63.27-2.07.63-.42.36-.63.88-.63 1.56 0 .58.21 1.06.63 1.44.44.38 1 .57 1.68.57zM40.321 27l-5.91-7.95 5.76-7.41h3.99l-5.85 7.41 6 7.95h-3.99zm-5.73-7.2v-1.5h.84v1.5h-.84zm-3.24 7.2V5.7h3.42V27h-3.42zm20.588.3c-1.52 0-2.86-.34-4.02-1.02a7.55 7.55 0 01-2.7-2.85c-.66-1.22-.99-2.59-.99-4.11 0-1.54.33-2.91.99-4.11.68-1.2 1.6-2.14 2.76-2.82 1.18-.7 2.51-1.05 3.99-1.05 1.52 0 2.83.31 3.93.93 1.12.62 1.98 1.46 2.58 2.52.62 1.04.93 2.2.93 3.48 0 .38-.01.69-.03.93-.02.22-.05.47-.09.75H45.58v-2.37h10.44c-.04-.7-.25-1.32-.63-1.86-.36-.54-.84-.96-1.44-1.26-.6-.3-1.26-.45-1.98-.45-.78 0-1.5.19-2.16.57-.64.38-1.16.93-1.56 1.65-.38.7-.57 1.55-.57 2.55l-.09.69c0 1.04.2 1.93.6 2.67.42.72.96 1.27 1.62 1.65.66.38 1.38.57 2.16.57.94 0 1.71-.18 2.31-.54.6-.36 1.06-.85 1.38-1.47h3.39c-.3 1.04-.79 1.93-1.47 2.67a6.84 6.84 0 01-2.49 1.71c-.96.38-2.01.57-3.15.57zm22.852 0c-1.56 0-2.92-.34-4.08-1.02a7.111 7.111 0 01-2.67-2.82c-.64-1.2-.96-2.58-.96-4.14 0-1.56.32-2.93.96-4.11.64-1.2 1.53-2.14 2.67-2.82 1.16-.7 2.52-1.05 4.08-1.05 1.54 0 2.88.34 4.02 1.02 1.16.68 2.06 1.62 2.7 2.82.64 1.2.96 2.58.96 4.14 0 1.56-.32 2.94-.96 4.14a7.048 7.048 0 01-2.7 2.82c-1.14.68-2.48 1.02-4.02 1.02zm0-3.09c.76 0 1.46-.18 2.1-.54.64-.38 1.15-.94 1.53-1.68.38-.74.57-1.63.57-2.67 0-1.06-.19-1.95-.57-2.67-.38-.74-.89-1.29-1.53-1.65-.64-.38-1.34-.57-2.1-.57-.78 0-1.49.19-2.13.57-.64.36-1.15.91-1.53 1.65-.38.72-.57 1.61-.57 2.67 0 1.04.19 1.93.57 2.67.38.74.89 1.3 1.53 1.68.64.36 1.35.54 2.13.54zM84.76 27V11.64h3.18v2.94h.24c.22-1 .7-1.74 1.44-2.22.74-.48 1.68-.72 2.82-.72H94v3.09h-1.95c-.74 0-1.4.16-1.98.48-.58.32-1.04.79-1.38 1.41-.34.6-.51 1.36-.51 2.28V27h-3.42zm16.699.3c-1.28 0-2.44-.32-3.48-.96-1.02-.66-1.83-1.59-2.43-2.79-.6-1.2-.9-2.61-.9-4.23 0-1.62.29-3.03.87-4.23.6-1.2 1.41-2.12 2.43-2.76 1.02-.66 2.17-.99 3.45-.99 1.18 0 2.19.24 3.03.72.84.48 1.5 1.16 1.98 2.04h.24l-.24-2.31V5.7h3.42V27h-3.18v-2.61h-.24c-.5.86-1.15 1.56-1.95 2.1s-1.8.81-3 .81zm.87-3.09c.78 0 1.48-.19 2.1-.57.64-.4 1.15-.96 1.53-1.68.38-.74.57-1.62.57-2.64 0-1.04-.19-1.92-.57-2.64-.38-.72-.89-1.27-1.53-1.65-.62-.4-1.32-.6-2.1-.6s-1.49.2-2.13.6c-.62.38-1.12.93-1.5 1.65-.38.72-.57 1.6-.57 2.64 0 1.02.19 1.9.57 2.64.38.72.88 1.28 1.5 1.68.64.38 1.35.57 2.13.57zm17.491 3.09c-1.52 0-2.86-.34-4.02-1.02a7.55 7.55 0 01-2.7-2.85c-.66-1.22-.99-2.59-.99-4.11 0-1.54.33-2.91.99-4.11.68-1.2 1.6-2.14 2.76-2.82 1.18-.7 2.51-1.05 3.99-1.05 1.52 0 2.83.31 3.93.93 1.12.62 1.98 1.46 2.58 2.52.62 1.04.93 2.2.93 3.48 0 .38-.01.69-.03.93-.02.22-.05.47-.09.75h-13.71v-2.37h10.44c-.04-.7-.25-1.32-.63-1.86-.36-.54-.84-.96-1.44-1.26-.6-.3-1.26-.45-1.98-.45-.78 0-1.5.19-2.16.57-.64.38-1.16.93-1.56 1.65-.38.7-.57 1.55-.57 2.55l-.09.69c0 1.04.2 1.93.6 2.67.42.72.96 1.27 1.62 1.65.66.38 1.38.57 2.16.57.94 0 1.71-.18 2.31-.54.6-.36 1.06-.85 1.38-1.47h3.39c-.3 1.04-.79 1.93-1.47 2.67a6.84 6.84 0 01-2.49 1.71c-.96.38-2.01.57-3.15.57zm9.764-.3V11.64h3.18v2.94h.24c.22-1 .7-1.74 1.44-2.22.74-.48 1.68-.72 2.82-.72h1.56v3.09h-1.95c-.74 0-1.4.16-1.98.48-.58.32-1.04.79-1.38 1.41-.34.6-.51 1.36-.51 2.28V27h-3.42zm16.779.33c-1.82 0-3.3-.42-4.44-1.26-1.12-.86-1.79-2.11-2.01-3.75h3.24c.12.64.45 1.17.99 1.59.54.4 1.28.6 2.22.6.8 0 1.48-.17 2.04-.51.58-.36.87-.87.87-1.53 0-.6-.24-1.04-.72-1.32-.48-.3-1.17-.52-2.07-.66l-1.77-.33c-.78-.14-1.52-.38-2.22-.72a4.46 4.46 0 01-1.65-1.38c-.42-.58-.63-1.31-.63-2.19 0-.9.25-1.69.75-2.37.52-.68 1.23-1.21 2.13-1.59.92-.38 1.94-.57 3.06-.57 1.6 0 2.94.39 4.02 1.17 1.1.78 1.75 1.92 1.95 3.42h-3.12c-.16-.6-.5-1.06-1.02-1.38-.52-.34-1.15-.51-1.89-.51-.8 0-1.47.16-2.01.48-.52.32-.78.76-.78 1.32 0 .54.29.97.87 1.29.58.3 1.36.51 2.34.63l1.74.3c.8.12 1.52.34 2.16.66.64.32 1.15.78 1.53 1.38.38.58.57 1.33.57 2.25 0 .98-.27 1.85-.81 2.61-.52.74-1.24 1.32-2.16 1.74-.9.42-1.96.63-3.18.63zm21.621-.03c-1.56 0-2.92-.34-4.08-1.02a7.111 7.111 0 01-2.67-2.82c-.64-1.2-.96-2.58-.96-4.14 0-1.56.32-2.93.96-4.11.64-1.2 1.53-2.14 2.67-2.82 1.16-.7 2.52-1.05 4.08-1.05 1.54 0 2.88.34 4.02 1.02 1.16.68 2.06 1.62 2.7 2.82.64 1.2.96 2.58.96 4.14 0 1.56-.32 2.94-.96 4.14a7.048 7.048 0 01-2.7 2.82c-1.14.68-2.48 1.02-4.02 1.02zm0-3.09c.76 0 1.46-.18 2.1-.54.64-.38 1.15-.94 1.53-1.68.38-.74.57-1.63.57-2.67 0-1.06-.19-1.95-.57-2.67-.38-.74-.89-1.29-1.53-1.65-.64-.38-1.34-.57-2.1-.57-.78 0-1.49.19-2.13.57-.64.36-1.15.91-1.53 1.65-.38.72-.57 1.61-.57 2.67 0 1.04.19 1.93.57 2.67.38.74.89 1.3 1.53 1.68.64.36 1.35.54 2.13.54zm9.969 2.79V11.64h3.18v3.18h.24a5.66 5.66 0 011.86-2.49c.84-.66 1.89-.99 3.15-.99 1.8 0 3.16.56 4.08 1.68.94 1.12 1.41 2.69 1.41 4.71V27h-3.42v-8.97c0-1.22-.28-2.12-.84-2.7-.54-.6-1.3-.9-2.28-.9-.78 0-1.47.18-2.07.54-.6.36-1.07.87-1.41 1.53-.32.64-.48 1.41-.48 2.31V27h-3.42zM7.62 60c-1.48 0-2.59-.45-3.33-1.35-.74-.92-1.11-2.2-1.11-3.84V40.56h3.39v14.01c0 .76.17 1.34.51 1.74.34.4.82.6 1.44.6h2.22V60H7.62zM.3 47.37v-2.73h10.44v2.73H.3zM12.66 60V38.7h3.42v5.94l-.24 3.18h.24c.38-1.1 1.03-1.95 1.95-2.55.94-.62 2.05-.93 3.33-.93 1.78 0 3.14.56 4.08 1.68.94 1.1 1.41 2.7 1.41 4.8V60h-3.39v-8.91c0-1.26-.29-2.18-.87-2.76-.58-.6-1.39-.9-2.43-.9-.82 0-1.54.19-2.16.57-.6.38-1.07.91-1.41 1.59-.34.66-.51 1.44-.51 2.34V60h-3.42zm24.192.3c-1.52 0-2.86-.34-4.02-1.02a7.55 7.55 0 01-2.7-2.85c-.66-1.22-.99-2.59-.99-4.11 0-1.54.33-2.91.99-4.11.68-1.2 1.6-2.14 2.76-2.82 1.18-.7 2.51-1.05 3.99-1.05 1.52 0 2.83.31 3.93.93 1.12.62 1.98 1.46 2.58 2.52.62 1.04.93 2.2.93 3.48 0 .38-.01.69-.03.93-.02.22-.05.47-.09.75h-13.71v-2.37h10.44c-.04-.7-.25-1.32-.63-1.86-.36-.54-.84-.96-1.44-1.26-.6-.3-1.26-.45-1.98-.45-.78 0-1.5.19-2.16.57-.64.38-1.16.93-1.56 1.65-.38.7-.57 1.55-.57 2.55l-.09.69c0 1.04.2 1.93.6 2.67.42.72.96 1.27 1.62 1.65.66.38 1.38.57 2.16.57.94 0 1.71-.18 2.31-.54.6-.36 1.06-.85 1.38-1.47h3.39c-.3 1.04-.79 1.93-1.47 2.67a6.84 6.84 0 01-2.49 1.71c-.96.38-2.01.57-3.15.57zm22.761 5.64c-2.12 0-3.79-.45-5.01-1.35-1.22-.88-1.99-2.04-2.31-3.48h3.63c.2.56.6 1.03 1.2 1.41.6.4 1.43.6 2.49.6 1.26 0 2.22-.37 2.88-1.11.68-.72 1.02-1.68 1.02-2.88l.15-1.89h-.24c-.38.76-.98 1.38-1.8 1.86-.8.48-1.8.72-3 .72-1.22 0-2.33-.31-3.33-.93-1-.62-1.8-1.5-2.4-2.64-.6-1.16-.9-2.55-.9-4.17 0-1.6.3-2.98.9-4.14.6-1.16 1.4-2.05 2.4-2.67 1-.62 2.11-.93 3.33-.93 1.18 0 2.18.24 3 .72a4.87 4.87 0 011.89 1.98h.24v-2.4h3.18V58.8c0 1.54-.31 2.84-.93 3.9a5.802 5.802 0 01-2.55 2.4c-1.08.56-2.36.84-3.84.84zm-.09-9.21c.76 0 1.45-.17 2.07-.51.62-.36 1.11-.88 1.47-1.56.38-.7.57-1.56.57-2.58s-.19-1.87-.57-2.55c-.36-.7-.85-1.22-1.47-1.56-.62-.36-1.31-.54-2.07-.54-.74 0-1.42.18-2.04.54-.6.34-1.09.86-1.47 1.56-.36.68-.54 1.53-.54 2.55 0 1.02.18 1.88.54 2.58.38.68.87 1.2 1.47 1.56.62.34 1.3.51 2.04.51zM76.93 60.3c-1.56 0-2.92-.34-4.08-1.02a7.111 7.111 0 01-2.67-2.82c-.64-1.2-.96-2.58-.96-4.14 0-1.56.32-2.93.96-4.11.64-1.2 1.53-2.14 2.67-2.82 1.16-.7 2.52-1.05 4.08-1.05 1.54 0 2.88.34 4.02 1.02 1.16.68 2.06 1.62 2.7 2.82.64 1.2.96 2.58.96 4.14 0 1.56-.32 2.94-.96 4.14a7.048 7.048 0 01-2.7 2.82c-1.14.68-2.48 1.02-4.02 1.02zm0-3.09c.76 0 1.46-.18 2.1-.54.64-.38 1.15-.94 1.53-1.68.38-.74.57-1.63.57-2.67 0-1.06-.19-1.95-.57-2.67-.38-.74-.89-1.29-1.53-1.65-.64-.38-1.34-.57-2.1-.57-.78 0-1.49.19-2.13.57-.64.36-1.15.91-1.53 1.65-.38.72-.57 1.61-.57 2.67 0 1.04.19 1.93.57 2.67.38.74.89 1.3 1.53 1.68.64.36 1.35.54 2.13.54zm20.296 3.09c-.92 0-1.74-.19-2.46-.57-.7-.4-1.25-.94-1.65-1.62-.4-.68-.6-1.48-.6-2.4 0-.96.22-1.78.66-2.46.44-.68 1.07-1.22 1.89-1.62.84-.4 1.85-.63 3.03-.69l4.23-.27v-1.2c0-.72-.26-1.28-.78-1.68-.5-.42-1.21-.63-2.13-.63-.84 0-1.5.2-1.98.6-.46.38-.76.88-.9 1.5h-3.42c.18-1.56.84-2.77 1.98-3.63 1.14-.86 2.58-1.29 4.32-1.29 1.96 0 3.5.42 4.62 1.26 1.14.82 1.71 2.04 1.71 3.66V60h-3.18v-2.85h-.24c-.24.62-.58 1.17-1.02 1.65-.42.48-.97.85-1.65 1.11-.66.26-1.47.39-2.43.39zm1.26-2.85c.82 0 1.51-.16 2.07-.48.58-.32 1.02-.75 1.32-1.29.3-.56.45-1.18.45-1.86v-.81l-3.45.24c-.94.06-1.63.27-2.07.63-.42.36-.63.88-.63 1.56 0 .58.21 1.06.63 1.44.44.38 1 .57 1.68.57zM108.52 60V44.64h3.18v3.18h.24a5.66 5.66 0 011.86-2.49c.84-.66 1.89-.99 3.15-.99 1.8 0 3.16.56 4.08 1.68.94 1.12 1.41 2.69 1.41 4.71V60h-3.42v-8.97c0-1.22-.28-2.12-.84-2.7-.54-.6-1.3-.9-2.28-.9-.78 0-1.47.18-2.07.54-.6.36-1.07.87-1.41 1.53-.32.64-.48 1.41-.48 2.31V60h-3.42zm22.999.3c-1.28 0-2.44-.32-3.48-.96-1.02-.66-1.83-1.59-2.43-2.79-.6-1.2-.9-2.61-.9-4.23 0-1.62.29-3.03.87-4.23.6-1.2 1.41-2.12 2.43-2.76 1.02-.66 2.17-.99 3.45-.99 1.18 0 2.19.24 3.03.72.84.48 1.5 1.16 1.98 2.04h.24l-.24-2.31V38.7h3.42V60h-3.18v-2.61h-.24c-.5.86-1.15 1.56-1.95 2.1s-1.8.81-3 .81zm.87-3.09c.78 0 1.48-.19 2.1-.57.64-.4 1.15-.96 1.53-1.68.38-.74.57-1.62.57-2.64 0-1.04-.19-1.92-.57-2.64-.38-.72-.89-1.27-1.53-1.65-.62-.4-1.32-.6-2.1-.6s-1.49.2-2.13.6c-.62.38-1.12.93-1.5 1.65-.38.72-.57 1.6-.57 2.64 0 1.02.19 1.9.57 2.64.38.72.88 1.28 1.5 1.68.64.38 1.35.57 2.13.57zM154.837 60c-1.48 0-2.59-.45-3.33-1.35-.74-.92-1.11-2.2-1.11-3.84V40.56h3.39v14.01c0 .76.17 1.34.51 1.74.34.4.82.6 1.44.6h2.22V60h-3.12zm-7.32-12.63v-2.73h10.44v2.73h-10.44zm17.91 12.93c-1.82 0-3.2-.56-4.14-1.68-.94-1.12-1.41-2.69-1.41-4.71v-9.27h3.42v8.97c0 1.22.27 2.13.81 2.73.56.58 1.33.87 2.31.87.8 0 1.5-.18 2.1-.54.6-.36 1.06-.87 1.38-1.53.32-.66.48-1.43.48-2.31v-8.19h3.42V60h-3.18v-3.18h-.24a5.741 5.741 0 01-1.8 2.52c-.82.64-1.87.96-3.15.96zm11.178-.3V44.64h3.18v2.94h.24c.22-1 .7-1.74 1.44-2.22.74-.48 1.68-.72 2.82-.72h1.56v3.09h-1.95c-.74 0-1.4.16-1.98.48-.58.32-1.04.79-1.38 1.41-.34.6-.51 1.36-.51 2.28V60h-3.42zm11.309 0V44.64h3.18v3.18h.24a5.66 5.66 0 011.86-2.49c.84-.66 1.89-.99 3.15-.99 1.8 0 3.16.56 4.08 1.68.94 1.12 1.41 2.69 1.41 4.71V60h-3.42v-8.97c0-1.22-.28-2.12-.84-2.7-.54-.6-1.3-.9-2.28-.9-.78 0-1.47.18-2.07.54-.6.36-1.07.87-1.41 1.53-.32.64-.48 1.41-.48 2.31V60h-3.42zM7.62 93c-1.48 0-2.59-.45-3.33-1.35-.74-.92-1.11-2.2-1.11-3.84V73.56h3.39v14.01c0 .76.17 1.34.51 1.74.34.4.82.6 1.44.6h2.22V93H7.62zM.3 80.37v-2.73h10.44v2.73H.3zM17.07 93.3c-.92 0-1.74-.19-2.46-.57-.7-.4-1.25-.94-1.65-1.62-.4-.68-.6-1.48-.6-2.4 0-.96.22-1.78.66-2.46.44-.68 1.07-1.22 1.89-1.62.84-.4 1.85-.63 3.03-.69l4.23-.27v-1.2c0-.72-.26-1.28-.78-1.68-.5-.42-1.21-.63-2.13-.63-.84 0-1.5.2-1.98.6-.46.38-.76.88-.9 1.5h-3.42c.18-1.56.84-2.77 1.98-3.63 1.14-.86 2.58-1.29 4.32-1.29 1.96 0 3.5.42 4.62 1.26 1.14.82 1.71 2.04 1.71 3.66V93h-3.18v-2.85h-.24c-.24.62-.58 1.17-1.02 1.65-.42.48-.97.85-1.65 1.11-.66.26-1.47.39-2.43.39zm1.26-2.85c.82 0 1.51-.16 2.07-.48.58-.32 1.02-.75 1.32-1.29.3-.56.45-1.18.45-1.86v-.81l-3.45.24c-.94.06-1.63.27-2.07.63-.42.36-.63.88-.63 1.56 0 .58.21 1.06.63 1.44.44.38 1 .57 1.68.57zm18.403 2.85c-1.22 0-2.23-.27-3.03-.81a6.465 6.465 0 01-1.92-2.1h-.24V93h-3.18V71.7h3.42v6.09l-.24 2.4h.24c.48-.94 1.14-1.65 1.98-2.13.84-.48 1.85-.72 3.03-.72 1.28 0 2.43.33 3.45.99 1.02.64 1.82 1.56 2.4 2.76.6 1.2.9 2.61.9 4.23 0 1.62-.3 3.03-.9 4.23-.58 1.2-1.39 2.13-2.43 2.79-1.02.64-2.18.96-3.48.96zm-.87-3.09c.78 0 1.48-.19 2.1-.57.64-.38 1.15-.94 1.53-1.68.38-.74.57-1.62.57-2.64 0-1.04-.19-1.92-.57-2.64-.38-.72-.89-1.27-1.53-1.65-.62-.4-1.32-.6-2.1-.6s-1.49.2-2.13.6c-.62.38-1.12.93-1.5 1.65-.38.72-.57 1.6-.57 2.64 0 1.02.19 1.9.57 2.64.38.74.88 1.3 1.5 1.68.64.38 1.35.57 2.13.57zM45.824 93V71.7h3.42V93h-3.42zm13.41.3c-1.52 0-2.86-.34-4.02-1.02a7.55 7.55 0 01-2.7-2.85c-.66-1.22-.99-2.59-.99-4.11 0-1.54.33-2.91.99-4.11.68-1.2 1.6-2.14 2.76-2.82 1.18-.7 2.51-1.05 3.99-1.05 1.52 0 2.83.31 3.93.93 1.12.62 1.98 1.46 2.58 2.52.62 1.04.93 2.2.93 3.48 0 .38-.01.69-.03.93-.02.22-.05.47-.09.75h-13.71v-2.37h10.44c-.04-.7-.25-1.32-.63-1.86-.36-.54-.84-.96-1.44-1.26-.6-.3-1.26-.45-1.98-.45-.78 0-1.5.19-2.16.57-.64.38-1.16.93-1.56 1.65-.38.7-.57 1.55-.57 2.55l-.09.69c0 1.04.2 1.93.6 2.67.42.72.96 1.27 1.62 1.65.66.38 1.38.57 2.16.57.94 0 1.71-.18 2.31-.54.6-.36 1.06-.85 1.38-1.47h3.39c-.3 1.04-.79 1.93-1.47 2.67a6.84 6.84 0 01-2.49 1.71c-.96.38-2.01.57-3.15.57zm15.674.03c-1.82 0-3.3-.42-4.44-1.26-1.12-.86-1.79-2.11-2.01-3.75h3.24c.12.64.45 1.17.99 1.59.54.4 1.28.6 2.22.6.8 0 1.48-.17 2.04-.51.58-.36.87-.87.87-1.53 0-.6-.24-1.04-.72-1.32-.48-.3-1.17-.52-2.07-.66l-1.77-.33c-.78-.14-1.52-.38-2.22-.72a4.46 4.46 0 01-1.65-1.38c-.42-.58-.63-1.31-.63-2.19 0-.9.25-1.69.75-2.37.52-.68 1.23-1.21 2.13-1.59.92-.38 1.94-.57 3.06-.57 1.6 0 2.94.39 4.02 1.17 1.1.78 1.75 1.92 1.95 3.42h-3.12c-.16-.6-.5-1.06-1.02-1.38-.52-.34-1.15-.51-1.89-.51-.8 0-1.47.16-2.01.48-.52.32-.78.76-.78 1.32 0 .54.29.97.87 1.29.58.3 1.36.51 2.34.63l1.74.3c.8.12 1.52.34 2.16.66.64.32 1.15.78 1.53 1.38.38.58.57 1.33.57 2.25 0 .98-.27 1.85-.81 2.61-.52.74-1.24 1.32-2.16 1.74-.9.42-1.96.63-3.18.63zM91.339 93V77.04c0-1.8.47-3.14 1.41-4.02.96-.88 2.17-1.32 3.63-1.32h3.24v2.91h-2.85c-.66 0-1.17.18-1.53.54-.34.34-.51.93-.51 1.77V93h-3.39zm-2.88-12.63v-2.73H98.9v2.73H88.46zm16.326 12.93c-.92 0-1.74-.19-2.46-.57-.7-.4-1.25-.94-1.65-1.62-.4-.68-.6-1.48-.6-2.4 0-.96.22-1.78.66-2.46.44-.68 1.07-1.22 1.89-1.62.84-.4 1.85-.63 3.03-.69l4.23-.27v-1.2c0-.72-.26-1.28-.78-1.68-.5-.42-1.21-.63-2.13-.63-.84 0-1.5.2-1.98.6-.46.38-.76.88-.9 1.5h-3.42c.18-1.56.84-2.77 1.98-3.63 1.14-.86 2.58-1.29 4.32-1.29 1.96 0 3.5.42 4.62 1.26 1.14.82 1.71 2.04 1.71 3.66V93h-3.18v-2.85h-.24c-.24.62-.58 1.17-1.02 1.65-.42.48-.97.85-1.65 1.11-.66.26-1.47.39-2.43.39zm1.26-2.85c.82 0 1.51-.16 2.07-.48.58-.32 1.02-.75 1.32-1.29.3-.56.45-1.18.45-1.86v-.81l-3.45.24c-.94.06-1.63.27-2.07.63-.42.36-.63.88-.63 1.56 0 .58.21 1.06.63 1.44.44.38 1 .57 1.68.57zm15.855 2.88c-1.82 0-3.3-.42-4.44-1.26-1.12-.86-1.79-2.11-2.01-3.75h3.24c.12.64.45 1.17.99 1.59.54.4 1.28.6 2.22.6.8 0 1.48-.17 2.04-.51.58-.36.87-.87.87-1.53 0-.6-.24-1.04-.72-1.32-.48-.3-1.17-.52-2.07-.66l-1.77-.33c-.78-.14-1.52-.38-2.22-.72a4.46 4.46 0 01-1.65-1.38c-.42-.58-.63-1.31-.63-2.19 0-.9.25-1.69.75-2.37.52-.68 1.23-1.21 2.13-1.59.92-.38 1.94-.57 3.06-.57 1.6 0 2.94.39 4.02 1.17 1.1.78 1.75 1.92 1.95 3.42h-3.12c-.16-.6-.5-1.06-1.02-1.38-.52-.34-1.15-.51-1.89-.51-.8 0-1.47.16-2.01.48-.52.32-.78.76-.78 1.32 0 .54.29.97.87 1.29.58.3 1.36.51 2.34.63l1.74.3c.8.12 1.52.34 2.16.66.64.32 1.15.78 1.53 1.38.38.58.57 1.33.57 2.25 0 .98-.27 1.85-.81 2.61-.52.74-1.24 1.32-2.16 1.74-.9.42-1.96.63-3.18.63zm14.216-.33c-1.48 0-2.59-.45-3.33-1.35-.74-.92-1.11-2.2-1.11-3.84V73.56h3.39v14.01c0 .76.17 1.34.51 1.74.34.4.82.6 1.44.6h2.22V93h-3.12zm-7.32-12.63v-2.73h10.44v2.73h-10.44zm19.091 12.93c-1.52 0-2.86-.34-4.02-1.02a7.55 7.55 0 01-2.7-2.85c-.66-1.22-.99-2.59-.99-4.11 0-1.54.33-2.91.99-4.11.68-1.2 1.6-2.14 2.76-2.82 1.18-.7 2.51-1.05 3.99-1.05 1.52 0 2.83.31 3.93.93 1.12.62 1.98 1.46 2.58 2.52.62 1.04.93 2.2.93 3.48 0 .38-.01.69-.03.93-.02.22-.05.47-.09.75h-13.71v-2.37h10.44c-.04-.7-.25-1.32-.63-1.86-.36-.54-.84-.96-1.44-1.26-.6-.3-1.26-.45-1.98-.45-.78 0-1.5.19-2.16.57-.64.38-1.16.93-1.56 1.65-.38.7-.57 1.55-.57 2.55l-.09.69c0 1.04.2 1.93.6 2.67.42.72.96 1.27 1.62 1.65.66.38 1.38.57 2.16.57.94 0 1.71-.18 2.31-.54.6-.36 1.06-.85 1.38-1.47h3.39c-.3 1.04-.79 1.93-1.47 2.67a6.84 6.84 0 01-2.49 1.71c-.96.38-2.01.57-3.15.57zm9.763-.3V77.64h3.18v2.94h.24c.22-1 .7-1.74 1.44-2.22.74-.48 1.68-.72 2.82-.72h1.56v3.09h-1.95c-.74 0-1.4.16-1.98.48-.58.32-1.04.79-1.38 1.41-.34.6-.51 1.36-.51 2.28V93h-3.42zm9.009.21c-.6 0-1.12-.22-1.56-.66-.44-.44-.66-.97-.66-1.59 0-.6.22-1.12.66-1.56.44-.44.96-.66 1.56-.66.6 0 1.11.22 1.53.66.44.44.66.96.66 1.56 0 .62-.22 1.15-.66 1.59-.42.44-.93.66-1.53.66z" fill="#fff"/></svg>