<svg width="90" height="23" viewBox="0 0 90 23" fill="none" xmlns="http://www.w3.org/2000/svg"><g clip-path="url(#clip0_1117_2456)"><path d="M18.813.173H3.806c-.999 0-1.957.396-2.663 1.1A3.752 3.752 0 00.039 3.93v14.967c0 .996.397 1.952 1.104 2.656a3.772 3.772 0 002.663 1.1h15.007c.999 0 1.957-.395 2.663-1.1a3.753 3.753 0 001.104-2.656V3.93c0-.996-.397-1.952-1.104-2.656a3.773 3.773 0 00-2.663-1.1zm-.33 17.208a1.185 1.185 0 01-1.188 1.186H5.329a1.19 1.19 0 01-1.19-1.186V5.448A1.185 1.185 0 015.33 4.26h11.965a1.191 1.191 0 011.188 1.187l.001 11.933zM8.92 14.465a.684.684 0 01-.681-.684V9.018a.68.68 0 01.681-.685h4.784a.686.686 0 01.683.685v4.763a.68.68 0 01-.683.684H8.92zm19.638-.325h2.46c.125 1.39 1.068 2.471 2.975 2.471 1.702 0 2.748-.839 2.748-2.1 0-1.187-.82-1.72-2.297-2.067l-1.907-.409c-2.072-.45-3.63-1.78-3.63-3.948 0-2.392 2.133-4.03 4.9-4.03 2.934 0 4.82 1.535 4.984 3.805h-2.379c-.286-1.064-1.168-1.698-2.602-1.698-1.517 0-2.563.818-2.563 1.862 0 1.045.902 1.677 2.46 2.025l1.884.401c2.071.45 3.486 1.698 3.486 3.886 0 2.782-2.091 4.44-5.08 4.44-3.37.004-5.23-1.816-5.44-4.638h.001zm19.329 8.514v-4.078l.16-1.786h-.16c-.563 1.284-1.75 1.986-3.36 1.986-2.594 0-4.524-2.1-4.524-5.336 0-3.235 1.93-5.336 4.525-5.336 1.59 0 2.715.742 3.358 1.906h.162V8.305h2.132v14.349h-2.294zm.08-9.208c0-2.066-1.266-3.27-2.816-3.27-1.55 0-2.815 1.204-2.815 3.27s1.266 3.27 2.815 3.27 2.811-1.197 2.811-3.27h.005zm3.916 1.063V8.311h2.284v5.998c0 1.625.784 2.407 2.093 2.407 1.61 0 2.654-1.143 2.654-2.929V8.311h2.293v10.271h-2.129v-2.127h-.16c-.503 1.36-1.611 2.327-3.319 2.327-2.454 0-3.72-1.564-3.72-4.273h.005zm10.731 1.204c0-1.926 1.347-3.049 3.74-3.19l2.837-.18v-.802c0-.964-.704-1.545-1.951-1.545-1.147 0-1.83.581-2.011 1.404h-2.299c.242-2.086 1.971-3.29 4.305-3.29 2.635 0 4.244 1.124 4.244 3.29v7.182h-2.132v-1.905h-.161c-.482 1.262-1.487 2.1-3.42 2.1-1.85.005-3.157-1.238-3.157-3.064h.005zm6.577-1.263v-.538l-2.313.16c-1.247.081-1.81.543-1.81 1.465 0 .782.644 1.345 1.548 1.345 1.625-.004 2.57-1.048 2.57-2.432h.005zm4 4.132V8.311h2.133v1.966h.154c.3-1.345 1.326-1.966 2.855-1.966h1.046v2.066h-1.3c-1.486 0-2.594.962-2.594 2.789v5.416h-2.293zm16.69-4.714h-7.83c.124 1.885 1.449 2.948 2.917 2.948 1.247 0 2.03-.502 2.478-1.343h2.274c-.62 2.086-2.455 3.31-4.768 3.31-3.037 0-5.169-2.267-5.169-5.337s2.193-5.336 5.19-5.336c3.017 0 4.988 2.067 4.988 4.634a8.463 8.463 0 01-.085 1.124h.005zm-2.193-1.586c-.08-1.423-1.266-2.386-2.715-2.386-1.363 0-2.515.865-2.796 2.386h5.51z" fill="#fff"/></g><defs><clipPath id="clip0_1117_2456"><path fill="#fff" d="M0 0h90v22.857H0z"/></clipPath></defs></svg>