<svg width="65" height="17" viewBox="0 0 65 17" fill="none" xmlns="http://www.w3.org/2000/svg"><g clip-path="url(#clip0_1508_4133)"><path d="M13.587.125H2.749C2.027.125 1.335.411.825.92A2.71 2.71 0 00.03 2.838v10.81c0 .72.286 1.41.796 1.918.51.51 1.202.795 1.924.795h10.838c.722 0 1.414-.286 1.924-.795a2.71 2.71 0 00.797-1.918V2.838c0-.72-.287-1.41-.797-1.918a2.725 2.725 0 00-1.924-.795zm-.238 12.428a.855.855 0 01-.858.857H3.849a.86.86 0 01-.86-.857V3.934a.856.856 0 01.86-.856h8.64a.86.86 0 01.859.856v8.619zm-6.907-2.106a.493.493 0 01-.492-.494v-3.44a.49.49 0 01.492-.495h3.455a.496.496 0 01.493.495v3.44a.49.49 0 01-.493.494H6.442zm14.183-.235h1.777c.09 1.004.77 1.785 2.147 1.785 1.23 0 1.985-.606 1.985-1.517 0-.857-.592-1.242-1.659-1.493l-1.377-.295c-1.496-.325-2.622-1.285-2.622-2.851 0-1.728 1.541-2.91 3.54-2.91 2.118 0 3.481 1.108 3.6 2.747h-1.719c-.207-.768-.844-1.226-1.88-1.226-1.095 0-1.85.59-1.85 1.345 0 .754.651 1.21 1.777 1.462l1.36.29c1.496.325 2.518 1.226 2.518 2.807 0 2.008-1.51 3.205-3.669 3.205-2.435.004-3.777-1.31-3.93-3.35h.002zm13.959 6.149v-2.945l.116-1.29h-.116c-.406.928-1.264 1.434-2.426 1.434-1.874 0-3.268-1.517-3.268-3.853 0-2.337 1.394-3.854 3.268-3.854 1.148 0 1.962.536 2.426 1.376h.116V5.998h1.54V16.36h-1.656zm.058-6.65c0-1.492-.914-2.361-2.034-2.361-1.12 0-2.033.869-2.033 2.361 0 1.492.915 2.362 2.033 2.362 1.119 0 2.03-.865 2.03-2.362h.004zm2.829.768V6.002h1.649v4.332c0 1.174.566 1.739 1.511 1.739 1.163 0 1.917-.826 1.917-2.115V6.002h1.656v7.418h-1.537v-1.536h-.116c-.363.982-1.164 1.68-2.397 1.68-1.772 0-2.687-1.129-2.687-3.085h.004zm7.75.869c0-1.39.973-2.202 2.701-2.303l2.049-.13v-.58c0-.696-.509-1.116-1.41-1.116-.828 0-1.322.42-1.452 1.014h-1.66c.175-1.506 1.424-2.375 3.109-2.375 1.903 0 3.065.81 3.065 2.375v5.187h-1.54v-1.376h-.116c-.348.912-1.074 1.517-2.47 1.517-1.336.004-2.28-.894-2.28-2.213h.004zm4.75-.912v-.388l-1.671.116c-.9.058-1.307.392-1.307 1.057 0 .565.465.971 1.118.971 1.173-.002 1.856-.757 1.856-1.756h.004zm2.889 2.984V6.002h1.54v1.42h.11c.218-.971.96-1.42 2.064-1.42h.755v1.492h-.939c-1.074 0-1.874.696-1.874 2.015v3.911H52.86zm12.053-3.405H59.26c.09 1.362 1.046 2.13 2.106 2.13.9 0 1.467-.362 1.79-.97h1.642c-.447 1.506-1.773 2.39-3.443 2.39-2.194 0-3.734-1.637-3.734-3.854s1.584-3.853 3.749-3.853c2.179 0 3.602 1.492 3.602 3.346a6.117 6.117 0 01-.061.811h.003zM63.33 8.87c-.058-1.028-.914-1.723-1.96-1.723-.984 0-1.817.625-2.02 1.723h3.98z" fill="#fff"/></g><defs><clipPath id="clip0_1508_4133"><path fill="#fff" d="M0 0h65v16.508H0z"/></clipPath></defs></svg>