<svg width="269" height="154" viewBox="0 0 269 154" fill="none" xmlns="http://www.w3.org/2000/svg"><path d="M10.56 27.3c-1.78 0-3.39-.43-4.83-1.29-1.44-.88-2.58-2.12-3.42-3.72-.84-1.62-1.26-3.55-1.26-5.79 0-1.68.25-3.18.75-4.5.52-1.34 1.23-2.48 2.13-3.42.92-.94 1.98-1.65 3.18-2.13 1.2-.5 2.48-.75 3.84-.75 1.66 0 3.11.25 4.35.75 1.24.48 2.25 1.2 3.03 2.16.8.94 1.32 2.09 1.56 3.45H16.2c-.3-.92-.91-1.67-1.83-2.25-.9-.6-2.04-.9-3.42-.9-1.14 0-2.19.31-3.15.93-.96.6-1.73 1.47-2.31 2.61-.58 1.12-.87 2.47-.87 4.05 0 1.56.28 2.91.84 4.05.58 1.12 1.34 1.99 2.28 2.61.96.6 2.01.9 3.15.9 1.12 0 2.07-.23 2.85-.69.78-.48 1.4-1.1 1.86-1.86.48-.76.77-1.59.87-2.49h-5.82v-2.97h9.39V27h-3.33v-3.09h-.24a6.302 6.302 0 01-3.21 2.94c-.76.3-1.66.45-2.7.45zm19.407 0c-1.52 0-2.86-.34-4.02-1.02a7.55 7.55 0 01-2.7-2.85c-.66-1.22-.99-2.59-.99-4.11 0-1.54.33-2.91.99-4.11.68-1.2 1.6-2.14 2.76-2.82 1.18-.7 2.51-1.05 3.99-1.05 1.52 0 2.83.31 3.93.93 1.12.62 1.98 1.46 2.58 2.52.62 1.04.93 2.2.93 3.48 0 .38-.01.69-.03.93-.02.22-.05.47-.09.75h-13.71v-2.37h10.44c-.04-.7-.25-1.32-.63-1.86-.36-.54-.84-.96-1.44-1.26-.6-.3-1.26-.45-1.98-.45-.78 0-1.5.19-2.16.57-.64.38-1.16.93-1.56 1.65-.38.7-.57 1.55-.57 2.55l-.09.69c0 1.04.2 1.93.6 2.67.42.72.96 1.27 1.62 1.65.66.38 1.38.57 2.16.57.94 0 1.71-.18 2.31-.54.6-.36 1.06-.85 1.38-1.47h3.39c-.3 1.04-.79 1.93-1.47 2.67a6.84 6.84 0 01-2.49 1.71c-.96.38-2.01.57-3.15.57zm15.358-.3c-1.48 0-2.59-.45-3.33-1.35-.74-.92-1.11-2.2-1.11-3.84V7.56h3.39v14.01c0 .76.17 1.34.51 1.74.34.4.82.6 1.44.6h2.22V27h-3.12zm-7.32-12.63v-2.73h10.44v2.73h-10.44zM60.693 27.3c-.92 0-1.74-.19-2.46-.57-.7-.4-1.25-.94-1.65-1.62-.4-.68-.6-1.48-.6-2.4 0-.96.22-1.78.66-2.46.44-.68 1.07-1.22 1.89-1.62.84-.4 1.85-.63 3.03-.69l4.23-.27v-1.2c0-.72-.26-1.28-.78-1.68-.5-.42-1.21-.63-2.13-.63-.84 0-1.5.2-1.98.6-.46.38-.76.88-.9 1.5h-3.42c.18-1.56.84-2.77 1.98-3.63 1.14-.86 2.58-1.29 4.32-1.29 1.96 0 3.5.42 4.62 1.26 1.14.82 1.71 2.04 1.71 3.66V27h-3.18v-2.85h-.24c-.24.62-.58 1.17-1.02 1.65-.42.48-.97.85-1.65 1.11-.66.26-1.47.39-2.43.39zm1.26-2.85c.82 0 1.51-.16 2.07-.48.58-.32 1.02-.75 1.32-1.29.3-.56.45-1.18.45-1.86v-.81l-3.45.24c-.94.06-1.63.27-2.07.63-.42.36-.63.88-.63 1.56 0 .58.21 1.06.63 1.44.44.38 1 .57 1.68.57zM71.986 27V11.64h3.18v3.18h.24a5.66 5.66 0 011.86-2.49c.84-.66 1.89-.99 3.15-.99 1.8 0 3.16.56 4.08 1.68.94 1.12 1.41 2.69 1.41 4.71V27h-3.42v-8.97c0-1.22-.28-2.12-.84-2.7-.54-.6-1.3-.9-2.28-.9-.78 0-1.47.18-2.07.54-.6.36-1.07.87-1.41 1.53-.32.64-.48 1.41-.48 2.31V27h-3.42zm27.057.3c-.92 0-1.74-.19-2.46-.57-.7-.4-1.25-.94-1.65-1.62-.4-.68-.6-1.48-.6-2.4 0-.96.22-1.78.66-2.46.44-.68 1.07-1.22 1.89-1.62.84-.4 1.85-.63 3.03-.69l4.23-.27v-1.2c0-.72-.26-1.28-.78-1.68-.5-.42-1.21-.63-2.13-.63-.84 0-1.5.2-1.98.6-.46.38-.76.88-.9 1.5h-3.42c.18-1.56.84-2.77 1.98-3.63 1.14-.86 2.58-1.29 4.32-1.29 1.96 0 3.5.42 4.62 1.26 1.14.82 1.71 2.04 1.71 3.66V27h-3.18v-2.85h-.24c-.24.62-.58 1.17-1.02 1.65-.42.48-.97.85-1.65 1.11-.66.26-1.47.39-2.43.39zm1.26-2.85c.82 0 1.51-.16 2.07-.48.58-.32 1.02-.75 1.32-1.29.3-.56.45-1.18.45-1.86v-.81l-3.45.24c-.94.06-1.63.27-2.07.63-.42.36-.63.88-.63 1.56 0 .58.21 1.06.63 1.44.44.38 1 .57 1.68.57zM110.336 27V5.7h3.42V27h-3.42zm6.24 0V5.7h3.42V27h-3.42zm5.61-8.19v-2.7h7.8v2.7h-7.8zm9.976 8.19V11.64h3.42V27h-3.42zm1.71-17.52c-.58 0-1.08-.21-1.5-.63-.42-.42-.63-.92-.63-1.5s.21-1.07.63-1.47c.42-.42.92-.63 1.5-.63s1.07.21 1.47.63c.42.4.63.89.63 1.47s-.21 1.08-.63 1.5c-.4.42-.89.63-1.47.63zM138.373 27V11.64h3.18v3.18h.24a5.66 5.66 0 011.86-2.49c.84-.66 1.89-.99 3.15-.99 1.8 0 3.16.56 4.08 1.68.94 1.12 1.41 2.69 1.41 4.71V27h-3.42v-8.97c0-1.22-.28-2.12-.84-2.7-.54-.6-1.3-.9-2.28-.9-.78 0-1.47.18-2.07.54-.6.36-1.07.87-1.41 1.53-.32.64-.48 1.41-.48 2.31V27h-3.42zm16.098-8.19v-2.7h7.8v2.7h-7.8zm17.146 8.49c-1.56 0-2.92-.34-4.08-1.02a7.111 7.111 0 01-2.67-2.82c-.64-1.2-.96-2.58-.96-4.14 0-1.56.32-2.93.96-4.11.64-1.2 1.53-2.14 2.67-2.82 1.16-.7 2.52-1.05 4.08-1.05 1.54 0 2.88.34 4.02 1.02 1.16.68 2.06 1.62 2.7 2.82.64 1.2.96 2.58.96 4.14 0 1.56-.32 2.94-.96 4.14a7.048 7.048 0 01-2.7 2.82c-1.14.68-2.48 1.02-4.02 1.02zm0-3.09c.76 0 1.46-.18 2.1-.54.64-.38 1.15-.94 1.53-1.68.38-.74.57-1.63.57-2.67 0-1.06-.19-1.95-.57-2.67-.38-.74-.89-1.29-1.53-1.65-.64-.38-1.34-.57-2.1-.57-.78 0-1.49.19-2.13.57-.64.36-1.15.91-1.53 1.65-.38.72-.57 1.61-.57 2.67 0 1.04.19 1.93.57 2.67.38.74.89 1.3 1.53 1.68.64.36 1.35.54 2.13.54zm9.969 2.79V11.64h3.18v3.18h.24a5.66 5.66 0 011.86-2.49c.84-.66 1.89-.99 3.15-.99 1.8 0 3.16.56 4.08 1.68.94 1.12 1.41 2.69 1.41 4.71V27h-3.42v-8.97c0-1.22-.28-2.12-.84-2.7-.54-.6-1.3-.9-2.28-.9-.78 0-1.47.18-2.07.54-.6.36-1.07.87-1.41 1.53-.32.64-.48 1.41-.48 2.31V27h-3.42zm23.898.3c-1.52 0-2.86-.34-4.02-1.02a7.55 7.55 0 01-2.7-2.85c-.66-1.22-.99-2.59-.99-4.11 0-1.54.33-2.91.99-4.11.68-1.2 1.6-2.14 2.76-2.82 1.18-.7 2.51-1.05 3.99-1.05 1.52 0 2.83.31 3.93.93 1.12.62 1.98 1.46 2.58 2.52.62 1.04.93 2.2.93 3.48 0 .38-.01.69-.03.93-.02.22-.05.47-.09.75h-13.71v-2.37h10.44c-.04-.7-.25-1.32-.63-1.86-.36-.54-.84-.96-1.44-1.26-.6-.3-1.26-.45-1.98-.45-.78 0-1.5.19-2.16.57-.64.38-1.16.93-1.56 1.65-.38.7-.57 1.55-.57 2.55l-.09.69c0 1.04.2 1.93.6 2.67.42.72.96 1.27 1.62 1.65.66.38 1.38.57 2.16.57.94 0 1.71-.18 2.31-.54.6-.36 1.06-.85 1.38-1.47h3.39c-.3 1.04-.79 1.93-1.47 2.67a6.84 6.84 0 01-2.49 1.71c-.96.38-2.01.57-3.15.57zM1.53 60V39h7.74c2.24 0 4 .55 5.28 1.65 1.28 1.1 1.92 2.68 1.92 4.74s-.64 3.64-1.92 4.74c-1.28 1.1-3.04 1.65-5.28 1.65H5.1V60H1.53zM5.1 48.57h4.29c1.06 0 1.91-.26 2.55-.78.64-.54.96-1.34.96-2.4 0-1.06-.32-1.85-.96-2.37-.64-.54-1.49-.81-2.55-.81H5.1v6.36zM28.597 60.3c-1.92 0-3.66-.44-5.22-1.32-1.56-.9-2.8-2.15-3.72-3.75-.92-1.62-1.38-3.53-1.38-5.73 0-2.22.46-4.13 1.38-5.73.92-1.62 2.16-2.87 3.72-3.75 1.56-.88 3.3-1.32 5.22-1.32s3.65.44 5.19 1.32c1.56.88 2.8 2.13 3.72 3.75.94 1.6 1.41 3.51 1.41 5.73 0 1.66-.27 3.16-.81 4.5-.54 1.32-1.28 2.45-2.22 3.39-.94.94-2.04 1.66-3.3 2.16-1.24.5-2.57.75-3.99.75zm0-3.24c1.26 0 2.4-.3 3.42-.9 1.02-.6 1.82-1.46 2.4-2.58.6-1.14.9-2.5.9-4.08s-.3-2.93-.9-4.05c-.6-1.14-1.41-2.01-2.43-2.61-1-.62-2.13-.93-3.39-.93-1.26 0-2.4.31-3.42.93-1.02.6-1.83 1.47-2.43 2.61-.6 1.12-.9 2.47-.9 4.05 0 1.56.3 2.91.9 4.05.6 1.12 1.41 1.99 2.43 2.61 1.02.6 2.16.9 3.42.9zM48.46 60.3c-1.64 0-3.03-.28-4.17-.84-1.14-.56-2.03-1.35-2.67-2.37-.64-1.02-1.01-2.22-1.11-3.6h3.6c.1 1.02.5 1.88 1.2 2.58.7.7 1.75 1.05 3.15 1.05 1.24 0 2.22-.28 2.94-.84.72-.56 1.08-1.31 1.08-2.25 0-.88-.29-1.54-.87-1.98-.58-.44-1.41-.79-2.49-1.05l-2.79-.6c-1-.22-1.91-.58-2.73-1.08-.8-.5-1.43-1.14-1.89-1.92-.46-.8-.69-1.73-.69-2.79 0-1.18.31-2.21.93-3.09.64-.88 1.5-1.57 2.58-2.07 1.1-.5 2.32-.75 3.66-.75 1.44 0 2.68.24 3.72.72 1.06.46 1.9 1.11 2.52 1.95.62.82.97 1.79 1.05 2.91H52c-.2-.78-.62-1.39-1.26-1.83-.64-.44-1.49-.66-2.55-.66-1.1 0-2 .26-2.7.78-.7.52-1.05 1.17-1.05 1.95s.31 1.41.93 1.89c.64.46 1.53.82 2.67 1.08l2.76.6c1.02.2 1.91.55 2.67 1.05.76.48 1.35 1.11 1.77 1.89.44.76.66 1.68.66 2.76 0 1.36-.32 2.53-.96 3.51-.62.96-1.49 1.7-2.61 2.22-1.12.52-2.41.78-3.87.78zm21.789.03c-1.82 0-3.3-.42-4.44-1.26-1.12-.86-1.79-2.11-2.01-3.75h3.24c.12.64.45 1.17.99 1.59.54.4 1.28.6 2.22.6.8 0 1.48-.17 2.04-.51.58-.36.87-.87.87-1.53 0-.6-.24-1.04-.72-1.32-.48-.3-1.17-.52-2.07-.66l-1.77-.33c-.78-.14-1.52-.38-2.22-.72a4.46 4.46 0 01-1.65-1.38c-.42-.58-.63-1.31-.63-2.19 0-.9.25-1.69.75-2.37.52-.68 1.23-1.21 2.13-1.59.92-.38 1.94-.57 3.06-.57 1.6 0 2.94.39 4.02 1.17 1.1.78 1.75 1.92 1.95 3.42h-3.12c-.16-.6-.5-1.06-1.02-1.38-.52-.34-1.15-.51-1.89-.51-.8 0-1.47.16-2.01.48-.52.32-.78.76-.78 1.32 0 .54.29.97.87 1.29.58.3 1.36.51 2.34.63l1.74.3c.8.12 1.52.34 2.16.66.64.32 1.15.78 1.53 1.38.38.58.57 1.33.57 2.25 0 .98-.27 1.85-.81 2.61-.52.74-1.24 1.32-2.16 1.74-.9.42-1.96.63-3.18.63zm15.703-.03c-1.56 0-2.92-.34-4.08-1.02a7.111 7.111 0 01-2.67-2.82c-.64-1.2-.96-2.58-.96-4.14 0-1.56.32-2.93.96-4.11.64-1.2 1.53-2.14 2.67-2.82 1.16-.7 2.52-1.05 4.08-1.05 1.54 0 2.88.34 4.02 1.02 1.16.68 2.06 1.62 2.7 2.82.64 1.2.96 2.58.96 4.14 0 1.56-.32 2.94-.96 4.14a7.048 7.048 0 01-2.7 2.82c-1.14.68-2.48 1.02-4.02 1.02zm0-3.09c.76 0 1.46-.18 2.1-.54.64-.38 1.15-.94 1.53-1.68.38-.74.57-1.63.57-2.67 0-1.06-.19-1.95-.57-2.67-.38-.74-.89-1.29-1.53-1.65-.64-.38-1.34-.57-2.1-.57-.78 0-1.49.19-2.13.57-.64.36-1.15.91-1.53 1.65-.38.72-.57 1.61-.57 2.67 0 1.04.19 1.93.57 2.67.38.74.89 1.3 1.53 1.68.64.36 1.35.54 2.13.54zM95.922 60V38.7h3.42V60h-3.42zm11.79.3c-1.82 0-3.2-.56-4.14-1.68-.94-1.12-1.41-2.69-1.41-4.71v-9.27h3.42v8.97c0 1.22.27 2.13.81 2.73.56.58 1.33.87 2.31.87.8 0 1.5-.18 2.1-.54.6-.36 1.06-.87 1.38-1.53.32-.66.48-1.43.48-2.31v-8.19h3.42V60h-3.18v-3.18h-.24a5.741 5.741 0 01-1.8 2.52c-.82.64-1.87.96-3.15.96zM125.1 60c-1.48 0-2.59-.45-3.33-1.35-.74-.92-1.11-2.2-1.11-3.84V40.56h3.39v14.01c0 .76.17 1.34.51 1.74.34.4.82.6 1.44.6h2.22V60h-3.12zm-7.32-12.63v-2.73h10.44v2.73h-10.44zM130.14 60V44.64h3.42V60h-3.42zm1.71-17.52c-.58 0-1.08-.21-1.5-.63-.42-.42-.63-.92-.63-1.5s.21-1.07.63-1.47c.42-.42.92-.63 1.5-.63s1.07.21 1.47.63c.42.4.63.89.63 1.47s-.21 1.08-.63 1.5c-.4.42-.89.63-1.47.63zm11.671 17.82c-1.56 0-2.92-.34-4.08-1.02a7.111 7.111 0 01-2.67-2.82c-.64-1.2-.96-2.58-.96-4.14 0-1.56.32-2.93.96-4.11.64-1.2 1.53-2.14 2.67-2.82 1.16-.7 2.52-1.05 4.08-1.05 1.54 0 2.88.34 4.02 1.02 1.16.68 2.06 1.62 2.7 2.82.64 1.2.96 2.58.96 4.14 0 1.56-.32 2.94-.96 4.14a7.048 7.048 0 01-2.7 2.82c-1.14.68-2.48 1.02-4.02 1.02zm0-3.09c.76 0 1.46-.18 2.1-.54.64-.38 1.15-.94 1.53-1.68.38-.74.57-1.63.57-2.67 0-1.06-.19-1.95-.57-2.67-.38-.74-.89-1.29-1.53-1.65-.64-.38-1.34-.57-2.1-.57-.78 0-1.49.19-2.13.57-.64.36-1.15.91-1.53 1.65-.38.72-.57 1.61-.57 2.67 0 1.04.19 1.93.57 2.67.38.74.89 1.3 1.53 1.68.64.36 1.35.54 2.13.54zM153.49 60V44.64h3.18v3.18h.24a5.66 5.66 0 011.86-2.49c.84-.66 1.89-.99 3.15-.99 1.8 0 3.16.56 4.08 1.68.94 1.12 1.41 2.69 1.41 4.71V60h-3.42v-8.97c0-1.22-.28-2.12-.84-2.7-.54-.6-1.3-.9-2.28-.9-.78 0-1.47.18-2.07.54-.6.36-1.07.87-1.41 1.53-.32.64-.48 1.41-.48 2.31V60h-3.42zm24.627 0V44.04c0-1.8.47-3.14 1.41-4.02.96-.88 2.17-1.32 3.63-1.32h3.24v2.91h-2.85c-.66 0-1.17.18-1.53.54-.34.34-.51.93-.51 1.77V60h-3.39zm-2.88-12.63v-2.73h10.44v2.73h-10.44zm19.144 12.93c-1.56 0-2.92-.34-4.08-1.02a7.111 7.111 0 01-2.67-2.82c-.64-1.2-.96-2.58-.96-4.14 0-1.56.32-2.93.96-4.11.64-1.2 1.53-2.14 2.67-2.82 1.16-.7 2.52-1.05 4.08-1.05 1.54 0 2.88.34 4.02 1.02 1.16.68 2.06 1.62 2.7 2.82.64 1.2.96 2.58.96 4.14 0 1.56-.32 2.94-.96 4.14a7.048 7.048 0 01-2.7 2.82c-1.14.68-2.48 1.02-4.02 1.02zm0-3.09c.76 0 1.46-.18 2.1-.54.64-.38 1.15-.94 1.53-1.68.38-.74.57-1.63.57-2.67 0-1.06-.19-1.95-.57-2.67-.38-.74-.89-1.29-1.53-1.65-.64-.38-1.34-.57-2.1-.57-.78 0-1.49.19-2.13.57-.64.36-1.15.91-1.53 1.65-.38.72-.57 1.61-.57 2.67 0 1.04.19 1.93.57 2.67.38.74.89 1.3 1.53 1.68.64.36 1.35.54 2.13.54zm9.968 2.79V44.64h3.18v2.94h.24c.22-1 .7-1.74 1.44-2.22.74-.48 1.68-.72 2.82-.72h1.56v3.09h-1.95c-.74 0-1.4.16-1.98.48-.58.32-1.04.79-1.38 1.41-.34.6-.51 1.36-.51 2.28V60h-3.42zM4.08 98.64H1.32v-3.03H3.9c.68 0 1.22-.12 1.62-.36.4-.24.72-.65.96-1.23l.3-.78L.3 77.64h3.81l3.33 8.67.78 2.52h.24l.75-2.52 3.15-8.67h3.66L9.51 94.56c-.38 1-.82 1.8-1.32 2.4-.5.6-1.08 1.03-1.74 1.29-.66.26-1.45.39-2.37.39zm20.057-5.34c-1.56 0-2.92-.34-4.08-1.02a7.111 7.111 0 01-2.67-2.82c-.64-1.2-.96-2.58-.96-4.14 0-1.56.32-2.93.96-4.11.64-1.2 1.53-2.14 2.67-2.82 1.16-.7 2.52-1.05 4.08-1.05 1.54 0 2.88.34 4.02 1.02 1.16.68 2.06 1.62 2.7 2.82.64 1.2.96 2.58.96 4.14 0 1.56-.32 2.94-.96 4.14a7.048 7.048 0 01-2.7 2.82c-1.14.68-2.48 1.02-4.02 1.02zm0-3.09c.76 0 1.46-.18 2.1-.54.64-.38 1.15-.94 1.53-1.68.38-.74.57-1.63.57-2.67 0-1.06-.19-1.95-.57-2.67-.38-.74-.89-1.29-1.53-1.65-.64-.38-1.34-.57-2.1-.57-.78 0-1.49.19-2.13.57-.64.36-1.15.91-1.53 1.65-.38.72-.57 1.61-.57 2.67 0 1.04.19 1.93.57 2.67.38.74.89 1.3 1.53 1.68.64.36 1.35.54 2.13.54zm15.518 3.09c-1.82 0-3.2-.56-4.14-1.68-.94-1.12-1.41-2.69-1.41-4.71v-9.27h3.42v8.97c0 1.22.27 2.13.81 2.73.56.58 1.33.87 2.31.87.8 0 1.5-.18 2.1-.54.6-.36 1.06-.87 1.38-1.53.32-.66.48-1.43.48-2.31v-8.19h3.42V93h-3.18v-3.18h-.24a5.741 5.741 0 01-1.8 2.52c-.82.64-1.87.96-3.15.96zm11.179-.3V77.64h3.18v2.94h.24c.22-1 .7-1.74 1.44-2.22.74-.48 1.68-.72 2.82-.72h1.56v3.09h-1.95c-.74 0-1.4.16-1.98.48-.58.32-1.04.79-1.38 1.41-.34.6-.51 1.36-.51 2.28V93h-3.42zm17.226 0V77.64h3.18v2.94h.24c.22-1 .7-1.74 1.44-2.22.74-.48 1.68-.72 2.82-.72h1.56v3.09h-1.95c-.74 0-1.4.16-1.98.48-.58.32-1.04.79-1.38 1.41-.34.6-.51 1.36-.51 2.28V93h-3.42zm17.6.3c-1.52 0-2.86-.34-4.02-1.02a7.55 7.55 0 01-2.7-2.85c-.66-1.22-.99-2.59-.99-4.11 0-1.54.33-2.91.99-4.11.68-1.2 1.6-2.14 2.76-2.82 1.18-.7 2.51-1.05 3.99-1.05 1.52 0 2.83.31 3.93.93 1.12.62 1.98 1.46 2.58 2.52.62 1.04.93 2.2.93 3.48 0 .38-.01.69-.03.93-.02.22-.05.47-.09.75H79.3v-2.37h10.44c-.04-.7-.25-1.32-.63-1.86-.36-.54-.84-.96-1.44-1.26-.6-.3-1.26-.45-1.98-.45-.78 0-1.5.19-2.16.57-.64.38-1.16.93-1.56 1.65-.38.7-.57 1.55-.57 2.55l-.09.69c0 1.04.2 1.93.6 2.67.42.72.96 1.27 1.62 1.65.66.38 1.38.57 2.16.57.94 0 1.71-.18 2.31-.54.6-.36 1.06-.85 1.38-1.47h3.39c-.3 1.04-.79 1.93-1.47 2.67a6.84 6.84 0 01-2.49 1.71c-.96.38-2.01.57-3.15.57zm15.674.03c-1.82 0-3.3-.42-4.44-1.26-1.12-.86-1.79-2.11-2.01-3.75h3.24c.12.64.45 1.17.99 1.59.54.4 1.28.6 2.22.6.8 0 1.48-.17 2.04-.51.58-.36.87-.87.87-1.53 0-.6-.24-1.04-.72-1.32-.48-.3-1.17-.52-2.07-.66l-1.77-.33c-.78-.14-1.52-.38-2.22-.72a4.46 4.46 0 01-1.65-1.38c-.42-.58-.63-1.31-.63-2.19 0-.9.25-1.69.75-2.37.52-.68 1.23-1.21 2.13-1.59.92-.38 1.94-.57 3.06-.57 1.6 0 2.94.39 4.02 1.17 1.1.78 1.75 1.92 1.95 3.42h-3.12c-.16-.6-.5-1.06-1.02-1.38-.52-.34-1.15-.51-1.89-.51-.8 0-1.47.16-2.01.48-.52.32-.78.76-.78 1.32 0 .54.29.97.87 1.29.58.3 1.36.51 2.34.63l1.74.3c.8.12 1.52.34 2.16.66.64.32 1.15.78 1.53 1.38.38.58.57 1.33.57 2.25 0 .98-.27 1.85-.81 2.61-.52.74-1.24 1.32-2.16 1.74-.9.42-1.96.63-3.18.63zM115.55 93c-1.48 0-2.59-.45-3.33-1.35-.74-.92-1.11-2.2-1.11-3.84V73.56h3.39v14.01c0 .76.17 1.34.51 1.74.34.4.82.6 1.44.6h2.22V93h-3.12zm-7.32-12.63v-2.73h10.44v2.73h-10.44zM125 93.3c-.92 0-1.74-.19-2.46-.57-.7-.4-1.25-.94-1.65-1.62-.4-.68-.6-1.48-.6-2.4 0-.96.22-1.78.66-2.46.44-.68 1.07-1.22 1.89-1.62.84-.4 1.85-.63 3.03-.69l4.23-.27v-1.2c0-.72-.26-1.28-.78-1.68-.5-.42-1.21-.63-2.13-.63-.84 0-1.5.2-1.98.6-.46.38-.76.88-.9 1.5h-3.42c.18-1.56.84-2.77 1.98-3.63 1.14-.86 2.58-1.29 4.32-1.29 1.96 0 3.5.42 4.62 1.26 1.14.82 1.71 2.04 1.71 3.66V93h-3.18v-2.85h-.24c-.24.62-.58 1.17-1.02 1.65-.42.48-.97.85-1.65 1.11-.66.26-1.47.39-2.43.39zm1.26-2.85c.82 0 1.51-.16 2.07-.48.58-.32 1.02-.75 1.32-1.29.3-.56.45-1.18.45-1.86v-.81l-3.45.24c-.94.06-1.63.27-2.07.63-.42.36-.63.88-.63 1.56 0 .58.21 1.06.63 1.44.44.38 1 .57 1.68.57zm15.583 2.85c-1.82 0-3.2-.56-4.14-1.68-.94-1.12-1.41-2.69-1.41-4.71v-9.27h3.42v8.97c0 1.22.27 2.13.81 2.73.56.58 1.33.87 2.31.87.8 0 1.5-.18 2.1-.54.6-.36 1.06-.87 1.38-1.53.32-.66.48-1.43.48-2.31v-8.19h3.42V93h-3.18v-3.18h-.24a5.741 5.741 0 01-1.8 2.52c-.82.64-1.87.96-3.15.96zm11.178-.3V77.64h3.18v2.94h.24c.22-1 .7-1.74 1.44-2.22.74-.48 1.68-.72 2.82-.72h1.56v3.09h-1.95c-.74 0-1.4.16-1.98.48-.58.32-1.04.79-1.38 1.41-.34.6-.51 1.36-.51 2.28V93h-3.42zm14.957.3c-.92 0-1.74-.19-2.46-.57-.7-.4-1.25-.94-1.65-1.62-.4-.68-.6-1.48-.6-2.4 0-.96.22-1.78.66-2.46.44-.68 1.07-1.22 1.89-1.62.84-.4 1.85-.63 3.03-.69l4.23-.27v-1.2c0-.72-.26-1.28-.78-1.68-.5-.42-1.21-.63-2.13-.63-.84 0-1.5.2-1.98.6-.46.38-.76.88-.9 1.5h-3.42c.18-1.56.84-2.77 1.98-3.63 1.14-.86 2.58-1.29 4.32-1.29 1.96 0 3.5.42 4.62 1.26 1.14.82 1.71 2.04 1.71 3.66V93h-3.18v-2.85h-.24c-.24.62-.58 1.17-1.02 1.65-.42.48-.97.85-1.65 1.11-.66.26-1.47.39-2.43.39zm1.26-2.85c.82 0 1.51-.16 2.07-.48.58-.32 1.02-.75 1.32-1.29.3-.56.45-1.18.45-1.86v-.81l-3.45.24c-.94.06-1.63.27-2.07.63-.42.36-.63.88-.63 1.56 0 .58.21 1.06.63 1.44.44.38 1 .57 1.68.57zM179.271 93V77.64h3.18v3.18h.24a5.66 5.66 0 011.86-2.49c.84-.66 1.89-.99 3.15-.99 1.8 0 3.16.56 4.08 1.68.94 1.12 1.41 2.69 1.41 4.71V93h-3.42v-8.97c0-1.22-.28-2.12-.84-2.7-.54-.6-1.3-.9-2.28-.9-.78 0-1.47.18-2.07.54-.6.36-1.07.87-1.41 1.53-.32.64-.48 1.41-.48 2.31V93h-3.42zm22.265 0c-1.48 0-2.59-.45-3.33-1.35-.74-.92-1.11-2.2-1.11-3.84V73.56h3.39v14.01c0 .76.17 1.34.51 1.74.34.4.82.6 1.44.6h2.22V93h-3.12zm-7.32-12.63v-2.73h10.44v2.73h-10.44zm14.25 12.84c-.6 0-1.12-.22-1.56-.66-.44-.44-.66-.97-.66-1.59 0-.6.22-1.12.66-1.56.44-.44.96-.66 1.56-.66.6 0 1.11.22 1.53.66.44.44.66.96.66 1.56 0 .62-.22 1.15-.66 1.59-.42.44-.93.66-1.53.66z" fill="#fff"/></svg>