<?xml version="1.0" encoding="UTF-8"?> <svg width="57" height="16" xmlns="http://www.w3.org/2000/svg" viewBox="0 0 58.69 16.36"><defs><style>.cls-1{fill:#202328;}</style></defs><g id="Layer_2" data-name="Layer 2"><g id="Layer_1-2" data-name="Layer 1"><path class="cls-1" d="M2.51.22H8.92C12.57.22,14,1.84,14,4.11A3.73,3.73,0,0,1,10.92,7.9a3.18,3.18,0,0,1,2.73,3.33c0,2.91-2.37,4.87-6.08,4.87H0ZM6.9,13.05A2.08,2.08,0,0,0,9.26,11c0-1.11-.65-1.67-2.13-1.67H5.51l-.6,3.75Zm.8-6.52c1.47,0,2.16-.65,2.16-1.85,0-1-.58-1.44-1.8-1.44H6.46L5.93,6.53Z"></path><path class="cls-1" d="M16.47.22H21L19.09,12.57h6l-.55,3.53H14Z"></path><path class="cls-1" d="M33,16.36c-4.22,0-7.69-2.51-7.69-6.95C25.32,3.91,29.08,0,34.4,0c4.4,0,7.8,2.49,7.8,7C42.2,12.54,38.47,16.36,33,16.36ZM34.27,3.55c-2.77,0-4.22,2.73-4.22,5.69,0,2.1,1.11,3.55,3.27,3.55,2.75,0,4.15-2.71,4.15-5.62C37.47,5.17,36.49,3.57,34.27,3.55Z"></path><path class="cls-1" d="M42.42,9.28c0-5.33,3.73-9.3,9-9.28,3.73,0,6.88,1.67,7.08,5.82H54c-.13-1.47-1-2.25-2.73-2.25-2.67,0-4.11,2.67-4.11,5.67,0,2.26,1.07,3.66,3.29,3.66a2.94,2.94,0,0,0,3.26-2.4H50.74l.51-3.17h7.44c-.33,6-3,9-8.37,9C45.48,16.36,42.42,13.85,42.42,9.28Z"></path></g></g></svg> 