<?xml version="1.0" encoding="UTF-8"?> <svg xmlns="http://www.w3.org/2000/svg" width="284" height="284" viewBox="0 0 284 284" fill="none"><path d="M142 284C220.424 284 284 220.424 284 142C284 63.5756 220.424 0 142 0C63.5756 0 0 63.5756 0 142C0 220.424 63.5756 284 142 284Z" fill="url(#paint0_linear)"></path><path d="M73 79.6233C73 70.1674 80.5777 63 90.2566 63C100.152 63 107.723 70.1477 107.723 79.6037C107.723 89.0596 100.152 96.2073 90.2566 96.2073C80.5777 96.227 73 89.0793 73 79.6233Z" fill="white"></path><path d="M104.204 111.152H76.5196C75.7943 111.152 75.2063 111.739 75.2063 112.464V219.764C75.2063 220.489 75.7943 221.076 76.5196 221.076H104.204C104.929 221.076 105.517 220.489 105.517 219.764V112.464C105.517 111.739 104.929 111.152 104.204 111.152Z" fill="white"></path><path d="M128.999 63H156.676C157.025 63 157.359 63.1382 157.605 63.3841C157.851 63.6301 157.99 63.9637 157.99 64.3115V219.725C157.99 220.073 157.851 220.406 157.605 220.652C157.359 220.898 157.025 221.036 156.676 221.036H128.999C128.651 221.036 128.316 220.898 128.07 220.652C127.824 220.406 127.686 220.073 127.686 219.725V64.3115C127.686 63.9637 127.824 63.6301 128.07 63.3841C128.316 63.1382 128.651 63 128.999 63Z" fill="white"></path><path d="M209.195 111.152H181.511C180.785 111.152 180.198 111.739 180.198 112.464V219.764C180.198 220.489 180.785 221.076 181.511 221.076H209.195C209.92 221.076 210.508 220.489 210.508 219.764V112.464C210.508 111.739 209.92 111.152 209.195 111.152Z" fill="white"></path><path d="M210.666 63.0198H180.04C179.315 63.0198 178.727 63.607 178.727 64.3313V94.9156C178.727 95.6399 179.315 96.2271 180.04 96.2271H210.666C211.391 96.2271 211.979 95.6399 211.979 94.9156V64.3313C211.979 63.607 211.391 63.0198 210.666 63.0198Z" fill="white"></path><defs><linearGradient id="paint0_linear" x1="42.7844" y1="257.504" x2="223.622" y2="47.0368" gradientUnits="userSpaceOnUse"><stop stop-color="#121212"></stop><stop offset="0.930563" stop-color="#374047"></stop></linearGradient></defs></svg> 