<svg width="18" height="14" viewBox="0 0 18 14" fill="none" xmlns="http://www.w3.org/2000/svg">
<path d="M18 1.65642C17.3375 1.93751 16.6266 2.12814 15.8798 2.21324C16.6424 1.77597 17.2261 1.08239 17.5028 0.258473C16.7875 0.663419 15.9978 0.957461 15.1565 1.11686C14.4828 0.428658 13.5244 0 12.4615 0C10.4223 0 8.76881 1.5832 8.76881 3.53473C8.76881 3.81151 8.80142 4.08184 8.86443 4.34034C5.79601 4.19277 3.07515 2.78514 1.25412 0.646183C0.935796 1.16747 0.754707 1.77487 0.754707 2.42325C0.754707 3.64997 1.40709 4.73236 2.39692 5.36562C1.79177 5.34624 1.22262 5.18684 0.724354 4.92189V4.96605C0.724354 6.67849 1.99762 8.10766 3.68592 8.43294C3.37659 8.51264 3.05042 8.5568 2.71297 8.5568C2.47453 8.5568 2.24394 8.53418 2.01786 8.49109C2.488 9.89659 3.85127 10.9187 5.46648 10.9467C4.20333 11.8944 2.61062 12.4577 0.880707 12.4577C0.582648 12.4577 0.289059 12.4405 0 12.4093C1.63433 13.4141 3.57459 14 5.65995 14C12.4525 14 16.1655 8.61281 16.1655 3.94077L16.1531 3.48305C16.8786 2.98759 17.5062 2.3651 18 1.65642Z" fill="white"/>
</svg>
