<svg width="17" height="17" viewBox="0 0 17 17" fill="none" xmlns="http://www.w3.org/2000/svg">
<path d="M17 10.3372V16.6222H13.3563V10.7581C13.3563 9.285 12.8293 8.27967 11.5105 8.27967C10.5037 8.27967 9.90451 8.95719 9.64092 9.61258C9.5448 9.84688 9.52006 10.173 9.52006 10.501V16.6222H5.87518C5.87518 16.6222 5.92427 6.69036 5.87518 5.66135H9.5197V7.215C9.51231 7.22662 9.50271 7.23915 9.49575 7.25042H9.5197V7.215C10.0039 6.46922 10.8687 5.40385 12.8042 5.40385C15.2023 5.40381 17 6.97043 17 10.3372ZM2.06249 0.377686C0.81558 0.377686 0 1.19556 0 2.27109C0 3.32318 0.791985 4.16588 2.01411 4.16588H2.03846C3.30951 4.16588 4.1 3.32334 4.1 2.27109C4.07604 1.19556 3.30951 0.377686 2.06249 0.377686ZM0.216474 16.6222H3.85997V5.66135H0.216474V16.6222Z" fill="white"/>
</svg>
