<svg width="24" height="24" viewBox="0 0 24 24" fill="none" xmlns="http://www.w3.org/2000/svg">
<g clip-path="url(#clip0_1910_16462)">
<path fill-rule="evenodd" clip-rule="evenodd" d="M16.3562 18.5962C16.9726 19.3771 17.7123 20.2606 17.7123 20.2606C22.2534 20.1168 24 17.1373 24 17.1373C24 10.5209 21.0411 5.15787 21.0411 5.15787C18.0822 2.9387 15.2671 3.00017 15.2671 3.00017L14.9795 3.32911C18.4726 4.3976 20.0959 5.9387 20.0959 5.9387C17.9589 4.76746 15.863 4.19212 13.911 3.96609C12.4315 3.80171 11.0137 3.84281 9.76027 4.00719C9.65265 4.00719 9.56068 4.02285 9.45703 4.0405C9.44195 4.04307 9.42662 4.04568 9.41096 4.04829C8.69178 4.10993 6.94521 4.37705 4.74657 5.34281C3.9863 5.69212 3.53425 5.9387 3.53425 5.9387C3.53425 5.9387 5.23973 4.31541 8.93835 3.24691L8.73288 3.00017C8.73288 3.00017 5.91781 2.9387 2.9589 5.15787C2.9589 5.15787 0 10.5209 0 17.1373C0 17.1373 1.72603 20.1168 6.26712 20.2606C6.26712 20.2606 7.0274 19.336 7.64384 18.5551C5.03425 17.7743 4.04795 16.1305 4.04795 16.1305C4.04795 16.1305 4.25342 16.2743 4.62329 16.4798C4.64383 16.5003 4.66439 16.5209 4.70548 16.5414C4.7363 16.562 4.76712 16.5774 4.79794 16.5928C4.82877 16.6082 4.85959 16.6236 4.89041 16.6442C5.40411 16.9318 5.91781 17.1579 6.39041 17.3428C7.23288 17.6716 8.23973 18.0003 9.41096 18.2264C10.9521 18.514 12.7603 18.6168 14.7329 18.2469C15.6986 18.0825 16.6849 17.7949 17.7123 17.3634C18.4315 17.0962 19.2329 16.7058 20.0753 16.151C20.0753 16.151 19.0479 17.836 16.3562 18.5962ZM6.06164 12.9456C6.06164 11.6921 6.9863 10.6647 8.15753 10.6647C9.32877 10.6647 10.274 11.6921 10.2534 12.9456C10.2534 14.199 9.32877 15.2264 8.15753 15.2264C7.00685 15.2264 6.06164 14.199 6.06164 12.9456ZM13.5616 12.9456C13.5616 11.6921 14.4863 10.6647 15.6575 10.6647C16.8288 10.6647 17.7534 11.6921 17.7534 12.9456C17.7534 14.199 16.8288 15.2264 15.6575 15.2264C14.5068 15.2264 13.5616 14.199 13.5616 12.9456Z" fill="#CFD9F0"/>
</g>
<defs>
<clipPath id="clip0_1910_16462">
<rect width="24" height="24" fill="white"/>
</clipPath>
</defs>
</svg>
