<svg width="24" height="24" viewBox="0 0 24 24" fill="none" xmlns="http://www.w3.org/2000/svg">
<path fill-rule="evenodd" clip-rule="evenodd" d="M21.3763 4.50181C22.4096 4.7784 23.2216 5.59039 23.4982 6.62364C23.998 8.49456 24 12.4004 24 12.4004C24 12.4004 24 16.3062 23.4982 18.1772C23.2216 19.2104 22.4096 20.0224 21.3763 20.2989C19.5055 20.8008 12 20.8008 12 20.8008C12 20.8008 4.49456 20.8008 2.62364 20.2989C1.59039 20.0224 0.778399 19.2104 0.501811 18.1772C0 16.3062 0 12.4004 0 12.4004C0 12.4004 0 8.49456 0.501811 6.62364C0.778399 5.59039 1.59039 4.7784 2.62364 4.50181C4.49456 4 12 4 12 4C12 4 19.5055 4 21.3763 4.50181ZM15.8328 12.4009L9.59766 16.0005V8.80127L15.8328 12.4009Z" fill="#CFD9F0"/>
</svg>
