<svg width="24" height="24" viewBox="0 0 24 24" fill="none" xmlns="http://www.w3.org/2000/svg">
<rect x="0.5" y="0.5" width="23" height="23" rx="11.5" stroke="#020202"/>
<path d="M8.64645 14.6464C8.45118 14.8417 8.45118 15.1583 8.64645 15.3536C8.84171 15.5488 9.15829 15.5488 9.35355 15.3536L8.64645 14.6464ZM15.5 9C15.5 8.72386 15.2761 8.5 15 8.5H10.5C10.2239 8.5 10 8.72386 10 9C10 9.27614 10.2239 9.5 10.5 9.5H14.5V13.5C14.5 13.7761 14.7239 14 15 14C15.2761 14 15.5 13.7761 15.5 13.5V9ZM9.35355 15.3536L15.3536 9.35355L14.6464 8.64645L8.64645 14.6464L9.35355 15.3536Z" fill="#020202"/>
</svg>
