<svg width="33" height="32" viewBox="0 0 33 32" fill="none" xmlns="http://www.w3.org/2000/svg">
<path d="M32.8657 16C32.8657 24.8366 25.7023 32 16.8657 32C8.02917 32 0.865723 24.8366 0.865723 16C0.865723 7.16344 8.02917 0 16.8657 0C25.7023 0 32.8657 7.16344 32.8657 16Z" fill="url(#paint0_linear_60_1086)"/>
<path opacity="0.8" d="M9.06674 22.2355C9.68467 22.9713 10.374 23.418 10.8706 23.6799C11.0997 23.8001 11.3763 23.6436 11.3956 23.3863C11.4319 22.9112 11.4829 22.5189 11.5793 22.1232C11.7799 21.3465 11.8389 21.0994 12.3106 20.2513C12.7267 19.5313 13.1564 19.0313 13.4988 18.6356C13.8174 18.2671 14.3027 17.7127 15.0147 17.1367C15.3877 16.8589 16.2902 16.1095 16.7245 15.7546C16.822 15.6798 17.0363 15.5131 17.2075 15.3634C17.7483 14.9043 18.6916 13.8838 19.1236 13.3079C19.7336 12.5323 19.847 12.2001 19.9513 12.2001C20.1486 12.2625 20.0341 12.6752 19.1769 14.1571C18.9331 14.5743 18.5386 15.1752 18.1417 15.6537C17.5159 16.4145 16.2539 17.5029 15.6496 18.0222C14.5634 18.9939 13.8446 19.9769 13.3684 20.7581C13.0498 21.2921 12.9047 21.6425 12.8684 21.7343C12.831 21.8273 12.6711 22.2309 12.5713 22.6958C11.8888 25.6323 12.7958 25.7457 16.1927 24.8183C17.3492 24.5246 18.2823 24.2049 18.9116 23.9713C22.8448 21.8896 24.4888 16.9882 23.7802 10.7908C23.7824 10.6411 23.5035 7.7454 23.0942 6.26578C23.0194 5.99707 22.6838 5.90977 22.4887 6.10819C21.2892 7.32363 20.1576 8.07307 19.3152 8.54247C17.1156 9.76698 16.0453 9.55155 12.4115 11.2749C9.53614 12.5766 7.29914 14.8782 7.55198 18.4633C7.58146 19.2864 8.0826 21.1232 9.06674 22.2355Z" fill="white"/>
<path d="M19.6553 18.9587L20.8072 16.8521C21.0226 16.4575 21.5895 16.4575 21.805 16.8521L22.9569 18.9587C23.0091 19.0539 23.0873 19.1322 23.1825 19.1843L25.2891 20.3363C25.6837 20.5517 25.6837 21.1186 25.2891 21.334L23.1825 22.486C23.0873 22.5381 23.0091 22.6164 22.9569 22.7116L21.805 24.8182C21.5895 25.2128 21.0226 25.2128 20.8072 24.8182L19.6553 22.7116C19.6031 22.6164 19.5249 22.5381 19.4296 22.486L17.323 21.334C16.9285 21.1186 16.9285 20.5517 17.323 20.3363L19.4296 19.1843C19.5249 19.1322 19.6031 19.0539 19.6553 18.9587Z" fill="white"/>
<defs>
<linearGradient id="paint0_linear_60_1086" x1="0.866174" y1="16.0011" x2="32.8715" y2="16.0011" gradientUnits="userSpaceOnUse">
<stop stop-color="#00D0D1"/>
<stop offset="1" stop-color="#2AFFC0"/>
</linearGradient>
</defs>
</svg>
