<svg width="33" height="32" viewBox="0 0 33 32" fill="none" xmlns="http://www.w3.org/2000/svg">
<circle cx="16.4657" cy="15.6" r="15.6" fill="url(#paint0_linear_60_1122)"/>
<path opacity="0.4" d="M11.3945 7.92879L17.9355 14.4697C18.5597 15.094 18.5597 16.1061 17.9355 16.7303L11.3945 23.2712C10.3876 24.2782 8.66577 23.565 8.66577 22.1409V9.05908C8.66577 7.63499 10.3876 6.9218 11.3945 7.92879Z" fill="white"/>
<path opacity="0.7" d="M15.2944 7.92879L21.8354 14.4697C22.4596 15.094 22.4596 16.1061 21.8354 16.7303L15.2945 23.2712C14.2875 24.2782 12.5657 23.565 12.5657 22.1409V9.05908C12.5657 7.63499 14.2875 6.9218 15.2944 7.92879Z" fill="white"/>
<path d="M19.1946 7.92879L25.7355 14.4697C26.3598 15.094 26.3598 16.1061 25.7355 16.7303L19.1946 23.2712C18.1876 24.2782 16.4658 23.565 16.4658 22.1409V9.05908C16.4658 7.63499 18.1876 6.9218 19.1946 7.92879Z" fill="white"/>
<defs>
<linearGradient id="paint0_linear_60_1122" x1="-2.84557" y1="-6.33268" x2="56.7639" y2="35.4531" gradientUnits="userSpaceOnUse">
<stop offset="0.11138" stop-color="#8936F1"/>
<stop offset="0.857227" stop-color="#D87DFB"/>
</linearGradient>
</defs>
</svg>
