<svg width="33" height="32" viewBox="0 0 33 32" fill="none" xmlns="http://www.w3.org/2000/svg">
<path d="M16.8656 32C25.7022 32 32.8656 24.8366 32.8656 16C32.8656 7.16344 25.7022 0 16.8656 0C8.02905 0 0.865601 7.16344 0.865601 16C0.865601 24.8366 8.02905 32 16.8656 32Z" fill="#FF0420"/>
<path d="M12.2021 20.2528C11.2494 20.2528 10.4688 20.0286 9.86039 19.5803C9.25994 19.1239 8.95972 18.4755 8.95972 17.6349C8.95972 17.4587 8.97975 17.2425 9.01975 16.9863C9.12388 16.41 9.27197 15.7174 9.4641 14.9088C10.0085 12.7072 11.4135 11.6064 13.6792 11.6064C14.2957 11.6064 14.848 11.7105 15.3364 11.9186C15.8248 12.1188 16.2091 12.423 16.4893 12.8313C16.7694 13.2316 16.9096 13.712 16.9096 14.2724C16.9096 14.4405 16.8896 14.6527 16.8495 14.9088C16.7294 15.6214 16.5853 16.3139 16.4172 16.9863C16.137 18.0832 15.6526 18.9038 14.9641 19.4482C14.2756 19.9846 13.355 20.2528 12.2021 20.2528ZM12.3702 18.5235C12.8186 18.5235 13.1988 18.3914 13.5111 18.1272C13.8313 17.863 14.0595 17.4587 14.1956 16.9143C14.3797 16.1618 14.5198 15.5053 14.6159 14.9449C14.6479 14.7767 14.6639 14.6047 14.6639 14.4285C14.6639 13.6999 14.2836 13.3357 13.5231 13.3357C13.0747 13.3357 12.6905 13.4678 12.3702 13.7319C12.058 13.9962 11.8338 14.4005 11.6978 14.9449C11.5536 15.4813 11.4095 16.1378 11.2654 16.9143C11.2334 17.0744 11.2174 17.2425 11.2174 17.4187C11.2174 18.1552 11.6017 18.5235 12.3702 18.5235Z" fill="white"/>
<path d="M17.4609 20.1325C17.3729 20.1325 17.3048 20.1044 17.2568 20.0484C17.2167 19.9843 17.2047 19.9123 17.2207 19.8322L18.8779 12.0265C18.8939 11.9384 18.938 11.8664 19.01 11.8103C19.0821 11.7543 19.1581 11.7263 19.2382 11.7263H22.4326C23.3212 11.7263 24.0337 11.9104 24.5701 12.2786C25.1146 12.647 25.3867 13.1793 25.3867 13.8758C25.3867 14.076 25.3627 14.2841 25.3147 14.5003C25.1146 15.421 24.7103 16.1015 24.1018 16.5418C23.5014 16.9821 22.6767 17.2023 21.628 17.2023H20.0068L19.4544 19.8322C19.4383 19.9203 19.3943 19.9923 19.3223 20.0484C19.2502 20.1044 19.1741 20.1325 19.0941 20.1325H17.4609ZM21.7121 15.5451C22.0482 15.5451 22.3405 15.453 22.5887 15.2688C22.8449 15.0847 23.013 14.8205 23.093 14.4763C23.117 14.3401 23.1291 14.2201 23.1291 14.116C23.1291 13.8838 23.061 13.7077 22.9249 13.5876C22.7888 13.4595 22.5567 13.3955 22.2284 13.3955H20.7873L20.331 15.5451H21.7121Z" fill="white"/>
</svg>
