<svg width="33" height="32" viewBox="0 0 33 32" fill="none" xmlns="http://www.w3.org/2000/svg">
<path d="M32.8657 16C32.8657 24.8366 25.7023 32 16.8657 32C8.02917 32 0.865723 24.8366 0.865723 16C0.865723 7.16344 8.02917 0 16.8657 0C25.7023 0 32.8657 7.16344 32.8657 16Z" fill="url(#paint0_linear_60_1097)"/>
<path opacity="0.8" fill-rule="evenodd" clip-rule="evenodd" d="M11.9444 8C10.9804 8 10.199 8.78147 10.199 9.74545V22.2545C10.199 23.2185 10.9804 24 11.9444 24H21.7869C22.7508 24 23.5323 23.2185 23.5323 22.2545V9.74545C23.5323 8.78147 22.7508 8 21.7869 8H11.9444ZM13.2778 9.33333C12.3139 9.33333 11.5324 10.1148 11.5324 11.0788V16.9212C11.5324 17.8852 12.3139 18.6667 13.2778 18.6667H20.4536C21.4176 18.6667 22.1991 17.8852 22.1991 16.9212V11.0788C22.1991 10.1148 21.4176 9.33333 20.4536 9.33333H13.2778Z" fill="white"/>
<path opacity="0.8" d="M15.5798 12.5383L16.4772 10.8972C16.645 10.5898 17.0866 10.5898 17.2544 10.8972L18.1518 12.5383C18.1924 12.6125 18.2534 12.6734 18.3276 12.714L19.9686 13.6114C20.276 13.7792 20.276 14.2208 19.9686 14.3886L18.3276 15.286C18.2534 15.3266 18.1924 15.3876 18.1518 15.4618L17.2544 17.1028C17.0866 17.4102 16.645 17.4102 16.4772 17.1028L15.5798 15.4618C15.5392 15.3876 15.4782 15.3266 15.404 15.286L13.763 14.3886C13.4556 14.2208 13.4556 13.7792 13.763 13.6114L15.404 12.714C15.4782 12.6734 15.5392 12.6125 15.5798 12.5383Z" fill="white"/>
<defs>
<linearGradient id="paint0_linear_60_1097" x1="0.866174" y1="16.0011" x2="32.8715" y2="16.0011" gradientUnits="userSpaceOnUse">
<stop stop-color="#00FDFE"/>
<stop offset="1" stop-color="#0085FF"/>
</linearGradient>
</defs>
</svg>
