<svg width="33" height="32" viewBox="0 0 33 32" fill="none" xmlns="http://www.w3.org/2000/svg">
<circle cx="16.8656" cy="16" r="16" fill="#283141"/>
<path d="M16.9935 19.4793L20.2483 24.6183L23.2551 22.8654L18.9804 16.0876L16.9935 19.4793Z" fill="#2C97E7"/>
<path d="M25.9932 20.8038L25.991 19.3993L21.3202 12.0809L19.5873 15.0389L24.0963 22.3748L25.7267 21.4244C25.8866 21.2937 25.9833 21.102 25.9935 20.8952L25.9932 20.8038Z" fill="#2C97E7"/>
<path d="M6.41992 21.2881C6.41992 21.8084 6.69704 22.2894 7.14721 22.5503L8.72218 23.4633L16.3836 11.1033L15.0833 11.0688C13.9754 11.053 12.782 11.3428 12.2342 12.2422L7.88359 19.0258L6.41992 21.2881V21.2881Z" fill="white"/>
<path d="M20.8055 11.103L17.3785 11.1155L9.62537 23.986L12.3353 25.5556L13.0723 24.2983L20.8055 11.103Z" fill="white"/>
<path d="M27.4371 11.0853C27.4084 10.3644 27.0204 9.70437 26.4126 9.32013L17.893 4.39155C17.2918 4.087 16.5406 4.08661 15.9383 4.39135C15.8671 4.42748 7.65328 9.21955 7.65328 9.21955C7.5396 9.27441 7.4301 9.33973 7.32711 9.4139C6.78451 9.80509 6.45377 10.413 6.4198 11.0809V21.2879L7.88347 19.0256L7.87068 11.1499C7.87238 11.1211 7.87598 11.0927 7.88108 11.0647C7.91418 10.8794 8.01703 10.7141 8.17187 10.6024C8.21051 10.5746 16.5647 5.71007 16.5912 5.69672C16.7875 5.59752 17.0371 5.59635 17.2337 5.69364L25.643 10.5595C25.842 10.687 25.9667 10.9031 25.9778 11.1394V20.8954C25.9676 21.1023 25.8863 21.294 25.7264 21.4247L24.0961 22.375L23.2549 22.8655L20.2481 24.6183L17.1989 26.3959C17.0347 26.4556 16.8427 26.4522 16.6798 26.3857L13.0721 24.2983L12.3352 25.5557L15.5773 27.4334C15.6845 27.4948 15.78 27.5491 15.8584 27.5934C15.9797 27.6618 16.0624 27.7077 16.0917 27.7219C16.3221 27.8345 16.6537 27.9 16.9524 27.9C17.2263 27.9 17.4935 27.8494 17.7462 27.7498L26.6028 22.5902C27.1111 22.194 27.4102 21.5965 27.4371 20.9492V11.0853Z" fill="#8DB4D4"/>
</svg>
