<svg width="33" height="32" viewBox="0 0 33 32" fill="none" xmlns="http://www.w3.org/2000/svg">
<path d="M32.8657 16C32.8657 24.8366 25.7023 32 16.8657 32C8.02917 32 0.865723 24.8366 0.865723 16C0.865723 7.16344 8.02917 0 16.8657 0C25.7023 0 32.8657 7.16344 32.8657 16Z" fill="url(#paint0_linear_60_1054)"/>
<path opacity="0.8" fill-rule="evenodd" clip-rule="evenodd" d="M12.6112 8C11.6472 8 10.8657 8.78147 10.8657 9.74545V22.9212C10.8657 23.8852 11.6472 24.6667 12.6112 24.6667H20.4536C21.4176 24.6667 22.1991 23.8852 22.1991 22.9212V9.74545C22.1991 8.78147 21.4176 8 20.4536 8H12.6112ZM17.454 12.4363C17.203 11.9657 16.5285 11.9657 16.2775 12.4363L14.3664 16.0196C14.2618 16.2157 14.2618 16.451 14.3664 16.6471L16.2775 20.2304C16.5285 20.701 17.203 20.701 17.454 20.2304L19.3651 16.6471C19.4696 16.451 19.4696 16.2157 19.3651 16.0196L17.454 12.4363Z" fill="white"/>
<path opacity="0.3" fill-rule="evenodd" clip-rule="evenodd" d="M19.2779 5.33331C18.3139 5.33331 17.5325 6.11478 17.5325 7.07877V12.583L19.3653 16.0195C19.4699 16.2156 19.4699 16.4509 19.3653 16.647L17.692 19.7845C17.9683 20.3839 18.5745 20.8 19.2779 20.8H26.0981C27.0621 20.8 27.8436 20.0185 27.8436 19.0545V7.07877C27.8436 6.11478 27.0621 5.33331 26.0981 5.33331H19.2779Z" fill="white"/>
<path opacity="0.6" fill-rule="evenodd" clip-rule="evenodd" d="M7.27793 10.6667C6.31394 10.6667 5.53247 11.4482 5.53247 12.4121V24.3879C5.53247 25.3519 6.31394 26.1334 7.27793 26.1334H14.0981C15.0621 26.1334 15.8436 25.3519 15.8436 24.3879V19.4164L14.3666 16.6471C14.262 16.451 14.262 16.2157 14.3666 16.0197L15.8436 13.2504V12.4121C15.8436 11.4482 15.0621 10.6667 14.0981 10.6667H7.27793Z" fill="white"/>
<defs>
<linearGradient id="paint0_linear_60_1054" x1="0.865723" y1="0.666667" x2="32.1991" y2="32" gradientUnits="userSpaceOnUse">
<stop stop-color="#0A8AC8"/>
<stop offset="1" stop-color="#95E7F9"/>
</linearGradient>
</defs>
</svg>
