<svg width="39" height="39" viewBox="0 0 39 39" fill="none" xmlns="http://www.w3.org/2000/svg">
<circle cx="19.5" cy="19.5" r="19.5" fill="url(#paint0_linear_1003_1750)"/>
<path opacity="0.75" fill-rule="evenodd" clip-rule="evenodd" d="M17.754 11.8943C18.1242 11.3358 18.7496 11 19.4196 11H19.5835C20.2511 11 20.8746 11.3334 21.2453 11.8887L21.912 12.8873C22.0536 13.0977 22.244 13.2628 22.4609 13.3701C22.6766 13.4761 22.9188 13.5254 23.1651 13.5071L24.3163 13.4186C24.9827 13.3673 25.6306 13.6527 26.0427 14.1789L26.1917 14.3692C26.5906 14.8787 26.7181 15.5498 26.5338 16.1701L26.1739 17.3814C26.1026 17.6245 26.0992 17.8756 26.1555 18.1126C26.2128 18.3513 26.3309 18.5759 26.5001 18.7639L27.3332 19.7111C27.7524 20.1877 27.9202 20.8352 27.7853 21.4554L27.7201 21.755C27.5806 22.3964 27.135 22.9283 26.5281 23.1781L25.4288 23.6304C25.1995 23.7251 25.0027 23.8781 24.8543 24.0703C24.7048 24.2644 24.6042 24.4984 24.5663 24.7513L24.3983 25.9265C24.3057 26.5747 23.9013 27.1363 23.316 27.4299L23.1338 27.5213C22.5373 27.8204 21.8308 27.802 21.2507 27.4723L20.1949 26.8721C20.0908 26.8115 19.9809 26.7653 19.868 26.7335C19.7466 26.6993 19.622 26.682 19.4975 26.6818C19.258 26.6821 19.0185 26.7455 18.8039 26.8721L17.8178 27.4514C17.2406 27.7904 16.532 27.8179 15.9302 27.5246L15.7504 27.4369C15.1622 27.1502 14.7517 26.5936 14.6514 25.947L14.4611 24.7193C14.4215 24.4678 14.3195 24.2356 14.1697 24.0431C14.0189 23.8513 13.8197 23.6989 13.5891 23.6052L12.5211 23.1942C11.9011 22.9556 11.4402 22.4244 11.2914 21.777L11.2302 21.5109C11.0857 20.8819 11.2538 20.2219 11.6817 19.7387L12.499 18.8157C12.6652 18.6283 12.7771 18.3969 12.8293 18.1519C12.8808 17.9039 12.8716 17.6414 12.7996 17.3963L12.4404 16.2349C12.2472 15.6099 12.3721 14.9298 12.7749 14.4143L12.948 14.1928C13.3552 13.6717 13.9939 13.3859 14.6538 13.4294L15.8333 13.5071C16.3287 13.5439 16.7954 13.3378 17.0762 12.9171L17.754 11.8943ZM19.5001 23C21.4331 23 23.0001 21.433 23.0001 19.5C23.0001 17.567 21.4331 16 19.5001 16C17.5671 16 16.0001 17.567 16.0001 19.5C16.0001 21.433 17.5671 23 19.5001 23Z" fill="white"/>
<circle opacity="0.75" cx="19.5" cy="19.5" r="13.5009" stroke="white" stroke-width="1.9981"/>
<defs>
<linearGradient id="paint0_linear_1003_1750" x1="0" y1="0" x2="47.5817" y2="34.9912" gradientUnits="userSpaceOnUse">
<stop offset="0.24238" stop-color="#FFBB36"/>
<stop offset="1" stop-color="#F13F3F"/>
</linearGradient>
</defs>
</svg>
