<?xml version="1.0" encoding="UTF-8"?>
<svg width="24px" height="24px" viewBox="0 0 24 24" version="1.1" xmlns="http://www.w3.org/2000/svg" xmlns:xlink="http://www.w3.org/1999/xlink">
    <!-- Generator: Sketch 52.2 (67145) - http://www.bohemiancoding.com/sketch -->
    <title>icon_twitter</title>
    <desc>Created with Sketch.</desc>
    <g id="页面-1" stroke="none" stroke-width="1" fill="none" fill-rule="evenodd">
        <g id="桌面端-HD" transform="translate(-32.000000, -980.000000)" fill-rule="nonzero">
            <g id="编组-5" transform="translate(32.000000, 980.000000)">
                <g id="编组-3">
                    <g id="icon_twitter">
                        <path d="M12.0001743,23.9996514 C18.6274439,23.9996514 24,18.6274707 24,11.9998257 C24,5.37290463 18.6274707,0 12.0001743,0 C5.3726097,0 0,5.37290463 0,11.9998257 C0,18.6274439 5.37263651,23.9996514 12.0001743,23.9996514" id="路径" fill="#000000"></path>
                        <path d="M18.0203971,8.85627179 C17.5784442,9.0522808 17.1026949,9.18490181 16.6041637,9.24447503 C17.1137039,8.93925979 17.5047358,8.45629279 17.6883084,7.88059169 C17.2115724,8.16310267 16.6844624,8.3681167 16.1218562,8.47833749 C15.6729858,7.99913219 15.0315073,7.69976461 14.3218676,7.69976461 C12.9607298,7.69976461 11.8565459,8.80422465 11.8565459,10.1657164 C11.8565459,10.3593096 11.8775744,10.5470558 11.9199881,10.7272528 C9.87051268,10.6242519 8.05393559,9.64346467 6.83678539,8.15039385 C6.624552,8.51586602 6.50291098,8.93926247 6.50291098,9.3913181 C6.50291098,10.2460151 6.93838617,11.0011732 7.6001774,11.4438394 C7.1960533,11.4314859 6.81540027,11.319508 6.48259565,11.1358813 L6.48259565,11.1662159 C6.48259565,12.3616244 7.3324907,13.3582767 8.4614353,13.5842657 C8.25436292,13.6421899 8.03669289,13.6711245 7.8113394,13.6711245 L7.81133928,13.6711245 C7.6557349,13.6713264 7.50046674,13.6566829 7.34764463,13.627393 C7.66112059,14.6067517 8.57171227,15.3202898 9.65097187,15.3392055 C8.8070076,16.0009968 7.7434517,16.3951281 6.58830925,16.3951281 C6.38919811,16.3951281 6.19250217,16.3841198 5.99986984,16.3610599 C7.0912886,17.0600499 8.38766509,17.4686221 9.78012449,17.4686221 C14.3169288,17.4686221 16.7967288,13.7114256 16.7967288,10.4520714 C16.7967288,10.3448977 16.794615,10.238136 16.7901677,10.1330212 C17.2730301,9.78412954 17.6896539,9.35175112 18.020386,8.85627103" id="路径" fill="#FFFFFF"></path>
                    </g>
                </g>
            </g>
        </g>
    </g>
</svg>