<?xml version="1.0" encoding="UTF-8"?>
<svg width="28px" height="24px" viewBox="0 0 28 24" version="1.1" xmlns="http://www.w3.org/2000/svg" xmlns:xlink="http://www.w3.org/1999/xlink">
    <!-- Generator: Sketch 52.2 (67145) - http://www.bohemiancoding.com/sketch -->
    <title>编组</title>
    <desc>Created with Sketch.</desc>
    <defs>
        <polygon id="path-1" points="2.73187504e-16 0 27.0252782 0 27.0252782 24 2.73187504e-16 24"></polygon>
    </defs>
    <g id="页面-1" stroke="none" stroke-width="1" fill="none" fill-rule="evenodd">
        <g id="桌面端-HD备份" transform="translate(-359.000000, -1238.000000)">
            <g id="编组-5" transform="translate(359.000000, 1074.000000)">
                <g id="编组" transform="translate(0.000000, 164.000000)">
                    <mask id="mask-2" fill="white">
                        <use xlink:href="#path-1"></use>
                    </mask>
                    <g id="Clip-2"></g>
                    <path d="M3.33910318,3.42762606 C1.21604143,5.55255482 1.21088329,9.03416532 3.29047696,11.3518371 L3.52162959,11.5950359 L13.4680144,21.5432502 L15.929899,19.0797028 L9.79000058,12.9380733 L11.0183469,11.7079984 L17.1582453,17.8513226 L18.9999343,16.0098065 L15.3165932,12.3230328 L16.5466681,11.094791 L20.2298739,14.7797254 L21.4530282,13.5565403 L16.3625497,8.46602485 L14.0883453,10.7386298 L9.96719845,6.61574817 L12.239668,4.34327858 L11.5065407,3.61015739 C9.19590021,1.29937541 5.5386845,1.22991114 3.34083363,3.42762606 L3.33910318,3.42762606 Z M12.4256566,6.61574817 L14.0900801,8.2802024 L15.9316276,6.43851955 L15.9611862,6.46980677 L16.3921021,6.03902002 L22.6814114,12.3283293 L23.6091458,11.4021883 C25.7272831,9.28506594 25.824196,5.88249165 23.8298111,3.64832829 L23.6091458,3.41558115 C21.4917466,1.29886482 18.0903534,1.20286855 15.8569775,3.19657677 L15.6241258,3.41558115 L12.423928,6.61748293 L12.4256566,6.61574817 Z M13.4680144,24.0000102 L2.29328328,12.8250739 C-0.686353138,9.84551071 -0.778448045,5.08862306 2.11075686,2.19942123 C4.91502675,-0.604715782 9.47730678,-0.599560712 12.4691241,2.12635825 L12.7366218,2.38181108 L13.4680144,3.11493226 L14.395884,2.18720408 C17.2262455,-0.669935424 21.8227292,-0.736342332 24.7346367,2.03783006 C27.6465073,4.81186097 27.8026728,9.4062101 25.0858828,12.3716615 L24.8392207,12.6305346 L13.4680144,24.0000102 Z" id="Fill-1" fill="#000102" mask="url(#mask-2)"></path>
                </g>
            </g>
        </g>
    </g>
</svg>