<?xml version="1.0" encoding="UTF-8"?>
<svg width="25px" height="24px" viewBox="0 0 25 24" version="1.1" xmlns="http://www.w3.org/2000/svg" xmlns:xlink="http://www.w3.org/1999/xlink">
    <!-- Generator: Sketch 52.2 (67145) - http://www.bohemiancoding.com/sketch -->
    <title>编组 2</title>
    <desc>Created with Sketch.</desc>
    <g id="页面-1" stroke="none" stroke-width="1" fill="none" fill-rule="evenodd">
        <g id="桌面端-HD" transform="translate(-67.000000, -980.000000)">
            <g id="编组-5" transform="translate(32.000000, 980.000000)">
                <g id="编组-3">
                    <g id="编组-2" transform="translate(35.368421, 0.000000)">
                        <circle id="椭圆形" fill="#000000" cx="12" cy="12" r="12"></circle>
                        <g id="medium" transform="translate(5.052632, 8.210526)" fill="#FFFFFF" fill-rule="nonzero">
                            <path d="M3.91875,0 C1.75449276,0 0,1.76660724 0,3.94562763 C0,6.12464803 1.75462303,7.89125526 3.91875,7.89125526 C6.08287697,7.89125526 7.8375,6.12477829 7.8375,3.94562763 C7.8375,1.76647697 6.08309408,0 3.91875,0 Z M10.1768092,0.231130263 C9.09464803,0.231130263 8.21754276,1.89456908 8.21754276,3.94569276 C8.21754276,5.99681645 9.09477829,7.66036382 10.1769395,7.66036382 C11.2591007,7.66036382 12.1363362,5.996925 12.1363362,3.94569276 L12.1361842,3.94569276 C12.1361842,1.89398289 11.2590789,0.231130263 10.1768526,0.231130263 L10.1768092,0.231130263 Z M13.2055579,0.618033553 C12.8250592,0.618033553 12.5165743,2.10798355 12.5165743,3.94569276 C12.5165743,5.78340197 12.8248638,7.27335197 13.2055579,7.27335197 C13.586252,7.27335197 13.8947368,5.78301118 13.8947368,3.94562763 C13.8947368,2.10785329 13.5861217,0.618033553 13.2056013,0.618033553 L13.2055579,0.618033553 Z" id="形状"></path>
                        </g>
                    </g>
                </g>
            </g>
        </g>
    </g>
</svg>