<?xml version="1.0" encoding="UTF-8"?>
<svg width="25px" height="24px" viewBox="0 0 25 24" version="1.1" xmlns="http://www.w3.org/2000/svg" xmlns:xlink="http://www.w3.org/1999/xlink">
    <!-- Generator: Sketch 52.2 (67145) - http://www.bohemiancoding.com/sketch -->
    <title>编组</title>
    <desc>Created with Sketch.</desc>
    <defs>
        <polygon id="path-1" points="0 0 24.2635267 0 24.2635267 24 0 24"></polygon>
    </defs>
    <g id="页面-1" stroke="none" stroke-width="1" fill="none" fill-rule="evenodd">
        <g id="桌面端-HD备份" transform="translate(-361.000000, -1139.000000)">
            <g id="编组-5" transform="translate(359.000000, 1074.000000)">
                <g id="编组" transform="translate(2.000000, 65.000000)">
                    <mask id="mask-2" fill="white">
                        <use xlink:href="#path-1"></use>
                    </mask>
                    <g id="Clip-2"></g>
                    <path d="M5.48381324,10.5637034 C5.48433878,10.5516438 5.48562047,10.5396867 5.48562047,10.5274961 L5.48562047,1.73639459 L18.7738348,1.73639459 L18.7738348,10.4293226 C18.7702249,10.461026 18.7684825,10.4928661 18.7683174,10.524672 C18.7683174,14.187528 15.7883149,17.167428 12.1255557,17.167428 C8.47580699,17.167428 5.50487427,14.2085554 5.48381324,10.5637034 M18.0526729,16.444985 C19.6036241,14.8919954 20.4677133,12.840548 20.4986651,10.6559611 C20.5054636,10.6131204 20.5099959,10.5693517 20.5100984,10.524541 L20.5100984,0 L3.75218612,0 L3.75218612,10.4675682 C3.750905,10.4865573 3.74936082,10.5054153 3.74936082,10.524672 C3.74936082,14.8435008 7.03384202,18.4087742 11.2360036,18.8557185 L11.2360036,22.2665665 L5.15396836,22.2665665 C4.67590882,22.2665665 4.28715296,22.6554539 4.28715296,23.1332834 C4.28715296,23.6109812 4.67590882,23.9998686 5.15396836,23.9998686 L12.9695683,23.9998686 L12.9695683,18.8616988 C14.8889352,18.6712636 16.6693547,17.830074 18.0526729,16.444985" id="Fill-1" fill="#231916" mask="url(#mask-2)"></path>
                    <path d="M19.9937847,23.1141605 C19.9937847,23.6034571 19.597173,24 19.1079108,24 L14.0898927,24 C13.6006305,24 13.204053,23.6032928 13.204053,23.1140296 C13.204053,22.6247987 13.6006305,22.2281898 14.0898927,22.2281898 L19.1079108,22.2281898 C19.3428965,22.2281898 19.5682937,22.321502 19.7343495,22.4877548 C19.9004395,22.6539091 19.9937847,22.879205 19.9937847,23.1141605 Z M4.35144293,11.9291486 C1.94987539,11.9291486 -0.00395918762,9.97537937 -0.00395918762,7.57377652 C-0.00395918762,5.17217937 1.94987539,3.21837603 4.35144293,3.21837603 L4.62056904,3.21837603 L4.62056904,4.95180981 L4.35144293,4.95180981 C2.90727558,4.95180981 1.73246493,6.12668708 1.73246493,7.57095237 C1.73246493,9.0150867 2.90727558,10.189964 4.35144293,10.189964 L4.62056904,10.189964 L4.62056904,11.9291486 L4.35144293,11.9291486 Z M19.6390001,11.9291486 L19.6390001,10.1957432 L19.9081604,10.1957432 C21.3522947,10.1957432 22.5273997,9.02087166 22.5273997,7.57673733 C22.5273997,6.13256884 21.3525224,4.95759478 19.9081604,4.95759478 L19.6390001,4.95759478 L19.6390001,3.22416099 L19.9081604,3.22416099 C22.309729,3.22416099 24.2635267,5.17795864 24.2635267,7.57943053 C24.2605716,9.97807257 22.3066714,11.9291486 19.9081604,11.9291486 L19.6390001,11.9291486 Z M13.2324084,8.87981761 L13.4998605,10.4335588 L12.1055361,9.70211383 L10.7113085,10.4335588 L10.9788289,8.87981761 L9.8519566,7.78425584 L11.4083568,7.55669494 L12.1056329,6.14528323 L12.8028464,7.55669494 L14.3591498,7.78425584 L13.2324084,8.87981761 Z M15.7308069,7.3432605 C15.613707,6.97953657 15.3004193,6.71372999 14.9225745,6.65738353 L13.5937295,6.46386053 L12.9989316,5.2574051 C12.8296588,4.91780606 12.4829879,4.70295955 12.1036002,4.70229907 C11.72411,4.70167843 11.3767843,4.91550574 11.2063272,5.25458095 L10.611757,6.45820653 L9.28850336,6.65172952 C8.90973055,6.70344687 8.59362439,6.96682218 8.47438922,7.33005074 C8.35505156,7.6933761 8.4536237,8.09281194 8.7280394,8.35897723 L9.68984095,9.29512224 L9.46211492,10.621331 C9.39859989,10.9963572 9.55299466,11.3750902 9.86066252,11.5988077 C10.1683247,11.8226278 10.5760736,11.8529191 10.9134748,11.6770699 L12.1028429,11.0538539 L13.2950352,11.6770699 C13.4377633,11.7532025 13.5971459,11.7923307 13.7588686,11.7909187 C14.0532926,11.790429 14.3324399,11.6600224 14.5217608,11.4345284 C14.711076,11.2090002 14.7911488,10.9115187 14.7405816,10.6214619 L14.5129182,9.29820831 L15.4689405,8.36758635 C15.7465448,8.10526442 15.8484991,7.70661433 15.7308069,7.3432605 Z" id="Fill-3" fill="#231916" mask="url(#mask-2)"></path>
                </g>
            </g>
        </g>
    </g>
</svg>