<?xml version="1.0" encoding="UTF-8"?>
<svg width="26px" height="24px" viewBox="0 0 26 24" version="1.1" xmlns="http://www.w3.org/2000/svg" xmlns:xlink="http://www.w3.org/1999/xlink">
    <!-- Generator: Sketch 52.2 (67145) - http://www.bohemiancoding.com/sketch -->
    <title>编组</title>
    <desc>Created with Sketch.</desc>
    <defs>
        <polygon id="path-1" points="9.38608359e-16 0 25.4399418 0 25.4399418 24 9.38608359e-16 24"></polygon>
    </defs>
    <g id="页面-1" stroke="none" stroke-width="1" fill="none" fill-rule="evenodd">
        <g id="桌面端-HD备份" transform="translate(-360.000000, -1385.000000)">
            <g id="编组-5" transform="translate(359.000000, 1074.000000)">
                <g id="编组" transform="translate(1.000000, 311.000000)">
                    <mask id="mask-2" fill="white">
                        <use xlink:href="#path-1"></use>
                    </mask>
                    <g id="Clip-2"></g>
                    <path d="M16.3199946,0 C18.8799797,0 20.8000265,1.76001297 20.8000265,4.48003197 C20.8000265,6.7199553 18.8799797,9.11995298 17.4400749,10.4000151 C16.4800284,11.3600616 14.8800434,12.3200618 12.7999686,13.4399511 C10.719888,12.3200618 9.11994939,11.3600616 8.15990284,10.4000151 C6.55991789,8.96006393 4.7999055,6.7199553 4.7999055,4.48003197 C4.7999055,1.76001297 6.71995171,0 9.27998321,0 C10.719888,0 11.8399684,0.639938386 12.7999686,1.76001297 C13.7600152,0.639938386 14.8800434,0 16.3199946,0 Z M8.00006011,19.840031 C3.68006197,18.2400467 0.639937118,14.2399233 9.38608359e-16,9.60004864 L3.19996804,9.60004864 C3.84009289,13.5999849 7.04005988,16.7999085 11.0399962,17.4400785 L11.0399962,24 L8.00006011,24 L8.00006011,19.840031 Z M17.5999177,19.840031 L17.5999177,24 L14.3999478,24 L14.3999478,17.4400785 C18.4000752,16.7999085 21.6000451,13.5999849 22.2399777,9.60004864 L25.4399475,9.60004864 C24.9599966,14.2399233 21.7600731,18.2400467 17.5999177,19.840031 Z" id="Fill-1" fill="#231916" mask="url(#mask-2)"></path>
                </g>
            </g>
        </g>
    </g>
</svg>