<?xml version="1.0" encoding="UTF-8"?>
<svg width="25px" height="24px" viewBox="0 0 25 24" version="1.1" xmlns="http://www.w3.org/2000/svg" xmlns:xlink="http://www.w3.org/1999/xlink">
    <!-- Generator: Sketch 52.2 (67145) - http://www.bohemiancoding.com/sketch -->
    <title>linkin</title>
    <desc>Created with Sketch.</desc>
    <g id="页面-1" stroke="none" stroke-width="1" fill="none" fill-rule="evenodd">
        <g id="桌面端-HD" transform="translate(-102.000000, -980.000000)" fill="#000000" fill-rule="nonzero">
            <g id="编组-5" transform="translate(32.000000, 980.000000)">
                <g id="编组-3">
                    <g id="linkin" transform="translate(70.736842, 0.000000)">
                        <path d="M14.0668643,9.33931125 L14.0668643,9.23931125 C14.0407363,9.27330029 14.0012222,9.31019161 13.9668643,9.339279 L14.0668643,9.339279 L14.0668643,9.33931125 Z M11.9991094,2.3943719e-15 C5.37305352,2.28766621e-15 0,5.37282162 0,11.9999978 C0,18.6264474 5.37303009,23.999269 11.999461,23.999269 C18.6266184,23.999269 24,18.6264474 24,11.9999978 C23.9996484,5.37282162 18.6266418,-2.70667777e-16 11.9991094,2.3943719e-15 Z M8.72400223,17.7344582 L6.15160103,17.7344582 L6.15160103,9.99758758 L8.72400223,9.99758758 L8.72400223,17.7344582 Z M7.43849301,8.93974674 L7.42086853,8.93974674 C6.55799537,8.93974674 5.99989453,8.34518889 5.99989453,7.60210293 C5.99989453,6.8438266 6.57564329,6.26516239 7.45438317,6.26516239 C8.33490425,6.26516239 8.87676338,6.8438266 8.8926301,7.60210293 C8.8926301,8.34521233 8.33490425,8.93974674 7.43851645,8.93974674 L7.43849301,8.93974674 Z M17.9997305,17.7344582 L15.4269777,17.7344582 L15.4269777,13.5941433 C15.4269777,12.5550091 15.0548011,11.8450935 14.123844,11.8450935 C13.4151382,11.8450935 12.9903929,12.3253016 12.8041405,12.7854199 C12.7367597,12.9512716 12.7191117,13.178846 12.7191117,13.4120932 L12.7191117,17.7341066 L10.1491948,17.7341066 C10.1491948,17.7341066 10.1813033,10.7223185 10.1491948,9.99723595 L12.7191117,9.99723595 L12.7191117,11.0924432 C13.0627189,10.5635463 13.6730135,9.8148108 15.0378797,9.8148108 C16.7297833,9.8148108 18.000082,10.9192073 18.000082,13.2959853 L17.9997305,17.7344817 L17.9997305,17.7344582 Z" id="形状"></path>
                    </g>
                </g>
            </g>
        </g>
    </g>
</svg>