<?xml version="1.0" encoding="UTF-8"?>
<svg width="25px" height="24px" viewBox="0 0 25 24" version="1.1" xmlns="http://www.w3.org/2000/svg" xmlns:xlink="http://www.w3.org/1999/xlink">
    <!-- Generator: Sketch 52.2 (67145) - http://www.bohemiancoding.com/sketch -->
    <title>编组</title>
    <desc>Created with Sketch.</desc>
    <defs>
        <polygon id="path-1" points="0 -3.71940821e-15 25.0079117 -3.71940821e-15 25.0079117 9.57483533 0 9.57483533"></polygon>
    </defs>
    <g id="页面-1" stroke="none" stroke-width="1" fill="none" fill-rule="evenodd">
        <g id="桌面端-HD备份" transform="translate(-360.000000, -1186.000000)">
            <g id="编组-5" transform="translate(359.000000, 1074.000000)">
                <g id="编组" transform="translate(1.000000, 112.000000)">
                    <g transform="translate(0.000000, 14.425165)">
                        <mask id="mask-2" fill="white">
                            <use xlink:href="#path-1"></use>
                        </mask>
                        <g id="Clip-2"></g>
                        <path d="M24.7985091,1.94033593 C24.6147013,1.75664852 23.7950726,1.17720952 23.3852609,1.23371182 C22.735139,1.29021411 22.268825,1.34683156 22.0850172,1.41740446 C22.6221344,1.12059207 21.321896,0.300968609 20.9119639,0.413967956 C20.4456499,0.470470247 20.205345,0.527092933 19.4422186,0.710780341 C20.0358382,0.470470247 18.7922119,-0.0524612275 18.4387873,0.0042713856 C17.9019004,0.117160806 14.73605,1.17720952 14.73605,1.17720952 L16.9125345,1.17720952 C17.2093469,1.17720952 18.0288552,1.71421161 18.6224748,2.47745318 C19.2160943,3.12745984 19.2160943,3.42426699 18.8062826,3.65039132 C17.1527295,4.30051314 13.8598038,5.30394493 12.3335562,5.77026 C11.7965542,5.88326406 7.79700962,4.52663642 7.79700962,4.52663642 C7.79700962,4.52663642 9.74736986,4.93644972 11.9802416,5.23325896 C12.7434831,5.34626302 14.7501153,4.58302198 18.2268436,3.46670391 C18.9334677,3.22639381 17.0537903,1.75664852 16.700596,1.75664852 L11.7823684,1.75664852 C11.2453715,1.75664852 10.8355546,1.64352878 10.3126231,1.45983614 C6.83601003,-0.00990915038 6.07288886,-0.0665266023 4.82914698,0.512907163 C3.24627933,1.05002441 -0.00420857917,2.39269974 -0.00420857917,2.39269974 L3.11909212,7.98906475 C3.11909212,7.98906475 4.36283191,7.52274968 5.23895923,7.16932194 C5.47926933,7.05643461 5.53577162,7.05643461 6.41201253,7.35324386 C7.58507107,7.81944272 10.2984373,8.82287503 11.5421787,9.30337409 C12.2488028,9.54356541 12.3053051,9.76980563 13.1250489,9.30337409 C13.8881701,8.83705871 21.7176424,4.47013465 24.5441336,2.8873853 C24.9680107,2.47745318 25.2083208,2.18052563 24.7985091,1.94033593" id="Fill-1" fill="#020100" mask="url(#mask-2)"></path>
                    </g>
                    <path d="M8.36232043,9.59590954 C8.77213216,11.0658904 9.30924941,12.2388285 9.83218088,12.959518 C8.30570298,12.3658985 7.00557449,11.1928452 6.35545266,9.59590954 L8.36232043,9.59590954 Z M6.00214322,7.17934521 C6.00214322,6.71291602 6.05876067,6.28903368 6.1151478,5.87910679 L8.17862779,5.87910679 C8.12201034,6.34553597 8.12201034,6.7553477 8.12201034,7.2358475 C8.12201034,7.70216152 8.17862779,8.05559136 8.17862779,8.47958886 L6.05876067,8.47958886 C6.00214322,8.12615902 6.00214322,7.64577962 6.00214322,7.17934521 Z M9.83218088,1.58274987 C9.3657517,2.23298686 8.71562987,3.34942271 8.36232043,4.94635835 L6.42614072,4.94635835 C7.13276484,3.34942271 8.30570298,2.11986712 9.83218088,1.58274987 Z M11.5422363,1.17293814 L11.5422363,4.87567029 L9.47875628,4.87567029 C10.0157584,2.93949058 11.0193048,1.58274987 11.4291165,1.17293814 L11.5422363,1.17293814 Z M11.5422363,8.53609115 L9.30924941,8.53609115 C9.25274712,8.12615902 9.25274712,7.77284958 9.1960145,7.30653556 C9.1960145,6.84010114 9.1960145,6.35960135 9.25274712,5.94978961 L11.5422363,5.94978961 L11.5422363,8.53609115 Z M11.5422363,13.2987621 C10.9486167,12.6487554 10.0157584,11.4191998 9.53525857,9.59590954 L11.5422363,9.59590954 L11.5422363,13.2987621 Z M12.4890501,9.59590954 L14.4958027,9.59590954 C13.9588006,11.3625824 13.0825545,12.6063185 12.4890501,13.2422598 L12.4890501,9.59590954 Z M12.4890501,5.93560384 L14.7220422,5.93560384 C14.7784241,6.4019231 14.8349264,6.81184999 14.7784241,7.29246495 C14.7784241,7.75877897 14.7220422,8.11197848 14.7220422,8.52190538 L12.5455524,8.52190538 L12.5455524,5.93560384 L12.4890501,5.93560384 Z M12.4890501,1.11643585 L12.5455524,1.11643585 C12.9553693,1.58274987 13.9588006,2.82649123 14.4958027,4.81905283 L12.4890501,4.81905283 L12.4890501,1.11643585 Z M17.6757185,4.81905283 L15.7254734,4.81905283 C15.3156617,3.34942271 14.7220422,2.17636941 14.2554926,1.52636274 C15.8383576,2.11986712 17.0254815,3.34942271 17.6757185,4.81905283 Z M18.19865,7.17934521 C18.19865,7.64577962 18.1420325,8.05559136 18.0855303,8.47958886 L16.0221654,8.47958886 C16.0786677,8.06965673 16.0786677,7.659845 16.0786677,7.2358475 C16.0786677,6.76941831 16.0786677,6.35960135 16.0221654,5.87910679 L18.0855303,5.87910679 C18.1420325,6.35960135 18.19865,6.76941831 18.19865,7.17934521 Z M14.2554926,12.88883 C14.792725,12.1822058 15.4285459,11.0091525 15.7254734,9.52533664 L17.6757185,9.52533664 C17.0254815,11.1223874 15.8383576,12.3658985 14.2554926,12.88883 Z M12.0791232,14.5423831 C16.0221654,14.5423831 19.3149707,11.2495778 19.3149707,7.30653556 C19.3149707,3.23630296 16.0221654,0 12.0791232,0 C8.13619611,0 4.82908887,3.23630296 4.82908887,7.17934521 C4.77270331,11.2495778 8.06550804,14.5423831 12.0791232,14.5423831 Z" id="Fill-3" fill="#000000"></path>
                </g>
            </g>
        </g>
    </g>
</svg>