<?xml version="1.0" encoding="UTF-8"?>
<svg width="22px" height="24px" viewBox="0 0 22 24" version="1.1" xmlns="http://www.w3.org/2000/svg" xmlns:xlink="http://www.w3.org/1999/xlink">
    <!-- Generator: Sketch 52.2 (67145) - http://www.bohemiancoding.com/sketch -->
    <title>编组</title>
    <desc>Created with Sketch.</desc>
    <g id="页面-1" stroke="none" stroke-width="1" fill="none" fill-rule="evenodd">
        <g id="桌面端-HD备份" transform="translate(-362.000000, -1338.000000)" fill="#231916">
            <g id="编组-5" transform="translate(359.000000, 1074.000000)">
                <g id="编组" transform="translate(3.000000, 264.000000)">
                    <path d="M19.7289366,17.2499414 C19.6486448,17.3892267 19.2092943,17.6544753 18.1325061,17.6544753 C17.1682237,17.6544753 15.9896538,17.4347626 14.7119748,17.0517935 C14.8512648,16.2561927 14.9611492,15.4178035 15.0307264,14.5365885 C15.7565864,14.0356606 16.4316164,13.5187658 17.0503677,13.0017683 C17.5566506,13.4812296 18.0226545,13.9607284 18.4137261,14.4401897 C19.8227187,16.1516633 19.8360453,17.0651202 19.7289366,17.2499414 M10.6351654,22.4999686 C10.0753748,22.4999686 8.99323637,20.9651493 8.29412779,18.0562569 C9.05484189,17.7776863 9.83694783,17.4508369 10.6351654,17.0705125 C11.4333409,17.4482248 12.2156197,17.7776863 12.9762638,18.0562569 C12.2771926,20.9651493 11.1950494,22.4999686 10.6351654,22.4999686 M3.13788543,17.6544753 C2.06113467,17.6544753 1.62456165,17.3892267 1.54149233,17.2499414 C1.43438313,17.0651202 1.44492999,16.1516633 2.85395708,14.4401897 C3.24763988,13.9633404 3.71116577,13.4812296 4.21731461,13.0017683 C4.83884529,13.5214106 5.51109491,14.0356606 6.23695497,14.5365885 C6.30930781,15.4150559 6.41642122,16.2535806 6.55570651,17.0517935 C5.28073776,17.4347626 4.10223696,17.6544753 3.13788543,17.6544753 M2.85395708,9.55980776 C1.44492999,7.84813796 1.43438313,6.93484461 1.54149233,6.7500561 C1.62181594,6.61073811 2.06113467,6.34552693 3.13788543,6.34552693 C4.10223696,6.34552693 5.28073776,6.56510405 6.55844941,6.948204 C6.41913142,7.74377212 6.30930781,8.58212861 6.23970255,9.46341363 C5.51384249,9.96433693 4.83884529,10.4812037 4.22006032,10.9981965 C3.71116577,10.5187352 3.24763988,10.0366617 2.85395708,9.55980776 M10.6351654,1.50003168 C11.1950494,1.50003168 12.2771926,3.03485197 12.9762638,5.94374065 C12.2156197,6.22231122 11.4333409,6.5491653 10.6351654,6.92948964 C9.83694783,6.55174466 9.05484189,6.22231122 8.29412779,5.94374065 C8.99323637,3.03485197 10.0753748,1.50003168 10.6351654,1.50003168 M15.1244757,11.3946278 C15.3895888,11.5955186 15.6601923,11.7936665 15.9092311,11.999917 C15.6601923,12.2035226 15.3895888,12.4016659 15.1244757,12.6053042 C15.1271205,12.4044134 15.135223,12.2061674 15.135223,11.999917 C15.135223,11.7936665 15.1271205,11.5981307 15.1244757,11.3946278 M12.3441577,7.80798971 C12.6601617,7.67406406 12.9709088,7.55088107 13.2789083,7.43302501 C13.3325468,7.75177654 13.37805,8.08394821 13.4209739,8.42674103 C13.2413768,8.31963229 13.0673029,8.20977598 12.8825144,8.10266724 C12.7056649,7.99817057 12.5262314,7.90713141 12.3441577,7.80798971 M7.84684297,8.42674103 C7.88959862,8.08394821 7.93787745,7.75177654 7.98877303,7.43302501 C8.29677257,7.54823629 8.60751968,7.67406406 8.92365915,7.80798971 C8.74406206,7.90713141 8.56462852,7.99817057 8.38255488,8.10266724 C8.20037844,8.20977598 8.02627183,8.31963229 7.84684297,8.42674103 M6.14594853,12.6053042 C5.88070464,12.4044134 5.61023661,12.2061674 5.3610623,11.999917 C5.61023661,11.7964141 5.88070464,11.5981307 6.14594853,11.3946278 C6.14320562,11.5955186 6.13520121,11.7936665 6.13520121,11.999917 C6.13520121,12.2061674 6.14320562,12.4016659 6.14594853,12.6053042 M8.92627121,16.1919751 C8.61009904,16.3259054 8.29952014,16.4491164 7.99151593,16.5669725 C7.93787745,16.2482256 7.88959862,15.9160166 7.84948774,15.5732238 C8.02891661,15.6803372 8.20299051,15.7901888 8.38794723,15.8973303 C8.56462852,16.0018316 8.74406206,16.0928334 8.92627121,16.1919751 M13.423586,15.5732238 C13.3806621,15.9160166 13.3325468,16.2482256 13.2816559,16.5669725 C12.9735209,16.4517285 12.6629046,16.3259054 12.3468025,16.1919751 C12.5262314,16.0928334 12.7056649,16.0018316 12.887874,15.8973303 C13.0700505,15.7901888 13.2441197,15.6803372 13.423586,15.5732238 M12.1351597,14.5981941 C11.6369793,14.8847317 11.136056,15.1499475 10.6351654,15.4017619 C10.1343729,15.1499475 9.63341225,14.8847317 9.13526456,14.5981941 C8.63159368,14.3062641 8.15748728,13.9981291 7.68612846,13.6901248 C7.65669482,13.1464085 7.63523288,12.5892674 7.63523288,11.999917 C7.63523288,11.4107301 7.65669482,10.8535236 7.68612846,10.3098727 C8.15748728,10.0017376 8.63159368,9.69373807 9.13526456,9.40180812 C9.63341225,9.11509762 10.1343729,8.84998924 10.6351654,8.59823557 C11.136056,8.84998924 11.6369793,9.11509762 12.1351597,9.40180812 C12.6386997,9.69373807 13.1128061,10.0017376 13.5843005,10.3098727 C13.6137294,10.8535236 13.6351914,11.4107301 13.6351914,11.999917 C13.6351914,12.5892674 13.6137294,13.1464085 13.5843005,13.6901248 C13.1128061,13.9981291 12.6386997,14.3062641 12.1351597,14.5981941 M18.1325061,6.34552693 C19.2092943,6.34552693 19.6458972,6.61073811 19.726189,6.7500561 C19.8334333,6.93484461 19.8227187,7.84813796 18.4137261,9.55980776 C18.0200424,10.0366617 17.5566506,10.5187352 17.0503677,10.9981965 C16.4289716,10.4785916 15.7565864,9.96433693 15.0307264,9.46341363 C14.9584062,8.58474067 14.8512648,7.74638419 14.7119748,6.95095157 C15.9896538,6.56510405 17.1682237,6.34552693 18.1325061,6.34552693 M18.1780421,11.999917 C20.6262865,9.66156153 21.8181504,7.36867192 21.0280728,5.99995849 C20.5753956,5.21784788 19.5441154,4.84549525 18.1325061,4.84549525 C17.0744417,4.84549525 15.7995103,5.06781527 14.4093303,5.4749939 C13.6057624,2.18038852 12.2182318,0 10.6351654,0 C9.05219711,0 7.66466652,2.18038852 6.86109398,5.47234912 C5.47091862,5.06520321 4.19324108,4.84285047 3.13788543,4.84285047 C1.72892515,4.84285047 0.695031434,5.21523581 0.242353511,5.99734642 C-0.547857496,7.36605985 0.644138662,9.65891675 3.09238314,11.9973049 C0.644138662,14.3383051 -0.547857496,16.6311947 0.242353511,18.0000063 C0.695031434,18.7821496 1.72631355,19.1543714 3.13788543,19.1543714 C4.19585268,19.1543714 5.47091862,18.9321495 6.86109398,18.5250083 C7.66466652,21.8195791 9.05219711,24 10.6351654,24 C12.2182318,24 13.6057624,21.8195791 14.4093303,18.5276203 C15.7995103,18.9347616 17.0771846,19.1571143 18.1325061,19.1571143 C19.5413678,19.1571143 20.5753956,18.7847617 21.0280728,18.0026184 C21.8181504,16.6311947 20.6262865,14.3383051 18.1780421,11.999917" id="Fill-1"></path>
                    <path d="M9.88517993,11.9999076 C9.88517993,12.4141468 10.2209403,12.7500052 10.6351467,12.7500052 C11.0493531,12.7500052 11.3852116,12.4141468 11.3852116,11.9999076 C11.3852116,11.5857012 11.0493531,11.2499736 10.6351467,11.2499736 C10.2209403,11.2499736 9.88517993,11.5857012 9.88517993,11.9999076" id="Fill-3"></path>
                </g>
            </g>
        </g>
    </g>
</svg>