<?xml version="1.0" encoding="UTF-8"?>
<svg width="24px" height="24px" viewBox="0 0 24 24" version="1.1" xmlns="http://www.w3.org/2000/svg" xmlns:xlink="http://www.w3.org/1999/xlink">
    <!-- Generator: Sketch 52.2 (67145) - http://www.bohemiancoding.com/sketch -->
    <title>编组</title>
    <desc>Created with Sketch.</desc>
    <defs>
        <polygon id="path-1" points="4.56522793e-16 0 23.6487012 0 23.6487012 24 4.56522793e-16 24"></polygon>
    </defs>
    <g id="页面-1" stroke="none" stroke-width="1" fill="none" fill-rule="evenodd">
        <g id="桌面端-HD备份" transform="translate(-361.000000, -1285.000000)">
            <g id="编组-5" transform="translate(359.000000, 1074.000000)">
                <g id="编组" transform="translate(2.000000, 211.000000)">
                    <mask id="mask-2" fill="white">
                        <use xlink:href="#path-1"></use>
                    </mask>
                    <g id="Clip-2"></g>
                    <path d="M20.2938687,14.4000614 C20.6868653,14.4000614 21.0637346,14.5561343 21.3417091,14.8339235 C21.6194983,15.111898 21.775577,15.4887673 21.775577,15.8816192 L21.775577,18.4526196 C21.775577,19.2497781 21.6203785,20.0393634 21.3185518,20.7772174 L23.0522226,21.4861684 C23.4460647,20.5233881 23.648707,19.4929975 23.648707,18.4526196 L23.648707,15.8816192 C23.648707,14.9918611 23.2952961,14.1385443 22.6662096,13.509423 C22.0369784,12.8803366 21.183621,12.5267809 20.2938687,12.5267809 L19.922599,12.5267809 C19.2447426,12.5267809 18.6202309,12.8943502 18.2911122,13.4868506 L17.3610387,15.1609227 L15.6493903,15.1609227 C14.5924004,15.1609227 13.9087301,16.2783509 14.3901982,17.2195485 L14.4758032,17.3863401 C15.1556342,18.7149729 16.5222799,19.5510222 18.014707,19.5511681 C19.1175714,19.5511681 20.1376452,18.966644 20.6953198,18.015166 L21.0614299,17.3904748 C21.3081226,16.9457433 21.1547598,16.3853991 20.7160276,16.1282772 C20.2771449,15.8710453 19.7133668,16.0110951 19.4458157,16.4436833 L19.0796708,17.0679345 C18.8581853,17.4459388 18.4528891,17.6781778 18.014707,17.678033 C17.4436499,17.678033 16.8969893,17.4454987 16.5006977,17.0342032 L17.3610387,17.0342032 C18.0413041,17.0342032 18.6680858,16.6654989 18.9986695,16.0708385 L19.9267336,14.4000614 L20.2938687,14.4000614 Z M20.9561363,7.02437626 C21.4088821,7.02437626 21.775577,7.39154605 21.775577,7.84381705 L21.775577,9.36584081 C21.775577,9.81847083 21.4087315,10.1852758 20.9561363,10.1852758 C20.5035004,10.1852758 20.136516,9.81847083 20.136516,9.36584081 L20.136516,7.84381705 C20.136516,7.39154605 20.5032456,7.02437626 20.9561363,7.02437626 Z M23.648707,7.84381705 C23.648707,6.35669428 22.443259,5.15124053 20.9561363,5.15124053 C19.4689787,5.15124053 18.2633802,6.35669428 18.2633802,7.84381705 L18.2633802,9.36584081 C18.2633802,10.8529636 19.4689787,12.0585968 20.9561363,12.0585968 C22.443259,12.0585968 23.648707,10.8529636 23.648707,9.36584081 L23.648707,7.84381705 Z M3.35484144,14.4000614 C2.96184191,14.4000614 2.58497547,14.5561343 2.30714632,14.8339235 C2.02935364,15.111898 1.87313421,15.4887673 1.87313421,15.8816192 L1.87313421,18.4526196 C1.87313421,19.2496316 2.02862227,20.0392169 2.33015885,20.7772174 L0.596670516,21.4861684 C0.202646363,20.5233881 4.56522793e-16,19.4929975 4.56522793e-16,18.4526196 L4.56522793e-16,15.8816192 C4.56522793e-16,14.9918611 0.353414654,14.1385443 0.982646421,13.509423 C1.61176822,12.8803366 2.46508561,12.5267809 3.35484144,12.5267809 L3.72614642,12.5267809 C4.40381749,12.5267809 5.0280733,12.894495 5.35774436,13.4868506 L6.28781729,15.1609227 L7.99931516,15.1609227 C9.05630506,15.1609227 9.74001011,16.2783509 9.25865785,17.2195485 L9.17293703,17.3863401 C8.4931118,18.7149729 7.12642554,19.5510222 5.63400016,19.5511681 C4.53128052,19.5511681 3.51120738,18.966644 2.95353678,18.015166 L2.58728078,17.3904748 C2.3406222,16.9457433 2.49395146,16.3853991 2.93282955,16.1282772 C3.37156114,15.8710453 3.93534159,16.0110951 4.20289039,16.4436833 L4.56918345,17.0679345 C4.79052477,17.4459388 5.19596346,17.6781778 5.63400016,17.678033 C6.21380542,17.678033 6.75801073,17.4392041 7.14801354,17.0342032 L6.28781729,17.0342032 C5.60743962,17.0342032 4.98062197,16.6654989 4.65018305,16.0708385 L3.72197591,14.4000614 L3.35484144,14.4000614 Z M2.69275624,7.02437626 C2.24012216,7.02437626 1.87313421,7.39121598 1.87313421,7.84381705 L1.87313421,9.36584081 C1.87313421,9.81847083 2.24012216,10.1852758 2.69275624,10.1852758 C3.14535384,10.1852758 3.51219529,9.81847083 3.51219529,9.36584081 L3.51219529,7.84381705 C3.51219529,7.39121598 3.14535384,7.02437626 2.69275624,7.02437626 Z M4.56522793e-16,7.84381705 C4.56522793e-16,6.35669428 1.20559757,5.15124053 2.69275624,5.15124053 C4.17987843,5.15124053 5.38532929,6.35669428 5.38532929,7.84381705 L5.38532929,9.36584081 C5.38532929,10.8529636 4.17987843,12.0585968 2.69275624,12.0585968 C1.20559757,12.0585968 4.56522793e-16,10.8529636 4.56522793e-16,9.36584081 L4.56522793e-16,7.84381705 Z M11.8243527,1.8731589 C11.1778187,1.8731589 10.6536205,2.39731656 10.6536205,3.04388538 L10.6536205,4.44883707 C10.6536205,5.0953364 11.1778187,5.61956934 11.8243527,5.61956934 C12.4710374,5.61956934 12.995085,5.0953364 12.995085,4.44883707 L12.995085,3.04388538 C12.995085,2.39731656 12.4710374,1.8731589 11.8243527,1.8731589 Z M8.78049052,3.04388538 C8.78049052,1.36278907 10.1432912,-1.73723207e-05 11.8243527,-1.73723207e-05 C13.5054143,-1.73723207e-05 14.8682207,1.36278907 14.8682207,3.04388538 L14.8682207,4.44883707 C14.8682207,6.12989863 13.5054143,7.49270507 11.8243527,7.49270507 C10.1432912,7.49270507 8.78049052,6.12989863 8.78049052,4.44883707 L8.78049052,3.04388538 Z" id="Fill-1" fill="#231916" mask="url(#mask-2)"></path>
                    <path d="M11.8243527,7.49271086 C10.5312788,7.49271086 9.48288819,8.54095669 9.48288819,9.83417541 L9.48288819,10.5365789 L14.1658173,10.5365789 L14.1658173,9.83417541 C14.1658173,8.54095669 13.1175714,7.49271086 11.8243527,7.49271086 Z M7.60975824,9.83417541 C7.60975824,7.50642921 9.49675709,5.61958092 11.8243527,5.61958092 C14.1520989,5.61958092 16.038953,7.50642921 16.038953,9.83417541 L16.038953,11.4732365 C16.038953,11.9904047 15.6196489,12.4097146 15.1024749,12.4097146 L8.54641587,12.4097146 C8.02906237,12.4097146 7.60975824,11.9904047 7.60975824,11.4732365 L7.60975824,9.83417541 Z" id="Fill-3" fill="#231916" mask="url(#mask-2)"></path>
                    <path d="M4.36722849,19.8761417 C4.60931351,19.9323001 4.81913061,20.0822267 4.95058175,20.2930317 C5.08206995,20.5038002 5.12436228,20.7580319 5.06835045,21.0001535 L4.80753343,22.126873 L18.7242795,22.126873 L18.4628782,20.9997145 C18.3462752,20.4956781 18.6602509,19.9926295 19.1641408,19.8759952 C19.6680713,19.7593974 20.1712664,20.0733732 20.2878636,20.5772637 L20.5491202,21.7044221 C20.6778606,22.2607753 20.5458252,22.8454095 20.1905439,23.2924462 C19.8351178,23.7394829 19.2951918,24.0000073 18.7242795,24.0000073 L4.80753343,24.0000073 C4.23647224,24.0000073 3.69654515,23.7394829 3.34111847,23.2924462 C2.98583772,22.8454095 2.85380113,22.2607753 2.98254508,21.7044221 L3.24380162,20.5772637 C3.29981346,20.3351781 3.44974064,20.125251 3.66054506,19.9936168 C3.87131359,19.8621292 4.12572833,19.8196904 4.36781393,19.8757022 L4.36722849,19.8761417 Z M5.12450879,11.9874224 C5.32115535,11.1379854 6.07759484,10.5365905 6.94949424,10.5365905 L16.5821681,10.5365905 C17.4540733,10.5365905 18.2106552,11.1379854 18.4071536,11.9874224 C18.4825958,12.3133967 18.3784371,12.6548149 18.1338985,12.8831798 C17.8892557,13.1115795 17.5413982,13.1920307 17.2214232,13.0944215 C16.9013034,12.9966674 16.6576045,12.7357004 16.5821681,12.4097262 L6.94949424,12.4097262 C6.83289702,12.9136161 6.32970196,13.2275919 5.82577726,13.1109947 C5.32188673,12.9943627 5.00791099,12.4913124 5.12450879,11.9874224 Z" id="Fill-4" fill="#231916" mask="url(#mask-2)"></path>
                </g>
            </g>
        </g>
    </g>
</svg>