<?xml version="1.0" encoding="UTF-8"?>
<svg width="19px" height="24px" viewBox="0 0 19 24" version="1.1" xmlns="http://www.w3.org/2000/svg" xmlns:xlink="http://www.w3.org/1999/xlink">
    <!-- Generator: Sketch 52.2 (67145) - http://www.bohemiancoding.com/sketch -->
    <title>编组</title>
    <desc>Created with Sketch.</desc>
    <defs>
        <polygon id="path-1" points="0 0 18.4615385 0 18.4615385 24 0 24"></polygon>
    </defs>
    <g id="页面-1" stroke="none" stroke-width="1" fill="none" fill-rule="evenodd">
        <g id="桌面端-HD备份" transform="translate(-363.000000, -1087.000000)">
            <g id="编组-5" transform="translate(359.000000, 1074.000000)">
                <g id="编组" transform="translate(4.000000, 13.000000)">
                    <mask id="mask-2" fill="white">
                        <use xlink:href="#path-1"></use>
                    </mask>
                    <g id="Clip-2"></g>
                    <path d="M9.23077109,0 C7.04745525,0 4.96765061,0.329818512 3.37425447,0.928479296 C2.48375518,1.2630711 1.75691742,1.67727093 1.21441396,2.15940188 C0.210561299,3.05110176 0,4.01243589 0,4.65803214 L0,19.3420156 C0,19.9894112 0.210561299,20.9488987 1.21441396,21.8405975 C1.75691742,22.3227284 2.48375518,22.7369294 3.37425447,23.0715229 C4.96765061,23.6701806 7.04745525,24 9.23077109,24 C11.4140813,24 13.4935159,23.6701806 15.0869121,23.0715229 C15.9776003,22.7369294 16.7042514,22.3227284 17.2465659,21.8405975 C18.2504191,20.9488987 18.4615385,19.9875674 18.4615385,19.3420156 L18.4615385,4.65803214 C18.4615385,4.01059037 18.2504191,3.05110176 17.2465659,2.15940188 C16.7042514,1.67727093 15.9772236,1.2630711 15.0869121,0.928479296 C13.4935159,0.329818512 11.4140813,0 9.23077109,0 M9.23077109,1.89089567 C13.2975621,1.89089567 16.5948652,3.12976424 16.5948652,4.65803214 L16.5948652,19.3420156 C16.5948652,20.8702374 13.2975621,22.1091048 9.23077109,22.1091048 C5.16397843,22.1091048 1.86667814,20.8702374 1.86667814,19.3420156 L1.86667814,4.65803214 C1.86667814,3.12976424 5.16360505,1.89089567 9.23077109,1.89089567" id="Fill-1" fill="#000000" mask="url(#mask-2)"></path>
                    <path d="M9.22897641,18.4615385 C7.18453478,18.4615385 5.26334569,18.2387125 3.67321199,17.8164225 C1.92576372,17.352319 0.775840233,16.7029823 0.255735538,15.8856153 C-0.0176868219,15.4557069 0.115034354,14.8893512 0.551978154,14.6204441 C0.988922066,14.3516753 1.5649806,14.4820226 1.83826296,14.9117486 C2.02054417,15.1982307 2.73767715,15.6666904 4.15976287,16.0440949 C5.5732621,16.4195252 7.37339841,16.6256919 9.22897641,16.6256919 C11.119131,16.6256919 12.9449795,16.4125073 14.3698212,16.0250986 C15.7944266,15.6376844 16.4752961,15.1736765 16.6309777,14.8927468 C16.7910004,14.6048378 17.0950817,14.4228603 17.4287068,14.4153337 C17.7620958,14.4076245 18.0745331,14.5756051 18.2478994,14.8557993 C18.4214513,15.1360434 18.4296666,15.4860014 18.269599,15.7738606 C17.7936415,16.6305143 16.6490392,17.3109197 14.8674783,17.7954502 C13.2851331,18.22398 11.2826512,18.4615385 9.22897641,18.4615385 Z M9.22897641,13.9846897 C7.18453478,13.9846897 5.26334569,13.7618659 3.67321199,13.3395726 C1.92576372,12.8754707 0.775840233,12.2259516 0.255735538,11.4085846 C-0.0176868219,10.9788586 0.115034354,10.412503 0.551978154,10.1435959 C0.988922066,9.87464452 1.5649806,10.0051744 1.83826296,10.4349004 C2.02054417,10.7214323 2.73767715,11.1898919 4.15976287,11.5672522 C5.5732621,11.9424944 7.37339841,12.1488437 9.22897641,12.1488437 C11.1195021,12.1488437 12.9449795,11.9355208 14.3698212,11.5482504 C15.7944266,11.1608417 16.4752961,10.6966458 16.6309777,10.4158985 C16.7910004,10.1279951 17.0950817,9.94601205 17.4287068,9.93830292 C17.7620958,9.93077629 18.0745331,10.0987568 18.2478994,10.3790009 C18.4214513,10.6591951 18.4296666,11.0091532 18.269599,11.2971064 C17.7936415,12.1537103 16.6490392,12.834077 14.8674783,13.318602 C13.2851331,13.7478689 11.2826512,13.9846897 9.22897641,13.9846897 Z M9.23079268,0 C7.04747693,0 4.96766308,0.320216502 3.37426291,0.90144294 C2.48376193,1.2262993 1.75692176,1.62839628 1.21441749,2.09653519 C0.210561834,2.96227501 0,3.89561628 0,4.52237304 C0,5.14913533 0.210561834,6.0824766 1.21441749,6.94826066 C1.75692176,7.41653782 2.48376193,7.81849655 3.37426291,8.14353541 C4.96766308,8.72581812 7.04598118,9.04475161 9.23079268,9.04475161 C11.4155592,9.04475161 13.4935034,8.72476185 15.0869541,8.14353541 C15.977639,7.81849655 16.7042469,7.41653782 17.2465628,6.94826066 C18.2504635,6.0824766 18.4615385,5.15129212 18.4615385,4.52237304 C18.4615385,3.89345949 18.2504635,2.96227501 17.2465628,2.09653519 C16.7042469,1.62839628 15.9772679,1.2262993 15.0869541,0.90144294 C13.4935034,0.321272775 11.4141141,0.00105627259 9.23079268,0.00105627259 L9.23079268,0 Z M9.23079268,1.83690228 C13.297549,1.83690228 16.5948604,3.03969813 16.5948604,4.52347908 C16.5948604,6.00721026 13.297549,7.2089056 9.23079268,7.2089056 C5.16399196,7.2089056 1.86668276,6.00610422 1.86668276,4.52237304 C1.86668276,3.03864739 5.16361859,1.83584601 9.23079268,1.83584601 L9.23079268,1.83690228 Z" id="Fill-3" fill="#000000" mask="url(#mask-2)"></path>
                    <path d="M9.88210284,6.20037885 C9.77228588,6.32037595 9.66530525,6.32037595 9.4480938,6.32037595 L9.4480938,5.3723429 C9.66530525,5.3723429 9.77370405,5.49213543 9.88210284,5.49213543 C9.99210742,5.61208439 10.0994522,5.72873604 10.0994522,5.84733117 C10.0994522,5.96593233 9.99105345,6.0829811 9.88210284,6.20037885 Z M9.12092744,4.54375339 C8.90357803,4.54375339 8.79481504,4.42395485 8.68641625,4.42395485 C8.57641167,4.30421047 8.46906685,4.1871617 8.46906685,4.06876512 C8.46906685,3.95056109 8.46906685,3.83196595 8.68641625,3.83196595 C8.79623321,3.71196885 8.90357803,3.71196885 9.12092744,3.71196885 L9.12092744,4.54375339 Z M10.5339634,5.01714716 C10.4239644,4.89740277 9.99105345,4.78034799 9.4480938,4.66214997 L9.4480938,3.71491718 C9.66530525,3.71491718 9.77370405,3.71491718 9.88210284,3.83466157 C9.88210284,3.95465867 9.99210742,4.0716593 9.99210742,4.18990545 L10.9692085,4.18990545 C10.9692085,3.83466157 10.7518647,3.59786842 10.3178998,3.36126781 C10.1005504,3.24147529 9.77471387,3.12447465 9.44919192,3.12447465 L9.44919192,2.76923077 L9.12092744,2.76923077 L9.12092744,3.12447465 L8.47067263,3.12447465 C8.25332323,3.24421904 8.14492443,3.24421904 7.92757503,3.36126781 L7.60196479,3.71646355 C7.49196021,3.83626209 7.49196021,4.0716593 7.49196021,4.18990545 C7.48765604,4.43898533 7.61414889,4.66874461 7.81770841,4.78190037 C8.03487571,5.01889209 8.36048595,5.13749324 8.79481504,5.13749324 L9.01197683,5.25729178 L9.01197683,6.44012635 C8.8109336,6.4344824 8.61841041,6.34923952 8.47067263,6.20037885 C8.47067263,6.08063446 8.36066805,5.9635857 8.36066805,5.72678653 L7.38461538,5.72678653 C7.38461538,6.20037885 7.60196479,6.43737658 8.03647598,6.67422389 C8.25332323,6.79416684 8.68783442,6.91081848 9.12234561,6.91081848 L9.12234561,7.38461538 L9.4480938,7.38461538 L9.4480938,6.91157061 C9.77370405,6.91157061 10.0994522,6.79162164 10.4252004,6.67497 C10.8597558,6.43817684 11.0769231,6.20137767 11.0769231,5.72758679 C11.0769231,5.49093804 10.8597558,5.13594687 10.5339634,5.01714716 Z" id="Fill-4" fill="#000202" mask="url(#mask-2)"></path>
                </g>
            </g>
        </g>
    </g>
</svg>