<svg width="171" height="70" viewBox="0 0 171 70" fill="none" xmlns="http://www.w3.org/2000/svg">
<path d="M95.19 54.582C92.5047 55.1647 90.0853 55.456 87.932 55.456C85.7787 55.456 84.056 55.19 82.764 54.658C81.472 54.126 80.4587 53.2773 79.724 52.112C78.9893 50.9467 78.4827 49.5787 78.204 48.008C77.9253 46.4373 77.786 44.4613 77.786 42.08C77.786 37.0893 78.4827 33.6187 79.876 31.668C81.2947 29.692 83.8913 28.704 87.666 28.704C89.8447 28.704 92.3653 29.046 95.228 29.73L95.076 33.91C92.568 33.53 90.478 33.34 88.806 33.34C87.1593 33.34 85.9813 33.568 85.272 34.024C84.5627 34.4547 84.0307 35.2907 83.676 36.532C83.3467 37.7733 83.182 39.8887 83.182 42.878C83.182 45.8673 83.524 47.9447 84.208 49.11C84.9173 50.25 86.3107 50.82 88.388 50.82C90.4907 50.82 92.72 50.6427 95.076 50.288L95.19 54.582ZM98.9888 55V36H104.043V38.014C106.171 36.7473 108.197 35.924 110.123 35.544V40.674C108.071 41.1047 106.31 41.548 104.841 42.004L104.081 42.27V55H98.9888ZM111.379 36H116.395L119.853 50.668H120.727L124.185 36H129.201L122.513 62.98H117.535L119.625 55H116.053L111.379 36ZM142.653 40.332H137.979V48.122C137.979 48.882 137.992 49.4267 138.017 49.756C138.068 50.06 138.207 50.326 138.435 50.554C138.689 50.782 139.069 50.896 139.575 50.896L142.463 50.82L142.691 54.886C140.994 55.266 139.702 55.456 138.815 55.456C136.535 55.456 134.977 54.9493 134.141 53.936C133.305 52.8973 132.887 50.9973 132.887 48.236V40.332H130.645V36H132.887V30.718H137.979V36H142.653V40.332ZM145.969 55V36H151.061V55H145.969ZM145.969 33.568V28.4H151.061V33.568H145.969ZM162.872 35.544C164.189 35.544 165.874 35.7467 167.926 36.152L168.952 36.38L168.8 40.408C166.799 40.2053 165.317 40.104 164.354 40.104C162.606 40.104 161.441 40.484 160.858 41.244C160.301 41.9787 160.022 43.3847 160.022 45.462C160.022 47.5393 160.301 48.9707 160.858 49.756C161.441 50.516 162.619 50.896 164.392 50.896L168.8 50.592L168.952 54.658C166.241 55.19 164.177 55.456 162.758 55.456C159.946 55.456 157.919 54.6707 156.678 53.1C155.462 51.504 154.854 48.958 154.854 45.462C154.854 41.966 155.487 39.4453 156.754 37.9C158.021 36.3293 160.06 35.544 162.872 35.544Z" fill="#091924"/>
<path fill-rule="evenodd" clip-rule="evenodd" d="M29.8503 9.5C18.6112 9.5 9.5 18.6112 9.5 29.8503C9.5 41.0895 18.6112 50.2007 29.8503 50.2007C35.4585 50.2007 40.5296 47.9381 44.2152 44.2652C45.9756 42.5109 48.8248 42.5158 50.5791 44.2762C52.3334 46.0366 52.3285 48.8858 50.5681 50.6401C45.2645 55.9255 37.9356 59.2007 29.8503 59.2007C13.6406 59.2007 0.5 46.0601 0.5 29.8503C0.5 13.6406 13.6406 0.5 29.8503 0.5C37.9356 0.5 45.2645 3.7752 50.5681 9.06055C52.3285 10.8149 52.3334 13.6641 50.5791 15.4245C48.8248 17.1849 45.9756 17.1898 44.2152 15.4355C40.5296 11.7626 35.4585 9.5 29.8503 9.5Z" fill="#2A333D"/>
<path d="M48.4127 5.95974L51.5947 2.77776L57.9587 9.14172L54.7767 12.3237L48.4127 5.95974ZM34.0681 33.0323C32.3107 34.7897 29.4615 34.7897 27.7041 33.0323C25.9468 31.275 25.9468 28.4257 27.7041 26.6684L34.0681 33.0323ZM54.7767 12.3237L34.0681 33.0323L27.7041 26.6684L48.4127 5.95974L54.7767 12.3237Z" fill="#B8292B"/>
</svg>
