<svg width="378" height="205" viewBox="0 0 378 205" fill="none" xmlns="http://www.w3.org/2000/svg">
<path fill-rule="evenodd" clip-rule="evenodd" d="M4.09518 204.643H58.0105C59.0988 204.643 60.1424 204.22 60.912 203.467C61.6815 202.714 62.1139 201.694 62.1139 200.63C62.1139 199.565 61.6815 198.544 60.912 197.791C60.1424 197.038 59.0988 196.616 58.0105 196.616H29.7294C30.0002 195.332 30.222 194.051 30.4395 192.771H131.922C135.901 192.771 139.718 191.224 142.533 188.472C145.347 185.719 146.928 181.987 146.928 178.094C146.928 174.201 145.347 170.468 142.533 167.715C139.718 164.963 135.901 163.416 131.922 163.416H30.5379C30.3204 162.131 30.0863 160.847 29.8073 159.571H131.913C136.941 159.572 141.762 161.526 145.317 165.003C148.872 168.48 150.87 173.196 150.871 178.113C150.871 178.557 150.837 179.01 150.805 179.429L150.805 179.429L150.802 179.47C150.435 184.125 148.289 188.476 144.791 191.653C141.293 194.831 136.7 196.603 131.926 196.616H89.7711C88.6828 196.616 87.6391 197.038 86.8696 197.791C86.1 198.544 85.6676 199.565 85.6676 200.63C85.6676 205.262 87.1085 205.245 122.421 204.827H122.421H122.421H122.422H122.422H122.423C147.412 204.531 189.363 204.035 259.768 204.843C260.857 204.843 261.9 204.421 262.67 203.668C263.439 202.915 263.872 201.894 263.872 200.829C263.872 199.765 263.439 198.744 262.67 197.992C261.9 197.239 260.857 196.816 259.768 196.816H245.554L251.34 183.785H340.385C344.791 183.78 349.014 182.065 352.13 179.018C355.245 175.971 356.998 171.839 357.004 167.53V16.2538C356.998 11.9444 355.245 7.81317 352.13 4.766C349.014 1.71883 344.791 0.00531035 340.385 0H77.3375C72.9312 0.00425017 68.7067 1.71762 65.591 4.76502C62.4753 7.81242 60.723 11.9441 60.7186 16.2538V151.549H24.5673C23.9343 151.549 23.31 151.692 22.743 151.967C22.176 152.243 21.6818 152.642 21.2991 153.135C20.9165 153.628 20.6556 154.201 20.537 154.81C20.4184 155.418 20.4454 156.045 20.6156 156.641C24.246 169.706 24.476 183.453 21.2846 196.628H4.10344C3.01514 196.628 1.97147 197.051 1.20193 197.804C0.432385 198.556 0 199.577 0 200.641C0 201.706 0.432385 202.726 1.20193 203.479C1.97147 204.232 3.01514 204.655 4.10344 204.655L4.09518 204.643ZM89.7711 151.549V28.4147H327.976V155.361H145.783C141.601 152.878 136.805 151.56 131.913 151.549H89.7711ZM151.171 196.732C154.792 193.174 157.3 188.679 158.401 183.776H163.054L168.746 196.748L151.171 196.732ZM237.807 194.127C237.478 194.866 236.936 195.495 236.247 195.937C235.558 196.379 234.753 196.615 233.929 196.616H180.404C179.576 196.617 178.766 196.379 178.075 195.933C177.384 195.487 176.842 194.853 176.518 194.108L171.983 183.776H242.403L237.807 194.127ZM68.9255 16.2538C68.9288 14.0727 69.8161 11.9826 71.393 10.4403C72.9698 8.89803 75.1075 8.03013 77.3375 8.02694H340.409C342.639 8.03013 344.777 8.89803 346.354 10.4403C347.931 11.9826 348.818 14.0727 348.821 16.2538V91.138H345.76C344.672 91.138 343.628 91.5601 342.859 92.3128C342.089 93.0655 341.657 94.087 341.657 95.1514C341.657 96.2159 342.089 97.2364 342.859 97.9891C343.628 98.7418 344.672 99.1649 345.76 99.1649H348.821V106.87H345.76C344.672 106.87 343.628 107.294 342.859 108.046C342.089 108.799 341.657 109.819 341.657 110.884C341.657 111.948 342.089 112.969 342.859 113.722C343.628 114.474 344.672 114.897 345.76 114.897H348.821V122.563H345.76C344.672 122.563 343.628 122.986 342.859 123.739C342.089 124.491 341.657 125.512 341.657 126.576C341.657 127.641 342.089 128.662 342.859 129.415C343.628 130.168 344.672 130.59 345.76 130.59H348.821V138.296H345.76C344.672 138.296 343.628 138.718 342.859 139.471C342.089 140.224 341.657 141.245 341.657 142.31C341.657 143.374 342.089 144.395 342.859 145.147C343.628 145.9 344.672 146.323 345.76 146.323H348.821V153.989H345.76C344.672 153.989 343.628 154.412 342.859 155.164C342.089 155.917 341.657 156.938 341.657 158.002C341.657 159.066 342.089 160.087 342.859 160.84C343.628 161.592 344.672 162.016 345.76 162.016H348.821V167.522C348.818 169.703 347.931 171.793 346.354 173.336C344.777 174.878 342.639 175.746 340.409 175.749H158.972C158.969 175.714 158.969 175.68 158.972 175.645C158.529 171.271 157.013 167.066 154.552 163.388H332.079C333.168 163.388 334.211 162.965 334.981 162.212C335.75 161.46 336.183 160.439 336.183 159.375V24.4012C336.183 23.3368 335.75 22.3163 334.981 21.5636C334.211 20.8109 333.168 20.3878 332.079 20.3878H85.6676C84.5793 20.3878 83.5357 20.8109 82.7661 21.5636C81.9966 22.3163 81.5642 23.3368 81.5642 24.4012V151.549H68.9255V16.2538ZM131.922 167.434C133.353 167.434 134.771 167.71 136.094 168.245C137.417 168.781 138.619 169.567 139.631 170.557C140.643 171.547 141.447 172.723 141.995 174.017C142.542 175.311 142.825 176.697 142.825 178.098C142.825 179.498 142.542 180.884 141.995 182.178C141.447 183.472 140.643 184.648 139.631 185.638C138.619 186.628 137.417 187.413 136.094 187.949C134.771 188.485 133.353 188.762 131.922 188.762H31.022C31.2928 186.57 31.5103 184.386 31.6211 182.215H99.5373C100.651 182.215 101.718 181.783 102.505 181.013C103.293 180.243 103.735 179.199 103.735 178.11C103.735 177.021 103.293 175.976 102.505 175.206C101.718 174.436 100.651 174.004 99.5373 174.004H31.6539C31.5582 171.799 31.3775 169.609 31.1122 167.434H131.922ZM373.409 196.904L289.013 196.839C287.925 196.839 286.881 197.262 286.112 198.015C285.342 198.768 284.91 199.788 284.91 200.853C284.91 201.917 285.342 202.938 286.112 203.69C286.881 204.443 287.925 204.866 289.013 204.866L373.409 204.931C374.497 204.931 375.541 204.508 376.31 203.755C377.08 203.002 377.512 201.982 377.512 200.917C377.512 199.853 377.08 198.831 376.31 198.079C375.541 197.326 374.497 196.904 373.409 196.904ZM187.677 192.566C186.97 193.258 186.011 193.646 185.012 193.646C184.012 193.646 183.054 193.258 182.347 192.566C181.64 191.875 181.243 190.937 181.243 189.959C181.243 188.981 181.64 188.044 182.347 187.353C183.054 186.661 184.012 186.273 185.012 186.273C186.011 186.273 186.97 186.661 187.677 187.353C188.384 188.044 188.781 188.981 188.781 189.959C188.781 190.937 188.384 191.875 187.677 192.566ZM199.509 193.646C200.509 193.646 201.468 193.258 202.174 192.566C202.881 191.875 203.278 190.937 203.278 189.959C203.278 188.981 202.881 188.044 202.174 187.353C201.468 186.661 200.509 186.273 199.509 186.273C198.51 186.273 197.551 186.661 196.844 187.353C196.137 188.044 195.74 188.981 195.74 189.959C195.74 190.937 196.137 191.875 196.844 192.566C197.551 193.258 198.51 193.646 199.509 193.646ZM216.688 192.566C215.982 193.258 215.023 193.646 214.023 193.646C213.024 193.646 212.065 193.258 211.358 192.566C210.651 191.875 210.255 190.937 210.255 189.959C210.255 188.981 210.651 188.044 211.358 187.353C212.065 186.661 213.024 186.273 214.023 186.273C215.023 186.273 215.982 186.661 216.688 187.353C217.395 188.044 217.792 188.981 217.792 189.959C217.792 190.937 217.395 191.875 216.688 192.566ZM228.534 193.646C229.533 193.646 230.492 193.258 231.199 192.566C231.905 191.875 232.303 190.937 232.303 189.959C232.303 188.981 231.905 188.044 231.199 187.353C230.492 186.661 229.533 186.273 228.534 186.273C227.534 186.273 226.575 186.661 225.868 187.353C225.162 188.044 224.764 188.981 224.764 189.959C224.764 190.937 225.162 191.875 225.868 192.566C226.575 193.258 227.534 193.646 228.534 193.646ZM146.087 104.521L146.107 69.4914L137.506 66.5371C136.448 66.1748 135.531 65.5003 134.882 64.6059C134.233 63.7114 133.885 62.6415 133.885 61.5448C133.885 60.4481 134.233 59.3782 134.882 58.4837C135.531 57.5893 136.448 56.9138 137.506 56.5515L201.553 34.594C203.561 33.911 205.745 33.911 207.753 34.594L271.082 56.2908C272.421 56.7707 273.525 57.7284 274.172 58.9717C274.778 59.719 275.111 60.643 275.119 61.5967L274.549 107.319C276.098 108.014 277.411 109.128 278.334 110.53C279.256 111.931 279.75 113.562 279.756 115.229C279.758 115.926 279.667 116.621 279.485 117.295C279.012 119.205 277.906 120.907 276.338 122.136C276.267 122.192 276.188 122.24 276.109 122.288C276.048 122.326 275.987 122.363 275.928 122.405L278.878 135.882C279.137 137.062 279.124 138.284 278.837 139.458C278.551 140.632 278 141.728 277.225 142.667C276.45 143.605 275.469 144.363 274.356 144.883C273.242 145.403 272.024 145.673 270.79 145.673C269.556 145.673 268.338 145.403 267.225 144.883C266.111 144.363 265.131 143.605 264.355 142.667C263.58 141.728 263.029 140.632 262.743 139.458C262.457 138.284 262.443 137.062 262.702 135.882L265.645 122.446C265.587 122.406 265.526 122.37 265.466 122.334C265.386 122.286 265.307 122.239 265.234 122.184C264.183 121.337 263.333 120.277 262.743 119.077C262.153 117.876 261.836 116.565 261.816 115.233C261.816 113.775 262.189 112.339 262.902 111.059C263.614 109.778 264.643 108.693 265.895 107.901C265.858 107.76 265.829 107.618 265.809 107.474L266.346 68.4234L263.232 69.4875V104.521C263.232 120.671 218.402 121.923 204.659 121.923C191.791 122.083 178.94 120.93 166.317 118.48C152.701 115.506 146.087 110.943 146.087 104.521ZM204.659 113.896C237.729 113.896 255.025 107.792 255.025 104.521L255.008 72.3212L207.696 88.5515C205.731 89.1996 203.603 89.1996 201.639 88.5515L154.294 72.3006V104.521C154.294 107.792 171.59 113.896 204.659 113.896ZM205.045 42.1712C204.794 42.0868 204.521 42.0868 204.269 42.1712L147.765 61.5487L204.277 80.9214C204.53 81.0058 204.804 81.0058 205.057 80.9214L249.141 65.815H217.134C216.517 66.9394 215.7 67.9465 214.721 68.7888C211.903 71.079 208.33 72.2904 204.667 72.1968C197.027 72.1968 191.044 67.5486 191.044 61.5605C191.044 55.5724 197.027 50.885 204.667 50.885C208.359 50.7832 211.958 52.0257 214.766 54.3723C215.749 55.192 216.562 56.1876 217.162 57.306H249.206L205.045 42.1712ZM209.3 62.7647C209.707 62.4741 209.987 62.044 210.084 61.5605C210.051 61.3304 209.969 61.11 209.845 60.9118C209.721 60.7137 209.556 60.5426 209.362 60.4092C208.033 59.373 206.366 58.8411 204.667 58.9119C201.409 58.9119 199.251 60.5049 199.251 61.5605C199.251 62.4796 201.307 64.1698 204.667 64.1698C206.331 64.2389 207.968 63.7422 209.3 62.7647Z" fill="url(#paint0_linear)"/>
<defs>
<linearGradient id="paint0_linear" x1="188.756" y1="0" x2="188.756" y2="205" gradientUnits="userSpaceOnUse">
<stop stop-color="#AD2B43"/>
<stop offset="1" stop-color="#662433"/>
</linearGradient>
</defs>
</svg>
