<svg width="172" height="71" viewBox="0 0 172 71" fill="none" xmlns="http://www.w3.org/2000/svg">
<path d="M66.356 56V37H71.448V56H66.356ZM66.356 34.568V29.4H71.448V34.568H66.356ZM90.5929 30.16H96.1029L90.0989 56H80.4089L74.4049 30.16H79.9149L84.3989 51.44H86.1089L90.5929 30.16ZM102.116 48.666C102.141 49.8313 102.445 50.68 103.028 51.212C103.636 51.7187 104.497 51.972 105.612 51.972C107.968 51.972 110.071 51.896 111.92 51.744L112.984 51.63L113.06 55.392C110.147 56.1013 107.512 56.456 105.156 56.456C102.293 56.456 100.216 55.696 98.9241 54.176C97.6321 52.656 96.9861 50.186 96.9861 46.766C96.9861 39.9513 99.7854 36.544 105.384 36.544C110.907 36.544 113.668 39.4067 113.668 45.132L113.288 48.666H102.116ZM108.652 44.79C108.652 43.27 108.411 42.2187 107.93 41.636C107.449 41.028 106.6 40.724 105.384 40.724C104.193 40.724 103.345 41.0407 102.838 41.674C102.357 42.282 102.103 43.3207 102.078 44.79H108.652ZM117.307 56V37H122.361V39.014C124.489 37.7473 126.516 36.924 128.441 36.544V41.674C126.389 42.1047 124.629 42.548 123.159 43.004L122.399 43.27V56H117.307ZM131.446 56V37H136.538V56H131.446ZM131.446 34.568V29.4H136.538V34.568H131.446ZM147.247 41.332V56H142.155V41.332H140.103V37H142.155V36.164C142.155 33.428 142.56 31.5407 143.371 30.502C144.181 29.4633 145.625 28.944 147.703 28.944C148.615 28.944 149.793 29.0707 151.237 29.324L152.035 29.438L151.959 33.58C150.844 33.5293 149.907 33.504 149.147 33.504C148.387 33.504 147.88 33.7067 147.627 34.112C147.373 34.5173 147.247 35.214 147.247 36.202V37H151.845V41.332H147.247ZM153.077 37H158.093L161.551 51.668H162.425L165.883 37H170.899L164.211 63.98H159.233L161.323 56H157.751L153.077 37Z" fill="#091924"/>
<path d="M8.70181 35.1342H0.5C0.223858 35.1342 0 35.3581 0 35.6342V56.3839C0 56.6601 0.223858 56.8839 0.5 56.8839H8.70181C8.97795 56.8839 9.20181 56.6601 9.20181 56.3839V35.6342C9.20181 35.3581 8.97795 35.1342 8.70181 35.1342Z" fill="#B8292B"/>
<path d="M26.5335 56.8839C26.3233 56.8839 26.1355 56.7524 26.0636 56.5548L15.3529 27.098C15.281 26.9004 15.0932 26.7689 14.883 26.7689H0.5C0.223857 26.7689 0 26.545 0 26.2689V18.0671C0 17.7909 0.223858 17.5671 0.5 17.5671H21.4023C21.6126 17.5671 21.8003 17.6986 21.8722 17.8962L30.3422 41.1894C30.5018 41.6283 31.1224 41.6283 31.282 41.1894L46.1403 0.329126C46.2122 0.131531 46.4 0 46.6102 0H55.4116C55.7586 0 56.0001 0.344777 55.8815 0.670868L35.5606 56.5548C35.4887 56.7524 35.3009 56.8839 35.0907 56.8839H26.5335Z" fill="#2A333D"/>
</svg>
