<svg width="375" height="224" viewBox="0 0 375 224" fill="none" xmlns="http://www.w3.org/2000/svg">
<path fill-rule="evenodd" clip-rule="evenodd" d="M66.2248 223.335C67.2947 223.335 68.3208 222.919 69.0773 222.179C69.8339 221.439 70.2589 220.436 70.2589 219.389V219.343V219.31C70.2589 218.264 69.8339 217.26 69.0773 216.52C68.3208 215.781 67.2947 215.365 66.2248 215.365H35.6458V54.3805H293.187V116.182C284.195 115.939 275.281 117.87 267.237 121.806C259.192 125.742 252.265 131.56 247.072 138.743C234.465 156.104 233.622 178.468 244.809 198.603C248.755 205.691 254.684 211.532 261.902 215.444C217.907 215.434 210.51 215.44 206.359 215.444L205.209 215.445C200.721 215.448 196.233 215.445 138.27 215.406L137.753 215.406L137.439 215.405L137.227 215.405L137.068 215.405L99.8375 215.38C99.7743 215.38 99.7157 215.396 99.6574 215.412C99.6079 215.426 99.5585 215.44 99.5066 215.444H96.965C95.8951 215.444 94.8691 215.86 94.1125 216.599C93.356 217.339 92.9309 218.343 92.9309 219.389C92.9309 220.436 93.356 221.439 94.1125 222.179C94.8691 222.919 95.8951 223.335 96.965 223.335L334.823 223.433C335.893 223.433 336.919 223.019 337.676 222.279C338.432 221.539 338.857 220.534 338.857 219.487C338.857 218.441 338.432 217.438 337.676 216.698C336.919 215.958 335.893 215.542 334.823 215.542H320.195C321.297 214.887 322.386 214.201 323.451 213.463C332.273 207.349 339.048 198.819 342.923 188.947C346.799 179.074 347.6 168.3 345.228 157.982C342.856 147.665 337.415 138.265 329.592 130.965C321.768 123.666 311.912 118.794 301.263 116.963V23.7936C301.254 17.6077 298.738 11.6774 294.265 7.30372C289.793 2.93001 283.729 0.469618 277.405 0.462311H51.4153C45.0911 0.46962 39.0281 2.9299 34.5563 7.30372C30.0844 11.6775 27.569 17.6081 27.5615 23.7936V215.345H4.03416C2.96423 215.345 1.93819 215.761 1.18164 216.501C0.425085 217.241 0 218.245 0 219.291C0 220.337 0.425085 221.341 1.18164 222.081C1.93819 222.821 2.96423 223.237 4.03416 223.237L66.2248 223.335ZM337.824 161.976C339.316 170.476 338.32 179.216 334.951 187.186C331.582 195.156 325.977 202.032 318.783 207.02C311.087 212.197 302.035 215.108 292.7 215.411C283.364 215.714 274.135 213.394 266.105 208.727C260.096 205.538 255.162 200.712 251.901 194.835C247.13 186.98 244.76 177.954 245.069 168.823C245.379 159.693 248.356 150.841 253.648 143.313C257.965 137.343 263.688 132.475 270.333 129.124C276.978 125.772 284.35 124.032 291.827 124.053C294.466 124.054 297.101 124.267 299.706 124.688C309.215 126.3 317.982 130.748 324.806 137.423C331.63 144.098 336.177 152.675 337.824 161.976ZM35.6298 23.8013C35.6351 19.7081 37.2999 15.7833 40.2591 12.889C43.2183 9.99463 47.2303 8.36665 51.4153 8.36143H277.373C281.558 8.3656 285.571 9.99259 288.531 12.887C291.491 15.7815 293.157 19.7074 293.162 23.8013V46.5045H35.6217L35.6298 23.8013ZM370.06 215.571H359.535C358.465 215.571 357.439 215.985 356.682 216.725C355.926 217.465 355.501 218.47 355.501 219.517C355.501 220.563 355.926 221.566 356.682 222.306C357.439 223.046 358.465 223.462 359.535 223.462H370.06C371.13 223.462 372.156 223.046 372.913 222.306C373.669 221.566 374.094 220.563 374.094 219.517C374.094 218.47 373.669 217.465 372.913 216.725C372.156 215.985 371.13 215.571 370.06 215.571ZM258.031 15.4756C260.447 13.8965 263.288 13.0538 266.194 13.0538C270.09 13.0569 273.825 14.5711 276.58 17.2654C279.334 19.9597 280.883 23.6142 280.886 27.4244C280.886 30.2666 280.025 33.0451 278.41 35.4083C276.796 37.7715 274.501 39.6131 271.816 40.7007C269.132 41.7884 266.178 42.0721 263.327 41.5176C260.477 40.9631 257.86 39.5951 255.805 37.5854C253.75 35.5757 252.351 33.0152 251.784 30.2276C251.217 27.4401 251.508 24.5498 252.62 21.9239C253.732 19.2981 255.615 17.0546 258.031 15.4756ZM262.514 32.8112C263.603 33.5231 264.884 33.9036 266.194 33.9036C267.95 33.9015 269.634 33.2166 270.876 32.0021C272.117 30.7875 272.816 29.1421 272.818 27.4244C272.818 26.143 272.429 24.889 271.702 23.8236C270.974 22.7581 269.939 21.9288 268.729 21.4384C267.519 20.9481 266.187 20.8205 264.902 21.0704C263.617 21.3204 262.436 21.9369 261.51 22.8429C260.584 23.749 259.953 24.9038 259.697 26.1606C259.442 27.4173 259.573 28.7201 260.074 29.904C260.575 31.0878 261.424 32.0993 262.514 32.8112ZM229.742 13.0538C226.836 13.0538 223.996 13.8965 221.58 15.4756C219.163 17.0546 217.28 19.2981 216.168 21.9239C215.056 24.5498 214.765 27.4401 215.332 30.2276C215.899 33.0152 217.298 35.5757 219.353 37.5854C221.408 39.5951 224.026 40.9631 226.876 41.5176C229.726 42.0721 232.68 41.7884 235.365 40.7007C238.049 39.6131 240.344 37.7715 241.958 35.4083C243.573 33.0451 244.434 30.2666 244.434 27.4244C244.43 23.6145 242.881 19.9614 240.126 17.2673C237.372 14.5733 233.637 13.058 229.742 13.0538ZM229.742 33.9036C228.432 33.9036 227.151 33.5231 226.062 32.8112C224.972 32.0993 224.124 31.0878 223.622 29.904C223.121 28.7201 222.99 27.4173 223.245 26.1606C223.501 24.9038 224.132 23.749 225.058 22.8429C225.985 21.9369 227.165 21.3204 228.45 21.0704C229.735 20.8205 231.067 20.9481 232.277 21.4384C233.487 21.9288 234.522 22.7581 235.25 23.8236C235.978 24.889 236.366 26.143 236.366 27.4244C236.363 29.1418 235.664 30.7877 234.422 32.0021C233.181 33.2164 231.498 33.9005 229.742 33.9036ZM185.126 15.4756C187.542 13.8965 190.382 13.0538 193.288 13.0538C197.184 13.058 200.918 14.5733 203.673 17.2673C206.427 19.9614 207.976 23.6145 207.98 27.4244C207.98 30.2666 207.119 33.0451 205.504 35.4083C203.89 37.7715 201.595 39.6131 198.911 40.7007C196.226 41.7884 193.272 42.0721 190.422 41.5176C187.572 40.9631 184.954 39.5951 182.899 37.5854C180.844 35.5757 179.445 33.0152 178.878 30.2276C178.311 27.4401 178.602 24.5498 179.714 21.9239C180.826 19.2981 182.709 17.0546 185.126 15.4756ZM189.608 32.8112C190.697 33.5231 191.978 33.9036 193.288 33.9036C195.044 33.9005 196.727 33.2164 197.968 32.0021C199.21 30.7877 199.909 29.1418 199.912 27.4244C199.912 26.143 199.524 24.889 198.796 23.8236C198.068 22.7581 197.033 21.9288 195.823 21.4384C194.613 20.9481 193.281 20.8205 191.996 21.0704C190.711 21.3204 189.531 21.9369 188.604 22.8429C187.678 23.749 187.047 24.9038 186.791 26.1606C186.536 27.4173 186.667 28.7201 187.168 29.904C187.67 31.0878 188.519 32.0993 189.608 32.8112ZM163.61 23.4723H51.9486C50.8787 23.4723 49.8526 23.8883 49.0961 24.6283C48.3395 25.3683 47.9144 26.3716 47.9144 27.418C47.9144 28.4645 48.3395 29.4678 49.0961 30.2078C49.8526 30.9477 50.8787 31.3637 51.9486 31.3637H163.61C164.68 31.3637 165.706 30.9477 166.463 30.2078C167.219 29.4678 167.644 28.4645 167.644 27.418C167.644 26.3716 167.219 25.3683 166.463 24.6283C165.706 23.8883 164.68 23.4723 163.61 23.4723ZM207.002 91.6977C209.197 97.2936 210.217 103.263 210.002 109.253C210.034 119.554 206.604 129.582 200.239 137.79C196.416 142.321 193.097 147.237 190.339 152.455C192.739 153.229 194.827 154.726 196.304 156.732C197.78 158.739 198.569 161.15 198.557 163.622C196.607 165.774 195.53 168.549 195.53 171.425C195.53 174.3 196.607 177.076 198.557 179.228C198.592 182.301 197.381 185.264 195.189 187.466C192.996 189.668 190 190.931 186.858 190.978H184.474C183.467 195.457 180.925 199.466 177.271 202.339C173.617 205.213 169.068 206.778 164.379 206.778C159.69 206.778 155.142 205.213 151.488 202.339C147.833 199.466 145.292 195.457 144.285 190.978H141.905C138.762 190.93 135.767 189.665 133.574 187.462C131.382 185.259 130.17 182.298 130.206 179.224C132.157 177.067 133.235 174.287 133.235 171.407C133.235 168.528 132.157 165.746 130.206 163.589C130.192 161.12 130.98 158.711 132.456 156.707C133.932 154.704 136.02 153.212 138.42 152.444C135.679 147.231 132.365 142.326 128.536 137.817C122.176 129.597 118.751 119.561 118.79 109.253C118.574 103.263 119.594 97.2936 121.789 91.6977C123.984 86.1018 127.308 80.9956 131.565 76.6836C135.821 72.3716 140.921 68.942 146.562 66.5997C152.202 64.2575 158.268 63.0509 164.396 63.0509C170.524 63.0509 176.589 64.2575 182.229 66.5997C187.87 68.942 192.97 72.3716 197.227 76.6836C201.483 80.9956 204.807 86.1018 207.002 91.6977ZM157.369 196.627C159.445 198.022 161.897 198.785 164.416 198.821C166.933 198.783 169.383 198.02 171.458 196.625C173.533 195.23 175.14 193.267 176.079 190.982H152.745C153.684 193.268 155.292 195.232 157.369 196.627ZM184.954 183.094H186.89L186.886 183.087C187.875 183.005 188.797 182.561 189.469 181.846C190.141 181.131 190.513 180.197 190.513 179.226C190.513 178.255 190.141 177.319 189.469 176.604C188.797 175.889 187.875 175.447 186.886 175.365H141.937C140.948 175.447 140.026 175.889 139.354 176.604C138.683 177.319 138.31 178.255 138.31 179.226C138.31 180.197 138.683 181.131 139.354 181.846C140.026 182.561 140.948 183.005 141.937 183.087H143.874C144.176 182.362 144.692 181.742 145.356 181.304C146.019 180.867 146.801 180.634 147.601 180.632H181.226C182.027 180.634 182.809 180.87 183.473 181.308C184.137 181.747 184.653 182.368 184.954 183.094ZM141.905 167.452H186.886C187.88 167.382 188.81 166.948 189.489 166.235C190.168 165.521 190.546 164.583 190.546 163.609C190.546 162.634 190.168 161.694 189.489 160.981C188.81 160.267 187.88 159.833 186.886 159.763H141.905C141.409 159.779 140.921 159.891 140.47 160.092C140.018 160.294 139.612 160.581 139.275 160.936C138.937 161.292 138.675 161.71 138.503 162.166C138.332 162.621 138.254 163.104 138.274 163.589C138.235 164.572 138.595 165.53 139.275 166.254C139.955 166.978 140.901 167.408 141.905 167.452ZM168.668 122.169L167.679 123.017H167.675C166.775 123.782 165.624 124.204 164.431 124.205C163.239 124.207 162.086 123.787 161.184 123.024L160.131 122.113V151.852H168.668V122.169ZM176.736 151.872H181.88C184.903 145.058 188.933 138.715 193.841 133.047C199.129 126.201 201.974 117.847 201.937 109.266C202.147 104.317 201.332 99.3771 199.54 94.7437C197.748 90.1102 195.017 85.8782 191.51 82.3035C188.004 78.7288 183.795 75.8851 179.136 73.942C174.477 71.999 169.464 70.9962 164.4 70.9962C159.335 70.9962 154.322 71.999 149.663 73.942C145.004 75.8851 140.795 78.7288 137.289 82.3035C133.782 85.8782 131.051 90.1102 129.259 94.7437C127.467 99.3771 126.652 104.317 126.862 109.266C126.827 117.851 129.674 126.209 134.966 133.058C139.906 138.704 143.94 145.051 146.928 151.883H152.063V115.322C152.063 114.394 152.337 113.485 152.852 112.705C153.367 111.926 154.101 111.309 154.966 110.927C155.831 110.546 156.791 110.415 157.729 110.553C158.668 110.692 159.545 111.093 160.257 111.708L164.436 115.318L168.559 111.767C169.271 111.157 170.148 110.76 171.085 110.625C172.022 110.489 172.979 110.622 173.842 111.004C174.704 111.387 175.436 112.004 175.949 112.783C176.463 113.561 176.736 114.467 176.736 115.393V151.872ZM296.333 136.931L291.371 136.63C290.521 136.612 289.689 136.869 289.005 137.363C288.321 137.856 287.824 138.559 287.591 139.359L285.848 143.911C283.856 144.34 281.922 144.995 280.084 145.861L275.553 143.008C274.893 142.608 274.119 142.428 273.345 142.493C272.572 142.559 271.841 142.866 271.261 143.37L267.529 146.587C266.912 147.161 266.509 147.92 266.383 148.743C266.258 149.567 266.417 150.407 266.836 151.132L268.889 155.559C267.807 157.151 266.998 158.905 266.496 160.752L260.966 162.037C260.213 162.215 259.539 162.624 259.041 163.204C258.543 163.784 258.248 164.506 258.198 165.262L257.892 170.103C257.862 170.939 258.122 171.759 258.628 172.433C259.135 173.107 259.859 173.595 260.683 173.816L265.327 175.508C265.708 177.385 266.406 179.188 267.392 180.842L264.415 185.578C264.004 186.223 263.817 186.98 263.883 187.738C263.948 188.495 264.262 189.212 264.778 189.78L268.07 193.425C268.582 193.994 269.267 194.387 270.025 194.545C270.783 194.702 271.573 194.618 272.278 194.302L277.231 192.1C278.86 193.163 280.659 193.954 282.553 194.44L283.863 199.837C284.043 200.575 284.459 201.239 285.052 201.729C285.644 202.219 286.381 202.509 287.156 202.559L292.122 202.864C292.972 202.884 293.806 202.628 294.49 202.133C295.175 201.639 295.671 200.935 295.901 200.134L297.64 195.589C299.558 195.212 301.401 194.53 303.094 193.572L308.944 197.088C309.312 197.309 309.743 197.409 310.174 197.373C310.605 197.337 311.012 197.165 311.336 196.885L316.843 192.152C317.167 191.872 317.39 191.498 317.48 191.084C317.57 190.671 317.522 190.24 317.343 189.855L314.592 183.937C315.679 182.344 316.49 180.587 316.992 178.737L322.511 177.45C323.269 177.279 323.949 176.873 324.451 176.292C324.953 175.711 325.249 174.986 325.294 174.226L325.605 169.377C325.627 168.543 325.364 167.725 324.857 167.054C324.35 166.382 323.627 165.896 322.805 165.672L318.336 164.125C317.975 162.12 317.265 160.189 316.238 158.419L319.062 153.91C319.47 153.265 319.655 152.507 319.589 151.751C319.523 150.994 319.209 150.28 318.695 149.712L315.411 146.073C314.896 145.503 314.209 145.111 313.45 144.952C312.69 144.792 311.899 144.877 311.191 145.19L306.241 147.391C304.611 146.33 302.813 145.54 300.92 145.052L299.609 139.65C299.435 138.912 299.022 138.249 298.432 137.759C297.842 137.27 297.106 136.979 296.333 136.931ZM304.236 150.812C304.744 151.138 305.328 151.333 305.933 151.381C306.539 151.428 307.147 151.326 307.702 151.084L312.599 148.903L315.479 152.099L312.688 156.542C312.358 157.064 312.172 157.66 312.148 158.272C312.124 158.885 312.263 159.492 312.55 160.037C313.401 161.467 314.005 163.024 314.338 164.645C314.434 165.306 314.704 165.932 315.121 166.46C315.538 166.989 316.088 167.402 316.718 167.661L321.559 169.468L321.289 173.677L316.044 174.897C315.454 175.035 314.909 175.316 314.461 175.716C314.012 176.115 313.674 176.62 313.478 177.182C312.87 178.871 312.058 180.483 311.058 181.983C310.731 182.477 310.535 183.045 310.49 183.632C310.444 184.219 310.549 184.808 310.796 185.345L313.031 190.138L309.763 192.957L305.184 190.194C304.665 189.885 304.075 189.708 303.468 189.68C302.862 189.652 302.257 189.773 301.711 190.032C300.069 190.811 298.336 191.391 296.551 191.761C295.96 191.881 295.41 192.145 294.951 192.529C294.493 192.913 294.141 193.406 293.929 193.959L292 198.887L287.696 198.627L286.454 193.516C286.313 192.938 286.026 192.406 285.618 191.967C285.21 191.527 284.696 191.196 284.122 191.003C282.398 190.409 280.754 189.613 279.224 188.636C278.718 188.308 278.135 188.113 277.53 188.067C276.925 188.022 276.318 188.128 275.767 188.375L270.865 190.553L267.985 187.356L270.809 182.879C271.124 182.371 271.304 181.794 271.333 181.201C271.361 180.607 271.236 180.017 270.97 179.482C270.173 177.877 269.58 176.181 269.203 174.435C269.076 173.857 268.804 173.321 268.411 172.872C268.018 172.424 267.517 172.078 266.952 171.866L261.914 169.988L262.184 165.774L267.408 164.559C268.001 164.422 268.548 164.14 268.999 163.74C269.45 163.34 269.79 162.834 269.986 162.27C270.583 160.589 271.385 158.985 272.374 157.492C272.708 156.998 272.909 156.43 272.957 155.839C273.005 155.248 272.899 154.654 272.649 154.115L270.446 149.285L273.673 146.495L277.865 149.021C278.416 149.411 279.062 149.653 279.739 149.722C280.416 149.791 281.1 149.686 281.722 149.416C283.366 148.638 285.099 148.056 286.885 147.683C287.476 147.563 288.025 147.297 288.483 146.913C288.941 146.529 289.292 146.038 289.503 145.485L291.436 140.553L295.74 140.813L296.983 145.944C297.127 146.519 297.417 147.049 297.825 147.487C298.233 147.925 298.746 148.254 299.319 148.448C301.053 149.04 302.708 149.834 304.248 150.812H304.236ZM279.623 177.666C278.02 175.32 277.163 172.56 277.162 169.738C277.167 165.953 278.706 162.324 281.442 159.648C284.178 156.972 287.888 155.468 291.758 155.464C294.643 155.464 297.464 156.301 299.863 157.87C302.262 159.438 304.132 161.666 305.236 164.274C306.339 166.882 306.628 169.752 306.065 172.52C305.502 175.288 304.112 177.83 302.072 179.826C300.031 181.821 297.432 183.18 294.602 183.731C291.771 184.282 288.838 183.999 286.172 182.92C283.506 181.84 281.227 180.012 279.623 177.666ZM300.534 175.473C301.695 173.776 302.315 171.78 302.315 169.738C302.313 167 301.2 164.375 299.221 162.438C297.242 160.501 294.558 159.412 291.758 159.409C289.67 159.409 287.629 160.015 285.893 161.149C284.157 162.283 282.804 163.896 282.004 165.783C281.205 167.669 280.996 169.744 281.403 171.747C281.81 173.75 282.815 175.59 284.291 177.034C285.767 178.478 287.648 179.463 289.696 179.862C291.743 180.261 293.866 180.056 295.795 179.275C297.724 178.494 299.374 177.171 300.534 175.473Z" fill="url(#paint0_linear)"/>
<defs>
<linearGradient id="paint0_linear" x1="187.047" y1="0.462311" x2="187.047" y2="223.462" gradientUnits="userSpaceOnUse">
<stop stop-color="#AD2B43"/>
<stop offset="1" stop-color="#662433"/>
</linearGradient>
</defs>
</svg>
