<svg width="376" height="248" viewBox="0 0 376 248" fill="none" xmlns="http://www.w3.org/2000/svg">
<path fill-rule="evenodd" clip-rule="evenodd" d="M328.337 239.395H242.178C241.232 234.841 238.706 230.746 235.028 227.802C231.351 224.859 226.746 223.247 221.994 223.241H217.813L213.975 203.52H294.387C298.373 203.478 302.182 201.904 304.992 199.14C307.801 196.375 309.387 192.64 309.406 188.742V42.6096C309.406 37.8712 307.484 33.3253 304.062 29.971C300.641 26.6167 295.998 24.728 291.154 24.7174H275.335V15.9303C275.331 11.7068 273.615 7.65736 270.562 4.67047C267.509 1.68359 263.369 0.00423084 259.051 0H116.326C112.008 0.00423084 107.868 1.68359 104.815 4.67047C101.761 7.65736 100.045 11.7068 100.042 15.9303V24.7174H84.4966C79.6463 24.7217 74.996 26.6067 71.5663 29.9612C68.1366 33.3158 66.2077 37.8655 66.2034 42.6096V188.742C66.2034 192.654 67.7897 196.407 70.6142 199.177C73.4388 201.947 77.2708 203.509 81.2706 203.52H160.308L156.469 223.241H153.566C148.815 223.24 144.211 224.849 140.536 227.794C136.861 230.74 134.343 234.839 133.411 239.395H124.934C123.851 239.395 122.812 239.817 122.047 240.566C121.281 241.314 120.851 242.33 120.851 243.389C120.851 244.448 121.281 245.464 122.047 246.213C122.812 246.962 123.851 247.383 124.934 247.383H328.337C329.42 247.383 330.458 246.962 331.224 246.213C331.989 245.464 332.42 244.448 332.42 243.389C332.42 242.33 331.989 241.314 331.224 240.566C330.458 239.817 329.42 239.395 328.337 239.395ZM281.035 168.406H275.588V52.4653H281.035V168.406ZM267.421 34.3295V168.406H108.458V34.3295H267.421ZM100.291 168.406H94.5743V52.4653H100.291V168.406ZM301.248 176.394V188.722C301.242 190.508 300.52 192.218 299.237 193.488C297.954 194.758 296.213 195.484 294.387 195.511L255.394 195.506C193.291 195.499 181.796 195.497 181.796 195.499L181.955 195.499L183.115 195.5H183.118C187.95 195.503 198.702 195.511 81.2791 195.511C80.3674 195.518 79.4635 195.347 78.6204 195.007C77.7772 194.668 77.0116 194.167 76.3689 193.535C75.7261 192.903 75.2188 192.152 74.877 191.326C74.5351 190.499 74.3655 189.614 74.378 188.722V176.394H301.248ZM301.248 42.6017V168.406H289.202V48.4715C289.202 47.4123 288.772 46.3968 288.006 45.6478C287.24 44.8988 286.201 44.4777 285.118 44.4777H275.588V32.6972H291.162C292.49 32.6988 293.805 32.9553 295.031 33.4539C296.258 33.9525 297.372 34.6831 298.31 35.6029C299.248 36.5226 299.992 37.6138 300.498 38.8147C301.005 40.0155 301.266 41.3026 301.264 42.6017H301.248ZM108.216 15.9186C108.218 13.8128 109.073 11.7937 110.595 10.3043C112.117 8.81492 114.181 7.978 116.334 7.97588H259.059C261.212 7.978 263.276 8.81492 264.798 10.3043C266.32 11.7937 267.175 13.8128 267.176 15.9186V26.3419H108.245L108.216 15.9186ZM84.5051 32.6933H100.291V44.4738H90.491C89.4081 44.4738 88.3692 44.8949 87.6035 45.6439C86.8377 46.3929 86.4077 47.4084 86.4077 48.4676V168.414H74.3621V42.6096C74.3621 41.3058 74.6248 40.015 75.1357 38.8108C75.6465 37.6066 76.3951 36.5119 77.3389 35.5912C78.2825 34.6704 79.4027 33.9409 80.6351 33.4441C81.8676 32.9474 83.1881 32.6941 84.521 32.6972L84.5051 32.6933ZM168.621 203.516H205.665L209.504 223.237H164.783L168.621 203.516ZM141.851 239.392C142.694 237.008 144.275 234.941 146.375 233.477C148.474 232.013 150.988 231.226 153.566 231.225H221.999C224.58 231.227 227.096 232.014 229.199 233.477C231.303 234.94 232.889 237.008 233.738 239.392H141.851ZM190.426 190.149C189.479 190.771 188.365 191.106 187.225 191.109C186.466 191.11 185.714 190.965 185.013 190.682C184.311 190.399 183.673 189.983 183.136 189.459C182.599 188.935 182.172 188.313 181.881 187.628C181.59 186.942 181.439 186.207 181.439 185.465C181.439 184.35 181.777 183.259 182.41 182.331C183.043 181.404 183.943 180.68 184.997 180.253C186.05 179.825 187.21 179.712 188.328 179.929C189.447 180.145 190.475 180.682 191.283 181.469C192.09 182.257 192.641 183.26 192.866 184.354C193.09 185.447 192.978 186.581 192.544 187.612C192.11 188.644 191.372 189.527 190.426 190.149ZM356.348 240.569C357.114 239.82 358.152 239.399 359.235 239.399H371.583C372.666 239.399 373.705 239.82 374.471 240.569C375.237 241.318 375.667 242.334 375.667 243.393C375.667 244.452 375.237 245.468 374.471 246.217C373.705 246.966 372.666 247.387 371.583 247.387H359.235C358.152 247.387 357.114 246.966 356.348 246.217C355.582 245.468 355.152 244.452 355.152 243.393C355.152 242.334 355.582 241.318 356.348 240.569ZM92.4465 247.387H4.08332C3.00036 247.387 1.96156 246.966 1.19579 246.217C0.430016 245.468 0 244.452 0 243.393C0 242.334 0.430016 241.318 1.19579 240.569C1.96156 239.82 3.00036 239.399 4.08332 239.399H92.4465C93.5294 239.399 94.5682 239.82 95.334 240.569C96.0998 241.318 96.5298 242.334 96.5298 243.393C96.5298 244.452 96.0998 245.468 95.334 246.217C94.5682 246.966 93.5294 247.387 92.4465 247.387ZM122.027 11.9343C120.973 11.9391 119.944 12.2497 119.069 12.8255C118.195 13.4014 117.514 14.216 117.113 15.1695C116.712 16.1231 116.608 17.1733 116.815 18.1844C117.021 19.1955 117.53 20.123 118.275 20.8521C119.021 21.5812 119.97 22.0792 121.004 22.2815C122.038 22.4839 123.11 22.3814 124.085 21.989C125.059 21.5966 125.894 20.9314 126.483 20.076C127.071 19.2206 127.388 18.2132 127.393 17.182C127.394 16.4924 127.257 15.8089 126.988 15.1715C126.718 14.5341 126.324 13.9567 125.825 13.4691C125.327 12.9814 124.734 12.5934 124.083 12.3302C123.431 12.067 122.733 11.9328 122.027 11.9343ZM135.593 12.8255C136.468 12.2497 137.497 11.9391 138.551 11.9343C139.256 11.9333 139.955 12.0688 140.606 12.3322C141.258 12.5955 141.849 12.9815 142.348 13.4691C142.846 13.9566 143.241 14.5363 143.511 15.1734C143.78 15.8106 143.918 16.4926 143.917 17.182C143.912 18.2132 143.595 19.2206 143.007 20.076C142.418 20.9314 141.583 21.5966 140.609 21.989C139.634 22.3814 138.562 22.4839 137.528 22.2815C136.494 22.0792 135.545 21.5812 134.799 20.8521C134.054 20.123 133.546 19.1955 133.339 18.1844C133.132 17.1733 133.236 16.1231 133.637 15.1695C134.038 14.216 134.719 13.4014 135.593 12.8255ZM155.072 11.9343C154.018 11.9391 152.989 12.2497 152.114 12.8255C151.24 13.4014 150.559 14.216 150.158 15.1695C149.756 16.1231 149.653 17.1733 149.86 18.1844C150.066 19.1955 150.575 20.123 151.32 20.8521C152.066 21.5812 153.015 22.0792 154.049 22.2815C155.082 22.4839 156.155 22.3814 157.13 21.989C158.104 21.5966 158.939 20.9314 159.528 20.076C160.116 19.2206 160.433 18.2132 160.438 17.182C160.439 16.4924 160.302 15.8089 160.033 15.1715C159.763 14.5341 159.368 13.9567 158.87 13.4691C158.371 12.9814 157.779 12.5934 157.128 12.3302C156.476 12.067 155.777 11.9328 155.072 11.9343ZM164.083 92.5188L146.815 100.633C146.673 100.7 146.554 100.805 146.47 100.935C146.387 101.066 146.343 101.217 146.343 101.37C146.343 101.524 146.387 101.675 146.47 101.805C146.554 101.936 146.673 102.04 146.815 102.107L163.896 110.13C165.018 110.636 165.917 111.519 166.429 112.618C166.942 113.718 167.034 114.961 166.688 116.121C166.47 116.788 166.107 117.402 165.626 117.921C165.144 118.439 164.555 118.851 163.897 119.128C163.239 119.405 162.529 119.54 161.813 119.526C161.097 119.512 160.392 119.349 159.746 119.046L131.739 105.885C131.042 105.579 130.421 105.13 129.919 104.567C129.417 104.003 129.046 103.34 128.832 102.622C128.531 101.519 128.633 100.347 129.121 99.3091C129.609 98.2714 130.453 97.4336 131.507 96.9397L159.579 83.759C160.637 83.2401 161.846 83.095 163 83.3475C164.155 83.6001 165.186 84.2354 165.917 85.1455C166.363 85.7252 166.673 86.3945 166.823 87.1054C166.973 87.8163 166.96 88.551 166.785 89.2563C166.609 89.9616 166.276 90.6209 165.809 91.185C165.342 91.749 164.752 92.2046 164.083 92.5188ZM229.112 102.116L212.035 110.138C210.913 110.644 210.013 111.527 209.499 112.627C208.986 113.726 208.894 114.968 209.239 116.129C209.458 116.796 209.821 117.409 210.302 117.927C210.784 118.445 211.373 118.857 212.03 119.134C212.688 119.411 213.398 119.546 214.114 119.532C214.83 119.518 215.534 119.356 216.18 119.054L244.42 105.782C245.473 105.287 246.316 104.45 246.804 103.413C247.293 102.375 247.396 101.203 247.095 100.099C246.878 99.3836 246.506 98.7214 246.004 98.159C245.503 97.5966 244.883 97.1476 244.188 96.8407L216.18 83.6795C215.566 83.3908 214.899 83.2278 214.219 83.1998C213.538 83.1718 212.859 83.2803 212.223 83.5177C211.586 83.755 211.006 84.1165 210.518 84.5805C210.029 85.0445 209.642 85.6015 209.381 86.2166C208.918 87.4238 208.941 88.7577 209.445 89.9491C209.949 91.1405 210.897 92.1002 212.097 92.6344L229.108 100.622C229.263 100.679 229.397 100.781 229.491 100.914C229.586 101.048 229.636 101.205 229.637 101.367C229.637 101.529 229.587 101.688 229.494 101.821C229.4 101.955 229.267 102.058 229.112 102.116ZM169.935 127.602L196.995 71.0296H196.999C197.556 69.8644 198.564 68.9642 199.8 68.5256C201.037 68.0871 202.4 68.1464 203.591 68.6914C204.783 69.2364 205.704 70.222 206.152 71.4313C206.6 72.6405 206.54 73.9752 205.983 75.1404L178.918 131.716C178.36 132.882 177.352 133.782 176.115 134.22C174.879 134.659 173.515 134.598 172.324 134.053C171.132 133.507 170.211 132.52 169.764 131.311C169.316 130.101 169.377 128.767 169.935 127.602ZM162.726 54.3043H253.449C254.532 54.3043 255.571 53.8832 256.337 53.1342C257.103 52.3852 257.533 51.3697 257.533 50.3105C257.533 49.2513 257.103 48.2357 256.337 47.4868C255.571 46.7378 254.532 46.3167 253.449 46.3167H162.726C161.643 46.3167 160.605 46.7378 159.839 47.4868C159.073 48.2357 158.643 49.2513 158.643 50.3105C158.643 51.3697 159.073 52.3852 159.839 53.1342C160.605 53.8832 161.643 54.3043 162.726 54.3043ZM140.948 54.3043H123.925C122.842 54.3043 121.803 53.8832 121.037 53.1342C120.271 52.3852 119.841 51.3697 119.841 50.3105C119.841 49.2513 120.271 48.2357 121.037 47.4868C121.803 46.7378 122.842 46.3167 123.925 46.3167H140.948C142.031 46.3167 143.07 46.7378 143.835 47.4868C144.601 48.2357 145.032 49.2513 145.032 50.3105C145.032 51.3697 144.601 52.3852 143.835 53.1342C143.07 53.8832 142.031 54.3043 140.948 54.3043ZM123.925 156.422H214.648C215.731 156.422 216.77 156.001 217.535 155.252C218.301 154.503 218.731 153.487 218.731 152.428C218.731 151.369 218.301 150.354 217.535 149.605C216.77 148.856 215.731 148.434 214.648 148.434H123.925C122.842 148.434 121.803 148.856 121.037 149.605C120.271 150.354 119.841 151.369 119.841 152.428C119.841 153.487 120.271 154.503 121.037 155.252C121.803 156.001 122.842 156.422 123.925 156.422ZM236.425 148.434H253.448C254.531 148.434 255.57 148.856 256.335 149.605C257.101 150.354 257.531 151.369 257.531 152.428C257.531 153.487 257.101 154.503 256.335 155.252C255.57 156.001 254.531 156.422 253.448 156.422H236.425C235.342 156.422 234.303 156.001 233.537 155.252C232.771 154.503 232.341 153.487 232.341 152.428C232.341 151.369 232.771 150.354 233.537 149.605C234.303 148.856 235.342 148.434 236.425 148.434Z" fill="url(#paint0_linear)"/>
<defs>
<linearGradient id="paint0_linear" x1="187.833" y1="0" x2="187.833" y2="247.387" gradientUnits="userSpaceOnUse">
<stop stop-color="#AD2B43"/>
<stop offset="1" stop-color="#662430"/>
</linearGradient>
</defs>
</svg>
