<svg width="380" height="244" viewBox="0 0 380 244" fill="none" xmlns="http://www.w3.org/2000/svg">
<path fill-rule="evenodd" clip-rule="evenodd" d="M4.12283 243.697H136.647C137.741 243.697 138.789 243.273 139.563 242.516C140.336 241.76 140.77 240.734 140.77 239.665C140.77 238.596 140.336 237.57 139.563 236.814C138.789 236.057 137.741 235.633 136.647 235.633H57.427C52.8574 235.607 48.4341 234.054 44.8908 231.232C41.3476 228.41 38.8973 224.487 37.9466 220.116H85.9075L88.1174 225.257C88.7145 226.818 89.7895 228.162 91.1958 229.103C92.6021 230.045 94.2712 230.54 95.9755 230.519H135.674C137.342 230.549 138.98 230.081 140.369 229.178C141.758 228.274 142.833 226.979 143.45 225.463L145.746 220.116H188.921C189.8 225.993 192.597 231.435 196.894 235.633H182.007C180.913 235.633 179.865 236.057 179.091 236.814C178.318 237.57 177.884 238.596 177.884 239.665C177.884 240.734 178.318 241.76 179.091 242.516C179.865 243.273 180.913 243.697 182.007 243.697H326.005C327.098 243.697 328.147 243.273 328.92 242.516C329.693 241.76 330.128 240.734 330.128 239.665C330.128 238.596 329.693 237.57 328.92 236.814C328.147 236.057 327.098 235.633 326.005 235.633H318.448C324.445 230.877 328.815 224.444 330.975 217.194C333.135 209.945 332.981 202.223 330.535 195.061C328.088 187.899 323.465 181.637 317.284 177.113C311.102 172.589 303.657 170.018 295.941 169.743V86.0371C295.928 82.563 294.86 79.1708 292.874 76.2907C292.243 75.4041 291.532 74.5742 290.751 73.8108C287.428 70.5854 282.936 68.7763 278.254 68.7783H235.187C229.226 57.4666 219.261 48.6621 207.152 44.007V32.7162H217.393C218.51 35.3437 220.541 37.5006 223.126 38.8061C225.711 40.1115 228.685 40.4815 231.522 39.8507C234.359 39.2198 236.877 37.6288 238.631 35.3585C240.385 33.0882 241.263 30.2848 241.109 27.4431C240.955 24.6014 239.779 21.9043 237.79 19.8281C235.8 17.7519 233.124 16.4301 230.235 16.0961C227.345 15.7622 224.428 16.4375 221.999 18.0029C219.569 19.5683 217.783 21.923 216.956 24.6513H206.649C204.583 24.6524 202.602 25.455 201.14 26.8831C199.679 28.3111 198.856 30.248 198.853 32.2686V41.5432C196.507 41.0667 194.131 40.7461 191.741 40.5835V23.4376C194.463 22.4874 196.754 20.6275 198.211 18.186C199.668 15.7445 200.197 12.8783 199.704 10.0929C199.211 7.30746 197.728 4.78176 195.517 2.9613C193.305 1.14085 190.508 0.142578 187.618 0.142578C184.728 0.142578 181.93 1.14085 179.719 2.9613C177.508 4.78176 176.025 7.30746 175.532 10.0929C175.039 12.8783 175.568 15.7445 177.025 18.186C178.481 20.6275 180.773 22.4874 183.495 23.4376V40.5956C181.121 40.772 178.761 41.1047 176.433 41.5916V32.2848C176.43 30.2645 175.609 28.3276 174.148 26.8994C172.687 25.4713 170.706 24.6685 168.64 24.6675H158.572C157.745 21.9831 155.975 19.6703 153.576 18.1362C151.177 16.6021 148.301 15.945 145.455 16.2806C142.609 16.6162 139.975 17.9229 138.017 19.9708C136.059 22.0187 134.902 24.6765 134.751 27.4764C134.599 30.2762 135.462 33.0387 137.187 35.2775C138.913 37.5164 141.391 39.0881 144.185 39.716C146.979 40.344 149.909 39.9879 152.461 38.7104C155.013 37.433 157.022 35.3161 158.135 32.7323H168.187V44.0917C156.163 48.7659 146.277 57.5394 140.354 68.7904H96.0991C91.4154 68.7904 86.9229 70.6074 83.6071 73.8429C80.2914 77.0784 78.4231 81.4682 78.4122 86.0493V212.063H33.3909C32.2974 212.063 31.2488 212.488 30.4756 213.244C29.7024 214 29.268 215.026 29.268 216.095C29.2655 219.729 29.9986 223.328 31.4252 226.683C32.8517 230.038 34.9434 233.084 37.5796 235.645H4.12283C3.02939 235.645 1.98073 236.07 1.20755 236.826C0.434366 237.582 0 238.608 0 239.677C0 240.747 0.434366 241.772 1.20755 242.528C1.98073 243.285 3.02939 243.71 4.12283 243.71V243.697ZM228.685 24.0828C229.479 24.0835 230.255 24.3145 230.915 24.7464C231.575 25.1782 232.089 25.7917 232.392 26.5092C232.695 27.2267 232.775 28.0161 232.62 28.7776C232.464 29.5391 232.082 30.2385 231.521 30.7876C230.959 31.3366 230.244 31.7106 229.466 31.8623C228.687 32.014 227.88 31.9365 227.146 31.6398C226.413 31.343 225.786 30.8402 225.344 30.1949C224.903 29.5496 224.666 28.7908 224.666 28.0144C224.667 26.972 225.091 25.9726 225.844 25.2355C226.598 24.4984 227.62 24.0838 228.685 24.0828ZM146.893 31.942C146.098 31.9412 145.322 31.7102 144.663 31.2781C144.003 30.8461 143.489 30.2324 143.185 29.5146C142.882 28.7969 142.803 28.0073 142.959 27.2457C143.114 26.4841 143.497 25.7846 144.059 25.2357C144.62 24.6869 145.336 24.3132 146.115 24.162C146.894 24.0108 147.701 24.0888 148.434 24.3862C149.168 24.6835 149.795 25.187 150.236 25.8328C150.677 26.4786 150.912 27.2377 150.912 28.0144C150.91 29.0561 150.486 30.0545 149.732 30.7907C148.979 31.5269 147.958 31.9409 146.893 31.942ZM105.586 96.6142C104.792 96.6142 104.016 96.384 103.355 95.9526C102.695 95.5212 102.18 94.908 101.876 94.1906C101.572 93.4731 101.492 92.6836 101.647 91.9219C101.802 91.1601 102.184 90.4603 102.745 89.9108C103.306 89.3614 104.021 88.987 104.8 88.835C105.579 88.683 106.386 88.7602 107.12 89.0568C107.854 89.3535 108.481 89.8563 108.923 90.5016C109.364 91.147 109.601 91.906 109.601 92.6826C109.6 93.7236 109.178 94.7218 108.426 95.4587C107.674 96.1955 106.654 96.611 105.59 96.6142H105.586ZM106.979 104.542C109.241 104.288 111.385 103.421 113.17 102.04C114.955 100.659 116.311 98.8172 117.084 96.7231H134.681C134.86 99.0426 135.199 101.348 135.695 103.623H126.113C124.047 103.625 122.067 104.428 120.606 105.857C119.145 107.286 118.323 109.223 118.321 111.244V121.091C115.573 121.899 113.204 123.63 111.632 125.978C110.06 128.327 109.385 131.142 109.727 133.929C110.068 136.716 111.404 139.296 113.499 141.215C115.594 143.133 118.314 144.267 121.18 144.417C124.046 144.567 126.874 143.723 129.166 142.034C131.459 140.346 133.068 137.92 133.712 135.184C134.356 132.449 133.992 129.579 132.685 127.08C131.378 124.581 129.211 122.613 126.567 121.523V111.687H138.235C140.927 118.318 144.976 124.34 150.134 129.385C155.292 134.43 161.449 138.39 168.228 141.024V152.508H158.177C157.427 150.778 156.273 149.245 154.806 148.032C153.34 146.819 151.603 145.96 149.734 145.524C147.866 145.089 145.919 145.088 144.051 145.523C142.183 145.959 140.445 146.817 138.978 148.03C137.512 149.243 136.357 150.775 135.607 152.505C134.857 154.234 134.533 156.112 134.661 157.986C134.789 159.86 135.366 161.679 136.345 163.295C137.324 164.911 138.677 166.28 140.296 167.291H127.103C126.031 167.291 125.004 167.707 124.246 168.448C123.488 169.189 123.063 170.194 123.063 171.243C123.063 172.291 123.488 173.296 124.246 174.037C125.004 174.778 126.031 175.194 127.103 175.194H175.629C175.695 175.553 175.761 175.912 175.86 176.267C176.575 178.787 178.114 181.009 180.243 182.592C182.372 184.175 184.972 185.033 187.647 185.033C190.321 185.033 192.922 184.175 195.05 182.592C197.179 181.009 198.719 178.787 199.434 176.267C199.519 175.971 199.573 175.689 199.627 175.406L199.627 175.406C199.641 175.334 199.655 175.262 199.669 175.19H247.242C248.314 175.19 249.342 174.774 250.099 174.033C250.857 173.292 251.283 172.287 251.283 171.239C251.283 170.19 250.857 169.185 250.099 168.444C249.342 167.703 248.314 167.287 247.242 167.287H235.286C236.9 166.274 238.248 164.906 239.222 163.291C240.196 161.676 240.77 159.86 240.895 157.989C241.021 156.118 240.696 154.245 239.947 152.519C239.198 150.793 238.044 149.263 236.58 148.053C235.116 146.842 233.382 145.985 231.517 145.55C229.653 145.114 227.71 145.113 225.845 145.546C223.979 145.979 222.244 146.834 220.778 148.042C219.312 149.251 218.157 150.779 217.405 152.504H207.131V141.092C213.994 138.46 220.227 134.471 225.44 129.374C230.653 124.276 234.733 118.181 237.426 111.47H249.172V121.519C246.488 122.612 244.286 124.598 242.954 127.126C241.622 129.654 241.246 132.56 241.892 135.332C242.539 138.105 244.166 140.565 246.486 142.278C248.806 143.991 251.671 144.847 254.574 144.695C257.477 144.543 260.232 143.393 262.352 141.448C264.473 139.502 265.822 136.886 266.162 134.062C266.502 131.238 265.811 128.388 264.211 126.014C262.611 123.64 260.205 121.895 257.417 121.087V111.026C257.414 109.005 256.592 107.068 255.13 105.639C253.669 104.21 251.687 103.407 249.621 103.405H239.933C240.402 101.199 240.723 98.9659 240.893 96.7191H258.737C259.455 98.5366 260.616 100.156 262.118 101.436C263.62 102.716 265.418 103.619 267.358 104.066V180.868C263.247 184.897 260.16 189.813 258.347 195.222C256.534 200.63 256.045 206.379 256.919 212.007H106.983L106.979 104.542ZM121.751 128.62C122.547 128.619 123.324 128.849 123.986 129.28C124.647 129.712 125.163 130.326 125.468 131.044C125.773 131.762 125.853 132.553 125.699 133.316C125.544 134.079 125.161 134.78 124.599 135.33C124.037 135.88 123.321 136.255 122.541 136.407C121.761 136.559 120.953 136.481 120.218 136.184C119.483 135.887 118.855 135.383 118.414 134.736C117.972 134.089 117.736 133.329 117.736 132.551C117.737 131.511 118.159 130.513 118.91 129.777C119.661 129.04 120.68 128.624 121.743 128.62H121.751ZM206.682 160.573H216.989C217.81 163.34 219.624 165.725 222.097 167.291H198.358C197.77 166.206 197.017 165.217 196.123 164.355C194.879 163.227 193.403 162.37 191.794 161.843V144.503C194.184 144.342 196.56 144.023 198.906 143.548V152.951C198.909 154.968 199.728 156.901 201.183 158.328C202.639 159.756 204.612 160.563 206.674 160.573H206.682ZM228.681 161.145C227.887 161.145 227.112 160.914 226.452 160.482C225.792 160.05 225.278 159.436 224.975 158.719C224.671 158.001 224.592 157.212 224.747 156.451C224.902 155.689 225.285 154.99 225.846 154.441C226.407 153.891 227.122 153.518 227.901 153.366C228.68 153.214 229.487 153.292 230.22 153.588C230.954 153.885 231.581 154.388 232.023 155.033C232.464 155.678 232.7 156.437 232.701 157.214C232.7 158.255 232.277 159.254 231.524 159.991C230.771 160.728 229.75 161.143 228.685 161.145H228.681ZM184.843 170.222C185.596 169.5 186.609 169.099 187.663 169.105C188.721 169.115 189.732 169.53 190.48 170.262C191.228 170.993 191.653 171.982 191.662 173.017C191.653 173.389 191.594 173.757 191.485 174.114C191.254 174.937 190.752 175.664 190.058 176.182C189.363 176.7 188.514 176.981 187.641 176.981C186.767 176.981 185.918 176.7 185.223 176.182C184.529 175.664 184.027 174.937 183.796 174.114C183.691 173.762 183.633 173.399 183.623 173.033C183.622 172.508 183.73 171.988 183.94 171.505C184.151 171.022 184.459 170.585 184.847 170.222H184.843ZM183.528 161.847C181.91 162.372 180.425 163.23 179.174 164.363C178.282 165.221 177.531 166.209 176.948 167.291H153.489C155.962 165.725 157.776 163.34 158.597 160.573H168.665C170.731 160.571 172.712 159.767 174.173 158.338C175.633 156.909 176.455 154.972 176.457 152.951V143.499C178.786 143.984 181.146 144.317 183.52 144.495L183.528 161.847ZM142.873 157.214C142.873 156.436 143.108 155.676 143.55 155.029C143.992 154.383 144.62 153.879 145.354 153.581C146.089 153.284 146.897 153.206 147.677 153.358C148.456 153.509 149.173 153.884 149.735 154.434C150.297 154.983 150.68 155.684 150.835 156.447C150.99 157.209 150.91 158 150.606 158.718C150.302 159.437 149.787 160.051 149.126 160.483C148.465 160.915 147.688 161.145 146.893 161.145C145.827 161.143 144.807 160.728 144.054 159.991C143.301 159.254 142.878 158.255 142.877 157.214H142.873ZM251.612 129.467C252.266 129.779 252.996 129.902 253.719 129.822C254.441 129.742 255.125 129.462 255.69 129.015C256.338 129.315 256.892 129.779 257.294 130.36C257.696 130.94 257.931 131.616 257.975 132.316C258.019 133.016 257.869 133.715 257.543 134.339C257.216 134.963 256.724 135.49 256.118 135.865C255.512 136.239 254.814 136.448 254.097 136.469C253.381 136.489 252.671 136.321 252.044 135.982C251.416 135.643 250.893 135.146 250.529 134.542C250.166 133.937 249.974 133.249 249.976 132.547C249.983 131.944 250.136 131.352 250.42 130.817C250.704 130.282 251.113 129.819 251.612 129.467ZM270.165 96.344C269.37 96.3448 268.592 96.115 267.931 95.6834C267.269 95.2519 266.753 94.6381 266.449 93.9198C266.144 93.2015 266.063 92.4108 266.218 91.6479C266.373 90.885 266.755 90.184 267.317 89.6338C267.879 89.0835 268.596 88.7087 269.375 88.5566C270.155 88.4046 270.964 88.4822 271.698 88.7797C272.433 89.0771 273.061 89.5811 273.503 90.2277C273.945 90.8743 274.181 91.6347 274.181 92.4124C274.181 93.4548 273.758 94.4547 273.005 95.1925C272.252 95.9304 271.231 96.3459 270.165 96.3481V96.344ZM135.678 222.451L95.8064 222.334L94.85 220.112H136.709L135.678 222.451ZM197.261 220.112H259.079C261.427 226.078 265.303 231.354 270.334 235.435C270.301 235.435 270.268 235.442 270.236 235.449C270.208 235.455 270.181 235.461 270.153 235.463C269.382 235.559 268.605 235.609 267.828 235.612H216.725C212.159 235.589 207.738 234.039 204.195 231.22C200.653 228.402 198.202 224.484 197.249 220.116L197.261 220.112ZM324.244 206.805C324.238 213.851 321.619 220.657 316.873 225.958C312.127 231.26 305.576 234.699 298.436 235.637H290.602C284.939 234.904 279.612 232.59 275.258 228.973C270.905 225.356 267.709 220.589 266.053 215.242C264.397 209.895 264.352 204.194 265.922 198.822C267.492 193.45 270.611 188.635 274.907 184.952C279.202 181.269 284.492 178.874 290.142 178.055C295.793 177.235 301.565 178.025 306.768 180.331C311.972 182.636 316.386 186.359 319.482 191.054C322.578 195.749 324.226 201.218 324.228 206.805H324.244ZM278.246 76.8432C280.753 76.8436 283.159 77.8115 284.941 79.5368C285.351 79.9394 285.725 80.3751 286.059 80.8393C287.12 82.3754 287.693 84.1835 287.708 86.0371V170.315C283.457 171.07 279.371 172.535 275.628 174.646V103.11C277.435 102.236 278.992 100.938 280.162 99.333C281.332 97.7275 282.078 95.8641 282.334 93.9086C282.59 91.953 282.347 89.9659 281.628 88.1241C280.909 86.2823 279.736 84.643 278.212 83.3519C276.689 82.0609 274.863 81.1582 272.896 80.7242C270.93 80.2902 268.885 80.3383 266.942 80.8643C264.999 81.3903 263.22 82.3778 261.762 83.739C260.303 85.1002 259.212 86.7928 258.584 88.6663H240.893C240.604 84.6545 239.837 80.6894 238.609 76.8512L278.246 76.8432ZM187.655 8.26754C188.45 8.26754 189.227 8.49811 189.888 8.93013C190.549 9.36214 191.064 9.97618 191.369 10.6946C191.673 11.413 191.753 12.2035 191.597 12.9662C191.442 13.7289 191.06 14.4294 190.497 14.9792C189.935 15.5291 189.219 15.9036 188.439 16.0553C187.659 16.207 186.851 16.1291 186.117 15.8315C185.382 15.5339 184.754 15.03 184.313 14.3835C183.871 13.7369 183.635 12.9768 183.635 12.1992C183.635 11.1564 184.059 10.1564 184.813 9.41908C185.566 8.68175 186.589 8.26754 187.655 8.26754ZM187.77 48.4629C192.387 48.4617 196.976 49.1567 201.376 50.5234L201.45 50.5517C210.56 53.4011 218.511 59.0053 224.156 66.5572C229.801 74.1091 232.849 83.2187 232.862 92.5737V92.6262V92.6907V92.727C232.862 104.418 228.113 115.631 219.661 123.898C211.208 132.165 199.745 136.81 187.791 136.81C175.837 136.81 164.374 132.165 155.921 123.898C147.469 115.631 142.72 104.418 142.72 92.727V92.6907V92.6262V92.5737C142.728 80.8855 147.475 69.6774 155.921 61.408C164.366 53.1386 175.82 48.4832 187.77 48.4629ZM86.6579 86.0371C86.6666 83.5944 87.6654 81.2547 89.4353 79.5312C91.2051 77.8077 93.6016 76.841 96.0991 76.8432H136.952C135.728 80.682 134.963 84.6469 134.672 88.6582H117.089C116.436 86.8759 115.361 85.2703 113.952 83.9731C112.542 82.676 110.838 81.7242 108.98 81.1959C107.121 80.6677 105.161 80.578 103.26 80.9343C101.359 81.2906 99.5717 82.0827 98.0445 83.2455C96.5173 84.4084 95.2938 85.9088 94.4743 87.6238C93.6549 89.3388 93.2629 91.2193 93.3306 93.1112C93.3982 95.003 93.9236 96.8522 94.8635 98.507C95.8035 100.162 97.1312 101.575 98.7378 102.631V212.011H86.6579V86.0371ZM201.546 123.973H174.034C170.67 123.964 167.447 122.649 165.072 120.319C162.697 117.988 161.363 114.832 161.365 111.541V93.113C161.37 90.5419 162.192 88.036 163.717 85.9413C165.241 83.8466 167.392 82.2664 169.874 81.4189V73.3137C169.838 70.9902 170.275 68.6829 171.159 66.526C172.043 64.3691 173.357 62.4058 175.024 60.7502C176.692 59.0946 178.679 57.7799 180.87 56.8825C183.062 55.985 185.414 55.5229 187.79 55.5229C190.166 55.5229 192.518 55.985 194.709 56.8825C196.901 57.7799 198.888 59.0946 200.555 60.7502C202.223 62.4058 203.537 64.3691 204.421 66.526C205.305 68.6829 205.742 70.9902 205.706 73.3137V81.4189C208.188 82.2654 210.34 83.8453 211.865 85.9403C213.389 88.0352 214.211 90.5416 214.215 93.113V111.541C214.216 114.832 212.883 117.988 210.508 120.319C208.133 122.649 204.91 123.964 201.546 123.973ZM180.194 65.8885C178.18 67.8588 177.048 70.5312 177.048 73.3177V79.3059H198.532V73.3177C198.532 70.5312 197.4 67.8588 195.386 65.8885C193.371 63.9181 190.639 62.8112 187.79 62.8112C184.941 62.8112 182.209 63.9181 180.194 65.8885ZM170.915 90.0345C170.086 90.8532 169.622 91.9604 169.627 93.113V111.541C169.622 112.694 170.086 113.801 170.915 114.62C171.744 115.438 172.872 115.902 174.051 115.908H201.562C202.741 115.902 203.868 115.438 204.698 114.62C205.527 113.801 205.99 112.694 205.986 111.541V93.113C205.99 91.9604 205.527 90.8532 204.698 90.0345C203.868 89.2157 202.741 88.7522 201.562 88.7458H174.051C172.872 88.7522 171.744 89.2157 170.915 90.0345ZM127.103 192.384H247.251H247.264C248.335 192.384 249.362 192.8 250.119 193.541C250.876 194.281 251.302 195.286 251.302 196.334C251.302 197.381 250.876 198.386 250.119 199.126C249.362 199.867 248.335 200.283 247.264 200.283H127.103C126.032 200.283 125.005 199.867 124.248 199.126C123.491 198.386 123.065 197.381 123.065 196.334C123.065 195.286 123.491 194.281 124.248 193.541C125.005 192.8 126.032 192.384 127.103 192.384ZM184.906 101.539L184.04 107.555C184.016 107.727 184.031 107.902 184.082 108.068C184.134 108.234 184.221 108.387 184.338 108.517C184.455 108.647 184.6 108.751 184.762 108.822C184.924 108.892 185.099 108.928 185.277 108.926H190.335C190.513 108.928 190.688 108.892 190.85 108.822C191.012 108.751 191.157 108.647 191.274 108.517C191.391 108.387 191.479 108.234 191.53 108.068C191.581 107.902 191.596 107.727 191.572 107.555L190.698 101.482C190.682 101.33 190.696 101.176 190.741 101.03C190.785 100.883 190.859 100.746 190.958 100.628C191.426 100.028 191.704 99.3077 191.76 98.5553C191.816 97.803 191.646 97.0511 191.271 96.3917C190.897 95.7323 190.334 95.194 189.651 94.8427C188.969 94.4914 188.197 94.3423 187.429 94.4136C186.733 94.4851 186.069 94.7351 185.503 95.1384C184.938 95.5417 184.492 96.0839 184.21 96.7102C183.928 97.3364 183.82 98.0245 183.897 98.7046C183.975 99.3848 184.234 100.033 184.65 100.583C184.755 100.718 184.832 100.872 184.876 101.036C184.92 101.2 184.93 101.371 184.906 101.539ZM280.502 203.462C280.971 203.677 281.39 203.984 281.733 204.364L289.257 211.704L307.27 194.086C307.994 193.46 308.935 193.128 309.901 193.157C310.867 193.186 311.786 193.575 312.469 194.243C313.152 194.911 313.549 195.81 313.579 196.754C313.609 197.699 313.27 198.62 312.63 199.328L289.245 220.66C288.746 220.66 288.253 220.564 287.792 220.377C287.332 220.19 286.913 219.916 286.561 219.571L276.374 209.607C275.985 209.271 275.671 208.861 275.451 208.402C275.23 207.943 275.108 207.445 275.092 206.938C275.076 206.431 275.166 205.927 275.357 205.455C275.548 204.984 275.836 204.556 276.202 204.197C276.569 203.839 277.007 203.557 277.489 203.371C277.971 203.184 278.487 203.095 279.005 203.111C279.523 203.127 280.032 203.246 280.502 203.462ZM343.61 242.819C342.837 242.063 342.402 241.037 342.402 239.968C342.402 238.898 342.837 237.872 343.61 237.116C344.383 236.36 345.432 235.935 346.525 235.935H375.179C376.272 235.935 377.321 236.36 378.094 237.116C378.867 237.872 379.302 238.898 379.302 239.968C379.302 241.037 378.867 242.063 378.094 242.819C377.321 243.575 376.272 244 375.179 244H346.525C345.432 244 344.383 243.575 343.61 242.819Z" fill="url(#paint0_linear)"/>
<defs>
<linearGradient id="paint0_linear" x1="189.651" y1="0.142578" x2="189.651" y2="244" gradientUnits="userSpaceOnUse">
<stop stop-color="#AD2B43"/>
<stop offset="1" stop-color="#662433"/>
</linearGradient>
</defs>
</svg>
