<?xml version="1.0" encoding="UTF-8" standalone="no"?>
<svg
   id="katman_1"
   data-name="katman 1"
   viewBox="0 0 835 175"
   version="1.1"
   sodipodi:docname="Pangolin-DEX-Banner.svg"
   inkscape:version="1.2.2 (732a01da63, 2022-12-09)"
   width="835"
   height="175"
   inkscape:export-filename="..\..\..\..\..\..\..\Users\llcry\Desktop\Pangolin-DEX-Banner.png"
   inkscape:export-xdpi="96"
   inkscape:export-ydpi="96"
   xmlns:inkscape="http://www.inkscape.org/namespaces/inkscape"
   xmlns:sodipodi="http://sodipodi.sourceforge.net/DTD/sodipodi-0.dtd"
   xmlns="http://www.w3.org/2000/svg"
   xmlns:svg="http://www.w3.org/2000/svg">
  <sodipodi:namedview
     id="namedview81"
     pagecolor="#ffffff"
     bordercolor="#000000"
     borderopacity="0.25"
     inkscape:showpageshadow="2"
     inkscape:pageopacity="0.0"
     inkscape:pagecheckerboard="0"
     inkscape:deskcolor="#d1d1d1"
     showgrid="false"
     inkscape:zoom="1.1203704"
     inkscape:cx="540.44628"
     inkscape:cy="145.4876"
     inkscape:window-width="1920"
     inkscape:window-height="1009"
     inkscape:window-x="-8"
     inkscape:window-y="-8"
     inkscape:window-maximized="1"
     inkscape:current-layer="katman_1" />
  <defs
     id="defs4">
    <style
       id="style2">.cls-1{fill:#1a1a1a;}.cls-2{fill:#ffc800;}.cls-3{fill:#e1aa00;}</style>
  </defs>
  <path
     class="cls-1"
     d="m 301.8,67.1 a 23.2,23.2 0 0 1 -10.1,9.5 q -6.75,3.6 -16.8,3.6 h -12.4 v 29.51 h -20 V 27.6 h 32.4 c 6.5,0 12.1,1.1 16.6,3.4 a 23.18,23.18 0 0 1 10.2,9.4 27.31,27.31 0 0 1 3.4,13.7 26.73,26.73 0 0 1 -3.3,13 z m -19.9,-5.39 c 1.9,-1.8 2.8,-4.3 2.8,-7.6 0,-3.3 -0.9,-5.8 -2.8,-7.6 -1.9,-1.8 -4.7,-2.7 -8.5,-2.7 h -10.9 v 20.6 h 10.9 c 3.8,0 6.7,-0.9 8.5,-2.7 z"
     id="path6"
     style="fill:#ffffff" />
  <path
     class="cls-1"
     d="M 366.6,95.3 H 336 l -4.9,14.5 H 310.2 L 339.9,27.71 H 363 l 29.7,82.1 h -21.2 z m -5.2,-15.5 -10.2,-30 -10,30 z"
     id="path8"
     style="fill:#ffffff" />
  <path
     class="cls-1"
     d="m 475.1,109.8 h -20 L 421.7,59.2 v 50.6 h -20 V 27.71 h 20 l 33.4,50.9 v -50.9 h 20 z"
     id="path10"
     style="fill:#ffffff" />
  <path
     class="cls-1"
     d="m 544,53.6 a 14.21,14.21 0 0 0 -6.4,-6.2 22,22 0 0 0 -9.8,-2.2 c -6.5,0 -11.7,2.1 -15.5,6.4 -3.8,4.3 -5.8,9.9 -5.9,17.1 0,7.6 2,13.5 6.1,17.7 4.1,4.2 9.7,6.4 16.9,6.4 A 19.52,19.52 0 0 0 549.3,78.3 H 524 V 63.6 h 43.5 v 18.6 a 39.13,39.13 0 0 1 -7.5,13.9 40.45,40.45 0 0 1 -13.5,10.4 42.24,42.24 0 0 1 -18.5,4 44.39,44.39 0 0 1 -21.7,-5.3 37.62,37.62 0 0 1 -14.8,-14.8 46.67,46.67 0 0 1 0,-43.3 38.53,38.53 0 0 1 14.8,-14.9 44,44 0 0 1 21.6,-5.3 c 9.8,0 18.1,2.4 24.8,7.1 a 33.58,33.58 0 0 1 13.4,19.71 H 544 Z"
     id="path12"
     style="fill:#ffffff" />
  <path
     class="cls-1"
     d="m 596.2,105.2 a 39.39,39.39 0 0 1 -15.3,-15 44,44 0 0 1 0,-43.3 40.07,40.07 0 0 1 15.3,-15 44.31,44.31 0 0 1 42.4,0 39.81,39.81 0 0 1 15.2,15 45,45 0 0 1 0,43.3 39.81,39.81 0 0 1 -15.2,15 44.31,44.31 0 0 1 -42.4,0 z m 37,-19.4 c 3.9,-4.4 5.9,-10.1 5.9,-17.3 0,-7.2 -2,-12.9 -5.9,-17.4 -3.9,-4.3 -9.2,-6.5 -15.7,-6.5 -6.5,0 -11.8,2.1 -15.8,6.4 -4,4.3 -5.9,10.1 -5.9,17.4 0,7.3 2,13.1 5.9,17.4 3.9,4.3 9.2,6.5 15.8,6.5 6.6,0 11.8,-2.2 15.7,-6.5 z"
     id="path14"
     style="fill:#ffffff" />
  <path
     class="cls-1"
     d="m 690.5,94.3 h 26.2 v 15.41 H 670.5 V 27.6 h 20 z"
     id="path16"
     style="fill:#ffffff" />
  <path
     class="cls-1"
     d="m 746.3,27.71 v 82.1 h -20 v -82.1 z"
     id="path18"
     style="fill:#ffffff" />
  <path
     class="cls-1"
     d="m 834.2,109.8 h -20 L 780.8,59.2 v 50.6 h -20 V 27.71 h 20 l 33.4,50.9 v -50.9 h 20 z"
     id="path20"
     style="fill:#ffffff" />
  <polygon
     class="cls-2"
     points="222.5,87.79 261.2,59.69 267.7,79.69 222.5,112.59 "
     id="polygon22"
     transform="translate(-122.5,-58.29)" />
  <polygon
     class="cls-2"
     points="229.5,117.99 277.7,82.99 270.1,59.69 295.6,59.69 312.9,112.79 267.7,145.69 "
     id="polygon24"
     transform="translate(-122.5,-58.29)" />
  <polygon
     class="cls-2"
     points="222.5,123.39 267.6,156.19 222.5,189.39 "
     id="polygon26"
     transform="translate(-122.5,-58.29)" />
  <polygon
     class="cls-2"
     points="222.5,199.89 259.3,173.09 267.7,198.89 222.5,231.89 "
     id="polygon28"
     transform="translate(-122.5,-58.29)" />
  <polygon
     class="cls-3"
     points="213.8,87.79 175.1,59.69 168.6,79.69 213.8,112.59 "
     id="polygon30"
     transform="translate(-122.5,-58.29)" />
  <polygon
     class="cls-3"
     points="206.7,117.99 158.5,82.99 166.1,59.69 140.7,59.69 123.3,112.79 168.6,145.69 "
     id="polygon32"
     transform="translate(-122.5,-58.29)" />
  <polygon
     class="cls-3"
     points="213.8,123.39 168.7,156.19 213.8,189.39 "
     id="polygon34"
     transform="translate(-122.5,-58.29)" />
  <polygon
     class="cls-3"
     points="213.8,199.89 177,173.09 168.6,198.89 213.8,231.89 "
     id="polygon36"
     transform="translate(-122.5,-58.29)" />
  <path
     class="cls-1"
     d="m 244,142.6 a 10.7,10.7 0 0 1 4,-3.9 11.48,11.48 0 0 1 11.6,0.3 9.74,9.74 0 0 1 3.9,4.8 h -4.2 a 5.58,5.58 0 0 0 -2.3,-2.5 5.73,5.73 0 0 0 -3.4,-0.8 7.46,7.46 0 0 0 -3.8,1 6.76,6.76 0 0 0 -2.6,2.7 9.32,9.32 0 0 0 0,8.3 7.74,7.74 0 0 0 2.6,2.8 7.21,7.21 0 0 0 3.8,1 7.73,7.73 0 0 0 3.4,-0.8 6.14,6.14 0 0 0 2.3,-2.5 h 4.2 a 9,9 0 0 1 -3.9,4.7 11.67,11.67 0 0 1 -6.1,1.7 11.82,11.82 0 0 1 -5.5,-1.4 10.7,10.7 0 0 1 -4,-3.9 12.31,12.31 0 0 1 0,-11.5 z"
     id="path38"
     style="fill:#ffffff" />
  <path
     class="cls-1"
     d="m 270.5,158.1 a 7.47,7.47 0 0 1 -3,-3.1 9.2,9.2 0 0 1 -1.1,-4.6 10.39,10.39 0 0 1 1.1,-4.6 7.71,7.71 0 0 1 3.1,-3.1 9.74,9.74 0 0 1 8.8,0 7.71,7.71 0 0 1 3.1,3.1 10,10 0 0 1 0,9.2 8.64,8.64 0 0 1 -3.2,3.1 9.88,9.88 0 0 1 -4.4,1.1 7.43,7.43 0 0 1 -4.4,-1.1 z m 6.9,-2.6 a 4.36,4.36 0 0 0 1.9,-1.9 5.66,5.66 0 0 0 0.7,-3.1 6.43,6.43 0 0 0 -0.7,-3.1 4.36,4.36 0 0 0 -1.9,-1.9 5,5 0 0 0 -5,0 4.14,4.14 0 0 0 -1.8,1.9 6.7,6.7 0 0 0 -0.7,3.1 5.8,5.8 0 0 0 1.4,4.2 4.69,4.69 0 0 0 3.5,1.5 4.84,4.84 0 0 0 2.6,-0.7 z"
     id="path40"
     style="fill:#ffffff" />
  <path
     class="cls-1"
     d="m 311.2,142.6 a 6,6 0 0 1 2.5,2.5 8.91,8.91 0 0 1 0.9,3.9 v 10 h -3.5 v -9.5 a 4.91,4.91 0 0 0 -1.1,-3.5 4.6,4.6 0 0 0 -6.2,0 5.5,5.5 0 0 0 -1.2,3.5 v 9.5 h -3.5 v -9.5 a 4.91,4.91 0 0 0 -1.1,-3.5 4.6,4.6 0 0 0 -6.2,0 5.5,5.5 0 0 0 -1.2,3.5 v 9.5 h -3.5 v -17 h 3.5 v 1.9 a 5,5 0 0 1 2.2,-1.6 6.71,6.71 0 0 1 2.8,-0.6 7.4,7.4 0 0 1 3.6,0.9 6,6 0 0 1 2.5,2.5 5.56,5.56 0 0 1 2.4,-2.4 7.3,7.3 0 0 1 3.5,-0.9 6.37,6.37 0 0 1 3.6,0.8 z"
     id="path42"
     style="fill:#ffffff" />
  <path
     class="cls-1"
     d="m 325,142.5 a 8.53,8.53 0 0 1 3.5,-0.8 7.7,7.7 0 0 1 6.9,4.2 10.18,10.18 0 0 1 1,4.5 10.61,10.61 0 0 1 -1,4.6 7.89,7.89 0 0 1 -2.9,3.1 8,8 0 0 1 -4,1.1 7.19,7.19 0 0 1 -3.5,-0.8 9.58,9.58 0 0 1 -2.5,-2 v 10.5 H 319 v -25 h 3.5 v 2.5 a 9.2,9.2 0 0 1 2.5,-1.9 z m 7.1,4.9 a 4.36,4.36 0 0 0 -1.9,-1.9 5.13,5.13 0 0 0 -6.9,1.7 0.37,0.37 0 0 0 -0.1,0.3 6.3,6.3 0 0 0 -0.7,3 6.7,6.7 0 0 0 0.7,3.1 4.9,4.9 0 0 0 6.7,2.1 c 0.1,0 0.2,-0.1 0.3,-0.1 a 5.2,5.2 0 0 0 1.9,-2 6.43,6.43 0 0 0 0.7,-3.1 5.47,5.47 0 0 0 -0.7,-3.1 z"
     id="path44"
     style="fill:#ffffff" />
  <path
     class="cls-1"
     d="m 342.9,158.1 a 7.47,7.47 0 0 1 -3,-3.1 9.2,9.2 0 0 1 -1.1,-4.6 10.39,10.39 0 0 1 1.1,-4.6 7.71,7.71 0 0 1 3.1,-3.1 9.74,9.74 0 0 1 8.8,0 7.71,7.71 0 0 1 3.1,3.1 10,10 0 0 1 0,9.2 8.64,8.64 0 0 1 -3.2,3.1 9.88,9.88 0 0 1 -4.4,1.1 7.43,7.43 0 0 1 -4.4,-1.1 z m 6.9,-2.6 a 5,5 0 0 0 1.9,-1.9 5.66,5.66 0 0 0 0.7,-3.1 6.43,6.43 0 0 0 -0.7,-3.1 4.36,4.36 0 0 0 -1.9,-1.9 5.53,5.53 0 0 0 -2.5,-0.7 4.51,4.51 0 0 0 -2.5,0.7 4.14,4.14 0 0 0 -1.8,1.9 6.7,6.7 0 0 0 -0.7,3.1 5.8,5.8 0 0 0 1.4,4.2 4.69,4.69 0 0 0 3.5,1.5 4.84,4.84 0 0 0 2.6,-0.7 z"
     id="path46"
     style="fill:#ffffff" />
  <path
     class="cls-1"
     d="m 374.9,142 v 16.9 h -3.5 v -2 a 5,5 0 0 1 -2.2,1.6 7.17,7.17 0 0 1 -2.9,0.6 9,9 0 0 1 -3.6,-0.8 6,6 0 0 1 -2.5,-2.5 8.91,8.91 0 0 1 -0.9,-3.9 v -10 h 3.5 v 9.4 a 4.91,4.91 0 0 0 1.1,3.5 4.6,4.6 0 0 0 6.2,0 5.5,5.5 0 0 0 1.2,-3.5 v -9.4 z"
     id="path48"
     style="fill:#ffffff" />
  <path
     class="cls-1"
     d="m 391.6,142.6 a 6,6 0 0 1 2.5,2.5 8.91,8.91 0 0 1 0.9,3.9 v 10 h -3.5 v -9.5 a 4.91,4.91 0 0 0 -1.1,-3.5 4.6,4.6 0 0 0 -6.2,0 5.5,5.5 0 0 0 -1.2,3.5 v 9.5 h -3.5 v -17 h 3.5 v 1.9 a 5.67,5.67 0 0 1 2.2,-1.6 7.17,7.17 0 0 1 2.9,-0.6 7.3,7.3 0 0 1 3.5,0.9 z"
     id="path50"
     style="fill:#ffffff" />
  <path
     class="cls-1"
     d="m 399.3,145.9 a 8,8 0 0 1 7,-4.2 7.84,7.84 0 0 1 3.3,0.7 7,7 0 0 1 2.6,1.9 v -8.2 h 3.5 v 22.8 h -3.5 v -2.6 a 5.88,5.88 0 0 1 -2.4,2 7.19,7.19 0 0 1 -3.5,0.8 8,8 0 0 1 -4,-1.1 8.63,8.63 0 0 1 -2.9,-3.1 10.39,10.39 0 0 1 -1.1,-4.6 9.76,9.76 0 0 1 1,-4.4 z m 12.1,1.5 a 5.2,5.2 0 0 0 -1.9,-2 5,5 0 0 0 -5,0 5.75,5.75 0 0 0 -1.9,1.9 6.3,6.3 0 0 0 -0.7,3 6.7,6.7 0 0 0 0.7,3.1 5.2,5.2 0 0 0 1.9,2 4.51,4.51 0 0 0 2.5,0.7 4.3,4.3 0 0 0 2.5,-0.7 5.2,5.2 0 0 0 1.9,-2 6.43,6.43 0 0 0 0.7,-3.1 5,5 0 0 0 -0.7,-2.9 z"
     id="path52"
     style="fill:#ffffff" />
  <path
     class="cls-1"
     d="m 444.1,137.6 -7.1,13.6 v 7.8 h -3.5 v -7.8 l -7.1,-13.6 h 3.9 l 5,10.5 5,-10.5 z"
     id="path54"
     style="fill:#ffffff" />
  <path
     class="cls-1"
     d="m 449.9,158.1 a 7.47,7.47 0 0 1 -3,-3.1 9.2,9.2 0 0 1 -1.1,-4.6 10.39,10.39 0 0 1 1.1,-4.6 7.71,7.71 0 0 1 3.1,-3.1 9.74,9.74 0 0 1 8.8,0 7.71,7.71 0 0 1 3.1,3.1 8.26,8.26 0 0 1 1.1,4.6 9.29,9.29 0 0 1 -1.2,4.6 8.64,8.64 0 0 1 -3.2,3.1 9.88,9.88 0 0 1 -4.4,1.1 7.3,7.3 0 0 1 -4.3,-1.1 z m 6.8,-2.6 a 5,5 0 0 0 1.9,-1.9 5.66,5.66 0 0 0 0.7,-3.1 6.43,6.43 0 0 0 -0.7,-3.1 4.36,4.36 0 0 0 -1.9,-1.9 5.53,5.53 0 0 0 -2.5,-0.7 4.51,4.51 0 0 0 -2.5,0.7 4.69,4.69 0 0 0 -1.8,1.9 6.7,6.7 0 0 0 -0.7,3.1 5.8,5.8 0 0 0 1.4,4.2 4.69,4.69 0 0 0 3.5,1.5 4.41,4.41 0 0 0 2.6,-0.7 z"
     id="path56"
     style="fill:#ffffff" />
  <path
     class="cls-1"
     d="m 481.8,142 v 16.9 h -3.5 v -2 a 5,5 0 0 1 -2.2,1.6 7.06,7.06 0 0 1 -2.8,0.6 9,9 0 0 1 -3.6,-0.8 5.5,5.5 0 0 1 -2.5,-2.5 7.71,7.71 0 0 1 -0.9,-3.9 v -10 h 3.5 v 9.4 a 4.91,4.91 0 0 0 1.1,3.5 4.6,4.6 0 0 0 6.2,0 5.5,5.5 0 0 0 1.2,-3.5 v -9.4 z"
     id="path58"
     style="fill:#ffffff" />
  <path
     class="cls-1"
     d="m 492,142.5 a 6.3,6.3 0 0 1 3,-0.7 v 3.6 h -0.9 a 4.3,4.3 0 0 0 -3.1,1 5.16,5.16 0 0 0 -1.1,3.6 v 8.9 h -3.5 V 142 h 3.5 v 2.5 a 4.51,4.51 0 0 1 2.1,-2 z"
     id="path60"
     style="fill:#ffffff" />
  <path
     class="cls-1"
     d="m 506.5,142.6 a 10.7,10.7 0 0 1 4,-3.9 11.48,11.48 0 0 1 11.6,0.3 9.74,9.74 0 0 1 3.9,4.8 h -4.2 a 5.58,5.58 0 0 0 -2.3,-2.5 5.73,5.73 0 0 0 -3.4,-0.8 7.46,7.46 0 0 0 -3.8,1 6.76,6.76 0 0 0 -2.6,2.7 9.32,9.32 0 0 0 0,8.3 7.74,7.74 0 0 0 2.6,2.8 7.21,7.21 0 0 0 3.8,1 7.73,7.73 0 0 0 3.4,-0.8 6.14,6.14 0 0 0 2.3,-2.5 h 4.2 a 9,9 0 0 1 -3.9,4.7 11.67,11.67 0 0 1 -6.1,1.7 11.82,11.82 0 0 1 -5.5,-1.4 10.7,10.7 0 0 1 -4,-3.9 11.77,11.77 0 0 1 0,-11.5 z"
     id="path62"
     style="fill:#ffffff" />
  <path
     class="cls-1"
     d="m 533,158.1 a 7.47,7.47 0 0 1 -3,-3.1 9.2,9.2 0 0 1 -1.1,-4.6 10.39,10.39 0 0 1 1.1,-4.6 7.71,7.71 0 0 1 3.1,-3.1 9.74,9.74 0 0 1 8.8,0 7.71,7.71 0 0 1 3.1,3.1 8.26,8.26 0 0 1 1.1,4.6 9.29,9.29 0 0 1 -1.2,4.6 8.64,8.64 0 0 1 -3.2,3.1 9.88,9.88 0 0 1 -4.4,1.1 7.3,7.3 0 0 1 -4.3,-1.1 z m 6.9,-2.6 a 5,5 0 0 0 1.9,-1.9 5.66,5.66 0 0 0 0.7,-3.1 6.43,6.43 0 0 0 -0.7,-3.1 4.36,4.36 0 0 0 -1.9,-1.9 5.53,5.53 0 0 0 -2.5,-0.7 4.51,4.51 0 0 0 -2.5,0.7 4.14,4.14 0 0 0 -1.8,1.9 6.7,6.7 0 0 0 -0.7,3.1 5.8,5.8 0 0 0 1.4,4.2 4.69,4.69 0 0 0 3.5,1.5 4.84,4.84 0 0 0 2.6,-0.7 z"
     id="path64"
     style="fill:#ffffff" />
  <path
     class="cls-1"
     d="m 573.7,142.6 a 5.5,5.5 0 0 1 2.5,2.5 7.71,7.71 0 0 1 0.9,3.9 v 10 h -3.5 v -9.5 a 4.91,4.91 0 0 0 -1.1,-3.5 4.6,4.6 0 0 0 -6.2,0 5.5,5.5 0 0 0 -1.2,3.5 v 9.5 h -3.5 v -9.5 a 4.33,4.33 0 0 0 -7.4,-3.5 5.5,5.5 0 0 0 -1.2,3.5 v 9.5 h -3.5 v -16.9 h 3.5 v 1.9 a 5,5 0 0 1 2.2,-1.6 7.06,7.06 0 0 1 2.8,-0.6 7.4,7.4 0 0 1 3.6,0.9 6.67,6.67 0 0 1 2.5,2.5 5.56,5.56 0 0 1 2.4,-2.4 7.3,7.3 0 0 1 3.5,-0.9 5.77,5.77 0 0 1 3.7,0.7 z"
     id="path66"
     style="fill:#ffffff" />
  <path
     class="cls-1"
     d="m 605.6,142.6 a 5.5,5.5 0 0 1 2.5,2.5 7.71,7.71 0 0 1 0.9,3.9 v 10 h -3.5 v -9.5 a 4.91,4.91 0 0 0 -1.1,-3.5 4.6,4.6 0 0 0 -6.2,0 5.5,5.5 0 0 0 -1.2,3.5 v 9.5 h -3.5 v -9.5 a 4.91,4.91 0 0 0 -1.1,-3.5 4.6,4.6 0 0 0 -6.2,0 5.5,5.5 0 0 0 -1.2,3.5 v 9.5 h -3.5 v -17 h 3.5 v 1.9 a 5,5 0 0 1 2.2,-1.6 7.06,7.06 0 0 1 2.8,-0.6 7.4,7.4 0 0 1 3.6,0.9 6,6 0 0 1 2.5,2.5 5.56,5.56 0 0 1 2.4,-2.39 7.3,7.3 0 0 1 3.5,-0.9 6.37,6.37 0 0 1 3.6,0.79 z"
     id="path68"
     style="fill:#ffffff" />
  <path
     class="cls-1"
     d="m 628.8,142 v 16.9 h -3.5 v -2 a 5,5 0 0 1 -2.2,1.6 7.06,7.06 0 0 1 -2.8,0.6 9,9 0 0 1 -3.6,-0.8 6,6 0 0 1 -2.5,-2.5 8.91,8.91 0 0 1 -0.9,-3.9 v -10 h 3.5 v 9.4 a 4.91,4.91 0 0 0 1.1,3.5 4.6,4.6 0 0 0 6.2,0 5.5,5.5 0 0 0 1.2,-3.5 v -9.4 z"
     id="path70"
     style="fill:#ffffff" />
  <path
     class="cls-1"
     d="m 645.6,142.6 a 6,6 0 0 1 2.5,2.5 8.91,8.91 0 0 1 0.9,3.9 v 10 h -3.5 v -9.5 a 4.91,4.91 0 0 0 -1.1,-3.5 4.6,4.6 0 0 0 -6.2,0 5.5,5.5 0 0 0 -1.2,3.5 v 9.5 h -3.5 v -17 h 3.5 v 1.9 a 5,5 0 0 1 2.2,-1.6 7.06,7.06 0 0 1 2.8,-0.6 7.4,7.4 0 0 1 3.6,0.9 z"
     id="path72"
     style="fill:#ffffff" />
  <path
     class="cls-1"
     d="m 653.6,139.1 a 2.23,2.23 0 0 1 0,-3.2 2.36,2.36 0 0 1 1.6,-0.7 2.31,2.31 0 0 1 2.1,2.4 2.34,2.34 0 0 1 -2.1,2.1 1.66,1.66 0 0 1 -1.6,-0.6 z m 3.3,2.9 v 16.9 h -3.5 V 142 Z"
     id="path74"
     style="fill:#ffffff" />
  <path
     class="cls-1"
     d="m 665.6,144.9 v 9.4 a 2.3,2.3 0 0 0 0.4,1.4 2,2 0 0 0 1.5,0.4 h 2.2 v 2.9 h -2.8 a 5.16,5.16 0 0 1 -3.6,-1.1 4.88,4.88 0 0 1 -1.3,-3.6 v -9.4 h -2 V 142 h 2 v -4.2 h 3.5 v 4.2 h 4.1 v 2.9 z"
     id="path76"
     style="fill:#ffffff" />
  <path
     class="cls-1"
     d="m 688.2,142 -10.4,24.9 h -3.6 l 3.4,-8.2 -6.7,-16.7 h 3.9 l 4.8,12.9 5,-12.9 z"
     id="path78"
     style="fill:#ffffff" />
</svg>
