<svg width="40" height="40" viewBox="0 0 40 40" fill="none" xmlns="http://www.w3.org/2000/svg">
<rect opacity="0.1" width="40" height="40" rx="20" fill="white"/>
<path fill-rule="evenodd" clip-rule="evenodd" d="M20 11C24.9706 11 29 15.0294 29 20C29 24.9706 24.9706 29 20 29C15.0294 29 11 24.9706 11 20C11 15.0294 15.0294 11 20 11ZM20.522 15.5004C17.9119 15.5004 16.0168 17.3843 16.0168 19.9716C16.0168 22.559 17.9573 24.4996 20.522 24.4996C21.6741 24.515 22.7892 24.0933 23.6428 23.3194L23.9832 23.0016L22.5534 21.5944L22.2356 21.8782L22.1034 21.9872C21.652 22.3348 21.095 22.5214 20.522 22.5137C19.0694 22.5137 18.0027 21.4469 18.0027 19.983C18.0027 18.5191 19.0354 17.4977 20.522 17.4977C21.1537 17.4892 21.767 17.7111 22.2469 18.1219L22.5647 18.3942L23.9719 16.9871L23.6201 16.658L23.4576 16.5195C22.6306 15.8476 21.5919 15.4854 20.522 15.5004ZM20.4539 18.485C19.6204 18.485 18.9446 19.1608 18.9446 19.9943C18.9446 20.8279 19.6204 21.5037 20.4539 21.5037C21.2875 21.5037 21.9632 20.8279 21.9632 19.9943C21.9632 19.1608 21.2875 18.485 20.4539 18.485Z" fill="white"/>
</svg>
