<?xml version="1.0" encoding="UTF-8"?>
<svg width="64px" height="64px" viewBox="0 0 64 64" version="1.1" xmlns="http://www.w3.org/2000/svg" xmlns:xlink="http://www.w3.org/1999/xlink">
    <title>icon-security</title>
    <g id="icon-security" stroke="none" stroke-width="1" fill="none" fill-rule="evenodd">
        <rect id="Shape" fill-opacity="0.06" fill="#1565D8" x="0" y="0" width="64" height="64" rx="16"></rect>
        <g id="Group-8" transform="translate(14.500000, 15.000000)" fill="#0376B7" fill-rule="nonzero">
            <path d="M19.8073421,8.41756866 C23.5096755,9.61411866 26.0672827,13.0723884 26.0672827,17.0241699 C26.0672827,17.5764547 25.6195675,18.0241699 25.0672827,18.0241699 C24.514998,18.0241699 24.0672827,17.5764547 24.0672827,17.0241699 C24.0672827,13.9462723 22.074902,11.2522738 19.1922896,10.3206478 C18.6667688,10.1508058 18.3784342,9.58710281 18.5482763,9.061582 C18.7181183,8.53606119 19.2818213,8.2477266 19.8073421,8.41756866 Z M17.0239698,7.98085702 C17.5762546,7.98085702 18.0239698,8.42857227 18.0239698,8.98085702 C18.0239698,9.53314177 17.5762546,9.98085702 17.0239698,9.98085702 C14.7507331,9.98085702 12.6600996,11.0641122 11.3403917,12.8632978 C10.9793164,13.3555593 10.683466,13.8925367 10.4611563,14.4613322 C10.1449685,15.2703219 9.98065691,16.1350775 9.98065691,17.0241699 C9.98065691,17.5764547 9.53294166,18.0241699 8.98065691,18.0241699 C8.42837216,18.0241699 7.98065691,17.5764547 7.98065691,17.0241699 C7.98065691,15.8849553 8.19186967,14.7733635 8.59837917,13.7332791 C8.88415207,13.0021083 9.26420313,12.3123041 9.72771211,11.6803926 C11.420261,9.37290509 14.1068508,7.98085702 17.0239698,7.98085702 Z" id="Shape-Copy-5"></path>
            <path d="M17.0239698,15.7119121 C17.5367994,15.7119121 17.9594732,16.0979465 18.0172414,16.5952848 L18.0239698,16.7119121 L18.0240698,32.8422399 C18.0240698,33.3945246 17.5763604,33.8422458 17.0240757,33.8422458 C16.5112399,33.8422458 16.0885663,33.4562111 16.0307982,32.9588727 L16.0240698,32.8422516 L16.0239698,16.7119121 C16.0239698,16.1596335 16.4716789,15.7119121 17.0239698,15.7119121 Z" id="Stroke-118-Copy-4"></path>
            <path d="M33.0415512,15.875204 C33.554387,15.875204 33.9770584,16.2612442 34.0348235,16.7585829 L34.0415512,16.875204 L34.0415512,22.6641929 C34.0415512,23.2164776 33.593836,23.6641929 33.0415512,23.6641929 C32.5287154,23.6641929 32.106044,23.2781527 32.0482789,22.780814 L32.0415512,22.6641929 L32.0415512,16.875204 C32.0415512,16.3229193 32.4892665,15.875204 33.0415512,15.875204 Z" id="Stroke-118-Copy-20"></path>
            <path d="M13.0085625,15.6818368 C13.5213984,15.6818368 13.9440697,16.067877 14.0018348,16.5652157 L14.0085625,16.6818368 L14.0085625,20.4650737 C14.0085625,21.0173584 13.5608473,21.4650737 13.0085625,21.4650737 C12.4957267,21.4650737 12.0730554,21.0790335 12.0152903,20.5816948 L12.0085625,20.4650737 L12.0085625,16.6818368 C12.0085625,16.1295521 12.4562778,15.6818368 13.0085625,15.6818368 Z" id="Path-Copy-20"></path>
            <path d="M13.0085625,22.662203 C13.5213984,22.662203 13.9440697,23.0482432 14.0018348,23.5455819 L14.0085625,23.662203 L14.0085625,31.8124904 C14.0085625,32.3647752 13.5608473,32.8124904 13.0085625,32.8124904 C12.4957267,32.8124904 12.0730554,32.4264503 12.0152903,31.9291116 L12.0085625,31.8124904 L12.0085625,23.662203 C12.0085625,23.1099183 12.4562778,22.662203 13.0085625,22.662203 Z" id="Path-Copy-21"></path>
            <path d="M29.0825813,15.5754865 C29.5954172,15.5754865 30.0180885,15.9615267 30.0758536,16.4588653 L30.0825813,16.5754865 L30.0825813,26.9572647 C30.0825813,27.5095495 29.6348661,27.9572647 29.0825813,27.9572647 C28.5697455,27.9572647 28.1470742,27.5712245 28.089309,27.0738859 L28.0825813,26.9572647 L28.0825813,16.5754865 C28.0825813,16.0232017 28.5302966,15.5754865 29.0825813,15.5754865 Z" id="Stroke-118-Copy-21"></path>
            <path d="M8.97447397,19.4650737 C9.48730981,19.4650737 9.90998113,19.8511138 9.96774623,20.3484525 L9.97447397,20.4650737 L9.97447397,30.6181483 C9.97447397,31.1704331 9.52675872,31.6181483 8.97447397,31.6181483 C8.46163813,31.6181483 8.03896681,31.2321081 7.9812017,30.7347695 L7.97447397,30.6181483 L7.97447397,20.4650737 C7.97447397,19.9127889 8.42218922,19.4650737 8.97447397,19.4650737 Z" id="Path-Copy-22"></path>
            <path d="M25.067174,15.6784946 C25.5800099,15.6784946 26.0026812,16.0645348 26.0604463,16.5618735 L26.067174,16.6784946 L26.067174,30.6459114 C26.067174,31.1981962 25.6194588,31.6459114 25.067174,31.6459114 C24.5543382,31.6459114 24.1316669,31.2598712 24.0739018,30.7625326 L24.067174,30.6459114 L24.067174,16.6784946 C24.067174,16.1262099 24.5148893,15.6784946 25.067174,15.6784946 Z" id="Stroke-118-Copy-22"></path>
            <path d="M4.94038541,19.2718552 C5.45322125,19.2718552 5.87589257,19.6578954 5.93365768,20.1552341 L5.94038541,20.2718552 L5.94038541,21.5888537 C5.94038541,22.1411385 5.49267016,22.5888537 4.94038541,22.5888537 C4.42754957,22.5888537 4.00487825,22.2028135 3.94711314,21.7054748 L3.94038541,21.5888537 L3.94038541,20.2718552 C3.94038541,19.7195704 4.38810066,19.2718552 4.94038541,19.2718552 Z" id="Path-Copy-23"></path>
            <path d="M4.95896988,23.5237337 C5.47180572,23.5237337 5.89447705,23.9097739 5.95224215,24.4071126 L5.95896988,24.5237337 L5.95896988,26.9366288 C5.95896988,27.4889136 5.51125463,27.9366288 4.95896988,27.9366288 C4.44613405,27.9366288 4.02346272,27.5505886 3.96569762,27.05325 L3.95896988,26.9366288 L3.95896988,24.5237337 C3.95896988,23.971449 4.40668513,23.5237337 4.95896988,23.5237337 Z" id="Path-Copy-24"></path>
            <path d="M1,15.4320381 C1.51283584,15.4320381 1.93550716,15.8180783 1.99327227,16.315417 L2,16.4320381 L2,22.2210269 C2,22.7733117 1.55228475,23.2210269 1,23.2210269 C0.487164161,23.2210269 0.0644928393,22.8349867 0.00672773133,22.337648 L0,22.2210269 L0,16.4320381 C0,15.8797533 0.44771525,15.4320381 1,15.4320381 Z" id="Stroke-118-Copy-23"></path>
            <path d="M21.0394739,15.7119121 C21.5523097,15.7119121 21.974981,16.0979523 22.0327462,16.595291 L22.0394739,16.7119121 L22.0394739,31.8425657 C22.0394739,32.3948505 21.5917586,32.8425657 21.0394739,32.8425657 C20.526638,32.8425657 20.1039667,32.4565255 20.0462016,31.9591868 L20.0394739,31.8425657 L20.0394739,16.7119121 C20.0394739,16.1596273 20.4871891,15.7119121 21.0394739,15.7119121 Z" id="Stroke-118-Copy-24"></path>
            <path d="M17.0239698,12.0086658 C19.7939562,12.0086658 22.0394739,14.2541835 22.0394739,17.0241699 C22.0394739,17.5764547 21.5917586,18.0241699 21.0394739,18.0241699 C20.4871891,18.0241699 20.0394739,17.5764547 20.0394739,17.0241699 C20.0394739,15.358753 18.6893867,14.0086658 17.0239698,14.0086658 C16.2533521,14.0086658 15.5305326,14.2975659 14.9764783,14.8103141 C14.5711368,15.1854364 13.9384459,15.160939 13.5633236,14.7555975 C13.1882013,14.350256 13.2126988,13.7175651 13.6180402,13.3424428 C14.538206,12.4908776 15.7446859,12.0086658 17.0239698,12.0086658 Z" id="Path-Copy-25"></path>
            <path d="M17.0240698,3.96557617 C19.8587575,3.96557617 22.55904,4.87223558 24.7896289,6.52450079 C28.093506,8.97178323 30.0826636,12.8331852 30.0826636,17.0241699 C30.0826636,17.5764547 29.6349483,18.0241699 29.0826636,18.0241699 C28.5303788,18.0241699 28.0826636,17.5764547 28.0826636,17.0241699 C28.0826636,13.4737363 26.3991373,10.2056335 23.5991845,8.13162307 C21.7101893,6.73238674 19.4264153,5.96557617 17.0240698,5.96557617 C15.2222543,5.96557617 13.4845115,6.39615139 11.9229166,7.20960473 C11.4331032,7.46475433 10.8291914,7.27452176 10.5740418,6.7847084 C10.3188922,6.29489504 10.5091248,5.69098324 10.9989382,5.43583364 C12.8441835,4.47462343 14.8986287,3.96557617 17.0240698,3.96557617 Z M9.62658138,7.44840199 C9.99929544,7.85595895 9.9710497,8.48849359 9.56349274,8.86120765 C8.63122416,9.71377466 7.84971952,10.7198415 7.25624667,11.8342732 C6.41273993,13.4182221 5.96547607,15.1878412 5.96547607,17.0241699 C5.96547607,17.5764547 5.51776082,18.0241699 4.96547607,18.0241699 C4.41319132,18.0241699 3.96547607,17.5764547 3.96547607,17.0241699 C3.96547607,14.8579705 4.49426466,12.7657951 5.49095527,10.8941954 C6.19168426,9.57835655 7.11386641,8.39118914 8.21377572,7.38531336 C8.62133268,7.01259929 9.25386732,7.04084504 9.62658138,7.44840199 Z" id="Shape-Copy-6"></path>
            <path d="M29.2812475,5.20958014 C29.99105,5.94581382 30.6337311,6.74441733 31.2007693,7.59539108 C33.0473919,10.3666815 34.0482397,13.622225 34.0482397,17.0241699 C34.0482397,17.5764547 33.6005245,18.0241699 33.0482397,18.0241699 C32.495955,18.0241699 32.0482397,17.5764547 32.0482397,17.0241699 C32.0482397,14.0200053 31.1658384,11.1497428 29.5364181,8.70441545 C29.0357926,7.95310951 28.4682727,7.24790222 27.841425,6.59771236 C27.4581028,6.20011635 27.4696741,5.56705711 27.8672701,5.18373498 C28.2648661,4.80041286 28.8979254,4.81198413 29.2812475,5.20958014 Z M17.0240698,0 C20.3026319,0 23.4462854,0.92938565 26.1535287,2.65251876 C26.6194434,2.94906879 26.7567406,3.5671686 26.4601906,4.03308331 C26.1636405,4.49899803 25.5455407,4.63629524 25.079626,4.33974521 C22.6909858,2.81939974 19.9193604,2 17.0240698,2 C14.5702068,2 12.2031,2.58809418 10.0772154,3.69879484 C6.86615721,5.37646092 4.35056829,8.17284969 3.02883614,11.5480191 C2.82745,12.0622779 2.24730519,12.3159112 1.73304643,12.1145251 C1.21878768,11.9131389 0.965154308,11.3329941 1.16654045,10.8187354 C2.66457,6.99337369 5.5131217,3.82685554 9.15107187,1.92615325 C11.561148,0.666972387 14.2457434,0 17.0240698,0 Z" id="Shape-Copy-7"></path>
        </g>
    </g>
</svg>