<?xml version="1.0" encoding="UTF-8"?>
<svg width="64px" height="64px" viewBox="0 0 64 64" version="1.1" xmlns="http://www.w3.org/2000/svg" xmlns:xlink="http://www.w3.org/1999/xlink">
    <title>icon-blockchain</title>
    <g id="icon-blockchain" stroke="none" stroke-width="1" fill="none" fill-rule="evenodd">
        <rect id="Shape" fill-opacity="0.06" fill="#1565D8" x="0" y="0" width="64" height="64" rx="16"></rect>
        <g id="Group" transform="translate(13.862224, 22.500000)">
            <polygon id="path-copy" fill-opacity="0.3" fill="#1565D8" transform="translate(7.256247, 13.251719) scale(1, -1) translate(-7.256247, -13.251719) " points="4.57340464 12.2659329 4.45624736 11.9830902 4.45624736 8.75466303 9.93909007 14.2375057 10.0562474 14.5203485 10.0562474 17.7487756"></polygon>
            <polygon id="path" fill-opacity="0.3" fill="#1565D8" transform="translate(14.456247, 13.251719) scale(1, -1) translate(-14.456247, -13.251719) " points="11.6562474 17.7487756 11.6562474 14.5203485 11.7734046 14.2375057 17.2562474 8.75466303 17.2562474 11.9830902 17.1390901 12.2659329"></polygon>
            <polygon id="path-copy-7" fill-opacity="0.3" fill="#1565D8" transform="translate(29.256247, 13.251719) scale(1, -1) translate(-29.256247, -13.251719) " points="26.4562474 17.7487756 26.4562474 14.5203485 26.5734046 14.2375057 32.0562474 8.75466303 32.0562474 11.9830902 31.9390901 12.2659329"></polygon>
            <polygon id="path" fill-opacity="0.3" fill="#1565D8" points="11.6562474 9.69705627 11.6562474 6.46862915 11.7734046 6.18578644 17.2562474 0.702943725 17.2562474 3.93137085 17.1390901 4.21421356"></polygon>
            <path d="M10.4562474,12.4 C8.68893616,12.4 7.25624736,10.9673112 7.25624736,9.2 C7.25624736,7.4326888 8.68893616,6 10.4562474,6 C12.2235586,6 13.6562474,7.4326888 13.6562474,9.2 C13.6562474,10.9673112 12.2235586,12.4 10.4562474,12.4 Z" id="path" fill="#0376B7"></path>
            <path d="M3.2,20.4517193 C1.4326888,20.4517193 0,19.0190305 0,17.2517193 C0,15.4844081 1.4326888,14.0517193 3.2,14.0517193 C4.9673112,14.0517193 6.4,15.4844081 6.4,17.2517193 C6.4,19.0190305 4.9673112,20.4517193 3.2,20.4517193 Z" id="path-copy-3" fill="#0376B7" transform="translate(3.200000, 17.251719) scale(1, -1) translate(-3.200000, -17.251719) "></path>
        </g>
        <g id="Group-Copy" transform="translate(12.937776, 20.500000)">
            <polygon id="path-copy" fill-opacity="0.3" fill="#1565D8" transform="translate(23.256247, 15.251719) scale(1, -1) translate(-23.256247, -15.251719) " points="20.5734046 14.2659329 20.4562474 13.9830902 20.4562474 10.754663 25.9390901 16.2375057 26.0562474 16.5203485 26.0562474 19.7487756"></polygon>
            <polygon id="path" fill-opacity="0.3" fill="#1565D8" points="27.6562474 11.6970563 27.6562474 8.46862915 27.7734046 8.18578644 33.2562474 2.70294373 33.2562474 5.93137085 33.1390901 6.21421356"></polygon>
            <polygon id="path-copy-2" fill-opacity="0.3" fill="#1565D8" points="20.5734046 6.21421356 20.4562474 5.93137085 20.4562474 2.70294373 25.9390901 8.18578644 26.0562474 8.46862915 26.0562474 11.6970563"></polygon>
            <polygon id="path-copy-5" fill-opacity="0.3" fill="#1565D8" points="5.2736839 6.21421356 5.15652661 5.93137085 5.15652661 2.70294373 10.6393693 8.18578644 10.7565266 8.46862915 10.7565266 11.6970563"></polygon>
            <path d="M26.4562474,14.4 C24.6889362,14.4 23.2562474,12.9673112 23.2562474,11.2 C23.2562474,9.4326888 24.6889362,8 26.4562474,8 C28.2235586,8 29.6562474,9.4326888 29.6562474,11.2 C29.6562474,12.9673112 28.2235586,14.4 26.4562474,14.4 Z" id="path" fill="#0376B7"></path>
            <path d="M19.2,22.4517193 C17.4326888,22.4517193 16,21.0190305 16,19.2517193 C16,17.4844081 17.4326888,16.0517193 19.2,16.0517193 C20.9673112,16.0517193 22.4,17.4844081 22.4,19.2517193 C22.4,21.0190305 20.9673112,22.4517193 19.2,22.4517193 Z" id="path-copy-3" fill="#0376B7" transform="translate(19.200000, 19.251719) scale(1, -1) translate(-19.200000, -19.251719) "></path>
            <path d="M34,22.4517193 C32.2326888,22.4517193 30.8,21.0190305 30.8,19.2517193 C30.8,17.4844081 32.2326888,16.0517193 34,16.0517193 C35.7673112,16.0517193 37.2,17.4844081 37.2,19.2517193 C37.2,21.0190305 35.7673112,22.4517193 34,22.4517193 Z" id="path-copy-8" fill="#0376B7" transform="translate(34.000000, 19.251719) scale(1, -1) translate(-34.000000, -19.251719) "></path>
            <path d="M19.2,6.4 C17.4326888,6.4 16,4.9673112 16,3.2 C16,1.4326888 17.4326888,0 19.2,0 C20.9673112,0 22.4,1.4326888 22.4,3.2 C22.4,4.9673112 20.9673112,6.4 19.2,6.4 Z" id="path-copy-4" fill="#0376B7"></path>
            <path d="M4.12681979,6.4 C2.35950859,6.4 0.926819794,4.9673112 0.926819794,3.2 C0.926819794,1.4326888 2.35950859,4.52970994e-14 4.12681979,4.52970994e-14 C5.89413099,4.52970994e-14 7.32681979,1.4326888 7.32681979,3.2 C7.32681979,4.9673112 5.89413099,6.4 4.12681979,6.4 Z" id="path-copy-6" fill="#0376B7"></path>
        </g>
        <path d="M46.9377764,26.9 C45.1704652,26.9 43.7377764,25.4673112 43.7377764,23.7 C43.7377764,21.9326888 45.1704652,20.5 46.9377764,20.5 C48.7050876,20.5 50.1377764,21.9326888 50.1377764,23.7 C50.1377764,25.4673112 48.7050876,26.9 46.9377764,26.9 Z" id="path" fill="#0376B7" transform="translate(46.937776, 23.700000) scale(1, -1) translate(-46.937776, -23.700000) "></path>
    </g>
</svg>