<?xml version="1.0" encoding="UTF-8"?>
<svg width="64px" height="64px" viewBox="0 0 64 64" version="1.1" xmlns="http://www.w3.org/2000/svg" xmlns:xlink="http://www.w3.org/1999/xlink">
    <title>icon-math-modelling</title>
    <g id="icon-math-modelling" stroke="none" stroke-width="1" fill="none" fill-rule="evenodd">
        <rect id="Shape" fill-opacity="0.06" fill="#1565D8" x="-1.13686838e-13" y="0" width="64" height="64" rx="16"></rect>
        <g id="Group" transform="translate(17.000000, 17.000000)" fill-rule="nonzero" stroke="#0376B7" stroke-linejoin="round" stroke-width="1.5">
            <path d="M29.1739117,6.17352835 C29.1735654,6.17041233 29.1701032,6.1686812 29.1687183,6.16591141 C29.1673334,6.16314161 29.1673334,6.15898692 29.1645636,6.15656335 C29.1642174,6.15621712 29.1645636,6.15552467 29.1638712,6.15483223 L25.268846,2.25980705 C25.2678073,2.2591146 25.2660762,2.2591146 25.2650375,2.25842215 C25.2629602,2.25669103 25.2612291,2.25565236 25.2584593,2.25461368 C25.2570744,2.25357501 25.2567281,2.25219011 25.254997,2.25149766 L18.4977342,0.0017311223 C18.4966956,0.00138489784 18.4960031,0.00207734676 18.4949644,0.00207734676 C18.4928871,0.00138489784 18.4915022,0.00138489784 18.4894248,0.00103867338 C18.4883862,0.00069244892 18.4876937,8.83875934e-14 18.486655,8.83875934e-14 L10.6872566,8.83875934e-14 C10.6851793,8.83875934e-14 10.6837944,0.0017311223 10.681717,0.00207734676 C10.6799859,0.00242357122 10.6779086,0.00103867338 10.6761774,0.0017311223 L3.92826272,2.25115144 C3.92687783,2.25184389 3.92618538,2.25322879 3.92480048,2.25426746 C3.92341558,2.25495991 3.92168446,2.25392123 3.92029956,2.25530613 C3.91926089,2.25599858 3.91926089,2.25738348 3.91822221,2.25807593 C3.91718354,2.2591146 3.91579864,2.25876838 3.91510619,2.25946083 L0.0100405093,6.154486 C0.0086556115,6.1558709 0.0086556115,6.15864069 0.00761693812,6.16037182 C0.00623204028,6.16210294 0.00380846906,6.16244916 0.00311602014,6.16452651 C0.00242357122,6.16625763 0.00311602014,6.16798876 0.00311602014,6.16971988 C0.00242357122,6.171451 0.00069244892,6.17248967 0.00034622446,6.17387457 C0.00034622446,6.17525947 0.00103867338,6.17595192 0.00103867338,6.17664437 C0.00103867338,6.17802926 -2.27516213e-13,6.17872171 -2.27516213e-13,6.17976039 L-2.27516213e-13,10.6879491 C-2.27516213e-13,10.6889878 0.00103867338,10.6896802 0.00103867338,10.6896802 C0.00103867338,10.6917575 0.00034622446,10.69245 0.00069244892,10.6931424 C0.00103867338,10.6972971 0.00415469352,10.6993745 0.00588581582,10.7024905 C0.00727071366,10.7052603 0.00727071366,10.7087225 0.00969428488,10.7104537 C0.0100405093,10.7111461 0.00969428488,10.7118386 0.0103867338,10.712531 L3.89087048,14.5926685 L0.0100405093,18.4631118 C0.00796316258,18.4651891 0.00830938704,18.4686514 0.00657826474,18.4703825 C0.00484714244,18.4734985 0.00207734676,18.4752296 0.00138489784,18.4783457 C0.00103867338,18.4800768 0.00138489784,18.4818079 0.00138489784,18.4831928 C0.00138489784,18.4849239 -2.27516213e-13,18.4859626 -2.27516213e-13,18.4873475 L-2.27516213e-13,22.9861881 C-2.27516213e-13,22.9868806 0.00034622446,22.9868806 0.00034622446,22.987573 C0.00034622446,22.9917277 0.00311602014,22.9944975 0.00484714244,22.9979598 C0.00623204028,23.0017682 0.00553959136,23.0052305 0.00796316258,23.0083465 C0.00830938704,23.0086927 0.00900183596,23.0083465 0.00934806042,23.0090389 C0.00969428488,23.0093852 0.00934806042,23.0100776 0.0100405093,23.0104238 L3.91475997,26.9154895 C3.91545242,26.916182 3.91718354,26.916182 3.91822221,26.9168744 C3.91926089,26.9175669 3.91891466,26.9189518 3.92029956,26.9196442 C3.92203068,26.9210291 3.92410803,26.9206829 3.92583915,26.9217216 C3.92687783,26.9220678 3.92722405,26.9234527 3.92826272,26.9237989 L10.6761774,29.1825673 C10.6772161,29.1829135 10.6782548,29.1829135 10.6789472,29.1829135 C10.6792935,29.1829135 10.6792935,29.183606 10.6796397,29.183606 C10.6820633,29.1842984 10.6844868,29.1842984 10.6869104,29.1842984 L10.6869104,29.1842984 L10.6869104,29.1842984 L10.6869104,29.1842984 L18.486655,29.1842984 C18.4890786,29.1842984 18.4915022,29.1842984 18.4939258,29.183606 C18.494272,29.183606 18.4946182,29.1829135 18.4946182,29.1829135 C18.4960031,29.1829135 18.4966956,29.1829135 18.4980804,29.1825673 L25.2556895,26.9237989 C25.2570744,26.9234527 25.2574206,26.9220678 25.2584593,26.9217216 C25.2605366,26.9206829 25.2626139,26.9210291 25.2643451,26.9196442 C25.2653837,26.9189518 25.2653837,26.9175669 25.2664224,26.9168744 C25.2674611,26.9158357 25.268846,26.916182 25.2695384,26.9154895 L29.1645636,23.0104238 C29.1652561,23.0100776 29.1649098,23.0093852 29.1652561,23.0090389 C29.1659485,23.0083465 29.166641,23.0083465 29.166641,23.0083465 C29.1676796,23.0069616 29.1673334,23.0055767 29.1680259,23.0048842 C29.1690645,23.0028069 29.1711419,23.0021144 29.1721806,23.0000371 C29.172873,22.9972673 29.1714881,22.99519 29.1721806,22.9927664 C29.172873,22.9903428 29.1749503,22.9886117 29.1749503,22.9858419 L29.1749503,18.4873475 C29.1749503,18.4852701 29.1732192,18.4838852 29.172873,18.4825003 C29.1725268,18.4786919 29.1718343,18.4762683 29.1701032,18.4731523 C29.1690645,18.4703825 29.1680259,18.4683051 29.1662947,18.4662278 C29.1652561,18.4651891 29.1659485,18.463458 29.1645636,18.4627656 L25.2941204,14.5919761 L29.1645636,10.7118386 C29.1659485,10.7104537 29.1652561,10.7090688 29.1662947,10.7076839 C29.1680259,10.7056065 29.1707957,10.7042216 29.1718343,10.7014518 C29.1725268,10.7000669 29.1714881,10.6979896 29.1721806,10.6966047 C29.1725268,10.6945273 29.1742579,10.6938349 29.1746041,10.6917575 C29.1749503,10.6910651 29.1739117,10.6903727 29.1742579,10.6889878 C29.1742579,10.6889878 29.1749503,10.6876029 29.1749503,10.6865642 L29.1749503,6.17906794 C29.1749503,6.17802926 29.1739117,6.17733682 29.1739117,6.17595192 C29.1732192,6.17525947 29.1742579,6.17456702 29.1739117,6.17352835 Z" id="Path"></path>
            <polygon id="Path" points="29.1053592 10.6332456 22.0226455 7.36350182 29.1053592 6.2195762"></polygon>
            <polygon id="Path" points="19.7929599 16.439776 21.8370691 16.9670759 19.9439138 18.8508832 18.6756936 16.8116211"></polygon>
            <polygon id="Path" points="7.31364549 15.7410951 7.90672799 15.9446751 7.31364549 16.8344719"></polygon>
            <polygon id="Path" points="10.6367079 16.8344719 15.0861285 17.053632 16.2065939 19.9248714 12.7087747 20.07998 9.21095553 18.8321871"></polygon>
            <polygon id="Path" points="0.0688986675 6.2337714 7.16096051 9.59872693 0.0688986675 10.6470946"></polygon>
            <polygon id="Path" points="16.1205571 16.806774 15.8968961 16.806774 13.4331628 16.806774 13.2773618 16.806774 11.417444 16.806774 10.7963173 16.806774 16.535334 12.7552553 18.432644 16.806774"></polygon>
            <polygon id="Path" points="16.0236142 10.6481333 16.5973082 12.6401357 12.7417526 12.7379441 9.51944153 11.6646483 12.2992777 10.1114854"></polygon>
            <polygon id="Path" points="16.6776322 7.40158651 17.6958784 9.2670439 21.8370691 9.56168091 21.8703067 7.40158651 20.0495123 5.33739628"></polygon>
            <polygon id="Path-Copy-28" points="17.7055727 9.2670439 21.9395516 9.43946368 19.9944626 11.5296207 16.6208514 12.7379441 16.2065939 10.4551131"></polygon>
            <polygon id="Path" points="13.6467833 7.0023897 12.7417526 4.22601576 16.3992678 4.29560688 19.8514719 5.35263015 16.5973082 7.3108757"></polygon>
            <polygon id="Path" points="11.8531675 7.90672799 7.34861416 7.32714825 9.2161489 5.45926729 12.6981283 4.20801209 13.7721166 7.0023897"></polygon>
            <polygon id="Path" points="12.3404784 10.1107929 9.14344176 11.5296207 7.34861416 9.67039539 7.20666214 7.29321825 11.5427773 7.90672799"></polygon>
            <path d="M12.5734875,12.7521393 L10.6695992,16.7984646 L10.5733488,16.7614186 C10.5730026,16.7610723 10.5726563,16.7614186 10.5723101,16.7614186 C10.5719639,16.7614186 10.5719639,16.7607261 10.5716177,16.7607261 L9.56895163,16.4297355 L9.56895163,16.4297355 L8.30350122,16.0108039 L8.30350122,16.0108039 L7.97216442,15.8944725 L7.97216442,15.8944725 C7.97216442,15.8944725 7.97216442,15.8941263 7.97181819,15.8941263 L7.29010223,15.6604248 L7.28975601,15.6604248 C7.28975601,15.6604248 7.28975601,15.6604248 7.28975601,15.6604248 L6.60907872,15.4461118 C6.60907872,15.4461118 6.60907872,15.4461118 6.60907872,15.4461118 L6.10289856,15.2709223 L6.10255233,15.2709223 L6.10255233,15.2709223 L5.46965402,15.0566093 L5.46965402,15.0566093 C5.46965402,15.0566093 5.46965402,15.0566093 5.46965402,15.0566093 L4.07194587,14.599593 L12.5734875,12.7521393 Z" id="Path"></path>
            <polygon id="Path" points="0.0688986675 18.5084672 6.0935505 15.3412058 6.53741025 15.4945833 0.0688986675 22.8940924"></polygon>
            <polygon id="Path" points="9.19191319 18.91078 4.05567332 26.6527052 7.2939107 17.0131237"></polygon>
            <polygon id="Path" points="12.594261 20.0682084 10.6941811 28.9516356 9.2784693 18.9564816"></polygon>
            <polygon id="Path" points="16.5211388 20.07998 18.4136017 28.9717166 12.6981283 20.07998"></polygon>
            <polygon id="Path" points="19.9234866 18.9474798 25.09608 26.7302594 16.6208514 20.0574754"></polygon>
            <polygon id="Path" points="21.9070065 16.9954663 28.9280923 22.8542766 19.9979248 18.8951999"></polygon>
            <polygon id="Path" points="21.9395516 16.9213743 21.9395516 15.717898 25.4208385 14.5921492 28.9021255 18.4014838"></polygon>
            <path d="M23.0720518,15.270576 L23.0720518,15.270576 L21.8941962,15.6600786 L21.8941962,15.6600786 C21.89385,15.6600786 21.89385,15.6600786 21.89385,15.6600786 L20.8807972,16.0104577 L20.8807972,16.0104577 L19.7808421,16.3708774 L19.7808421,16.3708774 L18.6123345,16.7603799 C18.6119883,16.7603799 18.6119883,16.7603799 18.6119883,16.7603799 L18.6116421,16.7603799 L18.5378963,16.7866929 L19.9591477,11.6258711 L25.1594391,14.5836667 L23.0720518,15.270576 Z" id="Path"></path>
            <polygon id="Path" points="16.6101185 4.21147433 18.5056974 0.077554279 25.1165072 2.27781072"></polygon>
            <polygon id="Path" points="12.6486182 4.20801209 10.7412676 0.069244892 18.3796717 0.069244892"></polygon>
            <polygon id="Path" points="9.214764 5.3377425 4.02243578 2.29269837 10.6367079 0.0882872373"></polygon>
            <polygon id="Path" points="3.93345609 2.3384 7.20666214 7.30083519 0.106637134 6.1558709"></polygon>
            <polygon id="Path" points="9.12405319 11.597827 3.9448815 14.5490443 0.127064377 10.7312271"></polygon>
            <path d="M7.20735458,17.053632 L0.0855174416,22.9882655 L7.20735458,17.053632 Z" id="Path"></path>
            <polygon id="Path" points="21.97729 9.66208601 29.0669283 10.7114923 25.2501499 14.5383113"></polygon>
        </g>
    </g>
</svg>