<svg width="32" height="32" viewBox="0 0 32 32" fill="none" xmlns="http://www.w3.org/2000/svg">
<circle cx="16" cy="16" r="16" fill="#EFF2F5"/>
<path fill-rule="evenodd" clip-rule="evenodd" d="M12.6663 9.33331C12.2061 9.33331 11.833 9.70641 11.833 10.1666V11H10.9997C10.0792 11 9.33301 11.7462 9.33301 12.6666V21C9.33301 21.9205 10.0792 22.6666 10.9997 22.6666H20.9997C21.9201 22.6666 22.6663 21.9205 22.6663 21V12.6666C22.6663 11.7462 21.9201 11 20.9997 11H20.1663V10.1666C20.1663 9.70641 19.7932 9.33331 19.333 9.33331C18.8728 9.33331 18.4997 9.70641 18.4997 10.1666V11H13.4997V10.1666C13.4997 9.70641 13.1266 9.33331 12.6663 9.33331ZM12.6663 13.5C12.2061 13.5 11.833 13.8731 11.833 14.3333C11.833 14.7936 12.2061 15.1666 12.6663 15.1666H19.333C19.7932 15.1666 20.1663 14.7936 20.1663 14.3333C20.1663 13.8731 19.7932 13.5 19.333 13.5H12.6663Z" fill="#808A9D"/>
</svg>
