<svg xmlns="http://www.w3.org/2000/svg" viewBox="0 0 24 19"><defs><style>.cls-1{fill:#fff;}</style></defs><g id="Layer_2" data-name="Layer 2"><g id="Layer_1-2" data-name="Layer 1"><path class="cls-1" d="M21.53,4.74c0,.2,0,.41,0,.62A13.71,13.71,0,0,1,7.55,19,14.22,14.22,0,0,1,0,16.85a11.71,11.71,0,0,0,1.19.06,10,10,0,0,0,6.1-2.05A4.91,4.91,0,0,1,2.7,11.53a5.52,5.52,0,0,0,.92.08,5,5,0,0,0,1.3-.17A4.82,4.82,0,0,1,1,6.74V6.68a5,5,0,0,0,2.23.61A4.74,4.74,0,0,1,1,3.3,4.6,4.6,0,0,1,1.68.88a14.06,14.06,0,0,0,10.14,5,4.94,4.94,0,0,1-.12-1.1A4.85,4.85,0,0,1,16.61,0a5,5,0,0,1,3.6,1.51A9.59,9.59,0,0,0,23.33.36,4.85,4.85,0,0,1,21.17,3,10.26,10.26,0,0,0,24,2.26a10.57,10.57,0,0,1-2.47,2.48Z"/></g></g></svg>