<svg xmlns="http://www.w3.org/2000/svg" viewBox="0 0 24 23"><defs><style>.cls-1{fill:#fff;}</style></defs><g id="Layer_2" data-name="Layer 2"><g id="Layer_1-2" data-name="Layer 1"><g id="Group_2114" data-name="Group 2114"><g id="Group_2113" data-name="Group 2113"><g id="Group_2112" data-name="Group 2112"><path id="Path_2014" data-name="Path 2014" class="cls-1" d="M5.79,2.68a2.68,2.68,0,0,1-2.68,2.7H2.84A2.66,2.66,0,0,1,0,2.89a1.34,1.34,0,0,1,0-.2A2.69,2.69,0,0,1,2.68,0h.23A2.67,2.67,0,0,1,5.78,2.47,1.48,1.48,0,0,1,5.79,2.68ZM.31,23H5.45V7.48H.31ZM18.08,7.12a5.1,5.1,0,0,0-4.63,2.56v.05h0l0-.05V7.48H8.31c.06,1.46,0,15.52,0,15.52h5.14V14.33a3.2,3.2,0,0,1,.17-1.26,2.8,2.8,0,0,1,2.63-1.88c1.87,0,2.61,1.43,2.61,3.51V23H24V14.1c0-4.77-2.54-7-5.92-7Z"/></g></g></g></g></g></svg>