<?xml version="1.0" encoding="UTF-8"?><svg id="a" xmlns="http://www.w3.org/2000/svg" width="1014.54" height="196.44" viewBox="0 0 1014.54 196.44"><g><path d="m0,82.3c0-6.47.81-12.59,2.43-18.34,1.62-5.75,3.9-11.06,6.85-15.91,2.95-4.86,6.5-9.22,10.67-13.1,4.16-3.87,8.77-7.16,13.83-9.84,5.06-2.69,10.48-4.75,16.26-6.2,5.78-1.44,11.82-2.17,18.13-2.17,5.32,0,10.45.48,15.39,1.43,4.94.95,10.05,2.07,15.31,3.34.87.23,1.78.52,2.73.87s1.85.68,2.69,1c.84.32,1.6.59,2.3.82.69.23,1.21.35,1.56.35.12,0,.51-.12,1.17-.35.66-.23,1.14-.35,1.43-.35h3.99c.69,0,1.04.49,1.04,1.47v28.27c0,.35-.13.58-.39.69-.26.12-.82.17-1.69.17-.17,0-.62-.01-1.34-.04-.72-.03-1.17-.19-1.34-.48-.12-.17-.33-.52-.65-1.04-.32-.52-.67-1.05-1.04-1.6-.38-.55-.72-1.07-1.04-1.56-.32-.49-.51-.82-.56-1-2.2-4.34-4.6-7.99-7.2-10.97-2.6-2.98-5.48-5.39-8.63-7.24-3.15-1.85-6.58-3.19-10.28-4.03-3.7-.84-7.72-1.26-12.06-1.26-5.49,0-10.36.64-14.61,1.91-4.25,1.27-7.97,3.07-11.14,5.38-3.18,2.31-5.85,5.09-8.02,8.33-2.17,3.24-3.93,6.78-5.29,10.62-1.36,3.85-2.34,7.95-2.95,12.32-.61,4.37-.91,8.86-.91,13.49,0,4.91.35,9.79,1.04,14.61.69,4.83,1.82,9.42,3.38,13.79,1.56,4.37,3.57,8.41,6.03,12.14,2.46,3.73,5.42,6.97,8.89,9.71,3.47,2.75,7.52,4.9,12.14,6.46,4.63,1.56,9.86,2.34,15.7,2.34,4.91,0,9.5-.74,13.75-2.21,4.25-1.47,8.14-3.47,11.67-5.98,3.53-2.51,6.66-5.41,9.41-8.67,2.75-3.27,5.1-6.69,7.07-10.28.12-.29.25-.45.39-.48.14-.03.36-.04.65-.04h4.42c.17,0,.36.07.56.22.2.14.3.45.3.91,0,.17-.13.62-.39,1.34-.26.72-.54,1.34-.82,1.86l-11.97,26.37c-.12.17-.29.32-.52.43-.23.12-.43.17-.61.17-1.39,0-2.36-.12-2.91-.35-.55-.23-1.11-.35-1.69-.35-1.73,0-4.03.3-6.9.91-2.86.61-5.96,1.26-9.28,1.95-3.33.69-6.68,1.34-10.06,1.95-3.38.61-6.4.91-9.06.91-6.07,0-11.97-.67-17.69-2-5.72-1.33-11.1-3.25-16.13-5.77-5.03-2.51-9.63-5.61-13.79-9.28-4.16-3.67-7.75-7.82-10.75-12.45-3.01-4.62-5.33-9.73-6.98-15.31-1.65-5.58-2.47-11.55-2.47-17.91Z" style="fill:#231f20;"/><path d="m156.9,61.23c.23-.12.48-.23.74-.35.26-.11.45-.17.56-.17.98,0,1.47.69,1.47,2.08v14.74c0,.17.01.39.04.65.03.26.19.39.48.39s.52-.1.69-.3c.17-.2.35-.39.52-.56,1.04-1.39,2.21-2.93,3.51-4.64,1.3-1.7,2.69-3.31,4.16-4.81,1.47-1.5,2.99-2.76,4.55-3.77,1.56-1.01,3.09-1.52,4.6-1.52,1.04,0,2.4.29,4.08.87,1.68.58,3.31,1.26,4.9,2.04,1.59.78,2.95,1.59,4.08,2.43,1.13.84,1.69,1.52,1.69,2.04s-.26,1.49-.78,2.91c-.52,1.42-1.17,2.85-1.95,4.29-.78,1.45-1.62,2.73-2.51,3.86-.9,1.13-1.72,1.69-2.47,1.69h-.17c-1.04-.35-2.1-.77-3.17-1.26-1.07-.49-2.15-.98-3.25-1.47-1.1-.49-2.21-.9-3.34-1.21-1.13-.32-2.27-.48-3.43-.48-1.73,0-3.35.36-4.86,1.08-1.5.72-2.79,1.65-3.86,2.77-1.07,1.13-1.92,2.39-2.56,3.77-.64,1.39-.95,2.72-.95,3.99v36.6c0,1.68.36,3.08,1.08,4.21.72,1.13,1.65,2.05,2.78,2.78,1.13.72,2.37,1.27,3.73,1.65,1.36.38,2.67.68,3.95.91,1.27.23,2.43.42,3.47.56,1.04.14,1.82.33,2.34.56.58.23.87,1.04.87,2.43,0,1.68-.29,2.57-.87,2.69h-50.04c-.58-.12-.87-1.01-.87-2.69,0-1.39.29-2.2.87-2.43.75-.35,1.82-.62,3.21-.82,1.39-.2,2.78-.61,4.16-1.21,1.39-.61,2.6-1.56,3.64-2.86,1.04-1.3,1.56-3.22,1.56-5.77v-41.72c0-1.39-.38-2.47-1.13-3.25-.75-.78-1.71-1.37-2.86-1.78-1.16-.4-2.4-.74-3.73-1-1.33-.26-2.6-.56-3.82-.91-.35-.11-.62-.27-.82-.48-.2-.2-.3-.62-.3-1.26,0-.29.09-.58.26-.87.17-.29.52-.58,1.04-.87l28.71-13.53Z" style="fill:#231f20;"/><path d="m230.57,196.44c-1.04,0-2.05-.17-3.04-.52-.98-.35-1.88-.84-2.69-1.47-.81-.64-1.46-1.38-1.95-2.21-.49-.84-.74-1.78-.74-2.82,0-1.62.42-2.86,1.26-3.73.84-.87,1.87-1.59,3.08-2.17s2.49-1.07,3.82-1.47c1.33-.41,2.46-.95,3.38-1.65.64-.46,1.31-1,2.04-1.6.72-.61,1.37-1.58,1.95-2.91l11.36-26.45-33.22-69.3c-.98-2.66-2.4-4.99-4.25-6.98-1.85-2-4.11-3.43-6.76-4.29-.41-.12-.9-.25-1.47-.39-.58-.14-1.14-.33-1.69-.56-.55-.23-1.01-.53-1.39-.91-.38-.38-.56-.88-.56-1.52,0-.58.17-1.16.52-1.73.35-.58.87-.87,1.56-.87h45.79c.35,0,.55.35.61,1.04.06.69.09,1.13.09,1.3,0,.81-.33,1.37-1,1.69-.67.32-1.49.54-2.47.65-.98.12-2.04.2-3.17.26-1.13.06-2.18.26-3.17.61-.98.35-1.81.9-2.47,1.65-.67.75-1,1.88-1,3.38,0,.17.13.54.39,1.08.26.55.39.88.39,1l21.51,46.05c.12.29.33.71.65,1.26.32.55.68.82,1.08.82.23,0,.46-.13.69-.39.23-.26.43-.56.61-.91.17-.35.32-.68.43-1,.12-.32.2-.53.26-.65,2.66-6.82,4.9-12.6,6.72-17.35,1.82-4.74,3.32-8.67,4.51-11.79,1.18-3.12,2.08-5.56,2.69-7.33.61-1.76,1.04-3.12,1.3-4.08.26-.95.42-1.65.48-2.08.06-.43.09-.85.09-1.26.12-2.02-.49-3.7-1.82-5.03-1.33-1.33-2.92-2.31-4.77-2.95-.52-.17-1.17-.3-1.95-.39-.78-.09-1.53-.23-2.25-.43-.72-.2-1.36-.52-1.91-.95-.55-.43-.82-1.05-.82-1.86,0-.46.2-.97.61-1.52.4-.55.84-.82,1.3-.82h34.6c.46,0,.74.33.82,1,.09.67.13,1.14.13,1.43,0,.41-.06.75-.17,1.04-.12.29-.39.55-.82.78-.43.23-1.04.46-1.82.69-.78.23-1.81.46-3.08.69-1.21.23-2.31.82-3.3,1.78s-1.86,2.05-2.64,3.3c-.78,1.24-1.47,2.56-2.08,3.95-.61,1.39-1.14,2.63-1.6,3.73l-43.97,108.93c-.46,1.1-1.13,2.04-2,2.82s-1.82,1.43-2.86,1.95c-1.04.52-2.08.9-3.12,1.13-1.04.23-1.94.35-2.69.35Z" style="fill:#231f20;"/><path d="m332.95,58.54c.23-.12.48-.23.74-.35.26-.12.45-.17.56-.17.98,0,1.47.69,1.47,2.08v9.19c0,.29.13.52.39.69.26.17.48.26.65.26.29,0,.56-.07.82-.22.26-.14.5-.27.74-.39,2.31-1.39,4.39-2.56,6.25-3.51,1.85-.95,3.61-1.7,5.29-2.25,1.68-.55,3.41-.94,5.2-1.17,1.79-.23,3.82-.35,6.07-.35,4.91,0,9.32,1.17,13.23,3.51s7.21,5.41,9.93,9.19c2.72,3.79,4.8,8.05,6.24,12.79,1.44,4.74,2.17,9.51,2.17,14.31,0,3.53-.49,7.05-1.47,10.58-.98,3.53-2.34,6.87-4.08,10.02-1.73,3.15-3.82,6.09-6.24,8.8-2.43,2.72-5.1,5.07-8.02,7.07-2.92,2-6.04,3.56-9.37,4.68-3.33,1.13-6.75,1.69-10.28,1.69-2.6,0-5.13-.17-7.59-.52-2.46-.35-5.16-.84-8.11-1.47-.98,0-1.52.35-1.6,1.04-.09.69-.16,1.42-.22,2.17v35.3c0,1.68.36,3.08,1.08,4.21.72,1.13,1.65,2.05,2.78,2.78,1.13.72,2.37,1.27,3.73,1.65,1.36.38,2.67.68,3.95.91,1.27.23,2.43.42,3.47.56,1.04.14,1.82.33,2.34.56.58.23.87.61.87,1.13,0,.81-.29,1.27-.87,1.39h-50.04c-.58-.12-.87-.58-.87-1.39,0-.52.29-.9.87-1.13.75-.35,1.82-.62,3.21-.82,1.39-.2,2.78-.61,4.16-1.21,1.39-.61,2.6-1.56,3.64-2.86,1.04-1.3,1.56-3.22,1.56-5.77v-99.04c0-1.39-.38-2.47-1.13-3.25-.75-.78-1.71-1.37-2.86-1.78-1.16-.4-2.4-.74-3.73-1-1.33-.26-2.6-.56-3.82-.91-.35-.12-.62-.27-.82-.48-.2-.2-.3-.62-.3-1.26,0-.29.09-.58.26-.87.17-.29.52-.58,1.04-.87l28.71-13.53Zm20.47,13.62c-3.12,0-5.97.43-8.54,1.3-2.57.87-5.19,2.28-7.85,4.25-.12.06-.25.16-.39.3l-.39.39-.52.52v46.31c0,.17.03.65.09,1.43.06.78.14,1.49.26,2.12.17,1.21.92,2.33,2.25,3.34s2.85,1.88,4.55,2.6c1.71.72,3.41,1.27,5.12,1.65,1.7.38,3.08.56,4.12.56,3.82,0,7.04-.69,9.67-2.08,2.63-1.39,4.75-3.25,6.37-5.59,1.62-2.34,2.79-5.07,3.51-8.2.72-3.12,1.08-6.45,1.08-9.97,0-2.72-.14-5.56-.43-8.54-.29-2.98-.74-5.91-1.34-8.8-.61-2.89-1.42-5.64-2.43-8.24-1.01-2.6-2.23-4.88-3.64-6.85-1.42-1.97-3.08-3.54-4.99-4.73-1.91-1.18-4.08-1.78-6.5-1.78Z" style="fill:#231f20;"/><path d="m409.13,75.8h-6.5c-.81,0-1.45-.2-1.91-.61-.46-.4-.72-.84-.78-1.3,0-.29.06-.61.17-.95.12-.35.26-.58.43-.69,1.16-.75,2.41-1.63,3.77-2.65,1.36-1.01,2.7-2.07,4.03-3.17,1.33-1.1,2.63-2.2,3.9-3.29,1.27-1.1,2.4-2.11,3.38-3.04.58-.64,1.37-1.59,2.38-2.86,1.01-1.27,2.17-2.53,3.47-3.77,1.3-1.24,2.7-2.34,4.21-3.3,1.5-.95,3.04-1.43,4.6-1.43.35,0,.75.12,1.21.35.46.23.69.52.69.87,0,.41-.1,1.03-.3,1.87-.2.84-.45,1.78-.74,2.82-.29,1.04-.61,2.14-.95,3.3-.35,1.16-.67,2.29-.95,3.38,0,.46.07.84.22,1.13.14.29.53.46,1.17.52h22.12c.92,0,1.56.16,1.91.48.35.32.61.74.78,1.26.12.29.23.88.35,1.78.12.9.23,1.88.35,2.95.12,1.07.22,2.14.3,3.21.09,1.07.13,1.95.13,2.65,0,.35-.23.52-.69.52h-26.11c-.29,0-.45.06-.48.17-.03.12-.04.32-.04.61v43.1c0,1.85.23,3.47.69,4.86.46,1.39,1.05,2.54,1.78,3.47.72.93,1.55,1.62,2.47,2.08s1.85.69,2.78.69c2.66,0,4.83-.39,6.5-1.17,1.68-.78,3.12-1.63,4.34-2.56,1.21-.92,2.28-1.78,3.21-2.56.92-.78,1.96-1.17,3.12-1.17.81,0,1.29.32,1.43.95.14.64.22,1.13.22,1.47,0,.75-.1,1.34-.3,1.78-.2.43-.36.77-.48,1-.06.12-.38.61-.95,1.47-.58.87-1.36,1.91-2.34,3.12-.98,1.21-2.18,2.51-3.6,3.9-1.42,1.39-2.99,2.68-4.73,3.86-1.73,1.19-3.63,2.17-5.68,2.95-2.05.78-4.21,1.17-6.46,1.17-3.12,0-6.04-.58-8.76-1.73-2.72-1.16-5.06-2.7-7.03-4.64-1.97-1.94-3.51-4.15-4.64-6.63-1.13-2.49-1.69-5.06-1.69-7.72v-48.48Z" style="fill:#231f20;"/><path d="m463.46,102.17c0-5.43,1.2-10.64,3.6-15.61,2.4-4.97,5.62-9.37,9.67-13.18,4.05-3.82,8.76-6.85,14.14-9.11,5.38-2.25,11.04-3.38,17-3.38s12.17,1.07,17.78,3.21c5.61,2.14,10.54,5.07,14.79,8.8,4.25,3.73,7.62,8.12,10.1,13.18,2.49,5.06,3.73,10.54,3.73,16.43s-1.14,11.61-3.43,16.78c-2.29,5.17-5.45,9.67-9.5,13.49-4.05,3.82-8.86,6.81-14.44,8.98-5.58,2.17-11.67,3.25-18.26,3.25s-12.56-1.11-18.08-3.34c-5.52-2.23-10.29-5.26-14.31-9.11-4.02-3.84-7.16-8.37-9.41-13.57-2.25-5.2-3.38-10.81-3.38-16.83Zm22.2-5.46c0,3.12.23,6.35.69,9.67.46,3.33,1.16,6.56,2.08,9.71.92,3.15,2.09,6.11,3.51,8.89,1.42,2.78,3.11,5.22,5.07,7.33,1.96,2.11,4.19,3.77,6.68,4.99,2.49,1.21,5.29,1.82,8.41,1.82,3.41,0,6.34-.88,8.8-2.65,2.46-1.76,4.48-4.06,6.07-6.89,1.59-2.83,2.76-6.01,3.51-9.54.75-3.53,1.13-7.05,1.13-10.58,0-2.83-.26-5.82-.78-8.98-.52-3.15-1.3-6.27-2.34-9.37-1.04-3.09-2.31-6.06-3.82-8.89-1.5-2.83-3.25-5.33-5.25-7.5-2-2.17-4.22-3.89-6.68-5.16-2.46-1.27-5.13-1.91-8.02-1.91-3.24,0-6.06.88-8.46,2.64-2.4,1.76-4.38,4.05-5.94,6.85-1.56,2.81-2.73,5.93-3.51,9.37-.78,3.44-1.17,6.84-1.17,10.19Z" style="fill:#231f20;"/><path d="m587.22,58.54c.23-.12.48-.23.74-.35.26-.12.45-.17.56-.17.98,0,1.47.69,1.47,2.08v9.19c0,.29.13.52.39.69.26.17.48.26.65.26.29,0,.56-.07.82-.22.26-.14.5-.27.74-.39,2.31-1.39,4.39-2.56,6.25-3.51,1.85-.95,3.61-1.7,5.29-2.25,1.68-.55,3.41-.94,5.2-1.17,1.79-.23,3.82-.35,6.07-.35,4.91,0,9.32,1.17,13.23,3.51s7.21,5.41,9.93,9.19c2.72,3.79,4.8,8.05,6.24,12.79,1.44,4.74,2.17,9.51,2.17,14.31,0,3.53-.49,7.05-1.47,10.58-.98,3.53-2.34,6.87-4.08,10.02-1.73,3.15-3.82,6.09-6.24,8.8-2.43,2.72-5.1,5.07-8.02,7.07-2.92,2-6.04,3.56-9.37,4.68-3.33,1.13-6.75,1.69-10.28,1.69-2.6,0-5.13-.17-7.59-.52-2.46-.35-5.16-.84-8.11-1.47-.98,0-1.52.35-1.6,1.04-.09.69-.16,1.42-.22,2.17v35.3c0,1.68.36,3.08,1.08,4.21.72,1.13,1.65,2.05,2.78,2.78,1.13.72,2.37,1.27,3.73,1.65,1.36.38,2.67.68,3.95.91,1.27.23,2.43.42,3.47.56,1.04.14,1.82.33,2.34.56.58.23.87.61.87,1.13,0,.81-.29,1.27-.87,1.39h-50.04c-.58-.12-.87-.58-.87-1.39,0-.52.29-.9.87-1.13.75-.35,1.82-.62,3.21-.82,1.39-.2,2.78-.61,4.16-1.21,1.39-.61,2.6-1.56,3.64-2.86,1.04-1.3,1.56-3.22,1.56-5.77v-99.04c0-1.39-.38-2.47-1.13-3.25-.75-.78-1.71-1.37-2.86-1.78-1.16-.4-2.4-.74-3.73-1-1.33-.26-2.6-.56-3.82-.91-.35-.12-.62-.27-.82-.48-.2-.2-.3-.62-.3-1.26,0-.29.09-.58.26-.87.17-.29.52-.58,1.04-.87l28.71-13.53Zm20.47,13.62c-3.12,0-5.97.43-8.54,1.3-2.57.87-5.19,2.28-7.85,4.25-.12.06-.25.16-.39.3l-.39.39-.52.52v46.31c0,.17.03.65.09,1.43.06.78.14,1.49.26,2.12.17,1.21.92,2.33,2.25,3.34s2.85,1.88,4.55,2.6c1.71.72,3.41,1.27,5.12,1.65,1.7.38,3.08.56,4.12.56,3.82,0,7.04-.69,9.67-2.08,2.63-1.39,4.75-3.25,6.37-5.59,1.62-2.34,2.79-5.07,3.51-8.2.72-3.12,1.08-6.45,1.08-9.97,0-2.72-.14-5.56-.43-8.54-.29-2.98-.74-5.91-1.34-8.8-.61-2.89-1.42-5.64-2.43-8.24-1.01-2.6-2.23-4.88-3.64-6.85-1.42-1.97-3.08-3.54-4.99-4.73-1.91-1.18-4.08-1.78-6.5-1.78Z" style="fill:#231f20;"/><path d="m658.28,107.54c0-6.76.95-12.99,2.86-18.69,1.91-5.69,4.65-10.62,8.24-14.79,3.58-4.16,7.96-7.4,13.14-9.71,5.17-2.31,11.06-3.47,17.65-3.47,1.96,0,3.73.13,5.29.39,1.56.26,2.99.61,4.29,1.04,1.3.43,2.52.95,3.64,1.56,1.13.61,2.27,1.26,3.43,1.95,1.33.69,2.85,1.94,4.55,3.73,1.71,1.79,3.31,3.88,4.81,6.25,1.5,2.37,2.78,4.9,3.82,7.59,1.04,2.69,1.56,5.28,1.56,7.76,0,.81-.16,1.69-.48,2.65-.32.95-.85,1.43-1.6,1.43h-51.17c-.58,0-.97.52-1.17,1.56-.2,1.04-.3,2.31-.3,3.82,0,5.09.74,9.61,2.21,13.57,1.47,3.96,3.45,7.31,5.94,10.06,2.49,2.75,5.35,4.83,8.59,6.24,3.24,1.42,6.65,2.12,10.23,2.12,2.25,0,4.42-.3,6.5-.91,2.08-.61,4.08-1.4,5.98-2.39,1.91-.98,3.7-2.08,5.38-3.3,1.68-1.21,3.27-2.43,4.77-3.64.35-.11.58-.17.69-.17.17,0,.4.14.69.43.52.46,1.04,1,1.56,1.6s.92,1.11,1.21,1.52c.17.17.26.35.26.52s-.12.38-.35.61c-1.91,2.25-4.25,4.47-7.02,6.63-2.78,2.17-5.74,4.11-8.89,5.81-3.15,1.71-6.38,3.08-9.67,4.12-3.29,1.04-6.42,1.56-9.37,1.56-5.96,0-11.25-1.08-15.87-3.25-4.63-2.17-8.53-5.01-11.71-8.54-3.18-3.53-5.59-7.53-7.24-12.01-1.65-4.48-2.47-9.03-2.47-13.66Zm50.91-18.99c1.5,0,2.25-.66,2.25-2,0-2.25-.36-4.38-1.08-6.38-.72-1.99-1.75-3.76-3.08-5.29-1.33-1.53-2.93-2.73-4.81-3.6s-3.98-1.3-6.29-1.3c-2.78,0-5.2.59-7.29,1.78-2.08,1.19-3.85,2.62-5.29,4.29-1.45,1.68-2.53,3.41-3.25,5.2-.72,1.79-1.08,3.33-1.08,4.6,0,.98.14,1.68.43,2.08.29.41.66.61,1.13.61h28.36Z" style="fill:#231f20;"/><path d="m816.49.52c.23-.12.48-.23.74-.35.26-.12.45-.17.56-.17.98,0,1.47.69,1.47,2.08v120.73c0,2.54.65,4.37,1.95,5.46,1.3,1.1,3.25,1.65,5.85,1.65l5.03-.35c.23,0,.38.16.43.48.06.32.09.65.09,1,0,.12-.07.28-.22.48-.14.2-.51.42-1.08.65l-29.66,12.32c-.12.06-.41.16-.87.3-.46.14-.72.22-.78.22-.41,0-.65-.25-.74-.74-.09-.49-.13-.97-.13-1.43v-5.98c0-.58-.2-.87-.61-.87-.17,0-.43.09-.78.26-2.03,1.16-3.93,2.27-5.72,3.34-1.79,1.07-3.6,2.01-5.42,2.82-1.82.81-3.73,1.44-5.72,1.91s-4.21.69-6.63.69c-5.2,0-9.89-1.07-14.05-3.21s-7.69-5-10.58-8.59c-2.89-3.58-5.12-7.69-6.68-12.32-1.56-4.62-2.34-9.45-2.34-14.48,0-6.07,1.2-11.71,3.6-16.91,2.4-5.2,5.61-9.71,9.63-13.53,4.02-3.82,8.69-6.81,14.01-8.98,5.32-2.17,10.9-3.25,16.74-3.25,1.56,0,2.92.15,4.08.43,1.16.29,2.22.59,3.21.91.98.32,1.96.62,2.95.91.98.29,2.08.43,3.3.43.17,0,.39-.06.65-.17.26-.12.39-.43.39-.95V24.46c0-1.39-.38-2.47-1.13-3.25-.75-.78-1.71-1.37-2.86-1.78-1.16-.4-2.4-.74-3.73-1s-2.6-.56-3.82-.91c-.35-.11-.62-.27-.82-.48-.2-.2-.3-.62-.3-1.26,0-.29.09-.58.26-.87.17-.29.52-.58,1.04-.87l28.71-13.53Zm-56.2,101.99c0,4.16.48,8.17,1.43,12.01.95,3.85,2.43,7.23,4.42,10.15,2,2.92,4.52,5.25,7.59,6.98,3.06,1.73,6.68,2.6,10.84,2.6.64,0,1.76-.17,3.38-.52,1.62-.35,3.25-.79,4.9-1.34,1.65-.55,3.11-1.2,4.38-1.95,1.27-.75,1.91-1.56,1.91-2.43v-43.1c0-3.99-1.43-7.23-4.29-9.71-2.86-2.49-6.95-3.73-12.27-3.73-3.87,0-7.21.91-10.02,2.73-2.8,1.82-5.12,4.21-6.94,7.15-1.82,2.95-3.17,6.27-4.03,9.97s-1.3,7.43-1.3,11.19Z" style="fill:#231f20;"/><path d="m838.06,142.67c-.35-.12-.58-.51-.69-1.17-.12-.66-.17-1.17-.17-1.52,0-.29.09-.75.26-1.39.17-.64.38-1.01.61-1.13.75-.35,1.82-.62,3.21-.82,1.39-.2,2.78-.61,4.16-1.21,1.39-.61,2.6-1.56,3.64-2.86,1.04-1.3,1.56-3.22,1.56-5.77v-41.63c0-1.39-.38-2.47-1.13-3.25-.75-.78-1.71-1.37-2.86-1.78-1.16-.4-2.4-.74-3.73-1-1.33-.26-2.6-.56-3.82-.91-.35-.11-.62-.27-.82-.48-.2-.2-.3-.62-.3-1.26,0-.29.09-.58.26-.87.17-.29.52-.58,1.04-.87l28.71-13.53c.23-.12.48-.23.74-.35.26-.11.45-.17.56-.17.98,0,1.47.69,1.47,2.08v64.01c0,2.54.52,4.47,1.56,5.77,1.04,1.3,2.25,2.25,3.64,2.86,1.39.61,2.78,1.01,4.16,1.21,1.39.2,2.46.48,3.21.82.23.12.43.49.61,1.13.17.64.26,1.1.26,1.39,0,.35-.06.85-.17,1.52-.12.67-.35,1.06-.69,1.17h-45.27Zm8.85-113.35c0-3.7,1.1-6.65,3.3-8.85s5.15-3.3,8.85-3.3,6.65,1.1,8.85,3.3c2.2,2.2,3.3,5.15,3.3,8.85s-1.1,6.63-3.3,8.8-5.15,3.25-8.85,3.25-6.65-1.08-8.85-3.25c-2.2-2.17-3.3-5.1-3.3-8.8Z" style="fill:#231f20;"/><path d="m929,140.93c-1.91,1.33-4.16,2.37-6.76,3.12-2.6.75-5.2,1.13-7.81,1.13-7.05,0-12.42-1.59-16.09-4.77-3.67-3.18-5.51-7.49-5.51-12.92,0-3.12.71-5.81,2.12-8.07,1.42-2.25,3.51-4.25,6.29-5.98s6.2-3.31,10.28-4.73c4.08-1.42,8.8-2.82,14.18-4.21,2.89-.75,5.22-1.56,6.98-2.43,1.76-.87,3.4-1.71,4.9-2.52.98-.52,1.55-.98,1.69-1.39.14-.4.22-.78.22-1.13v-15.09c0-1.91-.27-3.69-.82-5.33-.55-1.65-1.37-3.08-2.47-4.29-1.1-1.21-2.43-2.17-3.99-2.86-1.56-.69-3.33-1.04-5.29-1.04-1.68,0-3.24.29-4.68.87-1.45.58-2.69,1.42-3.73,2.52-1.04,1.1-1.86,2.4-2.47,3.9-.61,1.5-.91,3.21-.91,5.12,0,.17.01.43.04.78.03.35.07.71.13,1.08.06.38.12.71.17,1,.06.29.09.46.09.52-.06.12-.54.35-1.43.69-.9.35-2,.74-3.3,1.17-1.3.43-2.73.87-4.29,1.3-1.56.43-3.05.85-4.47,1.26-1.42.41-2.66.77-3.73,1.08-1.07.32-1.81.51-2.21.56-.64,0-1.03-.33-1.17-1-.15-.66-.22-1.31-.22-1.95,0-3.35,1.01-6.62,3.04-9.8,2.02-3.18,4.73-6,8.11-8.46,3.38-2.46,7.27-4.44,11.67-5.94,4.39-1.5,8.93-2.26,13.62-2.26,4.16,0,7.89.54,11.19,1.6,3.3,1.07,6.1,2.54,8.41,4.42,2.31,1.88,4.08,4.05,5.29,6.5,1.21,2.46,1.82,5.07,1.82,7.85v41.37c0,1.5.56,2.85,1.69,4.03,1.13,1.19,2.59,1.78,4.38,1.78,1.04,0,1.98-.19,2.82-.56.84-.38,1.59-.81,2.25-1.3.66-.49,1.23-.92,1.69-1.3.46-.38.87-.56,1.21-.56.46,0,.72.19.78.56.06.38.09.71.09,1,0,.98-.13,1.98-.39,2.99-.26,1.01-.71,1.75-1.34,2.21-2.83,2.14-5.35,4.06-7.54,5.77-2.2,1.71-4.19,3.17-5.98,4.38-1.79,1.21-3.41,2.14-4.86,2.78-1.45.64-2.81.95-4.08.95-1.16,0-2.18-.32-3.08-.95-.9-.64-1.68-1.42-2.34-2.34-.67-.92-1.23-1.92-1.69-2.99-.46-1.07-.85-2.07-1.17-2.99-.32-.92-.56-1.68-.74-2.25-.17-.58-.32-.84-.43-.78l-10.15,7.89Zm-15.96-15.52c0,1.56.3,2.83.91,3.82.61.98,1.4,1.74,2.38,2.26.98.52,2.1.88,3.34,1.08,1.24.2,2.53.3,3.86.3,1.21,0,2.72-.3,4.51-.91,1.79-.61,3.54-1.42,5.25-2.43,1.7-1.01,3.17-2.17,4.38-3.47,1.21-1.3,1.82-2.62,1.82-3.95v-14.31c0-.63-.23-.95-.69-.95-.12,0-.23.03-.35.09l-20.12,9.37c-.81.58-1.55,1.11-2.21,1.6-.67.49-1.23,1.07-1.69,1.73-.46.67-.81,1.45-1.04,2.34-.23.9-.35,2.04-.35,3.43Z" style="fill:#231f20;"/></g><path d="m964.92,62.58c0-2.28.29-4.48.88-6.58s1.42-4.09,2.51-5.93c1.09-1.85,2.38-3.52,3.88-5.02,1.5-1.5,3.17-2.79,5.02-3.88,1.85-1.09,3.83-1.92,5.93-2.51,2.11-.59,4.3-.88,6.58-.88s4.48.29,6.58.88c2.11.59,4.09,1.42,5.93,2.51,1.85,1.09,3.52,2.38,5.02,3.88,1.5,1.5,2.79,3.17,3.88,5.02,1.09,1.85,1.92,3.83,2.51,5.93s.88,4.3.88,6.58-.29,4.48-.88,6.58c-.59,2.11-1.42,4.09-2.51,5.93-1.09,1.85-2.38,3.52-3.88,5.02-1.5,1.5-3.17,2.79-5.02,3.88-1.85,1.09-3.83,1.92-5.93,2.51-2.11.59-4.3.88-6.58.88s-4.48-.29-6.58-.88c-2.11-.59-4.09-1.42-5.93-2.51s-3.52-2.38-5.02-3.88c-1.5-1.5-2.79-3.17-3.88-5.02-1.09-1.85-1.92-3.83-2.51-5.93-.59-2.11-.88-4.3-.88-6.58Zm4.43,0c0,1.87.25,3.67.73,5.41.49,1.74,1.17,3.36,2.05,4.87.88,1.51,1.94,2.88,3.18,4.12,1.24,1.24,2.61,2.3,4.12,3.18,1.51.88,3.13,1.57,4.87,2.05,1.74.49,3.54.73,5.41.73s3.67-.25,5.41-.73c1.74-.49,3.36-1.17,4.87-2.05,1.51-.88,2.88-1.94,4.12-3.18,1.24-1.24,2.3-2.61,3.18-4.12.88-1.51,1.57-3.13,2.05-4.87.49-1.74.73-3.54.73-5.41s-.25-3.67-.73-5.41c-.49-1.74-1.17-3.36-2.05-4.87-.88-1.51-1.94-2.88-3.18-4.12-1.24-1.24-2.61-2.3-4.12-3.18-1.51-.88-3.14-1.56-4.87-2.05-1.74-.49-3.54-.73-5.41-.73s-3.67.25-5.41.73c-1.74.49-3.36,1.17-4.87,2.05-1.51.88-2.88,1.94-4.12,3.18-1.24,1.24-2.3,2.61-3.18,4.12-.88,1.51-1.56,3.13-2.05,4.87-.49,1.74-.73,3.54-.73,5.41Zm6.16,12.62s.01-.05.03-.1c.02-.04.07-.07.13-.07.09,0,.21-.01.38-.03.16-.02.34-.05.52-.08s.36-.07.52-.1c.16-.03.28-.05.34-.05.74-.17,1.25-.46,1.55-.85.29-.39.44-.87.44-1.43v-19.89c0-.65-.14-1.16-.41-1.53-.27-.37-.59-.65-.95-.85-.36-.2-.71-.31-1.04-.36-.34-.04-.56-.07-.67-.07h-.75c-.07,0-.11-.02-.13-.06-.02-.04-.03-.08-.03-.1v-.85s0-.05.02-.08.06-.06.15-.08c.11,0,.23,0,.37-.02s.35-.02.62-.02.66-.01,1.16-.03c.72,0,1.48-.02,2.3-.05.82-.03,1.64-.06,2.48-.08.84-.02,1.66-.04,2.48-.07.82-.02,1.58-.03,2.3-.03h1.96c1.02,0,2.07.17,3.15.52s2.05.86,2.92,1.55c.87.68,1.58,1.54,2.13,2.56.55,1.02.83,2.2.83,3.52,0,.87-.12,1.64-.36,2.31s-.57,1.27-.98,1.78c-.41.51-.9.96-1.47,1.35-.56.39-1.18.74-1.86,1.04l5.93,9.39c.52.8,1.12,1.54,1.79,2.2s1.46,1.12,2.35,1.38c.11.02.17.05.2.1.02.04.03.1.03.16,0,.2-.05.33-.16.39-.11.07-.27.1-.49.1-.54,0-1.16-.04-1.86-.11-.7-.08-1.4-.2-2.1-.36-.71-.16-1.38-.38-2-.64-.63-.26-1.16-.59-1.6-.98-.41-.35-.84-.8-1.27-1.37s-.87-1.17-1.3-1.81c-.43-.64-.86-1.31-1.29-2.02-.42-.71-.84-1.39-1.24-2.05-.4-.66-.78-1.28-1.14-1.86-.36-.58-.69-1.06-1-1.45l-3.03-.23h-.16c-.09,0-.15.01-.2.03-.04.04-.07.08-.08.1s-.02.08-.02.16v8.31c0,.35.04.65.13.91s.24.49.46.68c.22.2.5.35.85.47.35.12.77.21,1.27.28.07,0,.17.02.33.05.15.03.31.07.49.1.17.03.35.06.52.08.17.02.31.03.42.03.09,0,.14.02.15.07.01.04.02.08.02.1v.85s-.01.05-.03.1-.06.07-.13.07h-13.79c-.06,0-.11-.09-.13-.28-.02-.18-.03-.35-.03-.51v-.23Zm9.52-13.33c.02.11.05.21.1.29.04.09.13.13.26.13.13.02.31.05.54.08s.56.05.99.05c1.13,0,2.07-.17,2.82-.52.75-.35,1.34-.82,1.76-1.42s.72-1.28.88-2.05c.16-.77.24-1.57.24-2.4,0-.87-.14-1.7-.41-2.48-.27-.78-.65-1.46-1.14-2.04-.49-.58-1.08-1.03-1.76-1.37s-1.44-.51-2.27-.51h-.42c-.11,0-.21,0-.31.02-.1.01-.21.02-.33.02s-.29.01-.51.03c-.09,0-.19.02-.31.05-.12.03-.18.13-.18.28v11.25l.03.59Z" style="fill:#231f20;"/></svg>