<svg width="132" height="33" viewBox="0 0 132 33" fill="none" xmlns="http://www.w3.org/2000/svg">
<path d="M39.6002 4.94995H47.8457V6.42281H44.7175V14.2341H42.7285V6.42281H39.6002V4.94995Z" fill="white"/>
<path d="M49.4188 4.94995H51.3952V8.79579H55.2977V4.94995H57.2804V14.2341H55.2977V10.2498H51.3952V14.2341H49.4188V4.94995Z" fill="white"/>
<path d="M59.5017 4.94995H66.2429V6.42281H61.4782V8.74538H65.6009V10.212H61.4782V12.7674H66.3751V14.2341H59.5017V4.94995Z" fill="white"/>
<path d="M72.1019 4.94995H74.0783V8.79579H77.9808V4.94995H79.9635V14.2341H77.9808V10.2498H74.0783V14.2341H72.1019V4.94995Z" fill="white"/>
<path d="M82.1848 4.94995H86.7864C87.6295 4.94995 88.32 5.14927 88.8571 5.54791C89.3942 5.94655 89.6623 6.51723 89.6623 7.25995C89.6623 7.55369 89.6202 7.82014 89.5369 8.05933C89.4528 8.29848 89.3521 8.49153 89.2341 8.63838C89.117 8.78523 88.9743 8.91533 88.8068 9.02861C88.6426 9.14196 88.4982 9.22586 88.372 9.2804C88.2466 9.33081 88.1138 9.37486 87.9752 9.41256V9.54481C89.1838 9.83431 89.7885 10.5686 89.7885 11.7477C89.7885 12.2765 89.6499 12.7318 89.3727 13.1136C89.1005 13.4955 88.7416 13.7787 88.2969 13.9634C87.8514 14.1438 87.3482 14.2341 86.7864 14.2341H82.1848V4.94995ZM84.1612 6.42281V8.79579H86.2699C86.7063 8.79579 87.057 8.69506 87.321 8.49359C87.585 8.29221 87.7178 7.99639 87.7178 7.60613C87.7178 7.2117 87.585 6.91586 87.321 6.71864C87.0611 6.52143 86.7105 6.42281 86.2699 6.42281H84.1612ZM84.1612 10.2623V12.7674H86.2947C86.7608 12.7674 87.1345 12.6646 87.415 12.4591C87.7005 12.2493 87.8432 11.9345 87.8432 11.5149C87.8432 11.0952 87.7005 10.7826 87.415 10.5771C87.1345 10.3673 86.7608 10.2623 86.2947 10.2623H84.1612Z" fill="white"/>
<path d="M90.8453 14.2341V14.0389L94.0175 4.94995H96.5164L99.6886 14.0389V14.2341H97.6995L97.0197 12.1569H93.5142L92.8278 14.2341H90.8453ZM93.9482 10.7155H96.5791L95.3334 6.90118H95.2005L93.9482 10.7155Z" fill="white"/>
<path d="M108.953 7.80126C108.953 8.4978 108.76 9.08528 108.374 9.56362C107.988 10.0378 107.472 10.3609 106.826 10.533L108.859 14.0389V14.2341H106.801L104.812 10.6652H103.257V14.2341H101.281V4.94995H105.806C106.713 4.94995 107.463 5.20592 108.06 5.71786C108.656 6.22979 108.953 6.92426 108.953 7.80126ZM103.257 6.42281V9.19229H105.41C105.893 9.19229 106.276 9.07274 106.562 8.83349C106.847 8.59012 106.99 8.24606 106.99 7.80126C106.99 7.36066 106.847 7.02077 106.562 6.78158C106.276 6.54241 105.893 6.42281 105.41 6.42281H103.257Z" fill="white"/>
<path d="M40.2422 17.8408H46.6749V19.3137H42.2186V21.7496H46.1588V23.2161H42.2186V27.1249H40.2422V17.8408Z" fill="white"/>
<path d="M47.9396 22.4859C47.9396 21.5292 48.141 20.6878 48.5439 19.9619C48.9509 19.236 49.5237 18.6758 50.2622 18.2814C51.0008 17.8869 51.8546 17.6897 52.8239 17.6897C54.2968 17.6897 55.478 18.1282 56.3676 19.0052C57.2615 19.878 57.7084 21.0382 57.7084 22.4859C57.7084 23.9295 57.2615 25.0897 56.3676 25.9666C55.4738 26.8437 54.2926 27.2822 52.8239 27.2822C51.8588 27.2822 51.005 27.0849 50.2622 26.6905C49.5237 26.2918 48.9509 25.7296 48.5439 25.0037C48.141 24.2777 47.9396 23.4385 47.9396 22.4859ZM49.9223 22.4859C49.9223 23.4888 50.1804 24.2903 50.6965 24.8903C51.2168 25.4862 51.926 25.7841 52.8239 25.7841C53.7262 25.7841 54.4374 25.4862 54.9577 24.8903C55.478 24.2945 55.7383 23.493 55.7383 22.4859C55.7383 21.4789 55.478 20.6774 54.9577 20.0815C54.4374 19.4814 53.7262 19.1815 52.8239 19.1815C51.926 19.1815 51.2168 19.4814 50.6965 20.0815C50.1804 20.6774 49.9223 21.4789 49.9223 22.4859Z" fill="white"/>
<path d="M59.4639 17.8408H61.4467V23.8644C61.4467 24.4771 61.6187 24.9513 61.9628 25.287C62.3069 25.6185 62.7978 25.7842 63.4357 25.7842C64.0735 25.7842 64.5624 25.6185 64.9022 25.287C65.2463 24.9555 65.4184 24.4813 65.4184 23.8644V17.8408H67.4073V23.7449C67.4073 24.8485 67.0633 25.715 66.3751 26.3444C65.6911 26.9697 64.7113 27.2822 63.4357 27.2822C62.1852 27.2822 61.2096 26.9675 60.5088 26.3381C59.8122 25.7086 59.4639 24.8443 59.4639 23.7449V17.8408Z" fill="white"/>
<path d="M69.572 17.8408H71.7625L75.5642 24.2862H75.6964V17.8408H77.591V27.1249H75.4131L71.5988 20.6796H71.4666V27.1249H69.572V17.8408Z" fill="white"/>
<path d="M79.806 17.8408H83.4318C84.9045 17.8408 86.0727 18.2604 86.9373 19.0997C87.806 19.9347 88.2408 21.0635 88.2408 22.486C88.2408 23.9085 87.806 25.0372 86.9373 25.8723C86.0727 26.7074 84.9045 27.1249 83.4318 27.1249H79.806V17.8408ZM81.7825 19.3137V25.6583H83.3939C84.2874 25.6583 84.9861 25.3729 85.4894 24.8023C85.9976 24.2316 86.2517 23.4595 86.2517 22.486C86.2517 21.5125 85.9976 20.7404 85.4894 20.1697C84.9861 19.599 84.2874 19.3137 83.3939 19.3137H81.7825Z" fill="white"/>
<path d="M89.0707 27.1249V26.9297L92.2429 17.8408H94.7418L97.914 26.9297V27.1249H95.9249L95.2451 25.0478H91.7396L91.0532 27.1249H89.0707ZM92.1736 23.6064H94.8045L93.5588 19.792H93.4268L92.1736 23.6064Z" fill="white"/>
<path d="M97.9576 17.8408H106.204V19.3137H103.075V27.1249H101.086V19.3137H97.9576V17.8408Z" fill="white"/>
<path d="M107.776 17.8408H109.753V27.1249H107.776V17.8408Z" fill="white"/>
<path d="M111.546 22.4859C111.546 21.5292 111.748 20.6878 112.15 19.9619C112.558 19.236 113.13 18.6758 113.869 18.2814C114.607 17.8869 115.461 17.6897 116.43 17.6897C117.903 17.6897 119.084 18.1282 119.974 19.0052C120.868 19.878 121.315 21.0382 121.315 22.4859C121.315 23.9295 120.868 25.0897 119.974 25.9666C119.08 26.8437 117.899 27.2822 116.43 27.2822C115.465 27.2822 114.611 27.0849 113.869 26.6905C113.13 26.2918 112.558 25.7296 112.15 25.0037C111.748 24.2777 111.546 23.4385 111.546 22.4859ZM113.529 22.4859C113.529 23.4888 113.787 24.2903 114.303 24.8903C114.823 25.4862 115.533 25.7841 116.43 25.7841C117.333 25.7841 118.044 25.4862 118.564 24.8903C119.084 24.2945 119.345 23.493 119.345 22.4859C119.345 21.4789 119.084 20.6774 118.564 20.0815C118.044 19.4814 117.333 19.1815 116.43 19.1815C115.533 19.1815 114.823 19.4814 114.303 20.0815C113.787 20.6774 113.529 21.4789 113.529 22.4859Z" fill="white"/>
<path d="M123.121 17.8408H125.312L129.113 24.2862H129.245V17.8408H131.139V27.1249H128.962L125.147 20.6796H125.015V27.1249H123.121V17.8408Z" fill="white"/>
<path d="M15.8064 4.64065C17.0879 4.64065 18.1267 3.6018 18.1267 2.32032C18.1267 1.03885 17.0879 0 15.8064 0C14.5249 0 13.4861 1.03885 13.4861 2.32032C13.4861 3.6018 14.5249 4.64065 15.8064 4.64065Z" fill="white"/>
<path d="M7.47096 7.34866C8.75247 7.34866 9.79132 6.30981 9.79132 5.02833C9.79132 3.74685 8.75247 2.70801 7.47096 2.70801C6.18948 2.70801 5.15063 3.74685 5.15063 5.02833C5.15063 6.30981 6.18948 7.34866 7.47096 7.34866Z" fill="white"/>
<path d="M2.32032 14.439C3.6018 14.439 4.64065 13.4001 4.64065 12.1187C4.64065 10.8372 3.6018 9.79834 2.32032 9.79834C1.03885 9.79834 0 10.8372 0 12.1187C0 13.4001 1.03885 14.439 2.32032 14.439Z" fill="white"/>
<path d="M2.32032 23.2017C3.6018 23.2017 4.64065 22.1628 4.64065 20.8814C4.64065 19.5999 3.6018 18.561 2.32032 18.561C1.03885 18.561 0 19.5999 0 20.8814C0 22.1628 1.03885 23.2017 2.32032 23.2017Z" fill="white"/>
<path d="M7.47096 30.292C8.75247 30.292 9.79132 29.2532 9.79132 27.9717C9.79132 26.6902 8.75247 25.6514 7.47096 25.6514C6.18948 25.6514 5.15063 26.6902 5.15063 27.9717C5.15063 29.2532 6.18948 30.292 7.47096 30.292Z" fill="white"/>
<path d="M15.8064 33C17.0879 33 18.1267 31.9612 18.1267 30.6797C18.1267 29.3982 17.0879 28.3594 15.8064 28.3594C14.5249 28.3594 13.4861 29.3982 13.4861 30.6797C13.4861 31.9612 14.5249 33 15.8064 33Z" fill="white"/>
<path d="M24.1411 30.292C25.4225 30.292 26.4614 29.2532 26.4614 27.9717C26.4614 26.6902 25.4225 25.6514 24.1411 25.6514C22.8596 25.6514 21.8207 26.6902 21.8207 27.9717C21.8207 29.2532 22.8596 30.292 24.1411 30.292Z" fill="white"/>
<path d="M29.2925 23.2017C30.574 23.2017 31.6128 22.1628 31.6128 20.8814C31.6128 19.5999 30.574 18.561 29.2925 18.561C28.011 18.561 26.9722 19.5999 26.9722 20.8814C26.9722 22.1628 28.011 23.2017 29.2925 23.2017Z" fill="white"/>
<path d="M29.2925 14.439C30.574 14.439 31.6128 13.4001 31.6128 12.1187C31.6128 10.8372 30.574 9.79834 29.2925 9.79834C28.011 9.79834 26.9722 10.8372 26.9722 12.1187C26.9722 13.4001 28.011 14.439 29.2925 14.439Z" fill="white"/>
<path d="M24.1411 7.34866C25.4225 7.34866 26.4614 6.30981 26.4614 5.02833C26.4614 3.74685 25.4225 2.70801 24.1411 2.70801C22.8596 2.70801 21.8207 3.74685 21.8207 5.02833C21.8207 6.30981 22.8596 7.34866 24.1411 7.34866Z" fill="white"/>
<path d="M13.2537 10.3162C14.2504 10.3162 15.0584 9.50818 15.0584 8.51149C15.0584 7.51478 14.2504 6.70679 13.2537 6.70679C12.257 6.70679 11.449 7.51478 11.449 8.51149C11.449 9.50818 12.257 10.3162 13.2537 10.3162Z" fill="white"/>
<path d="M9.04483 13.3416C10.0415 13.3416 10.8495 12.5336 10.8495 11.5369C10.8495 10.5402 10.0415 9.73218 9.04483 9.73218C8.0481 9.73218 7.24011 10.5402 7.24011 11.5369C7.24011 12.5336 8.0481 13.3416 9.04483 13.3416Z" fill="white"/>
<path d="M7.42017 18.2634C8.41691 18.2634 9.22484 17.4554 9.22484 16.4587C9.22484 15.462 8.41691 14.6541 7.42017 14.6541C6.42347 14.6541 5.61548 15.462 5.61548 16.4587C5.61548 17.4554 6.42347 18.2634 7.42017 18.2634Z" fill="white"/>
<path d="M8.99736 23.2019C9.99404 23.2019 10.8021 22.394 10.8021 21.3972C10.8021 20.4005 9.99404 19.5925 8.99736 19.5925C8.00062 19.5925 7.19263 20.4005 7.19263 21.3972C7.19263 22.394 8.00062 23.2019 8.99736 23.2019Z" fill="white"/>
<path d="M13.1767 26.2686C14.1734 26.2686 14.9814 25.4606 14.9814 24.4639C14.9814 23.4672 14.1734 22.6592 13.1767 22.6592C12.18 22.6592 11.372 23.4672 11.372 24.4639C11.372 25.4606 12.18 26.2686 13.1767 26.2686Z" fill="white"/>
<path d="M18.36 26.293C19.3567 26.293 20.1647 25.485 20.1647 24.4883C20.1647 23.4916 19.3567 22.6836 18.36 22.6836C17.3633 22.6836 16.5553 23.4916 16.5553 24.4883C16.5553 25.485 17.3633 26.293 18.36 26.293Z" fill="white"/>
<path d="M22.5676 23.2676C23.5643 23.2676 24.3723 22.4596 24.3723 21.4629C24.3723 20.4662 23.5643 19.6582 22.5676 19.6582C21.5709 19.6582 20.7629 20.4662 20.7629 21.4629C20.7629 22.4596 21.5709 23.2676 22.5676 23.2676Z" fill="white"/>
<path d="M24.1934 18.346C25.1901 18.346 25.9981 17.538 25.9981 16.5414C25.9981 15.5446 25.1901 14.7366 24.1934 14.7366C23.1967 14.7366 22.3887 15.5446 22.3887 16.5414C22.3887 17.538 23.1967 18.346 24.1934 18.346Z" fill="white"/>
<path d="M22.6151 13.4077C23.6118 13.4077 24.4198 12.5997 24.4198 11.603C24.4198 10.6063 23.6118 9.79834 22.6151 9.79834C21.6184 9.79834 20.8104 10.6063 20.8104 11.603C20.8104 12.5997 21.6184 13.4077 22.6151 13.4077Z" fill="white"/>
<path d="M18.4373 10.3408C19.4341 10.3408 20.242 9.53281 20.242 8.53613C20.242 7.53944 19.4341 6.73145 18.4373 6.73145C17.4406 6.73145 16.6326 7.53944 16.6326 8.53613C16.6326 9.53281 17.4406 10.3408 18.4373 10.3408Z" fill="white"/>
<path d="M15.8064 2.32031L18.4373 8.53622" stroke="white" stroke-width="1.25" stroke-miterlimit="10"/>
<path d="M24.1415 5.02856L18.4373 8.53614" stroke="white" stroke-width="1.25" stroke-miterlimit="10"/>
<path d="M22.6151 11.6028L24.1414 5.02856" stroke="white" stroke-width="1.25" stroke-miterlimit="10"/>
<path d="M29.2925 12.1184L22.6151 11.6028" stroke="white" stroke-width="1.25" stroke-miterlimit="10"/>
<path d="M24.1926 16.5412L29.2922 12.1184" stroke="white" stroke-width="1.25" stroke-miterlimit="10"/>
<path d="M29.2922 20.8816L24.1926 16.5413" stroke="white" stroke-width="1.25" stroke-miterlimit="10"/>
<path d="M22.5676 21.463L29.2927 20.8816" stroke="white" stroke-width="1.25" stroke-miterlimit="10"/>
<path d="M24.1415 27.9714L22.5676 21.4629" stroke="white" stroke-width="1.25" stroke-miterlimit="10"/>
<path d="M18.36 24.4883L24.1414 27.9714" stroke="white" stroke-width="1.25" stroke-miterlimit="10"/>
<path d="M15.8064 30.6797L18.36 24.4883" stroke="white" stroke-width="1.25" stroke-miterlimit="10"/>
<path d="M13.1767 24.4639L15.8064 30.6798" stroke="white" stroke-width="1.25" stroke-miterlimit="10"/>
<path d="M7.47174 27.9714L13.1772 24.4639" stroke="white" stroke-width="1.25" stroke-miterlimit="10"/>
<path d="M8.99797 21.3972L7.47174 27.9714" stroke="white" stroke-width="1.25" stroke-miterlimit="10"/>
<path d="M2.32031 20.8816L8.99765 21.3972" stroke="white" stroke-width="1.25" stroke-miterlimit="10"/>
<path d="M7.41987 16.4585L2.32031 20.8813" stroke="white" stroke-width="1.25" stroke-miterlimit="10"/>
<path d="M2.32031 12.1184L7.41987 16.4587" stroke="white" stroke-width="1.25" stroke-miterlimit="10"/>
<path d="M9.04542 11.5371L2.32031 12.1185" stroke="white" stroke-width="1.25" stroke-miterlimit="10"/>
<path d="M7.47174 5.02856L9.04573 11.5371" stroke="white" stroke-width="1.25" stroke-miterlimit="10"/>
<path d="M13.2545 8.51164L7.47174 5.02856" stroke="white" stroke-width="1.25" stroke-miterlimit="10"/>
<path d="M15.8069 2.32031L13.2545 8.51172" stroke="white" stroke-width="1.25" stroke-miterlimit="10"/>
</svg>
