<svg width="31" height="30" viewBox="0 0 31 30" fill="none" xmlns="http://www.w3.org/2000/svg">
<path fill-rule="evenodd" clip-rule="evenodd" d="M0.760864 14.7391C0.760864 22.8793 7.3598 29.4783 15.5 29.4783C23.6402 29.4783 30.2391 22.8793 30.2391 14.7391C30.2391 6.59893 23.6402 0 15.5 0C7.3598 0 0.760864 6.59893 0.760864 14.7391ZM12.7979 21.4946L13.0486 17.7375L13.0484 17.7373L19.883 11.5696C20.183 11.3034 19.8175 11.1736 19.4193 11.415L10.9845 16.7365L7.34112 15.5993C6.55431 15.3584 6.54866 14.8177 7.51777 14.429L21.7152 8.95454C22.3637 8.66015 22.9895 9.11028 22.742 10.1027L20.3242 21.4965C20.1553 22.3061 19.6661 22.4998 18.9883 22.1258L15.3052 19.4046L13.5348 21.1261C13.5292 21.1315 13.5237 21.1369 13.5182 21.1423C13.3202 21.3351 13.1563 21.4946 12.7979 21.4946Z" fill="white"/>
</svg>
