<svg width="30" height="30" viewBox="0 0 30 30" fill="none" xmlns="http://www.w3.org/2000/svg">
<path fill-rule="evenodd" clip-rule="evenodd" d="M14.7391 0C6.59893 0 0 6.59893 0 14.7391C0 22.8793 6.59893 29.4783 14.7391 29.4783C22.8793 29.4783 29.4783 22.8793 29.4783 14.7391C29.4783 6.59893 22.8793 0 14.7391 0ZM14.3286 12.4901L14.2977 11.9801C14.2049 10.6582 15.0194 9.45087 16.3081 8.9825C16.7823 8.81596 17.5865 8.79515 18.1123 8.94086C18.3185 9.00331 18.7103 9.21148 18.9886 9.39883L19.4938 9.7423L20.0505 9.56536C20.3598 9.47169 20.7722 9.31556 20.9578 9.21148C21.133 9.1178 21.2877 9.06576 21.2877 9.09699C21.2877 9.27393 20.9062 9.87761 20.5866 10.2107C20.1536 10.6791 20.2773 10.7207 21.1537 10.4084C21.6795 10.2315 21.6898 10.2315 21.5867 10.4293C21.5248 10.5333 21.2052 10.8976 20.865 11.2307C20.2876 11.8031 20.2567 11.8656 20.2567 12.3444C20.2567 13.0834 19.9062 14.6238 19.5557 15.4669C18.9061 17.0489 17.5143 18.683 16.1225 19.5053C14.1637 20.6606 11.5553 20.9521 9.35934 20.2755C8.62735 20.0465 7.36957 19.4637 7.36957 19.3596C7.36957 19.3284 7.75102 19.2867 8.21496 19.2763C9.18408 19.2555 10.1532 18.9849 10.978 18.5061L11.5347 18.173L10.8955 17.9545C9.98823 17.6422 9.17377 16.924 8.96757 16.2475C8.90571 16.0289 8.92633 16.0185 9.50368 16.0185L10.1016 16.0081L9.59646 15.7687C8.9985 15.4669 8.45209 14.9569 8.18403 14.4365C7.98815 14.0618 7.74072 13.1146 7.81288 13.0417C7.8335 13.0105 8.05001 13.073 8.29744 13.1562C9.00881 13.4164 9.1016 13.354 8.68921 12.9168C7.91598 12.1258 7.67886 10.9497 8.05001 9.83598L8.22527 9.33638L8.90571 10.0129C10.2975 11.3764 11.9368 12.1883 13.8131 12.4276L14.3286 12.4901Z" fill="white"/>
</svg>
