<svg width="30" height="30" viewBox="0 0 30 30" fill="none" xmlns="http://www.w3.org/2000/svg">
<path fill-rule="evenodd" clip-rule="evenodd" d="M15.2609 0C7.12066 0 0.521729 6.59893 0.521729 14.7391C0.521729 22.8793 7.12066 29.4783 15.2609 29.4783C23.4011 29.4783 30 22.8793 30 14.7391C30 6.59893 23.4011 0 15.2609 0ZM7.59751 12.2076H10.9377V22.2436H7.59751V12.2076ZM11.1577 9.10307C11.136 8.11905 10.4323 7.36957 9.28967 7.36957C8.147 7.36957 7.39997 8.11905 7.39997 9.10307C7.39997 10.0667 8.12493 10.8378 9.24631 10.8378H9.26766C10.4323 10.8378 11.1577 10.0667 11.1577 9.10307ZM19.1379 11.9719C21.336 11.9719 22.9838 13.4066 22.9838 16.4892L22.9836 22.2436H19.6436V16.8743C19.6436 15.5257 19.1602 14.6054 17.9511 14.6054C17.0282 14.6054 16.4786 15.2258 16.2372 15.825C16.1489 16.0398 16.1272 16.339 16.1272 16.6389V22.2438H12.7866C12.7866 22.2438 12.8306 13.1496 12.7866 12.2079H16.1272V13.6294C16.5705 12.946 17.3645 11.9719 19.1379 11.9719Z" fill="white"/>
</svg>
