<svg xmlns="http://www.w3.org/2000/svg" viewBox="0 0 66.4 55.14"><defs><style>.cls-1{fill:#827cf7;}.cls-2{fill:#bdb8ff;}.cls-3{fill:#fff;}</style></defs><title>Lumen-1</title><g id="Layer_2" data-name="Layer 2"><g id="Layer_1-2" data-name="Layer 1"><circle class="cls-1" cx="35.83" cy="27.57" r="27.57"/><path d="M65.17,23.78H53.6a1.22,1.22,0,1,1,0-2.44H65.17a1.22,1.22,0,0,1,0,2.44Z"/><path d="M62.39,14.93H50.89a1.22,1.22,0,1,1,0-2.44h11.5a1.22,1.22,0,0,1,0,2.44Z"/><path d="M54.69,6.08H41.84a1.22,1.22,0,1,1,0-2.44H54.69a1.22,1.22,0,0,1,0,2.44Z"/><path d="M65.18,32.63H53.48a1.23,1.23,0,1,1,0-2.45h11.7a1.23,1.23,0,0,1,0,2.45Z"/><path d="M62.42,41.47H50.63a1.22,1.22,0,0,1,0-2.44H62.42a1.22,1.22,0,0,1,0,2.44Z"/><path d="M54.74,50.32H43.63a1.22,1.22,0,0,1,0-2.44H54.74a1.22,1.22,0,0,1,0,2.44Z"/><circle class="cls-2" cx="27.57" cy="27.57" r="27.57"/><path d="M27.39,42.75A15.14,15.14,0,1,1,42.54,27.61,15.15,15.15,0,0,1,27.39,42.75Zm0-27.84a12.7,12.7,0,1,0,12.7,12.7A12.72,12.72,0,0,0,27.39,14.91Z"/><line class="cls-3" x1="40.65" y1="13.91" x2="10.7" y2="37.39"/><path d="M10.7,38.61A1.22,1.22,0,0,1,10,36.43L39.9,13a1.22,1.22,0,0,1,1.51,1.92l-30,23.48A1.16,1.16,0,0,1,10.7,38.61Z"/><line class="cls-3" x1="43.87" y1="18.03" x2="13.91" y2="41.51"/><path d="M13.92,42.74a1.23,1.23,0,0,1-.76-2.19l30-23.48A1.22,1.22,0,1,1,44.62,19L14.67,42.47A1.21,1.21,0,0,1,13.92,42.74Z"/></g></g></svg>