<svg xmlns="http://www.w3.org/2000/svg" viewBox="0 0 76.88 46.77"><defs><style>.cls-1{fill:#480be3;}.cls-2{fill:#bdb8ff;}.cls-3{fill:#fff;}</style></defs><title>Stellar-Economy_1</title><g id="Layer_2" data-name="Layer 2"><g id="Layer_1-2" data-name="Layer 1"><rect class="cls-1" x="5.59" width="71.29" height="41.18"/><rect class="cls-2" y="5.59" width="71.29" height="41.18"/><circle class="cls-3" cx="15.45" cy="26.25" r="5.96"/><path d="M15.46,33.43a7.45,7.45,0,0,1-1.62-.18,7.18,7.18,0,1,1,8.6-5.4,7.18,7.18,0,0,1-7,5.58Zm0-11.92a4.74,4.74,0,0,0-1.06,9.36h0A4.72,4.72,0,0,0,18,30.26a4.66,4.66,0,0,0,2.1-3,4.74,4.74,0,0,0-4.61-5.8Z"/><circle class="cls-3" cx="55.88" cy="26.25" r="5.96"/><path d="M55.9,33.43a7.45,7.45,0,0,1-1.62-.18,7.19,7.19,0,1,1,1.62.18Zm0-11.92a4.75,4.75,0,0,0-4,7.26,4.73,4.73,0,0,0,3,2.1h0a4.74,4.74,0,1,0,2.11-9.24A4.81,4.81,0,0,0,55.87,21.51Z"/><path d="M35.63,27.42A5.3,5.3,0,1,1,40.46,20a1.22,1.22,0,1,1-2.22,1,2.85,2.85,0,1,0-2.61,4,1.22,1.22,0,1,1,0,2.44Z"/><path d="M35.63,35.56a5.28,5.28,0,0,1-5-3.62,1.22,1.22,0,0,1,2.32-.77,2.85,2.85,0,1,0,2.7-3.75,1.22,1.22,0,0,1,0-2.44,5.29,5.29,0,1,1,0,10.58Z"/><path d="M35.74,19.25A1.21,1.21,0,0,1,34.52,18V15.67a1.22,1.22,0,0,1,2.44,0V18A1.22,1.22,0,0,1,35.74,19.25Z"/><path d="M35.74,38.13a1.22,1.22,0,0,1-1.22-1.22V34.37a1.22,1.22,0,1,1,2.44,0v2.54A1.22,1.22,0,0,1,35.74,38.13Z"/></g></g></svg>