<svg xmlns="http://www.w3.org/2000/svg" viewBox="0 0 63.92 53.48"><defs><style>.cls-1{fill:#bdb8ff;}</style></defs><title>Intro-to-Stellar</title><g id="Layer_2" data-name="Layer 2"><g id="Layer_1-2" data-name="Layer 1"><circle class="cls-1" cx="36.77" cy="30.34" r="23.14"/><path d="M9.16,31.92A1.22,1.22,0,0,1,8,31a24.36,24.36,0,0,1,9.9-26.92,24.4,24.4,0,0,1,26.67-.26A1.22,1.22,0,1,1,43.24,5.9,21.94,21.94,0,0,0,10.33,30.36a1.21,1.21,0,0,1-.84,1.51A1.26,1.26,0,0,1,9.16,31.92Z"/><path d="M31.43,48.73A24.38,24.38,0,0,1,19,45.35a1.22,1.22,0,1,1,1.24-2.1,21.7,21.7,0,0,0,6.86,2.61,21.93,21.93,0,0,0,25.7-26.18,1.22,1.22,0,1,1,2.38-.52A24.37,24.37,0,0,1,31.43,48.73Z"/><path d="M1.22,47A1.24,1.24,0,0,1,.13,46.3a1.23,1.23,0,0,1,.54-1.64l61.48-31a1.23,1.23,0,0,1,1.64.54,1.21,1.21,0,0,1-.54,1.64L1.77,46.84A1.17,1.17,0,0,1,1.22,47Z"/><path d="M1.22,36.17A1.24,1.24,0,0,1,.13,35.5a1.22,1.22,0,0,1,.54-1.64l61.48-31a1.23,1.23,0,0,1,1.64.54A1.21,1.21,0,0,1,63.25,5L1.77,36A1.17,1.17,0,0,1,1.22,36.17Z"/></g></g></svg>