<svg xmlns="http://www.w3.org/2000/svg" viewBox="0 0 79.25 57.35"><defs><style>.cls-1{fill:#bdb8ff;}.cls-2{fill:#480be3;}.cls-3{fill:#827cf7;}</style></defs><title>Developer-Blog</title><g id="Layer_2" data-name="Layer 2"><g id="Layer_1-2" data-name="Layer 1"><rect class="cls-1" width="79.25" height="57.35"/><path d="M34.22,22.1H8.05a1.23,1.23,0,0,1,0-2.45H34.22a1.23,1.23,0,1,1,0,2.45Z"/><path d="M34.22,30.38H8.05a1.22,1.22,0,0,1,0-2.44H34.22a1.22,1.22,0,1,1,0,2.44Z"/><path d="M71.24,30.57H42.05a1.23,1.23,0,0,1-1.22-1.23V20.8a1.22,1.22,0,0,1,1.22-1.22H71.24a1.22,1.22,0,0,1,1.22,1.22v8.54A1.23,1.23,0,0,1,71.24,30.57Zm-28-2.45H70V22H43.28Z"/><circle cx="8.86" cy="5.51" r="2.07"/><circle cx="16.9" cy="5.51" r="2.07"/><circle cx="24.85" cy="5.51" r="2.07"/><path d="M74.61,13.42H4.76a1.23,1.23,0,1,1,0-2.45H74.61a1.23,1.23,0,0,1,0,2.45Z"/><polygon class="cls-2" points="43.12 50.88 50.66 37.89 58.25 50.88 43.12 50.88"/><path d="M15.08,51.17a1.21,1.21,0,0,1-.78-.28L7.2,45A1.31,1.31,0,0,1,6.76,44a1.24,1.24,0,0,1,.44-.94l7.05-6A1.22,1.22,0,0,1,15.83,39L9.89,44l6,5A1.23,1.23,0,0,1,16,50.74,1.21,1.21,0,0,1,15.08,51.17Z"/><path d="M31.3,51.17a1.19,1.19,0,0,1-.93-.43A1.21,1.21,0,0,1,30.51,49L36.45,44l-6-5A1.22,1.22,0,1,1,32,37.1L39.14,43a1.31,1.31,0,0,1,.44.94,1.22,1.22,0,0,1-.43.93l-7.06,6A1.19,1.19,0,0,1,31.3,51.17Z"/><path d="M20,52.26a1.27,1.27,0,0,1-.5-.1,1.23,1.23,0,0,1-.62-1.61l6-13.75a1.22,1.22,0,1,1,2.24,1l-6,13.74A1.22,1.22,0,0,1,20,52.26Z"/><polygon class="cls-3" points="71.14 37.91 63.66 37.91 59.92 44.39 63.66 50.87 71.14 50.87 74.88 44.39 71.14 37.91"/></g></g></svg>