<svg xmlns="http://www.w3.org/2000/svg" viewBox="0 0 70.7 42.71"><defs><style>.cls-1{fill:#bdb8ff;}</style></defs><title>Account-Viewer</title><g id="Layer_2" data-name="Layer 2"><g id="Layer_1-2" data-name="Layer 1"><circle class="cls-1" cx="35.33" cy="21.33" r="12.33"/><path d="M35.5,42.71l-1.09,0C14.51,42,1,22.85.46,22L0,21.37l.43-.68C1,19.81,14.2-.71,35.43,0c22,.77,34.29,19.85,34.8,20.66l.47.73-.55.68C59.19,35.78,47.54,42.71,35.5,42.71ZM3,21.31c2.56,3.37,14.9,18.37,31.54,18.94,11.4.39,22.57-6,33.18-19-2.45-3.44-14-18.16-32.34-18.81C17.64,1.81,5.43,17.78,3,21.31Z"/><path d="M35.33,29.31a8,8,0,1,1,8-8A8,8,0,0,1,35.33,29.31Zm0-13.51a5.54,5.54,0,1,0,5.54,5.53A5.54,5.54,0,0,0,35.33,15.8Z"/></g></g></svg>