<svg xmlns="http://www.w3.org/2000/svg" viewBox="0 0 54.45 65.07"><defs><style>.cls-1{fill:#bdb8ff;}.cls-2{fill:#480be3;}</style></defs><title>Documentation</title><g id="Layer_2" data-name="Layer 2"><g id="Layer_1-2" data-name="Layer 1"><path d="M53.23,65.07H5.86a1.22,1.22,0,0,1-1.22-1.22v-58A1.21,1.21,0,0,1,5.86,4.64H53.23a1.21,1.21,0,0,1,1.22,1.22v58A1.22,1.22,0,0,1,53.23,65.07ZM7.08,62.63H52V7.08H7.08Z"/><rect class="cls-1" width="47.37" height="57.99"/><path d="M40.42,18.31H7.27a1.23,1.23,0,0,1,0-2.45H40.42a1.23,1.23,0,0,1,0,2.45Z"/><path d="M31.35,10.29h-15a1.22,1.22,0,0,1,0-2.44h15a1.22,1.22,0,0,1,0,2.44Z"/><path d="M40.42,26.32H7.27a1.22,1.22,0,0,1,0-2.44H40.42a1.22,1.22,0,0,1,0,2.44Z"/><path d="M40.42,34.34H7.27a1.22,1.22,0,0,1,0-2.44H40.42a1.22,1.22,0,0,1,0,2.44Z"/><polyline class="cls-2" points="22.02 50.34 10.79 50.34 10.79 39.1"/><circle class="cls-2" cx="32.4" cy="44.76" r="5.79"/></g></g></svg>