<svg xmlns="http://www.w3.org/2000/svg" viewBox="0 0 68.61 68.51"><defs><style>.cls-1{fill:#bdb8ff;}.cls-2{fill:#827cf7;}.cls-3{fill:#480be3;}</style></defs><title>Community</title><g id="Layer_2" data-name="Layer 2"><g id="Layer_1-2" data-name="Layer 1"><path d="M34.37,67C15.48,67,.12,52,.12,33.51S15.48,0,34.37,0a34.47,34.47,0,0,1,23.9,9.51,32.89,32.89,0,0,1,10.34,24C68.61,52,53.25,67,34.37,67Zm0-64.57C16.83,2.44,2.56,16.38,2.56,33.51S16.83,64.57,34.37,64.57s31.8-13.94,31.8-31.06a30.44,30.44,0,0,0-9.59-22.23A32,32,0,0,0,34.37,2.44Z"/><path d="M34.37,21a34.47,34.47,0,0,1-23.75-9.37,1.22,1.22,0,0,1,1.67-1.77,32.07,32.07,0,0,0,22.08,8.7A32,32,0,0,0,56.62,9.63a1.22,1.22,0,1,1,1.69,1.77A34.45,34.45,0,0,1,34.37,21Z"/><path d="M12.59,59a1.19,1.19,0,0,1-.93-.43,1.22,1.22,0,0,1,.13-1.72,34.82,34.82,0,0,1,44.83-.27,1.22,1.22,0,1,1-1.57,1.87,32.39,32.39,0,0,0-41.67.26A1.24,1.24,0,0,1,12.59,59Z"/><path d="M34.32,67a1.21,1.21,0,0,1-1.22-1.22V1.47a1.22,1.22,0,1,1,2.44,0v64.3A1.22,1.22,0,0,1,34.32,67Z"/><path d="M67.2,34.84H1.43a1.22,1.22,0,0,1,0-2.44H67.2a1.22,1.22,0,1,1,0,2.44Z"/><path d="M34.23,66.88a1.3,1.3,0,0,1-.57-.14,38.23,38.23,0,0,1-18.1-33C15.56,13.15,33,.75,33.79.23a1.23,1.23,0,0,1,1.7.31,1.22,1.22,0,0,1-.31,1.7C35,2.36,18,14.45,18,33.78a35.74,35.74,0,0,0,16.81,30.8,1.24,1.24,0,0,1,.5,1.66A1.22,1.22,0,0,1,34.23,66.88Z"/><path d="M34.72,66.88a1.22,1.22,0,0,1-.58-2.3A35.74,35.74,0,0,0,51,33.78c0-19.33-17-31.42-17.19-31.54a1.22,1.22,0,0,1,1.39-2c.75.52,18.24,12.92,18.24,33.55a38.26,38.26,0,0,1-18.1,33A1.3,1.3,0,0,1,34.72,66.88Z"/><ellipse class="cls-1" cx="63.51" cy="49.44" rx="3.78" ry="3.69"/><ellipse class="cls-1" cx="20.71" cy="4.03" rx="3.78" ry="3.69"/><ellipse class="cls-1" cx="25.38" cy="33.5" rx="3.78" ry="3.69"/><ellipse class="cls-2" cx="57.37" cy="10.69" rx="3.78" ry="3.69"/><ellipse class="cls-2" cx="4.22" cy="46.62" rx="3.78" ry="3.69"/><ellipse class="cls-3" cx="3.78" cy="21.47" rx="3.78" ry="3.69"/><ellipse class="cls-3" cx="34.36" cy="64.81" rx="3.78" ry="3.69"/><ellipse class="cls-3" cx="51.09" cy="24.65" rx="3.78" ry="3.69"/></g></g></svg>