<svg xmlns="http://www.w3.org/2000/svg" viewBox="0 0 47.02 85.72"><defs><style>.cls-1{fill:#7b75ef;}.cls-2{fill:#bdb8ff;}.cls-3{fill:#fff;}</style></defs><title>Transaction-Explorer</title><g id="Layer_2" data-name="Layer 2"><g id="Layer_1-2" data-name="Layer 1"><path d="M23.51,58.46a1.22,1.22,0,0,1-1.22-1.22V47a1.22,1.22,0,1,1,2.44,0V57.24A1.21,1.21,0,0,1,23.51,58.46Z"/><path class="cls-1" d="M28.45,56.72V80.78a5,5,0,0,1-4.94,4.94h0a5,5,0,0,1-4.94-4.94V56.72Z"/><circle class="cls-2" cx="23.51" cy="23.51" r="23.51"/><circle class="cls-3" cx="23.51" cy="23.51" r="14.42"/><path d="M23.51,39.15A15.64,15.64,0,1,1,39.15,23.51,15.66,15.66,0,0,1,23.51,39.15Zm0-28.83a13.2,13.2,0,1,0,13.2,13.19A13.21,13.21,0,0,0,23.51,10.32Z"/></g></g></svg>