<svg xmlns="http://www.w3.org/2000/svg" viewBox="0 0 73.17 65.97"><defs><style>.cls-1{fill:#bdb8ff;}.cls-2{fill:#827cf7;}.cls-3{fill:#480be3;}.cls-4{fill:#a28fff;}</style></defs><title>Kelp</title><g id="Layer_2" data-name="Layer 2"><g id="Layer_1-2" data-name="Layer 1"><rect class="cls-1" x="10.48" y="34.69" width="11.77" height="31.28"/><rect class="cls-2" x="26.22" y="20.2" width="11.77" height="45.77"/><rect class="cls-3" x="41.96" y="40.79" width="11.77" height="25.17"/><rect class="cls-4" x="57.7" y="33.54" width="11.77" height="32.42"/><path d="M49.58,32.56a1,1,0,0,1-.24,0,1.22,1.22,0,0,1-.84-.62L33.39,3.45,15.05,26.81a1.2,1.2,0,0,1-1,.47l-12.87,0A1.21,1.21,0,0,1,0,26.09a1.23,1.23,0,0,1,1.22-1.23l12.28,0L32.63.47a1.23,1.23,0,0,1,2,.18L50,29.45,69.61,13.32a1.22,1.22,0,1,1,1.55,1.88L50.36,32.29A1.23,1.23,0,0,1,49.58,32.56Z"/><path d="M69.91,21.37a1.4,1.4,0,0,1-.34-.05,1.21,1.21,0,0,1-.83-1.51l1.55-5.43-5.72.43a1.2,1.2,0,0,1-1.31-1.12,1.22,1.22,0,0,1,1.12-1.31l7.47-.57a1.22,1.22,0,0,1,1,.45,1.2,1.2,0,0,1,.23,1.11l-2,7.11A1.22,1.22,0,0,1,69.91,21.37Z"/></g></g></svg>