<svg xmlns="http://www.w3.org/2000/svg" viewBox="0 0 78.5 78.5"><defs><style>.cls-1{fill:#480be3;}.cls-2{fill:#fed798;}.cls-3{fill:#827cf7;}</style></defs><title>Ecosystem</title><g id="Layer_2" data-name="Layer 2"><g id="Layer_1-2" data-name="Layer 1"><path d="M24,43.64a1.22,1.22,0,0,1-1.17-.89A16.6,16.6,0,0,1,47.75,24.23a1.22,1.22,0,1,1-1.32,2.06,14.16,14.16,0,0,0-15.49.15,14.13,14.13,0,0,0-5.76,15.64,1.23,1.23,0,0,1-.84,1.51A1.33,1.33,0,0,1,24,43.64Z"/><path d="M38.83,54.81a16.91,16.91,0,0,1-8.47-2.3,1.23,1.23,0,0,1-.43-1.68,1.22,1.22,0,0,1,1.67-.43,14.15,14.15,0,0,0,21-15.22,1.23,1.23,0,0,1,.94-1.45,1.21,1.21,0,0,1,1.45.93A16.61,16.61,0,0,1,38.83,54.81Z"/><path d="M18.73,53.64A1.21,1.21,0,0,1,17.64,53a1.23,1.23,0,0,1,.54-1.64L59,30.7a1.22,1.22,0,1,1,1.1,2.18L19.28,53.5A1.21,1.21,0,0,1,18.73,53.64Z"/><path d="M18.73,46.46a1.22,1.22,0,0,1-.55-2.31L59,23.52a1.22,1.22,0,1,1,1.1,2.18L19.28,46.33A1.34,1.34,0,0,1,18.73,46.46Z"/><path d="M6.54,73.24a1.23,1.23,0,0,1-.86-2.09l5.62-5.63a1.24,1.24,0,0,1,1.73,0,1.22,1.22,0,0,1,0,1.73L7.4,72.88A1.2,1.2,0,0,1,6.54,73.24Z"/><path d="M66.29,13.48a1.24,1.24,0,0,1-.86-.35,1.22,1.22,0,0,1,0-1.73l5.63-5.63A1.22,1.22,0,0,1,72.78,7.5l-5.62,5.63A1.27,1.27,0,0,1,66.29,13.48Z"/><path d="M12.17,13.48a1.25,1.25,0,0,1-.87-.35L5.68,7.5A1.22,1.22,0,0,1,7.4,5.77L13,11.4a1.22,1.22,0,0,1,0,1.73A1.24,1.24,0,0,1,12.17,13.48Z"/><path d="M71.92,73.24a1.2,1.2,0,0,1-.86-.36l-5.63-5.63a1.22,1.22,0,0,1,0-1.73,1.24,1.24,0,0,1,1.73,0l5.62,5.63a1.23,1.23,0,0,1-.86,2.09Z"/><circle class="cls-1" cx="39.25" cy="4.59" r="4.59"/><circle class="cls-1" cx="39.25" cy="73.91" r="4.59"/><circle class="cls-2" cx="73.91" cy="39.25" r="4.59"/><circle class="cls-2" cx="4.59" cy="39.25" r="4.59"/><circle class="cls-3" cx="73.91" cy="39.25" r="4.59"/><circle class="cls-3" cx="4.59" cy="39.25" r="4.59"/></g></g></svg>