<svg xmlns="http://www.w3.org/2000/svg" viewBox="0 0 87.52 47.66"><defs><style>.cls-1{fill:#a28fff;}.cls-2{fill:#480be3;}.cls-3{fill:#bdb8ff;}</style></defs><title>SDF</title><g id="Layer_2" data-name="Layer 2"><g id="Layer_1-2" data-name="Layer 1"><circle class="cls-1" cx="19.83" cy="9.46" r="9.46"/><path d="M1.22,40.9H1.1A1.22,1.22,0,0,1,0,39.55a19.87,19.87,0,0,1,36.57-8.88,1.2,1.2,0,0,1-.37,1.68A1.23,1.23,0,0,1,34.52,32,17.43,17.43,0,0,0,2.44,39.79,1.23,1.23,0,0,1,1.22,40.9Z"/><circle class="cls-2" cx="67.69" cy="9.46" r="9.46"/><path d="M86.29,40.9a1.22,1.22,0,0,1-1.21-1.11,17.43,17.43,0,0,0-31.8-8.24,1.22,1.22,0,1,1-2-1.38,19.88,19.88,0,0,1,36.25,9.38,1.22,1.22,0,0,1-1.09,1.34Z"/><circle class="cls-3" cx="44.01" cy="16.22" r="9.46"/><path d="M25.41,47.66h-.12a1.24,1.24,0,0,1-1.1-1.34,19.9,19.9,0,0,1,39.64,0,1.22,1.22,0,0,1-1.09,1.34,1.24,1.24,0,0,1-1.34-1.1,17.46,17.46,0,0,0-34.78,0A1.22,1.22,0,0,1,25.41,47.66Z"/></g></g></svg>