<svg xmlns="http://www.w3.org/2000/svg" viewBox="0 0 77.91 74.44"><defs><style>.cls-1{fill:#282828;}.cls-2{fill:#480be3;}.cls-3{fill:#bdb8ff;}.cls-4{fill:#827cf7;}</style></defs><title>API-Reference</title><g id="Layer_2" data-name="Layer 2"><g id="Layer_1-2" data-name="Layer 1"><path class="cls-1" d="M9.39,18.77a9.39,9.39,0,1,1,9.38-9.38A9.4,9.4,0,0,1,9.39,18.77Zm0-16.33a6.95,6.95,0,1,0,6.94,7A7,7,0,0,0,9.39,2.44Z"/><path class="cls-1" d="M72.09,74.44H62.9a1.22,1.22,0,0,1-1.06-.61l-4.6-8a1.21,1.21,0,0,1,0-1.22l4.6-8a1.22,1.22,0,0,1,1.06-.61h9.19a1.22,1.22,0,0,1,1.06.61l4.6,8a1.21,1.21,0,0,1,0,1.22l-4.6,8A1.22,1.22,0,0,1,72.09,74.44ZM63.6,72h7.79l3.89-6.75-3.89-6.74H63.6l-3.89,6.74Z"/><rect class="cls-2" x="59.72" y="1.21" width="15.27" height="15.27"/><polygon class="cls-3" points="1.23 73.21 9.12 57.15 17.33 73.21 1.23 73.21"/><path class="cls-1" d="M37.33,55.54a1.23,1.23,0,0,1-1.22-1.23V51.44a1.22,1.22,0,0,1,2.44,0v2.87A1.23,1.23,0,0,1,37.33,55.54Z"/><path class="cls-1" d="M37.33,25a1.22,1.22,0,0,1-1.22-1.22V20.9a1.22,1.22,0,0,1,2.44,0v2.88A1.22,1.22,0,0,1,37.33,25Z"/><path class="cls-1" d="M23.5,38.83H20.62a1.22,1.22,0,0,1,0-2.44H23.5a1.22,1.22,0,0,1,0,2.44Z"/><path class="cls-1" d="M54,38.83H51.16a1.22,1.22,0,0,1,0-2.44H54a1.22,1.22,0,1,1,0,2.44Z"/><path class="cls-1" d="M27.55,29.05a1.2,1.2,0,0,1-.86-.36l-8.16-8.16a1.22,1.22,0,0,1,1.73-1.72L28.41,27a1.23,1.23,0,0,1-.86,2.09Z"/><path class="cls-1" d="M55.28,56.78a1.21,1.21,0,0,1-.86-.36l-8.16-8.16A1.22,1.22,0,0,1,48,46.54l8.15,8.15a1.22,1.22,0,0,1,0,1.73A1.2,1.2,0,0,1,55.28,56.78Z"/><path class="cls-1" d="M47.12,29.05A1.23,1.23,0,0,1,46.26,27l8.16-8.15a1.22,1.22,0,0,1,1.72,1.72L48,28.69A1.24,1.24,0,0,1,47.12,29.05Z"/><path class="cls-1" d="M19.39,56.78a1.23,1.23,0,0,1-.86-2.09l8.16-8.15a1.22,1.22,0,0,1,1.72,1.72l-8.15,8.16A1.22,1.22,0,0,1,19.39,56.78Z"/><circle class="cls-4" cx="37.55" cy="37.16" r="6.93"/></g></g></svg>