<svg xmlns="http://www.w3.org/2000/svg" viewBox="0 0 60.62 87.43"><defs><style>.cls-1{fill:#bdb8ff;}.cls-2{fill:#480be3;}</style></defs><title>Infrastructure</title><g id="Layer_2" data-name="Layer 2"><g id="Layer_1-2" data-name="Layer 1"><path d="M29.88,33.25A1.22,1.22,0,0,1,28.66,32V21a1.22,1.22,0,0,1,2.44,0V32A1.22,1.22,0,0,1,29.88,33.25Z"/><path d="M29.88,67.44a1.22,1.22,0,0,1-1.22-1.22v-11a1.22,1.22,0,0,1,2.44,0v11A1.22,1.22,0,0,1,29.88,67.44Z"/><rect class="cls-1" x="17.54" y="44.35" width="25.54" height="60.62" transform="translate(104.97 44.35) rotate(90)"/><circle class="cls-2" cx="49.59" cy="74.66" r="4.86"/><path d="M15.79,75.88H7a1.22,1.22,0,0,1,0-2.44h8.78a1.22,1.22,0,1,1,0,2.44Z"/><rect class="cls-1" x="17.54" y="-17.54" width="25.54" height="60.62" transform="translate(43.08 -17.54) rotate(90)"/><circle class="cls-2" cx="49.59" cy="12.77" r="4.86"/><path d="M15.79,14H7a1.22,1.22,0,1,1,0-2.44h8.78a1.22,1.22,0,0,1,0,2.44Z"/><rect class="cls-1" x="17.54" y="13.25" width="25.54" height="60.62" transform="translate(73.87 13.25) rotate(90)"/><circle class="cls-2" cx="49.59" cy="43.56" r="4.86"/><path d="M15.79,44.78H7a1.22,1.22,0,0,1,0-2.44h8.78a1.22,1.22,0,1,1,0,2.44Z"/></g></g></svg>