<svg xmlns="http://www.w3.org/2000/svg" viewBox="0 0 66.53 73.57"><defs><style>.cls-1{fill:#827cf7;}.cls-2{fill:#fff;}.cls-3{fill:#480be3;}</style></defs><title>Platform</title><g id="Layer_2" data-name="Layer 2"><g id="Layer_1-2" data-name="Layer 1"><polygon class="cls-1" points="65.31 55.77 33.27 73.57 1.22 55.77 33.27 38.8 65.31 55.77"/><polygon class="cls-2" points="65.31 44.52 33.27 62.33 1.22 44.52 33.27 27.56 65.31 44.52"/><path d="M33.27,63.55a1.17,1.17,0,0,1-.6-.16l-32-17.8A1.24,1.24,0,0,1,0,44.51a1.21,1.21,0,0,1,.65-1.07l32-17a1.23,1.23,0,0,1,1.15,0l32,17a1.22,1.22,0,0,1,0,2.15l-32,17.8A1.16,1.16,0,0,1,33.27,63.55Zm-29.49-19L33.27,60.93,62.75,44.55,33.27,28.94Z"/><polygon class="cls-3" points="65.31 31.15 33.27 48.95 1.22 31.15 33.27 14.18 65.31 31.15"/><polygon class="cls-2" points="65.31 18.19 33.27 35.99 1.22 18.19 33.27 1.22 65.31 18.19"/><path d="M33.27,37.21a1.27,1.27,0,0,1-.6-.15l-32-17.8A1.25,1.25,0,0,1,0,18.18a1.21,1.21,0,0,1,.65-1.07l32-17a1.23,1.23,0,0,1,1.15,0l32,17a1.21,1.21,0,0,1,.65,1.07,1.23,1.23,0,0,1-.63,1.08l-32,17.8A1.26,1.26,0,0,1,33.27,37.21Zm-29.49-19L33.27,34.59,62.75,18.21,33.27,2.6Z"/></g></g></svg>