<svg xmlns="http://www.w3.org/2000/svg" viewBox="0 0 67.41 64.05"><defs><style>.cls-1{fill:#bdb8ff;}.cls-2{fill:#480be3;}.cls-3{fill:#827cf7;}</style></defs><title>Node Explorer</title><g id="Layer_2" data-name="Layer 2"><g id="Layer_1-2" data-name="Layer 1"><path d="M4.09,38.93a1.26,1.26,0,0,1-.87-.36A1.24,1.24,0,0,1,3,37.27l9.23-24.51a1.22,1.22,0,0,1,.76-.73L40.88,2.77a1.22,1.22,0,0,1,1.49,1.67l-11,23.89a1.23,1.23,0,0,1-.68.63L4.52,38.85A1.31,1.31,0,0,1,4.09,38.93ZM14.26,14.17,6.18,35.61l23.15-8.76L39,6Z"/><path d="M47.46,42.44a1.24,1.24,0,0,1-.75-.26L29.48,28.78A1.22,1.22,0,1,1,31,26.86L48.21,40.25A1.22,1.22,0,0,1,48.42,42,1.21,1.21,0,0,1,47.46,42.44Z"/><path d="M14.79,61.58a1.22,1.22,0,0,1-1.1-1.75L29.12,27.3a1.23,1.23,0,0,1,1-.7L60.88,25,40.4,4.8a1.22,1.22,0,1,1,1.72-1.74L64.47,25.13a1.17,1.17,0,0,1,.36.88,1.23,1.23,0,0,1-.38.88l0,0a1.07,1.07,0,0,1-.16.14l-16,15a1.63,1.63,0,0,1-.22.17L15.41,61.41A1.23,1.23,0,0,1,14.79,61.58ZM31,29,17.6,57.3,46.72,40.23,60.24,27.5Z"/><path d="M14.79,61.58a1.22,1.22,0,0,1,0-2.44l41-.06,6.38-33a1.21,1.21,0,0,1,1.43-1,1.22,1.22,0,0,1,1,1.43L58,60.53a1.23,1.23,0,0,1-1.2,1l-42,.06Z"/><path d="M56.56,61.89a1.23,1.23,0,0,1-1.11-.7l-9.1-19.46a1.22,1.22,0,0,1,.59-1.62,1.21,1.21,0,0,1,1.62.59l9.1,19.45a1.23,1.23,0,0,1-.59,1.63A1.34,1.34,0,0,1,56.56,61.89Z"/><path d="M14.8,61.58a1.23,1.23,0,0,1-1.11-.7L3,38.22a1.23,1.23,0,0,1,.59-1.62,1.22,1.22,0,0,1,1.62.58L15.9,59.84a1.22,1.22,0,0,1-.58,1.62A1.23,1.23,0,0,1,14.8,61.58Z"/><path d="M30.3,28.84a1.19,1.19,0,0,1-.79-.29L12.39,14.12a1.23,1.23,0,0,1-.14-1.73A1.22,1.22,0,0,1,14,12.25L31.09,26.69a1.23,1.23,0,0,1,.15,1.72A1.26,1.26,0,0,1,30.3,28.84Z"/><circle class="cls-1" cx="47.07" cy="41.02" r="4.2"/><circle class="cls-1" cx="4.2" cy="37.65" r="4.2"/><circle class="cls-2" cx="15.24" cy="59.85" r="4.2"/><circle class="cls-1" cx="41.05" cy="4.2" r="4.2"/><circle class="cls-1" cx="56.38" cy="59.85" r="4.2"/><circle class="cls-2" cx="63.21" cy="26.17" r="4.2"/><circle class="cls-3" cx="13.18" cy="13.18" r="4.2"/><circle class="cls-3" cx="31.47" cy="28.78" r="4.2"/></g></g></svg>