<svg xmlns="http://www.w3.org/2000/svg" viewBox="0 0 58.75 79.29"><defs><style>.cls-1{fill:#827cf7;}.cls-2{fill:#480be3;}.cls-3{fill:#bdb8ff;fill-rule:evenodd;}</style></defs><title>Laboratory</title><g id="Layer_2" data-name="Layer 2"><g id="Layer_1-2" data-name="Layer 1"><circle class="cls-1" cx="26.84" cy="16.57" r="5.02"/><path d="M31,79.29c-11.09,0-22.68-.18-25.82-.57A5.47,5.47,0,0,1,1.55,76.5,7.75,7.75,0,0,1,.07,70.85a12,12,0,0,1,1.8-4.44l2.36-4.09C5.56,60,7,57.62,8.74,54.73c2.83-4.69,5.81-9.46,8.84-14.17V21.27a1.22,1.22,0,0,1,2.44,0V40.92a1.21,1.21,0,0,1-.19.67c-3.09,4.78-6.12,9.63-9,14.4-1.74,2.88-3.17,5.28-4.48,7.55L4,67.62a10.19,10.19,0,0,0-1.49,3.57,5.34,5.34,0,0,0,1,3.83,3.11,3.11,0,0,0,2,1.28c5.77.72,44.1.66,47.76.14,1.87-.27,3.34-2.77,3-5.14a9.9,9.9,0,0,0-1.42-3.49l-.24-.43q-1-1.77-2-3.54l-.1-.18c-1.57-2.74-3-5.21-4.44-7.57-2.78-4.65-5.69-9.36-8.9-14.39a1.24,1.24,0,0,1-.19-.66V21.26a1.22,1.22,0,1,1,2.44,0V40.69c3.15,4.94,6,9.57,8.74,14.15,1.43,2.36,2.89,4.85,4.47,7.6l.1.18c.69,1.19,1.38,2.38,2,3.57l.24.43A12.19,12.19,0,0,1,58.69,71c.48,3.72-1.9,7.4-5.11,7.87C51.68,79.13,41.56,79.29,31,79.29Z"/><circle class="cls-2" cx="35.96" cy="3.95" r="3.95"/><path class="cls-3" d="M46.84,62.78q-1.58-2.53-3.21-5C42.45,56,41.22,54.19,40,52.4H18.89c-1.2,1.77-2.43,3.52-3.61,5.3S13.11,61,12,62.7l-1.56,2.47A7.78,7.78,0,0,0,9.14,68a3.77,3.77,0,0,0,2.91,4.29c4.16.47,31.78.47,34.71.09a3.78,3.78,0,0,0,2.94-4.3,7.72,7.72,0,0,0-1.31-2.87C47.88,64.42,47.36,63.6,46.84,62.78Z"/><path d="M44.2,21.71H14.78a1.22,1.22,0,1,1,0-2.44H44.2a1.22,1.22,0,1,1,0,2.44Z"/><path d="M20.13,49.7H14.38a1.23,1.23,0,0,1,0-2.45h5.75a1.23,1.23,0,0,1,0,2.45Z"/><path d="M20.06,58.11H9a1.22,1.22,0,0,1,0-2.44h11a1.22,1.22,0,1,1,0,2.44Z"/><path d="M11.92,66.55H4.18a1.22,1.22,0,1,1,0-2.44h7.74a1.22,1.22,0,1,1,0,2.44Z"/></g></g></svg>