<?xml version="1.0" encoding="utf-8"?>
<!-- Generator: Adobe Illustrator 24.1.0, SVG Export Plug-In . SVG Version: 6.00 Build 0)  -->
<svg version="1.1" id="Layer_1" xmlns="http://www.w3.org/2000/svg" xmlns:xlink="http://www.w3.org/1999/xlink" x="0px" y="0px"
	 viewBox="0 0 57.7 85.3" style="enable-background:new 0 0 57.7 85.3;" xml:space="preserve">
<style type="text/css">
	.st0{fill:#480BE3;}
	.st1{fill:#9285F9;}
	.st2{fill:#BDB8FF;}
	.st3{fill:#FFFFFF;}
	.st4{fill:#282828;}
</style>
<rect x="10.2" y="21.9" class="st0" width="47.5" height="63.3"/>
<rect x="5.1" y="16.8" class="st1" width="47.6" height="63.4"/>
<rect x="0.2" y="11.9" class="st2" width="47.6" height="63.4"/>
<g>
	<g>
		<circle class="st3" cx="24.1" cy="12.2" r="11"/>
		<path d="M24.1,24.4c-6.7,0-12.2-5.5-12.2-12.2S17.3,0.1,24.1,0.1s12.2,5.5,12.2,12.2S30.8,24.4,24.1,24.4z M24.1,2.5
			c-5.4,0-9.8,4.4-9.8,9.8c0,5.4,4.4,9.8,9.8,9.8s9.8-4.4,9.8-9.8C33.8,6.9,29.4,2.5,24.1,2.5z"/>
	</g>
	<g>
		<path d="M23.3,17.9c-0.3,0-0.6-0.1-0.8-0.3l-3.3-3c-0.5-0.5-0.5-1.2-0.1-1.7c0.5-0.5,1.2-0.5,1.7-0.1l2.2,2l4.5-7.2
			c0.4-0.6,1.1-0.7,1.7-0.4c0.6,0.4,0.7,1.1,0.4,1.7l-5.3,8.4c-0.2,0.3-0.5,0.5-0.9,0.6C23.4,17.9,23.3,17.9,23.3,17.9z"/>
	</g>
</g>
<g>
	<g>
		<path class="st4" d="M36.9,44.5H11.2c-0.7,0-1.2-0.5-1.2-1.2s0.5-1.2,1.2-1.2h25.7c0.7,0,1.2,0.5,1.2,1.2S37.6,44.5,36.9,44.5z"/>
	</g>
	<g>
		<path class="st4" d="M36.9,34.5H11.2c-0.7,0-1.2-0.5-1.2-1.2s0.5-1.2,1.2-1.2h25.7c0.7,0,1.2,0.5,1.2,1.2S37.6,34.5,36.9,34.5z"/>
	</g>
	<g>
		<path class="st4" d="M36.9,54.5H11.2c-0.7,0-1.2-0.5-1.2-1.2s0.5-1.2,1.2-1.2h25.7c0.7,0,1.2,0.5,1.2,1.2S37.6,54.5,36.9,54.5z"/>
	</g>
	<g>
		<path class="st4" d="M36.9,64.4H11.2c-0.7,0-1.2-0.5-1.2-1.2s0.5-1.2,1.2-1.2h25.7c0.7,0,1.2,0.5,1.2,1.2S37.6,64.4,36.9,64.4z"/>
	</g>
</g>
</svg>
