<?xml version="1.0" encoding="UTF-8"?>
<svg width="24px" height="24px" viewBox="0 0 24 24" version="1.1" xmlns="http://www.w3.org/2000/svg" xmlns:xlink="http://www.w3.org/1999/xlink">
    <!-- Generator: Sketch 63.1 (92452) - https://sketch.com -->
    <title>Artboard</title>
    <desc>Created with Sketch.</desc>
    <g id="Artboard" stroke="none" stroke-width="1" fill="none" fill-rule="evenodd">
        <g id="icons8-geography" fill="#FFFFFF" fill-rule="nonzero">
            <path d="M12,0 C5.3844276,0 0,5.3844276 0,12 C0,18.615572 5.3844276,24 12,24 C18.615572,24 24,18.615572 24,12 C24,5.3844276 18.615572,0 12,0 Z M12,2 C12.393114,2 12.800441,2.1628391 13.265625,2.5957031 C13.730809,3.0285672 14.212234,3.7266811 14.625,4.6347656 C14.812704,5.0477144 14.982726,5.508777 15.138672,6 L8.861328,6 C9.017274,5.508777 9.187296,5.0477144 9.375,4.6347656 C9.787766,3.7266811 10.269191,3.0285672 10.734375,2.5957031 C11.199559,2.1628391 11.606886,2 12,2 Z M8.087891,2.7929688 C7.899683,3.1138664 7.718756,3.447642 7.554688,3.8085938 C7.251886,4.4747556 6.9933625,5.2129637 6.7734375,6 L4.0058594,6 C5.0554012,4.6023634 6.4563853,3.484851 8.087891,2.7929688 Z M15.912109,2.7929688 C17.543615,3.484851 18.944599,4.6023634 19.994141,6 L17.226562,6 C17.006637,5.2129637 16.748113,4.4747556 16.445312,3.8085938 C16.281244,3.447642 16.100317,3.1138664 15.912109,2.7929688 Z M2.8339844,8 L6.3300781,8 C6.1691649,8.951984 6.0640184,9.955243 6.0234375,11 L2.0488281,11 C2.1533985,9.941643 2.426942,8.934268 2.8339844,8 Z M8.363281,8 L15.636719,8 C15.81209,8.935164 15.930514,9.942182 15.976562,11 L8.023438,11 C8.069486,9.942182 8.18791,8.935164 8.363281,8 Z M17.669922,8 L21.166016,8 C21.573058,8.934268 21.846602,9.941643 21.951172,11 L17.976562,11 C17.935982,9.955243 17.830835,8.951984 17.669922,8 Z M2.0488281,13 L6.0234375,13 C6.0640184,14.044757 6.1691649,15.048016 6.3300781,16 L2.8339844,16 C2.426942,15.065732 2.1533985,14.058357 2.0488281,13 Z M8.023438,13 L15.976562,13 C15.930514,14.057818 15.81209,15.064836 15.636719,16 L8.363281,16 C8.18791,15.064836 8.069486,14.057818 8.023438,13 Z M17.976562,13 L21.951172,13 C21.846602,14.058357 21.573058,15.065732 21.166016,16 L17.669922,16 C17.830835,15.048016 17.935982,14.044757 17.976562,13 Z M4.0058594,18 L6.7734375,18 C6.9933625,18.787036 7.251886,19.525244 7.554688,20.191406 C7.718756,20.552358 7.899683,20.886134 8.087891,21.207031 C6.4563853,20.515149 5.0554012,19.397637 4.0058594,18 Z M8.861328,18 L15.138672,18 C14.982726,18.491223 14.812704,18.952286 14.625,19.365234 C14.212234,20.273319 13.730809,20.971433 13.265625,21.404297 C12.800441,21.837161 12.393114,22 12,22 C11.606886,22 11.199559,21.837161 10.734375,21.404297 C10.269191,20.971433 9.787766,20.273319 9.375,19.365234 C9.187296,18.952286 9.017274,18.491223 8.861328,18 Z M17.226562,18 L19.994141,18 C18.944599,19.397637 17.543615,20.515149 15.912109,21.207031 C16.100317,20.886134 16.281244,20.552358 16.445312,20.191406 C16.748113,19.525244 17.006637,18.787036 17.226562,18 Z" id="Shape"></path>
        </g>
    </g>
</svg>