<svg width="46" height="46" viewBox="0 0 46 46" fill="none" xmlns="http://www.w3.org/2000/svg">
<path d="M17.0495 36.0991C24.2566 36.0991 30.0991 30.2566 30.0991 23.0495C30.0991 15.8425 24.2566 10 17.0495 10C9.84248 10 4 15.8425 4 23.0495C4 30.2566 9.84248 36.0991 17.0495 36.0991Z" fill="#480BE3"/>
<path d="M29.8178 35.5825C36.7057 35.5825 42.2895 29.9988 42.2895 23.1108C42.2895 16.2229 36.7057 10.6391 29.8178 10.6391C22.9298 10.6391 17.346 16.2229 17.346 23.1108C17.346 29.9988 22.9298 35.5825 29.8178 35.5825Z" fill="#BDB8FF" stroke="white" stroke-width="1.19322" stroke-miterlimit="10"/>
<path d="M24.9091 12.2856C20.7365 14.2543 17.9241 18.3298 17.9241 23.1415C17.9241 27.9124 20.7519 31.9571 24.8784 33.9309C28.5652 31.6247 30.6822 27.7487 30.6822 23.0801C30.6771 18.4525 28.5346 14.602 24.9091 12.2856Z" fill="#827CF7"/>
</svg>
