<svg width="40" height="86" viewBox="0 0 40 86" fill="none" xmlns="http://www.w3.org/2000/svg">
<path d="M19.555 51.8044L19.555 1.57446" stroke="black" stroke-width="2.44" stroke-miterlimit="10" stroke-linecap="round" stroke-linejoin="round"/>
<path d="M19.555 47.9172C9.44418 47.9172 1.24768 56.1136 1.24768 66.2244C1.24768 76.3353 9.44418 84.5317 19.555 84.5317C29.6658 84.5317 37.8623 76.3353 37.8623 66.2244C37.8623 56.1136 29.6658 47.9172 19.555 47.9172Z" fill="white" stroke="black" stroke-width="2.44" stroke-miterlimit="10" stroke-linecap="round" stroke-linejoin="round"/>
<path d="M19.555 54.4158C13.0332 54.4158 7.74629 59.7027 7.74629 66.2244C7.74629 72.7462 13.0332 78.0331 19.555 78.0331C26.0767 78.0331 31.3636 72.7462 31.3636 66.2244C31.3636 59.7027 26.0767 54.4158 19.555 54.4158Z" fill="#A28FFF"/>
<path d="M19.555 24.3751H32.9107" stroke="black" stroke-width="2.44" stroke-linecap="round" stroke-linejoin="round"/>
<path d="M20.3519 8.37512H37.8623" stroke="black" stroke-width="2.44" stroke-linecap="round" stroke-linejoin="round"/>
</svg>
