<svg width="71" height="72" viewBox="0 0 71 72" fill="none" xmlns="http://www.w3.org/2000/svg">
<path d="M1.38477 27.2794V2.0531H69.3848V18.7059M69.3848 27.2794V18.7059M21.2479 18.7059H20.6467M69.3848 18.7059H20.6467M20.6467 18.7059V24.0255V27.2794" stroke="black" stroke-width="2.44" stroke-linecap="round" stroke-linejoin="round"/>
<path d="M69.3848 44.8268L69.3848 70.0531L1.38477 70.0531L1.38477 52.3004M1.38478 44.8268L1.38477 52.3004M49.5217 52.3004L50.1229 52.3004L1.38477 52.3004" stroke="black" stroke-width="2.44" stroke-linecap="round" stroke-linejoin="round"/>
<path d="M29.1841 36.053C29.1841 34.6722 28.0648 33.553 26.6841 33.553C25.3034 33.553 24.1841 34.6722 24.1841 36.053C24.1841 37.4337 25.3034 38.553 26.6841 38.553C28.0648 38.553 29.1841 37.4337 29.1841 36.053Z" fill="#9F94EB"/>
<path d="M18.1841 36.053C18.1841 34.6722 17.0648 33.553 15.6841 33.553C14.3034 33.553 13.1841 34.6722 13.1841 36.053C13.1841 37.4337 14.3034 38.553 15.6841 38.553C17.0648 38.553 18.1841 37.4337 18.1841 36.053Z" fill="#E2DEFF"/>
<circle cx="51.8789" cy="36.0531" r="5.70642" transform="rotate(-90 51.8789 36.0531)" fill="#3E1BDB"/>
<path d="M37.6725 38.3467C39.0532 38.3467 40.1725 37.2274 40.1725 35.8467C40.1725 34.466 39.0532 33.3467 37.6725 33.3467C36.2918 33.3467 35.1725 34.466 35.1725 35.8467C35.1725 37.2274 36.2918 38.3467 37.6725 38.3467Z" fill="#3E1BDB"/>
</svg>
