<svg width="57" height="47" viewBox="0 0 57 47" fill="none" xmlns="http://www.w3.org/2000/svg">
<path d="M33.1 46.2C45.8578 46.2 56.2 35.8578 56.2 23.1C56.2 10.3422 45.8578 0 33.1 0C20.3422 0 10 10.3422 10 23.1C10 35.8578 20.3422 46.2 33.1 46.2Z" fill="#BDB8FF"/>
<path d="M2.0571 28.5325C4.81182 26.4892 9.27816 26.4892 12.0329 28.5325L33 44.0854C28.2438 46.8587 21.3358 46.6192 16.9513 43.3668L2.0571 32.3187C0.647633 31.2732 0.647633 29.578 2.0571 28.5325Z" stroke="black" stroke-width="2" stroke-linejoin="round"/>
<path d="M7 2.88345C11.82 0.155286 18.8206 0.390919 23.2639 3.59033L37.6253 13.9313C39.4582 15.2512 39.4583 17.391 37.6253 18.7109C35.2382 20.4297 31.3679 20.4297 28.9808 18.7109L7 2.88345Z" stroke="black" stroke-width="2" stroke-linejoin="round"/>
<path d="M4.54021 6L34.5064 28.2647C38.8214 31.4708 39.1393 36.5221 35.4598 40L5.4936 17.7353C1.17852 14.5292 0.860736 9.47789 4.54021 6Z" stroke="black" stroke-width="2" stroke-linejoin="round"/>
</svg>
