<svg width="93" height="89" viewBox="0 0 93 89" fill="none" xmlns="http://www.w3.org/2000/svg">
<path d="M14.717 72.1471C20.9749 79.1781 31.7476 79.8048 38.7785 73.547C45.8095 67.2891 46.4362 56.5164 40.1784 49.4854C33.9205 42.4545 23.1478 41.8278 16.1168 48.0856C9.08589 54.3435 8.45916 65.1162 14.717 72.1471Z" fill="#827CF7"/>
<path d="M33.6953 65.8656C36.4857 62.3864 35.9273 57.3038 32.4481 54.5133C28.9688 51.7229 23.8863 52.2813 21.0959 55.7606C18.3055 59.2398 18.8637 64.3223 22.343 67.1128C25.8222 69.9032 30.9049 69.3448 33.6953 65.8656Z" fill="white" stroke="black" stroke-width="2" stroke-miterlimit="10" stroke-linecap="round" stroke-linejoin="round"/>
<path fill-rule="evenodd" clip-rule="evenodd" d="M39.337 25.9657C38.8913 25.4648 38.1249 25.4176 37.6209 25.8599L14.5965 46.069C14.5573 46.1028 14.5182 46.1369 14.4792 46.1711C6.47143 53.1997 5.8143 65.4815 12.9424 73.5985C20.0661 81.7103 32.322 82.6524 40.33 75.6382C40.3402 75.6298 40.3504 75.6212 40.3604 75.6124L63.6702 55.1528C64.1791 54.7061 64.2269 53.9305 63.7768 53.4248V53.4248C63.331 52.9239 62.5646 52.8767 62.0607 53.319L38.7799 73.7531C38.7694 73.7617 38.759 73.7705 38.7488 73.7795L38.735 73.7916C31.7728 79.9025 21.0442 79.1263 14.7762 71.9889C8.50827 64.8514 9.12704 54.1154 16.0893 48.0045C16.1245 47.9736 16.1598 47.9429 16.1951 47.9124C16.1951 47.9124 16.1952 47.9124 16.1952 47.9124V47.9124C16.1952 47.9124 16.1952 47.9124 16.1952 47.9124L16.2028 47.9057L39.2305 27.6937C39.7394 27.2471 39.7872 26.4715 39.337 25.9657V25.9657Z" fill="black"/>
<line x1="76.9331" y1="30.2598" x2="51.6517" y2="52.7613" stroke="black" stroke-width="2.44" stroke-linecap="round"/>
<line x1="63.7747" y1="15.4757" x2="38.4933" y2="37.9772" stroke="black" stroke-width="2.44" stroke-linecap="round"/>
<line x1="78.5672" y1="15.5575" x2="53.2857" y2="38.059" stroke="black" stroke-width="2.44" stroke-linecap="round"/>
</svg>
