<svg width="32" height="32" viewBox="0 0 32 32" fill="none" xmlns="http://www.w3.org/2000/svg">
<circle cx="16" cy="16" r="16" fill="#267DFF"/>
<path d="M19.5944 9H17.9863L16.9412 10.8124H18.8573L19.5944 9ZM23.9089 10.8124L22.8637 9H21.2559L21.9928 10.8124H23.9089ZM21.6444 10.8124L20.9075 9H19.9428L19.2057 10.8124H21.6444ZM20.961 14.4885L23.9089 11.1422H21.9928L20.961 14.4885ZM16.9412 11.1422L19.8891 14.4885L18.8573 11.1422H16.9412ZM19.2057 11.1422L20.425 15.0968L21.6444 11.1422H19.2057Z" fill="white"/>
<path d="M8.09718 19.0782C8.10682 19.0782 7.87378 18.8025 8.09718 18.6217C8.2356 18.5035 9.29241 17.5109 11.2676 15.6441C11.3723 15.5443 11.4902 15.4598 11.6181 15.3932C11.7448 15.3269 11.8854 15.2922 12.028 15.2921H17.6953C17.6953 15.2921 18.4837 15.356 18.4758 16.0979C18.4792 16.3282 18.4047 16.5528 18.2647 16.7343C18.1246 16.9159 17.9274 17.0435 17.7058 17.0961C17.2791 17.1696 16.2734 17.2547 15.5542 17.307C15.2914 17.3292 15.5542 17.5083 15.5542 17.5083L16.2428 18.0197C16.4079 18.1423 16.6074 18.2085 16.8122 18.2086H19.4561C19.664 18.2082 19.8663 18.1398 20.0326 18.0135C20.6908 17.5189 21.3391 17.011 21.9774 16.4897C23.3879 15.426 23.9249 16.4897 23.9249 16.4897C23.9249 16.4897 24.1001 16.8718 23.9153 17.0845C23.4177 17.5573 22.2525 18.6506 20.4198 20.3644C20.2964 20.4797 20.1454 20.5604 19.9818 20.5984H20.0037C19.8522 20.6329 19.6973 20.6502 19.542 20.6499C15.56 20.6434 13.4259 20.6434 13.1398 20.6499C12.8659 20.658 12.6037 20.7638 12.3995 20.9486L11.3044 21.9459C10.8568 22.3279 10.6132 21.9459 10.6132 21.9459L8.0963 19.0817L8.09718 19.0782Z" fill="white"/>
</svg>
