<svg width="32" height="32" viewBox="0 0 32 32" fill="none" xmlns="http://www.w3.org/2000/svg">
<g clip-path="url(#clip0_31363_54034)">
<path fill-rule="evenodd" clip-rule="evenodd" d="M16 32C24.8366 32 32 24.8366 32 16C32 7.16344 24.8366 0 16 0C7.16344 0 0 7.16344 0 16C0 24.8366 7.16344 32 16 32ZM23.6413 8.9926C23.6536 8.99767 23.6638 9.00697 23.6699 9.01885C26.16 12.6799 27.3898 16.8098 26.9299 21.5641C26.929 21.5741 26.926 21.5838 26.9211 21.5926C26.9161 21.6013 26.9094 21.6089 26.9013 21.6148C25.2346 22.8492 23.3696 23.79 21.3864 24.3968C21.3724 24.4011 21.3574 24.4009 21.3435 24.3962C21.3296 24.3915 21.3176 24.3825 21.3091 24.3706C20.8896 23.7887 20.5134 23.1769 20.1835 22.54C20.179 22.5312 20.1764 22.5215 20.1758 22.5117C20.1753 22.5018 20.1768 22.4919 20.1804 22.4827C20.1839 22.4734 20.1894 22.465 20.1964 22.458C20.2034 22.451 20.2118 22.4456 20.221 22.4421C20.8167 22.2181 21.3924 21.9443 21.9419 21.6235C21.9519 21.6175 21.9602 21.6092 21.9662 21.5993C21.9722 21.5893 21.9756 21.5781 21.9762 21.5665C21.9768 21.5549 21.9746 21.5433 21.9696 21.5328C21.9647 21.5223 21.9573 21.5132 21.948 21.5062C21.8316 21.4196 21.7175 21.33 21.6055 21.2377C21.5956 21.2296 21.5835 21.2245 21.5707 21.2229C21.558 21.2214 21.545 21.2235 21.5334 21.229C17.9675 22.8759 14.0607 22.8759 10.4521 21.229C10.4405 21.2238 10.4277 21.222 10.4151 21.2236C10.4026 21.2253 10.3907 21.2305 10.3809 21.2386C10.2691 21.3304 10.1552 21.4197 10.0393 21.5062C10.0301 21.5133 10.0227 21.5224 10.0178 21.533C10.013 21.5435 10.0108 21.5551 10.0115 21.5667C10.0122 21.5783 10.0157 21.5895 10.0218 21.5994C10.0278 21.6093 10.0362 21.6176 10.0462 21.6235C10.597 21.9416 11.1722 22.2156 11.7663 22.4429C11.7755 22.4463 11.784 22.4517 11.791 22.4585C11.7981 22.4654 11.8036 22.4737 11.8072 22.4829C11.8108 22.4921 11.8124 22.5019 11.812 22.5117C11.8115 22.5216 11.809 22.5312 11.8045 22.54C11.48 23.1805 11.1033 23.7931 10.6781 24.3716C10.6694 24.3832 10.6572 24.3919 10.6434 24.3964C10.6296 24.4009 10.6147 24.4011 10.6008 24.3969C8.62114 23.788 6.75934 22.8473 5.09481 21.6148C5.08682 21.6086 5.08016 21.6008 5.07523 21.592C5.0703 21.5831 5.06721 21.5734 5.06612 21.5633C4.68197 17.4509 5.46505 13.2869 8.32364 9.01799C8.33063 9.00668 8.34095 8.99782 8.35319 8.99264C9.78262 8.33615 11.2914 7.86838 12.8415 7.60112C12.8555 7.59891 12.87 7.60098 12.8828 7.60707C12.8957 7.61315 12.9064 7.62297 12.9136 7.63525C13.1238 8.00702 13.3133 8.3901 13.4812 8.78275C15.152 8.52913 16.8514 8.52913 18.5222 8.78275C18.689 8.3911 18.8755 8.00811 19.0809 7.63525C19.0878 7.6227 19.0985 7.61265 19.1115 7.60652C19.1244 7.6004 19.139 7.59851 19.153 7.60112C20.703 7.86895 22.2116 8.33667 23.6413 8.9926ZM10.3618 16.8378C10.3618 18.0622 11.257 19.0592 12.3434 19.0592C13.4472 19.0592 14.325 18.0622 14.325 16.8377C14.3424 15.622 13.4559 14.6163 12.3434 14.6163C11.2396 14.6163 10.3618 15.6133 10.3618 16.8378ZM17.6886 16.8378C17.6886 18.0622 18.5837 19.0592 19.6702 19.0592C20.7827 19.0592 21.6518 18.0622 21.6518 16.8377C21.6692 15.622 20.7827 14.6163 19.6702 14.6163C18.5664 14.6163 17.6886 15.6133 17.6886 16.8378Z" fill="#0EAD98"/>
</g>
<defs>
<clipPath id="clip0_31363_54034">
<rect width="32" height="32" fill="white"/>
</clipPath>
</defs>
</svg>
