<svg width="32" height="32" viewBox="0 0 32 32" fill="none" xmlns="http://www.w3.org/2000/svg">
<path d="M16 32C7.1632 32 0 24.8368 0 16C0 7.1632 7.1632 0 16 0C24.8368 0 32 7.1632 32 16C32 24.8368 24.8368 32 16 32ZM26.672 16C26.6555 15.5496 26.5091 15.1136 26.2505 14.7446C25.9918 14.3755 25.6319 14.0892 25.2142 13.9201C24.7965 13.751 24.3387 13.7063 23.8962 13.7914C23.4536 13.8766 23.0451 14.0879 22.72 14.4C20.8999 13.1627 18.7603 12.4792 16.56 12.432L17.6 7.44L21.024 8.16C21.0647 8.53837 21.2389 8.88985 21.5154 9.15133C21.7919 9.41282 22.1526 9.5672 22.5326 9.58675C22.9127 9.6063 23.2872 9.48975 23.5891 9.25802C23.891 9.02629 24.1004 8.69455 24.1797 8.32236C24.259 7.95016 24.2031 7.56188 24.0219 7.22721C23.8407 6.89254 23.5462 6.6334 23.1912 6.4963C22.8362 6.3592 22.444 6.35313 22.0849 6.47916C21.7258 6.6052 21.4234 6.8551 21.232 7.184L17.312 6.4C17.2479 6.38594 17.1816 6.38474 17.117 6.39647C17.0525 6.4082 16.9909 6.43264 16.9358 6.46835C16.8807 6.50407 16.8333 6.55036 16.7963 6.60455C16.7592 6.65873 16.7333 6.71973 16.72 6.784L15.536 12.336C13.3086 12.3696 11.1396 13.0536 9.296 14.304C9.04935 14.0719 8.75518 13.8963 8.43388 13.7892C8.11259 13.6821 7.77185 13.6461 7.43529 13.6838C7.09872 13.7215 6.77437 13.8319 6.48472 14.0074C6.19507 14.1829 5.94704 14.4193 5.75783 14.7002C5.56861 14.9811 5.44274 15.2997 5.38892 15.6341C5.33511 15.9685 5.35464 16.3106 5.44616 16.6366C5.53769 16.9627 5.69902 17.265 5.91898 17.5225C6.13893 17.78 6.41226 17.9866 6.72 18.128C6.70198 18.3623 6.70198 18.5977 6.72 18.832C6.72 22.416 10.896 25.328 16.048 25.328C21.2 25.328 25.376 22.416 25.376 18.832C25.394 18.5977 25.394 18.3623 25.376 18.128C25.7708 17.9318 26.1021 17.6278 26.3314 17.2512C26.5607 16.8746 26.6788 16.4409 26.672 16ZM10.672 17.6C10.672 17.1757 10.8406 16.7687 11.1406 16.4686C11.4407 16.1686 11.8477 16 12.272 16C12.6963 16 13.1033 16.1686 13.4034 16.4686C13.7034 16.7687 13.872 17.1757 13.872 17.6C13.872 18.0243 13.7034 18.4313 13.4034 18.7314C13.1033 19.0314 12.6963 19.2 12.272 19.2C11.8477 19.2 11.4407 19.0314 11.1406 18.7314C10.8406 18.4313 10.672 18.0243 10.672 17.6ZM19.968 22C18.8328 22.8554 17.4362 23.2908 16.016 23.232C14.5958 23.2908 13.1992 22.8554 12.064 22C11.996 21.9171 11.9612 21.8119 11.9665 21.7047C11.9717 21.5976 12.0166 21.4963 12.0925 21.4205C12.1683 21.3446 12.2696 21.2997 12.3767 21.2945C12.4839 21.2892 12.5891 21.324 12.672 21.392C13.634 22.0976 14.8082 22.4533 16 22.4C17.1933 22.4649 18.373 22.1206 19.344 21.424C19.3849 21.3782 19.4348 21.3412 19.4906 21.3155C19.5464 21.2898 19.6069 21.2758 19.6684 21.2745C19.7298 21.2731 19.7908 21.2844 19.8477 21.3077C19.9046 21.3309 19.9561 21.3656 19.999 21.4096C20.0418 21.4536 20.0752 21.506 20.097 21.5634C20.1188 21.6208 20.1286 21.6822 20.1257 21.7435C20.1228 21.8049 20.1073 21.865 20.0802 21.9202C20.053 21.9753 20.0149 22.0243 19.968 22.064V22ZM19.68 19.264C19.3636 19.264 19.0542 19.1702 18.7911 18.9944C18.528 18.8185 18.3229 18.5687 18.2018 18.2763C18.0807 17.9839 18.049 17.6622 18.1107 17.3519C18.1725 17.0415 18.3249 16.7564 18.5486 16.5326C18.7724 16.3089 19.0575 16.1565 19.3679 16.0947C19.6782 16.033 19.9999 16.0647 20.2923 16.1858C20.5847 16.3069 20.8345 16.512 21.0104 16.7751C21.1862 17.0382 21.28 17.3475 21.28 17.664C21.2887 17.8808 21.2532 18.0971 21.1757 18.2997C21.0982 18.5024 20.9802 18.6871 20.8291 18.8428C20.6779 18.9984 20.4967 19.1217 20.2964 19.2051C20.0961 19.2885 19.881 19.3303 19.664 19.328L19.68 19.264Z" fill="#0EAD98"/>
</svg>
