<svg width="32" height="32" viewBox="0 0 32 32" fill="none" xmlns="http://www.w3.org/2000/svg">
<path fill-rule="evenodd" clip-rule="evenodd" d="M16 32C24.8366 32 32 24.8366 32 16C32 7.16344 24.8366 0 16 0C7.16344 0 0 7.16344 0 16C0 24.8366 7.16344 32 16 32ZM21.8446 10.6909H10.5899C9.9514 10.6575 9.32379 10.8737 8.82809 11.2976L9.46588 11.7305L14.3074 15.0235C14.3548 15.0408 14.398 15.0686 14.4343 15.1049L16.1962 16.3073L22.9652 11.7342L23.6065 11.2976C23.1033 10.8883 22.481 10.674 21.8446 10.6909ZM8.9799 12.2747L8.3844 11.8677C8.13021 12.3337 7.99886 12.8624 8.00384 13.3995L8.00031 19.2787C7.99137 19.9056 8.17416 20.519 8.52182 21.0287L9.02219 20.4848L13.6347 15.4529L8.9799 12.2747ZM18.2189 15.8632L22.923 20.9839L23.4199 21.5241C22.9566 21.8368 22.4167 22.0014 21.8659 21.9977H10.5901C10.0372 22.0205 9.49096 21.8643 9.02556 21.55L9.53298 20.9987L14.2618 15.8706L16.0448 17.0842L16.1293 17.1138H16.1575C16.1868 17.1176 16.2164 17.1176 16.2456 17.1138C16.2749 17.1176 16.3045 17.1176 16.3337 17.1138H16.3619L16.4218 17.0842L18.2189 15.8632ZM24.4527 19.2786V13.4106C24.4684 12.8713 24.3403 12.3382 24.0827 11.8714L23.4837 12.2747L18.8324 15.4381L23.4414 20.4737L23.9453 21.025C24.2974 20.5198 24.4763 19.9043 24.4527 19.2786Z" fill="#0EAD98"/>
</svg>
