<svg width="32" height="32" viewBox="0 0 32 32" fill="none" xmlns="http://www.w3.org/2000/svg">
<path fill-rule="evenodd" clip-rule="evenodd" d="M16 32C24.8366 32 32 24.8366 32 16C32 7.16344 24.8366 0 16 0C7.16344 0 0 7.16344 0 16C0 24.8366 7.16344 32 16 32ZM11.6405 22C14.7558 22 17.2812 19.5375 17.2812 16.4999C17.2812 13.4624 14.7556 11 11.6405 11C8.52538 11 6 13.4616 6 16.4999C6 19.5382 8.52519 22 11.6405 22ZM20.6487 21.6773C22.2063 21.6773 23.4691 19.3594 23.4691 16.4999C23.4691 13.6412 22.2063 11.3226 20.6487 11.3226C19.0912 11.3226 17.8284 13.6412 17.8284 16.4999C17.8284 19.3587 19.0912 21.6773 20.6487 21.6773ZM25.008 21.1386C25.5558 21.1386 26 19.0619 26 16.4999C26 13.9381 25.5562 11.8612 25.0082 11.8612C24.4603 11.8612 24.0161 13.9387 24.0161 16.4999C24.0161 19.0611 24.4603 21.1386 25.008 21.1386Z" fill="#0EAD98"/>
</svg>
