<svg width="32" height="32" viewBox="0 0 32 32" fill="none" xmlns="http://www.w3.org/2000/svg">
<path d="M21.232 23.3394L23.8571 10.9646C24.0891 9.87543 23.464 9.44686 22.7497 9.71429L7.32114 15.6606C6.26743 16.0709 6.28571 16.6606 7.14286 16.928L11.0891 18.16L20.2503 12.392C20.6789 12.1063 21.072 12.2674 20.7509 12.5531L13.3406 19.2491L13.0549 23.3211C13.4651 23.3211 13.6446 23.1429 13.8583 22.928L15.7863 21.0709L19.7863 24.0171C20.5189 24.4274 21.0366 24.2137 21.2331 23.3383L21.232 23.3394ZM32 16C32 24.8389 24.8389 32 16 32C7.16114 32 0 24.8389 0 16C0 7.16114 7.16114 0 16 0C24.8389 0 32 7.16114 32 16Z" fill="#0EAD98"/>
</svg>
