<svg width="50" height="22" viewBox="0 0 50 22" fill="none" xmlns="http://www.w3.org/2000/svg">
<path fill-rule="evenodd" clip-rule="evenodd" d="M12 0C9.79086 0 8 1.79086 8 4V14C8 18.4183 11.5817 22 16 22H42C46.4183 22 50 18.4183 50 14V8C50 3.58172 46.4183 0 42 0H12ZM8 15L7.9996 4L0 16L8 15Z" fill="url(#paint0_linear_15396_10071)"/>
<path d="M16.84 15V6.36H18.304L22.312 12.45V6.36H23.776V15H22.312L18.304 8.91V15H16.84ZM28.3993 15.18C27.7433 15.18 27.1673 15.038 26.6713 14.754C26.1753 14.47 25.7873 14.076 25.5073 13.572C25.2313 13.068 25.0933 12.488 25.0933 11.832C25.0933 11.124 25.2293 10.51 25.5013 9.99C25.7733 9.466 26.1513 9.06 26.6353 8.772C27.1193 8.484 27.6793 8.34 28.3153 8.34C28.9873 8.34 29.5573 8.498 30.0253 8.814C30.4973 9.126 30.8473 9.568 31.0753 10.14C31.3033 10.712 31.3893 11.386 31.3333 12.162H29.8993V11.634C29.8953 10.93 29.7713 10.416 29.5273 10.092C29.2833 9.768 28.8993 9.606 28.3753 9.606C27.7833 9.606 27.3433 9.79 27.0553 10.158C26.7673 10.522 26.6233 11.056 26.6233 11.76C26.6233 12.416 26.7673 12.924 27.0553 13.284C27.3433 13.644 27.7633 13.824 28.3153 13.824C28.6713 13.824 28.9773 13.746 29.2333 13.59C29.4933 13.43 29.6933 13.2 29.8333 12.9L31.2613 13.332C31.0133 13.916 30.6293 14.37 30.1093 14.694C29.5933 15.018 29.0233 15.18 28.3993 15.18ZM26.1673 12.162V11.07H30.6253V12.162H26.1673ZM33.8177 15L31.8377 8.508L33.2537 8.52L34.5197 12.678L35.8037 8.52H37.0217L38.2997 12.678L39.5717 8.52H40.9877L39.0077 15H37.8797L36.4097 10.542L34.9457 15H33.8177Z" fill="#161719"/>
<defs>
<linearGradient id="paint0_linear_15396_10071" x1="25" y1="0" x2="25" y2="22" gradientUnits="userSpaceOnUse">
<stop stop-color="#FFB017"/>
<stop offset="1" stop-color="#FCDEA2"/>
</linearGradient>
</defs>
</svg>
