<svg width="32" height="32" viewBox="0 0 32 32" fill="none" xmlns="http://www.w3.org/2000/svg">
<path d="M16 0C7.16352 0 0 7.16352 0 16C0 24.8365 7.16352 32 16 32C24.8365 32 32 24.8365 32 16C32 7.16352 24.8365 0 16 0ZM23.9526 11.9213C23.9603 12.0973 23.9648 12.2746 23.9648 12.4518C23.9648 17.8739 19.8374 24.1267 12.2906 24.1267C9.97312 24.1267 7.81632 23.4477 6.00064 22.2829C6.32192 22.3206 6.64832 22.3405 6.9792 22.3405C8.90176 22.3405 10.6707 21.6845 12.0755 20.5837C10.2797 20.551 8.7648 19.3645 8.24256 17.7344C8.49344 17.7824 8.75008 17.808 9.0144 17.808C9.3888 17.808 9.75104 17.7574 10.0954 17.664C8.21824 17.287 6.80384 15.6288 6.80384 13.6403C6.80384 13.623 6.80384 13.6058 6.80448 13.5885C7.35744 13.8957 7.9904 14.0806 8.66304 14.1018C7.56224 13.3658 6.83776 12.1101 6.83776 10.6861C6.83776 9.93408 7.04 9.22944 7.39328 8.62336C9.41696 11.1059 12.4403 12.7392 15.8509 12.9107C15.7811 12.6106 15.7446 12.297 15.7446 11.9757C15.7446 9.70944 17.5821 7.87264 19.8477 7.87264C21.0278 7.87264 22.0941 8.3712 22.8429 9.16864C23.7773 8.98496 24.6554 8.6432 25.4483 8.1728C25.1418 9.13088 24.4915 9.93536 23.6442 10.4429C24.4742 10.3437 25.2653 10.1229 26.0006 9.79712C25.4509 10.6202 24.7552 11.3427 23.9533 11.9213H23.9526Z" fill="#0EAD98"/>
</svg>
