<svg width="32" height="32" viewBox="0 0 32 32" fill="none" xmlns="http://www.w3.org/2000/svg">
<path fill-rule="evenodd" clip-rule="evenodd" d="M32 16C32 24.8389 24.8389 32 16 32C7.16114 32 0 24.8389 0 16C0 7.16114 7.16114 0 16 0C24.8389 0 32 7.16114 32 16ZM10.3819 9.20018H21.6178C23.8222 9.20018 25.6093 10.9873 25.6093 13.1917V18.8085C25.6093 21.0129 23.8222 22.8 21.6178 22.8H10.3819C8.17743 22.8 6.39036 21.0129 6.39036 18.8085V13.1917C6.39036 10.9873 8.17743 9.20018 10.3819 9.20018ZM13.6629 18.7799L18.9183 16.2734C19.0764 16.198 19.0791 15.9739 18.9229 15.8947L13.6675 13.2316C13.5272 13.1604 13.3612 13.2624 13.3612 13.4198V18.5894C13.3612 18.7446 13.5229 18.8467 13.6629 18.7799Z" fill="#0EAD98"/>
</svg>
