<svg width="32" height="32" viewBox="0 0 32 32" fill="none" xmlns="http://www.w3.org/2000/svg">
<path fill-rule="evenodd" clip-rule="evenodd" d="M16 32C24.8366 32 32 24.8366 32 16C32 7.16344 24.8366 0 16 0C7.16344 0 0 7.16344 0 16C0 24.8366 7.16344 32 16 32ZM7 12.3623C7 9.40551 9.40551 7 12.3623 7H19.6377C22.5945 7 25 9.40551 25 12.3623V19.6377C25 22.5945 22.5945 25 19.6377 25H12.3623C9.40551 25 7 22.5945 7 19.6377V12.3623ZM19.6375 23.19C21.5989 23.19 23.1889 21.5999 23.1889 19.6385V12.3631C23.1889 10.4016 21.5989 8.81158 19.6375 8.81158H12.362C10.4006 8.81158 8.81055 10.4016 8.81055 12.3631V19.6385C8.81055 21.5999 10.4006 23.19 12.362 23.19H19.6375ZM16.0003 11.3449C13.4333 11.3449 11.3449 13.4333 11.3449 16.0003C11.3449 18.5673 13.4333 20.6557 16.0003 20.6557C18.5674 20.6557 20.6558 18.5673 20.6558 16.0003C20.6558 13.4333 18.5674 11.3449 16.0003 11.3449ZM13.1554 15.9991C13.1554 17.5701 14.429 18.8437 16.0001 18.8437C17.5711 18.8437 18.8447 17.5701 18.8447 15.9991C18.8447 14.428 17.5712 13.1544 16.0001 13.1544C14.4291 13.1544 13.1554 14.428 13.1554 15.9991ZM21.7798 11.3789C21.7798 11.995 21.2803 12.4944 20.6643 12.4944C20.0482 12.4944 19.5487 11.995 19.5487 11.3789C19.5487 10.7628 20.0482 10.2633 20.6643 10.2633C21.2803 10.2633 21.7798 10.7628 21.7798 11.3789Z" fill="#0EAD98"/>
</svg>
