<svg width="151" height="37" viewBox="0 0 151 37" fill="none" xmlns="http://www.w3.org/2000/svg">
<path d="M23.4596 13.6713C20.642 10.8646 16.1637 10.8646 13.3758 13.6713C10.5879 16.5082 10.6176 21.1256 13.4055 23.9625C16.1933 26.7993 20.731 26.8295 23.5189 23.9927C23.5663 23.9444 23.7623 23.7252 24.1066 23.3352L20.7447 19.9102C20.3991 20.3185 20.2166 20.5325 20.1972 20.5522C19.2481 21.5179 17.7059 21.5179 16.7568 20.5522C15.8078 19.5865 15.8078 18.0171 16.7272 17.0816C17.6466 16.146 19.1888 16.146 20.1378 17.1117C20.1378 17.1117 23.1345 20.1588 29.1277 26.2529C26.6661 29.8744 22.5402 32.1713 18.0914 32.1713C10.7362 32.1713 4.7453 26.0449 4.7453 18.5C4.7453 10.9551 10.7362 4.82871 18.0914 4.82871C22.3919 4.82871 26.3364 6.94127 28.798 10.3516C28.4014 10.8202 27.3882 11.9959 25.7583 13.8786L29.0754 17.2442L34.5813 10.925C31.7342 4.34584 25.2984 0 18.0914 0C8.09666 0 0 8.29935 0 18.5C0 28.7007 8.09666 37 18.0914 37C22.6291 37 26.3957 35.5514 30.0733 32.3524C33.4247 29.4551 35 25.438 35 25.438L23.4596 13.6713Z" fill="url(#paint0_linear_6734_4921)"/>
<path d="M111.91 20.8603V31H107.772V20.6389C107.352 18.2579 105.254 16.448 102.729 16.448C100.166 16.448 98.0428 18.3137 97.6686 20.7486V31H93.5301V12.599L96.7043 14.613C98.3197 13.2292 100.426 12.3922 102.729 12.3922C107.595 12.3922 111.58 16.1272 111.92 20.8603H111.91ZM68.4718 10.2629C67.097 10.9791 65.8692 11.9377 64.8452 13.0819C63.316 10.9656 60.8256 9.58823 58.0132 9.58823C53.3628 9.58823 49.5929 13.3543 49.5929 18C49.5929 22.6457 53.3628 26.4118 58.0132 26.4118C59.5227 26.4118 60.9395 26.015 62.1646 25.3201C62.6244 26.8123 63.3513 28.1877 64.2897 29.3907C62.4285 30.4164 60.2891 31 58.0132 31C50.8262 31 45 25.1797 45 18C45 10.8203 50.8262 5 58.0132 5C62.2989 5 66.1007 7.0696 68.4718 10.2629ZM74.6289 31C69.5506 31 65.4337 26.8916 65.4337 21.8235C65.4337 16.7555 69.5506 12.6471 74.6289 12.6471C79.7073 12.6471 83.8241 16.7555 83.8241 21.8235C83.8241 26.8916 79.7073 31 74.6289 31ZM74.6289 26.9216C77.4502 26.9216 79.7374 24.6391 79.7374 21.8235C79.7374 19.008 77.4502 16.7255 74.6289 16.7255C71.8076 16.7255 69.5205 19.008 69.5205 21.8235C69.5205 24.6391 71.8076 26.9216 74.6289 26.9216ZM86.3783 12.6471H90.4651V31H86.3783V12.6471ZM130.822 9.39714H119.131V16.0685H130.482V20.2107H119.131V26.8578H130.822V31H114.73V5.2549H130.822V9.39714ZM139.415 21.7845L133.123 12.6471H138.327C138.48 12.9029 138.704 13.254 138.999 13.7016C139.344 14.2262 139.702 14.7699 140.072 15.3329C140.442 15.8959 140.8 16.4398 141.145 16.9644C141.488 17.4851 141.732 17.8716 141.877 18.122L142.086 18.4839L145.825 12.6471H150.776L144.595 21.6311L151 31H145.86L141.915 25.0013L141.702 25.3174C141.528 25.5753 141.268 25.9734 140.921 26.5123C140.576 27.049 140.207 27.6177 139.813 28.2184C139.417 28.8205 139.047 29.3906 138.701 29.9287C138.407 30.3866 138.183 30.7433 138.03 31H133.12L139.415 21.7845Z" fill="#F9FBFE"/>
<path d="M86 7.96928C86 7.16382 86.2935 6.46758 86.8805 5.88055C87.4676 5.29351 88.1706 5 88.9898 5C89.8225 5 90.5324 5.29351 91.1195 5.88055C91.7065 6.45393 92 7.15699 92 7.98976C92 8.82253 91.7065 9.53242 91.1195 10.1195C90.5461 10.7065 89.843 11 89.0102 11C88.1775 11 87.4676 10.7065 86.8805 10.1195C86.2935 9.53242 86 8.8157 86 7.96928Z" fill="url(#paint1_linear_6734_4921)"/>
<defs>
<linearGradient id="paint0_linear_6734_4921" x1="35" y1="18.5" x2="0" y2="18.5" gradientUnits="userSpaceOnUse">
<stop stop-color="#22E6B8"/>
<stop offset="1" stop-color="#00C1CE"/>
</linearGradient>
<linearGradient id="paint1_linear_6734_4921" x1="92" y1="8" x2="86" y2="8" gradientUnits="userSpaceOnUse">
<stop stop-color="#22E6B8"/>
<stop offset="1" stop-color="#00C1CE"/>
</linearGradient>
</defs>
</svg>
