<svg xmlns="http://www.w3.org/2000/svg" width="30" height="30" fill="none" xmlns:v="https://vecta.io/nano"><path d="M23.75 3.75H6.25a2.5 2.5 0 0 0-2.5 2.5v17.5a2.5 2.5 0 0 0 2.5 2.5h17.5a2.5 2.5 0 0 0 2.5-2.5V6.25a2.5 2.5 0 0 0-2.5-2.5zm-12.5 17.5H8.096V12.5h3.154v8.75zM9.618 10.896c-.964 0-1.607-.642-1.607-1.5s.643-1.5 1.714-1.5c.964 0 1.607.643 1.607 1.5s-.643 1.5-1.714 1.5zM22.5 21.25h-3.052v-4.782c0-1.323-.814-1.628-1.119-1.628s-1.323.204-1.323 1.628v4.782h-3.154V12.5h3.154v1.221c.406-.713 1.22-1.221 2.746-1.221s2.747 1.221 2.747 3.968v4.782z" fill="#2f1c6a"/></svg>