<svg xmlns="http://www.w3.org/2000/svg" width="30" height="30" fill="none" xmlns:v="https://vecta.io/nano"><path d="M23.75 3.75H6.25a2.5 2.5 0 0 0-2.5 2.5v17.5a2.5 2.5 0 0 0 2.5 2.5h17.5a2.5 2.5 0 0 0 2.5-2.5V6.25a2.5 2.5 0 0 0-2.5-2.5zm-2.437 8.143v.429c0 4.071-3.108 8.786-8.786 8.786-1.714 0-3.321-.536-4.714-1.393h.75c1.393 0 2.786-.536 3.858-1.286-1.392 0-2.464-.964-2.892-2.142.214 0 .429.107.536.107.321 0 .536 0 .858-.107-1.393-.321-2.464-1.5-2.464-3 .429.214.857.321 1.393.429-.857-.75-1.392-1.607-1.392-2.679 0-.536.107-1.071.429-1.5 1.5 1.821 3.75 3.108 6.321 3.214 0-.214-.107-.429-.107-.75a3.11 3.11 0 0 1 3.108-3.107c.858 0 1.714.321 2.25.964.75-.107 1.393-.429 1.929-.75-.214.75-.75 1.286-1.392 1.714.642-.107 1.179-.214 1.821-.536-.431.645-.966 1.18-1.503 1.609z" fill="#2f1c6a"/></svg>