<svg xmlns="http://www.w3.org/2000/svg" width="30" height="30" fill="none" xmlns:v="https://vecta.io/nano"><path fill-rule="evenodd" d="M23.501 3.75a2.75 2.75 0 0 1 2.749 2.749v17.002a2.75 2.75 0 0 1-2.749 2.749H6.499a2.75 2.75 0 0 1-2.749-2.749V6.499A2.75 2.75 0 0 1 6.499 3.75h17.002zm-.921 7.718a1.98 1.98 0 0 0-1.399-1.399C19.947 9.739 15 9.739 15 9.739s-4.947 0-6.181.331a1.98 1.98 0 0 0-1.399 1.399c-.331 1.234-.331 3.808-.331 3.808s0 2.574.331 3.808a1.98 1.98 0 0 0 1.399 1.399c1.234.33 6.181.33 6.181.33s4.947 0 6.181-.33a1.98 1.98 0 0 0 1.399-1.399c.331-1.234.331-3.808.331-3.808s0-2.574-.331-3.808zm-9.162 6.181v-4.746l4.11 2.373-4.11 2.373z" fill="#2f1c6a"/></svg>