<svg width="17" height="17" viewBox="0 0 17 17" fill="none" xmlns="http://www.w3.org/2000/svg">
<path d="M9.65667 7.12109C8.98419 6.4489 8.0723 6.07129 7.12148 6.07129C6.17066 6.07129 5.25876 6.4489 4.58629 7.12109L2.05028 9.65628C1.3778 10.3288 1 11.2408 1 12.1919C1 13.1429 1.3778 14.055 2.05028 14.7275C2.72276 15.4 3.63484 15.7778 4.58588 15.7778C5.53691 15.7778 6.44899 15.4 7.12148 14.7275L8.38907 13.4599" stroke="#457EFF" stroke-width="1.84694" stroke-linecap="round" stroke-linejoin="round"/>
<path d="M7.12036 9.65667C7.79283 10.3289 8.70473 10.7065 9.65555 10.7065C10.6064 10.7065 11.5183 10.3289 12.1907 9.65667L14.7267 7.12148C15.3992 6.44899 15.777 5.53691 15.777 4.58588C15.777 3.63484 15.3992 2.72276 14.7267 2.05028C14.0543 1.3778 13.1422 1 12.1911 1C11.2401 1 10.328 1.3778 9.65555 2.05028L8.38796 3.31787" stroke="#457EFF" stroke-width="1.84694" stroke-linecap="round" stroke-linejoin="round"/>
</svg>
