<svg width="17" height="17" viewBox="0 0 17 17" fill="none" xmlns="http://www.w3.org/2000/svg">
<path d="M9.6567 7.12109C8.98423 6.4489 8.07233 6.07129 7.12151 6.07129C6.17069 6.07129 5.25879 6.4489 4.58632 7.12109L2.05031 9.65628C1.37783 10.3288 1.00003 11.2408 1.00003 12.1919C1.00003 13.1429 1.37783 14.055 2.05031 14.7275C2.72279 15.4 3.63487 15.7778 4.58591 15.7778C5.53694 15.7778 6.44903 15.4 7.12151 14.7275L8.3891 13.4599" stroke="#8292B4" stroke-width="1.84694" stroke-linecap="round" stroke-linejoin="round"/>
<path d="M7.12042 9.65667C7.79289 10.3289 8.70479 10.7065 9.65561 10.7065C10.6064 10.7065 11.5183 10.3289 12.1908 9.65667L14.7268 7.12148C15.3993 6.44899 15.7771 5.53691 15.7771 4.58588C15.7771 3.63484 15.3993 2.72276 14.7268 2.05028C14.0543 1.3778 13.1422 1 12.1912 1C11.2402 1 10.3281 1.3778 9.65561 2.05028L8.38802 3.31787" stroke="#8292B4" stroke-width="1.84694" stroke-linecap="round" stroke-linejoin="round"/>
</svg>
