<svg xmlns="http://www.w3.org/2000/svg" fill="none" width="126" height="46" viewBox="0 0 126 46"><g clip-path="url(#a)"><path d="M27.7 5.3s-4.6-1-12 3.7-11 10.3-10.4 15.3c.6 5 4.6 11.3 23 17.3L37 44l-4.5-2.1S21 36.6 16.2 29c0 0-6-8 1-16 6.2-5.8 6-5.7 10.5-7.7z" stroke="#006CB7" stroke-miterlimit="10" stroke-width=".5"/><path d="M27.2 2.6s-4.6-1-12.1 3.7S4.2 16.6 4.8 21.6c.6 5 4.6 11.4 23 17.4l8.7 2.4-4.5-2s-11.5-5.3-16.3-13c0 0-6.1-8 1-16 0 0 6.2-5.7 10.5-7.7v-.1z" fill="#006CB7"/><path d="M9.5 4H7.8l1.1-.8-.2-.5-1.5.5 1-1-.3-.4h-.2l-1.4.6.6-1.1a5 5 0 1 0 3 4.5A4.8 4.8 0 0 0 9.5 4z" fill="#EB1F27"/><path d="M38 5.2h5v2.2c.6-1 1.4-1.6 2.1-2a6 6 0 0 1 2.8-.6c1.4 0 2.6.5 3.4 1.3.8.9 1.2 2.2 1.2 4v8.6h-5.3v-7.5c0-.8-.1-1.4-.4-1.8-.4-.3-.8-.5-1.4-.5-.6 0-1.1.3-1.5.7-.4.4-.6 1.4-.6 2.6v6.5H38V5.2zm22.5 4.3-5-.5c.1-.9.4-1.5.8-2 .3-.5.9-1 1.5-1.3.5-.3 1.2-.5 2-.6a22.1 22.1 0 0 1 6.6 0c1 .2 1.7.5 2.4 1 .4.5.8 1 1 1.7.3.7.4 1.4.4 2v6l.1 1.5.6 1.4h-5l-.4-.8-.1-.9c-.7.7-1.4 1.2-2 1.4-1 .4-2.1.6-3.3.6-1.7 0-3-.4-3.8-1.1A3.6 3.6 0 0 1 55 15c0-1 .3-1.9 1-2.5.7-.6 1.7-1.2 3.4-1.5l3.8-.8 1.9-.6c0-.7-.2-1.1-.4-1.4-.2-.3-.8-.4-1.4-.4-1 0-1.6.2-2 .4-.3.3-.6.7-.8 1.2v.1zm4.6 2.8-2.3.6c-1 .3-1.8.6-2 .9-.3.3-.5.6-.5 1 0 .3.2.7.5 1 .2.2.7.3 1.2.3a3.3 3.3 0 0 0 1.7-.4c.5-.3.8-.6 1-1 .3-.4.4-1 .4-1.6v-.8zm22.8 6.4h-5v-2.2c-.7 1-1.4 1.5-2.2 2a6 6 0 0 1-2.7.5c-1.5 0-2.6-.4-3.4-1.3-.9-.8-1.3-2.2-1.3-4V5.3h5.3v7.4c0 .8.2 1.5.5 1.8.3.3.8.5 1.3.5a2 2 0 0 0 1.6-.7c.4-.4.6-1.3.6-2.5V5.2h5.3v13.5zM91 0h5.4v9.6l3.9-4.4h6.5l-5 4.7 5.3 8.8h-6l-2.8-5.4-2 1.9v3.5H91V0zm17.7 5.2h5v2.2c.4-1 .9-1.6 1.4-2 .5-.4 1.1-.6 1.9-.6.8 0 1.6.3 2.5.8L118 9.3c-.6-.3-1.1-.4-1.5-.4a1.997 1.997 0 0 0-1.6.8c-.5.8-.8 2.3-.8 4.5v4.5h-5.3V5.2h-.1zm12-5.2h5.2v3.5h-5.3V0h.1zm0 5.2h5.2v13.5h-5.3V5.2h.1z" fill="#00ADEF"/><path d="M38 40.8V23h2.2v17.8H38zm14.7-4.2 2.3.3c-.4 1.3-1 2.3-2 3-1 .7-2.3 1.2-3.8 1.2a6 6 0 0 1-4.6-1.8 6.7 6.7 0 0 1-1.6-4.9c0-2.1.5-3.8 1.7-5 1.2-1.2 2.6-1.8 4.4-1.8 1.8 0 3.2.6 4.3 1.8 1.1 1.2 1.7 2.8 1.7 5v.5h-9.8c0 1.4.4 2.5 1.2 3.2.8.7 1.6 1.2 2.7 1.2.9 0 1.5-.2 2.1-.7.6-.5 1-1 1.4-2zm-7.3-3.5h7.3a4 4 0 0 0-.8-2.4 3.4 3.4 0 0 0-2.8-1.3c-1 0-1.9.3-2.6 1a4 4 0 0 0-1.1 2.7zm21 6c-.8.8-1.6 1.3-2.4 1.5a7.001 7.001 0 0 1-2.4.5c-1.5 0-2.6-.4-3.4-1a3.4 3.4 0 0 1-1.1-2.7 3.5 3.5 0 0 1 .4-1.7c.257-.515.635-.96 1.1-1.3a5.6 5.6 0 0 1 1.7-.7l2-.3 4-.8V32c0-.9-.3-1.5-.7-1.8-.6-.5-1.4-.8-2.5-.8-1 0-1.9.2-2.4.6-.5.3-.8 1-1 1.9l-2.3-.3a5 5 0 0 1 1-2.2c.5-.6 1.1-1 2-1.3.8-.3 1.8-.5 3-.5 1 0 2 .1 2.7.4.7.3 1.2.6 1.6 1 .3.4.5.9.7 1.5v4.9l.2 3.8c.107.564.31 1.105.6 1.6h-2.4l-.4-1.6v-.1zm-.2-4.8c-.8.3-2 .6-3.6.8l-2 .5a2 2 0 0 0-.9.7 1.8 1.8 0 0 0-.3 1c0 .6.3 1 .7 1.5a3 3 0 0 0 2 .6c.8 0 1.6-.2 2.3-.6.6-.4 1.1-.9 1.5-1.5a6 6 0 0 0 .3-2.2v-.8zm5.7 6.5v-13h2v2c.5-.9 1-1.5 1.4-1.8a2.5 2.5 0 0 1 1.5-.4c.7 0 1.5.2 2.3.7l-.8 2c-.6-.3-1.1-.4-1.6-.4a2.1 2.1 0 0 0-1.4.4c-.4.3-.6.7-.8 1.2-.2.8-.4 1.6-.4 2.5v6.8h-2.2zm8.5 0v-13h2v2c1-1.5 2.3-2.2 4.2-2.2.8 0 1.5.1 2.2.4.6.3 1.1.7 1.4 1.1.3.4.6 1 .7 1.6l.2 2.2v7.9h-2.3v-7.9c0-.8 0-1.5-.2-2a2 2 0 0 0-1-1 3 3 0 0 0-1.5-.4c-1 0-1.8.3-2.5.9-.6.6-1 1.7-1 3.3v7h-2.2v.1zm14.1-15.3V23h2.2v2.5h-2.2zm0 15.3v-13h2.2v13h-2.2zm5.6 0v-13h2v2c1-1.5 2.4-2.2 4.2-2.2a5 5 0 0 1 2.2.4c.7.3 1.2.7 1.5 1.1.3.4.6 1 .7 1.6l.1 2.2v7.9h-2.2v-7.9c0-.8 0-1.5-.3-2a2.004 2.004 0 0 0-.9-1 3 3 0 0 0-1.5-.4c-1 0-1.8.3-2.5.9-.7.6-1 1.7-1 3.3v7H100l.1.1zm13.8 1 2.1.4c.1.6.4 1 .8 1.4.5.4 1.3.6 2.2.6 1 0 1.9-.2 2.4-.6.5-.4 1-1 1.2-1.7l.1-2.8a4.597 4.597 0 0 1-3.6 1.7c-1.8 0-3.2-.7-4.2-2s-1.5-2.8-1.5-4.5c0-1.3.2-2.4.7-3.4.4-1 1.1-1.9 2-2.4.8-.6 1.8-.9 3-.9 1.6 0 2.8.6 3.8 1.8V28h2.1v11c0 2-.2 3.5-.6 4.3-.4.8-1.1 1.5-2 2a6.997 6.997 0 0 1-3.3.7c-1.6 0-2.9-.3-3.8-1-1-.7-1.5-1.8-1.4-3.2zm1.8-7.7c0 1.7.3 3 1 3.7a3.296 3.296 0 0 0 2.6 1.2 3.298 3.298 0 0 0 2.6-1.2c.7-.8 1-2 1-3.6s-.3-2.8-1-3.6a3.299 3.299 0 0 0-5.2 0c-.7.8-1 2-1 3.5z" fill="#1B59A9"/></g><defs><clipPath id="a"><path d="M0 0h126v46H0z" fill="#fff"/></clipPath></defs></svg>