<svg width="14" height="14" viewBox="0 0 14 14" fill="none" xmlns="http://www.w3.org/2000/svg">
<path d="M3.134 14H0.2315V4.653H3.134V14ZM1.681 3.378C0.753 3.378 0 2.609 0 1.681C0 1.23517 0.177105 0.807602 0.492354 0.492353C0.807602 0.177105 1.23517 0 1.681 0C2.12683 0 2.5544 0.177105 2.86965 0.492353C3.1849 0.807602 3.362 1.23517 3.362 1.681C3.362 2.609 2.609 3.378 1.681 3.378ZM13.997 14H11.101V9.45C11.101 8.3655 11.079 6.975 9.592 6.975C8.083 6.975 7.8515 8.153 7.8515 9.372V14H4.952V4.653H7.7355V5.928H7.776C8.1635 5.1935 9.11 4.4185 10.522 4.4185C13.4595 4.4185 13.9995 6.353 13.9995 8.8655V14H13.997Z" fill="#8292B4"/>
</svg>
