<svg width="16" height="14" viewBox="0 0 16 14" fill="none" xmlns="http://www.w3.org/2000/svg">
<path d="M15.7616 2.29171C15.2049 2.53838 14.6069 2.70504 13.9783 2.78038C14.6269 2.39224 15.1122 1.78135 15.3436 1.06171C14.7342 1.4237 14.0672 1.67851 13.3716 1.81504C12.9039 1.31562 12.2843 0.984594 11.6092 0.87336C10.934 0.762125 10.241 0.876905 9.63776 1.19988C9.03452 1.52285 8.55479 2.03595 8.27304 2.65951C7.99129 3.28307 7.92329 3.98221 8.0796 4.64838C6.84473 4.58637 5.63669 4.26541 4.53388 3.70631C3.43108 3.14722 2.45816 2.36248 1.67827 1.40304C1.4116 1.86304 1.25827 2.39638 1.25827 2.96438C1.25797 3.47571 1.38389 3.9792 1.62485 4.4302C1.86582 4.88119 2.21438 5.26574 2.6396 5.54971C2.14645 5.53402 1.66418 5.40077 1.23293 5.16104V5.20104C1.23288 5.9182 1.48096 6.6133 1.93506 7.16837C2.38916 7.72345 3.02132 8.10433 3.72427 8.24638C3.26679 8.37019 2.78716 8.38842 2.3216 8.29971C2.51993 8.91679 2.90626 9.45639 3.42651 9.84299C3.94676 10.2296 4.57488 10.4438 5.22293 10.4557C4.12282 11.3193 2.76419 11.7878 1.3656 11.7857C1.11785 11.7858 0.870318 11.7713 0.624268 11.7424C2.04392 12.6552 3.69649 13.1396 5.38427 13.1377C11.0976 13.1377 14.2209 8.40571 14.2209 4.30171C14.2209 4.16838 14.2176 4.03371 14.2116 3.90038C14.8191 3.46103 15.3435 2.91697 15.7603 2.29371L15.7616 2.29171Z" fill="#457EFF"/>
</svg>
