<svg width="16" height="14" viewBox="0 0 16 14" fill="none" xmlns="http://www.w3.org/2000/svg">
<path d="M15.7617 2.29171C15.205 2.53838 14.607 2.70504 13.9783 2.78038C14.627 2.39224 15.1123 1.78135 15.3437 1.06171C14.7342 1.4237 14.0672 1.67851 13.3717 1.81504C12.9039 1.31562 12.2844 0.984594 11.6092 0.87336C10.9341 0.762125 10.2411 0.876905 9.63782 1.19988C9.03458 1.52285 8.55485 2.03595 8.2731 2.65951C7.99135 3.28307 7.92335 3.98221 8.07966 4.64838C6.84479 4.58637 5.63675 4.26541 4.53394 3.70631C3.43114 3.14722 2.45822 2.36248 1.67833 1.40304C1.41166 1.86304 1.25833 2.39638 1.25833 2.96438C1.25803 3.47571 1.38395 3.9792 1.62491 4.4302C1.86588 4.88119 2.21444 5.26574 2.63966 5.54971C2.14651 5.53402 1.66424 5.40077 1.233 5.16104V5.20104C1.23295 5.9182 1.48102 6.6133 1.93512 7.16837C2.38922 7.72345 3.02138 8.10433 3.72433 8.24638C3.26685 8.37019 2.78722 8.38842 2.32166 8.29971C2.51999 8.91679 2.90633 9.45639 3.42657 9.84299C3.94682 10.2296 4.57494 10.4438 5.223 10.4557C4.12288 11.3193 2.76425 11.7878 1.36566 11.7857C1.11792 11.7858 0.870379 11.7713 0.624329 11.7424C2.04398 12.6552 3.69656 13.1396 5.38433 13.1377C11.0977 13.1377 14.221 8.40571 14.221 4.30171C14.221 4.16838 14.2177 4.03371 14.2117 3.90038C14.8192 3.46103 15.3436 2.91697 15.7603 2.29371L15.7617 2.29171Z" fill="#8292B4"/>
</svg>
