<svg width="14" height="14" viewBox="0 0 14 14" fill="none" xmlns="http://www.w3.org/2000/svg">
<path d="M6.33333 1.5C3.66396 1.5 1.5 3.66396 1.5 6.33333C1.5 9.00271 3.66396 11.1667 6.33333 11.1667C7.64078 11.1667 8.82698 10.6475 9.69705 9.80415C9.71189 9.78397 9.72844 9.76464 9.74671 9.74638C9.76496 9.72813 9.78427 9.71159 9.80444 9.69675C10.6477 8.82671 11.1667 7.64063 11.1667 6.33333C11.1667 3.66396 9.00271 1.5 6.33333 1.5ZM10.7967 10.0893L13.3538 12.6464C13.5491 12.8416 13.5491 13.1582 13.3538 13.3535C13.1586 13.5488 12.842 13.5488 12.6467 13.3535L10.0897 10.7964C9.0748 11.6515 7.76423 12.1667 6.33333 12.1667C3.11167 12.1667 0.5 9.55499 0.5 6.33333C0.5 3.11167 3.11167 0.5 6.33333 0.5C9.55499 0.5 12.1667 3.11167 12.1667 6.33333C12.1667 7.76407 11.6516 9.0745 10.7967 10.0893Z" fill="black"/>
</svg>
