<svg width="20" height="20" viewBox="0 0 20 20" fill="none"
  xmlns="http://www.w3.org/2000/svg">
  <path d="M4 12C5.10457 12 6 11.1046 6 10C6 8.89543 5.10457 8 4 8C2.89543 8 2 8.89543 2 10C2 11.1046 2.89543 12 4 12ZM4 14C1.79086 14 0 12.2091 0 10C0 7.79086 1.79086 6 4 6C6.20914 6 8 7.79086 8 10C8 12.2091 6.20914 14 4 14Z" fill="#333333"/>
  <path d="M16 6C17.1046 6 18 5.10457 18 4C18 2.89543 17.1046 2 16 2C14.8954 2 14 2.89543 14 4C14 5.10457 14.8954 6 16 6ZM16 8C13.7909 8 12 6.20914 12 4C12 1.79086 13.7909 0 16 0C18.2091 0 20 1.79086 20 4C20 6.20914 18.2091 8 16 8Z" fill="#333333"/>
  <path d="M16 18C14.8954 18 14 17.1046 14 16C14 14.8954 14.8954 14 16 14C17.1046 14 18 14.8954 18 16C18 17.1046 17.1046 18 16 18ZM16 20C18.2091 20 20 18.2091 20 16C20 13.7909 18.2091 12 16 12C13.7909 12 12 13.7909 12 16C12 18.2091 13.7909 20 16 20Z" fill="#333333"/>
  <path d="M14.3939 6.9191L7.39392 9.9191L6.60608 8.08081L13.6061 5.08081L14.3939 6.9191Z" fill="#333333"/>
  <path d="M13.6061 14.9191L6.60608 11.9191L7.39392 10.0808L14.3939 13.0808L13.6061 14.9191Z" fill="#333333"/>
</svg>
