<svg width="96" height="32" viewBox="0 0 96 32" fill="none" xmlns="http://www.w3.org/2000/svg">
<path d="M17.9004 5.55925C17.9004 5.63579 17.8975 5.71165 17.8917 5.78671C17.8619 6.17767 18.0049 6.5841 18.3413 6.78016L21.2442 8.47174C21.5807 8.66787 22.001 8.58942 22.3211 8.36705C22.7872 8.04329 23.3519 7.85376 23.9605 7.85376C25.5596 7.85376 26.8558 9.16213 26.8558 10.7761C26.8558 12.39 25.5596 13.6984 23.9605 13.6984C22.3615 13.6984 21.0652 12.39 21.0652 10.7761C21.0652 10.6999 21.0681 10.6243 21.0738 10.5496C21.1035 10.1588 20.9605 9.75258 20.6242 9.5566L17.7201 7.8643C17.3837 7.66826 16.9637 7.74655 16.6436 7.96866C16.1778 8.29187 15.6136 8.48105 15.0056 8.48105C14.3976 8.48105 13.8334 8.29187 13.3676 7.96865C13.0475 7.74653 12.6275 7.66824 12.291 7.86428L9.38698 9.55657C9.05068 9.75255 8.90769 10.1587 8.93736 10.5495C8.94303 10.6243 8.94592 10.6998 8.94592 10.776C8.94592 11.9384 8.27343 12.9423 7.29971 13.413C6.94897 13.5825 6.67101 13.9108 6.67101 14.3033V17.6837C6.67101 18.0762 6.94896 18.4045 7.29969 18.574C8.27338 19.0447 8.94583 20.0486 8.94583 21.211C8.94583 21.2883 8.94285 21.365 8.937 21.4409C8.90684 21.8321 9.04972 22.239 9.38645 22.4353L12.2909 24.1278C12.6273 24.3238 13.0474 24.2455 13.3675 24.0234C13.8333 23.7001 14.3976 23.5109 15.0056 23.5109C15.6137 23.5109 16.1779 23.7001 16.6437 24.0233C16.9638 24.2455 17.3839 24.3238 17.7203 24.1277L20.6246 22.4353C20.9613 22.2391 21.1042 21.8322 21.074 21.4409C21.0682 21.3651 21.0652 21.2885 21.0652 21.2111C21.0652 19.5972 22.3615 18.2888 23.9605 18.2888C25.5596 18.2888 26.8558 19.5972 26.8558 21.2111C26.8558 22.8251 25.5596 24.1334 23.9605 24.1334C23.3531 24.1334 22.7894 23.9447 22.3238 23.6221C22.0038 23.4003 21.5841 23.3223 21.248 23.5182L18.3414 25.2119C18.005 25.408 17.862 25.8144 17.8918 26.2053C17.8976 26.2804 17.9005 26.3562 17.9005 26.4327C17.9005 28.0464 16.6044 29.3545 15.0056 29.3545C13.4068 29.3545 12.1108 28.0464 12.1108 26.4327C12.1108 26.3562 12.1137 26.2804 12.1194 26.2054C12.1492 25.8145 12.0063 25.4081 11.6698 25.212L8.76293 23.5181C8.42679 23.3222 8.00712 23.4002 7.68711 23.6219C7.22159 23.9444 6.65797 24.1331 6.05067 24.1331C4.45172 24.1331 3.15552 22.8248 3.15552 21.211C3.15552 20.0486 3.82792 19.0448 4.80155 18.5741C5.15225 18.4045 5.43018 18.0763 5.43018 17.6838V14.3032C5.43018 13.9107 5.15226 13.5825 4.80156 13.4129C3.82793 12.9422 3.15552 11.9383 3.15552 10.776C3.15552 9.16208 4.45174 7.85376 6.05072 7.85376C6.65928 7.85376 7.22398 8.04327 7.69006 8.36701C8.01021 8.58938 8.43044 8.66783 8.767 8.4717L11.6698 6.78012C12.0063 6.58407 12.1492 6.17764 12.1194 5.78668C12.1137 5.71163 12.1108 5.63578 12.1108 5.55925C12.1108 3.94558 13.4068 2.63745 15.0056 2.63745C16.6043 2.63745 17.9004 3.94558 17.9004 5.55925Z" fill="#FC264C"/>
<g opacity="0.4">
<path d="M4.25556 15.9938C4.25556 17.1799 3.30292 18.1414 2.12778 18.1414C0.952641 18.1414 0 17.1799 0 15.9938C0 14.8077 0.952641 13.8462 2.12778 13.8462C3.30292 13.8462 4.25556 14.8077 4.25556 15.9938Z" fill="#FC264C"/>
<path d="M15.9803 0.983992C15.9803 1.52744 15.5438 1.96798 15.0054 1.96798C14.467 1.96798 14.0305 1.52744 14.0305 0.983992C14.0305 0.440548 14.467 0 15.0054 0C15.5438 0 15.9803 0.440548 15.9803 0.983992Z" fill="#FC264C"/>
<path d="M15.9805 31.016C15.9805 31.5595 15.544 32 15.0056 32C14.4672 32 14.0307 31.5595 14.0307 31.016C14.0307 30.4726 14.4672 30.032 15.0056 30.032C15.544 30.032 15.9805 30.4726 15.9805 31.016Z" fill="#FC264C"/>
<path d="M10.4084 3.64887C10.996 4.67606 10.6473 5.98952 9.62958 6.58257C8.61188 7.17562 7.31055 6.82368 6.72298 5.79649C6.13541 4.7693 6.4841 3.45583 7.5018 2.86278C8.5195 2.26973 9.82083 2.62168 10.4084 3.64887Z" fill="#FC264C"/>
<path d="M19.6025 3.64887C19.0149 4.67606 19.3636 5.98952 20.3813 6.58257C21.399 7.17562 22.7003 6.82368 23.2879 5.79649C23.8755 4.7693 23.5268 3.45583 22.5091 2.86278C21.4914 2.26973 20.19 2.62168 19.6025 3.64887Z" fill="#FC264C"/>
<path d="M19.6103 28.3389C20.1979 29.3661 21.4992 29.718 22.5169 29.125C23.5346 28.5319 23.8833 27.2185 23.2957 26.1913C22.7081 25.1641 21.4068 24.8121 20.3891 25.4052C19.3714 25.9982 19.0227 27.3117 19.6103 28.3389Z" fill="#FC264C"/>
<path d="M10.4008 28.3389C9.81321 29.3661 8.51188 29.718 7.49418 29.125C6.47648 28.5319 6.12779 27.2185 6.71536 26.1913C7.30293 25.1641 8.60426 24.8121 9.62196 25.4052C10.6397 25.9982 10.9884 27.3117 10.4008 28.3389Z" fill="#FC264C"/>
<path d="M3.10278 8.49024C3.10278 9.03368 2.66631 9.47423 2.12788 9.47423C1.58946 9.47423 1.15298 9.03368 1.15298 8.49024C1.15298 7.94679 1.58946 7.50625 2.12788 7.50625C2.66631 7.50625 3.10278 7.94679 3.10278 8.49024Z" fill="#FC264C"/>
<path d="M3.10278 23.4995C3.10278 24.043 2.66631 24.4835 2.12788 24.4835C1.58946 24.4835 1.15298 24.043 1.15298 23.4995C1.15298 22.9561 1.58946 22.5155 2.12788 22.5155C2.66631 22.5155 3.10278 22.9561 3.10278 23.4995Z" fill="#FC264C"/>
</g>
<path d="M32.762 17.5053C32.762 16.2912 33.0025 15.227 33.4837 14.3129C33.979 13.3845 34.6583 12.6703 35.5215 12.1704C36.3848 11.6705 37.3754 11.4205 38.4933 11.4205C39.9085 11.4205 41.076 11.7633 41.9958 12.4489C42.9298 13.1202 43.5596 14.0844 43.8851 15.3413H41.2741C41.0618 14.7557 40.7222 14.2986 40.2552 13.9701C39.7882 13.6416 39.2009 13.4773 38.4933 13.4773C37.5027 13.4773 36.7102 13.8344 36.1159 14.5486C35.5357 15.2485 35.2456 16.234 35.2456 17.5053C35.2456 18.7765 35.5357 19.7692 36.1159 20.4834C36.7102 21.1975 37.5027 21.5546 38.4933 21.5546C39.8943 21.5546 40.8213 20.9333 41.2741 19.6906H43.8851C43.5454 20.8904 42.9086 21.8474 41.9746 22.5616C41.0406 23.2615 39.8802 23.6114 38.4933 23.6114C37.3754 23.6114 36.3848 23.3615 35.5215 22.8616C34.6583 22.3474 33.979 21.6332 33.4837 20.719C33.0025 19.7906 32.762 18.7194 32.762 17.5053Z" fill="#200C39"/>
<path d="M54.9786 8.5281V10.5206H48.7166V14.9128H53.5989V16.9054H48.7166V23.4186H46.2967V8.5281H54.9786Z" fill="#200C39"/>
<path d="M67.8137 11.6133V23.4186H65.3938V22.026C65.0117 22.5116 64.5093 22.8973 63.8866 23.1829C63.2781 23.4543 62.6272 23.59 61.9337 23.59C61.0139 23.59 60.186 23.3972 59.4501 23.0115C58.7284 22.6259 58.1553 22.0545 57.7307 21.2975C57.3203 20.5405 57.1151 19.6264 57.1151 18.5551V11.6133H59.5138V18.1909C59.5138 19.2478 59.7756 20.062 60.2992 20.6333C60.8228 21.1904 61.5375 21.4689 62.4432 21.4689C63.3489 21.4689 64.0635 21.1904 64.5872 20.6333C65.1249 20.062 65.3938 19.2478 65.3938 18.1909V11.6133H67.8137Z" fill="#200C39"/>
<path d="M76.9078 11.4205C77.8276 11.4205 78.6484 11.6133 79.3701 11.999C80.106 12.3846 80.6791 12.956 81.0895 13.713C81.4999 14.47 81.7051 15.3842 81.7051 16.4554V23.4186H79.3065V16.8197C79.3065 15.7627 79.0446 14.9557 78.521 14.3986C77.9974 13.8273 77.2828 13.5416 76.3771 13.5416C75.4714 13.5416 74.7497 13.8273 74.2119 14.3986C73.6883 14.9557 73.4265 15.7627 73.4265 16.8197V23.4186H71.0066V11.6133H73.4265V12.9631C73.8227 12.4775 74.3251 12.099 74.9336 11.8276C75.5563 11.5562 76.2143 11.4205 76.9078 11.4205Z" fill="#200C39"/>
<path d="M83.9852 17.4624C83.9852 16.2769 84.2258 15.227 84.707 14.3129C85.2023 13.3988 85.8674 12.6917 86.7023 12.1918C87.5514 11.6776 88.4925 11.4205 89.5256 11.4205C90.2898 11.4205 91.0398 11.5919 91.7757 11.9347C92.5257 12.2632 93.1201 12.706 93.5588 13.2631V7.56396H95.9999V23.4186H93.5588V21.6403C93.1625 22.2117 92.6106 22.683 91.903 23.0544C91.2096 23.4258 90.41 23.6114 89.5043 23.6114C88.4854 23.6114 87.5514 23.3543 86.7023 22.8401C85.8674 22.3116 85.2023 21.5832 84.707 20.6548C84.2258 19.7121 83.9852 18.6479 83.9852 17.4624ZM93.5588 17.5053C93.5588 16.6911 93.3889 15.9841 93.0493 15.3842C92.7238 14.7843 92.2922 14.3272 91.7544 14.013C91.2167 13.6987 90.6365 13.5416 90.0138 13.5416C89.3911 13.5416 88.8109 13.6987 88.2732 14.013C87.7354 14.3129 87.2967 14.7628 86.9571 15.3627C86.6316 15.9484 86.4688 16.6483 86.4688 17.4624C86.4688 18.2766 86.6316 18.9907 86.9571 19.6049C87.2967 20.2191 87.7354 20.6905 88.2732 21.019C88.8251 21.3332 89.4053 21.4903 90.0138 21.4903C90.6365 21.4903 91.2167 21.3332 91.7544 21.019C92.2922 20.7048 92.7238 20.2477 93.0493 19.6478C93.3889 19.0336 93.5588 18.3194 93.5588 17.5053Z" fill="#200C39"/>
</svg>
