<svg xmlns="http://www.w3.org/2000/svg" width="280" height="256" viewBox="0 0 280 256" fill="none"><mask id="path-1-inside-1" fill="white"><path fill-rule="evenodd" clip-rule="evenodd" d="M273.671 120.352C274.922 120.352 276.146 120.723 277.187 121.419C278.228 122.114 279.039 123.103 279.518 124.259C279.997 125.416 280.123 126.688 279.878 127.916C279.634 129.144 279.031 130.272 278.146 131.157C277.261 132.042 276.133 132.645 274.905 132.889C273.678 133.133 272.405 133.008 271.249 132.529C270.092 132.05 269.103 131.239 268.408 130.198C267.712 129.157 267.341 127.933 267.341 126.681C267.359 125.008 268.032 123.409 269.215 122.226C270.398 121.042 271.997 120.37 273.671 120.352ZM206.881 234.943C208.139 234.939 209.371 235.308 210.419 236.004C211.467 236.7 212.285 237.692 212.768 238.854C213.252 240.016 213.379 241.295 213.135 242.529C212.891 243.763 212.285 244.897 211.396 245.787C210.506 246.677 209.372 247.282 208.137 247.527C206.903 247.771 205.624 247.643 204.462 247.16C203.301 246.676 202.309 245.858 201.613 244.81C200.916 243.762 200.547 242.531 200.552 241.273C200.569 239.599 201.242 238 202.425 236.817C203.608 235.634 205.208 234.961 206.881 234.943ZM73.2789 235.514C74.5362 235.51 75.7666 235.879 76.8142 236.574C77.8618 237.269 78.6796 238.26 79.1639 239.42C79.6482 240.58 79.7772 241.858 79.5347 243.092C79.2922 244.326 78.689 245.46 77.8016 246.35C76.9141 247.241 75.7823 247.848 74.5495 248.095C73.3166 248.342 72.0382 248.218 70.8762 247.737C69.7141 247.257 68.7207 246.443 68.0217 245.398C67.3227 244.353 66.9496 243.124 66.9496 241.867C66.9614 240.19 67.6314 238.584 68.8152 237.396C69.9989 236.208 71.6019 235.532 73.2789 235.514ZM6.32935 120.923C7.58667 120.919 8.81705 121.287 9.86466 121.983C10.9123 122.678 11.73 123.668 12.2143 124.829C12.6986 125.989 12.8277 127.267 12.5851 128.501C12.3426 129.734 11.7394 130.868 10.852 131.759C9.96452 132.65 8.83271 133.257 7.59988 133.504C6.36705 133.751 5.08867 133.626 3.92663 133.146C2.76458 132.666 1.77115 131.852 1.07214 130.807C0.373137 129.762 8.13444e-06 128.533 0 127.275C0.0118837 125.598 0.681809 123.993 1.86558 122.805C3.04936 121.617 4.65231 120.941 6.32935 120.923ZM206.721 6.33213C207.986 6.29573 209.232 6.6377 210.301 7.31421C211.37 7.99073 212.212 8.97098 212.721 10.1294C213.229 11.2878 213.38 12.5715 213.154 13.8162C212.928 15.0608 212.336 16.2097 211.453 17.1156C210.57 18.0214 209.436 18.643 208.198 18.9007C206.959 19.1584 205.672 19.0405 204.501 18.562C203.33 18.0835 202.329 17.2663 201.625 16.2151C200.921 15.1639 200.548 13.9265 200.552 12.6615C200.569 10.9884 201.242 9.38881 202.425 8.20567C203.608 7.02252 205.208 6.34996 206.881 6.33213H206.721ZM72.5934 6.85767C73.8507 6.85315 75.0811 7.22185 76.1287 7.91708C77.1764 8.61232 77.9941 9.60281 78.4784 10.7631C78.9627 11.9234 79.0917 13.2014 78.8492 14.4351C78.6067 15.6688 78.0035 16.8028 77.1161 17.6934C76.2286 18.5841 75.0968 19.1914 73.864 19.4383C72.6311 19.6853 71.3528 19.5608 70.1907 19.0807C69.0287 18.6006 68.0352 17.7864 67.3362 16.7413C66.6372 15.6962 66.2641 14.4672 66.2641 13.2099C66.276 11.5328 66.9459 9.92741 68.1297 8.73937C69.3134 7.55132 70.9164 6.8756 72.5934 6.85767ZM90.439 202.085C92.3797 202.081 94.2781 202.652 95.8936 203.728C97.5091 204.803 98.7691 206.334 99.5138 208.126C100.259 209.918 100.455 211.891 100.077 213.795C99.6996 215.698 98.7655 217.447 97.3933 218.819C96.021 220.192 94.2723 221.126 92.3686 221.503C90.465 221.881 88.4921 221.685 86.7001 220.94C84.9079 220.195 83.3772 218.935 82.3019 217.32C81.2265 215.704 80.6548 213.806 80.6594 211.865C80.6502 210.578 80.897 209.302 81.3852 208.112C81.8735 206.921 82.5935 205.839 83.5034 204.929C84.4134 204.019 85.4951 203.299 86.6858 202.811C87.8764 202.323 89.1522 202.076 90.439 202.085ZM188.921 201.514C190.854 201.519 192.743 202.096 194.348 203.173C195.953 204.251 197.203 205.78 197.94 207.567C198.677 209.354 198.867 211.32 198.487 213.216C198.107 215.111 197.174 216.852 195.805 218.217C194.437 219.583 192.694 220.512 190.798 220.887C188.901 221.263 186.936 221.068 185.151 220.327C183.365 219.586 181.839 218.332 180.765 216.725C179.692 215.117 179.119 213.227 179.119 211.294C179.106 210.004 179.352 208.725 179.84 207.532C180.329 206.338 181.051 205.254 181.964 204.343C182.877 203.432 183.963 202.713 185.157 202.227C186.352 201.741 187.632 201.499 188.921 201.514ZM237.865 117.427C239.798 117.445 241.682 118.034 243.281 119.12C244.88 120.206 246.122 121.741 246.852 123.531C247.581 125.321 247.765 127.287 247.38 129.181C246.995 131.075 246.059 132.813 244.689 134.177C243.319 135.54 241.577 136.469 239.681 136.845C237.785 137.221 235.82 137.028 234.033 136.29C232.247 135.553 230.718 134.303 229.639 132.699C228.561 131.095 227.98 129.208 227.971 127.275C227.959 125.985 228.204 124.705 228.693 123.51C229.181 122.315 229.902 121.23 230.815 120.317C231.728 119.404 232.813 118.683 234.008 118.194C235.203 117.706 236.483 117.461 237.774 117.473L237.865 117.427ZM188.35 33.409C190.283 33.4135 192.172 33.9909 193.777 35.0683C195.382 36.1456 196.632 37.6746 197.369 39.4619C198.106 41.2493 198.296 43.215 197.916 45.1105C197.536 47.0061 196.603 48.7465 195.234 50.112C193.866 51.4774 192.123 52.4065 190.227 52.7821C188.33 53.1576 186.365 52.9626 184.579 52.2217C182.794 51.4808 181.268 50.2273 180.194 48.6196C179.12 47.0118 178.547 45.1219 178.547 43.1887C178.538 41.8999 178.786 40.6222 179.275 39.43C179.765 38.2379 180.487 37.1551 181.399 36.2449C182.312 35.3346 183.396 34.6151 184.59 34.1282C185.783 33.6413 187.061 33.3968 188.35 33.409ZM89.8678 33.409C91.802 33.409 93.6928 33.9826 95.3011 35.0572C96.9093 36.1318 98.1628 37.6591 98.903 39.4461C99.6432 41.2331 99.8369 43.1995 99.4595 45.0966C99.0822 46.9936 98.1507 48.7362 96.783 50.1039C95.4153 51.4716 93.6728 52.4031 91.7757 52.7804C89.8786 53.1578 87.9123 52.9641 86.1253 52.2239C84.3383 51.4837 82.8109 50.2302 81.7363 48.6219C80.6617 47.0137 80.0881 45.1229 80.0881 43.1887C80.0759 41.901 80.3205 40.6238 80.8077 39.4318C81.2948 38.2397 82.0148 37.1568 82.9253 36.2462C83.8359 35.3356 84.9188 34.6157 86.1109 34.1286C87.3029 33.6414 88.5801 33.3968 89.8678 33.409ZM40.9238 117.953C42.8546 117.949 44.7437 118.515 46.354 119.581C47.9642 120.646 49.2239 122.163 49.975 123.942C50.7261 125.721 50.9351 127.682 50.5758 129.579C50.2165 131.476 49.3049 133.225 47.9555 134.606C46.606 135.987 44.8787 136.939 42.9903 137.342C41.102 137.745 39.1367 137.581 37.341 136.871C35.5453 136.162 33.9992 134.937 32.8968 133.352C31.7943 131.767 31.1846 129.891 31.1441 127.961C31.1319 126.672 31.3764 125.394 31.8633 124.201C32.3502 123.007 33.0697 121.923 33.98 121.011C34.8902 120.098 35.973 119.376 37.1652 118.886C38.3573 118.397 39.635 118.149 40.9238 118.158V117.953ZM138.858 238.988C140.454 238.988 142.014 239.461 143.341 240.349C144.668 241.236 145.702 242.497 146.312 243.972C146.921 245.447 147.08 247.07 146.767 248.636C146.454 250.201 145.683 251.638 144.553 252.765C143.423 253.892 141.983 254.659 140.417 254.967C138.851 255.276 137.228 255.113 135.755 254.499C134.281 253.885 133.023 252.848 132.14 251.518C131.256 250.189 130.787 248.627 130.792 247.031C130.766 245.966 130.958 244.907 131.355 243.918C131.752 242.929 132.345 242.031 133.099 241.279C133.854 240.527 134.753 239.936 135.743 239.542C136.733 239.148 137.793 238.959 138.858 238.988ZM244.195 179.099C245.79 179.099 247.349 179.572 248.676 180.458C250.002 181.344 251.036 182.604 251.646 184.078C252.257 185.552 252.417 187.173 252.106 188.738C251.794 190.303 251.026 191.74 249.898 192.868C248.77 193.996 247.333 194.764 245.768 195.075C244.203 195.387 242.582 195.227 241.108 194.616C239.634 194.006 238.374 192.972 237.488 191.646C236.602 190.319 236.129 188.76 236.129 187.165C236.1 186.098 236.29 185.036 236.685 184.045C237.08 183.053 237.673 182.153 238.428 181.398C239.183 180.643 240.083 180.05 241.075 179.655C242.066 179.26 243.128 179.07 244.195 179.099ZM33.9775 179.67C35.5737 179.665 37.1354 180.135 38.4649 181.018C39.7943 181.902 40.8317 183.16 41.4457 184.633C42.0597 186.107 42.2227 187.729 41.914 189.295C41.6054 190.861 40.839 192.301 39.7119 193.431C38.5848 194.561 37.1476 195.332 35.5823 195.645C34.0171 195.958 32.3941 195.8 30.9189 195.19C29.4437 194.58 28.1826 193.546 27.2953 192.219C26.408 190.892 25.9344 189.332 25.9344 187.736C25.9062 186.671 26.0948 185.611 26.4888 184.621C26.8827 183.632 27.4737 182.732 28.226 181.978C28.9782 181.223 29.876 180.63 30.8647 180.233C31.8534 179.836 32.9124 179.645 33.9775 179.67ZM138.858 0.00276361C139.924 -0.0255356 140.986 0.163752 141.977 0.559086C142.969 0.954421 143.869 1.54752 144.624 2.30223C145.379 3.05693 145.972 3.95743 146.367 4.94883C146.762 5.94023 146.952 7.00176 146.923 8.0687C146.923 10.2079 146.074 12.2595 144.561 13.7722C143.048 15.2848 140.997 16.1346 138.858 16.1346C136.718 16.1346 134.667 15.2848 133.154 13.7722C131.641 12.2595 130.792 10.2079 130.792 8.0687C130.767 7.00263 130.958 5.94256 131.355 4.95264C131.751 3.96273 132.344 3.06355 133.098 2.30951C133.852 1.55548 134.752 0.962263 135.741 0.565768C136.731 0.169274 137.791 -0.0222573 138.858 0.00276361ZM34.0003 59.4119C35.5975 59.4074 37.1602 59.8772 38.4901 60.7618C39.82 61.6463 40.8574 62.9058 41.4707 64.3806C42.084 65.8554 42.2457 67.4791 41.9352 69.0458C41.6247 70.6126 40.856 72.0519 39.7266 73.1813C38.5972 74.3107 37.1579 75.0794 35.5911 75.3899C34.0244 75.7004 32.4007 75.5387 30.9259 74.9254C29.4511 74.3121 28.1916 73.2747 27.3071 71.9448C26.4225 70.6149 25.9527 69.0523 25.9572 67.455C25.9322 66.392 26.1231 65.3348 26.5185 64.3477C26.9138 63.3606 27.5054 62.4639 28.2573 61.712C29.0092 60.9601 29.9059 60.3685 30.893 59.9732C31.8801 59.5778 32.9372 59.3869 34.0003 59.4119ZM244.217 59.4119C245.814 59.4119 247.374 59.8856 248.701 60.7729C250.028 61.6602 251.062 62.9213 251.671 64.3965C252.281 65.8717 252.44 67.4946 252.127 69.0599C251.814 70.6251 251.043 72.0623 249.913 73.1894C248.782 74.3166 247.343 75.083 245.777 75.3916C244.211 75.7002 242.588 75.5372 241.115 74.9232C239.641 74.3092 238.383 73.2719 237.5 71.9424C236.616 70.613 236.147 69.0513 236.151 67.455C236.126 66.392 236.317 65.3348 236.713 64.3477C237.108 63.3606 237.7 62.4639 238.451 61.712C239.203 60.9601 240.1 60.3685 241.087 59.9732C242.074 59.5778 243.131 59.3869 244.195 59.4119H244.217ZM73.1647 153.758C75.4243 153.758 77.6332 154.428 79.512 155.684C81.3908 156.939 82.8551 158.723 83.7199 160.811C84.5846 162.899 84.8108 165.196 84.37 167.412C83.9292 169.628 82.8411 171.664 81.2433 173.262C79.6455 174.859 77.6097 175.948 75.3935 176.388C73.1773 176.829 70.8802 176.603 68.7926 175.738C66.705 174.874 64.9206 173.409 63.6653 171.53C62.4099 169.652 61.7398 167.443 61.7398 165.183C61.7696 162.162 62.9828 159.274 65.119 157.137C67.2551 155.001 70.1438 153.788 73.1647 153.758ZM138.241 191.186C140.5 191.186 142.709 191.856 144.588 193.111C146.467 194.367 147.931 196.151 148.796 198.239C149.66 200.326 149.887 202.624 149.446 204.84C149.005 207.056 147.917 209.092 146.319 210.689C144.721 212.287 142.686 213.375 140.469 213.816C138.253 214.257 135.956 214.031 133.868 213.166C131.781 212.301 129.997 210.837 128.741 208.958C127.486 207.079 126.816 204.871 126.816 202.611C126.851 199.592 128.066 196.707 130.201 194.572C132.336 192.437 135.222 191.222 138.241 191.186ZM205.122 153.758C207.381 153.758 209.59 154.428 211.469 155.684C213.348 156.939 214.812 158.723 215.677 160.811C216.541 162.899 216.768 165.196 216.327 167.412C215.886 169.628 214.798 171.664 213.2 173.262C211.602 174.859 209.567 175.948 207.35 176.388C205.134 176.829 202.837 176.603 200.749 175.738C198.662 174.874 196.878 173.409 195.622 171.53C194.367 169.652 193.697 167.443 193.697 165.183C193.697 162.153 194.9 159.247 197.043 157.105C199.186 154.962 202.092 153.758 205.122 153.758ZM138.858 41.4521C141.117 41.4521 143.326 42.1221 145.205 43.3775C147.084 44.6329 148.548 46.4172 149.413 48.5048C150.277 50.5924 150.504 52.8896 150.063 55.1058C149.622 57.322 148.534 59.3577 146.936 60.9555C145.338 62.5533 143.303 63.6414 141.086 64.0822C138.87 64.5231 136.573 64.2968 134.485 63.4321C132.398 62.5674 130.613 61.103 129.358 59.2242C128.103 57.3454 127.433 55.1365 127.433 52.8769C127.468 49.8579 128.683 46.9726 130.818 44.8377C132.953 42.7028 135.839 41.4877 138.858 41.4521ZM205.122 78.9027C207.381 78.9027 209.59 79.5728 211.469 80.8281C213.348 82.0835 214.812 83.8678 215.677 85.9555C216.541 88.0431 216.768 90.3402 216.327 92.5564C215.886 94.7726 214.798 96.8083 213.2 98.4061C211.602 100.004 209.567 101.092 207.35 101.533C205.134 101.974 202.837 101.747 200.749 100.883C198.662 100.018 196.878 98.5537 195.622 96.6749C194.367 94.796 193.697 92.5872 193.697 90.3276C193.697 87.2975 194.9 84.3915 197.043 82.249C199.186 80.1064 202.092 78.9027 205.122 78.9027ZM73.8273 79.474C76.0869 79.474 78.2958 80.144 80.1746 81.3994C82.0534 82.6548 83.5178 84.4391 84.3825 86.5267C85.2472 88.6143 85.4734 90.9115 85.0326 93.1277C84.5918 95.3439 83.5037 97.3796 81.9059 98.9774C80.3081 100.575 78.2724 101.663 76.0562 102.104C73.84 102.545 71.5428 102.319 69.4552 101.454C67.3676 100.589 65.5833 99.1249 64.3279 97.2461C63.0725 95.3673 62.4025 93.1584 62.4025 90.8988C62.4322 87.878 63.6455 84.9893 65.7816 82.8531C67.9178 80.717 70.8065 79.5037 73.8273 79.474ZM117.607 71.408C121.255 71.408 124.821 72.4901 127.854 74.5173C130.887 76.5444 133.251 79.4257 134.646 82.7964C136.041 86.1672 136.404 89.876 135.691 93.4535C134.978 97.0311 133.219 100.317 130.638 102.895C128.057 105.473 124.769 107.227 121.191 107.936C117.612 108.645 113.904 108.276 110.535 106.877C107.166 105.478 104.288 103.111 102.264 100.076C100.241 97.0402 99.1631 93.4729 99.1676 89.8249C99.1976 84.9457 101.151 80.2753 104.603 76.8273C108.055 73.3793 112.728 71.432 117.607 71.408ZM95.1461 110.001C98.7886 110.001 102.349 111.081 105.378 113.105C108.407 115.129 110.767 118.005 112.161 121.37C113.555 124.735 113.92 128.438 113.209 132.011C112.498 135.583 110.744 138.865 108.169 141.441C105.593 144.016 102.312 145.77 98.739 146.481C95.1665 147.192 91.4635 146.827 88.0982 145.433C84.733 144.039 81.8567 141.678 79.833 138.65C77.8093 135.621 76.7292 132.06 76.7292 128.418C76.7651 123.545 78.717 118.881 82.1631 115.435C85.6091 111.989 90.2727 110.037 95.1461 110.001ZM117.036 148C120.684 148 124.25 149.082 127.283 151.109C130.316 153.137 132.679 156.018 134.074 159.389C135.469 162.759 135.833 166.468 135.12 170.046C134.406 173.623 132.648 176.909 130.067 179.487C127.486 182.065 124.198 183.819 120.619 184.528C117.041 185.237 113.333 184.868 109.964 183.469C106.595 182.07 103.716 179.703 101.693 176.668C99.6695 173.632 98.5919 170.065 98.5964 166.417C98.6323 161.54 100.587 156.873 104.038 153.426C107.489 149.979 112.159 148.03 117.036 148ZM161.364 148C165.013 147.996 168.582 149.074 171.618 151.098C174.653 153.123 177.02 156.002 178.419 159.373C179.817 162.743 180.185 166.453 179.474 170.032C178.763 173.611 177.006 176.898 174.426 179.479C171.846 182.059 168.558 183.816 164.979 184.526C161.4 185.237 157.691 184.87 154.32 183.472C150.95 182.073 148.07 179.706 146.046 176.67C144.021 173.634 142.943 170.066 142.948 166.417C142.983 161.544 144.935 156.88 148.381 153.434C151.828 149.988 156.491 148.036 161.364 148ZM183.826 110.001C187.467 110.006 191.026 111.09 194.051 113.116C197.077 115.142 199.434 118.02 200.824 121.386C202.215 124.752 202.576 128.454 201.863 132.025C201.15 135.596 199.394 138.875 196.817 141.449C194.241 144.022 190.959 145.774 187.387 146.483C183.815 147.191 180.114 146.825 176.75 145.431C173.386 144.036 170.511 141.676 168.488 138.647C166.466 135.619 165.386 132.06 165.386 128.418C165.416 123.539 167.369 118.868 170.821 115.42C174.274 111.972 178.946 110.025 183.826 110.001ZM161.273 71.9793C164.921 71.9747 168.488 73.0524 171.524 75.0758C174.559 77.0992 176.926 79.9775 178.325 83.3465C179.725 86.7155 180.093 90.4239 179.384 94.0023C178.675 97.5808 176.921 100.869 174.343 103.45C171.765 106.031 168.479 107.789 164.902 108.503C161.324 109.216 157.615 108.852 154.245 107.457C150.874 106.062 147.993 103.699 145.965 100.666C143.938 97.633 142.856 94.0669 142.856 90.419C142.886 85.5416 144.835 80.8722 148.282 77.4212C151.729 73.9702 156.396 72.0152 161.273 71.9793Z"></path></mask><path fill-rule="evenodd" clip-rule="evenodd" d="M273.671 120.352C274.922 120.352 276.146 120.723 277.187 121.419C278.228 122.114 279.039 123.103 279.518 124.259C279.997 125.416 280.123 126.688 279.878 127.916C279.634 129.144 279.031 130.272 278.146 131.157C277.261 132.042 276.133 132.645 274.905 132.889C273.678 133.133 272.405 133.008 271.249 132.529C270.092 132.05 269.103 131.239 268.408 130.198C267.712 129.157 267.341 127.933 267.341 126.681C267.359 125.008 268.032 123.409 269.215 122.226C270.398 121.042 271.997 120.37 273.671 120.352ZM206.881 234.943C208.139 234.939 209.371 235.308 210.419 236.004C211.467 236.7 212.285 237.692 212.768 238.854C213.252 240.016 213.379 241.295 213.135 242.529C212.891 243.763 212.285 244.897 211.396 245.787C210.506 246.677 209.372 247.282 208.137 247.527C206.903 247.771 205.624 247.643 204.462 247.16C203.301 246.676 202.309 245.858 201.613 244.81C200.916 243.762 200.547 242.531 200.552 241.273C200.569 239.599 201.242 238 202.425 236.817C203.608 235.634 205.208 234.961 206.881 234.943ZM73.2789 235.514C74.5362 235.51 75.7666 235.879 76.8142 236.574C77.8618 237.269 78.6796 238.26 79.1639 239.42C79.6482 240.58 79.7772 241.858 79.5347 243.092C79.2922 244.326 78.689 245.46 77.8016 246.35C76.9141 247.241 75.7823 247.848 74.5495 248.095C73.3166 248.342 72.0382 248.218 70.8762 247.737C69.7141 247.257 68.7207 246.443 68.0217 245.398C67.3227 244.353 66.9496 243.124 66.9496 241.867C66.9614 240.19 67.6314 238.584 68.8152 237.396C69.9989 236.208 71.6019 235.532 73.2789 235.514ZM6.32935 120.923C7.58667 120.919 8.81705 121.287 9.86466 121.983C10.9123 122.678 11.73 123.668 12.2143 124.829C12.6986 125.989 12.8277 127.267 12.5851 128.501C12.3426 129.734 11.7394 130.868 10.852 131.759C9.96452 132.65 8.83271 133.257 7.59988 133.504C6.36705 133.751 5.08867 133.626 3.92663 133.146C2.76458 132.666 1.77115 131.852 1.07214 130.807C0.373137 129.762 8.13444e-06 128.533 0 127.275C0.0118837 125.598 0.681809 123.993 1.86558 122.805C3.04936 121.617 4.65231 120.941 6.32935 120.923ZM206.721 6.33213C207.986 6.29573 209.232 6.6377 210.301 7.31421C211.37 7.99073 212.212 8.97098 212.721 10.1294C213.229 11.2878 213.38 12.5715 213.154 13.8162C212.928 15.0608 212.336 16.2097 211.453 17.1156C210.57 18.0214 209.436 18.643 208.198 18.9007C206.959 19.1584 205.672 19.0405 204.501 18.562C203.33 18.0835 202.329 17.2663 201.625 16.2151C200.921 15.1639 200.548 13.9265 200.552 12.6615C200.569 10.9884 201.242 9.38881 202.425 8.20567C203.608 7.02252 205.208 6.34996 206.881 6.33213H206.721ZM72.5934 6.85767C73.8507 6.85315 75.0811 7.22185 76.1287 7.91708C77.1764 8.61232 77.9941 9.60281 78.4784 10.7631C78.9627 11.9234 79.0917 13.2014 78.8492 14.4351C78.6067 15.6688 78.0035 16.8028 77.1161 17.6934C76.2286 18.5841 75.0968 19.1914 73.864 19.4383C72.6311 19.6853 71.3528 19.5608 70.1907 19.0807C69.0287 18.6006 68.0352 17.7864 67.3362 16.7413C66.6372 15.6962 66.2641 14.4672 66.2641 13.2099C66.276 11.5328 66.9459 9.92741 68.1297 8.73937C69.3134 7.55132 70.9164 6.8756 72.5934 6.85767ZM90.439 202.085C92.3797 202.081 94.2781 202.652 95.8936 203.728C97.5091 204.803 98.7691 206.334 99.5138 208.126C100.259 209.918 100.455 211.891 100.077 213.795C99.6996 215.698 98.7655 217.447 97.3933 218.819C96.021 220.192 94.2723 221.126 92.3686 221.503C90.465 221.881 88.4921 221.685 86.7001 220.94C84.9079 220.195 83.3772 218.935 82.3019 217.32C81.2265 215.704 80.6548 213.806 80.6594 211.865C80.6502 210.578 80.897 209.302 81.3852 208.112C81.8735 206.921 82.5935 205.839 83.5034 204.929C84.4134 204.019 85.4951 203.299 86.6858 202.811C87.8764 202.323 89.1522 202.076 90.439 202.085ZM188.921 201.514C190.854 201.519 192.743 202.096 194.348 203.173C195.953 204.251 197.203 205.78 197.94 207.567C198.677 209.354 198.867 211.32 198.487 213.216C198.107 215.111 197.174 216.852 195.805 218.217C194.437 219.583 192.694 220.512 190.798 220.887C188.901 221.263 186.936 221.068 185.151 220.327C183.365 219.586 181.839 218.332 180.765 216.725C179.692 215.117 179.119 213.227 179.119 211.294C179.106 210.004 179.352 208.725 179.84 207.532C180.329 206.338 181.051 205.254 181.964 204.343C182.877 203.432 183.963 202.713 185.157 202.227C186.352 201.741 187.632 201.499 188.921 201.514ZM237.865 117.427C239.798 117.445 241.682 118.034 243.281 119.12C244.88 120.206 246.122 121.741 246.852 123.531C247.581 125.321 247.765 127.287 247.38 129.181C246.995 131.075 246.059 132.813 244.689 134.177C243.319 135.54 241.577 136.469 239.681 136.845C237.785 137.221 235.82 137.028 234.033 136.29C232.247 135.553 230.718 134.303 229.639 132.699C228.561 131.095 227.98 129.208 227.971 127.275C227.959 125.985 228.204 124.705 228.693 123.51C229.181 122.315 229.902 121.23 230.815 120.317C231.728 119.404 232.813 118.683 234.008 118.194C235.203 117.706 236.483 117.461 237.774 117.473L237.865 117.427ZM188.35 33.409C190.283 33.4135 192.172 33.9909 193.777 35.0683C195.382 36.1456 196.632 37.6746 197.369 39.4619C198.106 41.2493 198.296 43.215 197.916 45.1105C197.536 47.0061 196.603 48.7465 195.234 50.112C193.866 51.4774 192.123 52.4065 190.227 52.7821C188.33 53.1576 186.365 52.9626 184.579 52.2217C182.794 51.4808 181.268 50.2273 180.194 48.6196C179.12 47.0118 178.547 45.1219 178.547 43.1887C178.538 41.8999 178.786 40.6222 179.275 39.43C179.765 38.2379 180.487 37.1551 181.399 36.2449C182.312 35.3346 183.396 34.6151 184.59 34.1282C185.783 33.6413 187.061 33.3968 188.35 33.409ZM89.8678 33.409C91.802 33.409 93.6928 33.9826 95.3011 35.0572C96.9093 36.1318 98.1628 37.6591 98.903 39.4461C99.6432 41.2331 99.8369 43.1995 99.4595 45.0966C99.0822 46.9936 98.1507 48.7362 96.783 50.1039C95.4153 51.4716 93.6728 52.4031 91.7757 52.7804C89.8786 53.1578 87.9123 52.9641 86.1253 52.2239C84.3383 51.4837 82.8109 50.2302 81.7363 48.6219C80.6617 47.0137 80.0881 45.1229 80.0881 43.1887C80.0759 41.901 80.3205 40.6238 80.8077 39.4318C81.2948 38.2397 82.0148 37.1568 82.9253 36.2462C83.8359 35.3356 84.9188 34.6157 86.1109 34.1286C87.3029 33.6414 88.5801 33.3968 89.8678 33.409ZM40.9238 117.953C42.8546 117.949 44.7437 118.515 46.354 119.581C47.9642 120.646 49.2239 122.163 49.975 123.942C50.7261 125.721 50.9351 127.682 50.5758 129.579C50.2165 131.476 49.3049 133.225 47.9555 134.606C46.606 135.987 44.8787 136.939 42.9903 137.342C41.102 137.745 39.1367 137.581 37.341 136.871C35.5453 136.162 33.9992 134.937 32.8968 133.352C31.7943 131.767 31.1846 129.891 31.1441 127.961C31.1319 126.672 31.3764 125.394 31.8633 124.201C32.3502 123.007 33.0697 121.923 33.98 121.011C34.8902 120.098 35.973 119.376 37.1652 118.886C38.3573 118.397 39.635 118.149 40.9238 118.158V117.953ZM138.858 238.988C140.454 238.988 142.014 239.461 143.341 240.349C144.668 241.236 145.702 242.497 146.312 243.972C146.921 245.447 147.08 247.07 146.767 248.636C146.454 250.201 145.683 251.638 144.553 252.765C143.423 253.892 141.983 254.659 140.417 254.967C138.851 255.276 137.228 255.113 135.755 254.499C134.281 253.885 133.023 252.848 132.14 251.518C131.256 250.189 130.787 248.627 130.792 247.031C130.766 245.966 130.958 244.907 131.355 243.918C131.752 242.929 132.345 242.031 133.099 241.279C133.854 240.527 134.753 239.936 135.743 239.542C136.733 239.148 137.793 238.959 138.858 238.988ZM244.195 179.099C245.79 179.099 247.349 179.572 248.676 180.458C250.002 181.344 251.036 182.604 251.646 184.078C252.257 185.552 252.417 187.173 252.106 188.738C251.794 190.303 251.026 191.74 249.898 192.868C248.77 193.996 247.333 194.764 245.768 195.075C244.203 195.387 242.582 195.227 241.108 194.616C239.634 194.006 238.374 192.972 237.488 191.646C236.602 190.319 236.129 188.76 236.129 187.165C236.1 186.098 236.29 185.036 236.685 184.045C237.08 183.053 237.673 182.153 238.428 181.398C239.183 180.643 240.083 180.05 241.075 179.655C242.066 179.26 243.128 179.07 244.195 179.099ZM33.9775 179.67C35.5737 179.665 37.1354 180.135 38.4649 181.018C39.7943 181.902 40.8317 183.16 41.4457 184.633C42.0597 186.107 42.2227 187.729 41.914 189.295C41.6054 190.861 40.839 192.301 39.7119 193.431C38.5848 194.561 37.1476 195.332 35.5823 195.645C34.0171 195.958 32.3941 195.8 30.9189 195.19C29.4437 194.58 28.1826 193.546 27.2953 192.219C26.408 190.892 25.9344 189.332 25.9344 187.736C25.9062 186.671 26.0948 185.611 26.4888 184.621C26.8827 183.632 27.4737 182.732 28.226 181.978C28.9782 181.223 29.876 180.63 30.8647 180.233C31.8534 179.836 32.9124 179.645 33.9775 179.67ZM138.858 0.00276361C139.924 -0.0255356 140.986 0.163752 141.977 0.559086C142.969 0.954421 143.869 1.54752 144.624 2.30223C145.379 3.05693 145.972 3.95743 146.367 4.94883C146.762 5.94023 146.952 7.00176 146.923 8.0687C146.923 10.2079 146.074 12.2595 144.561 13.7722C143.048 15.2848 140.997 16.1346 138.858 16.1346C136.718 16.1346 134.667 15.2848 133.154 13.7722C131.641 12.2595 130.792 10.2079 130.792 8.0687C130.767 7.00263 130.958 5.94256 131.355 4.95264C131.751 3.96273 132.344 3.06355 133.098 2.30951C133.852 1.55548 134.752 0.962263 135.741 0.565768C136.731 0.169274 137.791 -0.0222573 138.858 0.00276361ZM34.0003 59.4119C35.5975 59.4074 37.1602 59.8772 38.4901 60.7618C39.82 61.6463 40.8574 62.9058 41.4707 64.3806C42.084 65.8554 42.2457 67.4791 41.9352 69.0458C41.6247 70.6126 40.856 72.0519 39.7266 73.1813C38.5972 74.3107 37.1579 75.0794 35.5911 75.3899C34.0244 75.7004 32.4007 75.5387 30.9259 74.9254C29.4511 74.3121 28.1916 73.2747 27.3071 71.9448C26.4225 70.6149 25.9527 69.0523 25.9572 67.455C25.9322 66.392 26.1231 65.3348 26.5185 64.3477C26.9138 63.3606 27.5054 62.4639 28.2573 61.712C29.0092 60.9601 29.9059 60.3685 30.893 59.9732C31.8801 59.5778 32.9372 59.3869 34.0003 59.4119ZM244.217 59.4119C245.814 59.4119 247.374 59.8856 248.701 60.7729C250.028 61.6602 251.062 62.9213 251.671 64.3965C252.281 65.8717 252.44 67.4946 252.127 69.0599C251.814 70.6251 251.043 72.0623 249.913 73.1894C248.782 74.3166 247.343 75.083 245.777 75.3916C244.211 75.7002 242.588 75.5372 241.115 74.9232C239.641 74.3092 238.383 73.2719 237.5 71.9424C236.616 70.613 236.147 69.0513 236.151 67.455C236.126 66.392 236.317 65.3348 236.713 64.3477C237.108 63.3606 237.7 62.4639 238.451 61.712C239.203 60.9601 240.1 60.3685 241.087 59.9732C242.074 59.5778 243.131 59.3869 244.195 59.4119H244.217ZM73.1647 153.758C75.4243 153.758 77.6332 154.428 79.512 155.684C81.3908 156.939 82.8551 158.723 83.7199 160.811C84.5846 162.899 84.8108 165.196 84.37 167.412C83.9292 169.628 82.8411 171.664 81.2433 173.262C79.6455 174.859 77.6097 175.948 75.3935 176.388C73.1773 176.829 70.8802 176.603 68.7926 175.738C66.705 174.874 64.9206 173.409 63.6653 171.53C62.4099 169.652 61.7398 167.443 61.7398 165.183C61.7696 162.162 62.9828 159.274 65.119 157.137C67.2551 155.001 70.1438 153.788 73.1647 153.758ZM138.241 191.186C140.5 191.186 142.709 191.856 144.588 193.111C146.467 194.367 147.931 196.151 148.796 198.239C149.66 200.326 149.887 202.624 149.446 204.84C149.005 207.056 147.917 209.092 146.319 210.689C144.721 212.287 142.686 213.375 140.469 213.816C138.253 214.257 135.956 214.031 133.868 213.166C131.781 212.301 129.997 210.837 128.741 208.958C127.486 207.079 126.816 204.871 126.816 202.611C126.851 199.592 128.066 196.707 130.201 194.572C132.336 192.437 135.222 191.222 138.241 191.186ZM205.122 153.758C207.381 153.758 209.59 154.428 211.469 155.684C213.348 156.939 214.812 158.723 215.677 160.811C216.541 162.899 216.768 165.196 216.327 167.412C215.886 169.628 214.798 171.664 213.2 173.262C211.602 174.859 209.567 175.948 207.35 176.388C205.134 176.829 202.837 176.603 200.749 175.738C198.662 174.874 196.878 173.409 195.622 171.53C194.367 169.652 193.697 167.443 193.697 165.183C193.697 162.153 194.9 159.247 197.043 157.105C199.186 154.962 202.092 153.758 205.122 153.758ZM138.858 41.4521C141.117 41.4521 143.326 42.1221 145.205 43.3775C147.084 44.6329 148.548 46.4172 149.413 48.5048C150.277 50.5924 150.504 52.8896 150.063 55.1058C149.622 57.322 148.534 59.3577 146.936 60.9555C145.338 62.5533 143.303 63.6414 141.086 64.0822C138.87 64.5231 136.573 64.2968 134.485 63.4321C132.398 62.5674 130.613 61.103 129.358 59.2242C128.103 57.3454 127.433 55.1365 127.433 52.8769C127.468 49.8579 128.683 46.9726 130.818 44.8377C132.953 42.7028 135.839 41.4877 138.858 41.4521ZM205.122 78.9027C207.381 78.9027 209.59 79.5728 211.469 80.8281C213.348 82.0835 214.812 83.8678 215.677 85.9555C216.541 88.0431 216.768 90.3402 216.327 92.5564C215.886 94.7726 214.798 96.8083 213.2 98.4061C211.602 100.004 209.567 101.092 207.35 101.533C205.134 101.974 202.837 101.747 200.749 100.883C198.662 100.018 196.878 98.5537 195.622 96.6749C194.367 94.796 193.697 92.5872 193.697 90.3276C193.697 87.2975 194.9 84.3915 197.043 82.249C199.186 80.1064 202.092 78.9027 205.122 78.9027ZM73.8273 79.474C76.0869 79.474 78.2958 80.144 80.1746 81.3994C82.0534 82.6548 83.5178 84.4391 84.3825 86.5267C85.2472 88.6143 85.4734 90.9115 85.0326 93.1277C84.5918 95.3439 83.5037 97.3796 81.9059 98.9774C80.3081 100.575 78.2724 101.663 76.0562 102.104C73.84 102.545 71.5428 102.319 69.4552 101.454C67.3676 100.589 65.5833 99.1249 64.3279 97.2461C63.0725 95.3673 62.4025 93.1584 62.4025 90.8988C62.4322 87.878 63.6455 84.9893 65.7816 82.8531C67.9178 80.717 70.8065 79.5037 73.8273 79.474ZM117.607 71.408C121.255 71.408 124.821 72.4901 127.854 74.5173C130.887 76.5444 133.251 79.4257 134.646 82.7964C136.041 86.1672 136.404 89.876 135.691 93.4535C134.978 97.0311 133.219 100.317 130.638 102.895C128.057 105.473 124.769 107.227 121.191 107.936C117.612 108.645 113.904 108.276 110.535 106.877C107.166 105.478 104.288 103.111 102.264 100.076C100.241 97.0402 99.1631 93.4729 99.1676 89.8249C99.1976 84.9457 101.151 80.2753 104.603 76.8273C108.055 73.3793 112.728 71.432 117.607 71.408ZM95.1461 110.001C98.7886 110.001 102.349 111.081 105.378 113.105C108.407 115.129 110.767 118.005 112.161 121.37C113.555 124.735 113.92 128.438 113.209 132.011C112.498 135.583 110.744 138.865 108.169 141.441C105.593 144.016 102.312 145.77 98.739 146.481C95.1665 147.192 91.4635 146.827 88.0982 145.433C84.733 144.039 81.8567 141.678 79.833 138.65C77.8093 135.621 76.7292 132.06 76.7292 128.418C76.7651 123.545 78.717 118.881 82.1631 115.435C85.6091 111.989 90.2727 110.037 95.1461 110.001ZM117.036 148C120.684 148 124.25 149.082 127.283 151.109C130.316 153.137 132.679 156.018 134.074 159.389C135.469 162.759 135.833 166.468 135.12 170.046C134.406 173.623 132.648 176.909 130.067 179.487C127.486 182.065 124.198 183.819 120.619 184.528C117.041 185.237 113.333 184.868 109.964 183.469C106.595 182.07 103.716 179.703 101.693 176.668C99.6695 173.632 98.5919 170.065 98.5964 166.417C98.6323 161.54 100.587 156.873 104.038 153.426C107.489 149.979 112.159 148.03 117.036 148ZM161.364 148C165.013 147.996 168.582 149.074 171.618 151.098C174.653 153.123 177.02 156.002 178.419 159.373C179.817 162.743 180.185 166.453 179.474 170.032C178.763 173.611 177.006 176.898 174.426 179.479C171.846 182.059 168.558 183.816 164.979 184.526C161.4 185.237 157.691 184.87 154.32 183.472C150.95 182.073 148.07 179.706 146.046 176.67C144.021 173.634 142.943 170.066 142.948 166.417C142.983 161.544 144.935 156.88 148.381 153.434C151.828 149.988 156.491 148.036 161.364 148ZM183.826 110.001C187.467 110.006 191.026 111.09 194.051 113.116C197.077 115.142 199.434 118.02 200.824 121.386C202.215 124.752 202.576 128.454 201.863 132.025C201.15 135.596 199.394 138.875 196.817 141.449C194.241 144.022 190.959 145.774 187.387 146.483C183.815 147.191 180.114 146.825 176.75 145.431C173.386 144.036 170.511 141.676 168.488 138.647C166.466 135.619 165.386 132.06 165.386 128.418C165.416 123.539 167.369 118.868 170.821 115.42C174.274 111.972 178.946 110.025 183.826 110.001ZM161.273 71.9793C164.921 71.9747 168.488 73.0524 171.524 75.0758C174.559 77.0992 176.926 79.9775 178.325 83.3465C179.725 86.7155 180.093 90.4239 179.384 94.0023C178.675 97.5808 176.921 100.869 174.343 103.45C171.765 106.031 168.479 107.789 164.902 108.503C161.324 109.216 157.615 108.852 154.245 107.457C150.874 106.062 147.993 103.699 145.965 100.666C143.938 97.633 142.856 94.0669 142.856 90.419C142.886 85.5416 144.835 80.8722 148.282 77.4212C151.729 73.9702 156.396 72.0152 161.273 71.9793Z" stroke="#200C39" stroke-width="2" mask="url(#path-1-inside-1)"></path></svg>