<svg width="28" height="28" viewBox="0 0 28 28" fill="none" xmlns="http://www.w3.org/2000/svg">
<g filter="url(#filter0_d)">
<path fill-rule="evenodd" clip-rule="evenodd" d="M13.9998 23.6948H13.9998C13.1575 23.6835 12.3179 23.5943 11.492 23.4285C11.102 23.3618 10.7021 23.4654 10.3935 23.7131C8.81478 24.8727 6.96126 25.6012 5.01544 25.8267C4.69512 25.8602 4.40822 25.6278 4.37464 25.3075C4.36028 25.1705 4.39488 25.0328 4.47232 24.9189H4.47232C5.22436 23.9823 5.76436 22.8938 6.05509 21.7284C6.11373 21.4102 5.98936 21.0859 5.73298 20.8885C2.89481 18.7802 1.20542 15.4662 1.1665 11.9309C1.1665 5.44192 6.9122 0.166992 13.9998 0.166992C21.0875 0.166992 26.8332 5.44187 26.8332 11.9309C26.8332 18.4199 21.0876 23.6948 13.9998 23.6948H13.9998ZM13.9999 19.417C14.8859 19.417 15.6041 18.6987 15.6041 17.8128C15.6041 16.9268 14.8859 16.2086 13.9999 16.2086C13.114 16.2086 12.3958 16.9268 12.3958 17.8128C12.3958 18.6987 13.114 19.417 13.9999 19.417V19.417ZM13.9999 4.4447C11.6373 4.4447 9.72217 6.12052 9.72217 8.18776V8.18777C9.71787 8.59705 9.76971 9.00499 9.87623 9.4002C9.94148 9.63237 10.1535 9.79258 10.3946 9.79199H11.4806C11.7746 9.79206 12.013 9.55378 12.0131 9.25976C12.0131 9.19984 12.003 9.14035 11.9832 9.0838L11.9832 9.0838C11.8875 8.79489 11.8405 8.49209 11.8442 8.18777C11.8442 7.30179 12.8659 6.5836 13.8995 6.5836C14.9332 6.5836 15.9381 7.30173 15.9381 8.18777C15.9381 10.8516 12.9302 10.5168 12.9302 14.0697C12.9302 14.365 13.1696 14.6044 13.4649 14.6044H14.668C14.9634 14.6044 15.2028 14.365 15.2028 14.0697C15.2028 11.4853 18.2774 11.619 18.2774 8.18777C18.2777 6.12052 16.3628 4.4447 14 4.44475L13.9999 4.4447Z" fill="white"/>
</g>
<defs>
<filter id="filter0_d" x="0.166504" y="0.166992" width="27.6667" height="27.6629" filterUnits="userSpaceOnUse" color-interpolation-filters="sRGB">
<feFlood flood-opacity="0" result="BackgroundImageFix"/>
<feColorMatrix in="SourceAlpha" type="matrix" values="0 0 0 0 0 0 0 0 0 0 0 0 0 0 0 0 0 0 127 0"/>
<feOffset dy="1"/>
<feGaussianBlur stdDeviation="0.5"/>
<feColorMatrix type="matrix" values="0 0 0 0 0.0379656 0 0 0 0 0.211716 0 0 0 0 0.636586 0 0 0 0.277231 0"/>
<feBlend mode="normal" in2="BackgroundImageFix" result="effect1_dropShadow"/>
<feBlend mode="normal" in="SourceGraphic" in2="effect1_dropShadow" result="shape"/>
</filter>
</defs>
</svg>
