<svg width="19" height="15" viewBox="0 0 19 15" fill="none" xmlns="http://www.w3.org/2000/svg">
<path d="M17.0637 1.76289L18.5 0.316579V0H13.5245L9.9785 9.29053L5.94425 0H0.72725V0.316579L2.405 2.44263C2.5685 2.59974 2.654 2.82947 2.63225 3.06079V11.4158C2.684 11.7166 2.591 12.0261 2.39 12.2447L0.5 14.6558V14.9684H5.85875V14.6518L3.96875 12.2447C3.764 12.0253 3.66725 11.7213 3.7085 11.4158V4.18895L8.4125 14.9724H8.95925L13.004 4.18895V12.7792C13.004 13.0058 13.004 13.0524 12.863 13.2008L11.408 14.6826V15H18.467V14.6834L17.0645 13.2379C16.9415 13.14 16.8777 12.9758 16.904 12.8163V2.18447C16.8777 2.02421 16.9407 1.86 17.0637 1.76289V1.76289Z" fill="white"/>
</svg>
