<svg width="24" height="24" viewBox="0 0 24 24" fill="none" xmlns="http://www.w3.org/2000/svg">
<path fill-rule="evenodd" clip-rule="evenodd" d="M21.5452 6.76071C21.5531 6.97477 21.5571 7.18283 21.5571 7.4009C21.5571 14.0089 16.6042 21.6333 7.5495 21.6333C4.76769 21.6333 2.17895 20.805 0 19.3826C0.386143 19.4286 0.776227 19.4526 1.17419 19.4526C3.48317 19.4526 5.60499 18.6543 7.29141 17.3139C5.1361 17.2759 3.31768 15.8255 2.69118 13.8409C2.99064 13.8949 3.29995 13.9269 3.61714 13.9269C4.06633 13.9269 4.50172 13.8689 4.91545 13.7548C2.66163 13.2947 0.963389 11.2741 0.963389 8.85134C0.963389 8.83134 0.963389 8.81533 0.967329 8.78933C1.62929 9.16744 2.38976 9.38951 3.19356 9.41752C1.87358 8.51924 1.00476 6.99078 1.00476 5.25224C1.00476 4.33796 1.24709 3.4777 1.67066 2.73948C4.09785 5.7604 7.72681 7.74901 11.8187 7.96107C11.734 7.59696 11.6946 7.21084 11.6946 6.82272C11.6946 4.05988 13.8953 1.8252 16.616 1.8252C18.0325 1.8252 19.3131 2.43538 20.2095 3.39968C21.3325 3.17761 22.3845 2.76348 23.338 2.19331C22.9696 3.35766 22.1875 4.33796 21.1709 4.95615C22.1678 4.83812 23.1194 4.57204 24 4.16191C23.34 5.17422 22.5047 6.05249 21.5452 6.76071" fill="#CFD9F0"/>
</svg>
