<svg width="75" height="53" viewBox="0 0 75 53" fill="none" xmlns="http://www.w3.org/2000/svg">
<path d="M74.2529 11.5001C74.2529 11.5001 73.5205 6.32924 71.2646 4.05873C68.4082 1.07045 65.2148 1.0558 63.75 0.88002C53.2617 0.118301 37.5147 0.118301 37.5147 0.118301H37.4853C37.4853 0.118301 21.7383 0.118301 11.25 0.88002C9.78516 1.0558 6.5918 1.07045 3.73535 4.05873C1.47949 6.32924 0.761719 11.5001 0.761719 11.5001C0.761719 11.5001 0 17.5792 0 23.6437V29.3273C0 35.3917 0.74707 41.4708 0.74707 41.4708C0.74707 41.4708 1.47949 46.6417 3.7207 48.9122C6.57715 51.9005 10.3271 51.798 11.9971 52.1203C18.0029 52.6915 37.5 52.8673 37.5 52.8673C37.5 52.8673 53.2617 52.838 63.75 52.091C65.2148 51.9152 68.4082 51.9005 71.2646 48.9122C73.5205 46.6417 74.2529 41.4708 74.2529 41.4708C74.2529 41.4708 75 35.4064 75 29.3273V23.6437C75 17.5792 74.2529 11.5001 74.2529 11.5001ZM29.751 36.2267V15.1476L50.0098 25.7238L29.751 36.2267Z" fill="white"/>
</svg>
