<svg width="49" height="48" viewBox="0 0 49 48" fill="none" xmlns="http://www.w3.org/2000/svg">
<path opacity="0.8" d="M13.1169 34.2083C14.0676 35.3404 15.1281 36.0277 15.8922 36.4306C16.2445 36.6155 16.6701 36.3748 16.6998 35.9788C16.7556 35.2479 16.8341 34.6444 16.9824 34.0356C17.2911 32.8408 17.3818 32.4605 18.1074 31.1558C18.7476 30.0481 19.4087 29.2789 19.9355 28.6701C20.4256 28.1032 21.1722 27.2502 22.2676 26.3641C22.8415 25.9368 24.23 24.7838 24.8981 24.2378C25.0481 24.1227 25.3778 23.8663 25.6412 23.636C26.4732 22.9296 27.9245 21.3597 28.5891 20.4736C29.5275 19.2805 29.7019 18.7694 29.8624 18.7694C30.1659 18.8653 29.9897 19.5002 28.671 21.7801C28.296 22.422 27.689 23.3465 27.0785 24.0826C26.1156 25.253 24.1742 26.9275 23.2445 27.7264C21.5734 29.2213 20.4675 30.7336 19.7349 31.9355C19.2447 32.7571 19.0215 33.2961 18.9656 33.4373C18.9081 33.5804 18.6621 34.2014 18.5086 34.9165C17.4586 39.4343 18.854 39.6087 24.08 38.1819C25.8592 37.7301 27.2948 37.2382 28.2629 36.8789C34.3139 33.6763 36.8432 26.1356 35.753 16.6012C35.7565 16.3709 35.3274 11.9159 34.6977 9.63961C34.5825 9.22621 34.0662 9.0919 33.7662 9.39715C31.9207 11.2671 30.1799 12.4201 28.8838 13.1422C25.4999 15.0261 23.8532 14.6946 18.2627 17.346C13.8391 19.3485 10.3976 22.8894 10.7865 28.405C10.8319 29.6714 11.6029 32.4972 13.1169 34.2083Z" fill="white"/>
<path d="M29.407 29.1674L31.1793 25.9265C31.5107 25.3194 32.3828 25.3194 32.7143 25.9265L34.4865 29.1674C34.5667 29.3139 34.6871 29.4343 34.8336 29.5145L38.0746 31.2867C38.6816 31.6182 38.6816 32.4903 38.0746 32.8217L34.8336 34.594C34.6871 34.6742 34.5667 34.7946 34.4865 34.9411L32.7143 38.182C32.3828 38.7891 31.5107 38.7891 31.1793 38.182L29.407 34.9411C29.3268 34.7946 29.2064 34.6742 29.0599 34.594L25.819 32.8217C25.212 32.4903 25.212 31.6182 25.819 31.2867L29.0599 29.5145C29.2064 29.4343 29.3268 29.3139 29.407 29.1674Z" fill="white"/>
<circle cx="24.5" cy="24" r="24" fill="url(#paint0_linear_333_683)"/>
<path opacity="0.75" d="M28.8561 19.9028C36.1457 20.0579 39.6899 28.8786 34.5342 34.0343C29.3785 39.1901 20.5578 35.6459 20.4027 28.3562C20.3025 23.6466 24.1465 19.8026 28.8561 19.9028Z" fill="white"/>
<path opacity="0.75" d="M20.7086 29.0157C13.1139 28.8541 9.42137 19.6643 14.7928 14.2929C20.1643 8.92138 29.3541 12.6139 29.5157 20.2086C29.6201 25.1152 25.6152 29.1201 20.7086 29.0157Z" fill="white"/>
<defs>
<linearGradient id="paint0_linear_333_683" x1="-5.20968" y1="-9.74258" x2="86.4973" y2="54.5432" gradientUnits="userSpaceOnUse">
<stop stop-color="#FFA53B"/>
<stop offset="1" stop-color="#F65CCE"/>
</linearGradient>
</defs>
</svg>
