<svg width="33" height="32" viewBox="0 0 33 32" fill="none" xmlns="http://www.w3.org/2000/svg">
<path fill-rule="evenodd" clip-rule="evenodd" d="M32.8656 16C32.8656 24.8365 25.7023 31.9997 16.8659 31.9997C8.02941 31.9997 0.865723 24.8365 0.865723 16C0.865723 7.16351 8.02941 0.000305176 16.8659 0.000305176C25.7023 0.000305176 32.8656 7.16351 32.8656 16Z" fill="#29296E"/>
<path fill-rule="evenodd" clip-rule="evenodd" d="M24.3113 11.7215L23.9044 10.4646C23.8218 10.2089 23.62 10.01 23.3634 9.93159L22.1003 9.54314C21.9254 9.48975 21.924 9.2431 22.0974 9.18686L23.3549 8.78001C23.61 8.6973 23.809 8.49552 23.8879 8.23893L24.2758 6.97583C24.3293 6.80147 24.5759 6.79959 24.6322 6.97347L25.039 8.23044C25.1217 8.48561 25.3235 8.68453 25.5801 8.76345L26.8431 9.15142C27.018 9.2053 27.0199 9.45149 26.846 9.5077L25.5886 9.91455C25.3334 9.99726 25.1345 10.1995 25.0555 10.4561L24.6676 11.7187C24.6142 11.8936 24.3675 11.8955 24.3113 11.7215Z" fill="#FAFAFA"/>
<path fill-rule="evenodd" clip-rule="evenodd" d="M2.32056 15.7463C2.70095 15.0011 3.45323 14.4398 4.23481 14.0849C5.02442 13.7338 5.89249 13.5183 6.74494 13.4484C8.46591 13.2929 10.1425 13.5807 11.6697 14.0783C12.4565 14.3126 13.1606 14.6382 13.8878 14.9671C14.2413 15.1372 14.5735 15.33 14.9156 15.5162L15.8607 16.0639C16.8984 16.6999 17.9044 17.2632 18.8495 17.7007C19.7969 18.1345 20.6532 18.428 21.4603 18.5778C22.2674 18.7295 23.0877 18.7276 24.0966 18.496C25.0974 18.2697 26.2234 17.7816 27.4006 17.1554C28.5847 16.5288 29.7992 15.7605 31.1847 15.0096C31.0457 16.5789 30.6015 18.0504 29.9079 19.4713C29.1971 20.8753 28.2086 22.2447 26.7673 23.3537C25.3535 24.4718 23.4119 25.251 21.4352 25.3682C19.4576 25.5019 17.5765 25.0662 15.976 24.4108C14.3694 23.746 12.981 22.8722 11.7505 21.9078C11.4108 21.6413 11.2284 21.49 10.9775 21.2779L10.2767 20.664C9.80463 20.2945 9.3472 19.8527 8.87986 19.4865C7.94755 18.7073 7.02515 17.9266 6.01391 17.25C5.50404 16.906 4.97812 16.587 4.38177 16.3044C4.08549 16.1678 3.77078 16.0407 3.43291 15.9405C3.08702 15.8276 2.73545 15.7605 2.32056 15.7463Z" fill="#F6643C"/>
<path fill-rule="evenodd" clip-rule="evenodd" d="M2.32056 15.7464C2.51477 14.1317 3.26753 12.6172 4.47391 11.3281C5.67416 10.0513 7.54918 9.06702 9.62977 8.93658C10.6566 8.86806 11.699 8.98243 12.6574 9.24799C13.6114 9.51262 14.5054 9.89822 15.3111 10.3523C15.7137 10.5805 16.0903 10.83 16.4655 11.0819L17.4654 11.8389L19.0262 13.0704C20.0393 13.877 21.0062 14.6231 21.8997 15.2393C22.8018 15.8564 23.5702 16.3073 24.304 16.5714C25.0312 16.8596 25.9498 16.9334 27.1643 16.6281C27.7672 16.4892 28.3962 16.2354 29.0672 15.9604C29.7344 15.6788 30.4272 15.3428 31.1847 15.0097C31.0935 15.8215 30.9285 16.63 30.6152 17.3856C30.3142 18.1516 29.9178 18.901 29.3635 19.5999C29.08 19.9401 28.7761 20.2823 28.4217 20.5979C28.0673 20.906 27.6746 21.1985 27.2408 21.4551C26.3756 21.9564 25.3493 22.3227 24.2965 22.4531C23.2436 22.5854 22.1866 22.5193 21.224 22.3151C20.2562 22.1167 19.3745 21.7967 18.565 21.4272C16.9518 20.6768 15.6022 19.7336 14.409 18.7352C13.8099 18.2366 13.248 17.7159 12.7159 17.1871L12.0875 16.5563C11.898 16.3734 11.7066 16.1896 11.5171 16.0214C10.7535 15.3461 10.0447 14.8301 9.26403 14.5083C8.48908 14.1714 7.49722 14.0329 6.28042 14.2607C5.06838 14.4861 3.73865 15.0101 2.32056 15.7464Z" fill="#FAFAFA"/>
<path fill-rule="evenodd" clip-rule="evenodd" d="M8.71607 24.0729C8.71607 24.5506 8.32859 24.9381 7.85085 24.9381C7.37311 24.9381 6.98608 24.5506 6.98608 24.0729C6.98608 23.5951 7.37311 23.2076 7.85085 23.2076C8.32859 23.2076 8.71607 23.5951 8.71607 24.0729Z" fill="#FAFAFA"/>
<path fill-rule="evenodd" clip-rule="evenodd" d="M8.71607 24.0729C8.71607 24.5506 8.32859 24.9381 7.85085 24.9381C7.37311 24.9381 6.98608 24.5506 6.98608 24.0729C6.98608 23.5951 7.37311 23.2076 7.85085 23.2076C8.32859 23.2076 8.71607 23.5951 8.71607 24.0729Z" fill="#FAFAFA"/>
</svg>
