<svg width="32" height="32" viewBox="0 0 32 32" fill="none" xmlns="http://www.w3.org/2000/svg">
<path d="M32 16C32 24.8366 24.8366 32 16 32C7.16344 32 0 24.8366 0 16C0 7.16344 7.16344 0 16 0C24.8366 0 32 7.16344 32 16Z" fill="url(#paint0_radial_60_2016)"/>
<path opacity="0.3" d="M26.6667 16C26.6667 21.891 21.8911 26.6666 16 26.6666C10.109 26.6666 5.33337 21.891 5.33337 16C5.33337 10.1089 10.109 5.33331 16 5.33331C21.8911 5.33331 26.6667 10.1089 26.6667 16Z" fill="white"/>
<path opacity="0.6" d="M24 16C24 20.4183 20.4183 24 16 24C11.5817 24 8 20.4183 8 16C8 11.5817 11.5817 8 16 8C20.4183 8 24 11.5817 24 16Z" fill="white"/>
<path d="M21.3333 16C21.3333 18.9455 18.9455 21.3334 16 21.3334C13.0544 21.3334 10.6666 18.9455 10.6666 16C10.6666 13.0545 13.0544 10.6667 16 10.6667C18.9455 10.6667 21.3333 13.0545 21.3333 16Z" fill="white"/>
<path opacity="0.4" d="M24 10C24 11.841 22.5077 13.3334 20.6667 13.3334C18.8258 13.3334 17.3334 11.841 17.3334 10C17.3334 8.15907 18.8258 6.66669 20.6667 6.66669C22.5077 6.66669 24 8.15907 24 10Z" fill="white"/>
<defs>
<radialGradient id="paint0_radial_60_2016" cx="0" cy="0" r="1" gradientUnits="userSpaceOnUse" gradientTransform="translate(4.65511 27.3455) rotate(-36.4515) scale(31.8259 67.495)">
<stop stop-color="#209471"/>
<stop offset="1" stop-color="#78E3A4"/>
</radialGradient>
</defs>
</svg>
