<svg width="33" height="32" viewBox="0 0 33 32" fill="none" xmlns="http://www.w3.org/2000/svg">
<circle cx="16.8657" cy="16" r="16" fill="#2B2C47"/>
<path d="M25.9157 20.615L22.9914 23.7817C22.9282 23.8505 22.8516 23.9054 22.7664 23.9429C22.6812 23.9805 22.5893 23.9999 22.4963 24H8.63396C8.56784 24 8.50317 23.9805 8.44786 23.9439C8.39256 23.9073 8.34901 23.8552 8.32257 23.794C8.29612 23.7328 8.28792 23.6652 8.29897 23.5993C8.31002 23.5335 8.33983 23.4723 8.38476 23.4233L11.3058 20.2567C11.369 20.1879 11.4456 20.133 11.5308 20.0954C11.616 20.0579 11.7079 20.0384 11.8008 20.0383H25.6632C25.7299 20.037 25.7956 20.0555 25.8518 20.0917C25.9081 20.1279 25.9527 20.1801 25.9796 20.2418C26.0066 20.3034 26.0149 20.3717 26.0035 20.4382C25.9921 20.5046 25.9616 20.5661 25.9157 20.615ZM22.9914 14.2367C22.9279 14.1682 22.8513 14.1136 22.7661 14.076C22.681 14.0385 22.5892 14.0189 22.4963 14.0184H8.63396C8.56784 14.0184 8.50317 14.0379 8.44786 14.0745C8.39256 14.1111 8.34901 14.1632 8.32257 14.2244C8.29612 14.2856 8.28792 14.3532 8.29897 14.4191C8.31002 14.4849 8.33983 14.5461 8.38476 14.5951L11.3058 17.7634C11.3692 17.8318 11.4459 17.8865 11.531 17.9241C11.6161 17.9616 11.708 17.9812 11.8008 17.9817H25.6632C25.7292 17.9813 25.7936 17.9616 25.8487 17.9249C25.9038 17.8882 25.9471 17.8361 25.9733 17.7749C25.9995 17.7138 26.0076 17.6463 25.9964 17.5806C25.9853 17.5149 25.9556 17.4539 25.9108 17.405L22.9914 14.2367ZM8.63396 11.9617H22.4963C22.5893 11.9616 22.6812 11.9422 22.7664 11.9046C22.8516 11.8671 22.9282 11.8122 22.9914 11.7434L25.9157 8.57674C25.9616 8.52782 25.9921 8.46629 26.0035 8.39987C26.0149 8.33346 26.0066 8.26513 25.9796 8.20349C25.9527 8.14185 25.9081 8.08964 25.8518 8.05345C25.7956 8.01725 25.7299 7.99868 25.6632 8.00007H11.8008C11.7079 8.00017 11.616 8.01961 11.5308 8.05717C11.4456 8.09474 11.369 8.14962 11.3058 8.21841L8.38476 11.3851C8.33983 11.434 8.31002 11.4952 8.29897 11.561C8.28792 11.6269 8.29612 11.6945 8.32257 11.7557C8.34901 11.8169 8.39256 11.869 8.44786 11.9056C8.50317 11.9422 8.56784 11.9617 8.63396 11.9617Z" fill="url(#paint0_linear_60_1393)"/>
<defs>
<linearGradient id="paint0_linear_60_1393" x1="9.78915" y1="24.3817" x2="24.4857" y2="7.97584" gradientUnits="userSpaceOnUse">
<stop offset="0.08" stop-color="#9945FF"/>
<stop offset="0.3" stop-color="#8752F3"/>
<stop offset="0.5" stop-color="#5497D5"/>
<stop offset="0.6" stop-color="#43B4CA"/>
<stop offset="0.72" stop-color="#28E0B9"/>
<stop offset="0.97" stop-color="#19FB9B"/>
</linearGradient>
</defs>
</svg>
