<svg width="113" height="24" viewBox="0 0 113 24" fill="none" xmlns="http://www.w3.org/2000/svg">
<path d="M35.3048 12.7695V12.4882C35.3048 11.7814 35.0631 11.2404 34.5798 10.8654C34.111 10.4759 33.4958 10.2811 32.7341 10.2811C32.1482 10.2811 31.6868 10.3821 31.3499 10.5841C31.0277 10.7716 30.7201 11.0601 30.4271 11.4496C30.3392 11.565 30.244 11.6443 30.1415 11.6876C30.039 11.7309 29.8998 11.7525 29.724 11.7525H29.0649C28.9038 11.7525 28.7573 11.6948 28.6254 11.5794C28.5083 11.464 28.457 11.327 28.4716 11.1683C28.5156 10.7355 28.728 10.31 29.1088 9.89164C29.5043 9.45888 30.0243 9.10545 30.6688 8.83137C31.3133 8.55729 32.0017 8.42025 32.7341 8.42025C34.0964 8.42025 35.195 8.79531 36.0299 9.54543C36.8794 10.2955 37.3042 11.3486 37.3042 12.7046V19.3042C37.3042 19.4629 37.2456 19.5999 37.1285 19.7153C37.0113 19.8307 36.8721 19.8884 36.711 19.8884H35.898C35.7369 19.8884 35.5978 19.8307 35.4806 19.7153C35.3634 19.5999 35.3048 19.4629 35.3048 19.3042V18.417C35.0705 18.9364 34.5724 19.3475 33.8107 19.6504C33.0491 19.9534 32.2874 20.1048 31.5257 20.1048C30.7787 20.1048 30.1122 19.975 29.5263 19.7153C28.9404 19.4413 28.4863 19.0734 28.164 18.6118C27.8564 18.1502 27.7026 17.6309 27.7026 17.0538C27.7026 15.9719 28.1128 15.1281 28.933 14.5222C29.7533 13.9019 30.8446 13.4836 32.2068 13.2672L35.3048 12.7695ZM35.3048 14.5006L32.7122 14.9117C31.7601 15.0559 31.0203 15.2939 30.493 15.6257C29.9657 15.9431 29.7021 16.347 29.7021 16.8375C29.7021 17.1981 29.8705 17.5227 30.2074 17.8112C30.5443 18.0997 31.057 18.2439 31.7454 18.2439C32.8001 18.2439 33.6569 17.9482 34.3161 17.3568C34.9752 16.7653 35.3048 15.9936 35.3048 15.0415V14.5006Z" fill="white"/>
<path d="M42.5093 19.3042C42.5093 19.4629 42.4507 19.5999 42.3335 19.7153C42.2163 19.8307 42.0772 19.8884 41.916 19.8884H41.1031C40.942 19.8884 40.8028 19.8307 40.6856 19.7153C40.5684 19.5999 40.5099 19.4629 40.5099 19.3042V5.10962C40.5099 4.95094 40.5684 4.8139 40.6856 4.6985C40.8028 4.58309 40.942 4.52539 41.1031 4.52539H41.916C42.0772 4.52539 42.2163 4.58309 42.3335 4.6985C42.4507 4.8139 42.5093 4.95094 42.5093 5.10962V19.3042Z" fill="white"/>
<path d="M50.4237 18.2439C51.8885 18.2439 52.8772 17.6814 53.3899 16.5562C53.4924 16.3398 53.5949 16.1883 53.6975 16.1018C53.8 16.0152 53.9391 15.9719 54.1149 15.9719H54.7741C54.9352 15.9719 55.0743 16.0296 55.1915 16.145C55.3087 16.246 55.3673 16.3686 55.3673 16.5129C55.3673 17.0034 55.1696 17.5299 54.7741 18.0925C54.3786 18.6551 53.8073 19.1311 53.0603 19.5206C52.3132 19.9101 51.4344 20.1048 50.4237 20.1048C49.3837 20.1048 48.4829 19.8884 47.7212 19.4557C46.9595 19.0229 46.3736 18.4315 45.9634 17.6814C45.5533 16.9168 45.3263 16.0657 45.2823 15.1281C45.2677 14.955 45.2604 14.6232 45.2604 14.1327C45.2604 13.7865 45.2677 13.5413 45.2823 13.397C45.4142 11.9256 45.9195 10.7283 46.7984 9.80509C47.6772 8.88186 48.8857 8.42025 50.4237 8.42025C51.4344 8.42025 52.3059 8.61499 53.0383 9.00448C53.7853 9.37954 54.3493 9.84836 54.7301 10.411C55.1256 10.9591 55.338 11.4784 55.3673 11.9689C55.3819 12.1276 55.3234 12.2646 55.1915 12.38C55.0743 12.4954 54.9352 12.5531 54.7741 12.5531H54.1149C53.9391 12.5531 53.8 12.5098 53.6975 12.4233C53.5949 12.3367 53.4924 12.1853 53.3899 11.9689C52.8772 10.8437 51.8885 10.2811 50.4237 10.2811C49.6181 10.2811 48.915 10.548 48.3144 11.0817C47.7139 11.6155 47.3696 12.4233 47.2817 13.5052C47.2671 13.6639 47.2598 13.9235 47.2598 14.2842C47.2598 14.616 47.2671 14.8612 47.2817 15.0199C47.3843 16.1018 47.7285 16.9096 48.3144 17.4433C48.915 17.9771 49.6181 18.2439 50.4237 18.2439Z" fill="white"/>
<path d="M68.1479 19.3042C68.1479 19.4629 68.0893 19.5999 67.9721 19.7153C67.855 19.8307 67.7158 19.8884 67.5547 19.8884H66.7417C66.5806 19.8884 66.4414 19.8307 66.3243 19.7153C66.2071 19.5999 66.1485 19.4629 66.1485 19.3042V13.5918C66.1485 12.5098 65.8775 11.6876 65.3355 11.125C64.7936 10.5624 64.0392 10.2811 63.0725 10.2811C62.1204 10.2811 61.366 10.5624 60.8094 11.125C60.2674 11.6876 59.9964 12.5098 59.9964 13.5918V19.3042C59.9964 19.4629 59.9379 19.5999 59.8207 19.7153C59.7035 19.8307 59.5643 19.8884 59.4032 19.8884H58.5903C58.4291 19.8884 58.29 19.8307 58.1728 19.7153C58.0556 19.5999 57.997 19.4629 57.997 19.3042V5.10962C57.997 4.95094 58.0556 4.8139 58.1728 4.6985C58.29 4.58309 58.4291 4.52539 58.5903 4.52539H59.4032C59.5643 4.52539 59.7035 4.58309 59.8207 4.6985C59.9379 4.8139 59.9964 4.95094 59.9964 5.10962V9.89164C60.3187 9.4733 60.7581 9.12709 61.3147 8.85301C61.886 8.5645 62.5818 8.42025 63.402 8.42025C64.3248 8.42025 65.1451 8.61499 65.8629 9.00448C66.5806 9.39396 67.1372 9.95655 67.5327 10.6922C67.9428 11.4135 68.1479 12.2718 68.1479 13.2672V19.3042Z" fill="white"/>
<path d="M75.8472 8.42025C77.4145 8.42025 78.6523 8.91071 79.5604 9.89164C80.4686 10.8726 80.9227 12.2069 80.9227 13.8947V14.4789C80.9227 14.6376 80.8641 14.7746 80.7469 14.89C80.6297 15.0054 80.4906 15.0631 80.3294 15.0631H72.7712V15.193C72.8005 16.145 73.0935 16.8952 73.6501 17.4433C74.2213 17.9771 74.9537 18.2439 75.8472 18.2439C76.5796 18.2439 77.1436 18.1502 77.5391 17.9626C77.9492 17.7751 78.3154 17.5082 78.6376 17.162C78.7548 17.0466 78.8574 16.9673 78.9452 16.924C79.0478 16.8807 79.1796 16.8591 79.3407 16.8591H79.9999C80.1756 16.8591 80.3221 16.9168 80.4393 17.0322C80.5565 17.1476 80.6078 17.2847 80.5931 17.4433C80.5345 17.8328 80.3148 18.2367 79.934 18.6551C79.5678 19.059 79.0331 19.4052 78.33 19.6937C77.6416 19.9678 76.814 20.1048 75.8472 20.1048C74.9098 20.1048 74.0749 19.8956 73.3425 19.4773C72.6101 19.0446 72.0242 18.4531 71.5847 17.703C71.16 16.9529 70.9036 16.109 70.8157 15.1713C70.7864 14.7386 70.7718 14.4068 70.7718 14.176C70.7718 13.9452 70.7864 13.6134 70.8157 13.1806C70.9036 12.2863 71.16 11.4784 71.5847 10.7572C72.0242 10.0359 72.6028 9.46609 73.3205 9.04775C74.0529 8.62942 74.8951 8.42025 75.8472 8.42025ZM78.9452 13.2455V13.1806C78.9452 12.3007 78.6596 11.601 78.0883 11.0817C77.5317 10.548 76.7847 10.2811 75.8472 10.2811C74.9977 10.2811 74.2726 10.548 73.672 11.0817C73.0861 11.6155 72.7859 12.3151 72.7712 13.1806V13.2455H78.9452Z" fill="white"/>
<path d="M85.5728 9.89164C85.9243 9.44445 86.3198 9.09103 86.7592 8.83137C87.1987 8.55729 87.7846 8.42025 88.517 8.42025C90.2308 8.42025 91.4319 9.04775 92.1203 10.3028C92.5451 9.69689 93.0285 9.23528 93.5704 8.91792C94.1124 8.58614 94.8228 8.42025 95.7017 8.42025C97.1372 8.42025 98.1991 8.8458 98.8876 9.6969C99.5907 10.548 99.9422 11.7525 99.9422 13.3105V19.3042C99.9422 19.4629 99.8836 19.5999 99.7664 19.7153C99.6492 19.8307 99.5101 19.8884 99.349 19.8884H98.536C98.3749 19.8884 98.2357 19.8307 98.1186 19.7153C98.0014 19.5999 97.9428 19.4629 97.9428 19.3042V13.5268C97.9428 11.363 97.0786 10.2811 95.3501 10.2811C94.5592 10.2811 93.9293 10.5408 93.4606 11.0601C92.9918 11.5794 92.7575 12.3512 92.7575 13.3754V19.3042C92.7575 19.4629 92.6989 19.5999 92.5817 19.7153C92.4645 19.8307 92.3254 19.8884 92.1642 19.8884H91.3513C91.1902 19.8884 91.051 19.8307 90.9338 19.7153C90.8167 19.5999 90.7581 19.4629 90.7581 19.3042V13.5268C90.7581 11.363 89.8939 10.2811 88.1654 10.2811C87.3744 10.2811 86.7446 10.5408 86.2759 11.0601C85.8071 11.5794 85.5728 12.3512 85.5728 13.3754V19.3042C85.5728 19.4629 85.5142 19.5999 85.397 19.7153C85.2798 19.8307 85.1407 19.8884 84.9795 19.8884H84.1666C84.0055 19.8884 83.8663 19.8307 83.7491 19.7153C83.6319 19.5999 83.5733 19.4629 83.5733 19.3042V9.22086C83.5733 9.06218 83.6319 8.92514 83.7491 8.80973C83.8663 8.69433 84.0055 8.63663 84.1666 8.63663H84.9795C85.1407 8.63663 85.2798 8.69433 85.397 8.80973C85.5142 8.92514 85.5728 9.06218 85.5728 9.22086V9.89164Z" fill="white"/>
<path d="M106.096 23.4804C105.964 23.8266 105.752 23.9997 105.459 23.9997H104.558C104.411 23.9997 104.287 23.9492 104.184 23.8482C104.082 23.7472 104.03 23.6246 104.03 23.4804C104.03 23.4227 104.038 23.3722 104.052 23.3289L106.162 18.8065L101.811 9.30741C101.797 9.26413 101.789 9.21364 101.789 9.15594C101.789 9.01169 101.841 8.88907 101.943 8.7881C102.046 8.68712 102.17 8.63663 102.317 8.63663H103.218C103.51 8.63663 103.723 8.80973 103.855 9.15594L107.238 16.5129L110.666 9.15594C110.798 8.80973 111.01 8.63663 111.303 8.63663H112.204C112.35 8.63663 112.475 8.68712 112.577 8.7881C112.68 8.88907 112.731 9.01169 112.731 9.15594C112.731 9.21364 112.724 9.26413 112.709 9.30741L106.096 23.4804Z" fill="white"/>
<path d="M19.3956 12.7305L12.018 0.205007C11.9823 0.143158 11.9305 0.0916381 11.868 0.055646C11.8055 0.0196539 11.7344 0.000462381 11.6619 8.25122e-06C11.5894 -0.000445879 11.5181 0.0178532 11.4551 0.0530592C11.3921 0.0882652 11.3397 0.139133 11.3032 0.200529L9.09366 3.9537C9.0213 4.07656 8.9832 4.21592 8.9832 4.35778C8.9832 4.49965 9.0213 4.63901 9.09366 4.76187L13.9044 12.9331C13.9768 13.0561 14.081 13.1582 14.2065 13.2291C14.332 13.3001 14.4743 13.3373 14.6192 13.3372H19.0383C19.1106 13.337 19.1816 13.3182 19.2442 13.2826C19.3068 13.2471 19.3588 13.196 19.395 13.1346C19.4312 13.0732 19.4502 13.0036 19.4504 12.9326C19.4505 12.8617 19.4316 12.792 19.3956 12.7305Z" fill="#363FF9"/>
<path d="M0.0568893 19.2768L7.43454 6.7513C7.47074 6.68994 7.52278 6.63899 7.58541 6.60358C7.64804 6.56816 7.71906 6.54952 7.79137 6.54952C7.86368 6.54952 7.93473 6.56816 7.99736 6.60358C8.05999 6.63899 8.11201 6.68994 8.14821 6.7513L10.3589 10.5011C10.4312 10.6242 10.4693 10.7637 10.4693 10.9058C10.4693 11.0478 10.4312 11.1873 10.3589 11.3104L5.54816 19.4816C5.476 19.6046 5.37203 19.7067 5.24672 19.7777C5.1214 19.8486 4.9792 19.8859 4.83449 19.8857H0.414296C0.341481 19.8861 0.269872 19.8675 0.206746 19.8319C0.143621 19.7964 0.0912382 19.745 0.0549239 19.6832C0.0186096 19.6213 -0.000341872 19.5511 4.6686e-06 19.4797C0.000351209 19.4083 0.0199759 19.3383 0.0568893 19.2768Z" fill="#363FF9"/>
<path d="M8.14715 19.883H22.9024C22.9748 19.883 23.0459 19.8642 23.1086 19.8287C23.1712 19.7931 23.2232 19.742 23.2593 19.6805C23.2954 19.6191 23.3144 19.5493 23.3143 19.4784C23.3142 19.4074 23.295 19.3377 23.2587 19.2763L21.0515 15.5243C20.979 15.4013 20.8749 15.2992 20.7494 15.2283C20.6239 15.1573 20.4815 15.1201 20.3367 15.1202H10.7152C10.5704 15.1201 10.428 15.1573 10.3026 15.2283C10.1771 15.2992 10.0728 15.4013 10.0004 15.5243L7.7909 19.2763C7.75461 19.3377 7.73545 19.4074 7.73534 19.4784C7.73524 19.5493 7.75418 19.6191 7.79029 19.6805C7.8264 19.742 7.87841 19.7931 7.94105 19.8287C8.0037 19.8642 8.07477 19.883 8.14715 19.883Z" fill="#363FF9"/>
</svg>
