<svg width="33" height="32" viewBox="0 0 33 32" fill="none" xmlns="http://www.w3.org/2000/svg">
<path d="M32.8659 16.0001C32.8659 24.8367 25.7024 32.0002 16.8658 32.0002C8.02921 32.0002 0.865723 24.8367 0.865723 16.0001C0.865723 7.16349 8.02921 0 16.8658 0C25.7024 0 32.8659 7.16349 32.8659 16.0001Z" fill="#54EFAD"/>
<path opacity="0.4" d="M24.6499 16.0001C24.6499 20.299 21.165 23.7839 16.8661 23.7839C12.5672 23.7839 9.08228 20.299 9.08228 16.0001C9.08228 11.7012 12.5672 8.21625 16.8661 8.21625C21.165 8.21625 24.6499 11.7012 24.6499 16.0001Z" fill="white"/>
<path opacity="0.4" d="M22.0547 16.0001C22.0547 18.8661 19.7314 21.1894 16.8655 21.1894C13.9996 21.1894 11.6763 18.8661 11.6763 16.0001C11.6763 13.1342 13.9996 10.8109 16.8655 10.8109C19.7314 10.8109 22.0547 13.1342 22.0547 16.0001Z" fill="white"/>
<path opacity="0.7" d="M17.2265 6.40002L16.0671 6.49941C10.8997 6.92861 6.99304 11.4063 7.28052 16.5672C7.56785 21.7281 11.9525 25.7397 17.1357 25.5964C22.3191 25.4531 26.4657 21.2031 26.4657 16.0346V14.8789H24.1469V16.0346C24.1469 19.9769 21.0258 23.1759 17.0726 23.285C13.1195 23.394 9.81883 20.3679 9.60006 16.4316C9.38129 12.4952 12.3256 9.12883 16.2668 8.80172L17.4172 8.70233L17.2265 6.40002Z" fill="white"/>
</svg>
