<svg width="111" height="23" viewBox="0 0 111 23" fill="none" xmlns="http://www.w3.org/2000/svg">
<path d="M30.7754 20.9186C30.6559 20.9186 30.558 20.8762 30.4819 20.7915C30.4058 20.7068 30.3678 20.5978 30.3678 20.4647V8.66325C30.3678 8.53008 30.4058 8.42116 30.4819 8.33643C30.558 8.25166 30.6559 8.20932 30.7754 8.20932H38.1609C38.2804 8.20932 38.3782 8.25166 38.4543 8.33643C38.5304 8.42116 38.5685 8.53008 38.5685 8.66325V10.1157C38.5685 10.2368 38.5304 10.3396 38.4543 10.4244C38.3782 10.5091 38.2804 10.5515 38.1609 10.5515H32.8785V13.402H37.8022C37.9217 13.402 38.0196 13.4443 38.0957 13.529C38.1718 13.6138 38.2098 13.7227 38.2098 13.8559V15.1994C38.2098 15.3205 38.1718 15.4233 38.0957 15.5081C38.0196 15.5928 37.9217 15.6352 37.8022 15.6352H32.8785V18.5765H38.2913C38.4108 18.5765 38.5087 18.6188 38.5848 18.7035C38.6609 18.7883 38.6989 18.8972 38.6989 19.0303V20.4647C38.6989 20.5978 38.6609 20.7068 38.5848 20.7915C38.5087 20.8762 38.4108 20.9186 38.2913 20.9186H30.7754ZM41.0284 20.9186C40.9088 20.9186 40.811 20.8762 40.7349 20.7915C40.6588 20.7068 40.6208 20.5978 40.6208 20.4647V8.48165C40.6208 8.34853 40.6588 8.23961 40.7349 8.15484C40.811 8.07011 40.9088 8.02777 41.0284 8.02777H42.6587C42.7674 8.02777 42.8598 8.07011 42.9359 8.15484C43.012 8.23961 43.05 8.34853 43.05 8.48165V20.4647C43.05 20.5978 43.012 20.7068 42.9359 20.7915C42.8598 20.8762 42.7674 20.9186 42.6587 20.9186H41.0284ZM49.0558 21.1002C47.8062 21.1002 46.8116 20.7128 46.0725 19.9382C45.3441 19.1635 44.9586 18.0378 44.9149 16.5611C44.9149 16.4643 44.9149 16.3372 44.9149 16.1799C44.9149 16.0104 44.9149 15.8772 44.9149 15.7804C44.9586 14.8484 45.1485 14.0496 45.4856 13.3838C45.8226 12.706 46.2954 12.1915 46.9038 11.8405C47.5125 11.4774 48.2247 11.2959 49.0397 11.2959C49.9529 11.2959 50.7138 11.5077 51.322 11.9313C51.9415 12.3429 52.4034 12.9118 52.7078 13.638C53.0229 14.3521 53.181 15.1752 53.181 16.1072V16.5248C53.181 16.6459 53.1371 16.7487 53.0502 16.8335C52.9741 16.9182 52.8819 16.9605 52.7732 16.9605H47.4418C47.4418 16.9727 47.4418 16.9969 47.4418 17.0332C47.4418 17.0574 47.4418 17.0816 47.4418 17.1058C47.453 17.4931 47.5184 17.8502 47.6374 18.177C47.7681 18.4917 47.9476 18.7459 48.1754 18.9395C48.4149 19.1332 48.6973 19.2301 49.0236 19.2301C49.2953 19.2301 49.5178 19.1877 49.6919 19.103C49.866 19.0182 50.007 18.9154 50.1158 18.7943C50.2353 18.6733 50.3226 18.5704 50.3767 18.4857C50.4743 18.3646 50.5509 18.292 50.605 18.2678C50.6699 18.2315 50.7679 18.2133 50.8982 18.2133H52.5937C52.7024 18.2133 52.7893 18.2496 52.8546 18.3223C52.9307 18.3828 52.9634 18.4735 52.9527 18.5946C52.9415 18.7883 52.8493 19.0303 52.6756 19.3208C52.5122 19.5992 52.2678 19.8776 51.9415 20.156C51.6157 20.4223 51.2079 20.6462 50.7192 20.8278C50.2406 21.0094 49.6865 21.1002 49.0558 21.1002ZM47.4418 15.3084H50.6372V15.272C50.6372 14.8363 50.5723 14.461 50.4416 14.1464C50.3226 13.8196 50.1431 13.5654 49.9036 13.3838C49.6646 13.2022 49.3768 13.1115 49.0397 13.1115C48.7027 13.1115 48.4149 13.2022 48.1754 13.3838C47.9364 13.5654 47.7515 13.8196 47.6213 14.1464C47.5018 14.461 47.4418 14.8363 47.4418 15.272V15.3084ZM55.3647 20.9186C55.2564 20.9186 55.1638 20.8762 55.0877 20.7915C55.0116 20.7068 54.9735 20.5978 54.9735 20.4647V11.9313C54.9735 11.7982 55.0116 11.6893 55.0877 11.6045C55.1638 11.5198 55.2564 11.4774 55.3647 11.4774H56.8807C56.9895 11.4774 57.0822 11.5198 57.1578 11.6045C57.2451 11.6893 57.2885 11.7982 57.2885 11.9313V12.5486C57.5061 12.2097 57.8051 11.9192 58.185 11.6771C58.5762 11.4351 59.0387 11.308 59.5708 11.2959C60.8322 11.2717 61.696 11.8042 62.1633 12.8936C62.4136 12.4216 62.7721 12.0403 63.2394 11.7497C63.7179 11.4471 64.2393 11.2959 64.8042 11.2959C65.3695 11.2959 65.8802 11.4411 66.3367 11.7316C66.7933 12.01 67.1518 12.4457 67.4128 13.0388C67.685 13.6198 67.8206 14.3703 67.8206 15.2902V20.4647C67.8206 20.5978 67.7825 20.7068 67.7064 20.7915C67.6303 20.8762 67.5381 20.9186 67.4294 20.9186H65.8153C65.7065 20.9186 65.6143 20.8762 65.5378 20.7915C65.4622 20.7068 65.4236 20.5978 65.4236 20.4647V15.4354C65.4236 14.9392 65.3588 14.5518 65.228 14.2734C65.0978 13.983 64.9241 13.7772 64.7066 13.6562C64.5003 13.5351 64.2661 13.4746 64.0057 13.4746C63.7774 13.4746 63.5545 13.5351 63.3369 13.6562C63.1306 13.7772 62.957 13.983 62.8155 14.2734C62.6848 14.5518 62.6199 14.9392 62.6199 15.4354V20.4647C62.6199 20.5978 62.5818 20.7068 62.5058 20.7915C62.4297 20.8762 62.3321 20.9186 62.2121 20.9186H60.6142C60.4951 20.9186 60.3971 20.8762 60.321 20.7915C60.2449 20.7068 60.2069 20.5978 60.2069 20.4647V15.4354C60.2069 14.9392 60.1415 14.5518 60.0113 14.2734C59.8806 13.983 59.7069 13.7772 59.4894 13.6562C59.283 13.5351 59.0547 13.4746 58.8045 13.4746C58.5762 13.4746 58.3538 13.5412 58.1363 13.6743C57.9192 13.7954 57.7397 13.9951 57.5983 14.2734C57.468 14.5518 57.4027 14.9331 57.4027 15.4173V20.4647C57.4027 20.5978 57.3646 20.7068 57.2885 20.7915C57.2124 20.8762 57.1202 20.9186 57.0115 20.9186H55.3647ZM73.7417 21.1002C72.492 21.1002 71.4974 20.7128 70.7584 19.9382C70.0302 19.1635 69.6439 18.0378 69.6009 16.5611C69.6009 16.4643 69.6009 16.3372 69.6009 16.1799C69.6009 16.0104 69.6009 15.8772 69.6009 15.7804C69.6439 14.8484 69.8346 14.0496 70.1716 13.3838C70.5082 12.706 70.9809 12.1915 71.5896 11.8405C72.1983 11.4774 72.9105 11.2959 73.7256 11.2959C74.6387 11.2959 75.3991 11.5077 76.0079 11.9313C76.6278 12.3429 77.0893 12.9118 77.3936 13.638C77.7087 14.3521 77.8668 15.1752 77.8668 16.1072V16.5248C77.8668 16.6459 77.8229 16.7487 77.7361 16.8335C77.66 16.9182 77.5673 16.9605 77.459 16.9605H72.1276C72.1276 16.9727 72.1276 16.9969 72.1276 17.0332C72.1276 17.0574 72.1276 17.0816 72.1276 17.1058C72.1383 17.4931 72.2037 17.8502 72.3237 18.177C72.4539 18.4917 72.6334 18.7459 72.8617 18.9395C73.1002 19.1332 73.3832 19.2301 73.7095 19.2301C73.9807 19.2301 74.2036 19.1877 74.3777 19.103C74.5514 19.0182 74.6928 18.9154 74.8016 18.7943C74.9211 18.6733 75.0079 18.5704 75.0626 18.4857C75.1601 18.3646 75.2362 18.292 75.2908 18.2678C75.3557 18.2315 75.4538 18.2133 75.584 18.2133H77.2795C77.3883 18.2133 77.4756 18.2496 77.5405 18.3223C77.6166 18.3828 77.6492 18.4735 77.6385 18.5946C77.6273 18.7883 77.5351 19.0303 77.3614 19.3208C77.198 19.5992 76.9537 19.8776 76.6278 20.156C76.3015 20.4223 75.8937 20.6462 75.405 20.8278C74.9265 21.0094 74.3719 21.1002 73.7417 21.1002ZM72.1276 15.3084H75.3235V15.272C75.3235 14.8363 75.2582 14.461 75.1274 14.1464C75.0079 13.8196 74.8284 13.5654 74.5899 13.3838C74.3504 13.2022 74.0621 13.1115 73.7256 13.1115C73.3885 13.1115 73.1002 13.2022 72.8617 13.3838C72.6222 13.5654 72.4378 13.8196 72.3071 14.1464C72.1871 14.461 72.1276 14.8363 72.1276 15.272V15.3084ZM80.0506 20.9186C79.9418 20.9186 79.8496 20.8762 79.7735 20.7915C79.6969 20.7068 79.6594 20.5978 79.6594 20.4647V11.9313C79.6594 11.7982 79.6969 11.6893 79.7735 11.6045C79.8496 11.5198 79.9418 11.4774 80.0506 11.4774H81.648C81.7675 11.4774 81.8656 11.5198 81.9417 11.6045C82.0177 11.6893 82.0558 11.7982 82.0558 11.9313V12.6394C82.3382 12.2521 82.7026 11.9313 83.1479 11.6771C83.5937 11.4229 84.1371 11.2959 84.7786 11.2959C85.4195 11.2959 85.9795 11.4593 86.458 11.7861C86.9467 12.1007 87.3272 12.5668 87.5989 13.1841C87.8813 13.7893 88.0228 14.5276 88.0228 15.3991V20.4647C88.0228 20.5978 87.9793 20.7068 87.8925 20.7915C87.8164 20.8762 87.7242 20.9186 87.6155 20.9186H85.8873C85.7678 20.9186 85.6697 20.8762 85.5936 20.7915C85.5175 20.7068 85.4795 20.5978 85.4795 20.4647V15.5081C85.4795 14.8666 85.338 14.3703 85.0556 14.0193C84.7839 13.6562 84.382 13.4746 83.8493 13.4746C83.3386 13.4746 82.9309 13.6562 82.6265 14.0193C82.3221 14.3703 82.1699 14.8666 82.1699 15.5081V20.4647C82.1699 20.5978 82.1319 20.7068 82.0558 20.7915C81.9797 20.8762 81.8875 20.9186 81.7787 20.9186H80.0506ZM94.1195 20.9186C93.4458 20.9186 92.8698 20.7975 92.3913 20.5555C91.9132 20.3013 91.5494 19.914 91.2991 19.3935C91.0601 18.873 90.9406 18.2193 90.9406 17.4326V13.6198H89.6685C89.5495 13.6198 89.4515 13.5775 89.3754 13.4928C89.2993 13.408 89.2612 13.2991 89.2612 13.1659V11.9313C89.2612 11.7982 89.2993 11.6893 89.3754 11.6045C89.4515 11.5198 89.5495 11.4774 89.6685 11.4774H90.9406V8.48165C90.9406 8.34853 90.9787 8.23961 91.0543 8.15484C91.1416 8.07011 91.2396 8.02777 91.3479 8.02777H92.9459C93.0654 8.02777 93.1634 8.07011 93.239 8.15484C93.3156 8.23961 93.3532 8.34853 93.3532 8.48165V11.4774H95.3911C95.4999 11.4774 95.5925 11.5198 95.6686 11.6045C95.7447 11.6893 95.7823 11.7982 95.7823 11.9313V13.1659C95.7823 13.2991 95.7447 13.408 95.6686 13.4928C95.5925 13.5775 95.4999 13.6198 95.3911 13.6198H93.3532V17.2147C93.3532 17.6747 93.4244 18.0378 93.5653 18.3041C93.7175 18.5583 93.9785 18.6854 94.3477 18.6854H95.5379C95.6467 18.6854 95.7394 18.7277 95.815 18.8125C95.8915 18.8972 95.9291 19.0001 95.9291 19.1211V20.4647C95.9291 20.5978 95.8915 20.7068 95.815 20.7915C95.7394 20.8762 95.6467 20.9186 95.5379 20.9186H94.1195Z" fill="#1B2428"/>
<path d="M98.8424 21.4287C98.7248 21.4287 98.6287 21.3879 98.5541 21.3062C98.479 21.2245 98.4419 21.1194 98.4419 20.991V9.61004C98.4419 9.48166 98.479 9.37659 98.5541 9.29484C98.6287 9.21314 98.7248 9.17231 98.8424 9.17231H105.986C106.103 9.17231 106.199 9.21314 106.275 9.29484C106.349 9.37659 106.387 9.48166 106.387 9.61004V11.0983C106.387 11.2267 106.349 11.3317 106.275 11.4135C106.199 11.4952 106.103 11.536 105.986 11.536H100.941V14.4951H105.666C105.783 14.4951 105.879 14.5359 105.954 14.6176C106.029 14.6994 106.066 14.8045 106.066 14.9328V16.4211C106.066 16.5379 106.029 16.637 105.954 16.7188C105.879 16.8005 105.783 16.8413 105.666 16.8413H100.941V20.991C100.941 21.1194 100.903 21.2245 100.829 21.3062C100.753 21.3879 100.657 21.4287 100.54 21.4287H98.8424ZM108.79 21.4287C108.683 21.4287 108.592 21.3879 108.518 21.3062C108.443 21.2245 108.406 21.1194 108.406 20.991V12.7617C108.406 12.6333 108.443 12.5283 108.518 12.4465C108.592 12.3648 108.683 12.324 108.79 12.324H110.392C110.509 12.324 110.605 12.3648 110.68 12.4465C110.755 12.5283 110.792 12.6333 110.792 12.7617V20.991C110.792 21.1194 110.755 21.2245 110.68 21.3062C110.605 21.3879 110.509 21.4287 110.392 21.4287H108.79ZM108.742 10.9232C108.635 10.9232 108.544 10.8824 108.47 10.8007C108.395 10.719 108.357 10.6139 108.357 10.4855V9.08476C108.357 8.95637 108.395 8.85131 108.47 8.76961C108.544 8.67625 108.635 8.62952 108.742 8.62952H110.424C110.541 8.62952 110.637 8.67625 110.712 8.76961C110.797 8.85131 110.84 8.95637 110.84 9.08476V10.4855C110.84 10.6139 110.797 10.719 110.712 10.8007C110.637 10.8824 110.541 10.9232 110.424 10.9232H108.742Z" fill="#8FD8E7"/>
<mask id="mask0_60_1218" style="mask-type:alpha" maskUnits="userSpaceOnUse" x="0" y="0" width="25" height="23">
<path d="M9.6684 17.5648C6.38377 19.1697 2.53119 17.5593 1.06341 13.968C-0.404373 10.3766 1.06848 6.1643 4.35311 4.55947C7.63774 2.95464 11.4903 4.56503 12.9581 8.15633C14.4259 11.7477 12.953 15.96 9.6684 17.5648Z" fill="black"/>
<path d="M21.5009 10.2395C19.2269 11.3506 16.5597 10.2357 15.5436 7.74937C14.5275 5.26308 15.5471 2.34686 17.8211 1.23581C20.0951 0.124753 22.7622 1.23966 23.7784 3.72595C24.7945 6.21229 23.7749 9.1285 21.5009 10.2395Z" fill="black"/>
<path d="M19.9063 22.5038C18.0745 23.3988 15.9259 22.5007 15.1073 20.4978C14.2888 18.495 15.1102 16.1458 16.942 15.2508C18.7738 14.3558 20.9223 15.2539 21.7409 17.2568C22.5595 19.2596 21.738 21.6088 19.9063 22.5038Z" fill="black"/>
</mask>
<g mask="url(#mask0_60_1218)">
<path d="M1.48754 16.9397C4.73017 23.5788 13.2412 26.5558 20.4977 23.589C27.754 20.6223 31.0078 12.8353 27.7652 6.19623C24.5226 -0.442785 16.0115 -3.41977 8.7551 -0.453028C1.49874 2.51367 -1.75506 10.3007 1.48754 16.9397Z" fill="#1B2428"/>
<path d="M6.4829 15.5012C8.21177 19.7139 12.7497 21.6029 16.6187 19.7204C20.4876 17.8379 22.2225 12.8967 20.4936 8.68398C18.7647 4.47125 14.2268 2.5822 10.3578 4.46477C6.48885 6.34724 4.75398 11.2884 6.4829 15.5012Z" fill="#6ACDE2"/>
</g>
</svg>
