<svg width="33" height="32" viewBox="0 0 33 32" fill="none" xmlns="http://www.w3.org/2000/svg">
<path opacity="0.8" d="M9.27698 22.8056C9.91075 23.5603 10.6178 24.0185 11.1271 24.2871C11.362 24.4104 11.6458 24.2499 11.6655 23.9859C11.7027 23.4987 11.7551 23.0963 11.8539 22.6905C12.0597 21.8939 12.1202 21.6404 12.604 20.7706C13.0308 20.0321 13.4715 19.5193 13.8227 19.1135C14.1494 18.7355 14.6472 18.1669 15.3774 17.5761C15.76 17.2912 16.6857 16.5226 17.1311 16.1586C17.2311 16.0819 17.4509 15.9109 17.6264 15.7574C18.1811 15.2864 19.1487 14.2399 19.5917 13.6491C20.2173 12.8537 20.3336 12.513 20.4406 12.513C20.643 12.5769 20.5255 13.0002 19.6464 14.5201C19.3964 14.948 18.9917 15.5644 18.5847 16.0551C17.9428 16.8354 16.6485 17.9518 16.0287 18.4844C14.9146 19.4809 14.1774 20.4892 13.6889 21.2904C13.3622 21.8381 13.2133 22.1974 13.1761 22.2916C13.1377 22.387 12.9738 22.801 12.8714 23.2777C12.1714 26.2896 13.1017 26.4059 16.5857 25.4546C17.7718 25.1535 18.7289 24.8255 19.3743 24.586C23.4083 22.4509 25.0945 17.4238 24.3677 11.0675C24.37 10.914 24.0839 7.94402 23.6641 6.42647C23.5874 6.15087 23.2432 6.06133 23.0431 6.26483C21.8128 7.51144 20.6523 8.28009 19.7882 8.76153C17.5323 10.0174 16.4345 9.79649 12.7075 11.5641C9.75841 12.899 7.46405 15.2597 7.72338 18.9367C7.75361 19.781 8.2676 21.6648 9.27698 22.8056Z" fill="white"/>
<path d="M20.137 19.4449L21.3184 17.2842C21.5394 16.8795 22.1208 16.8795 22.3418 17.2842L23.5233 19.4449C23.5768 19.5425 23.657 19.6228 23.7547 19.6763L25.9153 20.8578C26.32 21.0787 26.32 21.6601 25.9153 21.8811L23.7547 23.0626C23.657 23.1161 23.5768 23.1963 23.5233 23.294L22.3418 25.4546C22.1208 25.8593 21.5394 25.8593 21.3184 25.4546L20.137 23.294C20.0835 23.1963 20.0032 23.1161 19.9055 23.0626L17.7449 21.8811C17.3402 21.6601 17.3402 21.0787 17.7449 20.8578L19.9055 19.6763C20.0032 19.6228 20.0835 19.5425 20.137 19.4449Z" fill="white"/>
<circle cx="16.8657" cy="16" r="16" fill="url(#paint0_linear_60_1071)"/>
<path opacity="0.75" d="M21.1356 22.8442L15.1982 17.1542C14.5416 16.5249 14.5416 15.4753 15.1982 14.846L21.1356 9.15597C22.152 8.18194 23.8401 8.9023 23.8401 10.3101L23.8401 21.6901C23.8401 23.0979 22.152 23.8182 21.1356 22.8442Z" fill="white"/>
<path opacity="0.75" d="M12.5958 9.15594L18.5333 14.846C19.1899 15.4752 19.1899 16.5248 18.5332 17.1541L12.5958 22.8442C11.5794 23.8182 9.89135 23.0978 9.89135 21.6901L9.89136 10.31C9.89136 8.90227 11.5795 8.18191 12.5958 9.15594Z" fill="white"/>
<defs>
<linearGradient id="paint0_linear_60_1071" x1="-2.94073" y1="-6.49505" x2="58.1972" y2="36.3621" gradientUnits="userSpaceOnUse">
<stop offset="0.11138" stop-color="#F13690"/>
<stop offset="0.857227" stop-color="#F878FC"/>
</linearGradient>
</defs>
</svg>
