<?xml version="1.0" encoding="UTF-8"?> <svg xmlns="http://www.w3.org/2000/svg" width="20" height="16" viewBox="0 0 20 16" fill="none"><path d="M6.25955 16C13.8168 16 17.9389 9.86917 17.9389 4.56077C17.9389 4.41124 17.9389 4.18693 17.9389 4.0374C18.7786 3.43927 19.4656 2.76638 20 1.94395C19.2366 2.24302 18.4733 2.46731 17.6336 2.54207C18.4733 2.01871 19.1603 1.27104 19.4656 0.299083C18.7023 0.747681 17.7863 1.1215 16.8702 1.27104C16.1069 0.523373 15.0382 0 13.8931 0C11.6031 0 9.77098 1.79441 9.77098 4.0374C9.77098 4.33646 9.77101 4.63554 9.84734 4.9346C6.41223 4.78507 3.4351 3.14018 1.37404 0.747663C0.992357 1.34579 0.839722 2.0187 0.839722 2.76636C0.839722 4.18692 1.60305 5.38318 2.67175 6.13084C1.98473 6.13084 1.37407 5.90654 0.839722 5.60747C0.839722 5.60747 0.839722 5.6075 0.839722 5.68226C0.839722 7.62619 2.29009 9.27104 4.12215 9.64487C3.74047 9.71963 3.43511 9.79441 3.05343 9.79441C2.82443 9.79441 2.51908 9.79438 2.29008 9.71961C2.82443 11.2897 4.35114 12.486 6.10687 12.486C4.73282 13.5327 2.90075 14.2056 0.992357 14.2056C0.687013 14.2056 0.305343 14.2056 0 14.1308C1.83206 15.3271 3.96947 16 6.25955 16Z" fill="#375BD2"></path></svg> 