<svg width="30" height="31" viewBox="0 0 30 31" fill="none" xmlns="http://www.w3.org/2000/svg">
<path d="M18.1998 9.58963H16.4998C14.7999 9.48963 13.3999 10.7896 13.3999 12.4896C13.3999 12.5896 13.3999 12.6896 13.3999 12.8896V14.3896H11.6999C11.5999 14.3896 11.3999 14.4896 11.3999 14.6896V16.7895C11.3999 16.8895 11.4999 17.0895 11.6999 17.0895H13.3999V22.4895C13.3999 22.5895 13.4999 22.7895 13.6999 22.7895H15.8998C15.9998 22.7895 16.1998 22.6895 16.1998 22.4895V17.0895H18.1998C18.2998 17.0895 18.4998 16.9895 18.4998 16.7895V14.6896C18.4998 14.5896 18.4998 14.5896 18.3998 14.4896C18.2998 14.3896 18.2998 14.3896 18.1998 14.3896H16.1998V13.0896C16.1998 12.4896 16.2998 12.1896 17.0998 12.1896H18.1998C18.2998 12.1896 18.4998 12.0896 18.4998 11.8896V9.88963C18.3998 9.68963 18.2998 9.58963 18.1998 9.58963Z" fill="#F9F4F1"/>
<path fill-rule="evenodd" clip-rule="evenodd" d="M0 15.9898C0 7.68991 6.69992 0.98999 14.9998 0.98999C23.2997 0.98999 29.9996 7.68991 29.9996 15.9898C29.9996 24.2897 23.2997 30.9896 14.9998 30.9896C6.69992 30.9896 0 24.2897 0 15.9898ZM2 15.9896C2 23.1895 7.79993 28.9894 14.9998 28.9894C22.1998 28.9894 27.9997 23.1895 27.9997 15.9896C27.9997 8.78968 22.1998 2.98975 14.9998 2.98975C7.79993 2.98975 2 8.78968 2 15.9896Z" fill="#F9F4F1"/>
</svg>
