<svg width="133" height="36" viewBox="0 0 133 36" fill="none" xmlns="http://www.w3.org/2000/svg">
<path fill-rule="evenodd" clip-rule="evenodd" d="M3.81677 27.9649C6.20307 28.7246 8.75243 27.5064 9.4822 25.2579L12.182 16.5107C12.9118 14.2621 11.5564 11.8005 9.1702 11.0406L8.97096 10.9773C6.58479 10.2174 4.03529 11.4355 3.30567 13.6841L0.605826 22.4314C-0.12394 24.6801 1.23136 27.1416 3.61766 27.9015L3.81677 27.9649Z" fill="#084F99"/>
<path fill-rule="evenodd" clip-rule="evenodd" d="M32.3216 3.10096C32.8309 1.86968 33.7725 0.934172 34.8777 0.429395C34.9333 0.404066 34.9882 0.376523 35.0447 0.353409C35.0762 0.339983 35.1086 0.329049 35.1405 0.316315C36.052 -0.0348278 37.0585 -0.0972502 38.0255 0.210571L38.2247 0.274101C40.611 1.03383 41.8818 3.75605 41.0486 6.32326C41.0486 6.32326 34.5119 28.4061 34.5063 28.4235C32.7981 33.5067 27.3717 36.1384 22.7012 34.8173C22.7012 34.8173 21.4422 34.4435 20.9229 34.0694C25.5648 33.0719 31.3948 5.34125 32.3216 3.10096Z" fill="#5EB7FF"/>
<path fill-rule="evenodd" clip-rule="evenodd" d="M4.57425 30.8851C5.58206 31.2059 6.62047 31.2259 7.60481 30.9974C7.7613 30.9647 7.91345 30.9207 8.06324 30.8703C9.98748 30.2598 11.6416 28.6858 12.3432 26.5238L17.4367 9.71216C18.2773 7.15768 20.9018 5.68792 23.2816 6.44571L23.4808 6.5091C25.867 7.26896 27.1379 9.99105 26.3047 12.5584C26.3047 12.5584 21.4582 28.489 20.7815 29.814C15.8361 38.774 6.54642 34.396 3.91406 30.6466C4.06482 30.7096 4.21656 30.7712 4.375 30.8216L4.57425 30.8851Z" fill="#1479FB"/>
<path fill-rule="evenodd" clip-rule="evenodd" d="M113.736 13.2806L113.749 13.1844C113.749 13.1248 113.733 13.0636 113.699 12.9976C113.565 12.7328 112.815 12.1972 111.608 12.0936C111.503 12.0846 111.396 12.0801 111.29 12.0801C110.438 12.0801 109.486 12.4297 109.292 12.8136L109.275 12.8493L104.35 24.9676L99.6076 12.802C99.4084 12.4334 98.2832 12.032 97.4429 12.032C97.3952 12.032 97.3187 12.0287 97.2341 12.0247C97.1061 12.0186 96.931 12.0104 96.8634 12.0176C95.6812 12.1421 95.258 12.6484 95.1108 12.939C95.0782 13.0037 95.0617 13.063 95.0605 13.1206L95.0698 13.2196C95.2587 13.6986 101.711 29.7814 102.061 30.6527L102.083 30.6768C102.335 30.9474 103.553 31.333 104.355 31.333C105.153 31.333 106.305 31.0376 106.556 30.7689L106.578 30.745L113.722 13.3262L113.736 13.2806Z" fill="#2B2B2B"/>
<path fill-rule="evenodd" clip-rule="evenodd" d="M89.4912 24.4434C89.4912 25.6954 89.1769 26.5949 88.6064 26.9763C88.1216 27.2695 87.2095 27.6129 85.5714 27.6129L85.3853 27.6117C83.9898 27.6117 82.9115 27.3537 82.1819 26.8453C81.6076 26.445 81.2783 25.8929 81.2783 25.3303C81.2783 23.6229 82.2402 23.3133 85.1306 23.2496H89.4912V24.4434ZM93.5101 30.6637C93.5312 30.6164 93.5537 30.557 93.5537 30.4887V18.2961C93.5292 15.9953 92.7842 14.344 91.3394 13.3899C89.9539 12.4983 88.0893 12.0455 85.7996 12.0455L85.4121 12.0442C82.4668 12.0442 79.8041 13.0923 78.4613 14.7801C78.44 14.8128 78.4287 14.842 78.4167 14.8802C78.2637 15.3689 78.9096 16.1164 79.5745 16.604C80.1582 17.0323 80.7861 17.2982 81.2135 17.2982C81.3084 17.2793 81.7011 17.0226 81.7824 16.9449C82.2309 16.5166 83.4472 15.517 85.055 15.4839L85.7507 15.4663C87.0833 15.4662 88.3837 16.0755 88.9821 16.6773C89.3337 17.0305 89.5002 17.4921 89.4916 18.0882V19.8864H83.6695C81.6466 19.9098 80.0841 20.4641 79.028 21.534C77.9689 22.5834 77.4326 23.9221 77.4326 25.5145C77.4326 27.1817 78.0464 28.5673 79.2568 29.6329C80.4561 30.7698 82.9811 31.2989 84.9541 31.3213C86.2402 31.3213 87.2645 31.1621 87.996 30.8481C88.443 30.6664 88.8251 30.4226 89.1356 30.1223L89.4916 29.7778V30.4887C89.4916 30.5581 89.5143 30.6174 89.5366 30.6662C89.7461 31.1244 90.7132 31.3329 91.5227 31.3329C92.332 31.3329 93.2991 31.1237 93.5101 30.6637Z" fill="#2B2B2B"/>
<path fill-rule="evenodd" clip-rule="evenodd" d="M118.723 19.3641C118.956 17.5322 119.528 16.7394 120.315 16.1127C121.119 15.4717 122.092 15.3175 123.501 15.2677C124.694 15.2243 126.181 15.7222 126.875 16.3991C127.544 17.0723 127.933 18.0547 128.035 19.3213L128.053 19.5441L118.693 19.5991L118.723 19.3641ZM131.892 28.2429C132.027 27.736 131.369 26.9775 130.699 26.4873C130.12 26.0621 129.509 25.8049 129.023 25.7817C128.756 25.782 128.589 25.9222 128.544 25.9652C127.384 27.0141 126.07 27.5435 124.636 27.5435C123.343 27.5435 121.093 27.097 120.233 26.2585C119.382 25.4978 118.852 24.3516 118.787 23.1198L118.776 22.8981L119 22.9014C119.121 22.9033 131.12 23.0841 131.316 23.0841C131.509 23.082 131.688 22.9992 131.83 22.8451C132.372 22.2589 132.398 20.6051 132.328 19.7203L132.327 19.7061C132.302 17.118 131.478 15.0539 129.88 13.5711C128.231 12.0447 125.408 11.1892 122.52 11.3408C121.356 11.4014 120.463 11.5598 119.625 11.8544C118.637 12.1978 117.734 12.7635 116.941 13.5361C116.161 14.2972 115.513 15.3475 115.017 16.6579C114.522 17.9433 114.271 19.5725 114.271 21.5015C114.271 23.5089 114.558 25.1602 115.127 26.4101C115.654 27.7344 116.351 28.7764 117.203 29.5168C117.629 29.8654 118.106 30.1709 118.578 30.3961C120.634 31.4866 122.54 31.6206 123.932 31.7183L124.047 31.7265C124.163 31.7301 128.368 31.8398 131.822 28.3969C131.869 28.3316 131.883 28.2786 131.892 28.2429Z" fill="#2B2B2B"/>
<path fill-rule="evenodd" clip-rule="evenodd" d="M71.2857 30.7019C71.6495 29.7555 76.6441 13.4866 76.797 12.9846L76.8105 12.8795C76.8105 12.8204 76.7942 12.7597 76.7607 12.6935C76.6775 12.5278 75.9355 11.8639 74.632 11.7105C74.4902 11.6942 74.3451 11.6859 74.2021 11.6859C73.2894 11.6859 72.2956 12.0112 72.1169 12.3683L72.0969 12.4168L68.5784 24.8174L64.0168 12.3778C63.8856 12.006 62.984 11.6436 62.1957 11.6436C61.3812 11.6436 60.3863 12.021 60.2599 12.3778L60.1384 12.3355L60.137 12.3393L60.2599 12.3778L56.3389 24.6015L52.5741 12.4914L52.5421 12.4156C52.3569 12.0645 51.3771 11.6436 50.4255 11.6436C50.3378 11.6436 49.9806 11.6765 49.7888 11.6942C49.7101 11.7015 49.645 11.7075 49.608 11.7105C48.3745 11.8109 47.9449 12.4094 47.8175 12.6621C47.7832 12.7299 47.7666 12.7915 47.7666 12.8508L47.7691 12.8986L47.7669 12.9115L53.5969 30.6669C53.7767 31.0734 55.222 31.3323 56.145 31.3323C57.0926 31.3323 58.6217 31.0827 58.9202 30.6896L62.3044 19.4987L66.3222 30.6696C66.4875 31.0712 67.9472 31.333 68.8781 31.333C69.9192 31.333 71.1169 31.1119 71.2857 30.7019Z" fill="#2B2B2B"/>
</svg>
