<svg width="57" height="57" viewBox="0 0 57 57" fill="none" xmlns="http://www.w3.org/2000/svg">
<path d="M12.2632 44.1904C12.3195 42.7335 12.235 42.6772 12.4462 41.2343C12.6996 39.517 12.784 38.1938 13.889 36.7439C15.0292 35.2448 16.4439 34.4776 18.5695 34.0624C19.7378 33.8371 21.9408 33.436 23.0528 33.0629C24.1649 32.6899 25.9244 31.3034 24.193 29.3608C22.532 27.5027 20.688 24.8282 20.7232 21.4287C20.7443 19.2891 21.5114 17.1635 23.081 15.5588C25.7344 12.842 30.26 11.7581 34.0043 13.0391C40.2121 15.1647 39.9305 23.9414 36.4748 27.1367C34.3351 29.1145 32.9768 29.8535 33.0542 31.0078C33.1316 32.162 33.758 32.8236 34.9545 33.2459C35.7921 33.5415 36.7141 33.5274 37.5939 33.6823C40.3528 34.1609 44.4632 35.8219 44.9207 38.3416C45.4274 41.1288 45.4978 42.3393 45.4345 44.1834L12.2632 44.1904Z" fill="#9A9EF5"/>
<path d="M17.9922 32.7048C17.4433 32.5289 16.8872 32.3811 16.3312 32.2614C15.916 32.177 15.4937 32.0996 15.1277 31.8673C14.7617 31.635 14.459 31.1987 14.4661 30.713C14.4802 30.1288 14.9165 29.7066 15.2896 29.3054C16.2327 28.2778 16.9295 26.8983 17.0632 25.4062C17.1969 23.9141 16.7042 22.3234 15.6767 21.4085C14.7406 20.578 13.4596 20.3809 12.3124 20.6835" stroke="#F9F4F1" stroke-width="2.43226" stroke-miterlimit="10" stroke-linecap="round" stroke-linejoin="round"/>
<path d="M12.9599 20.6343C11.4819 20.7328 10.032 21.6548 9.25782 23.1188C8.48361 24.5827 8.46249 26.5675 9.28597 27.9892C9.52527 28.4045 9.82791 28.7705 10.0672 29.1857C10.2995 29.608 10.4684 30.1148 10.3769 30.6004C10.2854 31.1072 9.94053 31.5154 9.54638 31.7547C9.15224 31.994 8.70883 32.0996 8.26542 32.2122C7.21672 32.4796 6.10468 32.8386 5.40085 33.7817C4.63368 34.8093 4.52811 36.2733 4.49292 37.6316C4.49292 37.7513 4.49292 37.885 4.57034 37.9624C4.62665 38.0187 4.70407 38.0258 4.77445 38.0258C6.55513 38.1595 8.3358 38.2088 10.1165 38.2017" stroke="#F9F4F1" stroke-width="2.43226" stroke-miterlimit="10" stroke-linecap="round" stroke-linejoin="round"/>
<path d="M47.5178 37.8427C49.1999 37.7653 50.882 37.6597 52.5642 37.5612C52.6557 37.5542 52.7472 37.5471 52.8105 37.4767C52.8668 37.4134 52.8809 37.3219 52.8879 37.2374C52.9654 36.5547 53.0428 35.8579 52.9724 35.1752C52.902 34.4855 52.6698 33.8028 52.2052 33.3242C51.7689 32.8737 51.1776 32.6626 50.6076 32.4866C50.0234 32.3107 49.4322 32.1628 48.8409 32.0432C48.4046 31.9587 47.9541 31.8813 47.56 31.6491C47.1729 31.4168 46.8491 30.9804 46.8632 30.4948C46.8773 29.9106 47.3488 29.4883 47.7359 29.0871C48.7424 28.0595 49.4814 26.68 49.6152 25.1879C49.7489 23.6958 49.2351 22.1052 48.1442 21.1902C47.1518 20.3597 45.7934 20.1626 44.5687 20.4653" stroke="#F9F4F1" stroke-width="2.43226" stroke-miterlimit="10" stroke-linecap="round" stroke-linejoin="round"/>
<path d="M45.2725 20.416C43.6959 20.5146 42.1616 21.4366 41.3381 22.9005C40.5147 24.3645 40.4865 26.3493 41.3663 27.771C41.6197 28.1862 41.9434 28.5522 42.1968 28.9675C42.4502 29.3827 42.6191 29.8965 42.5276 30.3822C42.4361 30.8889 42.0631 31.2971 41.6478 31.5364C41.2326 31.7757 40.754 31.8813 40.2894 31.9939" stroke="#F9F4F1" stroke-width="2.43226" stroke-miterlimit="10" stroke-linecap="round" stroke-linejoin="round"/>
</svg>
