<svg width="57" height="57" viewBox="0 0 57 57" fill="none" xmlns="http://www.w3.org/2000/svg">
<path d="M13.1064 22.39C13.1484 20.934 13.0294 16.23 13.3934 16.174C16.1024 15.74 23.5574 15.971 23.8724 16.174C24.2154 16.391 26.8614 18.561 26.8614 18.561C26.8614 18.561 43.2904 18.218 43.3394 18.561C43.5074 19.667 43.5914 21.795 43.5914 22.908" stroke="#F9F4F1" stroke-width="3" stroke-miterlimit="10" stroke-linecap="round" stroke-linejoin="round"/>
<path d="M49.0024 24.609C49.0024 24.609 49.4434 22.572 46.2864 22.572C45.5164 22.572 40.5464 22.572 38.1804 22.572C30.8794 22.572 18.7554 22.572 18.7554 22.572C16.3894 22.572 10.6494 22.572 9.87242 22.572C6.72242 22.572 7.15642 24.609 7.15642 24.609C8.00342 29.6 10.2994 38.987 11.0834 41.878C11.1184 42.144 11.2794 42.431 11.7204 42.662C12.7494 43.285 14.5414 43.075 14.5414 43.075C14.5414 43.075 37.3894 43.075 42.3944 43.075C42.3944 43.075 44.1864 43.285 45.2154 42.662C45.6564 42.431 45.8174 42.144 45.8524 41.878C46.3564 38.91 48.5054 29.6 49.0024 24.609Z" fill="#9A9EF5"/>
</svg>
