<svg width="57" height="57" viewBox="0 0 57 57" fill="none" xmlns="http://www.w3.org/2000/svg">
<path d="M29.8714 30.2918C29.9974 21.9618 29.7524 13.6318 29.8854 5.30182C29.9064 3.95082 27.8064 3.95082 27.7854 5.30182C27.6594 13.6318 27.9044 21.9618 27.7714 30.2918C27.7504 31.6428 29.8504 31.6428 29.8714 30.2918Z" fill="#F9F4F1"/>
<path d="M42.4924 19.9247C40.0564 18.1117 36.7734 17.8107 34.0224 19.0567C32.6924 19.6587 31.5514 20.6247 30.6974 21.8077C30.0674 22.6757 29.0314 24.5587 29.9554 25.5037C31.2224 26.7917 33.1824 27.7647 34.9534 28.0237C37.5224 28.4017 39.6994 27.2187 41.1764 25.1607C42.0234 23.9847 42.6674 22.5287 42.9754 21.1077C43.2624 19.7917 41.2394 19.2247 40.9524 20.5477C40.8544 20.9887 40.7144 21.4157 40.5604 21.8357C40.4064 22.2487 40.3294 22.4377 40.0844 22.9207C39.8604 23.3547 39.5804 23.8237 39.3004 24.1947C38.6564 25.0347 37.7884 25.7207 36.7174 25.9377C35.5344 26.1827 34.2954 25.8047 33.2594 25.2517C32.7484 24.9787 32.2584 24.6637 31.7964 24.3137C31.9504 24.4327 31.7824 24.2997 31.7264 24.2577C31.6704 24.2157 31.6214 24.1667 31.5654 24.1247C31.5094 24.0827 31.4604 24.0337 31.4114 23.9847C31.5164 24.2297 31.6144 24.4817 31.7194 24.7267C31.8454 22.8297 33.9034 21.2407 35.5694 20.7017C37.5994 20.0437 39.7414 20.4847 41.4424 21.7447C41.8974 22.0807 42.6114 21.8217 42.8774 21.3667C43.1784 20.8277 42.9474 20.2607 42.4924 19.9247Z" fill="#F9F4F1"/>
<path d="M19.7284 17.3698C20.8904 16.5088 22.2624 16.2358 23.6064 16.6698C24.6214 16.9988 26.0074 18.0348 26.0774 19.1968C26.1824 18.9518 26.2804 18.6998 26.3854 18.4548C26.2944 18.5388 26.1964 18.6158 26.1054 18.6998C25.9864 18.8048 26.3084 18.5528 26.0984 18.6998C26.0424 18.7418 25.9864 18.7838 25.9234 18.8258C25.7624 18.9378 25.6014 19.0428 25.4334 19.1408C25.2724 19.2388 25.1044 19.3298 24.9364 19.4068C24.8944 19.4278 24.6214 19.5468 24.7684 19.4838C24.6564 19.5258 24.5374 19.5678 24.4254 19.6098C24.2224 19.6728 24.0124 19.7288 23.8024 19.7638C23.6204 19.7918 23.9354 19.7568 23.7534 19.7708C23.6974 19.7778 23.6414 19.7778 23.5854 19.7848C23.4524 19.7918 23.3264 19.7918 23.1934 19.7848C23.1374 19.7848 23.0814 19.7778 23.0254 19.7708C23.0534 19.7778 23.1374 19.7918 23.0184 19.7638C22.8854 19.7358 22.7454 19.7008 22.6194 19.6588C22.5564 19.6378 22.3604 19.5538 22.5214 19.6238C22.4234 19.5748 22.3254 19.5258 22.2344 19.4768C22.1434 19.4208 22.0524 19.3648 21.9684 19.3018C21.8074 19.1968 22.0384 19.3788 21.8984 19.2458C21.7444 19.0988 21.5974 18.9658 21.4574 18.8048C21.4014 18.7418 21.3454 18.6718 21.2894 18.6018C21.4014 18.7418 21.2894 18.5948 21.2474 18.5318C21.1354 18.3708 21.0304 18.2028 20.9324 18.0278C20.8554 17.8878 20.7784 17.7408 20.7084 17.6008C20.6664 17.5238 20.6314 17.4398 20.5964 17.3558C20.4914 17.1318 20.6384 17.4678 20.5754 17.3068C20.4354 16.9358 20.2954 16.5648 20.2114 16.1798C20.0924 15.6268 19.4484 15.3048 18.9164 15.4448C18.3424 15.6058 18.0624 16.1868 18.1884 16.7398C18.7344 19.2388 20.5964 21.8498 23.3684 21.8848C24.9784 21.9058 26.5044 21.1008 27.7014 20.0858C27.8344 19.9738 27.9464 19.8758 28.0374 19.7218C28.4084 19.0848 28.0234 18.1258 27.7154 17.5378C27.2394 16.6138 26.4414 15.8368 25.5734 15.2908C23.4804 13.9748 20.6594 14.0728 18.6714 15.5498C18.2164 15.8858 17.9854 16.4598 18.2934 16.9848C18.5524 17.4398 19.2664 17.7058 19.7284 17.3698Z" fill="#F9F4F1"/>
<path d="M37.1864 7.69589C35.6114 6.79989 33.6024 6.77889 32.0484 7.73789C31.3204 8.18589 30.6834 8.82289 30.2634 9.57889C30.0604 9.94989 29.8924 10.3559 29.8224 10.7689C29.7174 11.3989 29.7454 11.9729 30.3124 12.3719C31.1944 12.9949 32.3284 13.4079 33.4134 13.4289C34.9394 13.4569 36.2344 12.5609 36.9344 11.2379C37.3684 10.4259 37.6274 9.51589 37.7114 8.59889C37.7604 8.05289 37.1934 7.52789 36.6614 7.54889C36.0524 7.57689 35.6674 8.01089 35.6114 8.59889C35.5904 8.85089 35.6674 8.26989 35.6184 8.55689C35.5904 8.73189 35.5554 8.91389 35.5134 9.08889C35.4574 9.32689 35.3804 9.56489 35.2964 9.79589C35.2824 9.83089 35.1844 10.0619 35.2614 9.90089C35.3384 9.73289 35.2264 9.97089 35.2124 10.0059C35.1494 10.1389 35.0724 10.2789 34.9954 10.4049C34.9604 10.4609 34.9254 10.5169 34.8904 10.5729C34.8974 10.5659 34.8134 10.6779 34.8134 10.6779C34.8134 10.6709 34.9534 10.5169 34.8764 10.5939C34.7714 10.7129 34.6734 10.8319 34.5544 10.9369C34.5194 10.9649 34.4844 10.9929 34.4494 11.0279C34.3654 11.1119 34.5264 10.9579 34.5264 10.9719C34.5264 10.9859 34.3724 11.0769 34.3514 11.0839C34.2814 11.1259 34.2044 11.1539 34.1344 11.2029C34.0574 11.2589 34.1764 11.1889 34.1904 11.1819C34.1204 11.2029 34.0574 11.2309 33.9874 11.2519C33.9034 11.2729 33.8194 11.2869 33.7424 11.3149C33.5954 11.3569 33.9244 11.3079 33.7774 11.3149C33.7354 11.3149 33.6934 11.3219 33.6514 11.3219C33.5814 11.3289 33.1054 11.2799 33.0844 11.3079C33.0914 11.3009 33.2874 11.3429 33.1684 11.3149C33.1194 11.3009 33.0634 11.2939 33.0144 11.2869C32.9374 11.2729 32.8674 11.2519 32.7904 11.2309C32.6154 11.1819 32.4404 11.1189 32.2654 11.0629C32.0974 10.9999 32.4474 11.1539 32.2374 11.0489C32.1604 11.0139 32.0904 10.9789 32.0134 10.9439C31.8944 10.8879 31.7824 10.8179 31.6704 10.7549C31.5584 10.6919 31.4464 10.6219 31.3414 10.5449C31.5164 10.8459 31.6914 11.1469 31.8594 11.4549C31.8524 11.3709 31.8594 11.2869 31.8594 11.2029C31.8524 11.0629 31.8174 11.3149 31.8664 11.1819C31.8944 11.1049 31.9084 11.0139 31.9364 10.9369C31.9574 10.8739 31.9854 10.7969 31.9434 10.9019C32.0064 10.7549 32.0834 10.6219 32.1674 10.4889C32.1954 10.4399 32.2304 10.3909 32.2654 10.3419C32.2794 10.3209 32.4264 10.1319 32.3424 10.2299C32.2584 10.3349 32.4334 10.1319 32.4334 10.1319C32.4754 10.0899 32.5174 10.0479 32.5594 9.99889C32.6504 9.90089 32.7554 9.81689 32.8534 9.72589C32.9374 9.64189 32.7274 9.80989 32.8884 9.69789C32.9374 9.66289 32.9864 9.62789 33.0354 9.59989C33.1614 9.51589 33.2874 9.44589 33.4204 9.37589C33.4764 9.34789 33.5254 9.32689 33.5814 9.29889C33.4484 9.36189 33.5324 9.31989 33.6234 9.29189C33.7564 9.24289 33.8894 9.20789 34.0224 9.17289C34.0854 9.15889 34.1484 9.14489 34.2114 9.13089C34.4984 9.07489 34.1064 9.12389 34.2674 9.12389C34.4144 9.12389 34.5614 9.10289 34.7084 9.10989C34.7924 9.10989 34.8694 9.11689 34.9534 9.12389C34.9954 9.13089 35.2124 9.16589 35.0094 9.12389C35.1564 9.15189 35.2964 9.17989 35.4364 9.21489C35.5764 9.25689 35.7164 9.29889 35.8494 9.35489C35.7514 9.31289 35.7934 9.33389 35.8634 9.36889C35.9474 9.41089 36.0384 9.45989 36.1224 9.50889C36.5984 9.78189 37.2914 9.63489 37.5574 9.13089C37.8304 8.63389 37.6974 7.98289 37.1864 7.69589Z" fill="#F9F4F1"/>
<path d="M40.9244 29.4937C40.9244 29.4867 40.9244 29.4867 40.9244 29.4797C40.8894 29.4797 40.8264 29.4797 40.7424 29.4797C40.0564 29.4797 37.6974 29.4797 34.7784 29.4797C28.3594 29.4797 22.7314 29.4797 22.7314 29.4797C19.9104 29.4797 16.6204 29.4797 16.5854 29.4797C16.5854 29.4867 16.5854 29.4867 16.5854 29.4937C15.8084 29.5567 14.8354 30.0327 14.8354 31.0967C14.8354 32.2447 14.8354 34.4147 14.8354 35.1287C14.8354 36.5007 16.4034 36.1017 16.5154 36.7947C16.9494 39.4477 18.3774 47.0777 18.6504 48.2677C18.9234 49.4787 19.1334 51.0887 20.6384 51.0887C21.1004 51.0887 35.4714 51.0887 36.8014 51.0887C38.1314 51.0887 38.2994 49.6747 38.6494 48.2677C38.9924 46.8607 40.4974 39.6227 41.0014 36.7947C41.1204 36.1087 42.6814 36.5007 42.6814 35.1287C42.6814 34.4217 42.6814 32.2447 42.6814 31.0967C42.6814 30.0327 41.7084 29.5567 40.9244 29.4937Z" fill="#9A9EF5"/>
<path d="M20.3935 37.9988C25.8395 37.8938 31.2855 37.8518 36.7315 37.8728C38.0825 37.8798 38.0825 35.7798 36.7315 35.7728C31.2855 35.7518 25.8395 35.7938 20.3935 35.8988C19.0425 35.9268 19.0425 38.0268 20.3935 37.9988Z" fill="#F9F4F1"/>
<path d="M21.6884 52.0548C25.0484 52.1738 28.4154 52.2088 31.7754 52.1528C33.3644 52.1248 34.9604 52.1388 36.5424 52.0128C37.8934 51.9078 38.8734 51.3688 39.3984 50.0668C40.0144 48.5338 40.2314 46.7768 40.5744 45.1598C40.9454 43.3958 41.3164 41.6248 41.6664 39.8538C41.9324 38.5308 39.9094 37.9708 39.6434 39.2938C39.0274 42.3738 38.4534 45.4818 37.6834 48.5198C37.5924 48.8768 37.5014 49.4998 37.1794 49.7448C36.7594 50.0598 35.9054 49.9268 35.4294 49.9478C33.9244 50.0038 32.4124 50.0388 30.9074 50.0528C27.8344 50.0878 24.7614 50.0458 21.6884 49.9408C20.3374 49.9128 20.3374 52.0128 21.6884 52.0548Z" fill="#F9F4F1"/>
</svg>
