<svg width="59" height="51" viewBox="0 0 59 51" fill="none" xmlns="http://www.w3.org/2000/svg">
<path fill-rule="evenodd" clip-rule="evenodd" d="M46.2436 5.04011C46.9661 3.29579 48.3018 1.9705 49.8696 1.25539C49.8957 1.24356 49.9216 1.23138 49.9475 1.2192L49.9476 1.21913L49.9477 1.2191C50.0003 1.19439 50.0529 1.16966 50.1065 1.14775C50.1326 1.13668 50.159 1.1268 50.1855 1.11692L50.1856 1.1169L50.1857 1.11686C50.2047 1.10979 50.2236 1.10272 50.2425 1.0952C51.5356 0.597745 52.9633 0.509313 54.3351 0.945393L54.6178 1.03539C58.003 2.11167 59.8057 5.96816 58.6238 9.60503C58.6238 9.60503 49.3507 40.8891 49.3428 40.9138C46.9195 48.115 39.2216 51.8432 32.5961 49.9716C32.5961 49.9716 30.81 49.442 30.0732 48.912C35.2001 47.8118 41.3485 23.756 44.4407 11.6578C45.3202 8.21666 45.9524 5.74294 46.2436 5.04011ZM5.80611 40.2641C9.19133 41.3404 12.8079 39.6147 13.8431 36.4292L17.6731 24.0374C18.7084 20.8519 16.7855 17.3646 13.4005 16.2881L13.1179 16.1983C9.73284 15.1218 6.11611 16.8475 5.08106 20.033L1.25105 32.425C0.215802 35.6107 2.13844 39.0978 5.52366 40.1743L5.80611 40.2641ZM11.18 44.56C9.78366 44.8838 8.31056 44.8555 6.88088 44.401L6.59823 44.311C6.37346 44.2396 6.1582 44.1524 5.94434 44.0632C9.67861 49.3748 22.857 55.5769 29.8726 42.8836C30.8325 41.0065 37.7078 18.4382 37.7078 18.4382C38.8898 14.8011 37.0868 10.9448 33.7018 9.86834L33.4192 9.77854C30.0433 8.705 26.3201 10.7872 25.1277 14.406L17.9019 38.2226C16.9067 41.2853 14.5601 43.5151 11.8304 44.38C11.6179 44.4514 11.402 44.5138 11.18 44.56Z" fill="white"/>
</svg>
