<svg width="57" height="57" viewBox="0 0 57 57" fill="none" xmlns="http://www.w3.org/2000/svg">
<path d="M43.5572 11.5399C48.1352 14.1159 51.0612 20.1499 49.0662 25.0079C46.7562 30.6569 28.7802 47.7579 28.7802 47.7579C28.7802 47.7579 9.93619 33.2679 8.24219 25.0079C7.19219 19.8629 9.18019 14.1159 13.7582 11.5399C18.3362 8.96388 25.4692 9.11788 28.5632 15.4949C33.9672 7.38188 43.5572 11.5399 43.5572 11.5399Z" fill="#9A9EF5"/>
<path d="M25.4761 43.6698C20.2051 39.2388 10.6361 30.5518 9.48109 24.9308C8.48709 20.0588 10.3631 14.6128 14.6961 12.1768" stroke="#F9F4F1" stroke-width="3" stroke-miterlimit="10" stroke-linecap="round" stroke-linejoin="round"/>
<path d="M41.2682 14.9209C42.2972 15.1239 43.2282 15.7609 43.7952 16.6429C44.3622 17.5249 44.5582 18.6309 44.3202 19.6529" stroke="#F9F4F1" stroke-width="3" stroke-miterlimit="10" stroke-linecap="round" stroke-linejoin="round"/>
</svg>
