<svg width="31" height="31" viewBox="0 0 31 31" fill="none" xmlns="http://www.w3.org/2000/svg">
<path d="M17.7499 10.9897H12.5833C11.1566 10.9897 10 12.1463 10 13.573V18.7397C10 20.1664 11.1566 21.323 12.5833 21.323H17.7499C19.1766 21.323 20.3332 20.1664 20.3332 18.7397V13.573C20.3332 12.1463 19.1766 10.9897 17.7499 10.9897Z" stroke="#F9F4F1" stroke-width="1.45" stroke-linecap="round" stroke-linejoin="round"/>
<path d="M17.2332 15.8309C17.297 16.2609 17.2236 16.7 17.0234 17.0859C16.8232 17.4717 16.5064 17.7846 16.1181 17.98C15.7298 18.1755 15.2898 18.2435 14.8606 18.1744C14.4315 18.1054 14.035 17.9027 13.7276 17.5954C13.4202 17.288 13.2176 16.8915 13.1486 16.4624C13.0795 16.0332 13.1475 15.5932 13.343 15.2049C13.5384 14.8166 13.8513 14.4998 14.2371 14.2996C14.623 14.0994 15.0621 14.026 15.4921 14.0897C15.9307 14.1548 16.3368 14.3592 16.6503 14.6727C16.9638 14.9862 17.1682 15.3923 17.2332 15.8309Z" stroke="#F9F4F1" stroke-width="1.45" stroke-linecap="round" stroke-linejoin="round"/>
<path d="M18.0083 13.3147H18.0133" stroke="#F9F4F1" stroke-width="1.45" stroke-linecap="round" stroke-linejoin="round"/>
<path fill-rule="evenodd" clip-rule="evenodd" d="M0.290527 15.9896C0.290527 7.68967 6.99045 0.989746 15.2903 0.989746C23.5903 0.989746 30.2902 7.68967 30.2902 15.9896C30.2902 24.2895 23.5903 30.9894 15.2903 30.9894C6.99045 30.9894 0.290527 24.2895 0.290527 15.9896ZM2.2905 15.9896C2.2905 23.1895 8.09043 28.9895 15.2903 28.9895C22.4903 28.9895 28.2902 23.1895 28.2902 15.9896C28.2902 8.78969 22.4903 2.98976 15.2903 2.98976C8.09043 2.98976 2.2905 8.78969 2.2905 15.9896Z" fill="#F9F4F1"/>
</svg>
