<svg width="30" height="31" viewBox="0 0 30 31" fill="none" xmlns="http://www.w3.org/2000/svg">
<path fill-rule="evenodd" clip-rule="evenodd" d="M-0.000610352 15.9896C-0.000610352 7.68967 6.69931 0.989746 14.9992 0.989746C23.2991 0.989746 29.999 7.68967 29.999 15.9896C29.999 24.2895 23.2991 30.9894 14.9992 30.9894C6.69931 30.9894 -0.000610352 24.2895 -0.000610352 15.9896ZM1.99938 15.9896C1.99938 23.1895 7.79931 28.9895 14.9992 28.9895C22.1991 28.9895 27.9991 23.1895 27.9991 15.9896C27.9991 8.78969 22.1991 2.98976 14.9992 2.98976C7.79931 2.98976 1.99938 8.78969 1.99938 15.9896Z" fill="#F9F4F1"/>
<path d="M20.9991 11.3896C20.4991 11.6896 19.9991 11.8896 19.3991 11.9896C18.3992 10.9896 16.7992 10.8896 15.7992 11.8896C15.2992 12.3896 14.9992 13.0896 14.9992 13.7896C14.9992 13.9896 14.9992 14.1896 15.0992 14.3896C13.0992 14.2896 11.1992 13.2896 9.89926 11.7896C9.59926 11.9896 9.49926 12.4896 9.49926 12.8896C9.49926 13.6896 9.89926 14.4896 10.5992 14.9896C10.1993 14.9896 9.79926 14.8896 9.49926 14.6896C9.49926 15.8896 10.2993 16.8895 11.4992 17.1895C11.2992 17.2895 11.0992 17.2895 10.7992 17.2895C10.5992 17.2895 10.4992 17.2895 10.2993 17.2895C10.5992 18.2895 11.5992 18.9895 12.6992 19.0895C11.7992 19.7895 10.6992 20.1895 9.59926 20.1895C9.39926 20.1895 9.19927 20.1895 8.99927 20.1895C12.2992 22.2895 16.7992 21.3895 18.8991 17.9895C19.5991 16.7895 19.9991 15.4896 19.9991 14.0896V13.7896C20.4991 13.3896 20.8991 12.9896 21.2991 12.4896C20.7991 12.6896 20.3991 12.7896 19.7991 12.8896C20.3991 12.4896 20.7991 11.9896 20.9991 11.3896Z" fill="#F9F4F1"/>
</svg>
