<svg width="31" height="31" viewBox="0 0 31 31" fill="none" xmlns="http://www.w3.org/2000/svg">
<path d="M10.3899 11.0895V11.1895C10.3899 11.8895 10.8899 12.3895 11.5899 12.4895H11.6899C12.3899 12.5895 12.9899 12.0895 13.0899 11.3895C13.1899 10.6895 12.6899 10.0895 11.9899 9.98955C11.8899 9.98955 11.8899 9.98955 11.7899 9.98955C11.0899 9.88955 10.4899 10.3895 10.3899 11.0895Z" fill="#F9F4F1"/>
<rect x="10.4899" y="13.4895" width="2.39997" height="7.19991" fill="#F9F4F1"/>
<path d="M18.8899 13.2896C17.9899 13.2896 17.1899 13.6895 16.6899 14.4895V13.4895H14.2899C14.2899 14.1895 14.2899 20.6895 14.2899 20.6895H16.6899V16.6895C16.6899 16.4895 16.6899 16.2895 16.7899 16.0895C16.9899 15.5895 17.4899 15.1895 17.9899 15.1895C18.8899 15.1895 19.1899 15.7895 19.1899 16.7895V20.6895H21.5898V16.4895C21.5898 14.2895 20.3898 13.2896 18.8899 13.2896Z" fill="#F9F4F1"/>
<path fill-rule="evenodd" clip-rule="evenodd" d="M0.790039 15.9896C0.790039 7.68967 7.48996 0.989746 15.7899 0.989746C24.0898 0.989746 30.7897 7.68967 30.7897 15.9896C30.7897 24.2895 24.0898 30.9894 15.7899 30.9894C7.48996 30.9894 0.790039 24.2895 0.790039 15.9896ZM2.79006 15.9896C2.79006 23.1895 8.58999 28.9895 15.7899 28.9895C22.9898 28.9895 28.7897 23.1895 28.7897 15.9896C28.7897 8.78969 22.9898 2.98976 15.7899 2.98976C8.58999 2.98976 2.79006 8.78969 2.79006 15.9896Z" fill="#F9F4F1"/>
</svg>
