<svg width="403" height="152" viewBox="0 0 403 152" fill="none" xmlns="http://www.w3.org/2000/svg">
<path fill-rule="evenodd" clip-rule="evenodd" d="M19.8248 151.492C8.95437 151.473 0.0216352 142.54 0.0022583 131.67V20.33C0.0216352 9.45958 8.95437 0.526823 19.8248 0.507446H382.191C393.062 0.526823 401.995 9.45958 402.014 20.33V131.65C401.995 142.521 393.062 151.454 382.191 151.473H19.8248V151.492Z" fill="#015A75"/>
<path fill-rule="evenodd" clip-rule="evenodd" d="M19.8248 3.60779C10.6595 3.62716 3.10254 11.1648 3.10254 20.3301V131.65C3.12192 140.816 10.6595 148.373 19.8248 148.373H136.28V3.60779H19.8248ZM293.988 104.368L296.468 100.88C298.251 102.74 300.731 103.786 303.308 103.786C305.827 103.786 307.048 102.624 307.048 101.403C307.048 99.8335 305.052 99.3685 302.688 98.7872C299.162 97.9927 294.666 97.0239 294.666 92.1215C294.666 88.5368 297.766 85.5721 302.824 85.5721C306.254 85.5721 309.083 86.5991 311.214 88.5756L308.656 91.9278C306.932 90.397 304.703 89.5638 302.398 89.5831C300.44 89.5831 299.336 90.4551 299.336 91.734C299.336 93.1291 301.312 93.5748 303.618 94.1173C307.145 94.9506 311.679 96.0163 311.679 100.899C311.679 104.833 308.869 107.797 303.076 107.797C298.948 107.759 295.964 106.402 293.988 104.368ZM274.379 104.368L276.859 100.88C278.642 102.74 281.122 103.786 283.699 103.786C286.218 103.786 287.439 102.624 287.439 101.403C287.439 99.8335 285.443 99.3685 283.098 98.7872C279.572 97.9927 275.076 97.0239 275.076 92.1215C275.076 88.5368 278.176 85.5721 283.234 85.5721C286.644 85.5721 289.493 86.5991 291.624 88.5756L289.086 91.9278C287.361 90.397 285.133 89.5638 282.827 89.5831C280.87 89.5831 279.765 90.4551 279.765 91.734C279.765 93.1291 281.742 93.5748 284.048 94.1173C287.574 94.9506 292.108 96.0163 292.108 100.899C292.108 104.833 289.299 107.797 283.505 107.797C279.358 107.759 276.394 106.402 274.379 104.368ZM202.975 104.368L205.455 100.88C207.238 102.74 209.718 103.786 212.295 103.786C214.814 103.786 216.035 102.624 216.035 101.403C216.035 99.8335 214.039 99.3685 211.675 98.7872C208.148 97.9927 203.653 97.0239 203.653 92.1215C203.653 88.5368 206.753 85.5721 211.811 85.5721C215.24 85.5721 218.069 86.5991 220.201 88.5756L217.643 91.9278C215.919 90.397 213.69 89.5638 211.384 89.5831C209.427 89.5831 208.323 90.4551 208.323 91.734C208.323 93.1291 210.28 93.5748 212.605 94.1173C216.132 94.9506 220.666 96.0163 220.666 100.899C220.666 104.833 217.856 107.797 212.063 107.797C207.955 107.759 204.99 106.402 202.975 104.368ZM180.536 98.8259V85.8822H185.226V98.6515C185.226 101.655 186.989 103.709 190.283 103.709C193.577 103.709 195.321 101.636 195.321 98.6515V85.8822H200.01V98.7872C200.01 104.135 196.852 107.778 190.302 107.778C183.772 107.797 180.536 104.116 180.536 98.8259ZM247.91 107.41L237.659 93.381V107.41H233.087V85.8822H237.776L247.755 99.3685V85.8822H252.328V107.391H247.91V107.41ZM224.018 107.41V85.8822H228.591V107.391H224.018V107.41ZM256.804 107.41V85.8822H272.053V89.9126H261.396V94.4661H271.821V98.4965H261.396V103.36H272.034V107.391L256.804 107.41ZM158.951 107.41V85.8822H170.267C174.375 85.8822 176.467 88.498 176.467 91.3658C176.467 94.0786 174.782 95.8806 172.766 96.3069C175.053 96.6557 176.874 98.8841 176.874 101.577C176.874 104.794 174.723 107.391 170.616 107.391L158.951 107.41ZM172.204 100.957C172.204 99.601 171.236 98.4384 169.434 98.4384H163.543V103.438H169.434C171.158 103.438 172.204 102.488 172.204 100.957ZM171.797 92.1603C171.797 90.862 170.732 89.8157 169.453 89.8157C169.395 89.8157 169.337 89.8157 169.278 89.8157H163.543V94.5049H169.278C170.829 94.5049 171.797 93.536 171.797 92.1797V92.1603ZM180.207 59.704C180.207 53.0964 185.206 48.5622 191.659 48.5622C195.418 48.4653 198.906 50.5193 200.65 53.8327L196.716 55.7704C195.747 53.8909 193.81 52.6701 191.678 52.6314C187.783 52.6314 184.935 55.6348 184.935 59.6652C184.935 63.6956 187.764 66.699 191.678 66.699C193.81 66.6796 195.767 65.4783 196.736 63.5793L200.65 65.5364C199.099 68.2104 196.387 70.8069 191.659 70.8069C185.226 70.8263 180.207 66.3309 180.207 59.704ZM202.587 59.704C202.587 53.0964 207.587 48.5622 214.039 48.5622C217.798 48.4653 221.286 50.5193 223.03 53.8327L219.096 55.7704C218.108 53.8715 216.171 52.6701 214.039 52.6314C210.144 52.6314 207.296 55.6348 207.296 59.6652C207.296 63.6956 210.125 66.699 214.039 66.699C216.171 66.6796 218.128 65.4783 219.096 63.5793L223.03 65.4783C221.48 68.1523 218.767 70.7488 214.039 70.7488C207.606 70.8263 202.587 66.3309 202.587 59.704ZM238.163 70.4581L233.939 62.843H230.587V70.4581H226.014V48.9498H236.071C240.547 48.9498 243.298 51.8757 243.298 55.8867C243.298 59.6846 240.915 61.7579 238.609 62.2811L243.453 70.4969L238.163 70.4581ZM173.793 70.4581L172.476 66.8153H163.252L161.896 70.4581H156.664L164.996 48.9498H170.732L179.025 70.4581H173.793ZM336.481 70.4581V48.9498H344.969C351.712 48.9498 356.381 53.2321 356.381 59.7233C356.381 66.2146 351.692 70.4581 344.969 70.4581H336.481V70.4581ZM317.453 70.4581V48.9498H332.703V52.9802H322.026V57.5337H332.432V61.5641H322.026V66.4277H332.664V70.4581H317.453ZM289.396 70.4581V48.9498H293.969V70.4581H289.396ZM266.008 70.4581V48.9498H274.495C281.238 48.9498 285.908 53.2321 285.908 59.7233C285.908 66.2146 281.219 70.4581 274.495 70.4581H266.008V70.4581ZM246.98 70.4581V48.9498H262.229V52.9802H251.553V57.5337H261.977V61.5641H251.553V66.4277H262.191V70.4581H246.98ZM303.425 70.4581V52.9802H297.127V48.9498H314.295V52.9802H308.036V70.4581H303.425V70.4581ZM351.731 59.7233C351.731 55.9255 349.386 52.9802 344.988 52.9802H341.093V66.4277H344.988C349.212 66.4277 351.692 63.3662 351.692 59.7233H351.731ZM281.257 59.7233C281.257 55.9255 278.913 52.9802 274.514 52.9802H270.619V66.4277H274.514C278.738 66.4277 281.219 63.3662 281.219 59.7233H281.257ZM167.864 53.5227L164.512 62.7849H171.216L167.864 53.5227ZM238.609 55.8673C238.609 54.0653 237.233 52.9608 235.392 52.9608H230.587V58.7739H235.392C237.233 58.7739 238.609 57.6888 238.609 55.8673Z" fill="white"/>
<path fill-rule="evenodd" clip-rule="evenodd" d="M48.1731 124.888C51.2347 126.244 52.7267 127.136 53.308 130.933C54.2962 137.56 48.1925 140.079 42.4376 140.079H28.9513V111.169H42.5539C47.4368 111.169 51.8935 113.397 51.8935 118.842C51.8935 121.555 50.479 123.531 48.1731 124.888ZM75.1845 124.888C78.246 126.244 79.738 127.136 80.3194 130.933C81.3076 137.56 75.2039 140.079 69.4489 140.079H55.9626V111.169H69.5652C74.4482 111.169 78.9048 113.397 78.9048 118.842C78.9048 121.555 77.4903 123.531 75.1845 124.888ZM107.331 130.953C106.749 127.155 105.238 126.264 102.196 124.907C104.502 123.551 105.936 121.574 105.936 118.842C105.936 113.397 101.479 111.169 96.5959 111.169H82.9934V140.099H96.4797C102.215 140.099 108.338 137.58 107.331 130.953ZM111.09 133.162V133.104C111.09 129.441 114.093 126.438 117.755 126.438C121.418 126.438 124.421 129.441 124.421 133.084V133.142C124.421 136.805 121.418 139.808 117.755 139.808C114.113 139.827 111.109 136.824 111.09 133.162ZM123.82 133.142V133.084C123.801 129.771 121.069 127.039 117.755 127.039C114.423 127.039 111.69 129.771 111.69 133.104V133.162C111.71 136.475 114.442 139.207 117.755 139.207C121.088 139.207 123.82 136.475 123.82 133.142ZM115.14 129.519H118.201C118.937 129.48 119.674 129.751 120.236 130.236C120.604 130.585 120.798 131.069 120.798 131.554V131.592C120.798 132.697 120.061 133.356 119.034 133.607L121.146 136.359H119.887L117.91 133.782H116.167V136.359H115.159L115.14 129.519ZM42.9995 134.615H35.0938V128.027H42.9995C48.7932 128.027 48.4444 134.615 42.9995 134.615ZM70.0109 134.615H62.1245V128.027H70.0109C75.8045 128.027 75.4558 134.615 70.0109 134.615ZM89.1358 128.027V134.615H97.0222C102.467 134.615 102.816 128.027 97.0222 128.027H89.1358ZM118.104 132.871C119.054 132.871 119.732 132.425 119.732 131.65V131.612C119.732 130.895 119.151 130.43 118.162 130.43H116.147V132.871H118.104ZM35.0938 116.691H42.1857C46.6036 116.691 46.7586 122.853 42.457 122.853H35.0938V116.691ZM89.1552 116.691H96.189C100.607 116.691 100.762 122.853 96.4603 122.853H89.1164L89.1552 116.691ZM62.1439 116.691H69.2164C73.6343 116.691 73.7894 122.853 69.4877 122.853H62.1245L62.1439 116.691ZM42.0113 98.2252H55.1682L57.5128 106.209H79.0211L81.3657 98.2252H94.5226L92.7981 92.354H43.7358L42.0113 98.2252ZM57.9391 50.9262L51.5641 59.7233C48.3669 64.1219 49.3551 71.9308 53.7149 75.0698L65.5348 83.5956C67.5694 85.0683 67.7244 86.5216 66.7556 88.0523L68.4801 89.3312L74.4675 81.0379C78.1685 75.903 77.8391 68.9467 72.3555 64.9357L60.4193 56.2355C59.0048 55.1891 58.8498 53.7358 59.6249 52.1275L57.9391 50.9262ZM68.1701 12.0948L58.2491 25.8331C53.5987 32.2662 55.2844 43.2529 61.6401 47.9421L77.9554 59.9171C81.2688 62.3392 81.6951 68.5398 79.2924 71.6982L80.6681 72.7446L91.9261 56.9136C96.9835 49.8023 96.6928 39.2807 88.7483 33.5257L71.2897 20.8338C68.8482 19.0705 67.6275 16.0477 69.6621 13.1606L68.1701 12.0948Z" fill="#015A75"/>
</svg>
