<svg xmlns="http://www.w3.org/2000/svg" width="186" height="40" fill="#fff" fill-rule="evenodd" xmlns:v="https://vecta.io/nano"><path d="M51.072 10.396c-.069.182-.093.738-.052 1.235l.074.905 2.736.066 2.736.066.061 8.381.061 8.381h1.282 1.282l.061-8.381.061-8.381 2.736-.066 2.736-.066v-1.173-1.173l-6.823-.062c-5.697-.052-6.844-.008-6.949.269zm49.335-.276l-.054 3.644v3.687l-.723-.752c-1.73-1.632-5.805-1.284-7.138.609-1.643 2.333-1.664 8.52-.037 10.821 1.46 2.064 5.741 2.408 7.246.583.303-.368.647-.899.647-.07a11.4 11.4 0 0 0 .064.932h2.312l-.061-9.691-.072-9.761h-1.046c-.582-.038-1.138 0-1.138 0zm21.423 0c-.085.086 0 4.584 0 9.863v9.598l4.836-.076c4.425-.069 4.916-.119 5.769-.581 3.533-1.914 3.69-7.34.266-9.166-.394-.21-.363-.275.349-.719 3.437-2.142 1.886-7.922-2.342-8.729-1.381-.264-8.631-.439-8.878-.191zm17.124 0c0 .496-.103 16.631.2 17.643.383 1.278 1.241 1.849 2.964 1.975h1.343v-1.041-1.216c-.32 0-.418.039-.812 0-1.237-.121-1.231-.08-1.296-8.982l-.072-8.379h-1.047c-.582-.038-1.153 0-1.28 0zm35.801.069c-.072.297-.002 5.057.034 10.09v9.269h1.292l1.22.025.002-1.948.002-1.948 1.149-1.351 1.149-1.352 1.354 2.22 1.99 3.287c.633 1.065.638 1.067 1.947 1.067 1.601 0 1.708.373-1.322-4.589l-2.358-3.86 1.714-2.013 2.142-2.58.427-.567-1.36.005-1.359.005-2.681 3.206-2.68 3.206-.116-6.086-.117-6.086h-1.124-1.305zm-43.897 2.777c1.659.878 1.942 3.299.55 4.702l-.729.734-3.142.077-3.143.077v-2.912c0-1.602.079-2.993.175-3.093.339-.351 5.483-.011 6.289.415zm-59.021 2.678c-1.23.205-1.565.352-2.326 1.026l-.82.725v-.728c0-.717-.017-.728-1.165-.728H66.36v6.805 6.805h1.138 1.138v-4.658c0-6.136 1.094-7.896 4.288-6.754l1.193.427.542-.667c.274-.337.581-.787.525-1.097-.312-.712-1.711-1.426-3.346-1.154zm8.852.059c-1.268.185-3.141 1.035-3.141 1.425 0 .266.663 1.626.792 1.626.044 0 .579-.222 1.189-.493 2.842-1.265 5.766-.694 5.766 1.994l.009 1.315-2.305.001c-4.404.002-6.395 1.3-6.379 4.156.021 3.643 4.762 5.585 7.849 3.214l.77-.591v.599c0 .563.07.599 1.18.599h1.107v-5.573c.141-7.177-.857-8.999-6.837-8.271zm30.317.03c-4.999.411-6.401 10.192-2.111 13.171 2.658 1.846 7.591.931 8.843-1.506.174-.34-.253-.481-.599-.773-.729-.618-.727-.772-1.136-.384-.414.394-.544.487-1.211.821-2.752 1.381-5.414.202-5.72-2.533l-.121-1.083h4.607 4.607l-.162-1.799c-.4-4.446-2.891-6.551-6.997-5.914zm39.601-.103c-5.3.827-6.274 10.974-1.718 13.578 4.197 2.185 8.329-.328 8.748-5.321.47-5.618-2.404-8.977-7.03-8.256zm14.759.102c-3.801.567-5.768 5.368-4.271 10.429 1.11 3.754 6.221 5.025 9.223 2.294 1.121-1.019 1.119-.979.088-1.807l-.835-.671-.622.584c-3.212 3.013-6.368.145-5.749-5.225.378-3.281 3.272-4.603 5.59-2.553l.802.709.825-.662c1.001-.805.999-.755.066-1.644-1.359-1.295-3.017-1.766-5.117-1.453zm-66.843 2.494c1.277.642 1.631 1.622 1.631 4.516 0 3.571-.899 4.928-3.262 4.927-2.189-.001-3.116-1.466-3.126-4.934-.009-3.425.975-4.92 3.242-4.92.385 0 1.066.185 1.515.41zm15.572.064c.808.496 1.442 1.677 1.442 2.685v.594h-3.263-3.263v-.787c0-2.353 2.953-3.8 5.084-2.492zm39.555.093c2.174 1.434 2.043 7.455-.193 8.828-2.673 1.641-4.918-.395-4.912-4.454.006-4.168 2.36-6.184 5.105-4.373zm-23.153 2.724c2.509.702 2.86 4.616.514 5.737-.543.259-1.539.356-3.681.356h-2.936v-3.168-3.168l2.622.001c1.442.001 3.009.109 3.481.241zm-45.193 3.974c-.233 3.242-5.494 4.147-6.249 1.116-.472-1.895.755-2.675 4.289-2.724h1.951l.009 1.608zM16.597.451c-2.801 1.421-3.06 5.467-.46 7.184 2.678 1.77 6.204.088 6.512-3.106.31-3.217-3.151-5.55-6.052-4.078zM6.682 6.092L.946 9.779c-.518.933-.437 12.788.086 12.567 1.289-.546 2.075-.77 2.73-.779l.739-.01v-4.533c0-5.74-.318-5.167 4.365-7.852 3.714-2.129 3.854-2.236 3.697-2.808-.089-.327-.225-1.232-.301-2.01l-.139-1.415-5.44 3.154zm17.997-1.624c-.071.841-.195 1.744-.276 2.009-.131.427.285.728 3.714 2.695 4.684 2.686 4.366 2.113 4.366 7.853v4.533l.739.01c.655.009 1.441.233 2.73.779.495.21.621-11.411.135-12.476-.211-.463-6.768-4.498-11.138-6.855-.077-.042-.199.612-.27 1.453zM2.264 24.076c-2.801 1.421-3.06 5.467-.46 7.184 2.679 1.77 6.205.088 6.512-3.106.31-3.217-3.152-5.55-6.052-4.078zm28.665 0c-2.801 1.421-3.06 5.467-.46 7.184 2.678 1.77 6.204.088 6.512-3.106.31-3.217-3.152-5.55-6.052-4.078zM8.482 32.12c-.626.651-1.291 1.236-1.479 1.299-.473.16-.71.007 5.346 3.464 3.679 2.1 5.683 3.117 6.142 3.117s2.464-1.017 6.142-3.117c6.055-3.456 5.82-3.304 5.346-3.463-.188-.063-.897-.665-1.577-1.338l-1.236-1.224-3.769 2.152c-5.47 3.123-4.427 3.152-10.362-.293-1.749-1.015-3.233-1.831-3.299-1.813s-.631.565-1.256 1.216z"/></svg>