<svg xmlns="http://www.w3.org/2000/svg" width="834" height="357" fill="#faf9fa" xmlns:v="https://vecta.io/nano"><path d="M509.812 356.946c-99.085 0-179.384-79.891-179.384-178.473S410.727 0 509.812 0v88.953c-49.707 0-89.976 40.066-89.976 89.52s40.269 89.52 89.976 89.52v88.953zM125.68.001H44.627v.052H0v178.473h89.252V88.954h36.428c49.724 0 90.006 40.078 90.006 89.546s-40.282 89.546-90.006 89.546V357c99.101 0 179.413-79.903 179.413-178.5S224.781.001 125.68.001zM789.373 357h-81.052c-99.101 0-179.414-79.903-179.414-178.5S609.22.001 708.321.001v88.953c-49.725 0-90.007 40.078-90.007 89.546s40.282 89.546 90.007 89.546h36.427v-89.571H834v178.473h-44.627V357z"/></svg>