<svg xmlns="http://www.w3.org/2000/svg" width="150" height="40" fill="none" xmlns:v="https://vecta.io/nano"><path fill-rule="evenodd" d="M7.538 8.217c-1.853.557-2.499 1.671-2.499 4.307v1.841H2.519 0v1.697 1.697l2.462.065 2.462.065.061 6.877.06 6.876h2.287 2.287v-6.933-6.933h3.321 3.321V16.07v-1.705h-3.321-3.321v-1.232c0-2.041-.165-1.951 3.574-1.951h3.296V9.591 8l-4.179.02-4.772.198zm97.337 4.386c-.008 4.042-.046 4.503-.306 3.781-1.892-5.257-12.919-5.597-16.176-.5-2.226 3.484-2.074 9.515.319 12.638 3.573 4.664 14.052 4.086 15.832-.873.313-.872.322-.83.331 1.548l.01 2.444h2.405 2.405V19.821 8h-2.405-2.405l-.01 4.603zm-80.552.063c-5.135 1.107-7.245 3.82-7.245 9.315 0 6.58 2.964 9.312 10.404 9.589 4.758.177 7.614-.612 9.773-2.701 3.114-3.012 3.231-10.222.22-13.531-2.307-2.534-8.217-3.735-13.15-2.672zm16.715 6.644c.067 6.737.088 7.031.596 8.127 2.728 5.889 13.645 5.757 15.518-.187.284-.903.299-.82.314 1.722l.015 2.671h2.405 2.405V21.98v-9.661h-2.405-2.405v6.575 6.575l-.592.699c-1.324 1.561-7.033 1.961-9.282.65-1.833-1.068-1.907-1.384-1.993-8.418l-.074-6.081h-2.286-2.286l.07 6.99zm23.085 2.671v9.661h2.405 2.405V25.1c0-5.57.053-6.617.359-7.05 1.538-2.18 8.341-2.274 10.422-.144l.784.803.114 6.41.115 6.41 2.362.065 2.362.065-.072-6.998c-.07-6.744-.091-7.039-.599-8.135-2.761-5.954-14.743-5.544-15.686.537-.051.33-.108-.602-.127-2.072l-.034-2.671h-2.405-2.405v9.661zm47.405 0v9.661h2.404 2.405v-6.496-6.496l.648-.643c1.083-1.075 4.379-1.651 6.852-1.196l1.202.221v-2.387-2.387l-2.004.122c-3.662.224-5.6 1.582-6.386 4.476-.265.975-.282.874-.297-1.75l-.015-2.785h-2.405-2.404v9.661zm14.427-9.541c0 .066 1.975 3.237 4.389 7.047l4.389 6.926h1.364c1.363 0 1.364.001 1.026.511-.891 1.345-2.33 1.869-5.367 1.956l-2.824.08v2.022c0 1.469.079 2.021.287 2.017 6.224-.112 9.558-1.221 11.472-3.814.697-.944 9.31-16.436 9.31-16.745 0-.067-1.127-.122-2.504-.122h-2.505l-2.89 5.543-3.179 5.936c-.254.344-.752-.343-4.02-5.543l-3.731-5.936h-2.608c-1.435 0-2.609.054-2.609.12zm-23.06 4.228c1.926.622 1.991.797 1.991 5.312 0 5.43-.253 5.663-6.183 5.676-5.525.013-7.089-1.24-7.089-5.676 0-3.271.957-4.692 3.667-5.45 1.462-.409 6.186-.323 7.614.137zm-70.379.593c1.858.923 2.409 2.008 2.4 4.719-.014 4.153-1.627 5.454-6.764 5.455-4.758.001-6.396-1.378-6.396-5.385 0-3.528 1.06-4.8 4.58-5.496 1.56-.308 4.909.074 6.179.706z" fill="#fff"/></svg>