<svg xmlns="http://www.w3.org/2000/svg" width="136" height="40" fill="none" xmlns:v="https://vecta.io/nano"><path fill-rule="evenodd" d="M12.493 6.104C2.695 7.18-2.911 17.723 1.558 26.664c3.923 7.849 15.208 9.755 23.077 3.898l1.071-.797.001-3.228.001-3.228h-2.768-2.768v1.927 1.926l-.962.507c-6.511 3.432-13.4-.807-13.123-8.077.284-7.456 7.996-10.848 14.18-6.237l.857.639 1.674-2.007c2.08-2.495 2.01-2.271.959-3.046-3.056-2.256-7.154-3.288-11.265-2.837zm99.168 3.6v2.499h2.561 2.56V9.704 7.205h-2.56-2.561v2.499zm-75.225 4.364c-10.432 2.07-11.134 16.624-.942 19.544 3.21.92 7.398.013 9.768-2.115.687-.617 2.039-2.301 2.039-2.541 0-.294-4.057-2.493-4.203-2.278-.769 1.134-1.066 1.453-1.779 1.916-2.846 1.845-7.135.529-8.059-2.473l-.096-.312h7.484 7.483v-1.713c0-6.612-5.433-11.271-11.696-10.028zm23.393-.045c-1.04.213-2.32.883-3.163 1.654-.952.873-.922.884-.922-.351v-1.041h-2.561-2.561v9.649 9.649h2.623 2.623l.041-6.147.041-6.147.463-.942c1.455-2.964 5.708-2.672 6.582.452.188.672.222 1.711.222 6.789v5.996h2.63 2.63v-6.602c0-7.338-.043-7.785-.903-9.506-1.309-2.617-4.619-4.092-7.746-3.452zm19.478-.009c-6.223 1.121-9.84 7.283-7.839 13.356 2.576 7.82 13.911 8.993 18.352 1.9l.224-.357-2.024-1.221-2.024-1.221-.212.328c-2.404 3.729-8.819 3.329-9.77-.609l-.092-.382h7.489H90.9l-.001-1.284c-.006-6.857-5.287-11.646-11.592-10.511zm20.102-.017c-4.326.698-6.959 3.62-6.298 6.991.546 2.784 2.237 3.923 7.368 4.966 3.057.621 3.88 1.082 3.644 2.041-.552 2.241-4.93 1.982-6.441-.381-.248-.388-.495-.688-.549-.665s-1.135.446-2.404.943c-2.657 1.04-2.576.92-1.614 2.391 1.631 2.492 4.052 3.606 7.889 3.628 5.019.029 8.235-2.483 8.235-6.432 0-3.289-1.767-4.774-7.021-5.903-3.639-.782-4.377-1.262-3.766-2.448.867-1.682 4.79-1.101 5.943.88.141.244.248.205 4.333-1.559l.32-.138-.32-.585c-1.463-2.676-5.595-4.329-9.319-3.728zm26.532.015c-3.907.57-6.72 3.476-6.313 6.522.41 3.074 2.143 4.345 7.379 5.409 3.497.711 4.261 1.254 3.525 2.505-1.179 2.002-5.776 1.019-6.582-1.408-.037-.112-4.657 1.558-4.95 1.789-.037.029.138.448.388.931 2.82 5.456 13.059 5.712 15.839.395 2.004-3.832.043-7.015-5.088-8.256-5.079-1.229-5.094-1.235-5.163-2.157-.17-2.266 4.792-2.052 6.009.26.109.205.367.129 2.268-.672 2.621-1.104 2.491-.971 1.872-1.906-1.751-2.646-5.328-3.975-9.184-3.412zm-14.28 9.923v9.649h2.561 2.56v-9.649-9.649h-2.56-2.561v9.649zM14.36 20.533v2.777h2.837 2.837v-2.777-2.777h-2.837-2.837v2.777zm25.552-1.877c1.342.4 2.635 1.568 2.898 2.619l.092.369h-4.721c-2.596 0-4.721-.05-4.721-.112 0-.504 1.379-2.022 2.251-2.477 1.181-.617 2.915-.782 4.201-.399zm43.251.182c1.061.466 2.097 1.544 2.397 2.494l.099.312h-4.715c-5.132 0-4.945.033-4.443-.794 1.256-2.065 4.388-3.012 6.662-2.012z" fill="#fff"/></svg>