<svg xmlns="http://www.w3.org/2000/svg" width="52" height="40" fill="none" xmlns:v="https://vecta.io/nano"><path fill-rule="evenodd" d="M0 19.998v12.995h1.754 1.754v-5.81-5.81h6.704 6.704v5.81 5.81h1.742 1.742V19.998 7.003h-1.742-1.742v5.491 5.491h-6.704-6.704v-5.491-5.491H1.754 0v12.995zM36.099 7.018c-3.864.285-6.75 1.774-9.187 4.737-3.314 4.03-3.784 10.36-1.104 14.859 2.35 3.946 6.084 6.192 10.586 6.368l.445.017v-1.748-1.749h-.257c-4.351-.002-8.156-3.309-8.889-7.726-.922-5.553 2.524-10.532 7.773-11.233 6.268-.836 11.238 4.061 10.634 10.478-.148 1.567-.797 3.46-1.483 4.322l-.055.069-1.699-1.723c-2.227-2.258-1.701-2.009-4.237-2.009h-1.761v1.695 1.694h1.322 1.322l3.897 3.962 3.897 3.962h2.349L52 32.971c0-.013-1.118-1.153-2.485-2.533l-2.485-2.51.138-.187c2.133-2.883 2.938-6.622 2.238-10.389-.926-4.986-4.989-9.129-9.899-10.095-.975-.192-2.552-.302-3.408-.239z" fill="#fff"/></svg>