<svg xmlns="http://www.w3.org/2000/svg" width="108" height="40" fill="none" xmlns:v="https://vecta.io/nano"><path fill-rule="evenodd" d="M67.385 7.297c3.654.765 6.34 3.077 7.612 6.555l.488 1.334.062 7.589-.048 8.025c-.301 1.195-1.957 1.624-2.846.737l-.463-.461-.001-6.63c-.002-7.232-.117-8.484-.932-10.078-2.284-4.469-8.985-5.3-12.503-1.551-1.748 1.863-1.715 1.675-1.825 10.353-.072 5.665-.158 7.715-.337 8.026-.538.938-1.954 1.105-2.695.318l-.457-.485v-7.733c0-8.554.019-8.722 1.281-11.092 2.111-3.966 7.388-6.011 12.664-4.906zm-64.44.742l.463.461v6.737c0 8.654.191 9.67 2.198 11.715 1.752 1.785 3.379 2.229 8.184 2.229 3.947 0 4.316.145 4.316 1.691 0 1.567-.357 1.69-4.897 1.69-7.873 0-11.719-2.391-12.918-8.031C-.061 22.872-.11 9.103.235 8.458.77 7.456 2.147 7.244 2.945 8.04zm96.728.149c13.239 4.698 9.848 24.393-4.209 24.44-14.83.05-17.618-20.887-3.298-24.766 1.729-.468 5.764-.293 7.507.325zm-72.795.227l.463.461.003 6.818c.004 7.433.126 8.638 1.029 10.174 3.01 5.12 11.115 4.764 13.637-.6l.501-1.066.094-7.514c.07-5.593.155-7.621.334-7.932.66-1.151 2.335-1.076 2.962.133.401.774.405 13.441.004 15.682-1.974 11.045-19.346 11.314-21.68.335-.4-1.882-.398-15.421.003-16.194.474-.915 1.874-1.072 2.651-.298zm66.984 2.674c-10.979 1.832-9.544 18.108 1.594 18.089 5.673-.01 9.632-4.627 8.935-10.423-.584-4.856-5.579-8.492-10.529-7.666z" fill="#fff"/></svg>