<svg xmlns="http://www.w3.org/2000/svg" width="225" height="40" fill="#fff" fill-rule="evenodd" xmlns:v="https://vecta.io/nano"><path d="M58.941 12.05c-3.983.487-6.562 3.165-6.904 7.169-.456 5.339 3.393 9.173 8.755 8.718 1.937-.164 3.469-.778 4.702-1.885l.287-.258v-3.347V19.1h-2.873-2.873v1.226 1.226h1.396 1.396v1.583 1.583l-.342.159c-1.337.623-3.423.573-4.75-.115-3.278-1.698-3.575-7.064-.511-9.241 1.782-1.266 4.596-1.16 6.334.237l.375.302.925-.919c.509-.506.925-.933.925-.949 0-.157-1.332-1.081-2.045-1.419-1.236-.586-3.337-.904-4.796-.725zm80.389.048c-2.742.517-4.274 3.177-3.404 5.909.482 1.513 1.437 2.248 4.212 3.242 2.258.809 2.949 1.61 2.411 2.797-.747 1.649-3.202 1.701-5.072.108l-.416-.355-.915.912-.915.912.319.291c4.201 3.832 10.422 2.097 10.24-2.857-.076-2.069-1.273-3.313-4.147-4.309-2.032-.704-2.82-1.344-2.818-2.286.007-1.999 2.655-2.433 4.574-.749l.25.22.913-.911.914-.911-.261-.252c-1.431-1.386-3.921-2.131-5.885-1.761zm21.196-.004c-4.594.658-7.36 4.748-6.489 9.595.738 4.108 4.323 6.666 8.754 6.245 1.846-.175 3.275-.752 4.539-1.831l.373-.318-.945-.942-.944-.942-.222.204c-1.299 1.19-3.696 1.572-5.504.878-3.758-1.443-4.224-7.399-.752-9.61 1.773-1.13 4.678-.916 6.183.454l.296.27.945-.942.945-.942-.341-.307c-1.633-1.471-4.293-2.176-6.838-1.811zM74.977 20v7.766h1.56 1.56V24.66v-3.107h.649.649l1.552 3.107 1.551 3.107h1.692c1.494 0 1.688-.01 1.66-.083-.018-.046-.821-1.531-1.785-3.301l-1.753-3.241c0-.012.166-.106.369-.208 3.073-1.541 3.248-6.189.298-7.956-1.121-.671-1.625-.744-5.197-.744h-2.805V20zm21.427-.068l-3.459 7.767c-.022.055.328.066 1.711.055l1.738-.014.71-1.649.71-1.649 3.426.014 3.425.014.714 1.648.715 1.649h1.74c1.638 0 1.736-.005 1.691-.095-.026-.052-1.584-3.547-3.463-7.766l-3.416-7.671h-1.405-1.404l-3.432 7.698zm17.89-6.813l2.927 4.624 2.363 3.738v3.143 3.143h1.506 1.505v-3.101-3.101l2.907-4.597 2.934-4.666c.022-.055-.321-.066-1.681-.054l-1.708.014-1.949 3.148-1.984 3.148c-.019 0-.915-1.422-1.992-3.161l-1.957-3.161h-1.717-1.716l.562.886zm64.32 6.728l-3.459 7.765-.066.154h1.737 1.738l.708-1.662.708-1.662h3.422 3.423l.717 1.649.717 1.649 1.738.014c1.641.014 1.736.009 1.701-.082a3341.51 3341.51 0 0 0-3.461-7.767l-3.423-7.671-1.403.001-1.404.001-3.393 7.611zm20.99.153v7.766h4.214 4.215V26.54v-1.226h-2.737-2.736v-6.54-6.54h-1.478-1.478V20zm16.693 0v7.766h4.352H225V26.54v-1.226h-2.846-2.846v-2.071-2.071h2.435 2.436v-1.199-1.199h-2.436-2.435v-2.071-2.071h2.791 2.792v-1.199-1.199h-4.297-4.297V20zM80.822 14.928c1.544.705 1.553 3.177.014 3.895-.294.137-.342.142-1.521.159L78.097 19v-2.135-2.135l1.19.02c1.176.02 1.195.022 1.535.177zm21.562 3.943l1.141 2.806c.033.09-.1.095-2.303.095-1.848 0-2.333-.014-2.311-.068.368-.931 2.31-5.545 2.333-5.544s.531 1.221 1.14 2.712zm82.207.081l1.149 2.793-1.169.015h-2.336l-1.167-.015 1.154-2.792 1.187-2.793c.018-.001.55 1.255 1.182 2.792zM14.758.149L7.33 10.001 0 19.725a3798 3798 0 0 0 15.28 20.269c.01 0 1.523-1.988 3.362-4.417L22 31.155c.007-.003 1.516 1.987 3.352 4.423L28.706 40a4727.08 4727.08 0 0 0 7.654-10.129L44 19.747l-.102-.147-5.438-7.819-5.336-7.672-.12.159-7.889 10.546c.002.006.764 1.113 1.693 2.46l1.69 2.47a1197.19 1197.19 0 0 1-6.493 8.629c-.008 0-1.48-1.941-3.273-4.312l-3.258-4.313.153-.206L30.219.188 30.363 0h-7.745-7.745l-.114.149zm12.265 1.535c-.005.014-2.928 3.898-6.495 8.631l-6.485 8.605H8.366c-5.526 0-5.675-.001-5.651-.035.014-.02 2.941-3.904 6.504-8.631l6.479-8.596h5.667l5.657.026zM37.21 12.868l4.088 6.027c.013.023-.773.027-5.66.026l-5.676-.001-1.374-2.025-1.39-2.061a501 501 0 0 1 5.928-7.966 1353.44 1353.44 0 0 1 4.085 6zM17.495 25.162l3.447 4.613a1507.5 1507.5 0 0 1-5.661 7.49c-.01 0-12.572-16.658-12.584-16.687-.004-.009 2.547-.014 5.669-.011l5.675.005 3.455 4.591zm23.814-4.583A6229.84 6229.84 0 0 1 28.702 37.26a788.64 788.64 0 0 1-5.66-7.505c.005-.012 1.567-2.085 3.471-4.607l3.462-4.585h5.67l5.664.017z"/></svg>