<svg xmlns="http://www.w3.org/2000/svg" xmlns:xlink="http://www.w3.org/1999/xlink" width="115" height="30" fill="none" xmlns:v="https://vecta.io/nano"><g fill="#fff"><path d="M54.793 27.726h6.27v-.004h3.452V13.862h-6.904v6.956h-2.818a6.96 6.96 0 0 1-6.963-6.954 6.96 6.96 0 0 1 6.963-6.955V0c-7.666 0-13.879 6.205-13.879 13.862s6.213 13.864 13.879 13.864z"/><path fill-rule="evenodd" d="M39.437 27.722a13.87 13.87 0 0 1-13.876-13.861A13.87 13.87 0 0 1 39.437.001v6.909c-3.845 0-6.96 3.111-6.96 6.952s3.115 6.952 6.96 6.952v6.909z"/><path d="M9.722.001h-6.27v.004H0v13.861h6.904V6.909h2.818a6.96 6.96 0 0 1 6.963 6.955 6.96 6.96 0 0 1-6.963 6.954v6.909c7.666 0 13.879-6.205 13.879-13.862S17.388.001 9.722.001zm62.134 0h2.709c2.237 0 3.674 1.655 3.674 3.923s-1.437 3.912-3.674 3.912h-2.709V.001zm2.654 6.991c1.645 0 2.654-1.227 2.654-3.079S76.155.844 74.51.844h-1.645v6.147h1.645zM79.215.001h1.108v1.227h-1.108V.001zm.055 2.191h.987v5.643h-.987V2.192zm2.15 5.841h1.009c.176.657.669.975 1.536.975.822 0 1.569-.405 1.569-1.567v-.734c-.439.712-1.097 1.019-1.843 1.019-1.36 0-2.468-1.205-2.468-2.86 0-1.644 1.108-2.816 2.468-2.816.746 0 1.469.35 1.843.986v-.844h.987v5.226c0 1.764-1.261 2.399-2.589 2.399-1.415.001-2.358-.668-2.511-1.785zm2.478-1.129c1.02 0 1.689-.855 1.689-2.038 0-1.194-.669-1.994-1.689-1.994-1.009 0-1.667.8-1.667 1.994 0 1.184.658 2.038 1.667 2.038zm3.85-6.903h1.108v1.227h-1.108V.001zm.055 2.191h.987v5.643h-.987V2.192zm2.686 4.328V3.003h-.899v-.811h.647c.153 0 .252-.098.252-.241V.33h.976v1.863h1.24v.811h-1.24v3.364c0 .482.131.657.581.657h.801v.811h-1.085c-.867.001-1.272-.371-1.272-1.314zm2.929-.208c0-1.315 1.13-1.611 2.051-1.731l1.218-.164c.45-.066.537-.317.537-.581 0-.548-.373-.997-1.218-.997s-1.327.395-1.414 1.084h-.987c.121-1.129 1.031-1.874 2.38-1.874 1.502 0 2.215.745 2.215 2.016v2.739c0 .121.098.219.231.219h.351v.811h-.669c-.537 0-.834-.285-.834-.69v-.143c-.493.734-1.273.975-1.974.975-1.151.002-1.885-.666-1.885-1.663zm2.139.877c1.009 0 1.667-.745 1.667-1.851v-.395c-.186.098-.384.131-.57.164l-.998.153c-.856.131-1.218.438-1.218 1.008.001.581.44.921 1.119.921zM99.658.001h.987v7.834h-.987V.001zM71.45 14.075c0-2.444 1.459-4.065 3.543-4.065 1.821 0 2.961 1.129 3.192 2.816H77.12c-.198-1.03-.856-1.95-2.127-1.95-1.557 0-2.489 1.37-2.489 3.189s.965 3.199 2.489 3.199c1.327 0 2.051-.953 2.205-1.984h1.064c-.318 1.907-1.557 2.849-3.268 2.849-2.118.001-3.543-1.61-3.543-4.053zm7.754 1.808v-3.539h.987v3.473c0 .986.56 1.491 1.371 1.491.801 0 1.524-.701 1.524-1.71v-3.254h.987v5.643h-.987v-.877c-.373.679-1.075 1.019-1.876 1.019-1.173 0-2.006-.778-2.006-2.246z"/><use xlink:href="#B"/><use xlink:href="#B" x="3.685"/><path d="M92.135 15.171c0-1.698 1.042-2.97 2.698-2.97 1.404 0 2.632.789 2.501 3.221h-4.179c.066 1.03.548 1.918 1.678 1.918.823 0 1.239-.416 1.437-1.03h.998c-.274 1.096-1.118 1.819-2.435 1.819-1.657 0-2.699-1.26-2.699-2.959zm4.234-.493c-.066-1.15-.592-1.687-1.535-1.687-1.031 0-1.535.745-1.656 1.687h3.192zm1.896-2.334h.987v.855c.373-.624 1.086-.998 1.908-.998 1.228 0 2.084.767 2.084 2.268v3.518h-.987v-3.463c0-.986-.56-1.501-1.393-1.501-.877 0-1.612.712-1.612 1.71v3.254h-.987v-5.643zm5.856 2.827c0-1.687 1.064-2.97 2.72-2.97 1.295 0 2.237.789 2.424 2.082h-.998c-.164-.789-.713-1.271-1.437-1.271-1.173 0-1.689 1.019-1.689 2.148s.516 2.158 1.689 2.158c.735 0 1.228-.405 1.437-1.184h.987c-.208 1.194-1.085 1.994-2.424 1.994-1.644.001-2.709-1.271-2.709-2.958zm6.855 3.868c.351 0 .515-.066.647-.405l.285-.756-2.281-5.533h1.063l1.7 4.285 1.579-4.285H115l-2.534 6.629c-.274.723-.691.877-1.359.877h-1.108v-.811h.977zM71.45 24.227c0-2.444 1.492-4.065 3.608-4.065 1.831 0 2.95 1.129 3.181 2.805h-1.064c-.153-1.008-.899-1.939-2.117-1.939-1.59 0-2.556 1.37-2.556 3.189s.987 3.199 2.544 3.199c1.108 0 2.182-.636 2.314-2.432h-2.522v-.843h3.488v3.999h-.932v-1.227c-.493.833-1.305 1.37-2.544 1.37-1.908-.001-3.4-1.611-3.4-4.055zm8.237-1.732h.987v.877c.351-.69.889-.943 1.547-.943h.318v.931h-.395c-.899 0-1.469.559-1.469 1.72v3.057h-.987v-5.642zm3.137 2.827c0-1.687 1.009-2.97 2.72-2.97s2.72 1.282 2.72 2.97-1.009 2.958-2.72 2.958-2.72-1.271-2.72-2.958zm2.719 2.147c1.228 0 1.7-1.063 1.7-2.158 0-1.107-.472-2.148-1.7-2.148-1.24 0-1.7 1.041-1.7 2.148 0 1.096.46 2.158 1.7 2.158zm3.597-1.434v-3.539h.987v3.473c0 .986.56 1.491 1.371 1.491.801 0 1.524-.701 1.524-1.71v-3.254h.987v5.643h-.987v-.877c-.373.679-1.075 1.019-1.876 1.019-1.172 0-2.006-.778-2.006-2.246zm6.109-3.54h.987v.855a2.15 2.15 0 0 1 1.886-.997c1.371 0 2.468 1.205 2.468 2.98s-1.097 2.947-2.468 2.947c-.789 0-1.481-.34-1.886-.986V30h-.987v-7.505zm2.632 4.964c1.075 0 1.689-.888 1.689-2.125s-.615-2.158-1.689-2.158c-1.064 0-1.689.92-1.689 2.148s.625 2.136 1.689 2.136z"/></g><defs ><path id="B" d="M85.313 12.344h.987v.877c.351-.691.889-.943 1.547-.943h.318v.931h-.395c-.899 0-1.469.559-1.469 1.72v3.057h-.987v-5.642z"/></defs></svg>