<?xml version="1.0" encoding="utf-8"?>
<!-- Generator: Adobe Illustrator 26.5.0, SVG Export Plug-In . SVG Version: 6.00 Build 0)  -->
<svg version="1.1" id="Layer_1" xmlns="http://www.w3.org/2000/svg" xmlns:xlink="http://www.w3.org/1999/xlink" x="0px" y="0px"
	 viewBox="0 0 4322 722" style="enable-background:new 0 0 4322 722;" xml:space="preserve">
<g>
	<g>
		<path d="M3709,723c0-39.16,0-78.32,0-117.84c1.25-0.05,2.51-0.16,3.78-0.16c29-0.01,57.99,0.03,86.99-0.05
			c4.03-0.01,8.05-0.76,12.09-0.92c4.16-0.17,8.44,0.55,12.46-0.21c3.58-0.68,7.07-0.77,10.62-0.79c1.95-0.01,3.49-1.51,5.6-1.1
			c1.86,0.37,3.73-0.08,5.61-0.83c1.69-0.67,3.66-0.24,5.61-0.9c2.13-0.72,4.66-0.69,7.03-1.11c4.79-0.84,9.38-2.36,14.09-3.44
			c6.67-1.53,12.88-4.35,19.2-6.77c4.73-1.81,9.12-4.56,13.56-7.08c3.12-1.77,6.07-3.86,9.1-5.81c1.71-1.11,3.53-2.09,5.09-3.38
			c3.01-2.49,5.87-5.17,8.81-7.74c1.69-1.48,3.07-3.23,5.17-4.38c1.54-0.85,2.34-2.97,3.62-4.39c3.73-4.14,7.57-8.18,11.28-12.35
			c1.49-1.67,2.74-3.55,4.14-5.39c0.04,0.05-0.03-0.09-0.15-0.18c-0.12-0.09-0.28-0.19-0.42-0.19c-24.16-0.01-48.33-0.01-73.09-0.01
			c-2.25-3.01-5.11-6.1-7.09-9.67c-3.11-5.61-6.7-10.89-10.09-16.3c-3.32-5.29-6.61-10.6-10.01-15.85
			c-5.18-8.01-10.27-16.09-15.29-24.19c-4.6-7.41-9.53-14.61-13.76-22.26c-2.8-5.06-6.26-9.73-9.33-14.65
			c-3.22-5.16-6.63-10.19-9.76-15.42c-2.8-4.68-5.84-9.28-8.83-13.87c-3.41-5.24-6.53-10.66-10.05-15.82
			c-5.39-7.89-10.32-16.09-15.38-24.17c-4.62-7.37-9.56-14.57-13.72-22.26c-2.97-5.51-7.27-10.28-10.41-15.71
			c-3.29-5.69-7.05-11.05-10.46-16.65c-4.4-7.21-9.24-14.16-13.53-21.42c-4.44-7.51-9.32-14.73-13.76-22.24
			c-3.09-5.22-6.59-10.32-9.98-15.42c-4.83-7.26-9.11-14.88-13.74-22.29c-3.73-5.97-7.63-11.84-11.43-17.77
			c-3.2-5-6.27-10.09-9.58-15.02c-5.32-7.93-10.34-16.07-15.36-24.17c-4.58-7.4-9.43-14.66-13.77-22.23
			c-2.86-4.99-6.13-9.83-9.35-14.65c-1.88-2.81-3.65-5.7-5.63-8.81c53.43,0,106.55,0,159.46,0c1.12,1.68,2.32,3.32,3.37,5.05
			c5.61,9.21,11.29,18.37,17.16,27.42c2.52,3.88,4.95,7.9,7.28,11.94c2.27,3.93,4.99,7.59,7.36,11.46
			c3.9,6.37,7.63,12.84,11.52,19.22c2.44,4,5.08,7.89,7.58,11.86c4.16,6.61,8.27,13.24,12.41,19.86c2.32,3.71,4.69,7.38,6.99,11.1
			c3.36,5.44,6.42,11.08,10.07,16.31c4.77,6.82,9.14,13.91,13.48,20.97c5.54,9,11.19,17.96,16.64,27.03
			c4.18,6.95,8.57,13.86,13.16,20.6c4.2,6.17,7.74,12.78,11.67,19.14c2.23,3.6,4.72,7.03,6.96,10.62
			c3.39,5.41,6.56,10.97,10.04,16.33c5.63,8.65,11.05,17.44,16.49,26.2c3.93,6.32,7.76,12.76,11.68,19.09
			c4.28,6.91,8.55,13.87,13.15,20.61c4.2,6.17,7.76,12.77,11.68,19.14c1.46,2.37,3.12,4.62,4.99,7.37c0.43-0.84,0.69-1.44,1.03-1.99
			c5.19-8.45,9.25-17.51,14-26.19c3.56-6.51,6.49-13.38,10.19-19.75c4.14-7.12,7.52-14.59,11.47-21.78
			c3.71-6.77,6.78-13.91,10.73-20.53c4.14-6.93,7.38-14.3,11.2-21.38c3.74-6.94,7.11-14.08,11.04-20.91
			c3.93-6.85,7-14.15,10.96-20.96c3.97-6.83,7.02-14.13,10.96-20.96c3.95-6.84,7.01-14.14,10.96-20.95
			c3.97-6.84,7.03-14.13,10.96-20.96c3.95-6.85,7.05-14.13,10.96-20.96c3.93-6.86,6.98-14.17,10.99-20.94
			c4.19-7.08,7.47-14.61,11.49-21.77c3.7-6.59,6.52-13.69,10.42-20.15c4.26-7.05,7.45-14.62,11.52-21.75
			c3.22-5.63,6.24-11.4,9.02-17.26c0.88-1.85,1.83-2.44,3.64-2.3c0.83,0.06,1.67,0.01,2.5,0.01c48.98,0,97.97,0,146.95,0
			c0,0.33,0,0.67,0,1c-0.17,0-0.44-0.06-0.49,0.02c-3.45,5.36-6.28,11.08-9.34,16.64c-4.4,7.99-8.71,16.04-13.1,24.05
			c-3.65,6.65-7.32,13.3-10.93,19.97c-4.27,7.89-8.38,15.87-12.89,23.64c-1.94,3.33-3.34,6.99-5.39,10.24
			c-2.08,3.3-3.83,6.8-5.68,10.18c-4.3,7.87-8.43,15.85-12.96,23.6c-1.94,3.33-3.36,6.98-5.39,10.25c-2.05,3.31-3.84,6.8-5.65,10.19
			c-4.16,7.77-8.44,15.48-12.65,23.23c-3.78,6.94-7.63,13.85-11.4,20.78c-4.22,7.74-8.4,15.51-12.61,23.25
			c-3.77,6.94-7.64,13.83-11.41,20.77c-4.2,7.75-8.39,15.51-12.61,23.25c-3.79,6.93-7.62,13.84-11.39,20.78
			c-4.21,7.74-8.39,15.51-12.63,23.25c-3.8,6.93-7.59,13.85-11.38,20.78c-4.23,7.74-8.39,15.52-12.64,23.25
			c-3.8,6.92-7.62,13.84-11.36,20.79c-4.55,8.45-9.13,16.87-13.75,25.28c-0.96,1.75-1.35,3.89-2.55,5.42
			c-4.08,5.21-5.94,11.62-9.68,17.03c-2.87,4.16-4.56,9.12-7.19,13.47c-1.53,2.54-2.68,5.3-4.34,7.69
			c-4.47,6.43-8.37,13.24-12.39,19.91c-5.18,8.61-11.01,16.75-16.62,25.04c-4.65,6.88-10.15,13.19-15.48,19.59
			c-3.45,4.15-7.19,8.08-10.94,11.97c-5.78,6-12.29,11.2-18.52,16.71c-4.58,4.05-9.44,7.7-14.42,11.17
			c-5.24,3.66-10.65,7.15-16.25,10.23c-5.54,3.04-11.03,6.22-16.92,8.61c-2,0.81-3.76,2.24-5.78,2.92
			c-7.15,2.43-14.1,5.42-21.33,7.63c-6.22,1.91-12.38,3.98-18.73,5.48c-4.57,1.08-9.08,2.3-13.71,3.17
			c-3.03,0.57-6.08,1.35-9.14,2.01c-3.24,0.7-6.46,1.34-9.73,1.89c-2.37,0.4-4.97,0.22-7.02,1.06c-1.66,0.68-3.13,0.5-4.67,0.79
			c-1.7,0.32-3.4,1-5.08,0.93c-3.93-0.16-7.63,1.83-11.58,1.07c-1.86,1.33-4.04,1.19-6.08,0.94c-2.21-0.27-4.05,0.88-6.09,1.03
			c-3.21,0.24-6.41-0.22-9.62,0.92c-1.78,0.63-3.97-0.02-5.95,0.15c-2.04,0.17-4.05,0.77-6.09,0.94c-4.36,0.36-8.7-0.25-13.12,0.86
			c-3.29,0.83-6.96,0.03-10.45,0.2c-3.53,0.17-7.05,0.84-10.58,0.92c-6.83,0.15-13.66,0.03-20.49,0.06c-0.72,0-1.78-0.39-1.79,0.99
			C3746.33,723,3727.67,723,3709,723z"/>
		<path d="M476,1c0,30.49,0,60.99,0,91.83c-1.41,0.06-2.84,0.16-4.28,0.16C416.07,93,360.41,93,304.75,93c-4.65,0-9.11,1-13.23,3.05
			c-4.31,2.14-7.18,5.7-8.5,10.35c-1.04,3.65-2.03,7.31-2.03,11.16c0.02,22.32,0.01,44.65,0.01,67.32c64.26,0,128.49,0,192.86,0
			c0,34.12,0,67.9,0,102.02c-64.15,0-128.38,0-192.86,0c0,1.97,0,3.6,0,5.23c0,128.98-0.01,257.95,0.02,386.93
			c0,6.04,0.02,5.96-5.97,5.95c-42.66-0.04-85.32-0.02-127.98-0.02c-1,0-2,0.03-3-0.01c-2.17-0.08-2.97-0.78-3.07-2.79
			c-0.06-1.16-0.01-2.33-0.01-3.5c0-128.81,0-257.62,0-386.43c0-1.64,0-3.29,0-5.27c-46.78,0-93.39,0-140,0c0-34,0-68,0-102
			c46.62,0,93.23,0,140,0c0-1.99,0-3.64,0-5.28c0-18.17-0.12-36.33,0.06-54.5c0.07-7.03-0.86-14.09,0.84-21.11
			c0.67-2.75,0.58-5.72,0.9-8.58c0.61-5.38,2.03-10.51,3.09-15.76c1.48-7.37,3.98-14.35,7.17-21.05
			c5.01-10.53,11.47-20.13,19.97-28.22c1.74-1.66,3.85-2.95,5.55-4.64c3.64-3.64,8.01-6.37,12.41-8.74
			c9.26-5,15.04-8.16,28.38-11.12c3.25-2.2,7.22-2.06,10.8-2.77c3.88-0.76,7.92-1.89,12.04-1.26C242.9,2.07,243.99,2.38,244,1
			C321.33,1,398.67,1,476,1z"/>
		<path d="M3017.94,261.9c0-86.56,0-173.12,0-259.9c1.48,0,2.61,0,3.75,0c43.66,0,87.32,0.03,130.98-0.03
			c5.39-0.01,5.36,0.43,5.35,5.58c-0.03,223.97-0.03,447.93,0,671.9c0,5.16,0.02,5.59-5.36,5.58c-43.16-0.06-86.32-0.03-129.48-0.03
			c-0.67,0-1.33,0.02-2,0c-2.47-0.09-3.1-0.72-3.19-3.18c-0.03-1-0.01-2-0.01-3c0-41.66,0-83.32,0-124.98c0-1.61,0-3.22,0-4.83
			c-1.26,3.67-2.11,7.32-2.87,10.95c-1.09,5.22-3.09,10.08-4.72,15.07c-1.82,5.57-4.15,10.98-7.06,16.06
			c-4.05,7.08-8.12,14.13-13.34,20.5c-4.96,6.07-9.77,12.29-15.67,17.44c-6.03,5.25-12.16,10.37-18.64,15.14
			c-10.89,8.02-22.8,13.99-34.86,19.78c-7.78,3.74-16.01,6.46-24.26,9c-2.66,0.82-5.43,1.56-8.06,2.35
			c-2.6,0.78-5.35,1.47-7.95,2.45c-2.57,0.96-5.43,1.14-8.13,2.09c-1.82,0.64-4.01,0.54-6.05,1.09c-2.59,0.69-5.72,0.14-7.91,1.37
			c-2.45,1.38-5,0-7.43,1.52c-1.8,1.13-4.57,0.26-7.03,1c-3.48,1.05-7.35,1.22-11.02,1.06c-2.85-0.13-5.33,1.21-8.09,1.14
			c-2.83-0.07-5.86-0.66-8.45,0.13c-4.4,1.34-8.77,0.76-13.13,0.81c-12.66,0.14-25.33,0.16-37.99,0c-7.2-0.09-14.44-0.23-21.56-1.13
			c-3.38-0.43-6.82-0.3-10.08-0.97c-2.73-0.57-5.4-0.67-8.11-0.9c-2.7-0.23-5.5-0.53-8.05-1.12c-6.43-1.49-13.05-1.8-19.43-3.65
			c-2.47-0.71-5.28-0.99-7.89-1.58c-2.6-0.58-5.26-0.87-7.81-1.61c-7.14-2.06-14.28-4.1-21.35-6.39c-7.2-2.32-14.42-4.7-21.28-7.77
			c-7.87-3.52-15.74-7.11-23.27-11.5c-7.29-4.25-14.43-8.68-21.41-13.37c-3.56-2.39-7-4.99-10.29-7.72
			c-3.64-3.03-6.8-6.69-10.64-9.41c-3.95-2.8-7.42-6.1-10.36-9.74c-4.35-5.37-9.28-10.22-13.36-15.86
			c-3.06-4.24-6.43-8.34-9.29-12.72c-2.63-4.03-5.18-8.14-7.61-12.31c-3.05-5.23-5.84-10.59-8.46-16.02
			c-3.01-6.23-5.52-12.71-8.04-19.16c-1.85-4.74-3.5-9.56-4.98-14.43c-0.81-2.67-1.55-5.43-2.35-8.06c-0.79-2.6-1.44-5.35-2.45-7.95
			c-0.99-2.56-1.13-5.43-2.09-8.13c-0.65-1.82-0.53-4.01-1.08-6.05c-0.71-2.59-0.13-5.73-1.37-7.91c-1.4-2.45-0.34-4.94-1.48-7.43
			c-1.33-2.91-0.85-6.62-1.25-9.98c-0.24-2.04-0.63-4.06-0.99-6.09c-0.33-1.86,0.87-3.99-0.97-5.61c-0.17-0.15-0.01-0.64-0.02-0.97
			c-0.33-6.69-0.82-13.39-0.96-20.08c-0.14-6.71-1.47-13.32-1.12-20.09c0.35-6.81-0.17-13.67,0.15-20.49
			c0.33-7.03,1.32-14.02,0.93-21.09c1.57-3.58,0.06-7.64,1.21-11.01c1.34-3.92,0.1-7.9,1.61-11.81c1.23-3.18,0.49-7.07,1.27-10.49
			c1.05-4.58,0.8-9.43,2.85-13.8c-0.42-4.08,1.93-7.65,2.1-11.64c0.07-1.71,0.48-3.43,0.99-5.08c1.13-3.69,2.69-7.27,3.55-11.01
			c1.12-4.86,2.68-9.55,4.47-14.16c2.23-5.74,4-11.64,6.83-17.18c2.45-4.8,4.19-9.95,6.79-14.72c4.09-7.52,8.3-14.98,13.15-22.04
			c4.15-6.05,8.58-11.88,13.3-17.54c7.13-8.56,15.21-16.13,23.21-23.76c4.9-4.68,10.54-8.67,16.19-12.59
			c18.15-12.61,19.53-13.02,42.11-23.92c4.85-2.34,9.91-4.24,15.03-5.97c3.95-1.33,7.8-2.91,11.81-4.12
			c2.93-0.88,5.92-2.02,8.85-2.64c2.92-0.62,5.77-1.6,8.58-2.38c6.61-1.85,13.44-2.69,20-4.73c2.7-0.84,5.81-0.37,8.52-1.2
			c2.39-0.73,4.88-0.34,7.08-1.03c2.41-0.75,4.91-0.26,7.08-0.99c2.9-0.97,5.86-0.29,8.6-0.99c3.39-0.86,6.9-0.2,10.08-1.03
			c4.74-1.25,9.51-0.08,14.1-0.95c8.36-1.58,16.74-0.66,25.1-0.86c8.33-0.19,16.67,0.13,24.99-0.13c3.16-0.1,6,1.22,9.09,1.11
			c3-0.1,6.16-0.62,8.96,0.13c3.25,0.87,6.41,0.71,9.63,0.85c1.9,0.08,3.53,1.35,5.59,1.06c1.7-0.23,3.37,0.16,5.14,0.75
			c2.32,0.78,5.01,0.56,7.56,0.98c3.12,0.51,6.26,1.15,9.41,1.58c3.11,0.43,6.3,0.96,9.27,1.77c7.49,2.05,15.11,3.6,22.51,5.95
			c3.82,1.22,7.6,2.56,11.38,3.91c3.78,1.34,7.73,2.41,11.28,4.12c7.78,3.76,15.85,6.91,23.24,11.6c5.51,3.49,11.1,6.92,16.72,10.25
			c1.65,0.98,2.9,2.41,4.53,3.47c3.11,2.01,5.68,4.84,8.52,7.28c1.83,1.58,3.85,2.94,5.57,4.62c9.58,9.38,17.48,20.12,25.12,31.08
			c1.29,4.85,4.64,8.67,6.54,13.29c2.46,5.99,5.09,11.9,6.88,18.14c0.94,3.28,1.83,6.59,2.63,9.91c0.55,2.29,0.93,4.63,1.38,6.95
			C3017.55,261.78,3017.75,261.84,3017.94,261.9z M3018,405.67c0-32.99-0.04-65.98,0.04-98.97c0.01-5.68-1.81-10.8-3.79-15.94
			c-1.79-4.66-5.09-8.32-8.17-12.09c-1.83-2.25-4.38-3.86-6.52-5.79c-4.05-3.67-8.67-6.42-13.43-8.76
			c-8.86-4.35-17.98-8.14-27.72-10.37c-3.27-0.75-6.48-2.19-9.85-2.67c-3.44-0.49-6.71-1.67-10.12-2.28
			c-2.36-0.42-4.85-0.19-7.04-0.99c-3.03-1.1-6.18-1.36-9.26-1.68c-3.68-0.39-7.28-1.84-11.07-1.12c-2.02-1.45-4.37-1.12-6.58-0.95
			c-2.33,0.18-4.39-0.8-6.59-1c-3.86-0.35-7.83,0.56-11.58-1.05c-7.06,0.38-14.07-0.93-21.08-0.9c-25.02,0.13-50.06-0.98-75.07,0.82
			c-4.36,0.31-8.64,1.8-13.08,1.08c-1.71,1.2-3.71,1.29-5.57,0.93c-2.11-0.41-3.66,1.02-5.6,1.12c-3.04,0.15-6.2,0.17-9.05,1.06
			c-4.37,1.36-8.93,1.65-13.28,2.9c-4.31,1.24-8.58,2.67-12.93,3.77c-3.03,0.77-5.78,2.27-8.7,3.11c-4.95,1.42-9.51,3.65-14.1,5.82
			c-6.5,3.08-12.54,6.93-18.43,11.12c-5.13,3.65-9.99,7.52-14.57,11.8c-3.79,3.55-6.9,7.68-9.88,11.91
			c-2.72,3.85-5.57,7.64-7.94,11.71c-5.22,8.97-9.27,18.48-12.03,28.5c-1.16,4.21-2.15,8.49-3.26,12.69
			c-1.12,4.25-1.66,8.6-2.59,12.85c-1.19,5.42-1.12,11.11-2.09,16.64c-0.48,2.75,0.02,5.66-0.11,8.48c-0.13,2.88,0.18,5.69-0.8,8.64
			c-0.85,2.55-0.23,5.61-0.16,8.44c0.11,4.54,0.01,9.04,0.81,13.61c0.79,4.53,0.17,9.3,0.17,13.97c0,0.33-0.14,0.78,0.02,0.98
			c1.48,1.86,0.78,4.05,1,6.1c0.24,2.2,0.7,4.39,0.97,6.59c0.38,3.19,0.13,6.57,1.14,9.54c1.66,4.89,1.94,10.05,3.72,14.94
			c1.77,4.87,5.49,17.6,7.7,21.81c2.45,4.66,4.7,9.4,7.35,13.97c3.55,6.1,7.86,11.58,12.51,16.76c3.7,4.13,7.73,7.98,12.14,11.49
			c6.08,4.83,12.59,8.91,19.29,12.7c8.06,4.57,16.71,7.9,25.48,10.86c4.54,1.53,9.26,2.48,13.78,4.14c2.04,0.75,4.7,0.16,6.47,1.21
			c2.23,1.32,4.62,0.68,6.89,1.5c2.06,0.75,4.58,1.46,6.95,1.31c3.61-0.24,6.95,1.82,10.59,1.05c1.84,1.48,4.05,1.19,6.07,0.93
			c2.23-0.3,3.99,1.07,6.09,1.1c3.88,0.06,7.7,0.03,11.62,0.79c4.17,0.81,8.65,0.45,12.96,0.11c4.47-0.36,8.7,1.11,13.09,1.08
			c4.67-0.03,9.35-0.27,13.99,0.07c4.79,0.35,9.38-0.92,14.09-1.11c9.03-0.36,18.09,0.98,27.1-0.88c2.72-0.56,5.66,0.04,8.48-0.12
			c2.87-0.17,5.72-0.71,8.59-0.95c4.86-0.4,9.72-0.68,14.58-1.02c0.17-0.01,0.4,0.07,0.49-0.01c1.51-1.35,3.37-1.15,5.09-0.94
			c2.03,0.25,3.71-0.83,5.59-1.03c2.05-0.22,4.05,0.04,6.14-0.88c1.76-0.78,4.04-0.61,6.06-0.9c2.51-0.37,5.03-0.9,7.54-1.3
			c2.6-0.41,5.1-1.4,7.68-1.92c3.98-0.8,7.89-1.75,11.76-2.99c3.97-1.27,7.96-2.39,11.89-3.87c7.42-2.8,14.56-6.04,21.27-10.19
			c6.63-4.1,12.52-9.05,16.97-15.58c5.01-7.33,7.93-15.21,7.9-24.24C3017.93,470.66,3018,438.16,3018,405.67z"/>
		<path d="M1145.04,372.52c1.98,18.06,0.59,36.95,0.91,55.81c0.05,2.69-0.75,5.38-0.91,8.09c-0.17,2.82,0.64,5.89-0.22,8.44
			c-0.94,2.79-0.51,5.45-0.84,8.14c-0.25,2.04-0.69,4.05-0.97,6.09c-0.26,1.88-0.33,3.73-0.77,5.64c-0.55,2.4-0.83,5.01-1.22,7.53
			c-0.42,2.68-0.15,5.6-1.14,8.03c-1.63,4-1.41,8.31-2.81,12.33c-1.32,3.81-2.03,7.83-3.08,11.73c-1.69,6.27-3.73,12.42-5.9,18.55
			c-1.44,4.07-3.04,8.09-4.67,12.07c-2.63,6.41-5.64,12.68-8.79,18.85c-3.61,7.08-7.8,13.86-12.35,20.38
			c-4.01,5.74-8.04,11.47-12.58,16.85c-1.88,2.23-3.86,4.36-5.77,6.56c-1.8,2.07-3.38,4.36-5.34,6.26
			c-4.71,4.58-9.42,9.19-14.45,13.41c-5.86,4.93-11.86,9.76-18.15,14.11c-5.76,3.98-11.75,7.64-17.87,11.1
			c-6.74,3.8-13.59,7.35-20.62,10.59c-5.46,2.52-11,4.81-16.6,7.01c-6.46,2.54-12.87,5.17-19.55,7.11
			c-6.69,1.95-13.24,4.38-20.09,5.82c-2.58,0.54-5.27,0.98-7.63,2.07c-2.35,1.08-5.15,0.06-7.21,1.91c-4.56-0.47-8.59,2.6-13.17,2
			c-4.2,1.95-9.02,1.19-13.26,3c-3.63-0.77-6.98,1.25-10.59,1.07c-1.84-0.09-3.71,0.66-5.58,0.91c-1.88,0.25-3.95-0.59-5.59,1.01
			c-0.09,0.08-0.33,0.03-0.49,0.01c-4.94-0.74-9.68,1.08-14.58,1.07c-3.19-0.01-6.38,0.74-9.59,0.9c-3.32,0.17-6.85-0.64-9.96,0.19
			c-5.4,1.45-10.77,0.73-16.12,0.79c-15.33,0.17-30.67-0.14-45.99,0.14c-8.24,0.15-16.35-1.83-24.58-1.08
			c-3.76-1.5-7.71-0.81-11.58-1.04c-2.04-0.12-4.06-0.61-6.09-0.97c-1.87-0.34-3.7,0.29-5.71-0.72c-1.73-0.87-4.43,0.31-6.32-0.41
			c-2.42-0.93-4.76-0.61-7.13-0.9c-2.2-0.28-4.48-0.59-6.55-1.1c-6.41-1.59-12.98-2.33-19.42-3.62c-6.62-1.32-13.21-2.82-19.77-4.35
			c-4.19-0.98-8.37-2.3-12.54-3.44c-7.77-2.13-15.36-4.77-22.92-7.47c-5.94-2.13-11.89-4.23-17.65-6.89
			c-6.16-2.85-12.4-5.51-18.38-8.73c-7.69-4.13-15.16-8.59-22.47-13.38c-5.96-3.91-11.58-8.25-17.3-12.47c-3-2.21-5.75-4.8-8.44-7.4
			c-4.56-4.4-8.96-8.95-13.46-13.41c-7.67-7.62-14-16.28-20.31-25.04c-7.89-10.95-14.09-22.73-19.83-34.82
			c-4.04-8.51-7.25-17.35-10.03-26.34c-1.51-4.87-3.39-9.65-4.5-14.61c-0.82-3.66-1.99-7.23-2.66-10.96
			c-0.73-4.11-1.19-8.33-2.66-12.35c-0.86-2.33-1.21-5.02-1.06-7.51c0.14-2.23-1-4.02-1.15-6.09c-0.14-1.88,0.79-3.98-0.96-5.6
			c-0.08-0.08-0.03-0.33-0.01-0.49c0.74-4.61-0.74-9.06-1.11-13.58c-1.75-21.52-0.6-43.06-0.8-64.59
			c-0.05-5.17,1.28-10.34,0.9-15.58c1.68-2.53,0.7-5.39,1.02-8.08c0.2-1.71,0.89-3.39,0.91-5.09c0.03-1.96,0.55-3.74,1.01-5.6
			c0.41-1.67-0.5-3.62,1.06-5.07c-0.54-2.64,0.54-5.08,1.02-7.58c0.77-3.99,1.74-7.94,2.55-11.91c0.88-4.3,2.51-8.37,3.33-12.62
			c1.05-5.39,3.26-10.33,4.87-15.5c3.96-12.72,9.43-24.79,15.67-36.5c3.37-6.32,7.22-12.42,11.31-18.3
			c4.37-6.29,9.02-12.38,13.96-18.28c6.5-7.77,13.74-14.79,21.08-21.64c6.27-5.85,13.14-11.12,20.25-16.06
			c4.52-3.15,9.2-6.06,13.79-9.09c4.39-2.9,9.03-5.49,13.81-7.68c2.54-1.16,4.69-2.96,7.43-3.79c2.63-0.79,5.09-2.19,7.55-3.47
			c6.86-3.57,14.13-6.12,21.34-8.82c4.19-1.57,8.48-2.86,12.75-4.23c5.46-1.75,10.93-3.43,16.5-4.85c6.02-1.54,12.12-2.8,18.04-4.71
			c1.95-0.63,4.25,0.43,5.98-1.24c4.67,0.09,8.96-2.37,13.67-2c2.03-1.42,4.75-0.22,6.48-1.18c2.18-1.22,4.19-0.35,6.18-0.83
			c5.16-1.24,10.42-1.53,15.65-2.18c3.38-0.42,6.87-0.16,10.07-0.96c3.91-0.97,7.88-0.11,11.59-0.98
			c5.72-1.33,11.53,0.04,17.09-1.02c6.9-1.33,13.75-0.61,20.61-0.8c6.99-0.2,14-0.04,21-0.04s14.08-0.64,20.97,0.2
			c5.73,0.69,11.47,0.13,17.09,0.96c4.22,0.62,8.49,0.26,12.58,1.01c3.4,0.62,6.83,0.3,10.08,0.98c2.73,0.57,5.52,0.31,8.08,0.99
			c2.73,0.73,5.54,0.29,8.09,0.98c4.72,1.28,9.65,1.18,14.33,2.76c2.16,0.73,4.7,0.19,7.08,1.03c2.21,0.77,5.11,0.1,6.94,1.26
			c2.24,1.43,5-0.33,6.78,1.83c5.32-0.18,10.15,2.12,15.22,3.17c3.26,0.67,6.55,1.81,9.8,2.82c7.08,2.2,14.13,4.44,21.13,6.9
			c4.08,1.43,8.15,2.94,12.1,4.61c7.66,3.23,15.35,6.43,22.69,10.42c8.06,4.39,16.17,8.68,23.73,13.88
			c5.99,4.12,11.92,8.35,17.71,12.75c3.23,2.46,6.21,5.29,9.14,8.11c4.09,3.92,8.02,8,12.04,12c6.76,6.73,12.52,14.23,18.19,21.91
			c4.05,5.48,7.72,11.18,11.37,16.87c3.74,5.82,6.77,12.16,9.6,18.49c4.47,9.98,8.85,20,11.83,30.59c0.83,2.94,2.01,5.91,2.65,8.85
			c0.64,2.91,1.69,5.71,2.37,8.59c1.5,6.26,2.66,12.56,3.97,18.85c0.46,2.23,0.09,4.77,1.03,6.52c1.18,2.18,0.35,4.18,0.84,6.18
			c1.37,5.65,2.17,11.35,1.98,17.17C1145.49,366.22,1144.9,369.03,1145.04,372.52z M817.41,563c6.72-0.55,14.92,0.68,23.14-0.88
			c5.57-1.06,11.36,0.4,17.1-0.97c3.69-0.88,7.69-0.16,11.57-1.04c3.74-0.85,7.7-0.78,11.56-1.12c0.31-0.03,0.75-0.02,0.9-0.21
			c1.19-1.47,2.8-0.49,4.19-0.79c1.53-0.33,3.04-0.75,4.59-0.98c2.68-0.41,5.56-0.21,8.04-1.14c5.55-2.07,11.48-2.65,16.99-4.83
			c4.44-1.76,9.23-2.7,13.54-4.71c5.73-2.67,11.67-4.85,17.1-8.25c7.16-4.49,14.29-8.92,20.3-14.95c1.22-1.23,3.27-1.87,4.04-3.27
			c1.23-2.23,3.05-3.78,4.73-5.52c2.35-2.42,4.12-5.25,6.07-7.97c2.31-3.2,3.94-6.75,6.07-9.98c2.96-4.49,4.51-9.49,6.71-14.25
			c1.96-4.24,3.05-8.74,4.54-13.13c2.07-6.1,2.91-12.45,4.34-18.68c1.03-4.46,0.99-9.14,2-13.67c0.53-2.38-0.04-4.99,0.13-7.48
			c0.17-2.54,0.86-5.05,0.92-7.59c0.14-6.33,0.15-12.67,0.02-19c-0.14-6.37,0.8-12.8-0.97-19.08c0.74-5.26-1.19-10.36-1-15.58
			c0.01-0.33,0.1-0.7-0.01-0.99c-1.74-4.6-1.81-9.56-2.75-14.31c-0.98-4.94-2.48-9.7-3.73-14.52c-2.43-9.3-6.89-17.87-11.63-26.14
			c-4.04-7.04-8.63-13.85-14.75-19.42c-2.95-2.69-5.35-6.1-8.58-8.35c-4.88-3.4-9.4-7.37-14.81-10.04
			c-5.27-2.6-10.23-5.92-15.66-8.06c-6.29-2.49-12.53-5.27-19.2-6.78c-4.24-0.96-8.35-2.65-12.62-3.22
			c-4.25-0.57-8.21-2.83-12.65-2.12c-1.59-1.85-3.93-0.26-5.53-1.1c-2.05-1.07-4.06-0.83-6.14-0.9c-0.67-0.02-1.5,0.26-1.97-0.05
			c-3.31-2.16-7.17-0.58-10.77-1.73c-3.72-1.18-7.97-0.28-12.04-1.05c-4.18-0.79-8.65-0.44-12.96-0.1
			c-4.46,0.35-8.69-1.15-13.09-1.09c-5.16,0.07-10.34-0.11-15.5,0.05c-5.03,0.16-10.06,0.6-15.08,0.97
			c-5.36,0.39-10.74-0.7-16.12,0.89c-3.38,1-7.08-0.44-10.69,0.77c-3.32,1.11-6.96,0.15-10.49,1.2c-3.33,0.99-7.01,0.8-10.54,1.15
			c-0.47,0.05-1.15-0.03-1.37,0.25c-1.07,1.3-2.49,0.49-3.71,0.76c-1.21,0.27-2.38,0.73-3.59,0.97c-4.45,0.87-8.9,1.74-13.25,3.02
			c-5.79,1.7-11.65,3.22-17.35,5.19c-3.62,1.25-6.89,3.56-10.53,4.71c-3.78,1.19-6.96,3.37-10.37,5.16
			c-8.21,4.3-15.35,10.15-22.23,16.28c-2.65,2.36-4.63,5.46-7.15,7.99c-3.98,4-7.39,8.57-9.96,13.41
			c-4.83,9.1-9.76,18.25-12.19,28.43c-0.94,3.93-2.74,7.59-3.16,11.74c-0.18,1.81-0.23,3.95-0.94,5.55
			c-2.04,4.61-1.59,9.6-2.74,14.34c-0.78,3.21-0.41,6.68-0.98,10.08c-0.69,4.05-0.46,8.33-0.08,12.46c0.4,4.32-1.2,8.35-1.12,12.59
			c0.08,3.89,1.23,7.62,1.16,11.59c-0.09,5.35-0.75,10.72,0.73,16.12c0.87,3.17,0.45,6.68,0.95,10.07c0.67,4.55,1.3,9.12,2.22,13.63
			c0.84,4.12,1.8,8.23,3.01,12.25c1.5,5.02,2.94,10.12,5.08,14.88c1.95,4.35,4.06,8.66,6.47,12.84c3.89,6.74,8.18,13.14,13.27,18.95
			c5.79,6.61,12.63,12.07,19.89,17.06c9.79,6.72,20.59,11.32,31.52,15.65c7.95,3.15,16.46,4.41,24.61,6.96
			c2.55,0.8,5.67,0.11,7.98,1.23c2.73,1.33,5.57,0.6,8.34,1.6c2.35,0.85,5.31,0.79,8.01,1.16c2.85,0.39,5.71,0.35,8.6,0.93
			c3.59,0.72,7.35,0.26,11.08,0.99c3.69,0.73,7.65-0.09,11.46,0.23c3.86,0.32,7.66,1.13,11.59,0.97
			C806.61,562.86,811.28,563,817.41,563z"/>
		<path d="M1845,127.01c46.81,0,93.14,0,139.81,0c0.4,6.39,0.13,12.83,0.18,19.25c0.05,6.33,0.01,12.67,0.01,19c0,6.5,0,13,0,19.5
			c0,6.5,0,13,0,19.5c0,6.33,0,12.67,0,19c0,6.5,0,13,0,19.5c0,6.33,0,12.67,0,19c0,6.41,0,12.82,0,19.23c0.33,0,0.67-0.01,1-0.01
			c0-0.94-0.04-1.87,0.01-2.81c0.11-2.06-0.24-4.09,0.9-6.14c0.88-1.58-0.84-3.96,1.1-5.53c-0.13-4.83,1.96-9.18,2.97-13.76
			c1.43-6.53,3.85-12.73,6.09-18.99c1.55-4.34,3.43-8.59,5.49-12.72c3.55-7.13,7.8-13.86,12.35-20.38c2.38-3.41,5.1-6.59,7.65-9.88
			c4.28-5.51,9.3-10.26,14.33-14.98c4.9-4.6,10.42-8.55,15.66-12.79c2.46-0.23,3.2-2.94,5.49-3.67c2.02-0.64,3.73-2.24,5.57-3.43
			c0.4-0.26,0.71-0.67,1.13-0.89c3.97-2.07,7.94-4.16,11.95-6.16c8.56-4.28,17.41-7.88,26.51-10.84c3.24-1.05,6.54-1.91,9.75-3.03
			c3.69-1.29,7.51-1.97,11.27-2.96c2.71-0.72,5.48-1.22,8.16-2.05c2.69-0.83,5.53-0.77,8.24-1.83c1.96-0.77,4.32-0.37,6.57-0.99
			c3.37-0.92,7.01-0.85,10.54-1.14c2.22-0.18,4.21-1.34,6.59-1.1c2.17,0.22,4.55,0.68,6.6-0.88c0.32-0.24,0.98-0.01,1.47-0.04
			c6.86-0.33,13.72-0.79,20.59-0.96c6.83-0.17,13.67-0.04,20.5-0.04c4.83,0,9.69,0.27,14.49-0.1c3.03-0.23,5.65,1.3,8.59,1.13
			c2.99-0.16,6.16-0.63,8.96,0.12c3.25,0.87,6.41,0.68,9.63,0.85c1.9,0.1,3.54,1.33,5.59,1.06c1.7-0.22,3.37,0.17,5.14,0.76
			c2.33,0.77,5.14-0.23,7.53,1.18c6.44-0.16,12.54,2.03,18.7,3.26c6.77,1.35,13.55,3.22,20.22,5.34c4.56,1.46,9.2,2.7,13.7,4.38
			c3.32,1.24,6.75,2.22,10.02,3.57c5.41,2.24,10.82,4.49,16.06,7.09c5.13,2.55,10.09,5.46,15.03,8.37
			c5.69,3.35,11.15,7.04,16.47,10.98c8.8,6.52,17.11,13.59,24.51,21.65c5.41,5.9,10.24,12.28,15.08,18.68
			c7.61,10.06,13.36,21.1,18.65,32.34c3.92,8.32,7.19,17.05,9.31,26.15c0.94,4.04,2.52,8,3.24,12.12c0.76,4.34,2.52,8.45,2.67,12.92
			c0.05,1.54,0.69,3.05,0.94,4.59c0.23,1.4-0.53,3.01,1.01,4.1c0.08,0.06,0.04,0.32,0.01,0.49c-0.74,4.12,1.31,8,1.02,12.09
			c-0.25,3.41,1.43,6.59,1.06,10.09c-0.35,3.3-0.7,6.81,0.06,9.96c1.53,6.38,0.81,12.76,0.82,19.12
			c0.07,107.83,0.04,215.66,0.07,323.49c0,6.43,0.14,6.25-6.17,6.25c-43.16-0.04-86.33-0.05-129.49,0.01
			c-5.35,0.01-5.39-0.36-5.38-5.56c0.04-107.83,0.03-215.66,0.02-323.49c0-3.72-0.14-7.39-0.84-11.11
			c-0.66-3.56-1.34-7.12-1.96-10.68c-0.37-2.17-0.51-4.64-1.39-6.46c-0.92-1.91-0.99-3.92-1.67-5.81
			c-2.81-7.76-6.32-15.14-10.79-22.03c-4.14-6.38-8.71-12.49-14.5-17.48c-5.29-4.55-10.72-8.91-16.79-12.5
			c-5.21-3.09-10.68-5.63-16.05-8.37c-3.69-1.88-15.96-6.37-21.85-7.61c-4.54-0.96-8.93-2.62-13.46-3.66
			c-2.13-0.49-4.33-0.82-6.49-1.22c-3.15-0.58-6.57-0.19-9.52-1.21c-3.19-1.11-6.5-0.08-9.48-1.24c-3.26-1.26-6.67,0.27-9.71-0.72
			c-4.71-1.55-9.45-0.99-14.12-0.78c-6.77,0.31-13.43-2.01-20.07-1c-9.37,1.41-18.78,0.14-28.08,1.07
			c-4.55,0.46-9.16,0.15-13.57,0.99c-3.41,0.65-6.83,0.26-10.09,0.97c-2.39,0.53-4.88,0.29-7.07,0.99
			c-2.41,0.77-5.07,0.07-7.05,1.03c-2.89,1.39-5.9,0.55-8.83,1.61c-2.68,0.96-5.84,1.16-8.73,1.9c-2.85,0.73-5.74,1.47-8.57,2.16
			c-8.17,1.98-16.02,4.57-23.73,7.96c-10.71,4.7-17.32,8.46-25.51,14.51c-6.63,4.91-12.17,10.8-16.37,17.71
			c-3.68,6.04-7.28,12.36-7.7,19.79c-2.14,2.74-0.64,6.15-1.77,9.25c-1.07,2.94-0.23,6.58-0.23,9.92
			c0,114.99-0.01,229.99,0.02,344.98c0,5.83,0.35,6.08-5.85,6.08c-42.83-0.05-85.66-0.03-128.49-0.03c-0.83,0-1.67,0.03-2.5,0
			c-2.45-0.09-3.08-0.73-3.17-3.2c-0.03-0.83,0-1.67,0-2.5c0-182.49,0-364.98,0-547.47C1845,130.34,1845,128.86,1845,127.01z"/>
		<path d="M1178,127.1c46.8,0,93.25,0,140,0c0,1.71,0,3.34,0,4.97c0,107.66,0.02,215.32-0.09,322.98c0,2.67,0.93,5.03,1.13,7.58
			c0.18,2.37-0.95,4.95,0.96,7.09c-0.39,5.52,2.23,10.46,3.06,15.75c0.38,2.43,1,4.94,2.12,7.1c3.48,6.74,5.85,14.08,10.8,20.04
			c1.39,1.68,2.26,3.79,3.67,5.45c2.95,3.49,5.72,7.28,9.24,10.12c5.65,4.56,10.97,9.48,17.53,13.05c5.72,3.11,11.48,6.1,17.33,8.92
			c3.73,1.8,7.6,3.53,11.6,4.53c3.93,0.98,7.68,2.49,11.59,3.53c4.95,1.32,10.08,1.85,14.95,3.65c2.92,1.08,6.35,0.75,9.53,1.16
			c1.71,0.22,3.39,0.68,5.09,0.97c1.71,0.29,3.65-0.73,5.11,0.99c0.14,0.16,0.64,0.04,0.97,0.02c6.73-0.37,13.32,1.53,20.09,1.06
			c5.7-0.39,11.31,1.36,17.09,1.01c5.81-0.34,11.66-0.16,17.49-0.05c4.08,0.08,7.95-1.46,12.09-1.1c3.97,0.34,8.13,0.71,11.96-0.1
			c3.92-0.83,7.75-0.67,11.62-0.81c2.08-0.07,3.85-1.45,6.1-1.09c2.02,0.32,4.04-0.24,6.11-0.78c3.39-0.88,7.02-0.86,10.55-1.13
			c2.23-0.17,4.24-1.67,6.58-1.02c3.87-1.89,8.2-1.9,12.29-2.88c6.5-1.57,12.88-3.5,19.26-5.46c7.99-2.45,15.46-6.17,22.88-9.93
			c2.92-1.48,5.67-3.34,8.3-5.29c3.6-2.68,7.28-5.36,10.44-8.52s5.92-6.78,8.49-10.46c1.76-2.51,2.98-5.41,4.28-8.21
			c1.29-2.79,2.59-5.61,3.49-8.54c0.74-2.4,0.78-5,1.32-7.46c1.99-9.14,0.92-18.4,0.92-27.59c0.09-111.49,0.06-222.99,0.06-334.48
			c0-1.64,0-3.28,0-5.04c46.68,0,93.13,0,139.79,0c0,185.84,0,371.74,0,557.86c-1.19,0-2.32,0-3.46,0
			c-43.66,0-87.33-0.03-130.99,0.03c-5.38,0.01-5.37-0.41-5.37-5.58c0.05-46.83,0.03-93.66,0.03-140.49c0-1.62,0-3.25,0-4.87
			c-1.53,2.25-0.23,5.03-2,7.11c0.13,5.79-1.62,11.32-3.19,16.7c-1.89,6.48-3.48,13.1-6.38,19.34c-2.26,4.87-3.84,10.12-6.5,14.79
			c-4.04,7.05-7.92,14.21-13.01,20.64c-3.21,4.05-6.51,8-9.83,11.96c-2.31,2.75-4.53,5.6-7.22,7.93
			c-8.59,7.41-17.16,14.87-26.83,20.88c-6.97,4.33-14.4,7.86-21.73,11.5c-7.46,3.71-15.4,6.29-23.25,9.05
			c-2.04,0.72-4.11,1.36-6.17,2c-2.07,0.64-4.13,1.32-6.24,1.84c-1.98,0.49-4.13,0.5-5.99,1.25c-2.03,0.82-4.45,0.33-6.2,1.92
			c-4.2-0.19-8.09,1.47-12.17,2.03c-5.05,0.7-10.02,2.01-15.18,1.97c-2.36,1.6-5.03,0.95-7.59,0.96c-2.27,0.01-4.19,1.52-6.6,1.11
			c-2.11-0.35-4.51-0.63-6.45,0.04c-4.53,1.57-9.09,0.78-13.62,0.84c-11.5,0.15-23,0.17-34.5,0.01c-7.2-0.1-14.43-0.29-21.57-1.12
			c-2.86-0.33-5.76-0.48-8.59-0.93c-2.86-0.45-5.85-0.42-8.56-1.07c-4.74-1.13-9.68-0.89-14.36-2.66c-2.05-0.78-4.68-0.52-7.03-1.13
			c-2.14-0.56-4.63-0.23-6.5-1.19c-1.79-0.92-3.99-0.06-5.03-1c-1.67-1.51-3.77-0.17-5.42-1.73c-1.06-1-3.34-0.6-4.95-1.16
			c-7.44-2.58-15.1-4.42-22.43-7.39c-4.42-1.79-8.89-3.5-13.24-5.46c-4.64-2.09-9.15-4.46-13.73-6.68
			c-5.21-2.51-9.93-5.84-14.9-8.73c-5.19-3.02-9.75-6.88-14.78-10.1c-3.12-1.99-5.78-4.75-8.46-7.36
			c-5.14-4.99-10.15-10.12-15.23-15.18c-6.05-6.02-10.71-13.1-15.59-20.04c-6.37-9.06-11.12-19.01-15.9-28.92
			c-3.21-6.65-5.11-13.87-8.08-20.65c0.63-2.19-0.42-4.35-1.28-5.95c-1.03-1.93-0.3-4.03-1.6-5.9c-0.98-1.41-0.27-4-1.26-5.41
			c-1.3-1.85-0.7-3.93-1.68-5.86c-1.16-2.28-0.82-5.3-1.21-7.98c-0.25-1.71-0.75-3.38-0.96-5.09c-0.21-1.73,0.41-3.6-1.02-5.09
			c-0.08-0.09,0-0.32-0.01-0.49c-0.33-4.7-0.43-9.42-1.04-14.08c-1.97-15-0.66-30.06-0.9-45.09c-0.25-15-0.05-30-0.05-45
			c0-15.17,0-30.33,0-45.5c0-15.17,0-30.33,0-45.5c0-15.01,0-30.02,0-45.03c0-15.17,0-30.33,0-45.5c0-15,0-30,0-45
			C1178,157.84,1178,142.67,1178,127.1z"/>
		<path d="M3209,127c46.86,0,93.19,0,140,0c0,13.26,0,26.53,0,39.79c0,13.5,0,26.99,0,40.49c0,13.33,0,26.66,0,39.99
			c0,13.23,0,26.45,0,39.68c0.27,0.01,0.54,0.01,0.82,0.02c0.06-0.61,0.17-1.23,0.17-1.84c0.02-2.17-0.75-4.78,0.19-6.39
			c1.31-2.25-0.2-4.75,1.2-6.5c1.47-1.84-0.59-4.4,1.61-5.86c-0.18-5.32,2.05-10.17,3.15-15.22c1.21-5.54,3.63-10.8,5.39-16.23
			c1.72-5.3,5.25-9.82,6.46-15.32c3.41-3.76,4.69-8.79,7.66-12.83c2.6-3.54,4.85-7.33,7.36-10.93c1.46-2.09,3.02-4.14,4.72-6.04
			c3.7-4.16,7.17-8.64,11.37-12.23c6.33-5.4,12.5-10.95,19.33-15.84c9.71-6.95,20.01-12.64,30.73-17.68
			c7.81-3.68,16.03-6.4,24.25-9.03c5.76-1.84,11.59-3.6,17.46-4.81c4.14-0.85,8.36-1.76,12.61-2.33c4.39-0.59,8.79-1.34,13.15-2.07
			c2.9-0.49,5.89-0.13,8.58-0.92c4.22-1.24,8.52-0.14,12.6-0.99c7.37-1.55,14.74-0.64,22.11-0.84c7.33-0.2,14.66-0.11,21.99,0
			c2.03,0.03,4.06,0.6,6.08,0.96c1.86,0.33,3.66-0.07,5.68,0.76c2.01,0.83,4.69,0.36,7,1.21c1.3,0.48,2.68,0.76,4.16,1.18
			c0,45.81,0,91.58,0,137.72c-1.7-0.1-3.6,0.93-5.27-0.81c-4.3-0.17-8.3-2.07-12.64-2.12c-1.53-0.02-3.04-0.72-4.59-0.92
			c-1.42-0.18-2.72-0.28-4.14-0.88c-1.8-0.76-4.19,0.4-6.02-1.15c-3.63,0.72-7.02-1.51-10.57-0.94c-2.55,0.4-4.68-0.98-7.09-1.11
			c-2.37-0.13-4.93,0.95-7.12-0.91c-0.29-0.25-0.97-0.02-1.47-0.04c-3.61-0.13-7.31,0.17-10.81-0.53
			c-3.63-0.72-7.19-0.28-10.78-0.44c-3.66-0.16-7.33,0.05-10.99-0.07c-2.05-0.07-4.08,0.42-6.17-0.83
			c-1.22-0.74-3.46-0.63-4.88-0.04c-3.52,1.48-7.09,0.66-10.63,0.88c-1.99,0.12-4-0.05-6,0.04c-6.7,0.3-13.43,0.31-20.06,1.15
			c-2.7,0.34-5.39,0.65-8.1,0.88c-2.7,0.23-5.39,0.73-8.06,1.12c-3.72,0.54-7.58,0.88-11.15,1.97c-3.58,1.1-7.54,0.68-10.8,2.86
			c-6.57,0.68-12.79,2.75-18.91,5.05c-9.55,3.59-18.99,7.39-27.53,13.24c-5.75,3.95-11.3,8.02-16.01,13.17
			c-4.18,4.57-7.62,9.66-10.23,15.26c-2.65,5.7-4.01,11.71-4.96,17.98c-1.71,11.37-0.79,22.74-0.8,34.1
			c-0.12,105.98-0.07,211.96-0.07,317.94c0,1.64,0,3.29,0,5.27c-1.77,0-3.39,0-5.02,0c-42.99,0-85.97,0-128.96,0
			c-1.17,0-2.33-0.01-3.5,0c-1.6,0.02-2.32-0.95-2.5-2.36c-0.12-0.98-0.02-2-0.02-3c0-182.96,0-365.93,0-548.89
			C3209,129.61,3209,128.47,3209,127z"/>
	</g>
</g>
</svg>
