<?xml version="1.0" encoding="utf-8"?>
<!-- Generator: Adobe Illustrator 27.0.1, SVG Export Plug-In . SVG Version: 6.00 Build 0)  -->
<svg version="1.1" id="Layer_1" xmlns="http://www.w3.org/2000/svg" xmlns:xlink="http://www.w3.org/1999/xlink" x="0px" y="0px"
	 viewBox="0 0 616 132" style="enable-background:new 0 0 616 132;" xml:space="preserve">
<style type="text/css">
	.st0{display:none;}
	.st1{display:inline;fill:#F3BB2D;}
	.st2{display:inline;fill:#101820;}
	.st3{fill:#FFFFFF;}
</style>
<g id="layer" class="st0">
	<path class="st1" d="M60.1,66c0,3.2,2.5,5.7,5.7,5.7s5.7-2.5,5.7-5.7s-2.5-5.7-5.7-5.7C62.6,60.4,60.1,62.9,60.1,66 M107.9,60.4
		c-3.2,0-5.7,2.5-5.7,5.7s2.5,5.7,5.7,5.7s5.7-2.5,5.7-5.7S111.1,60.4,107.9,60.4 M107.9,103.2c-3.2,0-5.7,2.5-5.7,5.7
		s2.5,5.7,5.7,5.7s5.7-2.5,5.7-5.7S111.1,103.2,107.9,103.2"/>
	<path class="st1" d="M120,13.3c-5.7-7.1-15.9-7.4-21.9-1.8l-0.7,0.7L96,13.3c-5.7,4.6-14.2,4.2-19.5-1.1v-0.4
		c-1.8-1.8-4.2-3.2-6.7-3.9c-0.4,0-1.1-0.4-1.4-0.4h-5.7c-0.4,0-0.7,0-1.1,0.4h-0.7c-0.4,0-0.7,0.4-1.1,0.4c0,0-0.4,0-0.4,0.4
		c-0.4,0-0.7,0.4-1.1,0.4c0,0-0.4,0-0.4,0.4c-0.4,0.4-0.7,0.4-1.1,0.7c0,0-0.4,0-0.4,0.4C56,11,55.7,11,55.3,11.3l-0.4,0.4l-0.7,0.7
		l-1.4,1.1c-5.7,4.6-14.2,4.2-19.1-1.1c0,0-0.4,0-0.4-0.4l-0.7-0.7c-2.1-1.8-4.6-3.2-7.4-3.5h-6.4c0,0.4-0.4,0.4-0.7,0.7H18
		c-1.8,0.7-3.5,1.4-5,2.8l-0.4,0.4l-1.1,1.1c-1.4,1.4-2.1,3.2-2.8,4.6c0,0.4-0.4,0.7-0.4,1.1s-0.4,0.7-0.4,1.4
		c-0.4,2.5-0.4,5,0.4,7.4c0,0.4,0.4,0.7,0.4,1.1v0.4c0,0.4,0.4,0.7,0.4,1.1c0.4,0.4,0.4,0.7,0.7,1.4c0.7,0.4,1.4,1.1,1.8,1.4
		l0.7,0.7l0.7,0.7c5.3,5.3,5.3,14.5-0.4,20.2c-0.7,0.7-1.8,1.8-2.1,2.5c-0.4,0.4-0.4,0.7-0.7,1.4v0.4c-0.4,0.4-0.4,0.7-0.7,1.1v0.4
		c0,0.4-0.4,0.7-0.4,1.1v0.4c0,0.4,0,0.7-0.4,1.1V68c0,0.4,0,0.7,0.4,1.1v0.4c0.7,2.5,2.1,5,4.2,7.1c5.7,5.7,5.7,14.9,0,20.5
		l-0.4,0.4l-0.7,0.7v0.4c-0.4,0.4-0.7,0.7-0.7,1.1c0,0,0,0.4-0.4,0.4c-0.4,0.4-0.4,0.7-0.7,1.1l-0.4,0.4c0,0.4-0.4,0.4-0.4,0.7
		s-0.4,0.4-0.4,0.7c0,0.4,0,0.4-0.4,0.7c-0.7,1.4-1.1,3.2-1.1,4.6v2.8c0.4,1.1,0.4,2.1,1.1,2.8c0,0.4,0.4,0.7,0.4,0.7s0,0.4,0.4,0.4
		c0,0.4,0.4,0.7,0.4,1.1c0,0,0,0.4,0.4,0.4c0.4,0.7,0.7,1.1,1.1,1.4c0,0,0,0.4,0.4,0.4c0,0,0,0.4,0.4,0.4c0,0.4,0.4,0.4,0.4,0.4
		l0.4,0.4c0.4,0.4,0.7,0.4,0.7,0.7l0.4,0.4c0,0,0.4,0,0.4,0.4c0.4,0.4,0.7,0.7,1.1,0.7c0,0,0.4,0,0.4,0.4c0.4,0.4,0.7,0.4,1.1,0.7
		H17c0.4,0.4,0.7,0.4,1.4,0.4c0.4,0,1.1,0.4,1.4,0.4h0.4c0.4,0,0.7,0,1.1,0.4h3.2c1.1,0,1.8-0.4,2.8-0.4h0.4c0.4,0,0.7-0.4,1.1-0.4
		H29c0.4,0,0.7-0.4,1.1-0.4h0.4c0.7-0.4,1.8-1.1,2.5-1.4l1.1-1.1l0.4-0.4c5.7-6,14.9-6,20.5,0c6.4,6.7,17,6.4,23-1.1
		c4.2-5.3,4.2-13.1,0-18.8c-5.7-7.1-15.9-7.4-21.9-1.8l-0.7,0.7L54,100c-5.7,4.6-14.2,4.2-19.5-1.1l-0.7-0.7l-1.1-1.4
		c-4.6-5.7-4.2-14.2,1.1-19.5c3.2-2.8,4.6-6.7,4.6-10.6v-1.1c0-3.5-1.4-7.1-4.2-9.6c0-0.4-0.4-0.4-0.4-0.7l-1.1-1.4
		c-4.6-5.7-4.2-14.2,1.1-19.5l0.4-0.4l0.4-0.4c5.7-6,14.9-6,20.5,0l0.4,0.4l0.4,0.4l0.7,0.7c0.4,0,0.4,0.4,0.7,0.4s0.4,0.4,0.7,0.4
		s0.4,0.4,0.7,0.4s0.4,0.4,0.7,0.4s0.4,0.4,0.7,0.4s0.4,0.4,0.7,0.4s0.4,0,0.7,0.4c0.4,0,0.4,0,0.7,0.4h6c0.4,0,0.7,0,1.1-0.4H70
		c0.4,0,0.7-0.4,1.1-0.4h0.4c0.4,0,0.7-0.4,1.4-0.7c1.4-0.7,2.8-1.8,3.9-2.8l0.4-0.4c5.7-6,14.9-6,20.5,0c6,7.1,17,6.7,22.7-0.7
		C124.2,26.4,124.2,18.6,120,13.3"/>
	<path class="st2" d="M200.7,57.2c-2.1-2.1-3.9-3.5-6.4-4.6c-2.1-1.1-4.6-1.8-7.8-1.8c-2.8,0-5.7,0.7-7.8,1.8
		c-2.1,1.1-3.9,2.5-5.3,4.6c-1.4,1.8-2.5,3.9-3.2,6.4s-1.1,5-1.1,7.4s0.4,5,1.4,7.4c0.7,2.5,2.1,4.2,3.5,6s3.5,3.2,5.7,4.2
		c2.1,1.1,4.6,1.4,7.4,1.4c3.2,0,5.7-0.7,7.8-1.8s4.2-2.5,6-4.6l7.4,7.8c-2.8,3.2-6,5.3-9.6,6.7c-3.5,1.4-7.4,2.1-11.7,2.1
		c-4.2,0-8.5-0.7-12-2.1s-6.7-3.5-9.2-6s-4.6-5.7-6-9.2s-2.1-7.8-2.1-12s0.7-8.5,2.1-12c1.4-3.5,3.5-6.7,6-9.6
		c2.5-2.5,5.7-4.6,9.2-6s7.8-2.1,12-2.1s8.1,0.7,11.7,2.1c3.9,1.4,7.1,3.9,9.9,6.7L200.7,57.2 M224.7,70.3c0,2.8,0.4,5.7,1.4,7.8
		c0.7,2.5,2.1,4.6,3.5,6.4s3.5,3.2,5.7,3.9c2.1,1.1,5,1.4,7.8,1.4s5.3-0.4,7.8-1.4c2.1-1.1,4.2-2.5,5.7-3.9c1.4-1.8,2.8-3.9,3.5-6.4
		s1.4-5,1.4-7.8s-0.4-5.7-1.4-7.8c-0.7-2.5-2.1-4.6-3.5-6.4s-3.5-3.2-5.7-3.9c-2.1-1.1-5-1.4-7.8-1.4c-2.8,0-5.3,0.4-7.8,1.4
		c-2.1,1.1-4.2,2.5-5.7,3.9c-1.4,1.8-2.8,3.9-3.5,6.4C225.4,65,224.7,67.5,224.7,70.3z M213.4,70.3c0-4.2,0.7-8.1,2.1-11.7
		c1.4-3.5,3.5-6.7,6.4-9.6c2.8-2.8,5.7-5,9.6-6.4c3.5-1.4,7.4-2.5,11.7-2.5s8.1,0.7,11.7,2.5c3.5,1.4,6.7,3.5,9.6,6.4
		c2.8,2.8,4.6,6,6.4,9.6c1.4,3.5,2.1,7.4,2.1,11.7c0,4.2-0.7,8.1-2.1,11.7c-1.4,3.5-3.5,6.7-6.4,9.6c-2.8,2.8-5.7,4.6-9.6,6.4
		c-3.5,1.4-7.4,2.5-11.7,2.5c-4.2,0-8.1-0.7-11.7-2.5c-3.5-1.4-6.7-3.5-9.6-6.4c-2.8-2.8-4.6-5.7-6.4-9.6
		C214.5,78.4,213.4,74.5,213.4,70.3z M283.9,99h10.6V42.4h-10.6V99z M281.4,21.8c0-2.1,0.7-3.9,2.1-5.7c1.4-1.4,3.2-2.5,5.3-2.5
		s3.9,0.7,5.3,2.5c1.4,1.4,2.1,3.5,2.1,5.7s-0.7,3.9-2.1,5.7c-1.4,1.4-3.2,2.5-5.3,2.5s-3.9-0.7-5.3-2.5
		C282.1,26,281.4,23.9,281.4,21.8z M309.3,42.3H320v8.8h0.4c1.4-3.2,3.5-5.7,7.1-7.4c3.2-1.8,7.1-2.8,11.7-2.8
		c2.8,0,5.3,0.4,7.8,1.4c2.5,0.7,4.6,2.1,6.4,3.9s3.2,3.9,4.6,6.7c1.1,2.8,1.8,6,1.8,9.9v36.5H349V65.7c0-2.5-0.4-5-1.1-6.7
		c-0.7-1.8-1.8-3.5-2.8-4.6c-1.1-1.1-2.5-2.1-4.2-2.5c-1.4-0.4-3.2-0.7-5-0.7c-2.1,0-4.2,0.4-6,1.1s-3.5,1.8-5,3.5
		c-1.4,1.4-2.5,3.5-3.2,6s-1.1,5.3-1.1,8.5v29.4H310V42.4 M398.9,90.1c2.8,0,5.3-0.4,7.8-1.4c2.5-1.1,4.2-2.5,6-4.2
		c1.4-1.8,2.8-3.9,3.5-6.4s1.4-5,1.4-8.1c0-2.8-0.4-5.7-1.4-8.1c-0.7-2.5-2.1-4.6-3.5-6.4c-1.8-1.8-3.5-3.2-6-4.2
		c-2.5-1.1-5-1.4-7.8-1.4s-5.3,0.4-7.8,1.4c-2.5,1.1-4.2,2.5-6,4.2c-1.4,1.8-2.8,3.9-3.5,6.4s-1.4,5-1.4,8.1c0,2.8,0.4,5.7,1.4,8.1
		c0.7,2.5,2.1,4.6,3.5,6.4s3.5,3.2,6,4.2C393.2,89.4,396.1,90.1,398.9,90.1z M428.3,98.6h-10.6v-8.1h-0.4c-2.1,3.2-5,5.3-8.5,7.1
		c-3.5,1.8-7.4,2.5-11.3,2.5c-4.2,0-8.5-0.7-12-2.1s-6.7-3.5-9.2-6.4c-2.5-2.8-4.6-6-5.7-9.6c-1.4-3.5-2.1-7.4-2.1-11.7
		s0.7-8.1,2.1-12c1.4-3.5,3.2-6.7,5.7-9.6c2.5-2.8,5.7-5,9.2-6.4s7.4-2.1,12-2.1c3.9,0,7.8,0.7,11.3,2.5c3.5,1.8,6.4,4.2,8.1,7.1
		h0.4V7.3h10.6v91.3L428.3,98.6L428.3,98.6z M482.4,65.7c0-2.5-0.4-4.6-1.1-6.7s-1.8-3.9-3.2-5.3c-1.4-1.4-3.2-2.5-5-3.5
		c-2.1-0.7-4.2-1.4-7.1-1.4c-2.5,0-5,0.4-7.1,1.4c-2.1,1.1-3.9,2.1-5.7,3.9c-1.4,1.4-2.8,3.2-3.5,5.3c-0.7,2.1-1.4,3.9-1.4,5.7h34
		L482.4,65.7z M448.5,74.5c0,2.5,0.7,4.6,1.8,6.7s2.5,3.9,4.2,5.3c1.8,1.4,3.9,2.5,6,3.2c2.5,0.7,4.6,1.1,7.1,1.1
		c3.2,0,6.4-0.7,8.8-2.5c2.5-1.4,4.6-3.5,6.7-6l8.1,6.4c-6,7.8-14.5,11.7-25.1,11.7c-4.6,0-8.5-0.7-12-2.1s-6.7-3.5-9.2-6.4
		c-2.5-2.8-4.6-5.7-5.7-9.6c-1.4-3.5-2.1-7.4-2.1-11.7c0-4.2,0.7-8.1,2.1-11.7c1.4-3.5,3.5-6.7,6-9.6c2.5-2.8,5.7-4.6,9.2-6.4
		c3.5-1.4,7.4-2.1,11.7-2.1c5,0,9.2,0.7,12.7,2.5c3.5,1.8,6.4,3.9,8.5,6.7c2.1,2.8,3.9,6,5,9.6c1.1,3.5,1.4,7.1,1.4,11v3.9H448.5
		L448.5,74.5z M535.5,56.5c-1.4-1.4-2.8-2.8-4.6-3.9s-4.2-1.8-6.7-1.8s-4.6,0.7-6.7,1.8c-1.8,1.1-2.8,2.5-2.8,4.6
		c0,1.8,0.7,3.2,1.8,3.9c1.1,1.1,2.5,1.8,3.9,2.5s3.2,1.1,4.6,1.4c1.8,0.4,3.2,0.7,4.2,0.7c2.1,0.7,4.6,1.1,6.4,2.1
		c2.1,0.7,3.9,1.8,5.3,3.2c1.4,1.4,2.5,2.8,3.5,4.6c0.7,1.8,1.4,3.9,1.4,6.7c0,3.2-0.7,6-2.1,8.1c-1.4,2.1-3.2,4.2-5.3,5.7
		s-4.6,2.5-7.4,3.2c-2.8,0.7-5.7,1.1-8.1,1.1c-4.6,0-8.8-0.7-12.4-2.1c-3.5-1.4-6.7-3.9-9.6-7.8l8.1-6.7c1.8,1.8,3.5,3.2,5.7,4.6
		s4.6,2.1,7.8,2.1c1.4,0,2.8,0,4.2-0.4s2.5-0.7,3.5-1.4c1.1-0.7,1.8-1.4,2.5-2.1c0.7-1.1,1.1-2.1,1.1-3.2c0-1.4-0.4-2.8-1.4-3.9
		c-1.1-1.1-2.1-1.8-3.5-2.5s-2.8-1.1-4.2-1.4l-4.2-1.1c-2.1-0.7-4.6-1.1-6.4-1.8c-2.1-0.7-3.9-1.8-5.3-2.8c-1.4-1.1-2.8-2.8-3.9-4.6
		c-1.1-1.8-1.4-4.2-1.4-6.7c0-2.8,0.7-5.7,1.8-7.8c1.1-2.1,2.8-3.9,5-5.3c2.1-1.4,4.2-2.5,6.7-3.2s5.3-1.1,7.8-1.1
		c3.9,0,7.4,0.7,11,2.1c3.5,1.4,6.4,3.9,8.5,7.1L535.5,56.5 M556.1,8.7h10.6V66l24.1-24.1h14.5l-25.8,25.5l28.3,30.4h-15.2l-25.8-29
		v29h-10.6L556.1,8.7"/>
</g>
<g id="Layer_2_00000078741459510865143020000015973194543297461947_">
	<path class="st3" d="M60.1,66c0,3.2,2.5,5.7,5.7,5.7s5.7-2.5,5.7-5.7s-2.5-5.7-5.7-5.7C62.6,60.4,60.1,62.9,60.1,66 M107.9,60.4
		c-3.2,0-5.7,2.5-5.7,5.7s2.5,5.7,5.7,5.7s5.7-2.5,5.7-5.7S111.1,60.4,107.9,60.4 M107.9,103.2c-3.2,0-5.7,2.5-5.7,5.7
		s2.5,5.7,5.7,5.7s5.7-2.5,5.7-5.7S111.1,103.2,107.9,103.2"/>
	<path class="st3" d="M120,13.3c-5.7-7.1-15.9-7.4-21.9-1.8l-0.7,0.7L96,13.3c-5.7,4.6-14.2,4.2-19.5-1.1v-0.4
		c-1.8-1.8-4.2-3.2-6.7-3.9c-0.4,0-1.1-0.4-1.4-0.4h-5.7c-0.4,0-0.7,0-1.1,0.4h-0.7c-0.4,0-0.7,0.4-1.1,0.4c0,0-0.4,0-0.4,0.4
		c-0.4,0-0.7,0.4-1.1,0.4c0,0-0.4,0-0.4,0.4c-0.4,0.4-0.7,0.4-1.1,0.7c0,0-0.4,0-0.4,0.4C56,11,55.7,11,55.3,11.3l-0.4,0.4l-0.7,0.7
		l-1.4,1.1c-5.7,4.6-14.2,4.2-19.1-1.1c0,0-0.4,0-0.4-0.4l-0.7-0.7c-2.1-1.8-4.6-3.2-7.4-3.5h-6.4c0,0.4-0.4,0.4-0.7,0.7H18
		c-1.8,0.7-3.5,1.4-5,2.8l-0.4,0.4l-1.1,1.1c-1.4,1.4-2.1,3.2-2.8,4.6c0,0.4-0.4,0.7-0.4,1.1s-0.4,0.7-0.4,1.4
		c-0.4,2.5-0.4,5,0.4,7.4c0,0.4,0.4,0.7,0.4,1.1v0.4c0,0.4,0.4,0.7,0.4,1.1c0.4,0.4,0.4,0.7,0.7,1.4c0.7,0.4,1.4,1.1,1.8,1.4
		l0.7,0.7l0.7,0.7c5.3,5.3,5.3,14.5-0.4,20.2c-0.7,0.7-1.8,1.8-2.1,2.5c-0.4,0.4-0.4,0.7-0.7,1.4v0.4c-0.4,0.4-0.4,0.7-0.7,1.1v0.4
		c0,0.4-0.4,0.7-0.4,1.1v0.4c0,0.4,0,0.7-0.4,1.1V68c0,0.4,0,0.7,0.4,1.1v0.4c0.7,2.5,2.1,5,4.2,7.1c5.7,5.7,5.7,14.9,0,20.5
		l-0.4,0.4l-0.7,0.7v0.4c-0.4,0.4-0.7,0.7-0.7,1.1c0,0,0,0.4-0.4,0.4c-0.4,0.4-0.4,0.7-0.7,1.1l-0.4,0.4c0,0.4-0.4,0.4-0.4,0.7
		s-0.4,0.4-0.4,0.7c0,0.4,0,0.4-0.4,0.7c-0.7,1.4-1.1,3.2-1.1,4.6v2.8c0.4,1.1,0.4,2.1,1.1,2.8c0,0.4,0.4,0.7,0.4,0.7s0,0.4,0.4,0.4
		c0,0.4,0.4,0.7,0.4,1.1c0,0,0,0.4,0.4,0.4c0.4,0.7,0.7,1.1,1.1,1.4c0,0,0,0.4,0.4,0.4c0,0,0,0.4,0.4,0.4c0,0.4,0.4,0.4,0.4,0.4
		l0.4,0.4c0.4,0.4,0.7,0.4,0.7,0.7l0.4,0.4c0,0,0.4,0,0.4,0.4c0.4,0.4,0.7,0.7,1.1,0.7c0,0,0.4,0,0.4,0.4c0.4,0.4,0.7,0.4,1.1,0.7
		H17c0.4,0.4,0.7,0.4,1.4,0.4c0.4,0,1.1,0.4,1.4,0.4h0.4c0.4,0,0.7,0,1.1,0.4h3.2c1.1,0,1.8-0.4,2.8-0.4h0.4c0.4,0,0.7-0.4,1.1-0.4
		H29c0.4,0,0.7-0.4,1.1-0.4h0.4c0.7-0.4,1.8-1.1,2.5-1.4l1.1-1.1l0.4-0.4c5.7-6,14.9-6,20.5,0c6.4,6.7,17,6.4,23-1.1
		c4.2-5.3,4.2-13.1,0-18.8c-5.7-7.1-15.9-7.4-21.9-1.8l-0.7,0.7L54,100c-5.7,4.6-14.2,4.2-19.5-1.1l-0.7-0.7l-1.1-1.4
		c-4.6-5.7-4.2-14.2,1.1-19.5c3.2-2.8,4.6-6.7,4.6-10.6v-1.1c0-3.5-1.4-7.1-4.2-9.6c0-0.4-0.4-0.4-0.4-0.7l-1.1-1.4
		c-4.6-5.7-4.2-14.2,1.1-19.5l0.4-0.4l0.4-0.4c5.7-6,14.9-6,20.5,0l0.4,0.4l0.4,0.4l0.7,0.7c0.4,0,0.4,0.4,0.7,0.4s0.4,0.4,0.7,0.4
		s0.4,0.4,0.7,0.4s0.4,0.4,0.7,0.4s0.4,0.4,0.7,0.4s0.4,0.4,0.7,0.4s0.4,0,0.7,0.4c0.4,0,0.4,0,0.7,0.4h6c0.4,0,0.7,0,1.1-0.4H70
		c0.4,0,0.7-0.4,1.1-0.4h0.4c0.4,0,0.7-0.4,1.4-0.7c1.4-0.7,2.8-1.8,3.9-2.8l0.4-0.4c5.7-6,14.9-6,20.5,0c6,7.1,17,6.7,22.7-0.7
		C124.2,26.4,124.2,18.6,120,13.3"/>
	<path class="st3" d="M200.7,57.2c-2.1-2.1-3.9-3.5-6.4-4.6c-2.1-1.1-4.6-1.8-7.8-1.8c-2.8,0-5.7,0.7-7.8,1.8
		c-2.1,1.1-3.9,2.5-5.3,4.6c-1.4,1.8-2.5,3.9-3.2,6.4s-1.1,5-1.1,7.4s0.4,5,1.4,7.4c0.7,2.5,2.1,4.2,3.5,6s3.5,3.2,5.7,4.2
		c2.1,1.1,4.6,1.4,7.4,1.4c3.2,0,5.7-0.7,7.8-1.8s4.2-2.5,6-4.6l7.4,7.8c-2.8,3.2-6,5.3-9.6,6.7c-3.5,1.4-7.4,2.1-11.7,2.1
		c-4.2,0-8.5-0.7-12-2.1s-6.7-3.5-9.2-6s-4.6-5.7-6-9.2s-2.1-7.8-2.1-12s0.7-8.5,2.1-12c1.4-3.5,3.5-6.7,6-9.6
		c2.5-2.5,5.7-4.6,9.2-6s7.8-2.1,12-2.1s8.1,0.7,11.7,2.1c3.9,1.4,7.1,3.9,9.9,6.7L200.7,57.2 M224.7,70.3c0,2.8,0.4,5.7,1.4,7.8
		c0.7,2.5,2.1,4.6,3.5,6.4s3.5,3.2,5.7,3.9c2.1,1.1,5,1.4,7.8,1.4s5.3-0.4,7.8-1.4c2.1-1.1,4.2-2.5,5.7-3.9c1.4-1.8,2.8-3.9,3.5-6.4
		s1.4-5,1.4-7.8s-0.4-5.7-1.4-7.8c-0.7-2.5-2.1-4.6-3.5-6.4s-3.5-3.2-5.7-3.9c-2.1-1.1-5-1.4-7.8-1.4c-2.8,0-5.3,0.4-7.8,1.4
		c-2.1,1.1-4.2,2.5-5.7,3.9c-1.4,1.8-2.8,3.9-3.5,6.4C225.4,65,224.7,67.5,224.7,70.3z M213.4,70.3c0-4.2,0.7-8.1,2.1-11.7
		c1.4-3.5,3.5-6.7,6.4-9.6c2.8-2.8,5.7-5,9.6-6.4c3.5-1.4,7.4-2.5,11.7-2.5s8.1,0.7,11.7,2.5c3.5,1.4,6.7,3.5,9.6,6.4
		c2.8,2.8,4.6,6,6.4,9.6c1.4,3.5,2.1,7.4,2.1,11.7c0,4.2-0.7,8.1-2.1,11.7c-1.4,3.5-3.5,6.7-6.4,9.6c-2.8,2.8-5.7,4.6-9.6,6.4
		c-3.5,1.4-7.4,2.5-11.7,2.5c-4.2,0-8.1-0.7-11.7-2.5c-3.5-1.4-6.7-3.5-9.6-6.4c-2.8-2.8-4.6-5.7-6.4-9.6
		C214.5,78.4,213.4,74.5,213.4,70.3z M283.9,99h10.6V42.4h-10.6V99z M281.4,21.8c0-2.1,0.7-3.9,2.1-5.7c1.4-1.4,3.2-2.5,5.3-2.5
		s3.9,0.7,5.3,2.5c1.4,1.4,2.1,3.5,2.1,5.7s-0.7,3.9-2.1,5.7c-1.4,1.4-3.2,2.5-5.3,2.5s-3.9-0.7-5.3-2.5
		C282.1,26,281.4,23.9,281.4,21.8z M309.3,42.3H320v8.8h0.4c1.4-3.2,3.5-5.7,7.1-7.4c3.2-1.8,7.1-2.8,11.7-2.8
		c2.8,0,5.3,0.4,7.8,1.4c2.5,0.7,4.6,2.1,6.4,3.9s3.2,3.9,4.6,6.7c1.1,2.8,1.8,6,1.8,9.9v36.5H349V65.7c0-2.5-0.4-5-1.1-6.7
		c-0.7-1.8-1.8-3.5-2.8-4.6c-1.1-1.1-2.5-2.1-4.2-2.5c-1.4-0.4-3.2-0.7-5-0.7c-2.1,0-4.2,0.4-6,1.1s-3.5,1.8-5,3.5
		c-1.4,1.4-2.5,3.5-3.2,6s-1.1,5.3-1.1,8.5v29.4H310V42.4 M398.9,90.1c2.8,0,5.3-0.4,7.8-1.4c2.5-1.1,4.2-2.5,6-4.2
		c1.4-1.8,2.8-3.9,3.5-6.4s1.4-5,1.4-8.1c0-2.8-0.4-5.7-1.4-8.1c-0.7-2.5-2.1-4.6-3.5-6.4c-1.8-1.8-3.5-3.2-6-4.2
		c-2.5-1.1-5-1.4-7.8-1.4s-5.3,0.4-7.8,1.4c-2.5,1.1-4.2,2.5-6,4.2c-1.4,1.8-2.8,3.9-3.5,6.4s-1.4,5-1.4,8.1c0,2.8,0.4,5.7,1.4,8.1
		c0.7,2.5,2.1,4.6,3.5,6.4s3.5,3.2,6,4.2C393.2,89.4,396.1,90.1,398.9,90.1z M428.3,98.6h-10.6v-8.1h-0.4c-2.1,3.2-5,5.3-8.5,7.1
		c-3.5,1.8-7.4,2.5-11.3,2.5c-4.2,0-8.5-0.7-12-2.1s-6.7-3.5-9.2-6.4c-2.5-2.8-4.6-6-5.7-9.6c-1.4-3.5-2.1-7.4-2.1-11.7
		s0.7-8.1,2.1-12c1.4-3.5,3.2-6.7,5.7-9.6c2.5-2.8,5.7-5,9.2-6.4s7.4-2.1,12-2.1c3.9,0,7.8,0.7,11.3,2.5c3.5,1.8,6.4,4.2,8.1,7.1
		h0.4V7.3h10.6v91.3L428.3,98.6L428.3,98.6z M482.4,65.7c0-2.5-0.4-4.6-1.1-6.7s-1.8-3.9-3.2-5.3c-1.4-1.4-3.2-2.5-5-3.5
		c-2.1-0.7-4.2-1.4-7.1-1.4c-2.5,0-5,0.4-7.1,1.4c-2.1,1.1-3.9,2.1-5.7,3.9c-1.4,1.4-2.8,3.2-3.5,5.3c-0.7,2.1-1.4,3.9-1.4,5.7h34
		L482.4,65.7z M448.5,74.5c0,2.5,0.7,4.6,1.8,6.7s2.5,3.9,4.2,5.3c1.8,1.4,3.9,2.5,6,3.2c2.5,0.7,4.6,1.1,7.1,1.1
		c3.2,0,6.4-0.7,8.8-2.5c2.5-1.4,4.6-3.5,6.7-6l8.1,6.4c-6,7.8-14.5,11.7-25.1,11.7c-4.6,0-8.5-0.7-12-2.1s-6.7-3.5-9.2-6.4
		c-2.5-2.8-4.6-5.7-5.7-9.6c-1.4-3.5-2.1-7.4-2.1-11.7c0-4.2,0.7-8.1,2.1-11.7c1.4-3.5,3.5-6.7,6-9.6c2.5-2.8,5.7-4.6,9.2-6.4
		c3.5-1.4,7.4-2.1,11.7-2.1c5,0,9.2,0.7,12.7,2.5c3.5,1.8,6.4,3.9,8.5,6.7c2.1,2.8,3.9,6,5,9.6c1.1,3.5,1.4,7.1,1.4,11v3.9H448.5
		L448.5,74.5z M535.5,56.5c-1.4-1.4-2.8-2.8-4.6-3.9s-4.2-1.8-6.7-1.8s-4.6,0.7-6.7,1.8c-1.8,1.1-2.8,2.5-2.8,4.6
		c0,1.8,0.7,3.2,1.8,3.9c1.1,1.1,2.5,1.8,3.9,2.5s3.2,1.1,4.6,1.4c1.8,0.4,3.2,0.7,4.2,0.7c2.1,0.7,4.6,1.1,6.4,2.1
		c2.1,0.7,3.9,1.8,5.3,3.2c1.4,1.4,2.5,2.8,3.5,4.6c0.7,1.8,1.4,3.9,1.4,6.7c0,3.2-0.7,6-2.1,8.1c-1.4,2.1-3.2,4.2-5.3,5.7
		s-4.6,2.5-7.4,3.2c-2.8,0.7-5.7,1.1-8.1,1.1c-4.6,0-8.8-0.7-12.4-2.1c-3.5-1.4-6.7-3.9-9.6-7.8l8.1-6.7c1.8,1.8,3.5,3.2,5.7,4.6
		s4.6,2.1,7.8,2.1c1.4,0,2.8,0,4.2-0.4s2.5-0.7,3.5-1.4c1.1-0.7,1.8-1.4,2.5-2.1c0.7-1.1,1.1-2.1,1.1-3.2c0-1.4-0.4-2.8-1.4-3.9
		c-1.1-1.1-2.1-1.8-3.5-2.5s-2.8-1.1-4.2-1.4l-4.2-1.1c-2.1-0.7-4.6-1.1-6.4-1.8c-2.1-0.7-3.9-1.8-5.3-2.8c-1.4-1.1-2.8-2.8-3.9-4.6
		c-1.1-1.8-1.4-4.2-1.4-6.7c0-2.8,0.7-5.7,1.8-7.8c1.1-2.1,2.8-3.9,5-5.3c2.1-1.4,4.2-2.5,6.7-3.2s5.3-1.1,7.8-1.1
		c3.9,0,7.4,0.7,11,2.1c3.5,1.4,6.4,3.9,8.5,7.1L535.5,56.5 M556.1,8.7h10.6V66l24.1-24.1h14.5l-25.8,25.5l28.3,30.4h-15.2l-25.8-29
		v29h-10.6L556.1,8.7"/>
</g>
</svg>
